solid OpenSCAD_Model
  facet normal 1 0 0
    outer loop
      vertex 13 -142.5 15.3
      vertex 13 -144.5 12.3
      vertex 13 -142.5 3
    endloop
  endfacet
  facet normal 1 -0 0
    outer loop
      vertex 13 -148 15.3
      vertex 13 -144.5 12.3
      vertex 13 -142.5 15.3
    endloop
  endfacet
  facet normal 1 0 0
    outer loop
      vertex 13 -144.5 12.3
      vertex 13 -148 15.3
      vertex 13 -148 12.3
    endloop
  endfacet
  facet normal 1 0 0
    outer loop
      vertex 13 -104 15.3
      vertex 13 -107.5 12.3
      vertex 13 -104 12.3
    endloop
  endfacet
  facet normal 1 -0 0
    outer loop
      vertex 13 -109.5 15.3
      vertex 13 -107.5 12.3
      vertex 13 -104 15.3
    endloop
  endfacet
  facet normal 1 0 0
    outer loop
      vertex 13 -109.5 3
      vertex 13 -107.5 12.3
      vertex 13 -109.5 15.3
    endloop
  endfacet
  facet normal 1 0 0
    outer loop
      vertex 13 -107.5 12.3
      vertex 13 -109.5 3
      vertex 13 -107.5 7.62939e-07
    endloop
  endfacet
  facet normal 1 -0 0
    outer loop
      vertex 13 -142.5 3
      vertex 13 -107.5 7.62939e-07
      vertex 13 -109.5 3
    endloop
  endfacet
  facet normal 1 0 0
    outer loop
      vertex 13 -142.5 3
      vertex 13 -144.5 7.62939e-07
      vertex 13 -107.5 7.62939e-07
    endloop
  endfacet
  facet normal 1 0 0
    outer loop
      vertex 13 -144.5 7.62939e-07
      vertex 13 -142.5 3
      vertex 13 -144.5 12.3
    endloop
  endfacet
  facet normal -0 0 -1
    outer loop
      vertex 6.84089 -106.811 12.3
      vertex 3 -107.5 12.3
      vertex 6.8 -106.5 12.3
    endloop
  endfacet
  facet normal -0 0 -1
    outer loop
      vertex 6.96077 -107.1 12.3
      vertex 3 -107.5 12.3
      vertex 6.84089 -106.811 12.3
    endloop
  endfacet
  facet normal -0 0 -1
    outer loop
      vertex 7.15147 -107.349 12.3
      vertex 3 -107.5 12.3
      vertex 6.96077 -107.1 12.3
    endloop
  endfacet
  facet normal 0 0 -1
    outer loop
      vertex 3 -107.5 12.3
      vertex 7.15147 -107.349 12.3
      vertex 7.34887 -107.5 12.3
    endloop
  endfacet
  facet normal 0 0 -1
    outer loop
      vertex 9.15911 -106.189 12.3
      vertex 13 -107.5 12.3
      vertex 9.2 -106.5 12.3
    endloop
  endfacet
  facet normal 0 0 -1
    outer loop
      vertex 13 -107.5 12.3
      vertex 9.15911 -106.811 12.3
      vertex 9.2 -106.5 12.3
    endloop
  endfacet
  facet normal 0 0 -1
    outer loop
      vertex 13 -107.5 12.3
      vertex 9.03923 -107.1 12.3
      vertex 9.15911 -106.811 12.3
    endloop
  endfacet
  facet normal 0 0 -1
    outer loop
      vertex 13 -107.5 12.3
      vertex 8.84853 -107.349 12.3
      vertex 9.03923 -107.1 12.3
    endloop
  endfacet
  facet normal 0 -0 -1
    outer loop
      vertex 8.84853 -107.349 12.3
      vertex 13 -107.5 12.3
      vertex 8.65113 -107.5 12.3
    endloop
  endfacet
  facet normal 0 0 -1
    outer loop
      vertex 13 -107.5 12.3
      vertex 9.15911 -106.189 12.3
      vertex 13 -104 12.3
    endloop
  endfacet
  facet normal 0 0 -1
    outer loop
      vertex 9.03923 -105.9 12.3
      vertex 13 -104 12.3
      vertex 9.15911 -106.189 12.3
    endloop
  endfacet
  facet normal 0 0 -1
    outer loop
      vertex 8.84853 -105.651 12.3
      vertex 13 -104 12.3
      vertex 9.03923 -105.9 12.3
    endloop
  endfacet
  facet normal 0 0 -1
    outer loop
      vertex 8.6 -105.461 12.3
      vertex 13 -104 12.3
      vertex 8.84853 -105.651 12.3
    endloop
  endfacet
  facet normal 0 0 -1
    outer loop
      vertex 8.31058 -105.341 12.3
      vertex 13 -104 12.3
      vertex 8.6 -105.461 12.3
    endloop
  endfacet
  facet normal 0 0 -1
    outer loop
      vertex 8 -105.3 12.3
      vertex 13 -104 12.3
      vertex 8.31058 -105.341 12.3
    endloop
  endfacet
  facet normal 0 0 -1
    outer loop
      vertex 3 -104 12.3
      vertex 8 -105.3 12.3
      vertex 7.68942 -105.341 12.3
    endloop
  endfacet
  facet normal 0 0 -1
    outer loop
      vertex 3 -107.5 12.3
      vertex 6.84089 -106.189 12.3
      vertex 6.8 -106.5 12.3
    endloop
  endfacet
  facet normal 0 0 -1
    outer loop
      vertex 3 -104 12.3
      vertex 6.84089 -106.189 12.3
      vertex 3 -107.5 12.3
    endloop
  endfacet
  facet normal 0 0 -1
    outer loop
      vertex 6.84089 -106.189 12.3
      vertex 3 -104 12.3
      vertex 6.96077 -105.9 12.3
    endloop
  endfacet
  facet normal 0 0 -1
    outer loop
      vertex 6.96077 -105.9 12.3
      vertex 3 -104 12.3
      vertex 7.15147 -105.651 12.3
    endloop
  endfacet
  facet normal 0 0 -1
    outer loop
      vertex 8 -105.3 12.3
      vertex 3 -104 12.3
      vertex 13 -104 12.3
    endloop
  endfacet
  facet normal 0 0 -1
    outer loop
      vertex 7.4 -105.461 12.3
      vertex 3 -104 12.3
      vertex 7.68942 -105.341 12.3
    endloop
  endfacet
  facet normal 0 0 -1
    outer loop
      vertex 7.15147 -105.651 12.3
      vertex 3 -104 12.3
      vertex 7.4 -105.461 12.3
    endloop
  endfacet
  facet normal 0 0 1
    outer loop
      vertex 13 -104 15.3
      vertex 9.2 -106.5 15.3
      vertex 13 -109.5 15.3
    endloop
  endfacet
  facet normal 0 0 1
    outer loop
      vertex 13 -104 15.3
      vertex 9.15911 -106.189 15.3
      vertex 9.2 -106.5 15.3
    endloop
  endfacet
  facet normal 0 0 1
    outer loop
      vertex 13 -104 15.3
      vertex 9.03923 -105.9 15.3
      vertex 9.15911 -106.189 15.3
    endloop
  endfacet
  facet normal 0 0 1
    outer loop
      vertex 13 -104 15.3
      vertex 8.84853 -105.651 15.3
      vertex 9.03923 -105.9 15.3
    endloop
  endfacet
  facet normal 0 0 1
    outer loop
      vertex 13 -104 15.3
      vertex 8.6 -105.461 15.3
      vertex 8.84853 -105.651 15.3
    endloop
  endfacet
  facet normal 0 0 1
    outer loop
      vertex 13 -104 15.3
      vertex 8.31058 -105.341 15.3
      vertex 8.6 -105.461 15.3
    endloop
  endfacet
  facet normal 0 0 1
    outer loop
      vertex 13 -104 15.3
      vertex 8 -105.3 15.3
      vertex 8.31058 -105.341 15.3
    endloop
  endfacet
  facet normal -0 0 1
    outer loop
      vertex 3 -104 15.3
      vertex 8 -105.3 15.3
      vertex 13 -104 15.3
    endloop
  endfacet
  facet normal 0 0 1
    outer loop
      vertex 6.84089 -106.189 15.3
      vertex 3 -104 15.3
      vertex 6.8 -106.5 15.3
    endloop
  endfacet
  facet normal 0 0 1
    outer loop
      vertex 6.96077 -105.9 15.3
      vertex 3 -104 15.3
      vertex 6.84089 -106.189 15.3
    endloop
  endfacet
  facet normal 0 0 1
    outer loop
      vertex 7.15147 -105.651 15.3
      vertex 3 -104 15.3
      vertex 6.96077 -105.9 15.3
    endloop
  endfacet
  facet normal 0 0 1
    outer loop
      vertex 7.4 -105.461 15.3
      vertex 3 -104 15.3
      vertex 7.15147 -105.651 15.3
    endloop
  endfacet
  facet normal 0 0 1
    outer loop
      vertex 7.68942 -105.341 15.3
      vertex 3 -104 15.3
      vertex 7.4 -105.461 15.3
    endloop
  endfacet
  facet normal 0 0 1
    outer loop
      vertex 8 -105.3 15.3
      vertex 3 -104 15.3
      vertex 7.68942 -105.341 15.3
    endloop
  endfacet
  facet normal -0 0 1
    outer loop
      vertex 9.15911 -106.811 15.3
      vertex 13 -109.5 15.3
      vertex 9.2 -106.5 15.3
    endloop
  endfacet
  facet normal -0 0 1
    outer loop
      vertex 9.03923 -107.1 15.3
      vertex 13 -109.5 15.3
      vertex 9.15911 -106.811 15.3
    endloop
  endfacet
  facet normal -0 0 1
    outer loop
      vertex 8.84853 -107.349 15.3
      vertex 13 -109.5 15.3
      vertex 9.03923 -107.1 15.3
    endloop
  endfacet
  facet normal -0 0 1
    outer loop
      vertex 8.6 -107.539 15.3
      vertex 13 -109.5 15.3
      vertex 8.84853 -107.349 15.3
    endloop
  endfacet
  facet normal -0 0 1
    outer loop
      vertex 8.31058 -107.659 15.3
      vertex 13 -109.5 15.3
      vertex 8.6 -107.539 15.3
    endloop
  endfacet
  facet normal -0 0 1
    outer loop
      vertex 8 -107.7 15.3
      vertex 13 -109.5 15.3
      vertex 8.31058 -107.659 15.3
    endloop
  endfacet
  facet normal 0 0 1
    outer loop
      vertex 3 -109.5 15.3
      vertex 8 -107.7 15.3
      vertex 7.68942 -107.659 15.3
    endloop
  endfacet
  facet normal 0 0 1
    outer loop
      vertex 3 -109.5 15.3
      vertex 6.8 -106.5 15.3
      vertex 3 -104 15.3
    endloop
  endfacet
  facet normal 0 0 1
    outer loop
      vertex 6.8 -106.5 15.3
      vertex 3 -109.5 15.3
      vertex 6.84089 -106.811 15.3
    endloop
  endfacet
  facet normal 0 0 1
    outer loop
      vertex 6.84089 -106.811 15.3
      vertex 3 -109.5 15.3
      vertex 6.96077 -107.1 15.3
    endloop
  endfacet
  facet normal 0 0 1
    outer loop
      vertex 8 -107.7 15.3
      vertex 3 -109.5 15.3
      vertex 13 -109.5 15.3
    endloop
  endfacet
  facet normal 0 0 1
    outer loop
      vertex 7.4 -107.539 15.3
      vertex 3 -109.5 15.3
      vertex 7.68942 -107.659 15.3
    endloop
  endfacet
  facet normal 0 0 1
    outer loop
      vertex 7.15147 -107.349 15.3
      vertex 3 -109.5 15.3
      vertex 7.4 -107.539 15.3
    endloop
  endfacet
  facet normal 0 0 1
    outer loop
      vertex 6.96077 -107.1 15.3
      vertex 3 -109.5 15.3
      vertex 7.15147 -107.349 15.3
    endloop
  endfacet
  facet normal -1 0 0
    outer loop
      vertex 3 -107.5 7.62939e-07
      vertex 3 -109.5 3
      vertex 3 -107.5 12.3
    endloop
  endfacet
  facet normal -1 0 0
    outer loop
      vertex 3 -107.5 7.62939e-07
      vertex 3 -142.5 3
      vertex 3 -109.5 3
    endloop
  endfacet
  facet normal -1 0 0
    outer loop
      vertex 3 -144.5 7.62939e-07
      vertex 3 -142.5 3
      vertex 3 -107.5 7.62939e-07
    endloop
  endfacet
  facet normal -1 0 0
    outer loop
      vertex 3 -144.5 12.3
      vertex 3 -142.5 3
      vertex 3 -144.5 7.62939e-07
    endloop
  endfacet
  facet normal -1 0 0
    outer loop
      vertex 3 -142.5 3
      vertex 3 -144.5 12.3
      vertex 3 -142.5 15.3
    endloop
  endfacet
  facet normal -1 0 0
    outer loop
      vertex 3 -148 15.3
      vertex 3 -144.5 12.3
      vertex 3 -148 12.3
    endloop
  endfacet
  facet normal -1 0 0
    outer loop
      vertex 3 -144.5 12.3
      vertex 3 -148 15.3
      vertex 3 -142.5 15.3
    endloop
  endfacet
  facet normal -1 0 0
    outer loop
      vertex 3 -107.5 12.3
      vertex 3 -104 15.3
      vertex 3 -104 12.3
    endloop
  endfacet
  facet normal -1 0 0
    outer loop
      vertex 3 -107.5 12.3
      vertex 3 -109.5 15.3
      vertex 3 -104 15.3
    endloop
  endfacet
  facet normal -1 0 0
    outer loop
      vertex 3 -109.5 15.3
      vertex 3 -107.5 12.3
      vertex 3 -109.5 3
    endloop
  endfacet
  facet normal 0 -1 0
    outer loop
      vertex 3 -109.5 3
      vertex 13 -109.5 15.3
      vertex 3 -109.5 15.3
    endloop
  endfacet
  facet normal 0 -1 -0
    outer loop
      vertex 13 -109.5 15.3
      vertex 3 -109.5 3
      vertex 13 -109.5 3
    endloop
  endfacet
  facet normal 0 1 -0
    outer loop
      vertex 13 -104 12.3
      vertex 3 -104 15.3
      vertex 13 -104 15.3
    endloop
  endfacet
  facet normal 0 1 0
    outer loop
      vertex 3 -104 15.3
      vertex 13 -104 12.3
      vertex 3 -104 12.3
    endloop
  endfacet
  facet normal 0 0 -1
    outer loop
      vertex 3 -144.5 7.62939e-07
      vertex 13 -107.5 7.62939e-07
      vertex 13 -144.5 7.62939e-07
    endloop
  endfacet
  facet normal -0 0 -1
    outer loop
      vertex 13 -107.5 7.62939e-07
      vertex 3 -144.5 7.62939e-07
      vertex 3 -107.5 7.62939e-07
    endloop
  endfacet
  facet normal 0 1 0
    outer loop
      vertex 13 -107.5 12.3
      vertex 8.65113 -107.5 11.8
      vertex 8.65113 -107.5 12.3
    endloop
  endfacet
  facet normal 0 1 0
    outer loop
      vertex 8.65113 -107.5 11.8
      vertex 13 -107.5 7.62939e-07
      vertex 7.34887 -107.5 11.8
    endloop
  endfacet
  facet normal 0 1 -0
    outer loop
      vertex 13 -107.5 7.62939e-07
      vertex 8.65113 -107.5 11.8
      vertex 13 -107.5 12.3
    endloop
  endfacet
  facet normal 0 1 -0
    outer loop
      vertex 7.34887 -107.5 11.8
      vertex 3 -107.5 12.3
      vertex 7.34887 -107.5 12.3
    endloop
  endfacet
  facet normal 0 1 0
    outer loop
      vertex 3 -107.5 7.62939e-07
      vertex 7.34887 -107.5 11.8
      vertex 13 -107.5 7.62939e-07
    endloop
  endfacet
  facet normal 0 1 0
    outer loop
      vertex 7.34887 -107.5 11.8
      vertex 3 -107.5 7.62939e-07
      vertex 3 -107.5 12.3
    endloop
  endfacet
  facet normal 0 0 -1
    outer loop
      vertex 9.15911 -145.811 12.3
      vertex 13 -144.5 12.3
      vertex 13 -148 12.3
    endloop
  endfacet
  facet normal 0 0 -1
    outer loop
      vertex 13 -144.5 12.3
      vertex 9.15911 -145.811 12.3
      vertex 9.2 -145.5 12.3
    endloop
  endfacet
  facet normal 0 0 -1
    outer loop
      vertex 13 -148 12.3
      vertex 9.03923 -146.1 12.3
      vertex 9.15911 -145.811 12.3
    endloop
  endfacet
  facet normal 0 0 -1
    outer loop
      vertex 13 -148 12.3
      vertex 8.84853 -146.349 12.3
      vertex 9.03923 -146.1 12.3
    endloop
  endfacet
  facet normal 0 0 -1
    outer loop
      vertex 13 -148 12.3
      vertex 8.6 -146.539 12.3
      vertex 8.84853 -146.349 12.3
    endloop
  endfacet
  facet normal 0 0 -1
    outer loop
      vertex 13 -148 12.3
      vertex 8.31058 -146.659 12.3
      vertex 8.6 -146.539 12.3
    endloop
  endfacet
  facet normal 0 0 -1
    outer loop
      vertex 13 -148 12.3
      vertex 8 -146.7 12.3
      vertex 8.31058 -146.659 12.3
    endloop
  endfacet
  facet normal 0 0 -1
    outer loop
      vertex 3 -148 12.3
      vertex 8 -146.7 12.3
      vertex 13 -148 12.3
    endloop
  endfacet
  facet normal 0 0 -1
    outer loop
      vertex 3 -144.5 12.3
      vertex 6.84089 -145.811 12.3
      vertex 3 -148 12.3
    endloop
  endfacet
  facet normal -0 0 -1
    outer loop
      vertex 6.96077 -146.1 12.3
      vertex 3 -148 12.3
      vertex 6.84089 -145.811 12.3
    endloop
  endfacet
  facet normal -0 0 -1
    outer loop
      vertex 7.15147 -146.349 12.3
      vertex 3 -148 12.3
      vertex 6.96077 -146.1 12.3
    endloop
  endfacet
  facet normal -0 0 -1
    outer loop
      vertex 7.4 -146.539 12.3
      vertex 3 -148 12.3
      vertex 7.15147 -146.349 12.3
    endloop
  endfacet
  facet normal -0 0 -1
    outer loop
      vertex 7.68942 -146.659 12.3
      vertex 3 -148 12.3
      vertex 7.4 -146.539 12.3
    endloop
  endfacet
  facet normal -0 0 -1
    outer loop
      vertex 8 -146.7 12.3
      vertex 3 -148 12.3
      vertex 7.68942 -146.659 12.3
    endloop
  endfacet
  facet normal 0 0 -1
    outer loop
      vertex 9.15911 -145.189 12.3
      vertex 13 -144.5 12.3
      vertex 9.2 -145.5 12.3
    endloop
  endfacet
  facet normal 0 0 -1
    outer loop
      vertex 9.03923 -144.9 12.3
      vertex 13 -144.5 12.3
      vertex 9.15911 -145.189 12.3
    endloop
  endfacet
  facet normal 0 0 -1
    outer loop
      vertex 8.84853 -144.651 12.3
      vertex 13 -144.5 12.3
      vertex 9.03923 -144.9 12.3
    endloop
  endfacet
  facet normal -0 0 -1
    outer loop
      vertex 13 -144.5 12.3
      vertex 8.84853 -144.651 12.3
      vertex 8.65113 -144.5 12.3
    endloop
  endfacet
  facet normal 0 0 -1
    outer loop
      vertex 6.84089 -145.811 12.3
      vertex 3 -144.5 12.3
      vertex 6.8 -145.5 12.3
    endloop
  endfacet
  facet normal 0 0 -1
    outer loop
      vertex 6.8 -145.5 12.3
      vertex 3 -144.5 12.3
      vertex 6.84089 -145.189 12.3
    endloop
  endfacet
  facet normal 0 0 -1
    outer loop
      vertex 6.84089 -145.189 12.3
      vertex 3 -144.5 12.3
      vertex 6.96077 -144.9 12.3
    endloop
  endfacet
  facet normal 0 0 -1
    outer loop
      vertex 7.15147 -144.651 12.3
      vertex 3 -144.5 12.3
      vertex 7.34887 -144.5 12.3
    endloop
  endfacet
  facet normal 0 0 -1
    outer loop
      vertex 6.96077 -144.9 12.3
      vertex 3 -144.5 12.3
      vertex 7.15147 -144.651 12.3
    endloop
  endfacet
  facet normal 0 0 1
    outer loop
      vertex 13 -142.5 15.3
      vertex 9.2 -145.5 15.3
      vertex 13 -148 15.3
    endloop
  endfacet
  facet normal 0 0 1
    outer loop
      vertex 13 -142.5 15.3
      vertex 9.15911 -145.189 15.3
      vertex 9.2 -145.5 15.3
    endloop
  endfacet
  facet normal 0 0 1
    outer loop
      vertex 13 -142.5 15.3
      vertex 9.03923 -144.9 15.3
      vertex 9.15911 -145.189 15.3
    endloop
  endfacet
  facet normal 0 0 1
    outer loop
      vertex 13 -142.5 15.3
      vertex 8.84853 -144.651 15.3
      vertex 9.03923 -144.9 15.3
    endloop
  endfacet
  facet normal 0 0 1
    outer loop
      vertex 13 -142.5 15.3
      vertex 8.6 -144.461 15.3
      vertex 8.84853 -144.651 15.3
    endloop
  endfacet
  facet normal 0 0 1
    outer loop
      vertex 13 -142.5 15.3
      vertex 8.31058 -144.341 15.3
      vertex 8.6 -144.461 15.3
    endloop
  endfacet
  facet normal 0 0 1
    outer loop
      vertex 13 -142.5 15.3
      vertex 8 -144.3 15.3
      vertex 8.31058 -144.341 15.3
    endloop
  endfacet
  facet normal -0 0 1
    outer loop
      vertex 3 -142.5 15.3
      vertex 8 -144.3 15.3
      vertex 13 -142.5 15.3
    endloop
  endfacet
  facet normal 0 0 1
    outer loop
      vertex 6.84089 -145.189 15.3
      vertex 3 -142.5 15.3
      vertex 6.8 -145.5 15.3
    endloop
  endfacet
  facet normal 0 0 1
    outer loop
      vertex 6.96077 -144.9 15.3
      vertex 3 -142.5 15.3
      vertex 6.84089 -145.189 15.3
    endloop
  endfacet
  facet normal 0 0 1
    outer loop
      vertex 7.15147 -144.651 15.3
      vertex 3 -142.5 15.3
      vertex 6.96077 -144.9 15.3
    endloop
  endfacet
  facet normal 0 0 1
    outer loop
      vertex 7.4 -144.461 15.3
      vertex 3 -142.5 15.3
      vertex 7.15147 -144.651 15.3
    endloop
  endfacet
  facet normal 0 0 1
    outer loop
      vertex 7.68942 -144.341 15.3
      vertex 3 -142.5 15.3
      vertex 7.4 -144.461 15.3
    endloop
  endfacet
  facet normal 0 0 1
    outer loop
      vertex 8 -144.3 15.3
      vertex 3 -142.5 15.3
      vertex 7.68942 -144.341 15.3
    endloop
  endfacet
  facet normal -0 0 1
    outer loop
      vertex 9.15911 -145.811 15.3
      vertex 13 -148 15.3
      vertex 9.2 -145.5 15.3
    endloop
  endfacet
  facet normal -0 0 1
    outer loop
      vertex 9.03923 -146.1 15.3
      vertex 13 -148 15.3
      vertex 9.15911 -145.811 15.3
    endloop
  endfacet
  facet normal -0 0 1
    outer loop
      vertex 8.84853 -146.349 15.3
      vertex 13 -148 15.3
      vertex 9.03923 -146.1 15.3
    endloop
  endfacet
  facet normal -0 0 1
    outer loop
      vertex 8.6 -146.539 15.3
      vertex 13 -148 15.3
      vertex 8.84853 -146.349 15.3
    endloop
  endfacet
  facet normal -0 0 1
    outer loop
      vertex 8.31058 -146.659 15.3
      vertex 13 -148 15.3
      vertex 8.6 -146.539 15.3
    endloop
  endfacet
  facet normal -0 0 1
    outer loop
      vertex 8 -146.7 15.3
      vertex 13 -148 15.3
      vertex 8.31058 -146.659 15.3
    endloop
  endfacet
  facet normal 0 0 1
    outer loop
      vertex 3 -148 15.3
      vertex 8 -146.7 15.3
      vertex 7.68942 -146.659 15.3
    endloop
  endfacet
  facet normal 0 0 1
    outer loop
      vertex 3 -148 15.3
      vertex 6.8 -145.5 15.3
      vertex 3 -142.5 15.3
    endloop
  endfacet
  facet normal 0 0 1
    outer loop
      vertex 6.8 -145.5 15.3
      vertex 3 -148 15.3
      vertex 6.84089 -145.811 15.3
    endloop
  endfacet
  facet normal 0 0 1
    outer loop
      vertex 6.84089 -145.811 15.3
      vertex 3 -148 15.3
      vertex 6.96077 -146.1 15.3
    endloop
  endfacet
  facet normal 0 0 1
    outer loop
      vertex 8 -146.7 15.3
      vertex 3 -148 15.3
      vertex 13 -148 15.3
    endloop
  endfacet
  facet normal 0 0 1
    outer loop
      vertex 7.4 -146.539 15.3
      vertex 3 -148 15.3
      vertex 7.68942 -146.659 15.3
    endloop
  endfacet
  facet normal 0 0 1
    outer loop
      vertex 7.15147 -146.349 15.3
      vertex 3 -148 15.3
      vertex 7.4 -146.539 15.3
    endloop
  endfacet
  facet normal 0 0 1
    outer loop
      vertex 6.96077 -146.1 15.3
      vertex 3 -148 15.3
      vertex 7.15147 -146.349 15.3
    endloop
  endfacet
  facet normal 0 -1 0
    outer loop
      vertex 3 -148 12.3
      vertex 13 -148 15.3
      vertex 3 -148 15.3
    endloop
  endfacet
  facet normal 0 -1 -0
    outer loop
      vertex 13 -148 15.3
      vertex 3 -148 12.3
      vertex 13 -148 12.3
    endloop
  endfacet
  facet normal 0 1 -0
    outer loop
      vertex 13 -142.5 3
      vertex 3 -142.5 15.3
      vertex 13 -142.5 15.3
    endloop
  endfacet
  facet normal 0 1 0
    outer loop
      vertex 3 -142.5 15.3
      vertex 13 -142.5 3
      vertex 3 -142.5 3
    endloop
  endfacet
  facet normal 0 -1 0
    outer loop
      vertex 3 -144.5 12.3
      vertex 7.34887 -144.5 11.8
      vertex 7.34887 -144.5 12.3
    endloop
  endfacet
  facet normal 0 -1 -0
    outer loop
      vertex 7.34887 -144.5 11.8
      vertex 3 -144.5 7.62939e-07
      vertex 8.65113 -144.5 11.8
    endloop
  endfacet
  facet normal 0 -1 0
    outer loop
      vertex 3 -144.5 7.62939e-07
      vertex 7.34887 -144.5 11.8
      vertex 3 -144.5 12.3
    endloop
  endfacet
  facet normal 0 -1 0
    outer loop
      vertex 8.65113 -144.5 11.8
      vertex 13 -144.5 12.3
      vertex 8.65113 -144.5 12.3
    endloop
  endfacet
  facet normal 0 -1 0
    outer loop
      vertex 13 -144.5 7.62939e-07
      vertex 8.65113 -144.5 11.8
      vertex 3 -144.5 7.62939e-07
    endloop
  endfacet
  facet normal 0 -1 0
    outer loop
      vertex 8.65113 -144.5 11.8
      vertex 13 -144.5 7.62939e-07
      vertex 13 -144.5 12.3
    endloop
  endfacet
  facet normal -0 0 1
    outer loop
      vertex 3 -109.5 3
      vertex 13 -142.5 3
      vertex 13 -109.5 3
    endloop
  endfacet
  facet normal 0 0 1
    outer loop
      vertex 13 -142.5 3
      vertex 3 -109.5 3
      vertex 3 -142.5 3
    endloop
  endfacet
  facet normal -0.923685 0.383153 0
    outer loop
      vertex 9.03923 -107.1 12.3
      vertex 9.15911 -106.811 15.3
      vertex 9.15911 -106.811 12.3
    endloop
  endfacet
  facet normal -0.923685 0.383153 0
    outer loop
      vertex 9.15911 -106.811 15.3
      vertex 9.03923 -107.1 12.3
      vertex 9.03923 -107.1 15.3
    endloop
  endfacet
  facet normal -0.991467 0.130357 0
    outer loop
      vertex 9.15911 -106.811 12.3
      vertex 9.2 -106.5 15.3
      vertex 9.2 -106.5 12.3
    endloop
  endfacet
  facet normal -0.991467 0.130357 0
    outer loop
      vertex 9.2 -106.5 15.3
      vertex 9.15911 -106.811 12.3
      vertex 9.15911 -106.811 15.3
    endloop
  endfacet
  facet normal -0.923685 -0.383153 0
    outer loop
      vertex 9.15911 -106.189 12.3
      vertex 9.03923 -105.9 15.3
      vertex 9.03923 -105.9 12.3
    endloop
  endfacet
  facet normal -0.923685 -0.383153 0
    outer loop
      vertex 9.03923 -105.9 15.3
      vertex 9.15911 -106.189 12.3
      vertex 9.15911 -106.189 15.3
    endloop
  endfacet
  facet normal 0.991467 -0.130357 0
    outer loop
      vertex 6.8 -106.5 15.3
      vertex 6.84089 -106.189 12.3
      vertex 6.84089 -106.189 15.3
    endloop
  endfacet
  facet normal 0.991467 -0.130357 0
    outer loop
      vertex 6.84089 -106.189 12.3
      vertex 6.8 -106.5 15.3
      vertex 6.8 -106.5 12.3
    endloop
  endfacet
  facet normal -0.383006 -0.923746 0
    outer loop
      vertex 8.31058 -105.341 12.3
      vertex 8.6 -105.461 15.3
      vertex 8.31058 -105.341 15.3
    endloop
  endfacet
  facet normal -0.383006 -0.923746 -0
    outer loop
      vertex 8.6 -105.461 15.3
      vertex 8.31058 -105.341 12.3
      vertex 8.6 -105.461 12.3
    endloop
  endfacet
  facet normal 0.383006 -0.923746 0
    outer loop
      vertex 7.4 -105.461 12.3
      vertex 7.68942 -105.341 15.3
      vertex 7.4 -105.461 15.3
    endloop
  endfacet
  facet normal 0.383006 -0.923746 0
    outer loop
      vertex 7.68942 -105.341 15.3
      vertex 7.4 -105.461 12.3
      vertex 7.68942 -105.341 12.3
    endloop
  endfacet
  facet normal -0.130876 -0.991399 0
    outer loop
      vertex 8 -105.3 12.3
      vertex 8.31058 -105.341 15.3
      vertex 8 -105.3 15.3
    endloop
  endfacet
  facet normal -0.130876 -0.991399 -0
    outer loop
      vertex 8.31058 -105.341 15.3
      vertex 8 -105.3 12.3
      vertex 8.31058 -105.341 12.3
    endloop
  endfacet
  facet normal 0 0 1
    outer loop
      vertex 8.65113 -107.5 11.8
      vertex 8.31058 -107.659 11.8
      vertex 8.6 -107.539 11.8
    endloop
  endfacet
  facet normal 0 0 1
    outer loop
      vertex 8.65113 -107.5 11.8
      vertex 8 -107.7 11.8
      vertex 8.31058 -107.659 11.8
    endloop
  endfacet
  facet normal 0 0 1
    outer loop
      vertex 8.65113 -107.5 11.8
      vertex 7.68942 -107.659 11.8
      vertex 8 -107.7 11.8
    endloop
  endfacet
  facet normal -0 0 1
    outer loop
      vertex 7.34887 -107.5 11.8
      vertex 7.68942 -107.659 11.8
      vertex 8.65113 -107.5 11.8
    endloop
  endfacet
  facet normal 0 0 1
    outer loop
      vertex 7.68942 -107.659 11.8
      vertex 7.34887 -107.5 11.8
      vertex 7.4 -107.539 11.8
    endloop
  endfacet
  facet normal 0.991467 0.130357 0
    outer loop
      vertex 6.84089 -106.811 15.3
      vertex 6.8 -106.5 12.3
      vertex 6.8 -106.5 15.3
    endloop
  endfacet
  facet normal 0.991467 0.130357 0
    outer loop
      vertex 6.8 -106.5 12.3
      vertex 6.84089 -106.811 15.3
      vertex 6.84089 -106.811 12.3
    endloop
  endfacet
  facet normal -0.607345 -0.794439 0
    outer loop
      vertex 8.6 -105.461 12.3
      vertex 8.84853 -105.651 15.3
      vertex 8.6 -105.461 15.3
    endloop
  endfacet
  facet normal -0.607345 -0.794439 -0
    outer loop
      vertex 8.84853 -105.651 15.3
      vertex 8.6 -105.461 12.3
      vertex 8.84853 -105.651 12.3
    endloop
  endfacet
  facet normal 0.793914 0.60803 0
    outer loop
      vertex 7.15147 -107.349 15.3
      vertex 6.96077 -107.1 12.3
      vertex 6.96077 -107.1 15.3
    endloop
  endfacet
  facet normal 0.793914 0.60803 0
    outer loop
      vertex 6.96077 -107.1 12.3
      vertex 7.15147 -107.349 15.3
      vertex 7.15147 -107.349 12.3
    endloop
  endfacet
  facet normal 0.130876 -0.991399 0
    outer loop
      vertex 7.68942 -105.341 12.3
      vertex 8 -105.3 15.3
      vertex 7.68942 -105.341 15.3
    endloop
  endfacet
  facet normal 0.130876 -0.991399 0
    outer loop
      vertex 8 -105.3 15.3
      vertex 7.68942 -105.341 12.3
      vertex 8 -105.3 12.3
    endloop
  endfacet
  facet normal 0.923685 -0.383153 0
    outer loop
      vertex 6.84089 -106.189 15.3
      vertex 6.96077 -105.9 12.3
      vertex 6.96077 -105.9 15.3
    endloop
  endfacet
  facet normal 0.923685 -0.383153 0
    outer loop
      vertex 6.96077 -105.9 12.3
      vertex 6.84089 -106.189 15.3
      vertex 6.84089 -106.189 12.3
    endloop
  endfacet
  facet normal -0.793914 -0.60803 0
    outer loop
      vertex 9.03923 -105.9 12.3
      vertex 8.84853 -105.651 15.3
      vertex 8.84853 -105.651 12.3
    endloop
  endfacet
  facet normal -0.793914 -0.60803 0
    outer loop
      vertex 8.84853 -105.651 15.3
      vertex 9.03923 -105.9 12.3
      vertex 9.03923 -105.9 15.3
    endloop
  endfacet
  facet normal 0.130876 0.991399 -0
    outer loop
      vertex 8 -107.7 11.8
      vertex 7.68942 -107.659 15.3
      vertex 8 -107.7 15.3
    endloop
  endfacet
  facet normal 0.130876 0.991399 0
    outer loop
      vertex 7.68942 -107.659 15.3
      vertex 8 -107.7 11.8
      vertex 7.68942 -107.659 11.8
    endloop
  endfacet
  facet normal -0.383006 0.923746 0
    outer loop
      vertex 8.6 -107.539 11.8
      vertex 8.31058 -107.659 15.3
      vertex 8.6 -107.539 15.3
    endloop
  endfacet
  facet normal -0.383006 0.923746 0
    outer loop
      vertex 8.31058 -107.659 15.3
      vertex 8.6 -107.539 11.8
      vertex 8.31058 -107.659 11.8
    endloop
  endfacet
  facet normal 0.607345 -0.794439 0
    outer loop
      vertex 7.15147 -105.651 12.3
      vertex 7.4 -105.461 15.3
      vertex 7.15147 -105.651 15.3
    endloop
  endfacet
  facet normal 0.607345 -0.794439 0
    outer loop
      vertex 7.4 -105.461 15.3
      vertex 7.15147 -105.651 12.3
      vertex 7.4 -105.461 12.3
    endloop
  endfacet
  facet normal 0.383006 0.923746 -0
    outer loop
      vertex 7.68942 -107.659 11.8
      vertex 7.4 -107.539 15.3
      vertex 7.68942 -107.659 15.3
    endloop
  endfacet
  facet normal 0.383006 0.923746 0
    outer loop
      vertex 7.4 -107.539 15.3
      vertex 7.68942 -107.659 11.8
      vertex 7.4 -107.539 11.8
    endloop
  endfacet
  facet normal 0.607345 0.794439 -2.34733e-05
    outer loop
      vertex 7.4 -107.539 15.3
      vertex 7.34887 -107.5 12.3
      vertex 7.15147 -107.349 15.3
    endloop
  endfacet
  facet normal 0.606474 0.795103 -0
    outer loop
      vertex 7.4 -107.539 11.8
      vertex 7.34887 -107.5 12.3
      vertex 7.4 -107.539 15.3
    endloop
  endfacet
  facet normal 0.606474 0.795103 0
    outer loop
      vertex 7.34887 -107.5 12.3
      vertex 7.4 -107.539 11.8
      vertex 7.34887 -107.5 11.8
    endloop
  endfacet
  facet normal 0.60757 0.794266 0
    outer loop
      vertex 7.15147 -107.349 15.3
      vertex 7.34887 -107.5 12.3
      vertex 7.15147 -107.349 12.3
    endloop
  endfacet
  facet normal -0.991467 -0.130357 0
    outer loop
      vertex 9.2 -106.5 12.3
      vertex 9.15911 -106.189 15.3
      vertex 9.15911 -106.189 12.3
    endloop
  endfacet
  facet normal -0.991467 -0.130357 0
    outer loop
      vertex 9.15911 -106.189 15.3
      vertex 9.2 -106.5 12.3
      vertex 9.2 -106.5 15.3
    endloop
  endfacet
  facet normal 0.793914 -0.60803 0
    outer loop
      vertex 6.96077 -105.9 15.3
      vertex 7.15147 -105.651 12.3
      vertex 7.15147 -105.651 15.3
    endloop
  endfacet
  facet normal 0.793914 -0.60803 0
    outer loop
      vertex 7.15147 -105.651 12.3
      vertex 6.96077 -105.9 15.3
      vertex 6.96077 -105.9 12.3
    endloop
  endfacet
  facet normal -0.793914 0.60803 0
    outer loop
      vertex 8.84853 -107.349 12.3
      vertex 9.03923 -107.1 15.3
      vertex 9.03923 -107.1 12.3
    endloop
  endfacet
  facet normal -0.793914 0.60803 0
    outer loop
      vertex 9.03923 -107.1 15.3
      vertex 8.84853 -107.349 12.3
      vertex 8.84853 -107.349 15.3
    endloop
  endfacet
  facet normal -0.60757 0.794266 0
    outer loop
      vertex 8.65113 -107.5 12.3
      vertex 8.84853 -107.349 15.3
      vertex 8.84853 -107.349 12.3
    endloop
  endfacet
  facet normal -0.607345 0.794439 -2.34733e-05
    outer loop
      vertex 8.84853 -107.349 15.3
      vertex 8.65113 -107.5 12.3
      vertex 8.6 -107.539 15.3
    endloop
  endfacet
  facet normal -0.606474 0.795103 0
    outer loop
      vertex 8.6 -107.539 11.8
      vertex 8.65113 -107.5 12.3
      vertex 8.65113 -107.5 11.8
    endloop
  endfacet
  facet normal -0.606474 0.795103 0
    outer loop
      vertex 8.65113 -107.5 12.3
      vertex 8.6 -107.539 11.8
      vertex 8.6 -107.539 15.3
    endloop
  endfacet
  facet normal -0.130876 0.991399 0
    outer loop
      vertex 8.31058 -107.659 11.8
      vertex 8 -107.7 15.3
      vertex 8.31058 -107.659 15.3
    endloop
  endfacet
  facet normal -0.130876 0.991399 0
    outer loop
      vertex 8 -107.7 15.3
      vertex 8.31058 -107.659 11.8
      vertex 8 -107.7 11.8
    endloop
  endfacet
  facet normal 0.923685 0.383153 0
    outer loop
      vertex 6.96077 -107.1 15.3
      vertex 6.84089 -106.811 12.3
      vertex 6.84089 -106.811 15.3
    endloop
  endfacet
  facet normal 0.923685 0.383153 0
    outer loop
      vertex 6.84089 -106.811 12.3
      vertex 6.96077 -107.1 15.3
      vertex 6.96077 -107.1 12.3
    endloop
  endfacet
  facet normal -0.923685 0.383153 0
    outer loop
      vertex 9.03923 -146.1 12.3
      vertex 9.15911 -145.811 15.3
      vertex 9.15911 -145.811 12.3
    endloop
  endfacet
  facet normal -0.923685 0.383153 0
    outer loop
      vertex 9.15911 -145.811 15.3
      vertex 9.03923 -146.1 12.3
      vertex 9.03923 -146.1 15.3
    endloop
  endfacet
  facet normal -0.991467 0.130357 0
    outer loop
      vertex 9.15911 -145.811 12.3
      vertex 9.2 -145.5 15.3
      vertex 9.2 -145.5 12.3
    endloop
  endfacet
  facet normal -0.991467 0.130357 0
    outer loop
      vertex 9.2 -145.5 15.3
      vertex 9.15911 -145.811 12.3
      vertex 9.15911 -145.811 15.3
    endloop
  endfacet
  facet normal -0.923685 -0.383153 0
    outer loop
      vertex 9.15911 -145.189 12.3
      vertex 9.03923 -144.9 15.3
      vertex 9.03923 -144.9 12.3
    endloop
  endfacet
  facet normal -0.923685 -0.383153 0
    outer loop
      vertex 9.03923 -144.9 15.3
      vertex 9.15911 -145.189 12.3
      vertex 9.15911 -145.189 15.3
    endloop
  endfacet
  facet normal 0.991467 -0.130357 0
    outer loop
      vertex 6.8 -145.5 15.3
      vertex 6.84089 -145.189 12.3
      vertex 6.84089 -145.189 15.3
    endloop
  endfacet
  facet normal 0.991467 -0.130357 0
    outer loop
      vertex 6.84089 -145.189 12.3
      vertex 6.8 -145.5 15.3
      vertex 6.8 -145.5 12.3
    endloop
  endfacet
  facet normal -0.383006 -0.923746 0
    outer loop
      vertex 8.31058 -144.341 11.8
      vertex 8.6 -144.461 15.3
      vertex 8.31058 -144.341 15.3
    endloop
  endfacet
  facet normal -0.383006 -0.923746 -0
    outer loop
      vertex 8.6 -144.461 15.3
      vertex 8.31058 -144.341 11.8
      vertex 8.6 -144.461 11.8
    endloop
  endfacet
  facet normal 0.383006 -0.923746 0
    outer loop
      vertex 7.4 -144.461 11.8
      vertex 7.68942 -144.341 15.3
      vertex 7.4 -144.461 15.3
    endloop
  endfacet
  facet normal 0.383006 -0.923746 0
    outer loop
      vertex 7.68942 -144.341 15.3
      vertex 7.4 -144.461 11.8
      vertex 7.68942 -144.341 11.8
    endloop
  endfacet
  facet normal -0.130876 -0.991399 0
    outer loop
      vertex 8 -144.3 11.8
      vertex 8.31058 -144.341 15.3
      vertex 8 -144.3 15.3
    endloop
  endfacet
  facet normal -0.130876 -0.991399 -0
    outer loop
      vertex 8.31058 -144.341 15.3
      vertex 8 -144.3 11.8
      vertex 8.31058 -144.341 11.8
    endloop
  endfacet
  facet normal 0 0 1
    outer loop
      vertex 8.31058 -144.341 11.8
      vertex 8.65113 -144.5 11.8
      vertex 8.6 -144.461 11.8
    endloop
  endfacet
  facet normal 0 0 1
    outer loop
      vertex 8 -144.3 11.8
      vertex 8.65113 -144.5 11.8
      vertex 8.31058 -144.341 11.8
    endloop
  endfacet
  facet normal -0 0 1
    outer loop
      vertex 7.68942 -144.341 11.8
      vertex 8.65113 -144.5 11.8
      vertex 8 -144.3 11.8
    endloop
  endfacet
  facet normal 0 0 1
    outer loop
      vertex 7.34887 -144.5 11.8
      vertex 7.68942 -144.341 11.8
      vertex 7.4 -144.461 11.8
    endloop
  endfacet
  facet normal 0 0 1
    outer loop
      vertex 7.68942 -144.341 11.8
      vertex 7.34887 -144.5 11.8
      vertex 8.65113 -144.5 11.8
    endloop
  endfacet
  facet normal 0.991467 0.130357 0
    outer loop
      vertex 6.84089 -145.811 15.3
      vertex 6.8 -145.5 12.3
      vertex 6.8 -145.5 15.3
    endloop
  endfacet
  facet normal 0.991467 0.130357 0
    outer loop
      vertex 6.8 -145.5 12.3
      vertex 6.84089 -145.811 15.3
      vertex 6.84089 -145.811 12.3
    endloop
  endfacet
  facet normal -0.607345 -0.794439 -2.34733e-05
    outer loop
      vertex 8.6 -144.461 15.3
      vertex 8.65113 -144.5 12.3
      vertex 8.84853 -144.651 15.3
    endloop
  endfacet
  facet normal -0.606474 -0.795103 0
    outer loop
      vertex 8.6 -144.461 11.8
      vertex 8.65113 -144.5 12.3
      vertex 8.6 -144.461 15.3
    endloop
  endfacet
  facet normal -0.606474 -0.795103 -0
    outer loop
      vertex 8.65113 -144.5 12.3
      vertex 8.6 -144.461 11.8
      vertex 8.65113 -144.5 11.8
    endloop
  endfacet
  facet normal -0.60757 -0.794266 -0
    outer loop
      vertex 8.84853 -144.651 15.3
      vertex 8.65113 -144.5 12.3
      vertex 8.84853 -144.651 12.3
    endloop
  endfacet
  facet normal 0.793914 0.60803 0
    outer loop
      vertex 7.15147 -146.349 15.3
      vertex 6.96077 -146.1 12.3
      vertex 6.96077 -146.1 15.3
    endloop
  endfacet
  facet normal 0.793914 0.60803 0
    outer loop
      vertex 6.96077 -146.1 12.3
      vertex 7.15147 -146.349 15.3
      vertex 7.15147 -146.349 12.3
    endloop
  endfacet
  facet normal 0.130876 -0.991399 0
    outer loop
      vertex 7.68942 -144.341 11.8
      vertex 8 -144.3 15.3
      vertex 7.68942 -144.341 15.3
    endloop
  endfacet
  facet normal 0.130876 -0.991399 0
    outer loop
      vertex 8 -144.3 15.3
      vertex 7.68942 -144.341 11.8
      vertex 8 -144.3 11.8
    endloop
  endfacet
  facet normal 0.923685 -0.383153 0
    outer loop
      vertex 6.84089 -145.189 15.3
      vertex 6.96077 -144.9 12.3
      vertex 6.96077 -144.9 15.3
    endloop
  endfacet
  facet normal 0.923685 -0.383153 0
    outer loop
      vertex 6.96077 -144.9 12.3
      vertex 6.84089 -145.189 15.3
      vertex 6.84089 -145.189 12.3
    endloop
  endfacet
  facet normal -0.793914 -0.60803 0
    outer loop
      vertex 9.03923 -144.9 12.3
      vertex 8.84853 -144.651 15.3
      vertex 8.84853 -144.651 12.3
    endloop
  endfacet
  facet normal -0.793914 -0.60803 0
    outer loop
      vertex 8.84853 -144.651 15.3
      vertex 9.03923 -144.9 12.3
      vertex 9.03923 -144.9 15.3
    endloop
  endfacet
  facet normal 0.130876 0.991399 -0
    outer loop
      vertex 8 -146.7 12.3
      vertex 7.68942 -146.659 15.3
      vertex 8 -146.7 15.3
    endloop
  endfacet
  facet normal 0.130876 0.991399 0
    outer loop
      vertex 7.68942 -146.659 15.3
      vertex 8 -146.7 12.3
      vertex 7.68942 -146.659 12.3
    endloop
  endfacet
  facet normal -0.383006 0.923746 0
    outer loop
      vertex 8.6 -146.539 12.3
      vertex 8.31058 -146.659 15.3
      vertex 8.6 -146.539 15.3
    endloop
  endfacet
  facet normal -0.383006 0.923746 0
    outer loop
      vertex 8.31058 -146.659 15.3
      vertex 8.6 -146.539 12.3
      vertex 8.31058 -146.659 12.3
    endloop
  endfacet
  facet normal 0.60757 -0.794266 0
    outer loop
      vertex 7.34887 -144.5 12.3
      vertex 7.15147 -144.651 15.3
      vertex 7.15147 -144.651 12.3
    endloop
  endfacet
  facet normal 0.607345 -0.794439 -2.34733e-05
    outer loop
      vertex 7.15147 -144.651 15.3
      vertex 7.34887 -144.5 12.3
      vertex 7.4 -144.461 15.3
    endloop
  endfacet
  facet normal 0.606474 -0.795103 0
    outer loop
      vertex 7.4 -144.461 11.8
      vertex 7.34887 -144.5 12.3
      vertex 7.34887 -144.5 11.8
    endloop
  endfacet
  facet normal 0.606474 -0.795103 0
    outer loop
      vertex 7.34887 -144.5 12.3
      vertex 7.4 -144.461 11.8
      vertex 7.4 -144.461 15.3
    endloop
  endfacet
  facet normal 0.383006 0.923746 -0
    outer loop
      vertex 7.68942 -146.659 12.3
      vertex 7.4 -146.539 15.3
      vertex 7.68942 -146.659 15.3
    endloop
  endfacet
  facet normal 0.383006 0.923746 0
    outer loop
      vertex 7.4 -146.539 15.3
      vertex 7.68942 -146.659 12.3
      vertex 7.4 -146.539 12.3
    endloop
  endfacet
  facet normal 0.607345 0.794439 -0
    outer loop
      vertex 7.4 -146.539 12.3
      vertex 7.15147 -146.349 15.3
      vertex 7.4 -146.539 15.3
    endloop
  endfacet
  facet normal 0.607345 0.794439 0
    outer loop
      vertex 7.15147 -146.349 15.3
      vertex 7.4 -146.539 12.3
      vertex 7.15147 -146.349 12.3
    endloop
  endfacet
  facet normal -0.991467 -0.130357 0
    outer loop
      vertex 9.2 -145.5 12.3
      vertex 9.15911 -145.189 15.3
      vertex 9.15911 -145.189 12.3
    endloop
  endfacet
  facet normal -0.991467 -0.130357 0
    outer loop
      vertex 9.15911 -145.189 15.3
      vertex 9.2 -145.5 12.3
      vertex 9.2 -145.5 15.3
    endloop
  endfacet
  facet normal 0.793914 -0.60803 0
    outer loop
      vertex 6.96077 -144.9 15.3
      vertex 7.15147 -144.651 12.3
      vertex 7.15147 -144.651 15.3
    endloop
  endfacet
  facet normal 0.793914 -0.60803 0
    outer loop
      vertex 7.15147 -144.651 12.3
      vertex 6.96077 -144.9 15.3
      vertex 6.96077 -144.9 12.3
    endloop
  endfacet
  facet normal -0.793914 0.60803 0
    outer loop
      vertex 8.84853 -146.349 12.3
      vertex 9.03923 -146.1 15.3
      vertex 9.03923 -146.1 12.3
    endloop
  endfacet
  facet normal -0.793914 0.60803 0
    outer loop
      vertex 9.03923 -146.1 15.3
      vertex 8.84853 -146.349 12.3
      vertex 8.84853 -146.349 15.3
    endloop
  endfacet
  facet normal -0.607345 0.794439 0
    outer loop
      vertex 8.84853 -146.349 12.3
      vertex 8.6 -146.539 15.3
      vertex 8.84853 -146.349 15.3
    endloop
  endfacet
  facet normal -0.607345 0.794439 0
    outer loop
      vertex 8.6 -146.539 15.3
      vertex 8.84853 -146.349 12.3
      vertex 8.6 -146.539 12.3
    endloop
  endfacet
  facet normal -0.130876 0.991399 0
    outer loop
      vertex 8.31058 -146.659 12.3
      vertex 8 -146.7 15.3
      vertex 8.31058 -146.659 15.3
    endloop
  endfacet
  facet normal -0.130876 0.991399 0
    outer loop
      vertex 8 -146.7 15.3
      vertex 8.31058 -146.659 12.3
      vertex 8 -146.7 12.3
    endloop
  endfacet
  facet normal 0.923685 0.383153 0
    outer loop
      vertex 6.96077 -146.1 15.3
      vertex 6.84089 -145.811 12.3
      vertex 6.84089 -145.811 15.3
    endloop
  endfacet
  facet normal 0.923685 0.383153 0
    outer loop
      vertex 6.84089 -145.811 12.3
      vertex 6.96077 -146.1 15.3
      vertex 6.96077 -146.1 12.3
    endloop
  endfacet
endsolid OpenSCAD_Model
