solid OpenSCAD_Model
  facet normal -0.923872 0.382701 0
    outer loop
      vertex -8.96077 -64.1 8.7738e-07
      vertex -8.84089 -63.8106 9.67
      vertex -8.84089 -63.8106 8.7738e-07
    endloop
  endfacet
  facet normal -0.923872 0.382701 0
    outer loop
      vertex -8.84089 -63.8106 9.67
      vertex -8.96077 -64.1 8.7738e-07
      vertex -8.96077 -64.1 9.67
    endloop
  endfacet
  facet normal -0.991445 0.130522 0
    outer loop
      vertex -8.84089 -63.8106 8.7738e-07
      vertex -8.8 -63.5 9.67
      vertex -8.8 -63.5 8.7738e-07
    endloop
  endfacet
  facet normal -0.991445 0.130522 0
    outer loop
      vertex -8.8 -63.5 9.67
      vertex -8.84089 -63.8106 8.7738e-07
      vertex -8.84089 -63.8106 9.67
    endloop
  endfacet
  facet normal -0.793324 0.6088 0
    outer loop
      vertex -9.15147 -64.3485 8.7738e-07
      vertex -8.96077 -64.1 9.67
      vertex -8.96077 -64.1 8.7738e-07
    endloop
  endfacet
  facet normal -0.793324 0.6088 0
    outer loop
      vertex -8.96077 -64.1 9.67
      vertex -9.15147 -64.3485 8.7738e-07
      vertex -9.15147 -64.3485 9.67
    endloop
  endfacet
  facet normal 0.793324 0.6088 0
    outer loop
      vertex -10.8485 -64.3485 9.67
      vertex -11.0392 -64.1 8.7738e-07
      vertex -11.0392 -64.1 9.67
    endloop
  endfacet
  facet normal 0.793324 0.6088 0
    outer loop
      vertex -11.0392 -64.1 8.7738e-07
      vertex -10.8485 -64.3485 9.67
      vertex -10.8485 -64.3485 8.7738e-07
    endloop
  endfacet
  facet normal 0.6088 0.793324 -0
    outer loop
      vertex -10.6 -64.5392 8.7738e-07
      vertex -10.8485 -64.3485 9.67
      vertex -10.6 -64.5392 9.67
    endloop
  endfacet
  facet normal 0.6088 0.793324 0
    outer loop
      vertex -10.8485 -64.3485 9.67
      vertex -10.6 -64.5392 8.7738e-07
      vertex -10.8485 -64.3485 8.7738e-07
    endloop
  endfacet
  facet normal -0.382733 -0.923859 0
    outer loop
      vertex -9.68942 -62.3409 8.7738e-07
      vertex -9.4 -62.4608 9.67
      vertex -9.68942 -62.3409 9.67
    endloop
  endfacet
  facet normal -0.382733 -0.923859 -0
    outer loop
      vertex -9.4 -62.4608 9.67
      vertex -9.68942 -62.3409 8.7738e-07
      vertex -9.4 -62.4608 8.7738e-07
    endloop
  endfacet
  facet normal 0.92385 0.382756 0
    outer loop
      vertex -11.0392 -64.1 9.67
      vertex -11.1591 -63.8106 8.7738e-07
      vertex -11.1591 -63.8106 9.67
    endloop
  endfacet
  facet normal 0.92385 0.382756 0
    outer loop
      vertex -11.1591 -63.8106 8.7738e-07
      vertex -11.0392 -64.1 9.67
      vertex -11.0392 -64.1 8.7738e-07
    endloop
  endfacet
  facet normal -0.608754 0.793359 0
    outer loop
      vertex -9.15147 -64.3485 8.7738e-07
      vertex -9.4 -64.5392 9.67
      vertex -9.15147 -64.3485 9.67
    endloop
  endfacet
  facet normal -0.608754 0.793359 0
    outer loop
      vertex -9.4 -64.5392 9.67
      vertex -9.15147 -64.3485 8.7738e-07
      vertex -9.4 -64.5392 8.7738e-07
    endloop
  endfacet
  facet normal -0.130562 0.99144 0
    outer loop
      vertex -9.68942 -64.6591 8.7738e-07
      vertex -10 -64.7 9.67
      vertex -9.68942 -64.6591 9.67
    endloop
  endfacet
  facet normal -0.130562 0.99144 0
    outer loop
      vertex -10 -64.7 9.67
      vertex -9.68942 -64.6591 8.7738e-07
      vertex -10 -64.7 8.7738e-07
    endloop
  endfacet
  facet normal 0.382756 -0.92385 0
    outer loop
      vertex -10.6 -62.4608 8.7738e-07
      vertex -10.3106 -62.3409 9.67
      vertex -10.6 -62.4608 9.67
    endloop
  endfacet
  facet normal 0.382756 -0.92385 0
    outer loop
      vertex -10.3106 -62.3409 9.67
      vertex -10.6 -62.4608 8.7738e-07
      vertex -10.3106 -62.3409 8.7738e-07
    endloop
  endfacet
  facet normal -0.130562 -0.99144 0
    outer loop
      vertex -10 -62.3 8.7738e-07
      vertex -9.68942 -62.3409 9.67
      vertex -10 -62.3 9.67
    endloop
  endfacet
  facet normal -0.130562 -0.99144 -0
    outer loop
      vertex -9.68942 -62.3409 9.67
      vertex -10 -62.3 8.7738e-07
      vertex -9.68942 -62.3409 8.7738e-07
    endloop
  endfacet
  facet normal -0.793324 -0.6088 0
    outer loop
      vertex -8.96077 -62.9 8.7738e-07
      vertex -9.15147 -62.6515 9.67
      vertex -9.15147 -62.6515 8.7738e-07
    endloop
  endfacet
  facet normal -0.793324 -0.6088 0
    outer loop
      vertex -9.15147 -62.6515 9.67
      vertex -8.96077 -62.9 8.7738e-07
      vertex -8.96077 -62.9 9.67
    endloop
  endfacet
  facet normal -0.608754 -0.793359 0
    outer loop
      vertex -9.4 -62.4608 8.7738e-07
      vertex -9.15147 -62.6515 9.67
      vertex -9.4 -62.4608 9.67
    endloop
  endfacet
  facet normal -0.608754 -0.793359 -0
    outer loop
      vertex -9.15147 -62.6515 9.67
      vertex -9.4 -62.4608 8.7738e-07
      vertex -9.15147 -62.6515 8.7738e-07
    endloop
  endfacet
  facet normal 0.793324 -0.6088 0
    outer loop
      vertex -11.0392 -62.9 9.67
      vertex -10.8485 -62.6515 8.7738e-07
      vertex -10.8485 -62.6515 9.67
    endloop
  endfacet
  facet normal 0.793324 -0.6088 0
    outer loop
      vertex -10.8485 -62.6515 8.7738e-07
      vertex -11.0392 -62.9 9.67
      vertex -11.0392 -62.9 8.7738e-07
    endloop
  endfacet
  facet normal -0.991445 -0.130522 0
    outer loop
      vertex -8.8 -63.5 8.7738e-07
      vertex -8.84089 -63.1894 9.67
      vertex -8.84089 -63.1894 8.7738e-07
    endloop
  endfacet
  facet normal -0.991445 -0.130522 0
    outer loop
      vertex -8.84089 -63.1894 9.67
      vertex -8.8 -63.5 8.7738e-07
      vertex -8.8 -63.5 9.67
    endloop
  endfacet
  facet normal 0.991441 0.130554 0
    outer loop
      vertex -11.1591 -63.8106 9.67
      vertex -11.2 -63.5 8.7738e-07
      vertex -11.2 -63.5 9.67
    endloop
  endfacet
  facet normal 0.991441 0.130554 0
    outer loop
      vertex -11.2 -63.5 8.7738e-07
      vertex -11.1591 -63.8106 9.67
      vertex -11.1591 -63.8106 8.7738e-07
    endloop
  endfacet
  facet normal 0.130554 0.991441 -0
    outer loop
      vertex -10 -64.7 8.7738e-07
      vertex -10.3106 -64.6591 9.67
      vertex -10 -64.7 9.67
    endloop
  endfacet
  facet normal 0.130554 0.991441 0
    outer loop
      vertex -10.3106 -64.6591 9.67
      vertex -10 -64.7 8.7738e-07
      vertex -10.3106 -64.6591 8.7738e-07
    endloop
  endfacet
  facet normal -0.923872 -0.382701 0
    outer loop
      vertex -8.84089 -63.1894 8.7738e-07
      vertex -8.96077 -62.9 9.67
      vertex -8.96077 -62.9 8.7738e-07
    endloop
  endfacet
  facet normal -0.923872 -0.382701 0
    outer loop
      vertex -8.96077 -62.9 9.67
      vertex -8.84089 -63.1894 8.7738e-07
      vertex -8.84089 -63.1894 9.67
    endloop
  endfacet
  facet normal 0.382756 0.92385 -0
    outer loop
      vertex -10.3106 -64.6591 8.7738e-07
      vertex -10.6 -64.5392 9.67
      vertex -10.3106 -64.6591 9.67
    endloop
  endfacet
  facet normal 0.382756 0.92385 0
    outer loop
      vertex -10.6 -64.5392 9.67
      vertex -10.3106 -64.6591 8.7738e-07
      vertex -10.6 -64.5392 8.7738e-07
    endloop
  endfacet
  facet normal -0.382733 0.923859 0
    outer loop
      vertex -9.4 -64.5392 8.7738e-07
      vertex -9.68942 -64.6591 9.67
      vertex -9.4 -64.5392 9.67
    endloop
  endfacet
  facet normal -0.382733 0.923859 0
    outer loop
      vertex -9.68942 -64.6591 9.67
      vertex -9.4 -64.5392 8.7738e-07
      vertex -9.68942 -64.6591 8.7738e-07
    endloop
  endfacet
  facet normal 0.130554 -0.991441 0
    outer loop
      vertex -10.3106 -62.3409 8.7738e-07
      vertex -10 -62.3 9.67
      vertex -10.3106 -62.3409 9.67
    endloop
  endfacet
  facet normal 0.130554 -0.991441 0
    outer loop
      vertex -10 -62.3 9.67
      vertex -10.3106 -62.3409 8.7738e-07
      vertex -10 -62.3 8.7738e-07
    endloop
  endfacet
  facet normal 0.92385 -0.382756 0
    outer loop
      vertex -11.1591 -63.1894 9.67
      vertex -11.0392 -62.9 8.7738e-07
      vertex -11.0392 -62.9 9.67
    endloop
  endfacet
  facet normal 0.92385 -0.382756 0
    outer loop
      vertex -11.0392 -62.9 8.7738e-07
      vertex -11.1591 -63.1894 9.67
      vertex -11.1591 -63.1894 8.7738e-07
    endloop
  endfacet
  facet normal 0.991441 -0.130554 0
    outer loop
      vertex -11.2 -63.5 9.67
      vertex -11.1591 -63.1894 8.7738e-07
      vertex -11.1591 -63.1894 9.67
    endloop
  endfacet
  facet normal 0.991441 -0.130554 0
    outer loop
      vertex -11.1591 -63.1894 8.7738e-07
      vertex -11.2 -63.5 9.67
      vertex -11.2 -63.5 8.7738e-07
    endloop
  endfacet
  facet normal 0.6088 -0.793324 0
    outer loop
      vertex -10.8485 -62.6515 8.7738e-07
      vertex -10.6 -62.4608 9.67
      vertex -10.8485 -62.6515 9.67
    endloop
  endfacet
  facet normal 0.6088 -0.793324 0
    outer loop
      vertex -10.6 -62.4608 9.67
      vertex -10.8485 -62.6515 8.7738e-07
      vertex -10.6 -62.4608 8.7738e-07
    endloop
  endfacet
  facet normal -0.92385 0.382756 0
    outer loop
      vertex 11.0392 -64.1 8.7738e-07
      vertex 11.1591 -63.8106 9.67
      vertex 11.1591 -63.8106 8.7738e-07
    endloop
  endfacet
  facet normal -0.92385 0.382756 0
    outer loop
      vertex 11.1591 -63.8106 9.67
      vertex 11.0392 -64.1 8.7738e-07
      vertex 11.0392 -64.1 9.67
    endloop
  endfacet
  facet normal -0.991441 0.130554 0
    outer loop
      vertex 11.1591 -63.8106 8.7738e-07
      vertex 11.2 -63.5 9.67
      vertex 11.2 -63.5 8.7738e-07
    endloop
  endfacet
  facet normal -0.991441 0.130554 0
    outer loop
      vertex 11.2 -63.5 9.67
      vertex 11.1591 -63.8106 8.7738e-07
      vertex 11.1591 -63.8106 9.67
    endloop
  endfacet
  facet normal -0.793324 0.6088 0
    outer loop
      vertex 10.8485 -64.3485 8.7738e-07
      vertex 11.0392 -64.1 9.67
      vertex 11.0392 -64.1 8.7738e-07
    endloop
  endfacet
  facet normal -0.793324 0.6088 0
    outer loop
      vertex 11.0392 -64.1 9.67
      vertex 10.8485 -64.3485 8.7738e-07
      vertex 10.8485 -64.3485 9.67
    endloop
  endfacet
  facet normal 0.793324 0.6088 0
    outer loop
      vertex 9.15147 -64.3485 9.67
      vertex 8.96077 -64.1 8.7738e-07
      vertex 8.96077 -64.1 9.67
    endloop
  endfacet
  facet normal 0.793324 0.6088 0
    outer loop
      vertex 8.96077 -64.1 8.7738e-07
      vertex 9.15147 -64.3485 9.67
      vertex 9.15147 -64.3485 8.7738e-07
    endloop
  endfacet
  facet normal 0.608754 0.793359 -0
    outer loop
      vertex 9.4 -64.5392 8.7738e-07
      vertex 9.15147 -64.3485 9.67
      vertex 9.4 -64.5392 9.67
    endloop
  endfacet
  facet normal 0.608754 0.793359 0
    outer loop
      vertex 9.15147 -64.3485 9.67
      vertex 9.4 -64.5392 8.7738e-07
      vertex 9.15147 -64.3485 8.7738e-07
    endloop
  endfacet
  facet normal -0.382756 -0.92385 0
    outer loop
      vertex 10.3106 -62.3409 8.7738e-07
      vertex 10.6 -62.4608 9.67
      vertex 10.3106 -62.3409 9.67
    endloop
  endfacet
  facet normal -0.382756 -0.92385 -0
    outer loop
      vertex 10.6 -62.4608 9.67
      vertex 10.3106 -62.3409 8.7738e-07
      vertex 10.6 -62.4608 8.7738e-07
    endloop
  endfacet
  facet normal 0.923872 0.382701 0
    outer loop
      vertex 8.96077 -64.1 9.67
      vertex 8.84089 -63.8106 8.7738e-07
      vertex 8.84089 -63.8106 9.67
    endloop
  endfacet
  facet normal 0.923872 0.382701 0
    outer loop
      vertex 8.84089 -63.8106 8.7738e-07
      vertex 8.96077 -64.1 9.67
      vertex 8.96077 -64.1 8.7738e-07
    endloop
  endfacet
  facet normal -0.6088 0.793324 0
    outer loop
      vertex 10.8485 -64.3485 8.7738e-07
      vertex 10.6 -64.5392 9.67
      vertex 10.8485 -64.3485 9.67
    endloop
  endfacet
  facet normal -0.6088 0.793324 0
    outer loop
      vertex 10.6 -64.5392 9.67
      vertex 10.8485 -64.3485 8.7738e-07
      vertex 10.6 -64.5392 8.7738e-07
    endloop
  endfacet
  facet normal -0.130554 0.991441 0
    outer loop
      vertex 10.3106 -64.6591 8.7738e-07
      vertex 10 -64.7 9.67
      vertex 10.3106 -64.6591 9.67
    endloop
  endfacet
  facet normal -0.130554 0.991441 0
    outer loop
      vertex 10 -64.7 9.67
      vertex 10.3106 -64.6591 8.7738e-07
      vertex 10 -64.7 8.7738e-07
    endloop
  endfacet
  facet normal 0.382733 -0.923859 0
    outer loop
      vertex 9.4 -62.4608 8.7738e-07
      vertex 9.68942 -62.3409 9.67
      vertex 9.4 -62.4608 9.67
    endloop
  endfacet
  facet normal 0.382733 -0.923859 0
    outer loop
      vertex 9.68942 -62.3409 9.67
      vertex 9.4 -62.4608 8.7738e-07
      vertex 9.68942 -62.3409 8.7738e-07
    endloop
  endfacet
  facet normal -0.130554 -0.991441 0
    outer loop
      vertex 10 -62.3 8.7738e-07
      vertex 10.3106 -62.3409 9.67
      vertex 10 -62.3 9.67
    endloop
  endfacet
  facet normal -0.130554 -0.991441 -0
    outer loop
      vertex 10.3106 -62.3409 9.67
      vertex 10 -62.3 8.7738e-07
      vertex 10.3106 -62.3409 8.7738e-07
    endloop
  endfacet
  facet normal -0.793324 -0.6088 0
    outer loop
      vertex 11.0392 -62.9 8.7738e-07
      vertex 10.8485 -62.6515 9.67
      vertex 10.8485 -62.6515 8.7738e-07
    endloop
  endfacet
  facet normal -0.793324 -0.6088 0
    outer loop
      vertex 10.8485 -62.6515 9.67
      vertex 11.0392 -62.9 8.7738e-07
      vertex 11.0392 -62.9 9.67
    endloop
  endfacet
  facet normal -0.6088 -0.793324 0
    outer loop
      vertex 10.6 -62.4608 8.7738e-07
      vertex 10.8485 -62.6515 9.67
      vertex 10.6 -62.4608 9.67
    endloop
  endfacet
  facet normal -0.6088 -0.793324 -0
    outer loop
      vertex 10.8485 -62.6515 9.67
      vertex 10.6 -62.4608 8.7738e-07
      vertex 10.8485 -62.6515 8.7738e-07
    endloop
  endfacet
  facet normal 0.793324 -0.6088 0
    outer loop
      vertex 8.96077 -62.9 9.67
      vertex 9.15147 -62.6515 8.7738e-07
      vertex 9.15147 -62.6515 9.67
    endloop
  endfacet
  facet normal 0.793324 -0.6088 0
    outer loop
      vertex 9.15147 -62.6515 8.7738e-07
      vertex 8.96077 -62.9 9.67
      vertex 8.96077 -62.9 8.7738e-07
    endloop
  endfacet
  facet normal -0.991441 -0.130554 0
    outer loop
      vertex 11.2 -63.5 8.7738e-07
      vertex 11.1591 -63.1894 9.67
      vertex 11.1591 -63.1894 8.7738e-07
    endloop
  endfacet
  facet normal -0.991441 -0.130554 0
    outer loop
      vertex 11.1591 -63.1894 9.67
      vertex 11.2 -63.5 8.7738e-07
      vertex 11.2 -63.5 9.67
    endloop
  endfacet
  facet normal 0.991445 0.130522 0
    outer loop
      vertex 8.84089 -63.8106 9.67
      vertex 8.8 -63.5 8.7738e-07
      vertex 8.8 -63.5 9.67
    endloop
  endfacet
  facet normal 0.991445 0.130522 0
    outer loop
      vertex 8.8 -63.5 8.7738e-07
      vertex 8.84089 -63.8106 9.67
      vertex 8.84089 -63.8106 8.7738e-07
    endloop
  endfacet
  facet normal 0.130562 0.99144 -0
    outer loop
      vertex 10 -64.7 8.7738e-07
      vertex 9.68942 -64.6591 9.67
      vertex 10 -64.7 9.67
    endloop
  endfacet
  facet normal 0.130562 0.99144 0
    outer loop
      vertex 9.68942 -64.6591 9.67
      vertex 10 -64.7 8.7738e-07
      vertex 9.68942 -64.6591 8.7738e-07
    endloop
  endfacet
  facet normal -0.92385 -0.382756 0
    outer loop
      vertex 11.1591 -63.1894 8.7738e-07
      vertex 11.0392 -62.9 9.67
      vertex 11.0392 -62.9 8.7738e-07
    endloop
  endfacet
  facet normal -0.92385 -0.382756 0
    outer loop
      vertex 11.0392 -62.9 9.67
      vertex 11.1591 -63.1894 8.7738e-07
      vertex 11.1591 -63.1894 9.67
    endloop
  endfacet
  facet normal 0.382733 0.923859 -0
    outer loop
      vertex 9.68942 -64.6591 8.7738e-07
      vertex 9.4 -64.5392 9.67
      vertex 9.68942 -64.6591 9.67
    endloop
  endfacet
  facet normal 0.382733 0.923859 0
    outer loop
      vertex 9.4 -64.5392 9.67
      vertex 9.68942 -64.6591 8.7738e-07
      vertex 9.4 -64.5392 8.7738e-07
    endloop
  endfacet
  facet normal -0.382756 0.92385 0
    outer loop
      vertex 10.6 -64.5392 8.7738e-07
      vertex 10.3106 -64.6591 9.67
      vertex 10.6 -64.5392 9.67
    endloop
  endfacet
  facet normal -0.382756 0.92385 0
    outer loop
      vertex 10.3106 -64.6591 9.67
      vertex 10.6 -64.5392 8.7738e-07
      vertex 10.3106 -64.6591 8.7738e-07
    endloop
  endfacet
  facet normal 0.130562 -0.99144 0
    outer loop
      vertex 9.68942 -62.3409 8.7738e-07
      vertex 10 -62.3 9.67
      vertex 9.68942 -62.3409 9.67
    endloop
  endfacet
  facet normal 0.130562 -0.99144 0
    outer loop
      vertex 10 -62.3 9.67
      vertex 9.68942 -62.3409 8.7738e-07
      vertex 10 -62.3 8.7738e-07
    endloop
  endfacet
  facet normal 0.923872 -0.382701 0
    outer loop
      vertex 8.84089 -63.1894 9.67
      vertex 8.96077 -62.9 8.7738e-07
      vertex 8.96077 -62.9 9.67
    endloop
  endfacet
  facet normal 0.923872 -0.382701 0
    outer loop
      vertex 8.96077 -62.9 8.7738e-07
      vertex 8.84089 -63.1894 9.67
      vertex 8.84089 -63.1894 8.7738e-07
    endloop
  endfacet
  facet normal 0.991445 -0.130522 0
    outer loop
      vertex 8.8 -63.5 9.67
      vertex 8.84089 -63.1894 8.7738e-07
      vertex 8.84089 -63.1894 9.67
    endloop
  endfacet
  facet normal 0.991445 -0.130522 0
    outer loop
      vertex 8.84089 -63.1894 8.7738e-07
      vertex 8.8 -63.5 9.67
      vertex 8.8 -63.5 8.7738e-07
    endloop
  endfacet
  facet normal 0.608754 -0.793359 0
    outer loop
      vertex 9.15147 -62.6515 8.7738e-07
      vertex 9.4 -62.4608 9.67
      vertex 9.15147 -62.6515 9.67
    endloop
  endfacet
  facet normal 0.608754 -0.793359 0
    outer loop
      vertex 9.4 -62.4608 9.67
      vertex 9.15147 -62.6515 8.7738e-07
      vertex 9.4 -62.4608 8.7738e-07
    endloop
  endfacet
  facet normal 1 -0 0
    outer loop
      vertex 14 -76.5 9.67
      vertex 14 -50.5 8.7738e-07
      vertex 14 -50.5 9.67
    endloop
  endfacet
  facet normal 1 0 0
    outer loop
      vertex 14 -50.5 8.7738e-07
      vertex 14 -76.5 9.67
      vertex 14 -76.5 8.7738e-07
    endloop
  endfacet
  facet normal 0 0 -1
    outer loop
      vertex 14 -76.5 8.7738e-07
      vertex 11.2 -63.5 8.7738e-07
      vertex 14 -50.5 8.7738e-07
    endloop
  endfacet
  facet normal 0 0 -1
    outer loop
      vertex 14 -76.5 8.7738e-07
      vertex 11.1591 -63.8106 8.7738e-07
      vertex 11.2 -63.5 8.7738e-07
    endloop
  endfacet
  facet normal 0 0 -1
    outer loop
      vertex 14 -76.5 8.7738e-07
      vertex 11.0392 -64.1 8.7738e-07
      vertex 11.1591 -63.8106 8.7738e-07
    endloop
  endfacet
  facet normal 0 0 -1
    outer loop
      vertex 14 -76.5 8.7738e-07
      vertex 10.8485 -64.3485 8.7738e-07
      vertex 11.0392 -64.1 8.7738e-07
    endloop
  endfacet
  facet normal 0 0 -1
    outer loop
      vertex 14 -76.5 8.7738e-07
      vertex 10.6 -64.5392 8.7738e-07
      vertex 10.8485 -64.3485 8.7738e-07
    endloop
  endfacet
  facet normal 0 0 -1
    outer loop
      vertex 14 -76.5 8.7738e-07
      vertex 10.3106 -64.6591 8.7738e-07
      vertex 10.6 -64.5392 8.7738e-07
    endloop
  endfacet
  facet normal 0 0 -1
    outer loop
      vertex 14 -76.5 8.7738e-07
      vertex 10 -64.7 8.7738e-07
      vertex 10.3106 -64.6591 8.7738e-07
    endloop
  endfacet
  facet normal 0 0 -1
    outer loop
      vertex 14 -76.5 8.7738e-07
      vertex 9.68942 -64.6591 8.7738e-07
      vertex 10 -64.7 8.7738e-07
    endloop
  endfacet
  facet normal 0 0 -1
    outer loop
      vertex 14 -76.5 8.7738e-07
      vertex 9.4 -64.5392 8.7738e-07
      vertex 9.68942 -64.6591 8.7738e-07
    endloop
  endfacet
  facet normal 0 0 -1
    outer loop
      vertex 14 -76.5 8.7738e-07
      vertex 9.15147 -64.3485 8.7738e-07
      vertex 9.4 -64.5392 8.7738e-07
    endloop
  endfacet
  facet normal 0 0 -1
    outer loop
      vertex -9.15147 -64.3485 8.7738e-07
      vertex 9.15147 -64.3485 8.7738e-07
      vertex 14 -76.5 8.7738e-07
    endloop
  endfacet
  facet normal 0 0 -1
    outer loop
      vertex 9.15147 -64.3485 8.7738e-07
      vertex -9.15147 -64.3485 8.7738e-07
      vertex 8.96077 -64.1 8.7738e-07
    endloop
  endfacet
  facet normal 0 0 -1
    outer loop
      vertex 8.84089 -63.8106 8.7738e-07
      vertex -8.8 -63.5 8.7738e-07
      vertex 8.8 -63.5 8.7738e-07
    endloop
  endfacet
  facet normal 0 -0 -1
    outer loop
      vertex -8.96077 -64.1 8.7738e-07
      vertex 8.96077 -64.1 8.7738e-07
      vertex -9.15147 -64.3485 8.7738e-07
    endloop
  endfacet
  facet normal 0 0 -1
    outer loop
      vertex 8.84089 -63.8106 8.7738e-07
      vertex -8.84089 -63.8106 8.7738e-07
      vertex -8.8 -63.5 8.7738e-07
    endloop
  endfacet
  facet normal -0 0 -1
    outer loop
      vertex 8.84089 -63.8106 8.7738e-07
      vertex -8.96077 -64.1 8.7738e-07
      vertex -8.84089 -63.8106 8.7738e-07
    endloop
  endfacet
  facet normal 0 0 -1
    outer loop
      vertex 8.96077 -64.1 8.7738e-07
      vertex -8.96077 -64.1 8.7738e-07
      vertex 8.84089 -63.8106 8.7738e-07
    endloop
  endfacet
  facet normal 0 0 -1
    outer loop
      vertex -14 -76.5 8.7738e-07
      vertex -9.15147 -64.3485 8.7738e-07
      vertex 14 -76.5 8.7738e-07
    endloop
  endfacet
  facet normal 0 0 -1
    outer loop
      vertex -9.15147 -64.3485 8.7738e-07
      vertex -14 -76.5 8.7738e-07
      vertex -9.4 -64.5392 8.7738e-07
    endloop
  endfacet
  facet normal 0 0 -1
    outer loop
      vertex -9.4 -64.5392 8.7738e-07
      vertex -14 -76.5 8.7738e-07
      vertex -9.68942 -64.6591 8.7738e-07
    endloop
  endfacet
  facet normal 0 0 -1
    outer loop
      vertex -9.68942 -64.6591 8.7738e-07
      vertex -14 -76.5 8.7738e-07
      vertex -10 -64.7 8.7738e-07
    endloop
  endfacet
  facet normal -0 0 -1
    outer loop
      vertex -10 -64.7 8.7738e-07
      vertex -14 -76.5 8.7738e-07
      vertex -10.3106 -64.6591 8.7738e-07
    endloop
  endfacet
  facet normal -0 0 -1
    outer loop
      vertex -11.1591 -63.8106 8.7738e-07
      vertex -14 -76.5 8.7738e-07
      vertex -11.2 -63.5 8.7738e-07
    endloop
  endfacet
  facet normal -0 0 -1
    outer loop
      vertex -11.0392 -64.1 8.7738e-07
      vertex -14 -76.5 8.7738e-07
      vertex -11.1591 -63.8106 8.7738e-07
    endloop
  endfacet
  facet normal -0 0 -1
    outer loop
      vertex -10.8485 -64.3485 8.7738e-07
      vertex -14 -76.5 8.7738e-07
      vertex -11.0392 -64.1 8.7738e-07
    endloop
  endfacet
  facet normal -0 0 -1
    outer loop
      vertex -10.6 -64.5392 8.7738e-07
      vertex -14 -76.5 8.7738e-07
      vertex -10.8485 -64.3485 8.7738e-07
    endloop
  endfacet
  facet normal -0 0 -1
    outer loop
      vertex -10.3106 -64.6591 8.7738e-07
      vertex -14 -76.5 8.7738e-07
      vertex -10.6 -64.5392 8.7738e-07
    endloop
  endfacet
  facet normal 0 0 -1
    outer loop
      vertex 11.1591 -63.1894 8.7738e-07
      vertex 14 -50.5 8.7738e-07
      vertex 11.2 -63.5 8.7738e-07
    endloop
  endfacet
  facet normal 0 0 -1
    outer loop
      vertex 11.0392 -62.9 8.7738e-07
      vertex 14 -50.5 8.7738e-07
      vertex 11.1591 -63.1894 8.7738e-07
    endloop
  endfacet
  facet normal 0 0 -1
    outer loop
      vertex 10.8485 -62.6515 8.7738e-07
      vertex 14 -50.5 8.7738e-07
      vertex 11.0392 -62.9 8.7738e-07
    endloop
  endfacet
  facet normal 0 0 -1
    outer loop
      vertex 10.6 -62.4608 8.7738e-07
      vertex 14 -50.5 8.7738e-07
      vertex 10.8485 -62.6515 8.7738e-07
    endloop
  endfacet
  facet normal 0 0 -1
    outer loop
      vertex 10.3106 -62.3409 8.7738e-07
      vertex 14 -50.5 8.7738e-07
      vertex 10.6 -62.4608 8.7738e-07
    endloop
  endfacet
  facet normal 0 0 -1
    outer loop
      vertex 10 -62.3 8.7738e-07
      vertex 14 -50.5 8.7738e-07
      vertex 10.3106 -62.3409 8.7738e-07
    endloop
  endfacet
  facet normal 0 0 -1
    outer loop
      vertex 9.68942 -62.3409 8.7738e-07
      vertex 14 -50.5 8.7738e-07
      vertex 10 -62.3 8.7738e-07
    endloop
  endfacet
  facet normal 0 0 -1
    outer loop
      vertex 9.4 -62.4608 8.7738e-07
      vertex 14 -50.5 8.7738e-07
      vertex 9.68942 -62.3409 8.7738e-07
    endloop
  endfacet
  facet normal 0 0 -1
    outer loop
      vertex 9.15147 -62.6515 8.7738e-07
      vertex 14 -50.5 8.7738e-07
      vertex 9.4 -62.4608 8.7738e-07
    endloop
  endfacet
  facet normal 0 0 -1
    outer loop
      vertex -9.15147 -62.6515 8.7738e-07
      vertex 9.15147 -62.6515 8.7738e-07
      vertex 8.96077 -62.9 8.7738e-07
    endloop
  endfacet
  facet normal 0 0 -1
    outer loop
      vertex -8.96077 -62.9 8.7738e-07
      vertex 8.96077 -62.9 8.7738e-07
      vertex 8.84089 -63.1894 8.7738e-07
    endloop
  endfacet
  facet normal 0 0 -1
    outer loop
      vertex -8.8 -63.5 8.7738e-07
      vertex 8.84089 -63.1894 8.7738e-07
      vertex 8.8 -63.5 8.7738e-07
    endloop
  endfacet
  facet normal 0 0 -1
    outer loop
      vertex -8.84089 -63.1894 8.7738e-07
      vertex 8.84089 -63.1894 8.7738e-07
      vertex -8.8 -63.5 8.7738e-07
    endloop
  endfacet
  facet normal 0 0 -1
    outer loop
      vertex -8.96077 -62.9 8.7738e-07
      vertex 8.84089 -63.1894 8.7738e-07
      vertex -8.84089 -63.1894 8.7738e-07
    endloop
  endfacet
  facet normal 0 0 -1
    outer loop
      vertex 8.96077 -62.9 8.7738e-07
      vertex -8.96077 -62.9 8.7738e-07
      vertex -9.15147 -62.6515 8.7738e-07
    endloop
  endfacet
  facet normal 0 0 -1
    outer loop
      vertex 9.15147 -62.6515 8.7738e-07
      vertex -9.15147 -62.6515 8.7738e-07
      vertex 14 -50.5 8.7738e-07
    endloop
  endfacet
  facet normal 0 0 -1
    outer loop
      vertex -14 -50.5 8.7738e-07
      vertex -9.15147 -62.6515 8.7738e-07
      vertex -9.4 -62.4608 8.7738e-07
    endloop
  endfacet
  facet normal 0 0 -1
    outer loop
      vertex -14 -50.5 8.7738e-07
      vertex -9.4 -62.4608 8.7738e-07
      vertex -9.68942 -62.3409 8.7738e-07
    endloop
  endfacet
  facet normal 0 0 -1
    outer loop
      vertex -14 -50.5 8.7738e-07
      vertex -9.68942 -62.3409 8.7738e-07
      vertex -10 -62.3 8.7738e-07
    endloop
  endfacet
  facet normal 0 0 -1
    outer loop
      vertex -14 -50.5 8.7738e-07
      vertex -10 -62.3 8.7738e-07
      vertex -10.3106 -62.3409 8.7738e-07
    endloop
  endfacet
  facet normal 0 0 -1
    outer loop
      vertex -14 -50.5 8.7738e-07
      vertex -10.3106 -62.3409 8.7738e-07
      vertex -10.6 -62.4608 8.7738e-07
    endloop
  endfacet
  facet normal 0 0 -1
    outer loop
      vertex -14 -50.5 8.7738e-07
      vertex -11.2 -63.5 8.7738e-07
      vertex -14 -76.5 8.7738e-07
    endloop
  endfacet
  facet normal 0 0 -1
    outer loop
      vertex -9.15147 -62.6515 8.7738e-07
      vertex -14 -50.5 8.7738e-07
      vertex 14 -50.5 8.7738e-07
    endloop
  endfacet
  facet normal 0 0 -1
    outer loop
      vertex -10.8485 -62.6515 8.7738e-07
      vertex -14 -50.5 8.7738e-07
      vertex -10.6 -62.4608 8.7738e-07
    endloop
  endfacet
  facet normal 0 0 -1
    outer loop
      vertex -11.0392 -62.9 8.7738e-07
      vertex -14 -50.5 8.7738e-07
      vertex -10.8485 -62.6515 8.7738e-07
    endloop
  endfacet
  facet normal 0 0 -1
    outer loop
      vertex -11.1591 -63.1894 8.7738e-07
      vertex -14 -50.5 8.7738e-07
      vertex -11.0392 -62.9 8.7738e-07
    endloop
  endfacet
  facet normal 0 0 -1
    outer loop
      vertex -11.2 -63.5 8.7738e-07
      vertex -14 -50.5 8.7738e-07
      vertex -11.1591 -63.1894 8.7738e-07
    endloop
  endfacet
  facet normal 0 0 1
    outer loop
      vertex 14 -50.5 9.67
      vertex 11.2 -63.5 9.67
      vertex 14 -76.5 9.67
    endloop
  endfacet
  facet normal 0 0 1
    outer loop
      vertex 14 -50.5 9.67
      vertex 11.1591 -63.1894 9.67
      vertex 11.2 -63.5 9.67
    endloop
  endfacet
  facet normal 0 0 1
    outer loop
      vertex 14 -50.5 9.67
      vertex 11.0392 -62.9 9.67
      vertex 11.1591 -63.1894 9.67
    endloop
  endfacet
  facet normal 0 0 1
    outer loop
      vertex 14 -50.5 9.67
      vertex 10.8485 -62.6515 9.67
      vertex 11.0392 -62.9 9.67
    endloop
  endfacet
  facet normal 0 0 1
    outer loop
      vertex 14 -50.5 9.67
      vertex 10.6 -62.4608 9.67
      vertex 10.8485 -62.6515 9.67
    endloop
  endfacet
  facet normal 0 0 1
    outer loop
      vertex 14 -50.5 9.67
      vertex 10.3106 -62.3409 9.67
      vertex 10.6 -62.4608 9.67
    endloop
  endfacet
  facet normal -0 0 1
    outer loop
      vertex 7.7 -52.8 9.67
      vertex 10.3106 -62.3409 9.67
      vertex 14 -50.5 9.67
    endloop
  endfacet
  facet normal 0 0 1
    outer loop
      vertex 10.3106 -62.3409 9.67
      vertex 7.7 -52.8 9.67
      vertex 10 -62.3 9.67
    endloop
  endfacet
  facet normal 0 0 1
    outer loop
      vertex 10 -62.3 9.67
      vertex 7.7 -52.8 9.67
      vertex 9.68942 -62.3409 9.67
    endloop
  endfacet
  facet normal 0 0 1
    outer loop
      vertex 9.68942 -62.3409 9.67
      vertex 7.7 -52.8 9.67
      vertex 9.4 -62.4608 9.67
    endloop
  endfacet
  facet normal 0 0 1
    outer loop
      vertex 9.4 -62.4608 9.67
      vertex 7.7 -52.8 9.67
      vertex 9.15147 -62.6515 9.67
    endloop
  endfacet
  facet normal 0 0 1
    outer loop
      vertex 9.15147 -62.6515 9.67
      vertex 7.7 -52.8 9.67
      vertex 8.96077 -62.9 9.67
    endloop
  endfacet
  facet normal 0 0 1
    outer loop
      vertex 8.84089 -63.1894 9.67
      vertex 7.7 -52.8 9.67
      vertex 8.8 -63.5 9.67
    endloop
  endfacet
  facet normal 0 0 1
    outer loop
      vertex 8.96077 -62.9 9.67
      vertex 7.7 -52.8 9.67
      vertex 8.84089 -63.1894 9.67
    endloop
  endfacet
  facet normal 0 0 1
    outer loop
      vertex 14 -50.5 9.67
      vertex -7.7 -52.8 9.67
      vertex 7.7 -52.8 9.67
    endloop
  endfacet
  facet normal 0 0 1
    outer loop
      vertex -7.7 -52.8 9.67
      vertex -8.8 -63.5 9.67
      vertex -7.7 -74.2 9.67
    endloop
  endfacet
  facet normal 0 0 1
    outer loop
      vertex -7.7 -52.8 9.67
      vertex -8.84089 -63.1894 9.67
      vertex -8.8 -63.5 9.67
    endloop
  endfacet
  facet normal 0 0 1
    outer loop
      vertex -7.7 -52.8 9.67
      vertex -8.96077 -62.9 9.67
      vertex -8.84089 -63.1894 9.67
    endloop
  endfacet
  facet normal 0 0 1
    outer loop
      vertex -7.7 -52.8 9.67
      vertex -9.15147 -62.6515 9.67
      vertex -8.96077 -62.9 9.67
    endloop
  endfacet
  facet normal 0 0 1
    outer loop
      vertex -7.7 -52.8 9.67
      vertex -9.4 -62.4608 9.67
      vertex -9.15147 -62.6515 9.67
    endloop
  endfacet
  facet normal 0 0 1
    outer loop
      vertex -7.7 -52.8 9.67
      vertex -9.68942 -62.3409 9.67
      vertex -9.4 -62.4608 9.67
    endloop
  endfacet
  facet normal 0 0 1
    outer loop
      vertex -7.7 -52.8 9.67
      vertex -10 -62.3 9.67
      vertex -9.68942 -62.3409 9.67
    endloop
  endfacet
  facet normal 0 0 1
    outer loop
      vertex -7.7 -52.8 9.67
      vertex -10.3106 -62.3409 9.67
      vertex -10 -62.3 9.67
    endloop
  endfacet
  facet normal 0 0 1
    outer loop
      vertex -14 -50.5 9.67
      vertex -10.3106 -62.3409 9.67
      vertex -7.7 -52.8 9.67
    endloop
  endfacet
  facet normal 0 0 1
    outer loop
      vertex -10.3106 -62.3409 9.67
      vertex -14 -50.5 9.67
      vertex -10.6 -62.4608 9.67
    endloop
  endfacet
  facet normal 0 0 1
    outer loop
      vertex -10.6 -62.4608 9.67
      vertex -14 -50.5 9.67
      vertex -10.8485 -62.6515 9.67
    endloop
  endfacet
  facet normal 0 0 1
    outer loop
      vertex -10.8485 -62.6515 9.67
      vertex -14 -50.5 9.67
      vertex -11.0392 -62.9 9.67
    endloop
  endfacet
  facet normal 0 0 1
    outer loop
      vertex -11.1591 -63.1894 9.67
      vertex -14 -50.5 9.67
      vertex -11.2 -63.5 9.67
    endloop
  endfacet
  facet normal 0 0 1
    outer loop
      vertex -11.0392 -62.9 9.67
      vertex -14 -50.5 9.67
      vertex -11.1591 -63.1894 9.67
    endloop
  endfacet
  facet normal -0 0 1
    outer loop
      vertex -14 -50.5 9.67
      vertex -7.7 -52.8 9.67
      vertex 14 -50.5 9.67
    endloop
  endfacet
  facet normal -0 0 1
    outer loop
      vertex 11.1591 -63.8106 9.67
      vertex 14 -76.5 9.67
      vertex 11.2 -63.5 9.67
    endloop
  endfacet
  facet normal -0 0 1
    outer loop
      vertex 11.0392 -64.1 9.67
      vertex 14 -76.5 9.67
      vertex 11.1591 -63.8106 9.67
    endloop
  endfacet
  facet normal -0 0 1
    outer loop
      vertex 10.8485 -64.3485 9.67
      vertex 14 -76.5 9.67
      vertex 11.0392 -64.1 9.67
    endloop
  endfacet
  facet normal -0 0 1
    outer loop
      vertex 10.6 -64.5392 9.67
      vertex 14 -76.5 9.67
      vertex 10.8485 -64.3485 9.67
    endloop
  endfacet
  facet normal -0 0 1
    outer loop
      vertex 10.3106 -64.6591 9.67
      vertex 14 -76.5 9.67
      vertex 10.6 -64.5392 9.67
    endloop
  endfacet
  facet normal 0 0 1
    outer loop
      vertex 7.7 -74.2 9.67
      vertex 10.3106 -64.6591 9.67
      vertex 10 -64.7 9.67
    endloop
  endfacet
  facet normal 0 0 1
    outer loop
      vertex 7.7 -74.2 9.67
      vertex 10 -64.7 9.67
      vertex 9.68942 -64.6591 9.67
    endloop
  endfacet
  facet normal 0 0 1
    outer loop
      vertex 7.7 -74.2 9.67
      vertex 9.68942 -64.6591 9.67
      vertex 9.4 -64.5392 9.67
    endloop
  endfacet
  facet normal 0 0 1
    outer loop
      vertex 7.7 -74.2 9.67
      vertex 9.4 -64.5392 9.67
      vertex 9.15147 -64.3485 9.67
    endloop
  endfacet
  facet normal 0 0 1
    outer loop
      vertex 7.7 -74.2 9.67
      vertex 9.15147 -64.3485 9.67
      vertex 8.96077 -64.1 9.67
    endloop
  endfacet
  facet normal 0 0 1
    outer loop
      vertex 7.7 -74.2 9.67
      vertex 8.96077 -64.1 9.67
      vertex 8.84089 -63.8106 9.67
    endloop
  endfacet
  facet normal 0 0 1
    outer loop
      vertex 7.7 -74.2 9.67
      vertex 8.8 -63.5 9.67
      vertex 7.7 -52.8 9.67
    endloop
  endfacet
  facet normal 0 0 1
    outer loop
      vertex 7.7 -74.2 9.67
      vertex 8.84089 -63.8106 9.67
      vertex 8.8 -63.5 9.67
    endloop
  endfacet
  facet normal 0 0 1
    outer loop
      vertex 10.3106 -64.6591 9.67
      vertex 7.7 -74.2 9.67
      vertex 14 -76.5 9.67
    endloop
  endfacet
  facet normal 0 0 1
    outer loop
      vertex 2.5 -76.5 9.67
      vertex 7.7 -74.2 9.67
      vertex 2.5 -74.2 9.67
    endloop
  endfacet
  facet normal 0 0 1
    outer loop
      vertex 7.7 -74.2 9.67
      vertex 2.5 -76.5 9.67
      vertex 14 -76.5 9.67
    endloop
  endfacet
  facet normal -0 0 1
    outer loop
      vertex -7.7 -74.2 9.67
      vertex -2.5 -76.5 9.67
      vertex -2.5 -74.2 9.67
    endloop
  endfacet
  facet normal -0 0 1
    outer loop
      vertex -8.84089 -63.8106 9.67
      vertex -7.7 -74.2 9.67
      vertex -8.8 -63.5 9.67
    endloop
  endfacet
  facet normal -0 0 1
    outer loop
      vertex -8.96077 -64.1 9.67
      vertex -7.7 -74.2 9.67
      vertex -8.84089 -63.8106 9.67
    endloop
  endfacet
  facet normal -0 0 1
    outer loop
      vertex -9.15147 -64.3485 9.67
      vertex -7.7 -74.2 9.67
      vertex -8.96077 -64.1 9.67
    endloop
  endfacet
  facet normal -0 0 1
    outer loop
      vertex -9.4 -64.5392 9.67
      vertex -7.7 -74.2 9.67
      vertex -9.15147 -64.3485 9.67
    endloop
  endfacet
  facet normal -0 0 1
    outer loop
      vertex -9.68942 -64.6591 9.67
      vertex -7.7 -74.2 9.67
      vertex -9.4 -64.5392 9.67
    endloop
  endfacet
  facet normal -0 0 1
    outer loop
      vertex -10 -64.7 9.67
      vertex -7.7 -74.2 9.67
      vertex -9.68942 -64.6591 9.67
    endloop
  endfacet
  facet normal 0 0 1
    outer loop
      vertex -10.3106 -64.6591 9.67
      vertex -7.7 -74.2 9.67
      vertex -10 -64.7 9.67
    endloop
  endfacet
  facet normal 0 0 1
    outer loop
      vertex -14 -76.5 9.67
      vertex -10.3106 -64.6591 9.67
      vertex -10.6 -64.5392 9.67
    endloop
  endfacet
  facet normal 0 0 1
    outer loop
      vertex -14 -76.5 9.67
      vertex -10.6 -64.5392 9.67
      vertex -10.8485 -64.3485 9.67
    endloop
  endfacet
  facet normal 0 0 1
    outer loop
      vertex -14 -76.5 9.67
      vertex -10.8485 -64.3485 9.67
      vertex -11.0392 -64.1 9.67
    endloop
  endfacet
  facet normal 0 0 1
    outer loop
      vertex -14 -76.5 9.67
      vertex -11.0392 -64.1 9.67
      vertex -11.1591 -63.8106 9.67
    endloop
  endfacet
  facet normal 0 0 1
    outer loop
      vertex -14 -76.5 9.67
      vertex -11.2 -63.5 9.67
      vertex -14 -50.5 9.67
    endloop
  endfacet
  facet normal 0 0 1
    outer loop
      vertex -7.7 -74.2 9.67
      vertex -14 -76.5 9.67
      vertex -2.5 -76.5 9.67
    endloop
  endfacet
  facet normal 0 0 1
    outer loop
      vertex -10.3106 -64.6591 9.67
      vertex -14 -76.5 9.67
      vertex -7.7 -74.2 9.67
    endloop
  endfacet
  facet normal 0 0 1
    outer loop
      vertex -11.2 -63.5 9.67
      vertex -14 -76.5 9.67
      vertex -11.1591 -63.8106 9.67
    endloop
  endfacet
  facet normal -1 0 0
    outer loop
      vertex -14 -76.5 8.7738e-07
      vertex -14 -50.5 9.67
      vertex -14 -50.5 8.7738e-07
    endloop
  endfacet
  facet normal -1 -0 0
    outer loop
      vertex -14 -50.5 9.67
      vertex -14 -76.5 8.7738e-07
      vertex -14 -76.5 9.67
    endloop
  endfacet
  facet normal 0 -1 0
    outer loop
      vertex -14 -76.5 9.67
      vertex -2.5 -76.5 6.67
      vertex -2.5 -76.5 9.67
    endloop
  endfacet
  facet normal 0 -1 -0
    outer loop
      vertex -2.5 -76.5 6.67
      vertex -14 -76.5 8.7738e-07
      vertex 2.5 -76.5 6.67
    endloop
  endfacet
  facet normal 0 -1 0
    outer loop
      vertex -14 -76.5 8.7738e-07
      vertex -2.5 -76.5 6.67
      vertex -14 -76.5 9.67
    endloop
  endfacet
  facet normal 0 -1 0
    outer loop
      vertex 2.5 -76.5 6.67
      vertex 14 -76.5 9.67
      vertex 2.5 -76.5 9.67
    endloop
  endfacet
  facet normal 0 -1 0
    outer loop
      vertex 14 -76.5 8.7738e-07
      vertex 2.5 -76.5 6.67
      vertex -14 -76.5 8.7738e-07
    endloop
  endfacet
  facet normal 0 -1 0
    outer loop
      vertex 2.5 -76.5 6.67
      vertex 14 -76.5 8.7738e-07
      vertex 14 -76.5 9.67
    endloop
  endfacet
  facet normal 0 1 -0
    outer loop
      vertex 14 -50.5 8.7738e-07
      vertex -14 -50.5 9.67
      vertex 14 -50.5 9.67
    endloop
  endfacet
  facet normal 0 1 0
    outer loop
      vertex -14 -50.5 9.67
      vertex 14 -50.5 8.7738e-07
      vertex -14 -50.5 8.7738e-07
    endloop
  endfacet
  facet normal -1 0 0
    outer loop
      vertex 7.7 -74.2 1.5
      vertex 7.7 -52.8 9.67
      vertex 7.7 -52.8 1.5
    endloop
  endfacet
  facet normal -1 -0 0
    outer loop
      vertex 7.7 -52.8 9.67
      vertex 7.7 -74.2 1.5
      vertex 7.7 -74.2 9.67
    endloop
  endfacet
  facet normal -0 0 1
    outer loop
      vertex -7.7 -52.8 1.5
      vertex 7.7 -74.2 1.5
      vertex 7.7 -52.8 1.5
    endloop
  endfacet
  facet normal 0 0 1
    outer loop
      vertex 7.7 -74.2 1.5
      vertex -7.7 -52.8 1.5
      vertex -7.7 -74.2 1.5
    endloop
  endfacet
  facet normal 1 -0 0
    outer loop
      vertex -7.7 -74.2 9.67
      vertex -7.7 -52.8 1.5
      vertex -7.7 -52.8 9.67
    endloop
  endfacet
  facet normal 1 0 0
    outer loop
      vertex -7.7 -52.8 1.5
      vertex -7.7 -74.2 9.67
      vertex -7.7 -74.2 1.5
    endloop
  endfacet
  facet normal 0 1 0
    outer loop
      vertex 7.7 -74.2 9.67
      vertex 2.5 -74.2 6.67
      vertex 2.5 -74.2 9.67
    endloop
  endfacet
  facet normal 0 1 0
    outer loop
      vertex 2.5 -74.2 6.67
      vertex 7.7 -74.2 1.5
      vertex -2.5 -74.2 6.67
    endloop
  endfacet
  facet normal 0 1 -0
    outer loop
      vertex 7.7 -74.2 1.5
      vertex 2.5 -74.2 6.67
      vertex 7.7 -74.2 9.67
    endloop
  endfacet
  facet normal 0 1 -0
    outer loop
      vertex -2.5 -74.2 6.67
      vertex -7.7 -74.2 9.67
      vertex -2.5 -74.2 9.67
    endloop
  endfacet
  facet normal 0 1 0
    outer loop
      vertex -2.5 -74.2 6.67
      vertex -7.7 -74.2 1.5
      vertex -7.7 -74.2 9.67
    endloop
  endfacet
  facet normal 0 1 0
    outer loop
      vertex -7.7 -74.2 1.5
      vertex -2.5 -74.2 6.67
      vertex 7.7 -74.2 1.5
    endloop
  endfacet
  facet normal 0 -1 0
    outer loop
      vertex -7.7 -52.8 1.5
      vertex 7.7 -52.8 9.67
      vertex -7.7 -52.8 9.67
    endloop
  endfacet
  facet normal 0 -1 -0
    outer loop
      vertex 7.7 -52.8 9.67
      vertex -7.7 -52.8 1.5
      vertex 7.7 -52.8 1.5
    endloop
  endfacet
  facet normal -1 0 0
    outer loop
      vertex 2.5 -76.5 6.67
      vertex 2.5 -74.2 9.67
      vertex 2.5 -74.2 6.67
    endloop
  endfacet
  facet normal -1 -0 0
    outer loop
      vertex 2.5 -74.2 9.67
      vertex 2.5 -76.5 6.67
      vertex 2.5 -76.5 9.67
    endloop
  endfacet
  facet normal -0 0 1
    outer loop
      vertex -2.5 -74.2 6.67
      vertex 2.5 -76.5 6.67
      vertex 2.5 -74.2 6.67
    endloop
  endfacet
  facet normal 0 0 1
    outer loop
      vertex 2.5 -76.5 6.67
      vertex -2.5 -74.2 6.67
      vertex -2.5 -76.5 6.67
    endloop
  endfacet
  facet normal 1 -0 0
    outer loop
      vertex -2.5 -76.5 9.67
      vertex -2.5 -74.2 6.67
      vertex -2.5 -74.2 9.67
    endloop
  endfacet
  facet normal 1 0 0
    outer loop
      vertex -2.5 -74.2 6.67
      vertex -2.5 -76.5 9.67
      vertex -2.5 -76.5 6.67
    endloop
  endfacet
endsolid OpenSCAD_Model
