solid OpenSCAD_Model
  facet normal -0.923872 -0.382701 0
    outer loop
      vertex -8.84089 63.8106 0
      vertex -8.96077 64.1 1.5
      vertex -8.96077 64.1 0
    endloop
  endfacet
  facet normal -0.923872 -0.382701 0
    outer loop
      vertex -8.96077 64.1 1.5
      vertex -8.84089 63.8106 0
      vertex -8.84089 63.8106 1.5
    endloop
  endfacet
  facet normal -0.991445 -0.130522 0
    outer loop
      vertex -8.8 63.5 0
      vertex -8.84089 63.8106 1.5
      vertex -8.84089 63.8106 0
    endloop
  endfacet
  facet normal -0.991445 -0.130522 0
    outer loop
      vertex -8.84089 63.8106 1.5
      vertex -8.8 63.5 0
      vertex -8.8 63.5 1.5
    endloop
  endfacet
  facet normal -0.793324 -0.6088 0
    outer loop
      vertex -8.96077 64.1 0
      vertex -9.15147 64.3485 1.5
      vertex -9.15147 64.3485 0
    endloop
  endfacet
  facet normal -0.793324 -0.6088 0
    outer loop
      vertex -9.15147 64.3485 1.5
      vertex -8.96077 64.1 0
      vertex -8.96077 64.1 1.5
    endloop
  endfacet
  facet normal 0.793324 -0.6088 0
    outer loop
      vertex -11.0392 64.1 1.5
      vertex -10.8485 64.3485 0
      vertex -10.8485 64.3485 1.5
    endloop
  endfacet
  facet normal 0.793324 -0.6088 0
    outer loop
      vertex -10.8485 64.3485 0
      vertex -11.0392 64.1 1.5
      vertex -11.0392 64.1 0
    endloop
  endfacet
  facet normal 0.6088 -0.793324 0
    outer loop
      vertex -10.8485 64.3485 0
      vertex -10.6 64.5392 1.5
      vertex -10.8485 64.3485 1.5
    endloop
  endfacet
  facet normal 0.6088 -0.793324 0
    outer loop
      vertex -10.6 64.5392 1.5
      vertex -10.8485 64.3485 0
      vertex -10.6 64.5392 0
    endloop
  endfacet
  facet normal -0.382733 0.923859 0
    outer loop
      vertex -9.4 62.4608 0
      vertex -9.68942 62.3409 1.5
      vertex -9.4 62.4608 1.5
    endloop
  endfacet
  facet normal -0.382733 0.923859 0
    outer loop
      vertex -9.68942 62.3409 1.5
      vertex -9.4 62.4608 0
      vertex -9.68942 62.3409 0
    endloop
  endfacet
  facet normal 0.92385 -0.382756 0
    outer loop
      vertex -11.1591 63.8106 1.5
      vertex -11.0392 64.1 0
      vertex -11.0392 64.1 1.5
    endloop
  endfacet
  facet normal 0.92385 -0.382756 0
    outer loop
      vertex -11.0392 64.1 0
      vertex -11.1591 63.8106 1.5
      vertex -11.1591 63.8106 0
    endloop
  endfacet
  facet normal -0.608754 -0.793359 0
    outer loop
      vertex -9.4 64.5392 0
      vertex -9.15147 64.3485 1.5
      vertex -9.4 64.5392 1.5
    endloop
  endfacet
  facet normal -0.608754 -0.793359 -0
    outer loop
      vertex -9.15147 64.3485 1.5
      vertex -9.4 64.5392 0
      vertex -9.15147 64.3485 0
    endloop
  endfacet
  facet normal -0.130562 -0.99144 0
    outer loop
      vertex -10 64.7 0
      vertex -9.68942 64.6591 1.5
      vertex -10 64.7 1.5
    endloop
  endfacet
  facet normal -0.130562 -0.99144 -0
    outer loop
      vertex -9.68942 64.6591 1.5
      vertex -10 64.7 0
      vertex -9.68942 64.6591 0
    endloop
  endfacet
  facet normal 0.382756 0.92385 -0
    outer loop
      vertex -10.3106 62.3409 0
      vertex -10.6 62.4608 1.5
      vertex -10.3106 62.3409 1.5
    endloop
  endfacet
  facet normal 0.382756 0.92385 0
    outer loop
      vertex -10.6 62.4608 1.5
      vertex -10.3106 62.3409 0
      vertex -10.6 62.4608 0
    endloop
  endfacet
  facet normal -0.130562 0.99144 0
    outer loop
      vertex -9.68942 62.3409 0
      vertex -10 62.3 1.5
      vertex -9.68942 62.3409 1.5
    endloop
  endfacet
  facet normal -0.130562 0.99144 0
    outer loop
      vertex -10 62.3 1.5
      vertex -9.68942 62.3409 0
      vertex -10 62.3 0
    endloop
  endfacet
  facet normal -0.793324 0.6088 0
    outer loop
      vertex -9.15147 62.6515 0
      vertex -8.96077 62.9 1.5
      vertex -8.96077 62.9 0
    endloop
  endfacet
  facet normal -0.793324 0.6088 0
    outer loop
      vertex -8.96077 62.9 1.5
      vertex -9.15147 62.6515 0
      vertex -9.15147 62.6515 1.5
    endloop
  endfacet
  facet normal -0.608754 0.793359 0
    outer loop
      vertex -9.15147 62.6515 0
      vertex -9.4 62.4608 1.5
      vertex -9.15147 62.6515 1.5
    endloop
  endfacet
  facet normal -0.608754 0.793359 0
    outer loop
      vertex -9.4 62.4608 1.5
      vertex -9.15147 62.6515 0
      vertex -9.4 62.4608 0
    endloop
  endfacet
  facet normal 0.793324 0.6088 0
    outer loop
      vertex -10.8485 62.6515 1.5
      vertex -11.0392 62.9 0
      vertex -11.0392 62.9 1.5
    endloop
  endfacet
  facet normal 0.793324 0.6088 0
    outer loop
      vertex -11.0392 62.9 0
      vertex -10.8485 62.6515 1.5
      vertex -10.8485 62.6515 0
    endloop
  endfacet
  facet normal -0.991445 0.130522 0
    outer loop
      vertex -8.84089 63.1894 0
      vertex -8.8 63.5 1.5
      vertex -8.8 63.5 0
    endloop
  endfacet
  facet normal -0.991445 0.130522 0
    outer loop
      vertex -8.8 63.5 1.5
      vertex -8.84089 63.1894 0
      vertex -8.84089 63.1894 1.5
    endloop
  endfacet
  facet normal 0.991441 -0.130554 0
    outer loop
      vertex -11.2 63.5 1.5
      vertex -11.1591 63.8106 0
      vertex -11.1591 63.8106 1.5
    endloop
  endfacet
  facet normal 0.991441 -0.130554 0
    outer loop
      vertex -11.1591 63.8106 0
      vertex -11.2 63.5 1.5
      vertex -11.2 63.5 0
    endloop
  endfacet
  facet normal 0.130554 -0.991441 0
    outer loop
      vertex -10.3106 64.6591 0
      vertex -10 64.7 1.5
      vertex -10.3106 64.6591 1.5
    endloop
  endfacet
  facet normal 0.130554 -0.991441 0
    outer loop
      vertex -10 64.7 1.5
      vertex -10.3106 64.6591 0
      vertex -10 64.7 0
    endloop
  endfacet
  facet normal -0.923872 0.382701 0
    outer loop
      vertex -8.96077 62.9 0
      vertex -8.84089 63.1894 1.5
      vertex -8.84089 63.1894 0
    endloop
  endfacet
  facet normal -0.923872 0.382701 0
    outer loop
      vertex -8.84089 63.1894 1.5
      vertex -8.96077 62.9 0
      vertex -8.96077 62.9 1.5
    endloop
  endfacet
  facet normal 0.382756 -0.92385 0
    outer loop
      vertex -10.6 64.5392 0
      vertex -10.3106 64.6591 1.5
      vertex -10.6 64.5392 1.5
    endloop
  endfacet
  facet normal 0.382756 -0.92385 0
    outer loop
      vertex -10.3106 64.6591 1.5
      vertex -10.6 64.5392 0
      vertex -10.3106 64.6591 0
    endloop
  endfacet
  facet normal -0.382733 -0.923859 0
    outer loop
      vertex -9.68942 64.6591 0
      vertex -9.4 64.5392 1.5
      vertex -9.68942 64.6591 1.5
    endloop
  endfacet
  facet normal -0.382733 -0.923859 -0
    outer loop
      vertex -9.4 64.5392 1.5
      vertex -9.68942 64.6591 0
      vertex -9.4 64.5392 0
    endloop
  endfacet
  facet normal 0.130554 0.991441 -0
    outer loop
      vertex -10 62.3 0
      vertex -10.3106 62.3409 1.5
      vertex -10 62.3 1.5
    endloop
  endfacet
  facet normal 0.130554 0.991441 0
    outer loop
      vertex -10.3106 62.3409 1.5
      vertex -10 62.3 0
      vertex -10.3106 62.3409 0
    endloop
  endfacet
  facet normal 0.92385 0.382756 0
    outer loop
      vertex -11.0392 62.9 1.5
      vertex -11.1591 63.1894 0
      vertex -11.1591 63.1894 1.5
    endloop
  endfacet
  facet normal 0.92385 0.382756 0
    outer loop
      vertex -11.1591 63.1894 0
      vertex -11.0392 62.9 1.5
      vertex -11.0392 62.9 0
    endloop
  endfacet
  facet normal 0.991441 0.130554 0
    outer loop
      vertex -11.1591 63.1894 1.5
      vertex -11.2 63.5 0
      vertex -11.2 63.5 1.5
    endloop
  endfacet
  facet normal 0.991441 0.130554 0
    outer loop
      vertex -11.2 63.5 0
      vertex -11.1591 63.1894 1.5
      vertex -11.1591 63.1894 0
    endloop
  endfacet
  facet normal 0.6088 0.793324 -0
    outer loop
      vertex -10.6 62.4608 0
      vertex -10.8485 62.6515 1.5
      vertex -10.6 62.4608 1.5
    endloop
  endfacet
  facet normal 0.6088 0.793324 0
    outer loop
      vertex -10.8485 62.6515 1.5
      vertex -10.6 62.4608 0
      vertex -10.8485 62.6515 0
    endloop
  endfacet
  facet normal -0.92385 -0.382756 0
    outer loop
      vertex 11.1591 63.8106 0
      vertex 11.0392 64.1 1.5
      vertex 11.0392 64.1 0
    endloop
  endfacet
  facet normal -0.92385 -0.382756 0
    outer loop
      vertex 11.0392 64.1 1.5
      vertex 11.1591 63.8106 0
      vertex 11.1591 63.8106 1.5
    endloop
  endfacet
  facet normal -0.991441 -0.130554 0
    outer loop
      vertex 11.2 63.5 0
      vertex 11.1591 63.8106 1.5
      vertex 11.1591 63.8106 0
    endloop
  endfacet
  facet normal -0.991441 -0.130554 0
    outer loop
      vertex 11.1591 63.8106 1.5
      vertex 11.2 63.5 0
      vertex 11.2 63.5 1.5
    endloop
  endfacet
  facet normal -0.793324 -0.6088 0
    outer loop
      vertex 11.0392 64.1 0
      vertex 10.8485 64.3485 1.5
      vertex 10.8485 64.3485 0
    endloop
  endfacet
  facet normal -0.793324 -0.6088 0
    outer loop
      vertex 10.8485 64.3485 1.5
      vertex 11.0392 64.1 0
      vertex 11.0392 64.1 1.5
    endloop
  endfacet
  facet normal 0.793324 -0.6088 0
    outer loop
      vertex 8.96077 64.1 1.5
      vertex 9.15147 64.3485 0
      vertex 9.15147 64.3485 1.5
    endloop
  endfacet
  facet normal 0.793324 -0.6088 0
    outer loop
      vertex 9.15147 64.3485 0
      vertex 8.96077 64.1 1.5
      vertex 8.96077 64.1 0
    endloop
  endfacet
  facet normal 0.608754 -0.793359 0
    outer loop
      vertex 9.15147 64.3485 0
      vertex 9.4 64.5392 1.5
      vertex 9.15147 64.3485 1.5
    endloop
  endfacet
  facet normal 0.608754 -0.793359 0
    outer loop
      vertex 9.4 64.5392 1.5
      vertex 9.15147 64.3485 0
      vertex 9.4 64.5392 0
    endloop
  endfacet
  facet normal -0.382756 0.92385 0
    outer loop
      vertex 10.6 62.4608 0
      vertex 10.3106 62.3409 1.5
      vertex 10.6 62.4608 1.5
    endloop
  endfacet
  facet normal -0.382756 0.92385 0
    outer loop
      vertex 10.3106 62.3409 1.5
      vertex 10.6 62.4608 0
      vertex 10.3106 62.3409 0
    endloop
  endfacet
  facet normal 0.923872 -0.382701 0
    outer loop
      vertex 8.84089 63.8106 1.5
      vertex 8.96077 64.1 0
      vertex 8.96077 64.1 1.5
    endloop
  endfacet
  facet normal 0.923872 -0.382701 0
    outer loop
      vertex 8.96077 64.1 0
      vertex 8.84089 63.8106 1.5
      vertex 8.84089 63.8106 0
    endloop
  endfacet
  facet normal -0.6088 -0.793324 0
    outer loop
      vertex 10.6 64.5392 0
      vertex 10.8485 64.3485 1.5
      vertex 10.6 64.5392 1.5
    endloop
  endfacet
  facet normal -0.6088 -0.793324 -0
    outer loop
      vertex 10.8485 64.3485 1.5
      vertex 10.6 64.5392 0
      vertex 10.8485 64.3485 0
    endloop
  endfacet
  facet normal -0.130554 -0.991441 0
    outer loop
      vertex 10 64.7 0
      vertex 10.3106 64.6591 1.5
      vertex 10 64.7 1.5
    endloop
  endfacet
  facet normal -0.130554 -0.991441 -0
    outer loop
      vertex 10.3106 64.6591 1.5
      vertex 10 64.7 0
      vertex 10.3106 64.6591 0
    endloop
  endfacet
  facet normal 0.382733 0.923859 -0
    outer loop
      vertex 9.68942 62.3409 0
      vertex 9.4 62.4608 1.5
      vertex 9.68942 62.3409 1.5
    endloop
  endfacet
  facet normal 0.382733 0.923859 0
    outer loop
      vertex 9.4 62.4608 1.5
      vertex 9.68942 62.3409 0
      vertex 9.4 62.4608 0
    endloop
  endfacet
  facet normal -0.130554 0.991441 0
    outer loop
      vertex 10.3106 62.3409 0
      vertex 10 62.3 1.5
      vertex 10.3106 62.3409 1.5
    endloop
  endfacet
  facet normal -0.130554 0.991441 0
    outer loop
      vertex 10 62.3 1.5
      vertex 10.3106 62.3409 0
      vertex 10 62.3 0
    endloop
  endfacet
  facet normal -0.793324 0.6088 0
    outer loop
      vertex 10.8485 62.6515 0
      vertex 11.0392 62.9 1.5
      vertex 11.0392 62.9 0
    endloop
  endfacet
  facet normal -0.793324 0.6088 0
    outer loop
      vertex 11.0392 62.9 1.5
      vertex 10.8485 62.6515 0
      vertex 10.8485 62.6515 1.5
    endloop
  endfacet
  facet normal -0.6088 0.793324 0
    outer loop
      vertex 10.8485 62.6515 0
      vertex 10.6 62.4608 1.5
      vertex 10.8485 62.6515 1.5
    endloop
  endfacet
  facet normal -0.6088 0.793324 0
    outer loop
      vertex 10.6 62.4608 1.5
      vertex 10.8485 62.6515 0
      vertex 10.6 62.4608 0
    endloop
  endfacet
  facet normal 0.793324 0.6088 0
    outer loop
      vertex 9.15147 62.6515 1.5
      vertex 8.96077 62.9 0
      vertex 8.96077 62.9 1.5
    endloop
  endfacet
  facet normal 0.793324 0.6088 0
    outer loop
      vertex 8.96077 62.9 0
      vertex 9.15147 62.6515 1.5
      vertex 9.15147 62.6515 0
    endloop
  endfacet
  facet normal -0.991441 0.130554 0
    outer loop
      vertex 11.1591 63.1894 0
      vertex 11.2 63.5 1.5
      vertex 11.2 63.5 0
    endloop
  endfacet
  facet normal -0.991441 0.130554 0
    outer loop
      vertex 11.2 63.5 1.5
      vertex 11.1591 63.1894 0
      vertex 11.1591 63.1894 1.5
    endloop
  endfacet
  facet normal 0.991445 -0.130522 0
    outer loop
      vertex 8.8 63.5 1.5
      vertex 8.84089 63.8106 0
      vertex 8.84089 63.8106 1.5
    endloop
  endfacet
  facet normal 0.991445 -0.130522 0
    outer loop
      vertex 8.84089 63.8106 0
      vertex 8.8 63.5 1.5
      vertex 8.8 63.5 0
    endloop
  endfacet
  facet normal 0.130562 -0.99144 0
    outer loop
      vertex 9.68942 64.6591 0
      vertex 10 64.7 1.5
      vertex 9.68942 64.6591 1.5
    endloop
  endfacet
  facet normal 0.130562 -0.99144 0
    outer loop
      vertex 10 64.7 1.5
      vertex 9.68942 64.6591 0
      vertex 10 64.7 0
    endloop
  endfacet
  facet normal -0.92385 0.382756 0
    outer loop
      vertex 11.0392 62.9 0
      vertex 11.1591 63.1894 1.5
      vertex 11.1591 63.1894 0
    endloop
  endfacet
  facet normal -0.92385 0.382756 0
    outer loop
      vertex 11.1591 63.1894 1.5
      vertex 11.0392 62.9 0
      vertex 11.0392 62.9 1.5
    endloop
  endfacet
  facet normal 0.382733 -0.923859 0
    outer loop
      vertex 9.4 64.5392 0
      vertex 9.68942 64.6591 1.5
      vertex 9.4 64.5392 1.5
    endloop
  endfacet
  facet normal 0.382733 -0.923859 0
    outer loop
      vertex 9.68942 64.6591 1.5
      vertex 9.4 64.5392 0
      vertex 9.68942 64.6591 0
    endloop
  endfacet
  facet normal -0.382756 -0.92385 0
    outer loop
      vertex 10.3106 64.6591 0
      vertex 10.6 64.5392 1.5
      vertex 10.3106 64.6591 1.5
    endloop
  endfacet
  facet normal -0.382756 -0.92385 -0
    outer loop
      vertex 10.6 64.5392 1.5
      vertex 10.3106 64.6591 0
      vertex 10.6 64.5392 0
    endloop
  endfacet
  facet normal 0.130562 0.99144 -0
    outer loop
      vertex 10 62.3 0
      vertex 9.68942 62.3409 1.5
      vertex 10 62.3 1.5
    endloop
  endfacet
  facet normal 0.130562 0.99144 0
    outer loop
      vertex 9.68942 62.3409 1.5
      vertex 10 62.3 0
      vertex 9.68942 62.3409 0
    endloop
  endfacet
  facet normal 0.923872 0.382701 0
    outer loop
      vertex 8.96077 62.9 1.5
      vertex 8.84089 63.1894 0
      vertex 8.84089 63.1894 1.5
    endloop
  endfacet
  facet normal 0.923872 0.382701 0
    outer loop
      vertex 8.84089 63.1894 0
      vertex 8.96077 62.9 1.5
      vertex 8.96077 62.9 0
    endloop
  endfacet
  facet normal 0.991445 0.130522 0
    outer loop
      vertex 8.84089 63.1894 1.5
      vertex 8.8 63.5 0
      vertex 8.8 63.5 1.5
    endloop
  endfacet
  facet normal 0.991445 0.130522 0
    outer loop
      vertex 8.8 63.5 0
      vertex 8.84089 63.1894 1.5
      vertex 8.84089 63.1894 0
    endloop
  endfacet
  facet normal 0.608754 0.793359 -0
    outer loop
      vertex 9.4 62.4608 0
      vertex 9.15147 62.6515 1.5
      vertex 9.4 62.4608 1.5
    endloop
  endfacet
  facet normal 0.608754 0.793359 0
    outer loop
      vertex 9.15147 62.6515 1.5
      vertex 9.4 62.4608 0
      vertex 9.15147 62.6515 0
    endloop
  endfacet
  facet normal 1 -0 0
    outer loop
      vertex 14 50.5 1.5
      vertex 14 76.5 0
      vertex 14 76.5 1.5
    endloop
  endfacet
  facet normal 1 0 0
    outer loop
      vertex 14 76.5 0
      vertex 14 50.5 1.5
      vertex 14 50.5 0
    endloop
  endfacet
  facet normal 0 0 1
    outer loop
      vertex 14 76.5 1.5
      vertex 11.2 63.5 1.5
      vertex 14 50.5 1.5
    endloop
  endfacet
  facet normal 0 0 1
    outer loop
      vertex 14 76.5 1.5
      vertex 11.1591 63.8106 1.5
      vertex 11.2 63.5 1.5
    endloop
  endfacet
  facet normal 0 0 1
    outer loop
      vertex 14 76.5 1.5
      vertex 11.0392 64.1 1.5
      vertex 11.1591 63.8106 1.5
    endloop
  endfacet
  facet normal 0 0 1
    outer loop
      vertex 14 76.5 1.5
      vertex 10.8485 64.3485 1.5
      vertex 11.0392 64.1 1.5
    endloop
  endfacet
  facet normal 0 0 1
    outer loop
      vertex 14 76.5 1.5
      vertex 10.6 64.5392 1.5
      vertex 10.8485 64.3485 1.5
    endloop
  endfacet
  facet normal 0 0 1
    outer loop
      vertex 14 76.5 1.5
      vertex 10.3106 64.6591 1.5
      vertex 10.6 64.5392 1.5
    endloop
  endfacet
  facet normal -0 0 1
    outer loop
      vertex 5 71.5 1.5
      vertex 10.3106 64.6591 1.5
      vertex 14 76.5 1.5
    endloop
  endfacet
  facet normal 0 0 1
    outer loop
      vertex 10.3106 64.6591 1.5
      vertex 5 71.5 1.5
      vertex 10 64.7 1.5
    endloop
  endfacet
  facet normal 0 0 1
    outer loop
      vertex 10 64.7 1.5
      vertex 5 71.5 1.5
      vertex 9.68942 64.6591 1.5
    endloop
  endfacet
  facet normal 0 0 1
    outer loop
      vertex 9.68942 64.6591 1.5
      vertex 5 71.5 1.5
      vertex 9.4 64.5392 1.5
    endloop
  endfacet
  facet normal 0 0 1
    outer loop
      vertex 9.4 64.5392 1.5
      vertex 5 71.5 1.5
      vertex 9.15147 64.3485 1.5
    endloop
  endfacet
  facet normal 0 0 1
    outer loop
      vertex 9.15147 64.3485 1.5
      vertex 5 71.5 1.5
      vertex 8.96077 64.1 1.5
    endloop
  endfacet
  facet normal 0 0 1
    outer loop
      vertex 8.84089 63.8106 1.5
      vertex 5 71.5 1.5
      vertex 8.8 63.5 1.5
    endloop
  endfacet
  facet normal 0 0 1
    outer loop
      vertex 8.96077 64.1 1.5
      vertex 5 71.5 1.5
      vertex 8.84089 63.8106 1.5
    endloop
  endfacet
  facet normal 0 0 1
    outer loop
      vertex 14 76.5 1.5
      vertex -5 71.5 1.5
      vertex 5 71.5 1.5
    endloop
  endfacet
  facet normal 0 0 1
    outer loop
      vertex -5 71.5 1.5
      vertex -8.8 63.5 1.5
      vertex -5 55.5 1.5
    endloop
  endfacet
  facet normal 0 0 1
    outer loop
      vertex -5 71.5 1.5
      vertex -8.84089 63.8106 1.5
      vertex -8.8 63.5 1.5
    endloop
  endfacet
  facet normal 0 0 1
    outer loop
      vertex -5 71.5 1.5
      vertex -8.96077 64.1 1.5
      vertex -8.84089 63.8106 1.5
    endloop
  endfacet
  facet normal 0 0 1
    outer loop
      vertex -5 71.5 1.5
      vertex -9.15147 64.3485 1.5
      vertex -8.96077 64.1 1.5
    endloop
  endfacet
  facet normal 0 0 1
    outer loop
      vertex -5 71.5 1.5
      vertex -9.4 64.5392 1.5
      vertex -9.15147 64.3485 1.5
    endloop
  endfacet
  facet normal 0 0 1
    outer loop
      vertex -5 71.5 1.5
      vertex -9.68942 64.6591 1.5
      vertex -9.4 64.5392 1.5
    endloop
  endfacet
  facet normal 0 0 1
    outer loop
      vertex -5 71.5 1.5
      vertex -10 64.7 1.5
      vertex -9.68942 64.6591 1.5
    endloop
  endfacet
  facet normal 0 0 1
    outer loop
      vertex -5 71.5 1.5
      vertex -10.3106 64.6591 1.5
      vertex -10 64.7 1.5
    endloop
  endfacet
  facet normal 0 0 1
    outer loop
      vertex -14 76.5 1.5
      vertex -10.3106 64.6591 1.5
      vertex -5 71.5 1.5
    endloop
  endfacet
  facet normal 0 0 1
    outer loop
      vertex -10.3106 64.6591 1.5
      vertex -14 76.5 1.5
      vertex -10.6 64.5392 1.5
    endloop
  endfacet
  facet normal 0 0 1
    outer loop
      vertex -11.1591 63.8106 1.5
      vertex -14 76.5 1.5
      vertex -11.2 63.5 1.5
    endloop
  endfacet
  facet normal 0 0 1
    outer loop
      vertex -11.0392 64.1 1.5
      vertex -14 76.5 1.5
      vertex -11.1591 63.8106 1.5
    endloop
  endfacet
  facet normal 0 0 1
    outer loop
      vertex -10.8485 64.3485 1.5
      vertex -14 76.5 1.5
      vertex -11.0392 64.1 1.5
    endloop
  endfacet
  facet normal 0 0 1
    outer loop
      vertex -10.6 64.5392 1.5
      vertex -14 76.5 1.5
      vertex -10.8485 64.3485 1.5
    endloop
  endfacet
  facet normal -0 0 1
    outer loop
      vertex -14 76.5 1.5
      vertex -5 71.5 1.5
      vertex 14 76.5 1.5
    endloop
  endfacet
  facet normal -0 0 1
    outer loop
      vertex 11.1591 63.1894 1.5
      vertex 14 50.5 1.5
      vertex 11.2 63.5 1.5
    endloop
  endfacet
  facet normal -0 0 1
    outer loop
      vertex 11.0392 62.9 1.5
      vertex 14 50.5 1.5
      vertex 11.1591 63.1894 1.5
    endloop
  endfacet
  facet normal -0 0 1
    outer loop
      vertex 10.8485 62.6515 1.5
      vertex 14 50.5 1.5
      vertex 11.0392 62.9 1.5
    endloop
  endfacet
  facet normal -0 0 1
    outer loop
      vertex 10.6 62.4608 1.5
      vertex 14 50.5 1.5
      vertex 10.8485 62.6515 1.5
    endloop
  endfacet
  facet normal -0 0 1
    outer loop
      vertex 10.3106 62.3409 1.5
      vertex 14 50.5 1.5
      vertex 10.6 62.4608 1.5
    endloop
  endfacet
  facet normal 0 0 1
    outer loop
      vertex 5 55.5 1.5
      vertex 10.3106 62.3409 1.5
      vertex 10 62.3 1.5
    endloop
  endfacet
  facet normal 0 0 1
    outer loop
      vertex 5 55.5 1.5
      vertex 10 62.3 1.5
      vertex 9.68942 62.3409 1.5
    endloop
  endfacet
  facet normal 0 0 1
    outer loop
      vertex 5 55.5 1.5
      vertex 9.68942 62.3409 1.5
      vertex 9.4 62.4608 1.5
    endloop
  endfacet
  facet normal 0 0 1
    outer loop
      vertex 5 55.5 1.5
      vertex 9.4 62.4608 1.5
      vertex 9.15147 62.6515 1.5
    endloop
  endfacet
  facet normal 0 0 1
    outer loop
      vertex 5 55.5 1.5
      vertex 9.15147 62.6515 1.5
      vertex 8.96077 62.9 1.5
    endloop
  endfacet
  facet normal 0 0 1
    outer loop
      vertex 5 55.5 1.5
      vertex 8.96077 62.9 1.5
      vertex 8.84089 63.1894 1.5
    endloop
  endfacet
  facet normal 0 0 1
    outer loop
      vertex 5 55.5 1.5
      vertex 8.8 63.5 1.5
      vertex 5 71.5 1.5
    endloop
  endfacet
  facet normal 0 0 1
    outer loop
      vertex 8.8 63.5 1.5
      vertex 5 55.5 1.5
      vertex 8.84089 63.1894 1.5
    endloop
  endfacet
  facet normal 0 0 1
    outer loop
      vertex 10.3106 62.3409 1.5
      vertex 5 55.5 1.5
      vertex 14 50.5 1.5
    endloop
  endfacet
  facet normal -0 0 1
    outer loop
      vertex -5 55.5 1.5
      vertex 14 50.5 1.5
      vertex 5 55.5 1.5
    endloop
  endfacet
  facet normal -0 0 1
    outer loop
      vertex -8.84089 63.1894 1.5
      vertex -5 55.5 1.5
      vertex -8.8 63.5 1.5
    endloop
  endfacet
  facet normal -0 0 1
    outer loop
      vertex -8.96077 62.9 1.5
      vertex -5 55.5 1.5
      vertex -8.84089 63.1894 1.5
    endloop
  endfacet
  facet normal -0 0 1
    outer loop
      vertex -9.15147 62.6515 1.5
      vertex -5 55.5 1.5
      vertex -8.96077 62.9 1.5
    endloop
  endfacet
  facet normal -0 0 1
    outer loop
      vertex -9.4 62.4608 1.5
      vertex -5 55.5 1.5
      vertex -9.15147 62.6515 1.5
    endloop
  endfacet
  facet normal -0 0 1
    outer loop
      vertex -9.68942 62.3409 1.5
      vertex -5 55.5 1.5
      vertex -9.4 62.4608 1.5
    endloop
  endfacet
  facet normal -0 0 1
    outer loop
      vertex -10 62.3 1.5
      vertex -5 55.5 1.5
      vertex -9.68942 62.3409 1.5
    endloop
  endfacet
  facet normal 0 0 1
    outer loop
      vertex -10.3106 62.3409 1.5
      vertex -5 55.5 1.5
      vertex -10 62.3 1.5
    endloop
  endfacet
  facet normal 0 0 1
    outer loop
      vertex -14 50.5 1.5
      vertex -10.3106 62.3409 1.5
      vertex -10.6 62.4608 1.5
    endloop
  endfacet
  facet normal 0 0 1
    outer loop
      vertex -14 50.5 1.5
      vertex -10.6 62.4608 1.5
      vertex -10.8485 62.6515 1.5
    endloop
  endfacet
  facet normal 0 0 1
    outer loop
      vertex -14 50.5 1.5
      vertex -11.2 63.5 1.5
      vertex -14 76.5 1.5
    endloop
  endfacet
  facet normal 0 0 1
    outer loop
      vertex -5 55.5 1.5
      vertex -14 50.5 1.5
      vertex 14 50.5 1.5
    endloop
  endfacet
  facet normal 0 0 1
    outer loop
      vertex -10.3106 62.3409 1.5
      vertex -14 50.5 1.5
      vertex -5 55.5 1.5
    endloop
  endfacet
  facet normal 0 0 1
    outer loop
      vertex -11.0392 62.9 1.5
      vertex -14 50.5 1.5
      vertex -10.8485 62.6515 1.5
    endloop
  endfacet
  facet normal 0 0 1
    outer loop
      vertex -11.1591 63.1894 1.5
      vertex -14 50.5 1.5
      vertex -11.0392 62.9 1.5
    endloop
  endfacet
  facet normal 0 0 1
    outer loop
      vertex -11.2 63.5 1.5
      vertex -14 50.5 1.5
      vertex -11.1591 63.1894 1.5
    endloop
  endfacet
  facet normal 0 0 -1
    outer loop
      vertex 14 50.5 0
      vertex 11.2 63.5 0
      vertex 14 76.5 0
    endloop
  endfacet
  facet normal 0 0 -1
    outer loop
      vertex 14 50.5 0
      vertex 11.1591 63.1894 0
      vertex 11.2 63.5 0
    endloop
  endfacet
  facet normal 0 0 -1
    outer loop
      vertex 14 50.5 0
      vertex 11.0392 62.9 0
      vertex 11.1591 63.1894 0
    endloop
  endfacet
  facet normal 0 0 -1
    outer loop
      vertex 14 50.5 0
      vertex 10.8485 62.6515 0
      vertex 11.0392 62.9 0
    endloop
  endfacet
  facet normal 0 0 -1
    outer loop
      vertex 14 50.5 0
      vertex 10.6 62.4608 0
      vertex 10.8485 62.6515 0
    endloop
  endfacet
  facet normal 0 0 -1
    outer loop
      vertex 14 50.5 0
      vertex 10.3106 62.3409 0
      vertex 10.6 62.4608 0
    endloop
  endfacet
  facet normal 0 0 -1
    outer loop
      vertex 5 55.5 0
      vertex 10.3106 62.3409 0
      vertex 14 50.5 0
    endloop
  endfacet
  facet normal 0 0 -1
    outer loop
      vertex 10.3106 62.3409 0
      vertex 5 55.5 0
      vertex 10 62.3 0
    endloop
  endfacet
  facet normal -0 0 -1
    outer loop
      vertex 10 62.3 0
      vertex 5 55.5 0
      vertex 9.68942 62.3409 0
    endloop
  endfacet
  facet normal -0 0 -1
    outer loop
      vertex 9.68942 62.3409 0
      vertex 5 55.5 0
      vertex 9.4 62.4608 0
    endloop
  endfacet
  facet normal -0 0 -1
    outer loop
      vertex 9.4 62.4608 0
      vertex 5 55.5 0
      vertex 9.15147 62.6515 0
    endloop
  endfacet
  facet normal -0 0 -1
    outer loop
      vertex 9.15147 62.6515 0
      vertex 5 55.5 0
      vertex 8.96077 62.9 0
    endloop
  endfacet
  facet normal -0 0 -1
    outer loop
      vertex 8.84089 63.1894 0
      vertex 5 55.5 0
      vertex 8.8 63.5 0
    endloop
  endfacet
  facet normal -0 0 -1
    outer loop
      vertex 8.96077 62.9 0
      vertex 5 55.5 0
      vertex 8.84089 63.1894 0
    endloop
  endfacet
  facet normal 0 0 -1
    outer loop
      vertex 14 50.5 0
      vertex -5 55.5 0
      vertex 5 55.5 0
    endloop
  endfacet
  facet normal 0 0 -1
    outer loop
      vertex -5 55.5 0
      vertex -8.8 63.5 0
      vertex -5 71.5 0
    endloop
  endfacet
  facet normal 0 0 -1
    outer loop
      vertex -5 55.5 0
      vertex -8.84089 63.1894 0
      vertex -8.8 63.5 0
    endloop
  endfacet
  facet normal 0 0 -1
    outer loop
      vertex -5 55.5 0
      vertex -8.96077 62.9 0
      vertex -8.84089 63.1894 0
    endloop
  endfacet
  facet normal 0 0 -1
    outer loop
      vertex -5 55.5 0
      vertex -9.15147 62.6515 0
      vertex -8.96077 62.9 0
    endloop
  endfacet
  facet normal 0 0 -1
    outer loop
      vertex -5 55.5 0
      vertex -9.4 62.4608 0
      vertex -9.15147 62.6515 0
    endloop
  endfacet
  facet normal 0 0 -1
    outer loop
      vertex -5 55.5 0
      vertex -9.68942 62.3409 0
      vertex -9.4 62.4608 0
    endloop
  endfacet
  facet normal 0 0 -1
    outer loop
      vertex -5 55.5 0
      vertex -10 62.3 0
      vertex -9.68942 62.3409 0
    endloop
  endfacet
  facet normal 0 0 -1
    outer loop
      vertex -5 55.5 0
      vertex -10.3106 62.3409 0
      vertex -10 62.3 0
    endloop
  endfacet
  facet normal 0 0 -1
    outer loop
      vertex -14 50.5 0
      vertex -10.3106 62.3409 0
      vertex -5 55.5 0
    endloop
  endfacet
  facet normal -0 0 -1
    outer loop
      vertex -10.3106 62.3409 0
      vertex -14 50.5 0
      vertex -10.6 62.4608 0
    endloop
  endfacet
  facet normal -0 0 -1
    outer loop
      vertex -11.1591 63.1894 0
      vertex -14 50.5 0
      vertex -11.2 63.5 0
    endloop
  endfacet
  facet normal -0 0 -1
    outer loop
      vertex -11.0392 62.9 0
      vertex -14 50.5 0
      vertex -11.1591 63.1894 0
    endloop
  endfacet
  facet normal -0 0 -1
    outer loop
      vertex -10.8485 62.6515 0
      vertex -14 50.5 0
      vertex -11.0392 62.9 0
    endloop
  endfacet
  facet normal -0 0 -1
    outer loop
      vertex -10.6 62.4608 0
      vertex -14 50.5 0
      vertex -10.8485 62.6515 0
    endloop
  endfacet
  facet normal 0 0 -1
    outer loop
      vertex -14 50.5 0
      vertex -5 55.5 0
      vertex 14 50.5 0
    endloop
  endfacet
  facet normal 0 0 -1
    outer loop
      vertex 11.1591 63.8106 0
      vertex 14 76.5 0
      vertex 11.2 63.5 0
    endloop
  endfacet
  facet normal 0 0 -1
    outer loop
      vertex 11.0392 64.1 0
      vertex 14 76.5 0
      vertex 11.1591 63.8106 0
    endloop
  endfacet
  facet normal 0 0 -1
    outer loop
      vertex 10.8485 64.3485 0
      vertex 14 76.5 0
      vertex 11.0392 64.1 0
    endloop
  endfacet
  facet normal 0 0 -1
    outer loop
      vertex 10.6 64.5392 0
      vertex 14 76.5 0
      vertex 10.8485 64.3485 0
    endloop
  endfacet
  facet normal 0 0 -1
    outer loop
      vertex 10.3106 64.6591 0
      vertex 14 76.5 0
      vertex 10.6 64.5392 0
    endloop
  endfacet
  facet normal 0 0 -1
    outer loop
      vertex 5 71.5 0
      vertex 10.3106 64.6591 0
      vertex 10 64.7 0
    endloop
  endfacet
  facet normal 0 0 -1
    outer loop
      vertex 5 71.5 0
      vertex 10 64.7 0
      vertex 9.68942 64.6591 0
    endloop
  endfacet
  facet normal 0 0 -1
    outer loop
      vertex 5 71.5 0
      vertex 9.68942 64.6591 0
      vertex 9.4 64.5392 0
    endloop
  endfacet
  facet normal 0 0 -1
    outer loop
      vertex 5 71.5 0
      vertex 9.4 64.5392 0
      vertex 9.15147 64.3485 0
    endloop
  endfacet
  facet normal 0 0 -1
    outer loop
      vertex 5 71.5 0
      vertex 9.15147 64.3485 0
      vertex 8.96077 64.1 0
    endloop
  endfacet
  facet normal 0 0 -1
    outer loop
      vertex 5 71.5 0
      vertex 8.96077 64.1 0
      vertex 8.84089 63.8106 0
    endloop
  endfacet
  facet normal 0 0 -1
    outer loop
      vertex 5 71.5 0
      vertex 8.8 63.5 0
      vertex 5 55.5 0
    endloop
  endfacet
  facet normal 0 0 -1
    outer loop
      vertex 8.8 63.5 0
      vertex 5 71.5 0
      vertex 8.84089 63.8106 0
    endloop
  endfacet
  facet normal 0 0 -1
    outer loop
      vertex 10.3106 64.6591 0
      vertex 5 71.5 0
      vertex 14 76.5 0
    endloop
  endfacet
  facet normal 0 0 -1
    outer loop
      vertex -5 71.5 0
      vertex 14 76.5 0
      vertex 5 71.5 0
    endloop
  endfacet
  facet normal 0 0 -1
    outer loop
      vertex -8.84089 63.8106 0
      vertex -5 71.5 0
      vertex -8.8 63.5 0
    endloop
  endfacet
  facet normal 0 0 -1
    outer loop
      vertex -8.96077 64.1 0
      vertex -5 71.5 0
      vertex -8.84089 63.8106 0
    endloop
  endfacet
  facet normal 0 0 -1
    outer loop
      vertex -9.15147 64.3485 0
      vertex -5 71.5 0
      vertex -8.96077 64.1 0
    endloop
  endfacet
  facet normal 0 0 -1
    outer loop
      vertex -9.4 64.5392 0
      vertex -5 71.5 0
      vertex -9.15147 64.3485 0
    endloop
  endfacet
  facet normal 0 0 -1
    outer loop
      vertex -9.68942 64.6591 0
      vertex -5 71.5 0
      vertex -9.4 64.5392 0
    endloop
  endfacet
  facet normal 0 0 -1
    outer loop
      vertex -10 64.7 0
      vertex -5 71.5 0
      vertex -9.68942 64.6591 0
    endloop
  endfacet
  facet normal 0 0 -1
    outer loop
      vertex -10.3106 64.6591 0
      vertex -5 71.5 0
      vertex -10 64.7 0
    endloop
  endfacet
  facet normal 0 0 -1
    outer loop
      vertex -14 76.5 0
      vertex -10.3106 64.6591 0
      vertex -10.6 64.5392 0
    endloop
  endfacet
  facet normal 0 0 -1
    outer loop
      vertex -14 76.5 0
      vertex -10.6 64.5392 0
      vertex -10.8485 64.3485 0
    endloop
  endfacet
  facet normal 0 0 -1
    outer loop
      vertex -14 76.5 0
      vertex -11.2 63.5 0
      vertex -14 50.5 0
    endloop
  endfacet
  facet normal 0 0 -1
    outer loop
      vertex -5 71.5 0
      vertex -14 76.5 0
      vertex 14 76.5 0
    endloop
  endfacet
  facet normal 0 0 -1
    outer loop
      vertex -10.3106 64.6591 0
      vertex -14 76.5 0
      vertex -5 71.5 0
    endloop
  endfacet
  facet normal 0 0 -1
    outer loop
      vertex -11.0392 64.1 0
      vertex -14 76.5 0
      vertex -10.8485 64.3485 0
    endloop
  endfacet
  facet normal 0 0 -1
    outer loop
      vertex -11.1591 63.8106 0
      vertex -14 76.5 0
      vertex -11.0392 64.1 0
    endloop
  endfacet
  facet normal 0 0 -1
    outer loop
      vertex -11.2 63.5 0
      vertex -14 76.5 0
      vertex -11.1591 63.8106 0
    endloop
  endfacet
  facet normal -1 0 0
    outer loop
      vertex -14 50.5 0
      vertex -14 76.5 1.5
      vertex -14 76.5 0
    endloop
  endfacet
  facet normal -1 -0 0
    outer loop
      vertex -14 76.5 1.5
      vertex -14 50.5 0
      vertex -14 50.5 1.5
    endloop
  endfacet
  facet normal 0 1 -0
    outer loop
      vertex 14 76.5 0
      vertex -14 76.5 1.5
      vertex 14 76.5 1.5
    endloop
  endfacet
  facet normal 0 1 0
    outer loop
      vertex -14 76.5 1.5
      vertex 14 76.5 0
      vertex -14 76.5 0
    endloop
  endfacet
  facet normal 0 -1 0
    outer loop
      vertex -14 50.5 0
      vertex 14 50.5 1.5
      vertex -14 50.5 1.5
    endloop
  endfacet
  facet normal 0 -1 -0
    outer loop
      vertex 14 50.5 1.5
      vertex -14 50.5 0
      vertex 14 50.5 0
    endloop
  endfacet
  facet normal -1 0 0
    outer loop
      vertex 5 55.5 0
      vertex 5 71.5 1.5
      vertex 5 71.5 0
    endloop
  endfacet
  facet normal -1 -0 0
    outer loop
      vertex 5 71.5 1.5
      vertex 5 55.5 0
      vertex 5 55.5 1.5
    endloop
  endfacet
  facet normal 1 -0 0
    outer loop
      vertex -5 55.5 1.5
      vertex -5 71.5 0
      vertex -5 71.5 1.5
    endloop
  endfacet
  facet normal 1 0 0
    outer loop
      vertex -5 71.5 0
      vertex -5 55.5 1.5
      vertex -5 55.5 0
    endloop
  endfacet
  facet normal 0 -1 0
    outer loop
      vertex -5 71.5 0
      vertex 5 71.5 1.5
      vertex -5 71.5 1.5
    endloop
  endfacet
  facet normal 0 -1 -0
    outer loop
      vertex 5 71.5 1.5
      vertex -5 71.5 0
      vertex 5 71.5 0
    endloop
  endfacet
  facet normal 0 1 -0
    outer loop
      vertex 5 55.5 0
      vertex -5 55.5 1.5
      vertex 5 55.5 1.5
    endloop
  endfacet
  facet normal 0 1 0
    outer loop
      vertex -5 55.5 1.5
      vertex 5 55.5 0
      vertex -5 55.5 0
    endloop
  endfacet
endsolid OpenSCAD_Model
