solid OpenSCAD_Model
  facet normal 0.984801 0 0.173687
    outer loop
      vertex -12.8451 4 47.9915
      vertex -5 0 3.51
      vertex -5 4 3.51
    endloop
  endfacet
  facet normal 0.984801 -0 0.173687
    outer loop
      vertex -12.8451 -4 47.9915
      vertex -5 0 3.51
      vertex -12.8451 4 47.9915
    endloop
  endfacet
  facet normal 0.984801 0 0.173687
    outer loop
      vertex -5 0 3.51
      vertex -12.8451 -4 47.9915
      vertex -5 -4 3.51
    endloop
  endfacet
  facet normal -0.984801 0 -0.173687
    outer loop
      vertex -11 -4 3.5
      vertex -18.8466 4 47.99
      vertex -11 4 3.5
    endloop
  endfacet
  facet normal -0.984801 -0 -0.173687
    outer loop
      vertex -18.8466 4 47.99
      vertex -11 -4 3.5
      vertex -18.8466 -4 47.99
    endloop
  endfacet
  facet normal 0 0 1
    outer loop
      vertex -1.2941 -4.82963 3.5
      vertex -7.95452 -9.08589 3.5
      vertex -7.9 -9.5 3.5
    endloop
  endfacet
  facet normal 0 0 1
    outer loop
      vertex -5 -4 3.5
      vertex -8.11436 -8.7 3.5
      vertex -7.95452 -9.08589 3.5
    endloop
  endfacet
  facet normal 0 0 1
    outer loop
      vertex -5 -4 3.5
      vertex -8.36863 -8.36863 3.5
      vertex -8.11436 -8.7 3.5
    endloop
  endfacet
  facet normal 0 0 1
    outer loop
      vertex -5 -4 3.5
      vertex -8.7 -8.11436 3.5
      vertex -8.36863 -8.36863 3.5
    endloop
  endfacet
  facet normal 0 0 1
    outer loop
      vertex -5 -4 3.5
      vertex -9.08589 -7.95452 3.5
      vertex -8.7 -8.11436 3.5
    endloop
  endfacet
  facet normal -0 0 1
    outer loop
      vertex -11 -4 3.5
      vertex -9.08589 -7.95452 3.5
      vertex -5 -4 3.5
    endloop
  endfacet
  facet normal 0 0 1
    outer loop
      vertex -9.08589 -7.95452 3.5
      vertex -11 -4 3.5
      vertex -9.5 -7.9 3.5
    endloop
  endfacet
  facet normal 0 0 1
    outer loop
      vertex -9.5 -7.9 3.5
      vertex -11 -4 3.5
      vertex -9.91411 -7.95452 3.5
    endloop
  endfacet
  facet normal 0 0 1
    outer loop
      vertex -9.91411 -7.95452 3.5
      vertex -11 -4 3.5
      vertex -10.3 -8.11436 3.5
    endloop
  endfacet
  facet normal 0 0 1
    outer loop
      vertex -10.3 -8.11436 3.5
      vertex -11 -4 3.5
      vertex -10.6314 -8.36863 3.5
    endloop
  endfacet
  facet normal 0 0 1
    outer loop
      vertex -11 -4 3.5
      vertex -10.8856 -8.7 3.5
      vertex -10.6314 -8.36863 3.5
    endloop
  endfacet
  facet normal 0 0 1
    outer loop
      vertex -11 -4 3.5
      vertex -11.0455 -9.08589 3.5
      vertex -10.8856 -8.7 3.5
    endloop
  endfacet
  facet normal 0 0 1
    outer loop
      vertex -11 4 3.5
      vertex -17 17 3.5
      vertex -11 -4 3.5
    endloop
  endfacet
  facet normal 0 0 1
    outer loop
      vertex -17 17 3.5
      vertex -11.0455 9.08589 3.5
      vertex -11.1 9.5 3.5
    endloop
  endfacet
  facet normal 0 0 1
    outer loop
      vertex -17 -17 3.5
      vertex -11 -4 3.5
      vertex -17 17 3.5
    endloop
  endfacet
  facet normal 0 0 1
    outer loop
      vertex -4.82963 1.2941 3.5
      vertex -5 4 3.5
      vertex -5 0 3.5
    endloop
  endfacet
  facet normal 0 0 1
    outer loop
      vertex 5 0 3.5
      vertex 4.82963 -1.2941 3.5
      vertex 5 -4 3.5
    endloop
  endfacet
  facet normal 0 0 1
    outer loop
      vertex -2.5 4.33013 3.5
      vertex -7.95452 9.08589 3.5
      vertex -5 4 3.5
    endloop
  endfacet
  facet normal -0 0 1
    outer loop
      vertex -8.11436 8.7 3.5
      vertex -5 4 3.5
      vertex -7.95452 9.08589 3.5
    endloop
  endfacet
  facet normal -0 0 1
    outer loop
      vertex -8.36863 8.36863 3.5
      vertex -5 4 3.5
      vertex -8.11436 8.7 3.5
    endloop
  endfacet
  facet normal -0 0 1
    outer loop
      vertex -8.7 8.11436 3.5
      vertex -5 4 3.5
      vertex -8.36863 8.36863 3.5
    endloop
  endfacet
  facet normal -0 0 1
    outer loop
      vertex -9.08589 7.95452 3.5
      vertex -5 4 3.5
      vertex -8.7 8.11436 3.5
    endloop
  endfacet
  facet normal 0 0 1
    outer loop
      vertex -11 4 3.5
      vertex -9.08589 7.95452 3.5
      vertex -9.5 7.9 3.5
    endloop
  endfacet
  facet normal 0 0 1
    outer loop
      vertex -11 4 3.5
      vertex -9.5 7.9 3.5
      vertex -9.91411 7.95452 3.5
    endloop
  endfacet
  facet normal 0 0 1
    outer loop
      vertex -11 4 3.5
      vertex -9.91411 7.95452 3.5
      vertex -10.3 8.11436 3.5
    endloop
  endfacet
  facet normal 0 0 1
    outer loop
      vertex -11 4 3.5
      vertex -10.3 8.11436 3.5
      vertex -10.6314 8.36863 3.5
    endloop
  endfacet
  facet normal 0 0 1
    outer loop
      vertex -9.08589 7.95452 3.5
      vertex -11 4 3.5
      vertex -5 4 3.5
    endloop
  endfacet
  facet normal 0 0 1
    outer loop
      vertex -10.8856 8.7 3.5
      vertex -11 4 3.5
      vertex -10.6314 8.36863 3.5
    endloop
  endfacet
  facet normal 0 0 1
    outer loop
      vertex -17 17 3.5
      vertex -11 4 3.5
      vertex -11.0455 9.08589 3.5
    endloop
  endfacet
  facet normal 0 0 1
    outer loop
      vertex -11.0455 9.08589 3.5
      vertex -11 4 3.5
      vertex -10.8856 8.7 3.5
    endloop
  endfacet
  facet normal 0 0 1
    outer loop
      vertex 17 17 3.5
      vertex 11 4 3.5
      vertex 17 -17 3.5
    endloop
  endfacet
  facet normal -0 0 1
    outer loop
      vertex 11 -4 3.5
      vertex 17 -17 3.5
      vertex 11 4 3.5
    endloop
  endfacet
  facet normal -0 -0 1
    outer loop
      vertex 11.0455 -9.08589 3.5
      vertex 17 -17 3.5
      vertex 11 -4 3.5
    endloop
  endfacet
  facet normal -0 0 1
    outer loop
      vertex 10.8856 8.7 3.5
      vertex 11 4 3.5
      vertex 11.0455 9.08589 3.5
    endloop
  endfacet
  facet normal -0 0 1
    outer loop
      vertex 10.6314 8.36863 3.5
      vertex 11 4 3.5
      vertex 10.8856 8.7 3.5
    endloop
  endfacet
  facet normal -0 0 1
    outer loop
      vertex 10.3 8.11436 3.5
      vertex 11 4 3.5
      vertex 10.6314 8.36863 3.5
    endloop
  endfacet
  facet normal -0 0 1
    outer loop
      vertex 9.91411 7.95452 3.5
      vertex 11 4 3.5
      vertex 10.3 8.11436 3.5
    endloop
  endfacet
  facet normal -0 0 1
    outer loop
      vertex 9.5 7.9 3.5
      vertex 11 4 3.5
      vertex 9.91411 7.95452 3.5
    endloop
  endfacet
  facet normal 0 0 1
    outer loop
      vertex 9.08589 7.95452 3.5
      vertex 11 4 3.5
      vertex 9.5 7.9 3.5
    endloop
  endfacet
  facet normal 0 0 1
    outer loop
      vertex 5 4 3.5
      vertex 9.08589 7.95452 3.5
      vertex 8.7 8.11436 3.5
    endloop
  endfacet
  facet normal 0 0 1
    outer loop
      vertex 5 4 3.5
      vertex 8.7 8.11436 3.5
      vertex 8.36863 8.36863 3.5
    endloop
  endfacet
  facet normal 0 0 1
    outer loop
      vertex 5 4 3.5
      vertex 8.36863 8.36863 3.5
      vertex 8.11436 8.7 3.5
    endloop
  endfacet
  facet normal 0 0 1
    outer loop
      vertex 9.08589 7.95452 3.5
      vertex 5 4 3.5
      vertex 11 4 3.5
    endloop
  endfacet
  facet normal 0 0 1
    outer loop
      vertex 7.95452 9.08589 3.5
      vertex 5 4 3.5
      vertex 8.11436 8.7 3.5
    endloop
  endfacet
  facet normal 0 0 1
    outer loop
      vertex 1.2941 4.82963 3.5
      vertex 7.95452 9.08589 3.5
      vertex 7.9 9.5 3.5
    endloop
  endfacet
  facet normal 0 0 1
    outer loop
      vertex 11.0455 9.08589 3.5
      vertex 17 17 3.5
      vertex 11.1 9.5 3.5
    endloop
  endfacet
  facet normal 0 0 1
    outer loop
      vertex 17 17 3.5
      vertex 11.0455 9.91411 3.5
      vertex 11.1 9.5 3.5
    endloop
  endfacet
  facet normal 0 0 1
    outer loop
      vertex 17 17 3.5
      vertex 10.8856 10.3 3.5
      vertex 11.0455 9.91411 3.5
    endloop
  endfacet
  facet normal 0 0 1
    outer loop
      vertex 17 17 3.5
      vertex 10.6314 10.6314 3.5
      vertex 10.8856 10.3 3.5
    endloop
  endfacet
  facet normal 0 0 1
    outer loop
      vertex 17 17 3.5
      vertex 10.3 10.8856 3.5
      vertex 10.6314 10.6314 3.5
    endloop
  endfacet
  facet normal 0 0 1
    outer loop
      vertex 17 17 3.5
      vertex 9.91411 11.0455 3.5
      vertex 10.3 10.8856 3.5
    endloop
  endfacet
  facet normal 0 0 1
    outer loop
      vertex 17 17 3.5
      vertex 9.5 11.1 3.5
      vertex 9.91411 11.0455 3.5
    endloop
  endfacet
  facet normal 0 0 1
    outer loop
      vertex 17 17 3.5
      vertex 9.08589 11.0455 3.5
      vertex 9.5 11.1 3.5
    endloop
  endfacet
  facet normal 0 0 1
    outer loop
      vertex 17 17 3.5
      vertex 8.7 10.8856 3.5
      vertex 9.08589 11.0455 3.5
    endloop
  endfacet
  facet normal 0 0 1
    outer loop
      vertex 1.2941 4.82963 3.5
      vertex 7.9 9.5 3.5
      vertex 7.95452 9.91411 3.5
    endloop
  endfacet
  facet normal 0 0 1
    outer loop
      vertex 0 5 3.5
      vertex 7.95452 9.91411 3.5
      vertex 8.11436 10.3 3.5
    endloop
  endfacet
  facet normal 0 0 1
    outer loop
      vertex 5 4 3.5
      vertex 4.82963 1.2941 3.5
      vertex 5 0 3.5
    endloop
  endfacet
  facet normal 0 0 1
    outer loop
      vertex 5 4 3.5
      vertex 4.33013 2.5 3.5
      vertex 4.82963 1.2941 3.5
    endloop
  endfacet
  facet normal 0 0 1
    outer loop
      vertex 5 4 3.5
      vertex 3.53553 3.53553 3.5
      vertex 4.33013 2.5 3.5
    endloop
  endfacet
  facet normal 0 0 1
    outer loop
      vertex 7.95452 9.08589 3.5
      vertex 2.5 4.33013 3.5
      vertex 5 4 3.5
    endloop
  endfacet
  facet normal 0 0 1
    outer loop
      vertex 5 4 3.5
      vertex 2.5 4.33013 3.5
      vertex 3.53553 3.53553 3.5
    endloop
  endfacet
  facet normal 0 0 1
    outer loop
      vertex -8.11436 10.3 3.5
      vertex 8.11436 10.3 3.5
      vertex 8.36863 10.6314 3.5
    endloop
  endfacet
  facet normal 0 0 1
    outer loop
      vertex 7.95452 9.08589 3.5
      vertex 1.2941 4.82963 3.5
      vertex 2.5 4.33013 3.5
    endloop
  endfacet
  facet normal 0 0 1
    outer loop
      vertex 7.95452 9.91411 3.5
      vertex 0 5 3.5
      vertex 1.2941 4.82963 3.5
    endloop
  endfacet
  facet normal 0 0 1
    outer loop
      vertex -8.36863 10.6314 3.5
      vertex 8.36863 10.6314 3.5
      vertex 8.7 10.8856 3.5
    endloop
  endfacet
  facet normal 0 0 1
    outer loop
      vertex -8.7 10.8856 3.5
      vertex 8.7 10.8856 3.5
      vertex 17 17 3.5
    endloop
  endfacet
  facet normal 0 0 1
    outer loop
      vertex 8.11436 10.3 3.5
      vertex -8.11436 10.3 3.5
      vertex 0 5 3.5
    endloop
  endfacet
  facet normal -0 -0 1
    outer loop
      vertex -7.95452 9.91411 3.5
      vertex 0 5 3.5
      vertex -8.11436 10.3 3.5
    endloop
  endfacet
  facet normal 0 0 1
    outer loop
      vertex -4.33013 2.5 3.5
      vertex -5 4 3.5
      vertex -4.82963 1.2941 3.5
    endloop
  endfacet
  facet normal 0 0 1
    outer loop
      vertex -3.53553 3.53553 3.5
      vertex -5 4 3.5
      vertex -4.33013 2.5 3.5
    endloop
  endfacet
  facet normal 0 0 1
    outer loop
      vertex -2.5 4.33013 3.5
      vertex -5 4 3.5
      vertex -3.53553 3.53553 3.5
    endloop
  endfacet
  facet normal 0 0 1
    outer loop
      vertex 0 5 3.5
      vertex -7.95452 9.91411 3.5
      vertex -1.2941 4.82963 3.5
    endloop
  endfacet
  facet normal -0 0 1
    outer loop
      vertex -7.95452 9.08589 3.5
      vertex -1.2941 4.82963 3.5
      vertex -7.9 9.5 3.5
    endloop
  endfacet
  facet normal 0 0 1
    outer loop
      vertex -1.2941 4.82963 3.5
      vertex -7.95452 9.08589 3.5
      vertex -2.5 4.33013 3.5
    endloop
  endfacet
  facet normal -0 -0 1
    outer loop
      vertex -7.9 9.5 3.5
      vertex -1.2941 4.82963 3.5
      vertex -7.95452 9.91411 3.5
    endloop
  endfacet
  facet normal 0 0 1
    outer loop
      vertex 8.36863 10.6314 3.5
      vertex -8.36863 10.6314 3.5
      vertex -8.11436 10.3 3.5
    endloop
  endfacet
  facet normal 0 0 1
    outer loop
      vertex 8.7 10.8856 3.5
      vertex -8.7 10.8856 3.5
      vertex -8.36863 10.6314 3.5
    endloop
  endfacet
  facet normal -0 0 1
    outer loop
      vertex -17 17 3.5
      vertex -8.7 10.8856 3.5
      vertex 17 17 3.5
    endloop
  endfacet
  facet normal 0 0 1
    outer loop
      vertex -8.7 10.8856 3.5
      vertex -17 17 3.5
      vertex -9.08589 11.0455 3.5
    endloop
  endfacet
  facet normal 0 0 1
    outer loop
      vertex -9.08589 11.0455 3.5
      vertex -17 17 3.5
      vertex -9.5 11.1 3.5
    endloop
  endfacet
  facet normal 0 0 1
    outer loop
      vertex -11 -4 3.5
      vertex -17 -17 3.5
      vertex -11.0455 -9.08589 3.5
    endloop
  endfacet
  facet normal 0 0 1
    outer loop
      vertex -11.0455 9.91411 3.5
      vertex -17 17 3.5
      vertex -11.1 9.5 3.5
    endloop
  endfacet
  facet normal 0 0 1
    outer loop
      vertex -10.8856 10.3 3.5
      vertex -17 17 3.5
      vertex -11.0455 9.91411 3.5
    endloop
  endfacet
  facet normal 0 0 1
    outer loop
      vertex -10.6314 10.6314 3.5
      vertex -17 17 3.5
      vertex -10.8856 10.3 3.5
    endloop
  endfacet
  facet normal 0 0 1
    outer loop
      vertex -10.3 10.8856 3.5
      vertex -17 17 3.5
      vertex -10.6314 10.6314 3.5
    endloop
  endfacet
  facet normal 0 0 1
    outer loop
      vertex -9.91411 11.0455 3.5
      vertex -17 17 3.5
      vertex -10.3 10.8856 3.5
    endloop
  endfacet
  facet normal 0 0 1
    outer loop
      vertex -9.5 11.1 3.5
      vertex -17 17 3.5
      vertex -9.91411 11.0455 3.5
    endloop
  endfacet
  facet normal 0 0 1
    outer loop
      vertex 11 4 3.5
      vertex 17 17 3.5
      vertex 11.0455 9.08589 3.5
    endloop
  endfacet
  facet normal -0 0 1
    outer loop
      vertex 11.0455 -9.91411 3.5
      vertex 17 -17 3.5
      vertex 11.1 -9.5 3.5
    endloop
  endfacet
  facet normal -0 0 1
    outer loop
      vertex 10.8856 -10.3 3.5
      vertex 17 -17 3.5
      vertex 11.0455 -9.91411 3.5
    endloop
  endfacet
  facet normal -0 0 1
    outer loop
      vertex 10.6314 -10.6314 3.5
      vertex 17 -17 3.5
      vertex 10.8856 -10.3 3.5
    endloop
  endfacet
  facet normal -0 0 1
    outer loop
      vertex 10.3 -10.8856 3.5
      vertex 17 -17 3.5
      vertex 10.6314 -10.6314 3.5
    endloop
  endfacet
  facet normal -0 0 1
    outer loop
      vertex 9.91411 -11.0455 3.5
      vertex 17 -17 3.5
      vertex 10.3 -10.8856 3.5
    endloop
  endfacet
  facet normal -0 0 1
    outer loop
      vertex 9.5 -11.1 3.5
      vertex 17 -17 3.5
      vertex 9.91411 -11.0455 3.5
    endloop
  endfacet
  facet normal 0 0 1
    outer loop
      vertex 9.08589 -11.0455 3.5
      vertex 17 -17 3.5
      vertex 9.5 -11.1 3.5
    endloop
  endfacet
  facet normal 0 0 1
    outer loop
      vertex 8.7 -10.8856 3.5
      vertex 17 -17 3.5
      vertex 9.08589 -11.0455 3.5
    endloop
  endfacet
  facet normal -0 0 1
    outer loop
      vertex 1.2941 -4.82963 3.5
      vertex 7.95452 -9.08589 3.5
      vertex 2.5 -4.33013 3.5
    endloop
  endfacet
  facet normal 0 0 1
    outer loop
      vertex 7.95452 -9.08589 3.5
      vertex 1.2941 -4.82963 3.5
      vertex 7.9 -9.5 3.5
    endloop
  endfacet
  facet normal -0 0 1
    outer loop
      vertex 4.33013 -2.5 3.5
      vertex 5 -4 3.5
      vertex 4.82963 -1.2941 3.5
    endloop
  endfacet
  facet normal -0 0 1
    outer loop
      vertex 3.53553 -3.53553 3.5
      vertex 5 -4 3.5
      vertex 4.33013 -2.5 3.5
    endloop
  endfacet
  facet normal 0 0 1
    outer loop
      vertex 2.5 -4.33013 3.5
      vertex 5 -4 3.5
      vertex 3.53553 -3.53553 3.5
    endloop
  endfacet
  facet normal 0 0 1
    outer loop
      vertex 7.9 -9.5 3.5
      vertex 1.2941 -4.82963 3.5
      vertex 7.95452 -9.91411 3.5
    endloop
  endfacet
  facet normal -0 0 1
    outer loop
      vertex 0 -5 3.5
      vertex 7.95452 -9.91411 3.5
      vertex 1.2941 -4.82963 3.5
    endloop
  endfacet
  facet normal 0 0 1
    outer loop
      vertex 7.95452 -9.91411 3.5
      vertex 0 -5 3.5
      vertex 8.11436 -10.3 3.5
    endloop
  endfacet
  facet normal 0 0 1
    outer loop
      vertex -8.11436 -10.3 3.5
      vertex 8.11436 -10.3 3.5
      vertex 0 -5 3.5
    endloop
  endfacet
  facet normal 0 0 1
    outer loop
      vertex 8.11436 -10.3 3.5
      vertex -8.11436 -10.3 3.5
      vertex 8.36863 -10.6314 3.5
    endloop
  endfacet
  facet normal 0 0 1
    outer loop
      vertex -8.36863 -10.6314 3.5
      vertex 8.36863 -10.6314 3.5
      vertex -8.11436 -10.3 3.5
    endloop
  endfacet
  facet normal 0 0 1
    outer loop
      vertex -7.95452 -9.91411 3.5
      vertex 0 -5 3.5
      vertex -1.2941 -4.82963 3.5
    endloop
  endfacet
  facet normal 0 0 1
    outer loop
      vertex -7.95452 -9.08589 3.5
      vertex -1.2941 -4.82963 3.5
      vertex -2.5 -4.33013 3.5
    endloop
  endfacet
  facet normal 0 0 1
    outer loop
      vertex -5 -4 3.5
      vertex -4.82963 -1.2941 3.5
      vertex -5 0 3.5
    endloop
  endfacet
  facet normal 0 0 1
    outer loop
      vertex -5 -4 3.5
      vertex -4.33013 -2.5 3.5
      vertex -4.82963 -1.2941 3.5
    endloop
  endfacet
  facet normal 0 0 1
    outer loop
      vertex -5 -4 3.5
      vertex -3.53553 -3.53553 3.5
      vertex -4.33013 -2.5 3.5
    endloop
  endfacet
  facet normal -0 0 1
    outer loop
      vertex -5 -4 3.5
      vertex -2.5 -4.33013 3.5
      vertex -3.53553 -3.53553 3.5
    endloop
  endfacet
  facet normal 0 0 1
    outer loop
      vertex -7.95452 -9.08589 3.5
      vertex -2.5 -4.33013 3.5
      vertex -5 -4 3.5
    endloop
  endfacet
  facet normal 0 0 1
    outer loop
      vertex -1.2941 -4.82963 3.5
      vertex -7.9 -9.5 3.5
      vertex -7.95452 -9.91411 3.5
    endloop
  endfacet
  facet normal 0 0 1
    outer loop
      vertex 0 -5 3.5
      vertex -7.95452 -9.91411 3.5
      vertex -8.11436 -10.3 3.5
    endloop
  endfacet
  facet normal 0 0 1
    outer loop
      vertex 8.36863 -10.6314 3.5
      vertex -8.36863 -10.6314 3.5
      vertex 8.7 -10.8856 3.5
    endloop
  endfacet
  facet normal 0 0 1
    outer loop
      vertex -8.7 -10.8856 3.5
      vertex 8.7 -10.8856 3.5
      vertex -8.36863 -10.6314 3.5
    endloop
  endfacet
  facet normal 0 0 1
    outer loop
      vertex 8.7 -10.8856 3.5
      vertex -8.7 -10.8856 3.5
      vertex 17 -17 3.5
    endloop
  endfacet
  facet normal 0 0 1
    outer loop
      vertex -17 -17 3.5
      vertex -8.7 -10.8856 3.5
      vertex -9.08589 -11.0455 3.5
    endloop
  endfacet
  facet normal 0 0 1
    outer loop
      vertex -17 -17 3.5
      vertex -9.08589 -11.0455 3.5
      vertex -9.5 -11.1 3.5
    endloop
  endfacet
  facet normal 0 0 1
    outer loop
      vertex -17 -17 3.5
      vertex -9.5 -11.1 3.5
      vertex -9.91411 -11.0455 3.5
    endloop
  endfacet
  facet normal 0 0 1
    outer loop
      vertex -11.0455 -9.08589 3.5
      vertex -17 -17 3.5
      vertex -11.1 -9.5 3.5
    endloop
  endfacet
  facet normal 0 0 1
    outer loop
      vertex -8.7 -10.8856 3.5
      vertex -17 -17 3.5
      vertex 17 -17 3.5
    endloop
  endfacet
  facet normal 0 0 1
    outer loop
      vertex -10.3 -10.8856 3.5
      vertex -17 -17 3.5
      vertex -9.91411 -11.0455 3.5
    endloop
  endfacet
  facet normal 0 0 1
    outer loop
      vertex -10.6314 -10.6314 3.5
      vertex -17 -17 3.5
      vertex -10.3 -10.8856 3.5
    endloop
  endfacet
  facet normal 0 0 1
    outer loop
      vertex -10.8856 -10.3 3.5
      vertex -17 -17 3.5
      vertex -10.6314 -10.6314 3.5
    endloop
  endfacet
  facet normal 0 0 1
    outer loop
      vertex -11.0455 -9.91411 3.5
      vertex -17 -17 3.5
      vertex -10.8856 -10.3 3.5
    endloop
  endfacet
  facet normal 0 0 1
    outer loop
      vertex -11.1 -9.5 3.5
      vertex -17 -17 3.5
      vertex -11.0455 -9.91411 3.5
    endloop
  endfacet
  facet normal 0 0 1
    outer loop
      vertex 17 -17 3.5
      vertex 11.0455 -9.08589 3.5
      vertex 11.1 -9.5 3.5
    endloop
  endfacet
  facet normal 0 0 1
    outer loop
      vertex 11 -4 3.5
      vertex 10.8856 -8.7 3.5
      vertex 11.0455 -9.08589 3.5
    endloop
  endfacet
  facet normal 0 0 1
    outer loop
      vertex 11 -4 3.5
      vertex 10.6314 -8.36863 3.5
      vertex 10.8856 -8.7 3.5
    endloop
  endfacet
  facet normal 0 0 1
    outer loop
      vertex 11 -4 3.5
      vertex 10.3 -8.11436 3.5
      vertex 10.6314 -8.36863 3.5
    endloop
  endfacet
  facet normal 0 0 1
    outer loop
      vertex 11 -4 3.5
      vertex 9.91411 -7.95452 3.5
      vertex 10.3 -8.11436 3.5
    endloop
  endfacet
  facet normal 0 0 1
    outer loop
      vertex 11 -4 3.5
      vertex 9.5 -7.9 3.5
      vertex 9.91411 -7.95452 3.5
    endloop
  endfacet
  facet normal 0 0 1
    outer loop
      vertex 11 -4 3.5
      vertex 9.08589 -7.95452 3.5
      vertex 9.5 -7.9 3.5
    endloop
  endfacet
  facet normal -0 0 1
    outer loop
      vertex 5 -4 3.5
      vertex 9.08589 -7.95452 3.5
      vertex 11 -4 3.5
    endloop
  endfacet
  facet normal 0 0 1
    outer loop
      vertex 9.08589 -7.95452 3.5
      vertex 5 -4 3.5
      vertex 8.7 -8.11436 3.5
    endloop
  endfacet
  facet normal 0 0 1
    outer loop
      vertex 8.7 -8.11436 3.5
      vertex 5 -4 3.5
      vertex 8.36863 -8.36863 3.5
    endloop
  endfacet
  facet normal -0 0 1
    outer loop
      vertex 2.5 -4.33013 3.5
      vertex 7.95452 -9.08589 3.5
      vertex 5 -4 3.5
    endloop
  endfacet
  facet normal 0 0 1
    outer loop
      vertex 8.11436 -8.7 3.5
      vertex 5 -4 3.5
      vertex 7.95452 -9.08589 3.5
    endloop
  endfacet
  facet normal 0 0 1
    outer loop
      vertex 8.36863 -8.36863 3.5
      vertex 5 -4 3.5
      vertex 8.11436 -8.7 3.5
    endloop
  endfacet
  facet normal 0 1 0
    outer loop
      vertex -5 4 3.51
      vertex -12.8466 4 47.99
      vertex -12.8451 4 47.9915
    endloop
  endfacet
  facet normal 0 1 -0
    outer loop
      vertex -11 4 3.5
      vertex -12.8466 4 47.99
      vertex -5 4 3.51
    endloop
  endfacet
  facet normal 0 1 0
    outer loop
      vertex -11 4 3.5
      vertex -5 4 3.51
      vertex -5 4 3.5
    endloop
  endfacet
  facet normal 0 1 0
    outer loop
      vertex -12.8466 4 47.99
      vertex -11 4 3.5
      vertex -18.8466 4 47.99
    endloop
  endfacet
  facet normal 0 -1 0
    outer loop
      vertex -11 -4 3.5
      vertex -12.8466 -4 47.99
      vertex -18.8466 -4 47.99
    endloop
  endfacet
  facet normal 0 -1 0
    outer loop
      vertex -12.8466 -4 47.99
      vertex -11 -4 3.5
      vertex -5 -4 3.51
    endloop
  endfacet
  facet normal 0 -1 -0
    outer loop
      vertex -5 -4 3.51
      vertex -11 -4 3.5
      vertex -5 -4 3.5
    endloop
  endfacet
  facet normal 0 -1 -0
    outer loop
      vertex -12.8451 -4 47.9915
      vertex -12.8466 -4 47.99
      vertex -5 -4 3.51
    endloop
  endfacet
  facet normal 1 -0 0
    outer loop
      vertex -5 0 3.51
      vertex -5 4 3.5
      vertex -5 4 3.51
    endloop
  endfacet
  facet normal 1 0 0
    outer loop
      vertex -5 4 3.5
      vertex -5 0 3.51
      vertex -5 0 3.5
    endloop
  endfacet
  facet normal 1 -0 0
    outer loop
      vertex -5 -4 3.51
      vertex -5 0 3.5
      vertex -5 0 3.51
    endloop
  endfacet
  facet normal 1 0 0
    outer loop
      vertex -5 0 3.5
      vertex -5 -4 3.51
      vertex -5 -4 3.5
    endloop
  endfacet
  facet normal 1 -0 0
    outer loop
      vertex -9.8466 -5 51
      vertex -9.8466 5 50.99
      vertex -9.8466 5 51
    endloop
  endfacet
  facet normal 1 0 0
    outer loop
      vertex -9.8466 5 50.99
      vertex -9.8466 -5 51
      vertex -9.8466 -5 50.99
    endloop
  endfacet
  facet normal 0.707107 0 -0.707107
    outer loop
      vertex -9.8466 5 50.99
      vertex -12.8451 -4 47.9915
      vertex -12.8451 4 47.9915
    endloop
  endfacet
  facet normal 0.707107 0 -0.707107
    outer loop
      vertex -12.8451 -4 47.9915
      vertex -9.8466 -5 50.99
      vertex -12.8466 -4 47.99
    endloop
  endfacet
  facet normal 0.707107 0 -0.707107
    outer loop
      vertex -9.8466 -5 50.99
      vertex -12.8451 -4 47.9915
      vertex -9.8466 5 50.99
    endloop
  endfacet
  facet normal 0.707107 0 -0.707107
    outer loop
      vertex -9.8466 5 50.99
      vertex -12.8451 4 47.9915
      vertex -12.8466 4 47.99
    endloop
  endfacet
  facet normal -0.707107 0 -0.707107
    outer loop
      vertex -18.8466 -4 47.99
      vertex -21.8466 5 50.99
      vertex -18.8466 4 47.99
    endloop
  endfacet
  facet normal -0.707107 -0 -0.707107
    outer loop
      vertex -21.8466 5 50.99
      vertex -18.8466 -4 47.99
      vertex -21.8466 -5 50.99
    endloop
  endfacet
  facet normal -0 0 1
    outer loop
      vertex -21.8466 5 51
      vertex -9.8466 -5 51
      vertex -9.8466 5 51
    endloop
  endfacet
  facet normal 0 0 1
    outer loop
      vertex -9.8466 -5 51
      vertex -21.8466 5 51
      vertex -21.8466 -5 51
    endloop
  endfacet
  facet normal 0 1 -0
    outer loop
      vertex -9.8466 5 50.99
      vertex -21.8466 5 51
      vertex -9.8466 5 51
    endloop
  endfacet
  facet normal 0 1 0
    outer loop
      vertex -21.8466 5 51
      vertex -9.8466 5 50.99
      vertex -21.8466 5 50.99
    endloop
  endfacet
  facet normal 0 -1 0
    outer loop
      vertex -21.8466 -5 50.99
      vertex -9.8466 -5 51
      vertex -21.8466 -5 51
    endloop
  endfacet
  facet normal 0 -1 -0
    outer loop
      vertex -9.8466 -5 51
      vertex -21.8466 -5 50.99
      vertex -9.8466 -5 50.99
    endloop
  endfacet
  facet normal -1 0 0
    outer loop
      vertex -21.8466 -5 50.99
      vertex -21.8466 5 51
      vertex -21.8466 5 50.99
    endloop
  endfacet
  facet normal -1 -0 0
    outer loop
      vertex -21.8466 5 51
      vertex -21.8466 -5 50.99
      vertex -21.8466 -5 51
    endloop
  endfacet
  facet normal 0 0.948683 -0.316228
    outer loop
      vertex -12.8466 4 47.99
      vertex -21.8466 5 50.99
      vertex -9.8466 5 50.99
    endloop
  endfacet
  facet normal 0 0.948683 -0.316228
    outer loop
      vertex -21.8466 5 50.99
      vertex -12.8466 4 47.99
      vertex -18.8466 4 47.99
    endloop
  endfacet
  facet normal 0 -0.948683 -0.316228
    outer loop
      vertex -18.8466 -4 47.99
      vertex -9.8466 -5 50.99
      vertex -21.8466 -5 50.99
    endloop
  endfacet
  facet normal 0 -0.948683 -0.316228
    outer loop
      vertex -9.8466 -5 50.99
      vertex -18.8466 -4 47.99
      vertex -12.8466 -4 47.99
    endloop
  endfacet
  facet normal 0.984801 0 -0.173687
    outer loop
      vertex 18.8466 -4 47.99
      vertex 11 4 3.5
      vertex 18.8466 4 47.99
    endloop
  endfacet
  facet normal 0.984801 0 -0.173687
    outer loop
      vertex 11 4 3.5
      vertex 18.8466 -4 47.99
      vertex 11 -4 3.5
    endloop
  endfacet
  facet normal -1 0 0
    outer loop
      vertex 5 0 3.5
      vertex 5 4 3.51
      vertex 5 4 3.5
    endloop
  endfacet
  facet normal -1 -0 0
    outer loop
      vertex 5 4 3.51
      vertex 5 0 3.5
      vertex 5 0 3.51
    endloop
  endfacet
  facet normal -1 0 0
    outer loop
      vertex 5 -4 3.5
      vertex 5 0 3.51
      vertex 5 0 3.5
    endloop
  endfacet
  facet normal -1 -0 0
    outer loop
      vertex 5 0 3.51
      vertex 5 -4 3.5
      vertex 5 -4 3.51
    endloop
  endfacet
  facet normal -0.984801 0 0.173687
    outer loop
      vertex 5 0 3.51
      vertex 12.8451 4 47.9915
      vertex 5 4 3.51
    endloop
  endfacet
  facet normal -0.984801 0 0.173687
    outer loop
      vertex 12.8451 -4 47.9915
      vertex 5 0 3.51
      vertex 5 -4 3.51
    endloop
  endfacet
  facet normal -0.984801 0 0.173687
    outer loop
      vertex 5 0 3.51
      vertex 12.8451 -4 47.9915
      vertex 12.8451 4 47.9915
    endloop
  endfacet
  facet normal 0 1 0
    outer loop
      vertex 11 4 3.5
      vertex 12.8466 4 47.99
      vertex 18.8466 4 47.99
    endloop
  endfacet
  facet normal 0 1 0
    outer loop
      vertex 12.8466 4 47.99
      vertex 11 4 3.5
      vertex 5 4 3.51
    endloop
  endfacet
  facet normal 0 1 0
    outer loop
      vertex 5 4 3.51
      vertex 11 4 3.5
      vertex 5 4 3.5
    endloop
  endfacet
  facet normal 0 1 0
    outer loop
      vertex 12.8451 4 47.9915
      vertex 12.8466 4 47.99
      vertex 5 4 3.51
    endloop
  endfacet
  facet normal 0 -1 0
    outer loop
      vertex 5 -4 3.51
      vertex 12.8466 -4 47.99
      vertex 12.8451 -4 47.9915
    endloop
  endfacet
  facet normal 0 -1 0
    outer loop
      vertex 11 -4 3.5
      vertex 12.8466 -4 47.99
      vertex 5 -4 3.51
    endloop
  endfacet
  facet normal 0 -1 0
    outer loop
      vertex 11 -4 3.5
      vertex 5 -4 3.51
      vertex 5 -4 3.5
    endloop
  endfacet
  facet normal 0 -1 -0
    outer loop
      vertex 12.8466 -4 47.99
      vertex 11 -4 3.5
      vertex 18.8466 -4 47.99
    endloop
  endfacet
  facet normal 1 -0 0
    outer loop
      vertex 21.8466 -5 51
      vertex 21.8466 5 50.99
      vertex 21.8466 5 51
    endloop
  endfacet
  facet normal 1 0 0
    outer loop
      vertex 21.8466 5 50.99
      vertex 21.8466 -5 51
      vertex 21.8466 -5 50.99
    endloop
  endfacet
  facet normal 0.707107 0 -0.707107
    outer loop
      vertex 21.8466 5 50.99
      vertex 18.8466 -4 47.99
      vertex 18.8466 4 47.99
    endloop
  endfacet
  facet normal 0.707107 0 -0.707107
    outer loop
      vertex 18.8466 -4 47.99
      vertex 21.8466 5 50.99
      vertex 21.8466 -5 50.99
    endloop
  endfacet
  facet normal -0.707107 0 -0.707107
    outer loop
      vertex 12.8466 -4 47.99
      vertex 9.8466 -5 50.99
      vertex 12.8451 -4 47.9915
    endloop
  endfacet
  facet normal -0.707107 0 -0.707107
    outer loop
      vertex 12.8451 4 47.9915
      vertex 9.8466 5 50.99
      vertex 12.8466 4 47.99
    endloop
  endfacet
  facet normal -0.707107 0 -0.707107
    outer loop
      vertex 12.8451 -4 47.9915
      vertex 9.8466 5 50.99
      vertex 12.8451 4 47.9915
    endloop
  endfacet
  facet normal -0.707107 -0 -0.707107
    outer loop
      vertex 9.8466 5 50.99
      vertex 12.8451 -4 47.9915
      vertex 9.8466 -5 50.99
    endloop
  endfacet
  facet normal -0 0 1
    outer loop
      vertex 9.8466 5 51
      vertex 21.8466 -5 51
      vertex 21.8466 5 51
    endloop
  endfacet
  facet normal 0 0 1
    outer loop
      vertex 21.8466 -5 51
      vertex 9.8466 5 51
      vertex 9.8466 -5 51
    endloop
  endfacet
  facet normal 0 1 -0
    outer loop
      vertex 21.8466 5 50.99
      vertex 9.8466 5 51
      vertex 21.8466 5 51
    endloop
  endfacet
  facet normal 0 1 0
    outer loop
      vertex 9.8466 5 51
      vertex 21.8466 5 50.99
      vertex 9.8466 5 50.99
    endloop
  endfacet
  facet normal 0 -1 0
    outer loop
      vertex 9.8466 -5 50.99
      vertex 21.8466 -5 51
      vertex 9.8466 -5 51
    endloop
  endfacet
  facet normal 0 -1 -0
    outer loop
      vertex 21.8466 -5 51
      vertex 9.8466 -5 50.99
      vertex 21.8466 -5 50.99
    endloop
  endfacet
  facet normal -1 0 0
    outer loop
      vertex 9.8466 -5 50.99
      vertex 9.8466 5 51
      vertex 9.8466 5 50.99
    endloop
  endfacet
  facet normal -1 -0 0
    outer loop
      vertex 9.8466 5 51
      vertex 9.8466 -5 50.99
      vertex 9.8466 -5 51
    endloop
  endfacet
  facet normal 0 0.948683 -0.316228
    outer loop
      vertex 18.8466 4 47.99
      vertex 9.8466 5 50.99
      vertex 21.8466 5 50.99
    endloop
  endfacet
  facet normal 0 0.948683 -0.316228
    outer loop
      vertex 9.8466 5 50.99
      vertex 18.8466 4 47.99
      vertex 12.8466 4 47.99
    endloop
  endfacet
  facet normal 0 -0.948683 -0.316228
    outer loop
      vertex 12.8466 -4 47.99
      vertex 21.8466 -5 50.99
      vertex 9.8466 -5 50.99
    endloop
  endfacet
  facet normal 0 -0.948683 -0.316228
    outer loop
      vertex 21.8466 -5 50.99
      vertex 12.8466 -4 47.99
      vertex 18.8466 -4 47.99
    endloop
  endfacet
  facet normal 1 -0 0
    outer loop
      vertex 17 -17 3.5
      vertex 17 17 0
      vertex 17 17 3.5
    endloop
  endfacet
  facet normal 1 0 0
    outer loop
      vertex 17 17 0
      vertex 17 -17 3.5
      vertex 17 -17 0
    endloop
  endfacet
  facet normal -0 0 -1
    outer loop
      vertex -3.53553 -3.53553 0
      vertex -8.7 -8.11436 0
      vertex -4.33013 -2.5 0
    endloop
  endfacet
  facet normal 0 0 -1
    outer loop
      vertex -5 0 0
      vertex -7.95452 9.08589 0
      vertex -7.9 9.5 0
    endloop
  endfacet
  facet normal 0 0 -1
    outer loop
      vertex -9.08589 -7.95452 0
      vertex -4.33013 -2.5 0
      vertex -8.7 -8.11436 0
    endloop
  endfacet
  facet normal 0 0 -1
    outer loop
      vertex -5 0 0
      vertex -8.11436 8.7 0
      vertex -7.95452 9.08589 0
    endloop
  endfacet
  facet normal -0 0 -1
    outer loop
      vertex -4.33013 -2.5 0
      vertex -9.08589 -7.95452 0
      vertex -4.82963 -1.2941 0
    endloop
  endfacet
  facet normal 0 0 -1
    outer loop
      vertex -5 0 0
      vertex -8.36863 8.36863 0
      vertex -8.11436 8.7 0
    endloop
  endfacet
  facet normal 0 0 -1
    outer loop
      vertex -9.5 -7.9 0
      vertex -4.82963 -1.2941 0
      vertex -9.08589 -7.95452 0
    endloop
  endfacet
  facet normal 0 0 -1
    outer loop
      vertex -5 0 0
      vertex -8.7 8.11436 0
      vertex -8.36863 8.36863 0
    endloop
  endfacet
  facet normal 0 0 -1
    outer loop
      vertex -9.91411 -7.95452 0
      vertex -4.82963 -1.2941 0
      vertex -9.5 -7.9 0
    endloop
  endfacet
  facet normal 0 0 -1
    outer loop
      vertex -5 0 0
      vertex -9.08589 7.95452 0
      vertex -8.7 8.11436 0
    endloop
  endfacet
  facet normal -0 0 -1
    outer loop
      vertex -4.82963 -1.2941 0
      vertex -9.91411 -7.95452 0
      vertex -5 0 0
    endloop
  endfacet
  facet normal 0 0 -1
    outer loop
      vertex -5 0 0
      vertex -9.5 7.9 0
      vertex -9.08589 7.95452 0
    endloop
  endfacet
  facet normal 0 0 -1
    outer loop
      vertex -10.3 -8.11436 0
      vertex -5 0 0
      vertex -9.91411 -7.95452 0
    endloop
  endfacet
  facet normal 0 0 -1
    outer loop
      vertex -5 0 0
      vertex -9.91411 7.95452 0
      vertex -9.5 7.9 0
    endloop
  endfacet
  facet normal 0 0 -1
    outer loop
      vertex -10.3 8.11436 0
      vertex -5 0 0
      vertex -10.3 -8.11436 0
    endloop
  endfacet
  facet normal 0 0 -1
    outer loop
      vertex -5 0 0
      vertex -10.3 8.11436 0
      vertex -9.91411 7.95452 0
    endloop
  endfacet
  facet normal 0 0 -1
    outer loop
      vertex -10.6314 -8.36863 0
      vertex -10.3 8.11436 0
      vertex -10.3 -8.11436 0
    endloop
  endfacet
  facet normal 0 0 -1
    outer loop
      vertex -10.6314 -8.36863 0
      vertex -10.6314 8.36863 0
      vertex -10.3 8.11436 0
    endloop
  endfacet
  facet normal 0 0 -1
    outer loop
      vertex -10.8856 -8.7 0
      vertex -10.6314 8.36863 0
      vertex -10.6314 -8.36863 0
    endloop
  endfacet
  facet normal 0 0 -1
    outer loop
      vertex -10.8856 -8.7 0
      vertex -10.8856 8.7 0
      vertex -10.6314 8.36863 0
    endloop
  endfacet
  facet normal 0 0 -1
    outer loop
      vertex -17 -17 0
      vertex -10.8856 -8.7 0
      vertex -11.0455 -9.08589 0
    endloop
  endfacet
  facet normal -0 0 -1
    outer loop
      vertex -10.8856 -8.7 0
      vertex -17 -17 0
      vertex -10.8856 8.7 0
    endloop
  endfacet
  facet normal 0 0 -1
    outer loop
      vertex -17 -17 0
      vertex -11.0455 -9.08589 0
      vertex -11.1 -9.5 0
    endloop
  endfacet
  facet normal 0 0 -1
    outer loop
      vertex -17 17 0
      vertex -10.8856 8.7 0
      vertex -17 -17 0
    endloop
  endfacet
  facet normal 0 0 -1
    outer loop
      vertex 17 -17 0
      vertex 10.8856 -8.7 0
      vertex 17 17 0
    endloop
  endfacet
  facet normal 0 0 -1
    outer loop
      vertex 17 17 0
      vertex 11.0455 9.08589 0
      vertex 11.1 9.5 0
    endloop
  endfacet
  facet normal 0 0 -1
    outer loop
      vertex 10.8856 8.7 0
      vertex 17 17 0
      vertex 10.8856 -8.7 0
    endloop
  endfacet
  facet normal 0 0 -1
    outer loop
      vertex 17 17 0
      vertex 10.8856 8.7 0
      vertex 11.0455 9.08589 0
    endloop
  endfacet
  facet normal 0 0 -1
    outer loop
      vertex 10.6314 -8.36863 0
      vertex 10.8856 8.7 0
      vertex 10.8856 -8.7 0
    endloop
  endfacet
  facet normal 0 0 -1
    outer loop
      vertex 10.6314 -8.36863 0
      vertex 10.6314 8.36863 0
      vertex 10.8856 8.7 0
    endloop
  endfacet
  facet normal 0 0 -1
    outer loop
      vertex 10.3 -8.11436 0
      vertex 10.6314 8.36863 0
      vertex 10.6314 -8.36863 0
    endloop
  endfacet
  facet normal 0 0 -1
    outer loop
      vertex 10.3 -8.11436 0
      vertex 10.3 8.11436 0
      vertex 10.6314 8.36863 0
    endloop
  endfacet
  facet normal 0 0 -1
    outer loop
      vertex 5 0 0
      vertex 10.3 -8.11436 0
      vertex 9.91411 -7.95452 0
    endloop
  endfacet
  facet normal 0 0 -1
    outer loop
      vertex 10.3 -8.11436 0
      vertex 5 0 0
      vertex 10.3 8.11436 0
    endloop
  endfacet
  facet normal 0 0 -1
    outer loop
      vertex 4.82963 -1.2941 0
      vertex 9.91411 -7.95452 0
      vertex 9.5 -7.9 0
    endloop
  endfacet
  facet normal 0 0 -1
    outer loop
      vertex 10.3 8.11436 0
      vertex 5 0 0
      vertex 9.91411 7.95452 0
    endloop
  endfacet
  facet normal 0 0 -1
    outer loop
      vertex 4.82963 -1.2941 0
      vertex 9.5 -7.9 0
      vertex 9.08589 -7.95452 0
    endloop
  endfacet
  facet normal 0 0 -1
    outer loop
      vertex 4.82963 1.2941 0
      vertex 9.91411 7.95452 0
      vertex 5 0 0
    endloop
  endfacet
  facet normal 0 0 -1
    outer loop
      vertex 4.33013 -2.5 0
      vertex 9.08589 -7.95452 0
      vertex 8.7 -8.11436 0
    endloop
  endfacet
  facet normal 0 0 -1
    outer loop
      vertex 9.91411 7.95452 0
      vertex 4.82963 1.2941 0
      vertex 9.5 7.9 0
    endloop
  endfacet
  facet normal 0 0 -1
    outer loop
      vertex 3.53553 -3.53553 0
      vertex 8.7 -8.11436 0
      vertex 8.36863 -8.36863 0
    endloop
  endfacet
  facet normal -0 0 -1
    outer loop
      vertex 9.5 7.9 0
      vertex 4.82963 1.2941 0
      vertex 9.08589 7.95452 0
    endloop
  endfacet
  facet normal 0 0 -1
    outer loop
      vertex 3.53553 -3.53553 0
      vertex 8.36863 -8.36863 0
      vertex 8.11436 -8.7 0
    endloop
  endfacet
  facet normal 0 0 -1
    outer loop
      vertex 4.33013 2.5 0
      vertex 9.08589 7.95452 0
      vertex 4.82963 1.2941 0
    endloop
  endfacet
  facet normal 0 0 -1
    outer loop
      vertex 2.5 -4.33013 0
      vertex 8.11436 -8.7 0
      vertex 7.95452 -9.08589 0
    endloop
  endfacet
  facet normal -0 0 -1
    outer loop
      vertex 9.08589 7.95452 0
      vertex 4.33013 2.5 0
      vertex 8.7 8.11436 0
    endloop
  endfacet
  facet normal 0 0 -1
    outer loop
      vertex 1.2941 -4.82963 0
      vertex 7.95452 -9.08589 0
      vertex 7.9 -9.5 0
    endloop
  endfacet
  facet normal 0 0 -1
    outer loop
      vertex 3.53553 3.53553 0
      vertex 8.7 8.11436 0
      vertex 4.33013 2.5 0
    endloop
  endfacet
  facet normal 0 0 -1
    outer loop
      vertex 11.0455 -9.08589 0
      vertex 17 -17 0
      vertex 11.1 -9.5 0
    endloop
  endfacet
  facet normal 0 0 -1
    outer loop
      vertex 17 -17 0
      vertex 11.0455 -9.91411 0
      vertex 11.1 -9.5 0
    endloop
  endfacet
  facet normal 0 0 -1
    outer loop
      vertex 17 -17 0
      vertex 10.8856 -10.3 0
      vertex 11.0455 -9.91411 0
    endloop
  endfacet
  facet normal 0 0 -1
    outer loop
      vertex 17 -17 0
      vertex 10.6314 -10.6314 0
      vertex 10.8856 -10.3 0
    endloop
  endfacet
  facet normal 0 0 -1
    outer loop
      vertex 17 -17 0
      vertex 10.3 -10.8856 0
      vertex 10.6314 -10.6314 0
    endloop
  endfacet
  facet normal 0 0 -1
    outer loop
      vertex 17 -17 0
      vertex 9.91411 -11.0455 0
      vertex 10.3 -10.8856 0
    endloop
  endfacet
  facet normal 0 0 -1
    outer loop
      vertex 17 -17 0
      vertex 9.5 -11.1 0
      vertex 9.91411 -11.0455 0
    endloop
  endfacet
  facet normal 0 0 -1
    outer loop
      vertex 17 -17 0
      vertex 9.08589 -11.0455 0
      vertex 9.5 -11.1 0
    endloop
  endfacet
  facet normal 0 0 -1
    outer loop
      vertex 17 -17 0
      vertex 8.7 -10.8856 0
      vertex 9.08589 -11.0455 0
    endloop
  endfacet
  facet normal -0 0 -1
    outer loop
      vertex 8.7 8.11436 0
      vertex 3.53553 3.53553 0
      vertex 8.36863 8.36863 0
    endloop
  endfacet
  facet normal 0 0 -1
    outer loop
      vertex 1.2941 -4.82963 0
      vertex 7.9 -9.5 0
      vertex 7.95452 -9.91411 0
    endloop
  endfacet
  facet normal 0 0 -1
    outer loop
      vertex 9.91411 -7.95452 0
      vertex 4.82963 -1.2941 0
      vertex 5 0 0
    endloop
  endfacet
  facet normal 0 0 -1
    outer loop
      vertex 9.08589 -7.95452 0
      vertex 4.33013 -2.5 0
      vertex 4.82963 -1.2941 0
    endloop
  endfacet
  facet normal 0 0 -1
    outer loop
      vertex 0 -5 0
      vertex 7.95452 -9.91411 0
      vertex 8.11436 -10.3 0
    endloop
  endfacet
  facet normal 0 0 -1
    outer loop
      vertex 8.7 -8.11436 0
      vertex 3.53553 -3.53553 0
      vertex 4.33013 -2.5 0
    endloop
  endfacet
  facet normal 0 0 -1
    outer loop
      vertex 8.11436 -8.7 0
      vertex 2.5 -4.33013 0
      vertex 3.53553 -3.53553 0
    endloop
  endfacet
  facet normal 0 0 -1
    outer loop
      vertex -8.11436 -10.3 0
      vertex 8.11436 -10.3 0
      vertex 8.36863 -10.6314 0
    endloop
  endfacet
  facet normal 0 0 -1
    outer loop
      vertex 7.95452 -9.08589 0
      vertex 1.2941 -4.82963 0
      vertex 2.5 -4.33013 0
    endloop
  endfacet
  facet normal 0 0 -1
    outer loop
      vertex 7.95452 -9.91411 0
      vertex 0 -5 0
      vertex 1.2941 -4.82963 0
    endloop
  endfacet
  facet normal 0 0 -1
    outer loop
      vertex -8.36863 -10.6314 0
      vertex 8.36863 -10.6314 0
      vertex 8.7 -10.8856 0
    endloop
  endfacet
  facet normal 0 0 -1
    outer loop
      vertex -8.7 -10.8856 0
      vertex 8.7 -10.8856 0
      vertex 17 -17 0
    endloop
  endfacet
  facet normal 0 0 -1
    outer loop
      vertex 8.11436 -10.3 0
      vertex -8.11436 -10.3 0
      vertex 0 -5 0
    endloop
  endfacet
  facet normal 0 -0 -1
    outer loop
      vertex -7.95452 -9.91411 0
      vertex 0 -5 0
      vertex -8.11436 -10.3 0
    endloop
  endfacet
  facet normal 0 0 -1
    outer loop
      vertex -8.36863 -8.36863 0
      vertex -3.53553 -3.53553 0
      vertex -8.11436 -8.7 0
    endloop
  endfacet
  facet normal -0 0 -1
    outer loop
      vertex -2.5 -4.33013 0
      vertex -8.11436 -8.7 0
      vertex -3.53553 -3.53553 0
    endloop
  endfacet
  facet normal 0 0 -1
    outer loop
      vertex -8.11436 -8.7 0
      vertex -2.5 -4.33013 0
      vertex -7.95452 -9.08589 0
    endloop
  endfacet
  facet normal -0 0 -1
    outer loop
      vertex -1.2941 -4.82963 0
      vertex -7.95452 -9.08589 0
      vertex -2.5 -4.33013 0
    endloop
  endfacet
  facet normal -0 0 -1
    outer loop
      vertex 0 -5 0
      vertex -7.95452 -9.91411 0
      vertex -1.2941 -4.82963 0
    endloop
  endfacet
  facet normal 0 0 -1
    outer loop
      vertex -7.95452 -9.08589 0
      vertex -1.2941 -4.82963 0
      vertex -7.9 -9.5 0
    endloop
  endfacet
  facet normal 0 -0 -1
    outer loop
      vertex -7.9 -9.5 0
      vertex -1.2941 -4.82963 0
      vertex -7.95452 -9.91411 0
    endloop
  endfacet
  facet normal 0 0 -1
    outer loop
      vertex 8.36863 -10.6314 0
      vertex -8.36863 -10.6314 0
      vertex -8.11436 -10.3 0
    endloop
  endfacet
  facet normal 0 0 -1
    outer loop
      vertex 8.7 -10.8856 0
      vertex -8.7 -10.8856 0
      vertex -8.36863 -10.6314 0
    endloop
  endfacet
  facet normal 0 0 -1
    outer loop
      vertex -17 -17 0
      vertex -8.7 -10.8856 0
      vertex 17 -17 0
    endloop
  endfacet
  facet normal 0 0 -1
    outer loop
      vertex -8.7 -10.8856 0
      vertex -17 -17 0
      vertex -9.08589 -11.0455 0
    endloop
  endfacet
  facet normal 0 0 -1
    outer loop
      vertex -9.08589 -11.0455 0
      vertex -17 -17 0
      vertex -9.5 -11.1 0
    endloop
  endfacet
  facet normal 0 0 -1
    outer loop
      vertex -10.8856 8.7 0
      vertex -17 17 0
      vertex -11.0455 9.08589 0
    endloop
  endfacet
  facet normal -0 0 -1
    outer loop
      vertex -11.0455 -9.91411 0
      vertex -17 -17 0
      vertex -11.1 -9.5 0
    endloop
  endfacet
  facet normal -0 0 -1
    outer loop
      vertex -10.8856 -10.3 0
      vertex -17 -17 0
      vertex -11.0455 -9.91411 0
    endloop
  endfacet
  facet normal -0 0 -1
    outer loop
      vertex -10.6314 -10.6314 0
      vertex -17 -17 0
      vertex -10.8856 -10.3 0
    endloop
  endfacet
  facet normal -0 0 -1
    outer loop
      vertex -10.3 -10.8856 0
      vertex -17 -17 0
      vertex -10.6314 -10.6314 0
    endloop
  endfacet
  facet normal -0 0 -1
    outer loop
      vertex -9.91411 -11.0455 0
      vertex -17 -17 0
      vertex -10.3 -10.8856 0
    endloop
  endfacet
  facet normal -0 0 -1
    outer loop
      vertex -9.5 -11.1 0
      vertex -17 -17 0
      vertex -9.91411 -11.0455 0
    endloop
  endfacet
  facet normal 0 0 -1
    outer loop
      vertex 10.8856 -8.7 0
      vertex 17 -17 0
      vertex 11.0455 -9.08589 0
    endloop
  endfacet
  facet normal 0 0 -1
    outer loop
      vertex 11.0455 9.91411 0
      vertex 17 17 0
      vertex 11.1 9.5 0
    endloop
  endfacet
  facet normal 0 0 -1
    outer loop
      vertex 10.8856 10.3 0
      vertex 17 17 0
      vertex 11.0455 9.91411 0
    endloop
  endfacet
  facet normal 0 0 -1
    outer loop
      vertex 10.6314 10.6314 0
      vertex 17 17 0
      vertex 10.8856 10.3 0
    endloop
  endfacet
  facet normal 0 0 -1
    outer loop
      vertex 10.3 10.8856 0
      vertex 17 17 0
      vertex 10.6314 10.6314 0
    endloop
  endfacet
  facet normal 0 0 -1
    outer loop
      vertex 9.91411 11.0455 0
      vertex 17 17 0
      vertex 10.3 10.8856 0
    endloop
  endfacet
  facet normal 0 0 -1
    outer loop
      vertex 9.5 11.1 0
      vertex 17 17 0
      vertex 9.91411 11.0455 0
    endloop
  endfacet
  facet normal 0 0 -1
    outer loop
      vertex 9.08589 11.0455 0
      vertex 17 17 0
      vertex 9.5 11.1 0
    endloop
  endfacet
  facet normal 0 0 -1
    outer loop
      vertex 8.7 10.8856 0
      vertex 17 17 0
      vertex 9.08589 11.0455 0
    endloop
  endfacet
  facet normal -0 0 -1
    outer loop
      vertex 8.36863 8.36863 0
      vertex 3.53553 3.53553 0
      vertex 8.11436 8.7 0
    endloop
  endfacet
  facet normal 0 0 -1
    outer loop
      vertex 2.5 4.33013 0
      vertex 8.11436 8.7 0
      vertex 3.53553 3.53553 0
    endloop
  endfacet
  facet normal -0 0 -1
    outer loop
      vertex 8.11436 8.7 0
      vertex 2.5 4.33013 0
      vertex 7.95452 9.08589 0
    endloop
  endfacet
  facet normal 0 0 -1
    outer loop
      vertex 1.2941 4.82963 0
      vertex 7.95452 9.08589 0
      vertex 2.5 4.33013 0
    endloop
  endfacet
  facet normal -0 0 -1
    outer loop
      vertex 7.95452 9.08589 0
      vertex 1.2941 4.82963 0
      vertex 7.9 9.5 0
    endloop
  endfacet
  facet normal -0 0 -1
    outer loop
      vertex 7.9 9.5 0
      vertex 1.2941 4.82963 0
      vertex 7.95452 9.91411 0
    endloop
  endfacet
  facet normal 0 0 -1
    outer loop
      vertex 0 5 0
      vertex 7.95452 9.91411 0
      vertex 1.2941 4.82963 0
    endloop
  endfacet
  facet normal -0 0 -1
    outer loop
      vertex 7.95452 9.91411 0
      vertex 0 5 0
      vertex 8.11436 10.3 0
    endloop
  endfacet
  facet normal 0 0 -1
    outer loop
      vertex -8.11436 10.3 0
      vertex 8.11436 10.3 0
      vertex 0 5 0
    endloop
  endfacet
  facet normal 0 0 -1
    outer loop
      vertex 8.11436 10.3 0
      vertex -8.11436 10.3 0
      vertex 8.36863 10.6314 0
    endloop
  endfacet
  facet normal 0 0 -1
    outer loop
      vertex -8.36863 10.6314 0
      vertex 8.36863 10.6314 0
      vertex -8.11436 10.3 0
    endloop
  endfacet
  facet normal 0 0 -1
    outer loop
      vertex -7.95452 9.91411 0
      vertex 0 5 0
      vertex -1.2941 4.82963 0
    endloop
  endfacet
  facet normal 0 0 -1
    outer loop
      vertex -7.9 9.5 0
      vertex -1.2941 4.82963 0
      vertex -2.5 4.33013 0
    endloop
  endfacet
  facet normal 0 0 -1
    outer loop
      vertex -8.7 -8.11436 0
      vertex -3.53553 -3.53553 0
      vertex -8.36863 -8.36863 0
    endloop
  endfacet
  facet normal 0 0 -1
    outer loop
      vertex -5 0 0
      vertex -7.9 9.5 0
      vertex -4.82963 1.2941 0
    endloop
  endfacet
  facet normal 0 0 -1
    outer loop
      vertex -7.9 9.5 0
      vertex -4.33013 2.5 0
      vertex -4.82963 1.2941 0
    endloop
  endfacet
  facet normal 0 0 -1
    outer loop
      vertex -7.9 9.5 0
      vertex -3.53553 3.53553 0
      vertex -4.33013 2.5 0
    endloop
  endfacet
  facet normal 0 0 -1
    outer loop
      vertex -7.9 9.5 0
      vertex -2.5 4.33013 0
      vertex -3.53553 3.53553 0
    endloop
  endfacet
  facet normal 0 0 -1
    outer loop
      vertex -1.2941 4.82963 0
      vertex -7.9 9.5 0
      vertex -7.95452 9.91411 0
    endloop
  endfacet
  facet normal 0 0 -1
    outer loop
      vertex 0 5 0
      vertex -7.95452 9.91411 0
      vertex -8.11436 10.3 0
    endloop
  endfacet
  facet normal 0 0 -1
    outer loop
      vertex 8.36863 10.6314 0
      vertex -8.36863 10.6314 0
      vertex 8.7 10.8856 0
    endloop
  endfacet
  facet normal 0 0 -1
    outer loop
      vertex -8.7 10.8856 0
      vertex 8.7 10.8856 0
      vertex -8.36863 10.6314 0
    endloop
  endfacet
  facet normal 0 0 -1
    outer loop
      vertex 8.7 10.8856 0
      vertex -8.7 10.8856 0
      vertex 17 17 0
    endloop
  endfacet
  facet normal 0 0 -1
    outer loop
      vertex -17 17 0
      vertex -8.7 10.8856 0
      vertex -9.08589 11.0455 0
    endloop
  endfacet
  facet normal 0 0 -1
    outer loop
      vertex -17 17 0
      vertex -9.08589 11.0455 0
      vertex -9.5 11.1 0
    endloop
  endfacet
  facet normal 0 0 -1
    outer loop
      vertex -17 17 0
      vertex -9.5 11.1 0
      vertex -9.91411 11.0455 0
    endloop
  endfacet
  facet normal 0 0 -1
    outer loop
      vertex -11.0455 9.08589 0
      vertex -17 17 0
      vertex -11.1 9.5 0
    endloop
  endfacet
  facet normal 0 0 -1
    outer loop
      vertex -8.7 10.8856 0
      vertex -17 17 0
      vertex 17 17 0
    endloop
  endfacet
  facet normal 0 0 -1
    outer loop
      vertex -10.3 10.8856 0
      vertex -17 17 0
      vertex -9.91411 11.0455 0
    endloop
  endfacet
  facet normal 0 0 -1
    outer loop
      vertex -10.6314 10.6314 0
      vertex -17 17 0
      vertex -10.3 10.8856 0
    endloop
  endfacet
  facet normal 0 0 -1
    outer loop
      vertex -10.8856 10.3 0
      vertex -17 17 0
      vertex -10.6314 10.6314 0
    endloop
  endfacet
  facet normal 0 0 -1
    outer loop
      vertex -11.0455 9.91411 0
      vertex -17 17 0
      vertex -10.8856 10.3 0
    endloop
  endfacet
  facet normal 0 0 -1
    outer loop
      vertex -11.1 9.5 0
      vertex -17 17 0
      vertex -11.0455 9.91411 0
    endloop
  endfacet
  facet normal -1 0 0
    outer loop
      vertex -17 -17 0
      vertex -17 17 3.5
      vertex -17 17 0
    endloop
  endfacet
  facet normal -1 -0 0
    outer loop
      vertex -17 17 3.5
      vertex -17 -17 0
      vertex -17 -17 3.5
    endloop
  endfacet
  facet normal 0 -1 0
    outer loop
      vertex -17 -17 0
      vertex 17 -17 3.5
      vertex -17 -17 3.5
    endloop
  endfacet
  facet normal 0 -1 -0
    outer loop
      vertex 17 -17 3.5
      vertex -17 -17 0
      vertex 17 -17 0
    endloop
  endfacet
  facet normal 0 1 -0
    outer loop
      vertex 17 17 0
      vertex -17 17 3.5
      vertex 17 17 3.5
    endloop
  endfacet
  facet normal 0 1 0
    outer loop
      vertex -17 17 3.5
      vertex 17 17 0
      vertex -17 17 0
    endloop
  endfacet
  facet normal -0.92388 0.382682 0
    outer loop
      vertex -8.11436 8.7 0
      vertex -7.95452 9.08589 3.5
      vertex -7.95452 9.08589 0
    endloop
  endfacet
  facet normal -0.92388 0.382682 0
    outer loop
      vertex -7.95452 9.08589 3.5
      vertex -8.11436 8.7 0
      vertex -8.11436 8.7 3.5
    endloop
  endfacet
  facet normal -0.991444 0.130529 0
    outer loop
      vertex -7.95452 9.08589 0
      vertex -7.9 9.5 3.5
      vertex -7.9 9.5 0
    endloop
  endfacet
  facet normal -0.991444 0.130529 0
    outer loop
      vertex -7.9 9.5 3.5
      vertex -7.95452 9.08589 0
      vertex -7.95452 9.08589 3.5
    endloop
  endfacet
  facet normal -0.793352 0.608763 0
    outer loop
      vertex -8.36863 8.36863 0
      vertex -8.11436 8.7 3.5
      vertex -8.11436 8.7 0
    endloop
  endfacet
  facet normal -0.793352 0.608763 0
    outer loop
      vertex -8.11436 8.7 3.5
      vertex -8.36863 8.36863 0
      vertex -8.36863 8.36863 3.5
    endloop
  endfacet
  facet normal 0.991451 0.130482 0
    outer loop
      vertex -11.0455 9.08589 3.5
      vertex -11.1 9.5 0
      vertex -11.1 9.5 3.5
    endloop
  endfacet
  facet normal 0.991451 0.130482 0
    outer loop
      vertex -11.1 9.5 0
      vertex -11.0455 9.08589 3.5
      vertex -11.0455 9.08589 0
    endloop
  endfacet
  facet normal -0.382804 -0.923829 0
    outer loop
      vertex -9.08589 11.0455 0
      vertex -8.7 10.8856 3.5
      vertex -9.08589 11.0455 3.5
    endloop
  endfacet
  facet normal -0.382804 -0.923829 -0
    outer loop
      vertex -8.7 10.8856 3.5
      vertex -9.08589 11.0455 0
      vertex -8.7 10.8856 0
    endloop
  endfacet
  facet normal -0.608763 0.793352 0
    outer loop
      vertex -8.36863 8.36863 0
      vertex -8.7 8.11436 3.5
      vertex -8.36863 8.36863 3.5
    endloop
  endfacet
  facet normal -0.608763 0.793352 0
    outer loop
      vertex -8.7 8.11436 3.5
      vertex -8.36863 8.36863 0
      vertex -8.7 8.11436 0
    endloop
  endfacet
  facet normal 0.608728 0.793379 -0
    outer loop
      vertex -10.3 8.11436 0
      vertex -10.6314 8.36863 3.5
      vertex -10.3 8.11436 3.5
    endloop
  endfacet
  facet normal 0.608728 0.793379 0
    outer loop
      vertex -10.6314 8.36863 3.5
      vertex -10.3 8.11436 0
      vertex -10.6314 8.36863 0
    endloop
  endfacet
  facet normal 0.923829 -0.382804 0
    outer loop
      vertex -11.0455 9.91411 3.5
      vertex -10.8856 10.3 0
      vertex -10.8856 10.3 3.5
    endloop
  endfacet
  facet normal 0.923829 -0.382804 0
    outer loop
      vertex -10.8856 10.3 0
      vertex -11.0455 9.91411 3.5
      vertex -11.0455 9.91411 0
    endloop
  endfacet
  facet normal -0.130482 -0.991451 0
    outer loop
      vertex -9.5 11.1 0
      vertex -9.08589 11.0455 3.5
      vertex -9.5 11.1 3.5
    endloop
  endfacet
  facet normal -0.130482 -0.991451 -0
    outer loop
      vertex -9.08589 11.0455 3.5
      vertex -9.5 11.1 0
      vertex -9.08589 11.0455 0
    endloop
  endfacet
  facet normal 0.130482 -0.991451 0
    outer loop
      vertex -9.91411 11.0455 0
      vertex -9.5 11.1 3.5
      vertex -9.91411 11.0455 3.5
    endloop
  endfacet
  facet normal 0.130482 -0.991451 0
    outer loop
      vertex -9.5 11.1 3.5
      vertex -9.91411 11.0455 0
      vertex -9.5 11.1 0
    endloop
  endfacet
  facet normal -0.991444 -0.130529 0
    outer loop
      vertex -7.9 9.5 0
      vertex -7.95452 9.91411 3.5
      vertex -7.95452 9.91411 0
    endloop
  endfacet
  facet normal -0.991444 -0.130529 0
    outer loop
      vertex -7.95452 9.91411 3.5
      vertex -7.9 9.5 0
      vertex -7.9 9.5 3.5
    endloop
  endfacet
  facet normal -0.382682 0.92388 0
    outer loop
      vertex -8.7 8.11436 0
      vertex -9.08589 7.95452 3.5
      vertex -8.7 8.11436 3.5
    endloop
  endfacet
  facet normal -0.382682 0.92388 0
    outer loop
      vertex -9.08589 7.95452 3.5
      vertex -8.7 8.11436 0
      vertex -9.08589 7.95452 0
    endloop
  endfacet
  facet normal -0.793379 -0.608728 0
    outer loop
      vertex -8.11436 10.3 0
      vertex -8.36863 10.6314 3.5
      vertex -8.36863 10.6314 0
    endloop
  endfacet
  facet normal -0.793379 -0.608728 0
    outer loop
      vertex -8.36863 10.6314 3.5
      vertex -8.11436 10.3 0
      vertex -8.11436 10.3 3.5
    endloop
  endfacet
  facet normal 0.793433 0.608657 0
    outer loop
      vertex -10.6314 8.36863 3.5
      vertex -10.8856 8.7 0
      vertex -10.8856 8.7 3.5
    endloop
  endfacet
  facet normal 0.793433 0.608657 0
    outer loop
      vertex -10.8856 8.7 0
      vertex -10.6314 8.36863 3.5
      vertex -10.6314 8.36863 0
    endloop
  endfacet
  facet normal -0.92388 -0.382682 0
    outer loop
      vertex -7.95452 9.91411 0
      vertex -8.11436 10.3 3.5
      vertex -8.11436 10.3 0
    endloop
  endfacet
  facet normal -0.92388 -0.382682 0
    outer loop
      vertex -8.11436 10.3 3.5
      vertex -7.95452 9.91411 0
      vertex -7.95452 9.91411 3.5
    endloop
  endfacet
  facet normal -0.130529 0.991444 0
    outer loop
      vertex -9.08589 7.95452 0
      vertex -9.5 7.9 3.5
      vertex -9.08589 7.95452 3.5
    endloop
  endfacet
  facet normal -0.130529 0.991444 0
    outer loop
      vertex -9.5 7.9 3.5
      vertex -9.08589 7.95452 0
      vertex -9.5 7.9 0
    endloop
  endfacet
  facet normal 0.991451 -0.130482 0
    outer loop
      vertex -11.1 9.5 3.5
      vertex -11.0455 9.91411 0
      vertex -11.0455 9.91411 3.5
    endloop
  endfacet
  facet normal 0.991451 -0.130482 0
    outer loop
      vertex -11.0455 9.91411 0
      vertex -11.1 9.5 3.5
      vertex -11.1 9.5 0
    endloop
  endfacet
  facet normal 0.382682 0.92388 -0
    outer loop
      vertex -9.91411 7.95452 0
      vertex -10.3 8.11436 3.5
      vertex -9.91411 7.95452 3.5
    endloop
  endfacet
  facet normal 0.382682 0.92388 0
    outer loop
      vertex -10.3 8.11436 3.5
      vertex -9.91411 7.95452 0
      vertex -10.3 8.11436 0
    endloop
  endfacet
  facet normal 0.608623 -0.79346 0
    outer loop
      vertex -10.6314 10.6314 0
      vertex -10.3 10.8856 3.5
      vertex -10.6314 10.6314 3.5
    endloop
  endfacet
  facet normal 0.608623 -0.79346 0
    outer loop
      vertex -10.3 10.8856 3.5
      vertex -10.6314 10.6314 0
      vertex -10.3 10.8856 0
    endloop
  endfacet
  facet normal -0.608657 -0.793433 0
    outer loop
      vertex -8.7 10.8856 0
      vertex -8.36863 10.6314 3.5
      vertex -8.7 10.8856 3.5
    endloop
  endfacet
  facet normal -0.608657 -0.793433 -0
    outer loop
      vertex -8.36863 10.6314 3.5
      vertex -8.7 10.8856 0
      vertex -8.36863 10.6314 0
    endloop
  endfacet
  facet normal 0.79346 -0.608623 0
    outer loop
      vertex -10.8856 10.3 3.5
      vertex -10.6314 10.6314 0
      vertex -10.6314 10.6314 3.5
    endloop
  endfacet
  facet normal 0.79346 -0.608623 0
    outer loop
      vertex -10.6314 10.6314 0
      vertex -10.8856 10.3 3.5
      vertex -10.8856 10.3 0
    endloop
  endfacet
  facet normal 0.130529 0.991444 -0
    outer loop
      vertex -9.5 7.9 0
      vertex -9.91411 7.95452 3.5
      vertex -9.5 7.9 3.5
    endloop
  endfacet
  facet normal 0.130529 0.991444 0
    outer loop
      vertex -9.91411 7.95452 3.5
      vertex -9.5 7.9 0
      vertex -9.91411 7.95452 0
    endloop
  endfacet
  facet normal 0.382804 -0.923829 0
    outer loop
      vertex -10.3 10.8856 0
      vertex -9.91411 11.0455 3.5
      vertex -10.3 10.8856 3.5
    endloop
  endfacet
  facet normal 0.382804 -0.923829 0
    outer loop
      vertex -9.91411 11.0455 3.5
      vertex -10.3 10.8856 0
      vertex -9.91411 11.0455 0
    endloop
  endfacet
  facet normal 0.923829 0.382804 0
    outer loop
      vertex -10.8856 8.7 3.5
      vertex -11.0455 9.08589 0
      vertex -11.0455 9.08589 3.5
    endloop
  endfacet
  facet normal 0.923829 0.382804 0
    outer loop
      vertex -11.0455 9.08589 0
      vertex -10.8856 8.7 3.5
      vertex -10.8856 8.7 0
    endloop
  endfacet
  facet normal 0.923829 -0.382804 0
    outer loop
      vertex -11.0455 -9.08589 3.5
      vertex -10.8856 -8.7 0
      vertex -10.8856 -8.7 3.5
    endloop
  endfacet
  facet normal 0.923829 -0.382804 0
    outer loop
      vertex -10.8856 -8.7 0
      vertex -11.0455 -9.08589 3.5
      vertex -11.0455 -9.08589 0
    endloop
  endfacet
  facet normal -0.92388 0.382682 0
    outer loop
      vertex -8.11436 -10.3 0
      vertex -7.95452 -9.91411 3.5
      vertex -7.95452 -9.91411 0
    endloop
  endfacet
  facet normal -0.92388 0.382682 0
    outer loop
      vertex -7.95452 -9.91411 3.5
      vertex -8.11436 -10.3 0
      vertex -8.11436 -10.3 3.5
    endloop
  endfacet
  facet normal -0.991444 0.130529 0
    outer loop
      vertex -7.95452 -9.91411 0
      vertex -7.9 -9.5 3.5
      vertex -7.9 -9.5 0
    endloop
  endfacet
  facet normal -0.991444 0.130529 0
    outer loop
      vertex -7.9 -9.5 3.5
      vertex -7.95452 -9.91411 0
      vertex -7.95452 -9.91411 3.5
    endloop
  endfacet
  facet normal -0.793379 0.608728 0
    outer loop
      vertex -8.36863 -10.6314 0
      vertex -8.11436 -10.3 3.5
      vertex -8.11436 -10.3 0
    endloop
  endfacet
  facet normal -0.793379 0.608728 0
    outer loop
      vertex -8.11436 -10.3 3.5
      vertex -8.36863 -10.6314 0
      vertex -8.36863 -10.6314 3.5
    endloop
  endfacet
  facet normal -0.608657 0.793433 0
    outer loop
      vertex -8.36863 -10.6314 0
      vertex -8.7 -10.8856 3.5
      vertex -8.36863 -10.6314 3.5
    endloop
  endfacet
  facet normal -0.608657 0.793433 0
    outer loop
      vertex -8.7 -10.8856 3.5
      vertex -8.36863 -10.6314 0
      vertex -8.7 -10.8856 0
    endloop
  endfacet
  facet normal 0.382804 0.923829 -0
    outer loop
      vertex -9.91411 -11.0455 0
      vertex -10.3 -10.8856 3.5
      vertex -9.91411 -11.0455 3.5
    endloop
  endfacet
  facet normal 0.382804 0.923829 0
    outer loop
      vertex -10.3 -10.8856 3.5
      vertex -9.91411 -11.0455 0
      vertex -10.3 -10.8856 0
    endloop
  endfacet
  facet normal 0.79346 0.608623 0
    outer loop
      vertex -10.6314 -10.6314 3.5
      vertex -10.8856 -10.3 0
      vertex -10.8856 -10.3 3.5
    endloop
  endfacet
  facet normal 0.79346 0.608623 0
    outer loop
      vertex -10.8856 -10.3 0
      vertex -10.6314 -10.6314 3.5
      vertex -10.6314 -10.6314 0
    endloop
  endfacet
  facet normal 0.991451 -0.130482 0
    outer loop
      vertex -11.1 -9.5 3.5
      vertex -11.0455 -9.08589 0
      vertex -11.0455 -9.08589 3.5
    endloop
  endfacet
  facet normal 0.991451 -0.130482 0
    outer loop
      vertex -11.0455 -9.08589 0
      vertex -11.1 -9.5 3.5
      vertex -11.1 -9.5 0
    endloop
  endfacet
  facet normal -0.793352 -0.608763 0
    outer loop
      vertex -8.11436 -8.7 0
      vertex -8.36863 -8.36863 3.5
      vertex -8.36863 -8.36863 0
    endloop
  endfacet
  facet normal -0.793352 -0.608763 0
    outer loop
      vertex -8.36863 -8.36863 3.5
      vertex -8.11436 -8.7 0
      vertex -8.11436 -8.7 3.5
    endloop
  endfacet
  facet normal -0.92388 -0.382682 0
    outer loop
      vertex -7.95452 -9.08589 0
      vertex -8.11436 -8.7 3.5
      vertex -8.11436 -8.7 0
    endloop
  endfacet
  facet normal -0.92388 -0.382682 0
    outer loop
      vertex -8.11436 -8.7 3.5
      vertex -7.95452 -9.08589 0
      vertex -7.95452 -9.08589 3.5
    endloop
  endfacet
  facet normal -0.130529 -0.991444 0
    outer loop
      vertex -9.5 -7.9 0
      vertex -9.08589 -7.95452 3.5
      vertex -9.5 -7.9 3.5
    endloop
  endfacet
  facet normal -0.130529 -0.991444 -0
    outer loop
      vertex -9.08589 -7.95452 3.5
      vertex -9.5 -7.9 0
      vertex -9.08589 -7.95452 0
    endloop
  endfacet
  facet normal 0.793433 -0.608657 0
    outer loop
      vertex -10.8856 -8.7 3.5
      vertex -10.6314 -8.36863 0
      vertex -10.6314 -8.36863 3.5
    endloop
  endfacet
  facet normal 0.793433 -0.608657 0
    outer loop
      vertex -10.6314 -8.36863 0
      vertex -10.8856 -8.7 3.5
      vertex -10.8856 -8.7 0
    endloop
  endfacet
  facet normal -0.991444 -0.130529 0
    outer loop
      vertex -7.9 -9.5 0
      vertex -7.95452 -9.08589 3.5
      vertex -7.95452 -9.08589 0
    endloop
  endfacet
  facet normal -0.991444 -0.130529 0
    outer loop
      vertex -7.95452 -9.08589 3.5
      vertex -7.9 -9.5 0
      vertex -7.9 -9.5 3.5
    endloop
  endfacet
  facet normal -0.382804 0.923829 0
    outer loop
      vertex -8.7 -10.8856 0
      vertex -9.08589 -11.0455 3.5
      vertex -8.7 -10.8856 3.5
    endloop
  endfacet
  facet normal -0.382804 0.923829 0
    outer loop
      vertex -9.08589 -11.0455 3.5
      vertex -8.7 -10.8856 0
      vertex -9.08589 -11.0455 0
    endloop
  endfacet
  facet normal 0.608728 -0.793379 0
    outer loop
      vertex -10.6314 -8.36863 0
      vertex -10.3 -8.11436 3.5
      vertex -10.6314 -8.36863 3.5
    endloop
  endfacet
  facet normal 0.608728 -0.793379 0
    outer loop
      vertex -10.3 -8.11436 3.5
      vertex -10.6314 -8.36863 0
      vertex -10.3 -8.11436 0
    endloop
  endfacet
  facet normal 0.608623 0.79346 -0
    outer loop
      vertex -10.3 -10.8856 0
      vertex -10.6314 -10.6314 3.5
      vertex -10.3 -10.8856 3.5
    endloop
  endfacet
  facet normal 0.608623 0.79346 0
    outer loop
      vertex -10.6314 -10.6314 3.5
      vertex -10.3 -10.8856 0
      vertex -10.6314 -10.6314 0
    endloop
  endfacet
  facet normal -0.382682 -0.92388 0
    outer loop
      vertex -9.08589 -7.95452 0
      vertex -8.7 -8.11436 3.5
      vertex -9.08589 -7.95452 3.5
    endloop
  endfacet
  facet normal -0.382682 -0.92388 -0
    outer loop
      vertex -8.7 -8.11436 3.5
      vertex -9.08589 -7.95452 0
      vertex -8.7 -8.11436 0
    endloop
  endfacet
  facet normal -0.608763 -0.793352 0
    outer loop
      vertex -8.7 -8.11436 0
      vertex -8.36863 -8.36863 3.5
      vertex -8.7 -8.11436 3.5
    endloop
  endfacet
  facet normal -0.608763 -0.793352 -0
    outer loop
      vertex -8.36863 -8.36863 3.5
      vertex -8.7 -8.11436 0
      vertex -8.36863 -8.36863 0
    endloop
  endfacet
  facet normal -0.130482 0.991451 0
    outer loop
      vertex -9.08589 -11.0455 0
      vertex -9.5 -11.1 3.5
      vertex -9.08589 -11.0455 3.5
    endloop
  endfacet
  facet normal -0.130482 0.991451 0
    outer loop
      vertex -9.5 -11.1 3.5
      vertex -9.08589 -11.0455 0
      vertex -9.5 -11.1 0
    endloop
  endfacet
  facet normal 0.130482 0.991451 -0
    outer loop
      vertex -9.5 -11.1 0
      vertex -9.91411 -11.0455 3.5
      vertex -9.5 -11.1 3.5
    endloop
  endfacet
  facet normal 0.130482 0.991451 0
    outer loop
      vertex -9.91411 -11.0455 3.5
      vertex -9.5 -11.1 0
      vertex -9.91411 -11.0455 0
    endloop
  endfacet
  facet normal 0.923829 0.382804 0
    outer loop
      vertex -10.8856 -10.3 3.5
      vertex -11.0455 -9.91411 0
      vertex -11.0455 -9.91411 3.5
    endloop
  endfacet
  facet normal 0.923829 0.382804 0
    outer loop
      vertex -11.0455 -9.91411 0
      vertex -10.8856 -10.3 3.5
      vertex -10.8856 -10.3 0
    endloop
  endfacet
  facet normal 0.130529 -0.991444 0
    outer loop
      vertex -9.91411 -7.95452 0
      vertex -9.5 -7.9 3.5
      vertex -9.91411 -7.95452 3.5
    endloop
  endfacet
  facet normal 0.130529 -0.991444 0
    outer loop
      vertex -9.5 -7.9 3.5
      vertex -9.91411 -7.95452 0
      vertex -9.5 -7.9 0
    endloop
  endfacet
  facet normal 0.382682 -0.92388 0
    outer loop
      vertex -10.3 -8.11436 0
      vertex -9.91411 -7.95452 3.5
      vertex -10.3 -8.11436 3.5
    endloop
  endfacet
  facet normal 0.382682 -0.92388 0
    outer loop
      vertex -9.91411 -7.95452 3.5
      vertex -10.3 -8.11436 0
      vertex -9.91411 -7.95452 0
    endloop
  endfacet
  facet normal 0.991451 0.130482 0
    outer loop
      vertex -11.0455 -9.91411 3.5
      vertex -11.1 -9.5 0
      vertex -11.1 -9.5 3.5
    endloop
  endfacet
  facet normal 0.991451 0.130482 0
    outer loop
      vertex -11.1 -9.5 0
      vertex -11.0455 -9.91411 3.5
      vertex -11.0455 -9.91411 0
    endloop
  endfacet
  facet normal -0.923829 0.382804 0
    outer loop
      vertex 10.8856 8.7 0
      vertex 11.0455 9.08589 3.5
      vertex 11.0455 9.08589 0
    endloop
  endfacet
  facet normal -0.923829 0.382804 0
    outer loop
      vertex 11.0455 9.08589 3.5
      vertex 10.8856 8.7 0
      vertex 10.8856 8.7 3.5
    endloop
  endfacet
  facet normal -0.991451 0.130482 0
    outer loop
      vertex 11.0455 9.08589 0
      vertex 11.1 9.5 3.5
      vertex 11.1 9.5 0
    endloop
  endfacet
  facet normal -0.991451 0.130482 0
    outer loop
      vertex 11.1 9.5 3.5
      vertex 11.0455 9.08589 0
      vertex 11.0455 9.08589 3.5
    endloop
  endfacet
  facet normal -0.793433 0.608657 0
    outer loop
      vertex 10.6314 8.36863 0
      vertex 10.8856 8.7 3.5
      vertex 10.8856 8.7 0
    endloop
  endfacet
  facet normal -0.793433 0.608657 0
    outer loop
      vertex 10.8856 8.7 3.5
      vertex 10.6314 8.36863 0
      vertex 10.6314 8.36863 3.5
    endloop
  endfacet
  facet normal 0.991444 0.130529 0
    outer loop
      vertex 7.95452 9.08589 3.5
      vertex 7.9 9.5 0
      vertex 7.9 9.5 3.5
    endloop
  endfacet
  facet normal 0.991444 0.130529 0
    outer loop
      vertex 7.9 9.5 0
      vertex 7.95452 9.08589 3.5
      vertex 7.95452 9.08589 0
    endloop
  endfacet
  facet normal -0.608728 0.793379 0
    outer loop
      vertex 10.6314 8.36863 0
      vertex 10.3 8.11436 3.5
      vertex 10.6314 8.36863 3.5
    endloop
  endfacet
  facet normal -0.608728 0.793379 0
    outer loop
      vertex 10.3 8.11436 3.5
      vertex 10.6314 8.36863 0
      vertex 10.3 8.11436 0
    endloop
  endfacet
  facet normal 0.608763 0.793352 -0
    outer loop
      vertex 8.7 8.11436 0
      vertex 8.36863 8.36863 3.5
      vertex 8.7 8.11436 3.5
    endloop
  endfacet
  facet normal 0.608763 0.793352 0
    outer loop
      vertex 8.36863 8.36863 3.5
      vertex 8.7 8.11436 0
      vertex 8.36863 8.36863 0
    endloop
  endfacet
  facet normal -0.923829 -0.382804 0
    outer loop
      vertex 11.0455 9.91411 0
      vertex 10.8856 10.3 3.5
      vertex 10.8856 10.3 0
    endloop
  endfacet
  facet normal -0.923829 -0.382804 0
    outer loop
      vertex 10.8856 10.3 3.5
      vertex 11.0455 9.91411 0
      vertex 11.0455 9.91411 3.5
    endloop
  endfacet
  facet normal 0.130482 -0.991451 0
    outer loop
      vertex 9.08589 11.0455 0
      vertex 9.5 11.1 3.5
      vertex 9.08589 11.0455 3.5
    endloop
  endfacet
  facet normal 0.130482 -0.991451 0
    outer loop
      vertex 9.5 11.1 3.5
      vertex 9.08589 11.0455 0
      vertex 9.5 11.1 0
    endloop
  endfacet
  facet normal 0.130529 0.991444 -0
    outer loop
      vertex 9.5 7.9 0
      vertex 9.08589 7.95452 3.5
      vertex 9.5 7.9 3.5
    endloop
  endfacet
  facet normal 0.130529 0.991444 0
    outer loop
      vertex 9.08589 7.95452 3.5
      vertex 9.5 7.9 0
      vertex 9.08589 7.95452 0
    endloop
  endfacet
  facet normal 0.793352 0.608763 0
    outer loop
      vertex 8.36863 8.36863 3.5
      vertex 8.11436 8.7 0
      vertex 8.11436 8.7 3.5
    endloop
  endfacet
  facet normal 0.793352 0.608763 0
    outer loop
      vertex 8.11436 8.7 0
      vertex 8.36863 8.36863 3.5
      vertex 8.36863 8.36863 0
    endloop
  endfacet
  facet normal -0.991451 -0.130482 0
    outer loop
      vertex 11.1 9.5 0
      vertex 11.0455 9.91411 3.5
      vertex 11.0455 9.91411 0
    endloop
  endfacet
  facet normal -0.991451 -0.130482 0
    outer loop
      vertex 11.0455 9.91411 3.5
      vertex 11.1 9.5 0
      vertex 11.1 9.5 3.5
    endloop
  endfacet
  facet normal 0.991444 -0.130529 0
    outer loop
      vertex 7.9 9.5 3.5
      vertex 7.95452 9.91411 0
      vertex 7.95452 9.91411 3.5
    endloop
  endfacet
  facet normal 0.991444 -0.130529 0
    outer loop
      vertex 7.95452 9.91411 0
      vertex 7.9 9.5 3.5
      vertex 7.9 9.5 0
    endloop
  endfacet
  facet normal 0.382682 0.92388 -0
    outer loop
      vertex 9.08589 7.95452 0
      vertex 8.7 8.11436 3.5
      vertex 9.08589 7.95452 3.5
    endloop
  endfacet
  facet normal 0.382682 0.92388 0
    outer loop
      vertex 8.7 8.11436 3.5
      vertex 9.08589 7.95452 0
      vertex 8.7 8.11436 0
    endloop
  endfacet
  facet normal -0.79346 -0.608623 0
    outer loop
      vertex 10.8856 10.3 0
      vertex 10.6314 10.6314 3.5
      vertex 10.6314 10.6314 0
    endloop
  endfacet
  facet normal -0.79346 -0.608623 0
    outer loop
      vertex 10.6314 10.6314 3.5
      vertex 10.8856 10.3 0
      vertex 10.8856 10.3 3.5
    endloop
  endfacet
  facet normal -0.130482 -0.991451 0
    outer loop
      vertex 9.5 11.1 0
      vertex 9.91411 11.0455 3.5
      vertex 9.5 11.1 3.5
    endloop
  endfacet
  facet normal -0.130482 -0.991451 -0
    outer loop
      vertex 9.91411 11.0455 3.5
      vertex 9.5 11.1 0
      vertex 9.91411 11.0455 0
    endloop
  endfacet
  facet normal 0.608657 -0.793433 0
    outer loop
      vertex 8.36863 10.6314 0
      vertex 8.7 10.8856 3.5
      vertex 8.36863 10.6314 3.5
    endloop
  endfacet
  facet normal 0.608657 -0.793433 0
    outer loop
      vertex 8.7 10.8856 3.5
      vertex 8.36863 10.6314 0
      vertex 8.7 10.8856 0
    endloop
  endfacet
  facet normal -0.608623 -0.79346 0
    outer loop
      vertex 10.3 10.8856 0
      vertex 10.6314 10.6314 3.5
      vertex 10.3 10.8856 3.5
    endloop
  endfacet
  facet normal -0.608623 -0.79346 -0
    outer loop
      vertex 10.6314 10.6314 3.5
      vertex 10.3 10.8856 0
      vertex 10.6314 10.6314 0
    endloop
  endfacet
  facet normal -0.382804 -0.923829 0
    outer loop
      vertex 9.91411 11.0455 0
      vertex 10.3 10.8856 3.5
      vertex 9.91411 11.0455 3.5
    endloop
  endfacet
  facet normal -0.382804 -0.923829 -0
    outer loop
      vertex 10.3 10.8856 3.5
      vertex 9.91411 11.0455 0
      vertex 10.3 10.8856 0
    endloop
  endfacet
  facet normal -0.130529 0.991444 0
    outer loop
      vertex 9.91411 7.95452 0
      vertex 9.5 7.9 3.5
      vertex 9.91411 7.95452 3.5
    endloop
  endfacet
  facet normal -0.130529 0.991444 0
    outer loop
      vertex 9.5 7.9 3.5
      vertex 9.91411 7.95452 0
      vertex 9.5 7.9 0
    endloop
  endfacet
  facet normal -0.382682 0.92388 0
    outer loop
      vertex 10.3 8.11436 0
      vertex 9.91411 7.95452 3.5
      vertex 10.3 8.11436 3.5
    endloop
  endfacet
  facet normal -0.382682 0.92388 0
    outer loop
      vertex 9.91411 7.95452 3.5
      vertex 10.3 8.11436 0
      vertex 9.91411 7.95452 0
    endloop
  endfacet
  facet normal 0.92388 -0.382682 0
    outer loop
      vertex 7.95452 9.91411 3.5
      vertex 8.11436 10.3 0
      vertex 8.11436 10.3 3.5
    endloop
  endfacet
  facet normal 0.92388 -0.382682 0
    outer loop
      vertex 8.11436 10.3 0
      vertex 7.95452 9.91411 3.5
      vertex 7.95452 9.91411 0
    endloop
  endfacet
  facet normal 0.793379 -0.608728 0
    outer loop
      vertex 8.11436 10.3 3.5
      vertex 8.36863 10.6314 0
      vertex 8.36863 10.6314 3.5
    endloop
  endfacet
  facet normal 0.793379 -0.608728 0
    outer loop
      vertex 8.36863 10.6314 0
      vertex 8.11436 10.3 3.5
      vertex 8.11436 10.3 0
    endloop
  endfacet
  facet normal 0.382804 -0.923829 0
    outer loop
      vertex 8.7 10.8856 0
      vertex 9.08589 11.0455 3.5
      vertex 8.7 10.8856 3.5
    endloop
  endfacet
  facet normal 0.382804 -0.923829 0
    outer loop
      vertex 9.08589 11.0455 3.5
      vertex 8.7 10.8856 0
      vertex 9.08589 11.0455 0
    endloop
  endfacet
  facet normal 0.92388 0.382682 0
    outer loop
      vertex 8.11436 8.7 3.5
      vertex 7.95452 9.08589 0
      vertex 7.95452 9.08589 3.5
    endloop
  endfacet
  facet normal 0.92388 0.382682 0
    outer loop
      vertex 7.95452 9.08589 0
      vertex 8.11436 8.7 3.5
      vertex 8.11436 8.7 0
    endloop
  endfacet
  facet normal -0.382682 -0.92388 0
    outer loop
      vertex 9.91411 -7.95452 0
      vertex 10.3 -8.11436 3.5
      vertex 9.91411 -7.95452 3.5
    endloop
  endfacet
  facet normal -0.382682 -0.92388 -0
    outer loop
      vertex 10.3 -8.11436 3.5
      vertex 9.91411 -7.95452 0
      vertex 10.3 -8.11436 0
    endloop
  endfacet
  facet normal -0.923829 0.382804 0
    outer loop
      vertex 10.8856 -10.3 0
      vertex 11.0455 -9.91411 3.5
      vertex 11.0455 -9.91411 0
    endloop
  endfacet
  facet normal -0.923829 0.382804 0
    outer loop
      vertex 11.0455 -9.91411 3.5
      vertex 10.8856 -10.3 0
      vertex 10.8856 -10.3 3.5
    endloop
  endfacet
  facet normal -0.991451 0.130482 0
    outer loop
      vertex 11.0455 -9.91411 0
      vertex 11.1 -9.5 3.5
      vertex 11.1 -9.5 0
    endloop
  endfacet
  facet normal -0.991451 0.130482 0
    outer loop
      vertex 11.1 -9.5 3.5
      vertex 11.0455 -9.91411 0
      vertex 11.0455 -9.91411 3.5
    endloop
  endfacet
  facet normal -0.79346 0.608623 0
    outer loop
      vertex 10.6314 -10.6314 0
      vertex 10.8856 -10.3 3.5
      vertex 10.8856 -10.3 0
    endloop
  endfacet
  facet normal -0.79346 0.608623 0
    outer loop
      vertex 10.8856 -10.3 3.5
      vertex 10.6314 -10.6314 0
      vertex 10.6314 -10.6314 3.5
    endloop
  endfacet
  facet normal -0.608623 0.79346 0
    outer loop
      vertex 10.6314 -10.6314 0
      vertex 10.3 -10.8856 3.5
      vertex 10.6314 -10.6314 3.5
    endloop
  endfacet
  facet normal -0.608623 0.79346 0
    outer loop
      vertex 10.3 -10.8856 3.5
      vertex 10.6314 -10.6314 0
      vertex 10.3 -10.8856 0
    endloop
  endfacet
  facet normal -0.130529 -0.991444 0
    outer loop
      vertex 9.5 -7.9 0
      vertex 9.91411 -7.95452 3.5
      vertex 9.5 -7.9 3.5
    endloop
  endfacet
  facet normal -0.130529 -0.991444 -0
    outer loop
      vertex 9.91411 -7.95452 3.5
      vertex 9.5 -7.9 0
      vertex 9.91411 -7.95452 0
    endloop
  endfacet
  facet normal 0.130482 0.991451 -0
    outer loop
      vertex 9.5 -11.1 0
      vertex 9.08589 -11.0455 3.5
      vertex 9.5 -11.1 3.5
    endloop
  endfacet
  facet normal 0.130482 0.991451 0
    outer loop
      vertex 9.08589 -11.0455 3.5
      vertex 9.5 -11.1 0
      vertex 9.08589 -11.0455 0
    endloop
  endfacet
  facet normal 0.793379 0.608728 0
    outer loop
      vertex 8.36863 -10.6314 3.5
      vertex 8.11436 -10.3 0
      vertex 8.11436 -10.3 3.5
    endloop
  endfacet
  facet normal 0.793379 0.608728 0
    outer loop
      vertex 8.11436 -10.3 0
      vertex 8.36863 -10.6314 3.5
      vertex 8.36863 -10.6314 0
    endloop
  endfacet
  facet normal -0.608728 -0.793379 0
    outer loop
      vertex 10.3 -8.11436 0
      vertex 10.6314 -8.36863 3.5
      vertex 10.3 -8.11436 3.5
    endloop
  endfacet
  facet normal -0.608728 -0.793379 -0
    outer loop
      vertex 10.6314 -8.36863 3.5
      vertex 10.3 -8.11436 0
      vertex 10.6314 -8.36863 0
    endloop
  endfacet
  facet normal 0.991444 -0.130529 0
    outer loop
      vertex 7.9 -9.5 3.5
      vertex 7.95452 -9.08589 0
      vertex 7.95452 -9.08589 3.5
    endloop
  endfacet
  facet normal 0.991444 -0.130529 0
    outer loop
      vertex 7.95452 -9.08589 0
      vertex 7.9 -9.5 3.5
      vertex 7.9 -9.5 0
    endloop
  endfacet
  facet normal -0.793433 -0.608657 0
    outer loop
      vertex 10.8856 -8.7 0
      vertex 10.6314 -8.36863 3.5
      vertex 10.6314 -8.36863 0
    endloop
  endfacet
  facet normal -0.793433 -0.608657 0
    outer loop
      vertex 10.6314 -8.36863 3.5
      vertex 10.8856 -8.7 0
      vertex 10.8856 -8.7 3.5
    endloop
  endfacet
  facet normal -0.923829 -0.382804 0
    outer loop
      vertex 11.0455 -9.08589 0
      vertex 10.8856 -8.7 3.5
      vertex 10.8856 -8.7 0
    endloop
  endfacet
  facet normal -0.923829 -0.382804 0
    outer loop
      vertex 10.8856 -8.7 3.5
      vertex 11.0455 -9.08589 0
      vertex 11.0455 -9.08589 3.5
    endloop
  endfacet
  facet normal -0.991451 -0.130482 0
    outer loop
      vertex 11.1 -9.5 0
      vertex 11.0455 -9.08589 3.5
      vertex 11.0455 -9.08589 0
    endloop
  endfacet
  facet normal -0.991451 -0.130482 0
    outer loop
      vertex 11.0455 -9.08589 3.5
      vertex 11.1 -9.5 0
      vertex 11.1 -9.5 3.5
    endloop
  endfacet
  facet normal 0.608763 -0.793352 0
    outer loop
      vertex 8.36863 -8.36863 0
      vertex 8.7 -8.11436 3.5
      vertex 8.36863 -8.36863 3.5
    endloop
  endfacet
  facet normal 0.608763 -0.793352 0
    outer loop
      vertex 8.7 -8.11436 3.5
      vertex 8.36863 -8.36863 0
      vertex 8.7 -8.11436 0
    endloop
  endfacet
  facet normal -0.130482 0.991451 0
    outer loop
      vertex 9.91411 -11.0455 0
      vertex 9.5 -11.1 3.5
      vertex 9.91411 -11.0455 3.5
    endloop
  endfacet
  facet normal -0.130482 0.991451 0
    outer loop
      vertex 9.5 -11.1 3.5
      vertex 9.91411 -11.0455 0
      vertex 9.5 -11.1 0
    endloop
  endfacet
  facet normal 0.92388 0.382682 0
    outer loop
      vertex 8.11436 -10.3 3.5
      vertex 7.95452 -9.91411 0
      vertex 7.95452 -9.91411 3.5
    endloop
  endfacet
  facet normal 0.92388 0.382682 0
    outer loop
      vertex 7.95452 -9.91411 0
      vertex 8.11436 -10.3 3.5
      vertex 8.11436 -10.3 0
    endloop
  endfacet
  facet normal 0.130529 -0.991444 0
    outer loop
      vertex 9.08589 -7.95452 0
      vertex 9.5 -7.9 3.5
      vertex 9.08589 -7.95452 3.5
    endloop
  endfacet
  facet normal 0.130529 -0.991444 0
    outer loop
      vertex 9.5 -7.9 3.5
      vertex 9.08589 -7.95452 0
      vertex 9.5 -7.9 0
    endloop
  endfacet
  facet normal 0.382804 0.923829 -0
    outer loop
      vertex 9.08589 -11.0455 0
      vertex 8.7 -10.8856 3.5
      vertex 9.08589 -11.0455 3.5
    endloop
  endfacet
  facet normal 0.382804 0.923829 0
    outer loop
      vertex 8.7 -10.8856 3.5
      vertex 9.08589 -11.0455 0
      vertex 8.7 -10.8856 0
    endloop
  endfacet
  facet normal 0.608657 0.793433 -0
    outer loop
      vertex 8.7 -10.8856 0
      vertex 8.36863 -10.6314 3.5
      vertex 8.7 -10.8856 3.5
    endloop
  endfacet
  facet normal 0.608657 0.793433 0
    outer loop
      vertex 8.36863 -10.6314 3.5
      vertex 8.7 -10.8856 0
      vertex 8.36863 -10.6314 0
    endloop
  endfacet
  facet normal 0.793352 -0.608763 0
    outer loop
      vertex 8.11436 -8.7 3.5
      vertex 8.36863 -8.36863 0
      vertex 8.36863 -8.36863 3.5
    endloop
  endfacet
  facet normal 0.793352 -0.608763 0
    outer loop
      vertex 8.36863 -8.36863 0
      vertex 8.11436 -8.7 3.5
      vertex 8.11436 -8.7 0
    endloop
  endfacet
  facet normal -0.382804 0.923829 0
    outer loop
      vertex 10.3 -10.8856 0
      vertex 9.91411 -11.0455 3.5
      vertex 10.3 -10.8856 3.5
    endloop
  endfacet
  facet normal -0.382804 0.923829 0
    outer loop
      vertex 9.91411 -11.0455 3.5
      vertex 10.3 -10.8856 0
      vertex 9.91411 -11.0455 0
    endloop
  endfacet
  facet normal 0.92388 -0.382682 0
    outer loop
      vertex 7.95452 -9.08589 3.5
      vertex 8.11436 -8.7 0
      vertex 8.11436 -8.7 3.5
    endloop
  endfacet
  facet normal 0.92388 -0.382682 0
    outer loop
      vertex 8.11436 -8.7 0
      vertex 7.95452 -9.08589 3.5
      vertex 7.95452 -9.08589 0
    endloop
  endfacet
  facet normal 0.382682 -0.92388 0
    outer loop
      vertex 8.7 -8.11436 0
      vertex 9.08589 -7.95452 3.5
      vertex 8.7 -8.11436 3.5
    endloop
  endfacet
  facet normal 0.382682 -0.92388 0
    outer loop
      vertex 9.08589 -7.95452 3.5
      vertex 8.7 -8.11436 0
      vertex 9.08589 -7.95452 0
    endloop
  endfacet
  facet normal 0.991444 0.130529 0
    outer loop
      vertex 7.95452 -9.91411 3.5
      vertex 7.9 -9.5 0
      vertex 7.9 -9.5 3.5
    endloop
  endfacet
  facet normal 0.991444 0.130529 0
    outer loop
      vertex 7.9 -9.5 0
      vertex 7.95452 -9.91411 3.5
      vertex 7.95452 -9.91411 0
    endloop
  endfacet
  facet normal -0.92388 0.382683 0
    outer loop
      vertex 4.33013 -2.5 0
      vertex 4.82963 -1.2941 3.5
      vertex 4.82963 -1.2941 0
    endloop
  endfacet
  facet normal -0.92388 0.382683 0
    outer loop
      vertex 4.82963 -1.2941 3.5
      vertex 4.33013 -2.5 0
      vertex 4.33013 -2.5 3.5
    endloop
  endfacet
  facet normal -0.991445 0.130525 0
    outer loop
      vertex 4.82963 -1.2941 0
      vertex 5 0 3.5
      vertex 5 0 0
    endloop
  endfacet
  facet normal -0.991445 0.130525 0
    outer loop
      vertex 5 0 3.5
      vertex 4.82963 -1.2941 0
      vertex 4.82963 -1.2941 3.5
    endloop
  endfacet
  facet normal -0.79335 0.608766 0
    outer loop
      vertex 3.53553 -3.53553 0
      vertex 4.33013 -2.5 3.5
      vertex 4.33013 -2.5 0
    endloop
  endfacet
  facet normal -0.79335 0.608766 0
    outer loop
      vertex 4.33013 -2.5 3.5
      vertex 3.53553 -3.53553 0
      vertex 3.53553 -3.53553 3.5
    endloop
  endfacet
  facet normal 0.79335 0.608766 0
    outer loop
      vertex -3.53553 -3.53553 3.5
      vertex -4.33013 -2.5 0
      vertex -4.33013 -2.5 3.5
    endloop
  endfacet
  facet normal 0.79335 0.608766 0
    outer loop
      vertex -4.33013 -2.5 0
      vertex -3.53553 -3.53553 3.5
      vertex -3.53553 -3.53553 0
    endloop
  endfacet
  facet normal 0.608766 0.79335 -0
    outer loop
      vertex -2.5 -4.33013 0
      vertex -3.53553 -3.53553 3.5
      vertex -2.5 -4.33013 3.5
    endloop
  endfacet
  facet normal 0.608766 0.79335 0
    outer loop
      vertex -3.53553 -3.53553 3.5
      vertex -2.5 -4.33013 0
      vertex -3.53553 -3.53553 0
    endloop
  endfacet
  facet normal -0.382683 -0.92388 0
    outer loop
      vertex 1.2941 4.82963 0
      vertex 2.5 4.33013 3.5
      vertex 1.2941 4.82963 3.5
    endloop
  endfacet
  facet normal -0.382683 -0.92388 -0
    outer loop
      vertex 2.5 4.33013 3.5
      vertex 1.2941 4.82963 0
      vertex 2.5 4.33013 0
    endloop
  endfacet
  facet normal 0.92388 0.382683 0
    outer loop
      vertex -4.33013 -2.5 3.5
      vertex -4.82963 -1.2941 0
      vertex -4.82963 -1.2941 3.5
    endloop
  endfacet
  facet normal 0.92388 0.382683 0
    outer loop
      vertex -4.82963 -1.2941 0
      vertex -4.33013 -2.5 3.5
      vertex -4.33013 -2.5 0
    endloop
  endfacet
  facet normal -0.608766 0.79335 0
    outer loop
      vertex 3.53553 -3.53553 0
      vertex 2.5 -4.33013 3.5
      vertex 3.53553 -3.53553 3.5
    endloop
  endfacet
  facet normal -0.608766 0.79335 0
    outer loop
      vertex 2.5 -4.33013 3.5
      vertex 3.53553 -3.53553 0
      vertex 2.5 -4.33013 0
    endloop
  endfacet
  facet normal -0.130525 0.991445 0
    outer loop
      vertex 1.2941 -4.82963 0
      vertex 0 -5 3.5
      vertex 1.2941 -4.82963 3.5
    endloop
  endfacet
  facet normal -0.130525 0.991445 0
    outer loop
      vertex 0 -5 3.5
      vertex 1.2941 -4.82963 0
      vertex 0 -5 0
    endloop
  endfacet
  facet normal 0.382683 -0.92388 0
    outer loop
      vertex -2.5 4.33013 0
      vertex -1.2941 4.82963 3.5
      vertex -2.5 4.33013 3.5
    endloop
  endfacet
  facet normal 0.382683 -0.92388 0
    outer loop
      vertex -1.2941 4.82963 3.5
      vertex -2.5 4.33013 0
      vertex -1.2941 4.82963 0
    endloop
  endfacet
  facet normal -0.130525 -0.991445 0
    outer loop
      vertex 0 5 0
      vertex 1.2941 4.82963 3.5
      vertex 0 5 3.5
    endloop
  endfacet
  facet normal -0.130525 -0.991445 -0
    outer loop
      vertex 1.2941 4.82963 3.5
      vertex 0 5 0
      vertex 1.2941 4.82963 0
    endloop
  endfacet
  facet normal -0.79335 -0.608766 0
    outer loop
      vertex 4.33013 2.5 0
      vertex 3.53553 3.53553 3.5
      vertex 3.53553 3.53553 0
    endloop
  endfacet
  facet normal -0.79335 -0.608766 0
    outer loop
      vertex 3.53553 3.53553 3.5
      vertex 4.33013 2.5 0
      vertex 4.33013 2.5 3.5
    endloop
  endfacet
  facet normal -0.608766 -0.79335 0
    outer loop
      vertex 2.5 4.33013 0
      vertex 3.53553 3.53553 3.5
      vertex 2.5 4.33013 3.5
    endloop
  endfacet
  facet normal -0.608766 -0.79335 -0
    outer loop
      vertex 3.53553 3.53553 3.5
      vertex 2.5 4.33013 0
      vertex 3.53553 3.53553 0
    endloop
  endfacet
  facet normal 0.79335 -0.608766 0
    outer loop
      vertex -4.33013 2.5 3.5
      vertex -3.53553 3.53553 0
      vertex -3.53553 3.53553 3.5
    endloop
  endfacet
  facet normal 0.79335 -0.608766 0
    outer loop
      vertex -3.53553 3.53553 0
      vertex -4.33013 2.5 3.5
      vertex -4.33013 2.5 0
    endloop
  endfacet
  facet normal -0.991445 -0.130525 0
    outer loop
      vertex 5 0 0
      vertex 4.82963 1.2941 3.5
      vertex 4.82963 1.2941 0
    endloop
  endfacet
  facet normal -0.991445 -0.130525 0
    outer loop
      vertex 4.82963 1.2941 3.5
      vertex 5 0 0
      vertex 5 0 3.5
    endloop
  endfacet
  facet normal 0.991445 0.130525 0
    outer loop
      vertex -4.82963 -1.2941 3.5
      vertex -5 0 0
      vertex -5 0 3.5
    endloop
  endfacet
  facet normal 0.991445 0.130525 0
    outer loop
      vertex -5 0 0
      vertex -4.82963 -1.2941 3.5
      vertex -4.82963 -1.2941 0
    endloop
  endfacet
  facet normal 0.130525 0.991445 -0
    outer loop
      vertex 0 -5 0
      vertex -1.2941 -4.82963 3.5
      vertex 0 -5 3.5
    endloop
  endfacet
  facet normal 0.130525 0.991445 0
    outer loop
      vertex -1.2941 -4.82963 3.5
      vertex 0 -5 0
      vertex -1.2941 -4.82963 0
    endloop
  endfacet
  facet normal -0.92388 -0.382683 0
    outer loop
      vertex 4.82963 1.2941 0
      vertex 4.33013 2.5 3.5
      vertex 4.33013 2.5 0
    endloop
  endfacet
  facet normal -0.92388 -0.382683 0
    outer loop
      vertex 4.33013 2.5 3.5
      vertex 4.82963 1.2941 0
      vertex 4.82963 1.2941 3.5
    endloop
  endfacet
  facet normal 0.382683 0.92388 -0
    outer loop
      vertex -1.2941 -4.82963 0
      vertex -2.5 -4.33013 3.5
      vertex -1.2941 -4.82963 3.5
    endloop
  endfacet
  facet normal 0.382683 0.92388 0
    outer loop
      vertex -2.5 -4.33013 3.5
      vertex -1.2941 -4.82963 0
      vertex -2.5 -4.33013 0
    endloop
  endfacet
  facet normal -0.382683 0.92388 0
    outer loop
      vertex 2.5 -4.33013 0
      vertex 1.2941 -4.82963 3.5
      vertex 2.5 -4.33013 3.5
    endloop
  endfacet
  facet normal -0.382683 0.92388 0
    outer loop
      vertex 1.2941 -4.82963 3.5
      vertex 2.5 -4.33013 0
      vertex 1.2941 -4.82963 0
    endloop
  endfacet
  facet normal 0.130525 -0.991445 0
    outer loop
      vertex -1.2941 4.82963 0
      vertex 0 5 3.5
      vertex -1.2941 4.82963 3.5
    endloop
  endfacet
  facet normal 0.130525 -0.991445 0
    outer loop
      vertex 0 5 3.5
      vertex -1.2941 4.82963 0
      vertex 0 5 0
    endloop
  endfacet
  facet normal 0.92388 -0.382683 0
    outer loop
      vertex -4.82963 1.2941 3.5
      vertex -4.33013 2.5 0
      vertex -4.33013 2.5 3.5
    endloop
  endfacet
  facet normal 0.92388 -0.382683 0
    outer loop
      vertex -4.33013 2.5 0
      vertex -4.82963 1.2941 3.5
      vertex -4.82963 1.2941 0
    endloop
  endfacet
  facet normal 0.991445 -0.130525 0
    outer loop
      vertex -5 0 3.5
      vertex -4.82963 1.2941 0
      vertex -4.82963 1.2941 3.5
    endloop
  endfacet
  facet normal 0.991445 -0.130525 0
    outer loop
      vertex -4.82963 1.2941 0
      vertex -5 0 3.5
      vertex -5 0 0
    endloop
  endfacet
  facet normal 0.608766 -0.79335 0
    outer loop
      vertex -3.53553 3.53553 0
      vertex -2.5 4.33013 3.5
      vertex -3.53553 3.53553 3.5
    endloop
  endfacet
  facet normal 0.608766 -0.79335 0
    outer loop
      vertex -2.5 4.33013 3.5
      vertex -3.53553 3.53553 0
      vertex -2.5 4.33013 0
    endloop
  endfacet
endsolid OpenSCAD_Model
