%TF.GenerationSoftware,KiCad,Pcbnew,9.0.8+dfsg-1*%
%TF.CreationDate,2026-10-02T12:28:01+01:00*%
%TF.ProjectId,NAVCORE-SoOP,4e415643-4f52-4452-9d53-6f4f502e6b69,rev?*%
%TF.SameCoordinates,Original*%
%TF.FileFunction,Legend,Top*%
%TF.FilePolarity,Positive*%
%FSLAX46Y46*%
G04 Gerber Fmt 4.6, Leading zero omitted, Abs format (unit mm)*
G04 Created by KiCad (PCBNEW 9.0.8+dfsg-1) date 2026-10-02 12:28:01*
%MOMM*%
%LPD*%
G01*
G04 APERTURE LIST*
%ADD10C,0.150000*%
%ADD11C,0.254001*%
%ADD12C,0.120000*%
%ADD13C,0.152400*%
%ADD14C,0.100000*%
%ADD15C,0.300000*%
%ADD16C,0.151994*%
%ADD17C,0.200000*%
%ADD18C,0.600000*%
%ADD19C,0.400000*%
G04 APERTURE END LIST*
D10*
X143950000Y-125600000D02*
X143950000Y-128100000D01*
X143950000Y-128100000D02*
X143150000Y-127300000D01*
X143950000Y-128100000D02*
X144750000Y-127300000D01*
X99634524Y-109636009D02*
X99967857Y-109636009D01*
X100110714Y-110159819D02*
X99634524Y-110159819D01*
X99634524Y-110159819D02*
X99634524Y-109159819D01*
X99634524Y-109159819D02*
X100110714Y-109159819D01*
X100491667Y-110112200D02*
X100634524Y-110159819D01*
X100634524Y-110159819D02*
X100872619Y-110159819D01*
X100872619Y-110159819D02*
X100967857Y-110112200D01*
X100967857Y-110112200D02*
X101015476Y-110064580D01*
X101015476Y-110064580D02*
X101063095Y-109969342D01*
X101063095Y-109969342D02*
X101063095Y-109874104D01*
X101063095Y-109874104D02*
X101015476Y-109778866D01*
X101015476Y-109778866D02*
X100967857Y-109731247D01*
X100967857Y-109731247D02*
X100872619Y-109683628D01*
X100872619Y-109683628D02*
X100682143Y-109636009D01*
X100682143Y-109636009D02*
X100586905Y-109588390D01*
X100586905Y-109588390D02*
X100539286Y-109540771D01*
X100539286Y-109540771D02*
X100491667Y-109445533D01*
X100491667Y-109445533D02*
X100491667Y-109350295D01*
X100491667Y-109350295D02*
X100539286Y-109255057D01*
X100539286Y-109255057D02*
X100586905Y-109207438D01*
X100586905Y-109207438D02*
X100682143Y-109159819D01*
X100682143Y-109159819D02*
X100920238Y-109159819D01*
X100920238Y-109159819D02*
X101063095Y-109207438D01*
X102063095Y-110064580D02*
X102015476Y-110112200D01*
X102015476Y-110112200D02*
X101872619Y-110159819D01*
X101872619Y-110159819D02*
X101777381Y-110159819D01*
X101777381Y-110159819D02*
X101634524Y-110112200D01*
X101634524Y-110112200D02*
X101539286Y-110016961D01*
X101539286Y-110016961D02*
X101491667Y-109921723D01*
X101491667Y-109921723D02*
X101444048Y-109731247D01*
X101444048Y-109731247D02*
X101444048Y-109588390D01*
X101444048Y-109588390D02*
X101491667Y-109397914D01*
X101491667Y-109397914D02*
X101539286Y-109302676D01*
X101539286Y-109302676D02*
X101634524Y-109207438D01*
X101634524Y-109207438D02*
X101777381Y-109159819D01*
X101777381Y-109159819D02*
X101872619Y-109159819D01*
X101872619Y-109159819D02*
X102015476Y-109207438D01*
X102015476Y-109207438D02*
X102063095Y-109255057D01*
X105098333Y-135049819D02*
X105098333Y-134049819D01*
X105098333Y-134049819D02*
X105479285Y-134049819D01*
X105479285Y-134049819D02*
X105574523Y-134097438D01*
X105574523Y-134097438D02*
X105622142Y-134145057D01*
X105622142Y-134145057D02*
X105669761Y-134240295D01*
X105669761Y-134240295D02*
X105669761Y-134383152D01*
X105669761Y-134383152D02*
X105622142Y-134478390D01*
X105622142Y-134478390D02*
X105574523Y-134526009D01*
X105574523Y-134526009D02*
X105479285Y-134573628D01*
X105479285Y-134573628D02*
X105098333Y-134573628D01*
X106574523Y-134049819D02*
X106098333Y-134049819D01*
X106098333Y-134049819D02*
X106050714Y-134526009D01*
X106050714Y-134526009D02*
X106098333Y-134478390D01*
X106098333Y-134478390D02*
X106193571Y-134430771D01*
X106193571Y-134430771D02*
X106431666Y-134430771D01*
X106431666Y-134430771D02*
X106526904Y-134478390D01*
X106526904Y-134478390D02*
X106574523Y-134526009D01*
X106574523Y-134526009D02*
X106622142Y-134621247D01*
X106622142Y-134621247D02*
X106622142Y-134859342D01*
X106622142Y-134859342D02*
X106574523Y-134954580D01*
X106574523Y-134954580D02*
X106526904Y-135002200D01*
X106526904Y-135002200D02*
X106431666Y-135049819D01*
X106431666Y-135049819D02*
X106193571Y-135049819D01*
X106193571Y-135049819D02*
X106098333Y-135002200D01*
X106098333Y-135002200D02*
X106050714Y-134954580D01*
X106907857Y-134049819D02*
X107241190Y-135049819D01*
X107241190Y-135049819D02*
X107574523Y-134049819D01*
X138343095Y-134089819D02*
X138343095Y-134899342D01*
X138343095Y-134899342D02*
X138390714Y-134994580D01*
X138390714Y-134994580D02*
X138438333Y-135042200D01*
X138438333Y-135042200D02*
X138533571Y-135089819D01*
X138533571Y-135089819D02*
X138724047Y-135089819D01*
X138724047Y-135089819D02*
X138819285Y-135042200D01*
X138819285Y-135042200D02*
X138866904Y-134994580D01*
X138866904Y-134994580D02*
X138914523Y-134899342D01*
X138914523Y-134899342D02*
X138914523Y-134089819D01*
X139343095Y-135042200D02*
X139485952Y-135089819D01*
X139485952Y-135089819D02*
X139724047Y-135089819D01*
X139724047Y-135089819D02*
X139819285Y-135042200D01*
X139819285Y-135042200D02*
X139866904Y-134994580D01*
X139866904Y-134994580D02*
X139914523Y-134899342D01*
X139914523Y-134899342D02*
X139914523Y-134804104D01*
X139914523Y-134804104D02*
X139866904Y-134708866D01*
X139866904Y-134708866D02*
X139819285Y-134661247D01*
X139819285Y-134661247D02*
X139724047Y-134613628D01*
X139724047Y-134613628D02*
X139533571Y-134566009D01*
X139533571Y-134566009D02*
X139438333Y-134518390D01*
X139438333Y-134518390D02*
X139390714Y-134470771D01*
X139390714Y-134470771D02*
X139343095Y-134375533D01*
X139343095Y-134375533D02*
X139343095Y-134280295D01*
X139343095Y-134280295D02*
X139390714Y-134185057D01*
X139390714Y-134185057D02*
X139438333Y-134137438D01*
X139438333Y-134137438D02*
X139533571Y-134089819D01*
X139533571Y-134089819D02*
X139771666Y-134089819D01*
X139771666Y-134089819D02*
X139914523Y-134137438D01*
X140676428Y-134566009D02*
X140819285Y-134613628D01*
X140819285Y-134613628D02*
X140866904Y-134661247D01*
X140866904Y-134661247D02*
X140914523Y-134756485D01*
X140914523Y-134756485D02*
X140914523Y-134899342D01*
X140914523Y-134899342D02*
X140866904Y-134994580D01*
X140866904Y-134994580D02*
X140819285Y-135042200D01*
X140819285Y-135042200D02*
X140724047Y-135089819D01*
X140724047Y-135089819D02*
X140343095Y-135089819D01*
X140343095Y-135089819D02*
X140343095Y-134089819D01*
X140343095Y-134089819D02*
X140676428Y-134089819D01*
X140676428Y-134089819D02*
X140771666Y-134137438D01*
X140771666Y-134137438D02*
X140819285Y-134185057D01*
X140819285Y-134185057D02*
X140866904Y-134280295D01*
X140866904Y-134280295D02*
X140866904Y-134375533D01*
X140866904Y-134375533D02*
X140819285Y-134470771D01*
X140819285Y-134470771D02*
X140771666Y-134518390D01*
X140771666Y-134518390D02*
X140676428Y-134566009D01*
X140676428Y-134566009D02*
X140343095Y-134566009D01*
X113642200Y-143115475D02*
X113689819Y-142972618D01*
X113689819Y-142972618D02*
X113689819Y-142734523D01*
X113689819Y-142734523D02*
X113642200Y-142639285D01*
X113642200Y-142639285D02*
X113594580Y-142591666D01*
X113594580Y-142591666D02*
X113499342Y-142544047D01*
X113499342Y-142544047D02*
X113404104Y-142544047D01*
X113404104Y-142544047D02*
X113308866Y-142591666D01*
X113308866Y-142591666D02*
X113261247Y-142639285D01*
X113261247Y-142639285D02*
X113213628Y-142734523D01*
X113213628Y-142734523D02*
X113166009Y-142924999D01*
X113166009Y-142924999D02*
X113118390Y-143020237D01*
X113118390Y-143020237D02*
X113070771Y-143067856D01*
X113070771Y-143067856D02*
X112975533Y-143115475D01*
X112975533Y-143115475D02*
X112880295Y-143115475D01*
X112880295Y-143115475D02*
X112785057Y-143067856D01*
X112785057Y-143067856D02*
X112737438Y-143020237D01*
X112737438Y-143020237D02*
X112689819Y-142924999D01*
X112689819Y-142924999D02*
X112689819Y-142686904D01*
X112689819Y-142686904D02*
X112737438Y-142544047D01*
X113689819Y-141544047D02*
X113213628Y-141877380D01*
X113689819Y-142115475D02*
X112689819Y-142115475D01*
X112689819Y-142115475D02*
X112689819Y-141734523D01*
X112689819Y-141734523D02*
X112737438Y-141639285D01*
X112737438Y-141639285D02*
X112785057Y-141591666D01*
X112785057Y-141591666D02*
X112880295Y-141544047D01*
X112880295Y-141544047D02*
X113023152Y-141544047D01*
X113023152Y-141544047D02*
X113118390Y-141591666D01*
X113118390Y-141591666D02*
X113166009Y-141639285D01*
X113166009Y-141639285D02*
X113213628Y-141734523D01*
X113213628Y-141734523D02*
X113213628Y-142115475D01*
X112689819Y-141258332D02*
X113689819Y-140924999D01*
X113689819Y-140924999D02*
X112689819Y-140591666D01*
X113689819Y-139734523D02*
X113689819Y-140305951D01*
X113689819Y-140020237D02*
X112689819Y-140020237D01*
X112689819Y-140020237D02*
X112832676Y-140115475D01*
X112832676Y-140115475D02*
X112927914Y-140210713D01*
X112927914Y-140210713D02*
X112975533Y-140305951D01*
X115897438Y-106049285D02*
X115849819Y-106144523D01*
X115849819Y-106144523D02*
X115849819Y-106287380D01*
X115849819Y-106287380D02*
X115897438Y-106430237D01*
X115897438Y-106430237D02*
X115992676Y-106525475D01*
X115992676Y-106525475D02*
X116087914Y-106573094D01*
X116087914Y-106573094D02*
X116278390Y-106620713D01*
X116278390Y-106620713D02*
X116421247Y-106620713D01*
X116421247Y-106620713D02*
X116611723Y-106573094D01*
X116611723Y-106573094D02*
X116706961Y-106525475D01*
X116706961Y-106525475D02*
X116802200Y-106430237D01*
X116802200Y-106430237D02*
X116849819Y-106287380D01*
X116849819Y-106287380D02*
X116849819Y-106192142D01*
X116849819Y-106192142D02*
X116802200Y-106049285D01*
X116802200Y-106049285D02*
X116754580Y-106001666D01*
X116754580Y-106001666D02*
X116421247Y-106001666D01*
X116421247Y-106001666D02*
X116421247Y-106192142D01*
X116849819Y-105573094D02*
X115849819Y-105573094D01*
X115849819Y-105573094D02*
X115849819Y-105192142D01*
X115849819Y-105192142D02*
X115897438Y-105096904D01*
X115897438Y-105096904D02*
X115945057Y-105049285D01*
X115945057Y-105049285D02*
X116040295Y-105001666D01*
X116040295Y-105001666D02*
X116183152Y-105001666D01*
X116183152Y-105001666D02*
X116278390Y-105049285D01*
X116278390Y-105049285D02*
X116326009Y-105096904D01*
X116326009Y-105096904D02*
X116373628Y-105192142D01*
X116373628Y-105192142D02*
X116373628Y-105573094D01*
X116802200Y-104620713D02*
X116849819Y-104477856D01*
X116849819Y-104477856D02*
X116849819Y-104239761D01*
X116849819Y-104239761D02*
X116802200Y-104144523D01*
X116802200Y-104144523D02*
X116754580Y-104096904D01*
X116754580Y-104096904D02*
X116659342Y-104049285D01*
X116659342Y-104049285D02*
X116564104Y-104049285D01*
X116564104Y-104049285D02*
X116468866Y-104096904D01*
X116468866Y-104096904D02*
X116421247Y-104144523D01*
X116421247Y-104144523D02*
X116373628Y-104239761D01*
X116373628Y-104239761D02*
X116326009Y-104430237D01*
X116326009Y-104430237D02*
X116278390Y-104525475D01*
X116278390Y-104525475D02*
X116230771Y-104573094D01*
X116230771Y-104573094D02*
X116135533Y-104620713D01*
X116135533Y-104620713D02*
X116040295Y-104620713D01*
X116040295Y-104620713D02*
X115945057Y-104573094D01*
X115945057Y-104573094D02*
X115897438Y-104525475D01*
X115897438Y-104525475D02*
X115849819Y-104430237D01*
X115849819Y-104430237D02*
X115849819Y-104192142D01*
X115849819Y-104192142D02*
X115897438Y-104049285D01*
X130890476Y-138604819D02*
X130890476Y-139319104D01*
X130890476Y-139319104D02*
X130842857Y-139461961D01*
X130842857Y-139461961D02*
X130747619Y-139557200D01*
X130747619Y-139557200D02*
X130604762Y-139604819D01*
X130604762Y-139604819D02*
X130509524Y-139604819D01*
X131319048Y-138700057D02*
X131366667Y-138652438D01*
X131366667Y-138652438D02*
X131461905Y-138604819D01*
X131461905Y-138604819D02*
X131700000Y-138604819D01*
X131700000Y-138604819D02*
X131795238Y-138652438D01*
X131795238Y-138652438D02*
X131842857Y-138700057D01*
X131842857Y-138700057D02*
X131890476Y-138795295D01*
X131890476Y-138795295D02*
X131890476Y-138890533D01*
X131890476Y-138890533D02*
X131842857Y-139033390D01*
X131842857Y-139033390D02*
X131271429Y-139604819D01*
X131271429Y-139604819D02*
X131890476Y-139604819D01*
X132223810Y-138604819D02*
X132842857Y-138604819D01*
X132842857Y-138604819D02*
X132509524Y-138985771D01*
X132509524Y-138985771D02*
X132652381Y-138985771D01*
X132652381Y-138985771D02*
X132747619Y-139033390D01*
X132747619Y-139033390D02*
X132795238Y-139081009D01*
X132795238Y-139081009D02*
X132842857Y-139176247D01*
X132842857Y-139176247D02*
X132842857Y-139414342D01*
X132842857Y-139414342D02*
X132795238Y-139509580D01*
X132795238Y-139509580D02*
X132747619Y-139557200D01*
X132747619Y-139557200D02*
X132652381Y-139604819D01*
X132652381Y-139604819D02*
X132366667Y-139604819D01*
X132366667Y-139604819D02*
X132271429Y-139557200D01*
X132271429Y-139557200D02*
X132223810Y-139509580D01*
X100904819Y-145403144D02*
X99904819Y-145403144D01*
X99904819Y-145403144D02*
X99904819Y-145165049D01*
X99904819Y-145165049D02*
X99952438Y-145022192D01*
X99952438Y-145022192D02*
X100047676Y-144926954D01*
X100047676Y-144926954D02*
X100142914Y-144879335D01*
X100142914Y-144879335D02*
X100333390Y-144831716D01*
X100333390Y-144831716D02*
X100476247Y-144831716D01*
X100476247Y-144831716D02*
X100666723Y-144879335D01*
X100666723Y-144879335D02*
X100761961Y-144926954D01*
X100761961Y-144926954D02*
X100857200Y-145022192D01*
X100857200Y-145022192D02*
X100904819Y-145165049D01*
X100904819Y-145165049D02*
X100904819Y-145403144D01*
X100238152Y-143974573D02*
X100904819Y-143974573D01*
X99857200Y-144212668D02*
X100571485Y-144450763D01*
X100571485Y-144450763D02*
X100571485Y-143831716D01*
X134404717Y-138647194D02*
X135214240Y-138647194D01*
X135214240Y-138647194D02*
X135309478Y-138599575D01*
X135309478Y-138599575D02*
X135357098Y-138551956D01*
X135357098Y-138551956D02*
X135404717Y-138456718D01*
X135404717Y-138456718D02*
X135404717Y-138266242D01*
X135404717Y-138266242D02*
X135357098Y-138171004D01*
X135357098Y-138171004D02*
X135309478Y-138123385D01*
X135309478Y-138123385D02*
X135214240Y-138075766D01*
X135214240Y-138075766D02*
X134404717Y-138075766D01*
X135404717Y-137075766D02*
X135404717Y-137647194D01*
X135404717Y-137361480D02*
X134404717Y-137361480D01*
X134404717Y-137361480D02*
X134547574Y-137456718D01*
X134547574Y-137456718D02*
X134642812Y-137551956D01*
X134642812Y-137551956D02*
X134690431Y-137647194D01*
X134404717Y-136742432D02*
X134404717Y-136075766D01*
X134404717Y-136075766D02*
X135404717Y-136504337D01*
X106854609Y-111500057D02*
X106759371Y-111452438D01*
X106759371Y-111452438D02*
X106664133Y-111357200D01*
X106664133Y-111357200D02*
X106521276Y-111214342D01*
X106521276Y-111214342D02*
X106426038Y-111166723D01*
X106426038Y-111166723D02*
X106330800Y-111166723D01*
X106378419Y-111404819D02*
X106283181Y-111357200D01*
X106283181Y-111357200D02*
X106187943Y-111261961D01*
X106187943Y-111261961D02*
X106140324Y-111071485D01*
X106140324Y-111071485D02*
X106140324Y-110738152D01*
X106140324Y-110738152D02*
X106187943Y-110547676D01*
X106187943Y-110547676D02*
X106283181Y-110452438D01*
X106283181Y-110452438D02*
X106378419Y-110404819D01*
X106378419Y-110404819D02*
X106568895Y-110404819D01*
X106568895Y-110404819D02*
X106664133Y-110452438D01*
X106664133Y-110452438D02*
X106759371Y-110547676D01*
X106759371Y-110547676D02*
X106806990Y-110738152D01*
X106806990Y-110738152D02*
X106806990Y-111071485D01*
X106806990Y-111071485D02*
X106759371Y-111261961D01*
X106759371Y-111261961D02*
X106664133Y-111357200D01*
X106664133Y-111357200D02*
X106568895Y-111404819D01*
X106568895Y-111404819D02*
X106378419Y-111404819D01*
X107664133Y-110738152D02*
X107664133Y-111404819D01*
X107426038Y-110357200D02*
X107187943Y-111071485D01*
X107187943Y-111071485D02*
X107806990Y-111071485D01*
X103956666Y-142421009D02*
X104099523Y-142468628D01*
X104099523Y-142468628D02*
X104147142Y-142516247D01*
X104147142Y-142516247D02*
X104194761Y-142611485D01*
X104194761Y-142611485D02*
X104194761Y-142754342D01*
X104194761Y-142754342D02*
X104147142Y-142849580D01*
X104147142Y-142849580D02*
X104099523Y-142897200D01*
X104099523Y-142897200D02*
X104004285Y-142944819D01*
X104004285Y-142944819D02*
X103623333Y-142944819D01*
X103623333Y-142944819D02*
X103623333Y-141944819D01*
X103623333Y-141944819D02*
X103956666Y-141944819D01*
X103956666Y-141944819D02*
X104051904Y-141992438D01*
X104051904Y-141992438D02*
X104099523Y-142040057D01*
X104099523Y-142040057D02*
X104147142Y-142135295D01*
X104147142Y-142135295D02*
X104147142Y-142230533D01*
X104147142Y-142230533D02*
X104099523Y-142325771D01*
X104099523Y-142325771D02*
X104051904Y-142373390D01*
X104051904Y-142373390D02*
X103956666Y-142421009D01*
X103956666Y-142421009D02*
X103623333Y-142421009D01*
X105099523Y-141944819D02*
X104623333Y-141944819D01*
X104623333Y-141944819D02*
X104575714Y-142421009D01*
X104575714Y-142421009D02*
X104623333Y-142373390D01*
X104623333Y-142373390D02*
X104718571Y-142325771D01*
X104718571Y-142325771D02*
X104956666Y-142325771D01*
X104956666Y-142325771D02*
X105051904Y-142373390D01*
X105051904Y-142373390D02*
X105099523Y-142421009D01*
X105099523Y-142421009D02*
X105147142Y-142516247D01*
X105147142Y-142516247D02*
X105147142Y-142754342D01*
X105147142Y-142754342D02*
X105099523Y-142849580D01*
X105099523Y-142849580D02*
X105051904Y-142897200D01*
X105051904Y-142897200D02*
X104956666Y-142944819D01*
X104956666Y-142944819D02*
X104718571Y-142944819D01*
X104718571Y-142944819D02*
X104623333Y-142897200D01*
X104623333Y-142897200D02*
X104575714Y-142849580D01*
X105432857Y-141944819D02*
X105766190Y-142944819D01*
X105766190Y-142944819D02*
X106099523Y-141944819D01*
X139344523Y-142944819D02*
X138868333Y-142944819D01*
X138868333Y-142944819D02*
X138868333Y-141944819D01*
X140201666Y-141992438D02*
X140106428Y-141944819D01*
X140106428Y-141944819D02*
X139963571Y-141944819D01*
X139963571Y-141944819D02*
X139820714Y-141992438D01*
X139820714Y-141992438D02*
X139725476Y-142087676D01*
X139725476Y-142087676D02*
X139677857Y-142182914D01*
X139677857Y-142182914D02*
X139630238Y-142373390D01*
X139630238Y-142373390D02*
X139630238Y-142516247D01*
X139630238Y-142516247D02*
X139677857Y-142706723D01*
X139677857Y-142706723D02*
X139725476Y-142801961D01*
X139725476Y-142801961D02*
X139820714Y-142897200D01*
X139820714Y-142897200D02*
X139963571Y-142944819D01*
X139963571Y-142944819D02*
X140058809Y-142944819D01*
X140058809Y-142944819D02*
X140201666Y-142897200D01*
X140201666Y-142897200D02*
X140249285Y-142849580D01*
X140249285Y-142849580D02*
X140249285Y-142516247D01*
X140249285Y-142516247D02*
X140058809Y-142516247D01*
X107088095Y-124229819D02*
X107088095Y-125039342D01*
X107088095Y-125039342D02*
X107135714Y-125134580D01*
X107135714Y-125134580D02*
X107183333Y-125182200D01*
X107183333Y-125182200D02*
X107278571Y-125229819D01*
X107278571Y-125229819D02*
X107469047Y-125229819D01*
X107469047Y-125229819D02*
X107564285Y-125182200D01*
X107564285Y-125182200D02*
X107611904Y-125134580D01*
X107611904Y-125134580D02*
X107659523Y-125039342D01*
X107659523Y-125039342D02*
X107659523Y-124229819D01*
X108611904Y-124229819D02*
X108135714Y-124229819D01*
X108135714Y-124229819D02*
X108088095Y-124706009D01*
X108088095Y-124706009D02*
X108135714Y-124658390D01*
X108135714Y-124658390D02*
X108230952Y-124610771D01*
X108230952Y-124610771D02*
X108469047Y-124610771D01*
X108469047Y-124610771D02*
X108564285Y-124658390D01*
X108564285Y-124658390D02*
X108611904Y-124706009D01*
X108611904Y-124706009D02*
X108659523Y-124801247D01*
X108659523Y-124801247D02*
X108659523Y-125039342D01*
X108659523Y-125039342D02*
X108611904Y-125134580D01*
X108611904Y-125134580D02*
X108564285Y-125182200D01*
X108564285Y-125182200D02*
X108469047Y-125229819D01*
X108469047Y-125229819D02*
X108230952Y-125229819D01*
X108230952Y-125229819D02*
X108135714Y-125182200D01*
X108135714Y-125182200D02*
X108088095Y-125134580D01*
X111354908Y-114661993D02*
X112164431Y-114661993D01*
X112164431Y-114661993D02*
X112259669Y-114614374D01*
X112259669Y-114614374D02*
X112307289Y-114566755D01*
X112307289Y-114566755D02*
X112354908Y-114471517D01*
X112354908Y-114471517D02*
X112354908Y-114281041D01*
X112354908Y-114281041D02*
X112307289Y-114185803D01*
X112307289Y-114185803D02*
X112259669Y-114138184D01*
X112259669Y-114138184D02*
X112164431Y-114090565D01*
X112164431Y-114090565D02*
X111354908Y-114090565D01*
X112354908Y-113090565D02*
X112354908Y-113661993D01*
X112354908Y-113376279D02*
X111354908Y-113376279D01*
X111354908Y-113376279D02*
X111497765Y-113471517D01*
X111497765Y-113471517D02*
X111593003Y-113566755D01*
X111593003Y-113566755D02*
X111640622Y-113661993D01*
X111816009Y-145518571D02*
X111863628Y-145375714D01*
X111863628Y-145375714D02*
X111911247Y-145328095D01*
X111911247Y-145328095D02*
X112006485Y-145280476D01*
X112006485Y-145280476D02*
X112149342Y-145280476D01*
X112149342Y-145280476D02*
X112244580Y-145328095D01*
X112244580Y-145328095D02*
X112292200Y-145375714D01*
X112292200Y-145375714D02*
X112339819Y-145470952D01*
X112339819Y-145470952D02*
X112339819Y-145851904D01*
X112339819Y-145851904D02*
X111339819Y-145851904D01*
X111339819Y-145851904D02*
X111339819Y-145518571D01*
X111339819Y-145518571D02*
X111387438Y-145423333D01*
X111387438Y-145423333D02*
X111435057Y-145375714D01*
X111435057Y-145375714D02*
X111530295Y-145328095D01*
X111530295Y-145328095D02*
X111625533Y-145328095D01*
X111625533Y-145328095D02*
X111720771Y-145375714D01*
X111720771Y-145375714D02*
X111768390Y-145423333D01*
X111768390Y-145423333D02*
X111816009Y-145518571D01*
X111816009Y-145518571D02*
X111816009Y-145851904D01*
X111387438Y-144328095D02*
X111339819Y-144423333D01*
X111339819Y-144423333D02*
X111339819Y-144566190D01*
X111339819Y-144566190D02*
X111387438Y-144709047D01*
X111387438Y-144709047D02*
X111482676Y-144804285D01*
X111482676Y-144804285D02*
X111577914Y-144851904D01*
X111577914Y-144851904D02*
X111768390Y-144899523D01*
X111768390Y-144899523D02*
X111911247Y-144899523D01*
X111911247Y-144899523D02*
X112101723Y-144851904D01*
X112101723Y-144851904D02*
X112196961Y-144804285D01*
X112196961Y-144804285D02*
X112292200Y-144709047D01*
X112292200Y-144709047D02*
X112339819Y-144566190D01*
X112339819Y-144566190D02*
X112339819Y-144470952D01*
X112339819Y-144470952D02*
X112292200Y-144328095D01*
X112292200Y-144328095D02*
X112244580Y-144280476D01*
X112244580Y-144280476D02*
X111911247Y-144280476D01*
X111911247Y-144280476D02*
X111911247Y-144470952D01*
X121065952Y-106785057D02*
X120970714Y-106737438D01*
X120970714Y-106737438D02*
X120875476Y-106642200D01*
X120875476Y-106642200D02*
X120732619Y-106499342D01*
X120732619Y-106499342D02*
X120637381Y-106451723D01*
X120637381Y-106451723D02*
X120542143Y-106451723D01*
X120589762Y-106689819D02*
X120494524Y-106642200D01*
X120494524Y-106642200D02*
X120399286Y-106546961D01*
X120399286Y-106546961D02*
X120351667Y-106356485D01*
X120351667Y-106356485D02*
X120351667Y-106023152D01*
X120351667Y-106023152D02*
X120399286Y-105832676D01*
X120399286Y-105832676D02*
X120494524Y-105737438D01*
X120494524Y-105737438D02*
X120589762Y-105689819D01*
X120589762Y-105689819D02*
X120780238Y-105689819D01*
X120780238Y-105689819D02*
X120875476Y-105737438D01*
X120875476Y-105737438D02*
X120970714Y-105832676D01*
X120970714Y-105832676D02*
X121018333Y-106023152D01*
X121018333Y-106023152D02*
X121018333Y-106356485D01*
X121018333Y-106356485D02*
X120970714Y-106546961D01*
X120970714Y-106546961D02*
X120875476Y-106642200D01*
X120875476Y-106642200D02*
X120780238Y-106689819D01*
X120780238Y-106689819D02*
X120589762Y-106689819D01*
X133144819Y-145285238D02*
X133144819Y-145761428D01*
X133144819Y-145761428D02*
X132144819Y-145761428D01*
X132144819Y-144475714D02*
X132144819Y-144951904D01*
X132144819Y-144951904D02*
X132621009Y-144999523D01*
X132621009Y-144999523D02*
X132573390Y-144951904D01*
X132573390Y-144951904D02*
X132525771Y-144856666D01*
X132525771Y-144856666D02*
X132525771Y-144618571D01*
X132525771Y-144618571D02*
X132573390Y-144523333D01*
X132573390Y-144523333D02*
X132621009Y-144475714D01*
X132621009Y-144475714D02*
X132716247Y-144428095D01*
X132716247Y-144428095D02*
X132954342Y-144428095D01*
X132954342Y-144428095D02*
X133049580Y-144475714D01*
X133049580Y-144475714D02*
X133097200Y-144523333D01*
X133097200Y-144523333D02*
X133144819Y-144618571D01*
X133144819Y-144618571D02*
X133144819Y-144856666D01*
X133144819Y-144856666D02*
X133097200Y-144951904D01*
X133097200Y-144951904D02*
X133049580Y-144999523D01*
X132144819Y-144142380D02*
X133144819Y-143809047D01*
X133144819Y-143809047D02*
X132144819Y-143475714D01*
X140234819Y-110082523D02*
X140949104Y-110082523D01*
X140949104Y-110082523D02*
X141091961Y-110130142D01*
X141091961Y-110130142D02*
X141187200Y-110225380D01*
X141187200Y-110225380D02*
X141234819Y-110368237D01*
X141234819Y-110368237D02*
X141234819Y-110463475D01*
X140330057Y-109653951D02*
X140282438Y-109606332D01*
X140282438Y-109606332D02*
X140234819Y-109511094D01*
X140234819Y-109511094D02*
X140234819Y-109272999D01*
X140234819Y-109272999D02*
X140282438Y-109177761D01*
X140282438Y-109177761D02*
X140330057Y-109130142D01*
X140330057Y-109130142D02*
X140425295Y-109082523D01*
X140425295Y-109082523D02*
X140520533Y-109082523D01*
X140520533Y-109082523D02*
X140663390Y-109130142D01*
X140663390Y-109130142D02*
X141234819Y-109701570D01*
X141234819Y-109701570D02*
X141234819Y-109082523D01*
X141234819Y-108130142D02*
X141234819Y-108701570D01*
X141234819Y-108415856D02*
X140234819Y-108415856D01*
X140234819Y-108415856D02*
X140377676Y-108511094D01*
X140377676Y-108511094D02*
X140472914Y-108606332D01*
X140472914Y-108606332D02*
X140520533Y-108701570D01*
X136166191Y-142144819D02*
X136166191Y-141144819D01*
X136166191Y-141144819D02*
X136404286Y-141144819D01*
X136404286Y-141144819D02*
X136547143Y-141192438D01*
X136547143Y-141192438D02*
X136642381Y-141287676D01*
X136642381Y-141287676D02*
X136690000Y-141382914D01*
X136690000Y-141382914D02*
X136737619Y-141573390D01*
X136737619Y-141573390D02*
X136737619Y-141716247D01*
X136737619Y-141716247D02*
X136690000Y-141906723D01*
X136690000Y-141906723D02*
X136642381Y-142001961D01*
X136642381Y-142001961D02*
X136547143Y-142097200D01*
X136547143Y-142097200D02*
X136404286Y-142144819D01*
X136404286Y-142144819D02*
X136166191Y-142144819D01*
X137166191Y-142144819D02*
X137166191Y-141144819D01*
X137642381Y-142144819D02*
X137642381Y-141144819D01*
X137642381Y-141144819D02*
X138213809Y-142144819D01*
X138213809Y-142144819D02*
X138213809Y-141144819D01*
X111054819Y-135966666D02*
X111054819Y-136442856D01*
X111054819Y-136442856D02*
X110054819Y-136442856D01*
X110150057Y-135680951D02*
X110102438Y-135633332D01*
X110102438Y-135633332D02*
X110054819Y-135538094D01*
X110054819Y-135538094D02*
X110054819Y-135299999D01*
X110054819Y-135299999D02*
X110102438Y-135204761D01*
X110102438Y-135204761D02*
X110150057Y-135157142D01*
X110150057Y-135157142D02*
X110245295Y-135109523D01*
X110245295Y-135109523D02*
X110340533Y-135109523D01*
X110340533Y-135109523D02*
X110483390Y-135157142D01*
X110483390Y-135157142D02*
X111054819Y-135728570D01*
X111054819Y-135728570D02*
X111054819Y-135109523D01*
X104725089Y-137185167D02*
X104677470Y-137280405D01*
X104677470Y-137280405D02*
X104582232Y-137375643D01*
X104582232Y-137375643D02*
X104439374Y-137518500D01*
X104439374Y-137518500D02*
X104391755Y-137613738D01*
X104391755Y-137613738D02*
X104391755Y-137708976D01*
X104629851Y-137661357D02*
X104582232Y-137756595D01*
X104582232Y-137756595D02*
X104486993Y-137851833D01*
X104486993Y-137851833D02*
X104296517Y-137899452D01*
X104296517Y-137899452D02*
X103963184Y-137899452D01*
X103963184Y-137899452D02*
X103772708Y-137851833D01*
X103772708Y-137851833D02*
X103677470Y-137756595D01*
X103677470Y-137756595D02*
X103629851Y-137661357D01*
X103629851Y-137661357D02*
X103629851Y-137470881D01*
X103629851Y-137470881D02*
X103677470Y-137375643D01*
X103677470Y-137375643D02*
X103772708Y-137280405D01*
X103772708Y-137280405D02*
X103963184Y-137232786D01*
X103963184Y-137232786D02*
X104296517Y-137232786D01*
X104296517Y-137232786D02*
X104486993Y-137280405D01*
X104486993Y-137280405D02*
X104582232Y-137375643D01*
X104582232Y-137375643D02*
X104629851Y-137470881D01*
X104629851Y-137470881D02*
X104629851Y-137661357D01*
X104629851Y-136280405D02*
X104629851Y-136851833D01*
X104629851Y-136566119D02*
X103629851Y-136566119D01*
X103629851Y-136566119D02*
X103772708Y-136661357D01*
X103772708Y-136661357D02*
X103867946Y-136756595D01*
X103867946Y-136756595D02*
X103915565Y-136851833D01*
X132742200Y-133246904D02*
X132789819Y-133104047D01*
X132789819Y-133104047D02*
X132789819Y-132865952D01*
X132789819Y-132865952D02*
X132742200Y-132770714D01*
X132742200Y-132770714D02*
X132694580Y-132723095D01*
X132694580Y-132723095D02*
X132599342Y-132675476D01*
X132599342Y-132675476D02*
X132504104Y-132675476D01*
X132504104Y-132675476D02*
X132408866Y-132723095D01*
X132408866Y-132723095D02*
X132361247Y-132770714D01*
X132361247Y-132770714D02*
X132313628Y-132865952D01*
X132313628Y-132865952D02*
X132266009Y-133056428D01*
X132266009Y-133056428D02*
X132218390Y-133151666D01*
X132218390Y-133151666D02*
X132170771Y-133199285D01*
X132170771Y-133199285D02*
X132075533Y-133246904D01*
X132075533Y-133246904D02*
X131980295Y-133246904D01*
X131980295Y-133246904D02*
X131885057Y-133199285D01*
X131885057Y-133199285D02*
X131837438Y-133151666D01*
X131837438Y-133151666D02*
X131789819Y-133056428D01*
X131789819Y-133056428D02*
X131789819Y-132818333D01*
X131789819Y-132818333D02*
X131837438Y-132675476D01*
X131789819Y-131770714D02*
X131789819Y-132246904D01*
X131789819Y-132246904D02*
X132266009Y-132294523D01*
X132266009Y-132294523D02*
X132218390Y-132246904D01*
X132218390Y-132246904D02*
X132170771Y-132151666D01*
X132170771Y-132151666D02*
X132170771Y-131913571D01*
X132170771Y-131913571D02*
X132218390Y-131818333D01*
X132218390Y-131818333D02*
X132266009Y-131770714D01*
X132266009Y-131770714D02*
X132361247Y-131723095D01*
X132361247Y-131723095D02*
X132599342Y-131723095D01*
X132599342Y-131723095D02*
X132694580Y-131770714D01*
X132694580Y-131770714D02*
X132742200Y-131818333D01*
X132742200Y-131818333D02*
X132789819Y-131913571D01*
X132789819Y-131913571D02*
X132789819Y-132151666D01*
X132789819Y-132151666D02*
X132742200Y-132246904D01*
X132742200Y-132246904D02*
X132694580Y-132294523D01*
X135639819Y-105384999D02*
X134639819Y-105384999D01*
X135852142Y-111349819D02*
X135518809Y-110873628D01*
X135280714Y-111349819D02*
X135280714Y-110349819D01*
X135280714Y-110349819D02*
X135661666Y-110349819D01*
X135661666Y-110349819D02*
X135756904Y-110397438D01*
X135756904Y-110397438D02*
X135804523Y-110445057D01*
X135804523Y-110445057D02*
X135852142Y-110540295D01*
X135852142Y-110540295D02*
X135852142Y-110683152D01*
X135852142Y-110683152D02*
X135804523Y-110778390D01*
X135804523Y-110778390D02*
X135756904Y-110826009D01*
X135756904Y-110826009D02*
X135661666Y-110873628D01*
X135661666Y-110873628D02*
X135280714Y-110873628D01*
X136185476Y-110349819D02*
X136804523Y-110349819D01*
X136804523Y-110349819D02*
X136471190Y-110730771D01*
X136471190Y-110730771D02*
X136614047Y-110730771D01*
X136614047Y-110730771D02*
X136709285Y-110778390D01*
X136709285Y-110778390D02*
X136756904Y-110826009D01*
X136756904Y-110826009D02*
X136804523Y-110921247D01*
X136804523Y-110921247D02*
X136804523Y-111159342D01*
X136804523Y-111159342D02*
X136756904Y-111254580D01*
X136756904Y-111254580D02*
X136709285Y-111302200D01*
X136709285Y-111302200D02*
X136614047Y-111349819D01*
X136614047Y-111349819D02*
X136328333Y-111349819D01*
X136328333Y-111349819D02*
X136233095Y-111302200D01*
X136233095Y-111302200D02*
X136185476Y-111254580D01*
X137709285Y-110349819D02*
X137233095Y-110349819D01*
X137233095Y-110349819D02*
X137185476Y-110826009D01*
X137185476Y-110826009D02*
X137233095Y-110778390D01*
X137233095Y-110778390D02*
X137328333Y-110730771D01*
X137328333Y-110730771D02*
X137566428Y-110730771D01*
X137566428Y-110730771D02*
X137661666Y-110778390D01*
X137661666Y-110778390D02*
X137709285Y-110826009D01*
X137709285Y-110826009D02*
X137756904Y-110921247D01*
X137756904Y-110921247D02*
X137756904Y-111159342D01*
X137756904Y-111159342D02*
X137709285Y-111254580D01*
X137709285Y-111254580D02*
X137661666Y-111302200D01*
X137661666Y-111302200D02*
X137566428Y-111349819D01*
X137566428Y-111349819D02*
X137328333Y-111349819D01*
X137328333Y-111349819D02*
X137233095Y-111302200D01*
X137233095Y-111302200D02*
X137185476Y-111254580D01*
X107742200Y-105296904D02*
X107789819Y-105154047D01*
X107789819Y-105154047D02*
X107789819Y-104915952D01*
X107789819Y-104915952D02*
X107742200Y-104820714D01*
X107742200Y-104820714D02*
X107694580Y-104773095D01*
X107694580Y-104773095D02*
X107599342Y-104725476D01*
X107599342Y-104725476D02*
X107504104Y-104725476D01*
X107504104Y-104725476D02*
X107408866Y-104773095D01*
X107408866Y-104773095D02*
X107361247Y-104820714D01*
X107361247Y-104820714D02*
X107313628Y-104915952D01*
X107313628Y-104915952D02*
X107266009Y-105106428D01*
X107266009Y-105106428D02*
X107218390Y-105201666D01*
X107218390Y-105201666D02*
X107170771Y-105249285D01*
X107170771Y-105249285D02*
X107075533Y-105296904D01*
X107075533Y-105296904D02*
X106980295Y-105296904D01*
X106980295Y-105296904D02*
X106885057Y-105249285D01*
X106885057Y-105249285D02*
X106837438Y-105201666D01*
X106837438Y-105201666D02*
X106789819Y-105106428D01*
X106789819Y-105106428D02*
X106789819Y-104868333D01*
X106789819Y-104868333D02*
X106837438Y-104725476D01*
X106789819Y-103868333D02*
X106789819Y-104058809D01*
X106789819Y-104058809D02*
X106837438Y-104154047D01*
X106837438Y-104154047D02*
X106885057Y-104201666D01*
X106885057Y-104201666D02*
X107027914Y-104296904D01*
X107027914Y-104296904D02*
X107218390Y-104344523D01*
X107218390Y-104344523D02*
X107599342Y-104344523D01*
X107599342Y-104344523D02*
X107694580Y-104296904D01*
X107694580Y-104296904D02*
X107742200Y-104249285D01*
X107742200Y-104249285D02*
X107789819Y-104154047D01*
X107789819Y-104154047D02*
X107789819Y-103963571D01*
X107789819Y-103963571D02*
X107742200Y-103868333D01*
X107742200Y-103868333D02*
X107694580Y-103820714D01*
X107694580Y-103820714D02*
X107599342Y-103773095D01*
X107599342Y-103773095D02*
X107361247Y-103773095D01*
X107361247Y-103773095D02*
X107266009Y-103820714D01*
X107266009Y-103820714D02*
X107218390Y-103868333D01*
X107218390Y-103868333D02*
X107170771Y-103963571D01*
X107170771Y-103963571D02*
X107170771Y-104154047D01*
X107170771Y-104154047D02*
X107218390Y-104249285D01*
X107218390Y-104249285D02*
X107266009Y-104296904D01*
X107266009Y-104296904D02*
X107361247Y-104344523D01*
X107130238Y-142221009D02*
X107273095Y-142268628D01*
X107273095Y-142268628D02*
X107320714Y-142316247D01*
X107320714Y-142316247D02*
X107368333Y-142411485D01*
X107368333Y-142411485D02*
X107368333Y-142554342D01*
X107368333Y-142554342D02*
X107320714Y-142649580D01*
X107320714Y-142649580D02*
X107273095Y-142697200D01*
X107273095Y-142697200D02*
X107177857Y-142744819D01*
X107177857Y-142744819D02*
X106796905Y-142744819D01*
X106796905Y-142744819D02*
X106796905Y-141744819D01*
X106796905Y-141744819D02*
X107130238Y-141744819D01*
X107130238Y-141744819D02*
X107225476Y-141792438D01*
X107225476Y-141792438D02*
X107273095Y-141840057D01*
X107273095Y-141840057D02*
X107320714Y-141935295D01*
X107320714Y-141935295D02*
X107320714Y-142030533D01*
X107320714Y-142030533D02*
X107273095Y-142125771D01*
X107273095Y-142125771D02*
X107225476Y-142173390D01*
X107225476Y-142173390D02*
X107130238Y-142221009D01*
X107130238Y-142221009D02*
X106796905Y-142221009D01*
X107701667Y-141744819D02*
X108368333Y-141744819D01*
X108368333Y-141744819D02*
X107701667Y-142744819D01*
X107701667Y-142744819D02*
X108368333Y-142744819D01*
D11*
%TO.C,J3*%
X117100000Y-103680008D02*
X117100000Y-102651153D01*
X117100000Y-103680008D02*
X118843917Y-103680008D01*
X119906198Y-103680008D02*
X120093853Y-103680008D01*
X121156134Y-103680008D02*
X121343790Y-103680008D01*
X122406071Y-103680008D02*
X122593726Y-103680008D01*
X123656007Y-103680008D02*
X123843917Y-103680008D01*
X124906198Y-103680008D02*
X125093853Y-103680008D01*
X126156134Y-103680008D02*
X127900000Y-103680008D01*
X126791745Y-99579982D02*
X118208280Y-99579982D01*
X127900000Y-103680008D02*
X127900000Y-102651153D01*
D12*
X126825221Y-104020291D02*
X126882737Y-104037738D01*
X126935745Y-104066071D01*
X126982207Y-104104202D01*
X127020337Y-104150663D01*
X127048670Y-104203671D01*
X127066118Y-104261188D01*
X127072009Y-104321003D01*
X127066118Y-104380819D01*
X127048670Y-104438336D01*
X127020337Y-104491343D01*
X126982207Y-104537805D01*
X126935745Y-104575935D01*
X126882737Y-104604268D01*
X126825221Y-104621716D01*
X126765405Y-104627607D01*
X126705590Y-104621716D01*
X126648073Y-104604268D01*
X126595065Y-104575935D01*
X126548603Y-104537805D01*
X126510473Y-104491343D01*
X126482140Y-104438336D01*
X126464692Y-104380819D01*
X126458801Y-104321003D01*
X126464692Y-104261188D01*
X126482140Y-104203671D01*
X126510473Y-104150663D01*
X126548603Y-104104202D01*
X126595065Y-104066071D01*
X126648073Y-104037738D01*
X126705590Y-104020291D01*
X126765405Y-104014399D01*
X126825221Y-104020291D01*
G36*
X126825221Y-104020291D02*
G01*
X126882737Y-104037738D01*
X126935745Y-104066071D01*
X126982207Y-104104202D01*
X127020337Y-104150663D01*
X127048670Y-104203671D01*
X127066118Y-104261188D01*
X127072009Y-104321003D01*
X127066118Y-104380819D01*
X127048670Y-104438336D01*
X127020337Y-104491343D01*
X126982207Y-104537805D01*
X126935745Y-104575935D01*
X126882737Y-104604268D01*
X126825221Y-104621716D01*
X126765405Y-104627607D01*
X126705590Y-104621716D01*
X126648073Y-104604268D01*
X126595065Y-104575935D01*
X126548603Y-104537805D01*
X126510473Y-104491343D01*
X126482140Y-104438336D01*
X126464692Y-104380819D01*
X126458801Y-104321003D01*
X126464692Y-104261188D01*
X126482140Y-104203671D01*
X126510473Y-104150663D01*
X126548603Y-104104202D01*
X126595065Y-104066071D01*
X126648073Y-104037738D01*
X126705590Y-104020291D01*
X126765405Y-104014399D01*
X126825221Y-104020291D01*
G37*
%TO.C,C96*%
X131362836Y-104095000D02*
X131147164Y-104095000D01*
X131362836Y-104815000D02*
X131147164Y-104815000D01*
%TO.C,C77*%
X132112836Y-127095000D02*
X131897164Y-127095000D01*
X132112836Y-127815000D02*
X131897164Y-127815000D01*
%TO.C,U20*%
X126050000Y-133300000D02*
G75*
G02*
X125850000Y-133300000I-100000J0D01*
G01*
X125850000Y-133300000D02*
G75*
G02*
X126050000Y-133300000I100000J0D01*
G01*
D11*
%TO.C,J23*%
X123390030Y-144150013D02*
X123390030Y-146450000D01*
X124390030Y-142331140D02*
X124390030Y-144150013D01*
X125040043Y-142331140D02*
X125040043Y-144150013D01*
X126930188Y-142331242D02*
X126930188Y-144150064D01*
X127580175Y-142331242D02*
X127580175Y-144150064D01*
X129470142Y-142331140D02*
X129470142Y-144150038D01*
X130120206Y-142331140D02*
X130120028Y-144150038D01*
X131120028Y-144150013D02*
X123390030Y-144150013D01*
X131120028Y-144150013D02*
X131120028Y-146450000D01*
D12*
%TO.C,C30*%
X136112836Y-134095000D02*
X135897164Y-134095000D01*
X136112836Y-134815000D02*
X135897164Y-134815000D01*
%TO.C,C46*%
X111195000Y-123762836D02*
X111195000Y-123547164D01*
X111915000Y-123762836D02*
X111915000Y-123547164D01*
D13*
%TO.C,U13*%
X130848978Y-114023774D02*
X130848978Y-114807544D01*
X130848978Y-119176149D02*
X130848978Y-118392380D01*
X131632798Y-114023774D02*
X130848978Y-114023774D01*
X131632798Y-119176149D02*
X130848978Y-119176149D01*
X135217583Y-114023774D02*
X136001353Y-114023774D01*
X135217583Y-119176149D02*
X136001353Y-119176149D01*
X136001353Y-114023774D02*
X136001353Y-114807544D01*
X136001353Y-119176149D02*
X136001353Y-118392380D01*
D12*
X135643642Y-114140113D02*
X135700974Y-114157612D01*
X135753758Y-114186020D01*
X135799942Y-114224232D01*
X135837730Y-114270763D01*
X135865654Y-114323804D01*
X135882628Y-114381293D01*
X135887992Y-114440996D01*
X135882628Y-114500698D01*
X135865654Y-114558187D01*
X135837730Y-114611228D01*
X135799942Y-114657760D01*
X135753758Y-114695972D01*
X135700974Y-114724379D01*
X135643642Y-114741878D01*
X135583992Y-114747788D01*
X135524341Y-114741878D01*
X135467009Y-114724379D01*
X135414225Y-114695972D01*
X135368042Y-114657760D01*
X135330253Y-114611228D01*
X135302329Y-114558187D01*
X135285355Y-114500698D01*
X135279991Y-114440996D01*
X135285355Y-114381293D01*
X135302329Y-114323804D01*
X135330253Y-114270763D01*
X135368042Y-114224232D01*
X135414225Y-114186020D01*
X135467009Y-114157612D01*
X135524341Y-114140113D01*
X135583992Y-114134204D01*
X135643642Y-114140113D01*
G36*
X135643642Y-114140113D02*
G01*
X135700974Y-114157612D01*
X135753758Y-114186020D01*
X135799942Y-114224232D01*
X135837730Y-114270763D01*
X135865654Y-114323804D01*
X135882628Y-114381293D01*
X135887992Y-114440996D01*
X135882628Y-114500698D01*
X135865654Y-114558187D01*
X135837730Y-114611228D01*
X135799942Y-114657760D01*
X135753758Y-114695972D01*
X135700974Y-114724379D01*
X135643642Y-114741878D01*
X135583992Y-114747788D01*
X135524341Y-114741878D01*
X135467009Y-114724379D01*
X135414225Y-114695972D01*
X135368042Y-114657760D01*
X135330253Y-114611228D01*
X135302329Y-114558187D01*
X135285355Y-114500698D01*
X135279991Y-114440996D01*
X135285355Y-114381293D01*
X135302329Y-114323804D01*
X135330253Y-114270763D01*
X135368042Y-114224232D01*
X135414225Y-114186020D01*
X135467009Y-114157612D01*
X135524341Y-114140113D01*
X135583992Y-114134204D01*
X135643642Y-114140113D01*
G37*
%TO.C,R61*%
X131621359Y-102835000D02*
X131928641Y-102835000D01*
X131621359Y-103595000D02*
X131928641Y-103595000D01*
%TO.C,L1*%
X130635000Y-111095378D02*
X130635000Y-111894622D01*
X131755000Y-111095378D02*
X131755000Y-111894622D01*
%TO.C,C22*%
X117183748Y-130735000D02*
X118606252Y-130735000D01*
X117183748Y-132555000D02*
X118606252Y-132555000D01*
%TO.C,R37*%
X136935000Y-119021359D02*
X136935000Y-119328641D01*
X137695000Y-119021359D02*
X137695000Y-119328641D01*
D11*
%TO.C,J17*%
X113890030Y-144150013D02*
X113890030Y-146450000D01*
X114890030Y-142331140D02*
X114890030Y-144150013D01*
X115540043Y-142331140D02*
X115540043Y-142991100D01*
X115540043Y-143945101D02*
X115540043Y-144150013D01*
X117430188Y-142331242D02*
X117430188Y-144150064D01*
X118080175Y-142331242D02*
X118080175Y-142991100D01*
X118080175Y-143945101D02*
X118080175Y-144150064D01*
X119970142Y-142331140D02*
X119970142Y-144150038D01*
X120620206Y-142331140D02*
X120620028Y-144150038D01*
X121620028Y-144150013D02*
X113890030Y-144150013D01*
X121620028Y-144150013D02*
X121620028Y-146450000D01*
D12*
%TO.C,R62*%
X131435000Y-106328641D02*
X131435000Y-106021359D01*
X132195000Y-106328641D02*
X132195000Y-106021359D01*
%TO.C,C94*%
X141445000Y-106297164D02*
X141445000Y-106512836D01*
X142165000Y-106297164D02*
X142165000Y-106512836D01*
%TO.C,D2*%
X112340000Y-129990000D02*
X112340000Y-131460000D01*
X112340000Y-131460000D02*
X114625000Y-131460000D01*
X114625000Y-129990000D02*
X112340000Y-129990000D01*
%TO.C,C80*%
X115695000Y-108047164D02*
X115695000Y-108262836D01*
X116415000Y-108047164D02*
X116415000Y-108262836D01*
%TO.C,C41*%
X120647164Y-111345000D02*
X120862836Y-111345000D01*
X120647164Y-112065000D02*
X120862836Y-112065000D01*
%TO.C,C74*%
X127647164Y-136595000D02*
X127862836Y-136595000D01*
X127647164Y-137315000D02*
X127862836Y-137315000D01*
%TO.C,R17*%
X136928641Y-126835000D02*
X136621359Y-126835000D01*
X136928641Y-127595000D02*
X136621359Y-127595000D01*
D11*
%TO.C,J12*%
X141221996Y-101506997D02*
X141221996Y-102293003D01*
X141249987Y-99550000D02*
X141249987Y-99752997D01*
X142606997Y-103678004D02*
X143393003Y-103678004D01*
X143393003Y-100121996D02*
X142606997Y-100121996D01*
X144750013Y-99550000D02*
X144750013Y-99752997D01*
X144778004Y-102293003D02*
X144778004Y-101506997D01*
D12*
%TO.C,C95*%
X131445000Y-108512836D02*
X131445000Y-108297164D01*
X132165000Y-108512836D02*
X132165000Y-108297164D01*
D13*
%TO.C,D4*%
X100773863Y-140573724D02*
X100966904Y-140573724D01*
X100773863Y-143326175D02*
X100773863Y-140573724D01*
X100823876Y-142866739D02*
X102576327Y-142866739D01*
X102626340Y-140573724D02*
X102433299Y-140573724D01*
X102626340Y-143326175D02*
X102626340Y-140573724D01*
D12*
X101017678Y-143554750D02*
X100697689Y-143554750D01*
X100697689Y-143249949D01*
X101017678Y-143249949D01*
X101017678Y-143554750D01*
G36*
X101017678Y-143554750D02*
G01*
X100697689Y-143554750D01*
X100697689Y-143249949D01*
X101017678Y-143249949D01*
X101017678Y-143554750D01*
G37*
X102702515Y-143554750D02*
X102382525Y-143554750D01*
X102382525Y-143249949D01*
X102702515Y-143249949D01*
X102702515Y-143554750D01*
G36*
X102702515Y-143554750D02*
G01*
X102382525Y-143554750D01*
X102382525Y-143249949D01*
X102702515Y-143249949D01*
X102702515Y-143554750D01*
G37*
%TO.C,R16*%
X136928641Y-128085000D02*
X136621359Y-128085000D01*
X136928641Y-128845000D02*
X136621359Y-128845000D01*
%TO.C,D3*%
X110590000Y-119490000D02*
X110590000Y-121775000D01*
X112060000Y-119490000D02*
X110590000Y-119490000D01*
X112060000Y-121775000D02*
X112060000Y-119490000D01*
D14*
%TO.C,D7*%
X139318059Y-102127991D02*
X139320599Y-101269469D01*
X139320599Y-101269469D02*
X139881941Y-101269469D01*
X139881941Y-101269469D02*
X139881941Y-102130531D01*
X139881941Y-102130531D02*
X139320599Y-102130531D01*
D11*
%TO.C,J22*%
X99752995Y-127931064D02*
X99752995Y-132668936D01*
X103803007Y-126800000D02*
X101997064Y-126800000D01*
X103803007Y-128518694D02*
X103803007Y-126800000D01*
X103803007Y-129768631D02*
X103803007Y-129580975D01*
X103803007Y-131018821D02*
X103803007Y-130830912D01*
X103803007Y-133800000D02*
X101997216Y-133800000D01*
X103803007Y-133800000D02*
X103803007Y-132081102D01*
D15*
X104583018Y-128135992D02*
G75*
G02*
X104282992Y-128135992I-150013J0D01*
G01*
X104282992Y-128135992D02*
G75*
G02*
X104583018Y-128135992I150013J0D01*
G01*
D13*
%TO.C,D1*%
X106713792Y-117256287D02*
X106713792Y-122743713D01*
X106713792Y-122743713D02*
X107300610Y-122743713D01*
X110486208Y-117256287D02*
X110486208Y-122743713D01*
D16*
X110486208Y-118983998D02*
X106713792Y-118983998D01*
D13*
X110486208Y-122743713D02*
X109899390Y-122743713D01*
D12*
X107351410Y-117332487D02*
X106637592Y-117332487D01*
X106637592Y-116875286D01*
X107351410Y-116875286D01*
X107351410Y-117332487D01*
G36*
X107351410Y-117332487D02*
G01*
X106637592Y-117332487D01*
X106637592Y-116875286D01*
X107351410Y-116875286D01*
X107351410Y-117332487D01*
G37*
X110562408Y-117332487D02*
X109848590Y-117332487D01*
X109848590Y-116875286D01*
X110562408Y-116875286D01*
X110562408Y-117332487D01*
G36*
X110562408Y-117332487D02*
G01*
X109848590Y-117332487D01*
X109848590Y-116875286D01*
X110562408Y-116875286D01*
X110562408Y-117332487D01*
G37*
D14*
%TO.C,U10*%
X134350038Y-130525025D02*
X134495885Y-130525025D01*
X134350038Y-132325051D02*
X134350038Y-130525025D01*
X134350038Y-132325051D02*
X134495911Y-132325051D01*
X135404191Y-130525025D02*
X135445847Y-130525025D01*
X135404191Y-132325051D02*
X136395834Y-132325051D01*
X136354128Y-130525025D02*
X136395809Y-130525025D01*
X137304115Y-130525025D02*
X137450064Y-130525025D01*
X137304115Y-132325051D02*
X137450064Y-132325051D01*
X137450064Y-132325051D02*
X137450064Y-130525025D01*
D12*
X136950834Y-130870022D02*
X136984390Y-130879846D01*
X137015361Y-130896074D01*
X137042538Y-130918072D01*
X137064860Y-130944983D01*
X137081457Y-130975757D01*
X137091682Y-131009193D01*
X137095135Y-131043987D01*
X137091682Y-131078780D01*
X137081457Y-131112216D01*
X137064860Y-131142990D01*
X137042538Y-131169901D01*
X137015361Y-131191900D01*
X136984390Y-131208127D01*
X136950834Y-131217951D01*
X136916002Y-131220987D01*
X136881170Y-131217951D01*
X136847614Y-131208127D01*
X136816643Y-131191900D01*
X136789467Y-131169901D01*
X136767144Y-131142990D01*
X136750547Y-131112216D01*
X136740322Y-131078780D01*
X136736869Y-131043987D01*
X136740322Y-131009193D01*
X136750547Y-130975757D01*
X136767144Y-130944983D01*
X136789467Y-130918072D01*
X136816643Y-130896074D01*
X136847614Y-130879846D01*
X136881170Y-130870022D01*
X136916002Y-130866986D01*
X136950834Y-130870022D01*
G36*
X136950834Y-130870022D02*
G01*
X136984390Y-130879846D01*
X137015361Y-130896074D01*
X137042538Y-130918072D01*
X137064860Y-130944983D01*
X137081457Y-130975757D01*
X137091682Y-131009193D01*
X137095135Y-131043987D01*
X137091682Y-131078780D01*
X137081457Y-131112216D01*
X137064860Y-131142990D01*
X137042538Y-131169901D01*
X137015361Y-131191900D01*
X136984390Y-131208127D01*
X136950834Y-131217951D01*
X136916002Y-131220987D01*
X136881170Y-131217951D01*
X136847614Y-131208127D01*
X136816643Y-131191900D01*
X136789467Y-131169901D01*
X136767144Y-131142990D01*
X136750547Y-131112216D01*
X136740322Y-131078780D01*
X136736869Y-131043987D01*
X136740322Y-131009193D01*
X136750547Y-130975757D01*
X136767144Y-130944983D01*
X136789467Y-130918072D01*
X136816643Y-130896074D01*
X136847614Y-130879846D01*
X136881170Y-130870022D01*
X136916002Y-130866986D01*
X136950834Y-130870022D01*
G37*
D14*
%TO.C,U17*%
X131400025Y-134420885D02*
X131400025Y-134274936D01*
X131400025Y-135370872D02*
X131400025Y-135329191D01*
X131400025Y-136320809D02*
X131400025Y-136279153D01*
X131400025Y-137374962D02*
X131400025Y-137229115D01*
X133200051Y-134274936D02*
X131400025Y-134274936D01*
X133200051Y-134420885D02*
X133200051Y-134274936D01*
X133200051Y-136320809D02*
X133200051Y-135329166D01*
X133200051Y-137374962D02*
X131400025Y-137374962D01*
X133200051Y-137374962D02*
X133200051Y-137229089D01*
D12*
X131953780Y-134633318D02*
X131987216Y-134643543D01*
X132017990Y-134660140D01*
X132044901Y-134682462D01*
X132066900Y-134709639D01*
X132083127Y-134740610D01*
X132092951Y-134774166D01*
X132095987Y-134808998D01*
X132092951Y-134843830D01*
X132083127Y-134877386D01*
X132066900Y-134908357D01*
X132044901Y-134935533D01*
X132017990Y-134957856D01*
X131987216Y-134974453D01*
X131953780Y-134984678D01*
X131918987Y-134988131D01*
X131884193Y-134984678D01*
X131850757Y-134974453D01*
X131819983Y-134957856D01*
X131793072Y-134935533D01*
X131771074Y-134908357D01*
X131754846Y-134877386D01*
X131745022Y-134843830D01*
X131741986Y-134808998D01*
X131745022Y-134774166D01*
X131754846Y-134740610D01*
X131771074Y-134709639D01*
X131793072Y-134682462D01*
X131819983Y-134660140D01*
X131850757Y-134643543D01*
X131884193Y-134633318D01*
X131918987Y-134629865D01*
X131953780Y-134633318D01*
G36*
X131953780Y-134633318D02*
G01*
X131987216Y-134643543D01*
X132017990Y-134660140D01*
X132044901Y-134682462D01*
X132066900Y-134709639D01*
X132083127Y-134740610D01*
X132092951Y-134774166D01*
X132095987Y-134808998D01*
X132092951Y-134843830D01*
X132083127Y-134877386D01*
X132066900Y-134908357D01*
X132044901Y-134935533D01*
X132017990Y-134957856D01*
X131987216Y-134974453D01*
X131953780Y-134984678D01*
X131918987Y-134988131D01*
X131884193Y-134984678D01*
X131850757Y-134974453D01*
X131819983Y-134957856D01*
X131793072Y-134935533D01*
X131771074Y-134908357D01*
X131754846Y-134877386D01*
X131745022Y-134843830D01*
X131741986Y-134808998D01*
X131745022Y-134774166D01*
X131754846Y-134740610D01*
X131771074Y-134709639D01*
X131793072Y-134682462D01*
X131819983Y-134660140D01*
X131850757Y-134643543D01*
X131884193Y-134633318D01*
X131918987Y-134629865D01*
X131953780Y-134633318D01*
G37*
D13*
%TO.C,Q4*%
X106973787Y-112473787D02*
X108005410Y-112473787D01*
X106973787Y-113926213D02*
X106973787Y-112473787D01*
X108955398Y-113926213D02*
X108044602Y-113926213D01*
X110026213Y-112473787D02*
X108994590Y-112473787D01*
X110026213Y-113926213D02*
X110026213Y-112473787D01*
D12*
%TO.C,P161*%
X103450000Y-143350000D02*
X105350000Y-143350000D01*
X103450000Y-145250000D02*
X103450000Y-143350000D01*
X105350000Y-143350000D02*
X105350000Y-145250000D01*
X105350000Y-145250000D02*
X103450000Y-145250000D01*
%TO.C,P153*%
X139395000Y-143350000D02*
X141295000Y-143350000D01*
X139395000Y-145250000D02*
X139395000Y-143350000D01*
X141295000Y-143350000D02*
X141295000Y-145250000D01*
X141295000Y-145250000D02*
X139395000Y-145250000D01*
%TO.C,C89*%
X110312164Y-141760000D02*
X110527836Y-141760000D01*
X110312164Y-142480000D02*
X110527836Y-142480000D01*
D13*
%TO.C,U14*%
X132478461Y-121023876D02*
X135521311Y-121023876D01*
X132478461Y-126176251D02*
X132478461Y-121023876D01*
X135521311Y-121023876D02*
X135521311Y-126176251D01*
X135521311Y-126176251D02*
X132478461Y-126176251D01*
D15*
X134919228Y-125505029D02*
G75*
G02*
X134619000Y-125505029I-150114J0D01*
G01*
X134619000Y-125505029D02*
G75*
G02*
X134919228Y-125505029I150114J0D01*
G01*
X136832614Y-126272365D02*
G75*
G02*
X136532384Y-126272365I-150115J0D01*
G01*
X136532384Y-126272365D02*
G75*
G02*
X136832614Y-126272365I150115J0D01*
G01*
D12*
%TO.C,U5*%
X106290000Y-125490000D02*
X106485000Y-125490000D01*
X106290000Y-131710000D02*
X106290000Y-125490000D01*
X106485000Y-131710000D02*
X106290000Y-131710000D01*
X111315000Y-125490000D02*
X111510000Y-125490000D01*
X111510000Y-125490000D02*
X111510000Y-131710000D01*
X111510000Y-131710000D02*
X111315000Y-131710000D01*
X107230000Y-132270000D02*
X106750000Y-132270000D01*
X106990000Y-131940000D01*
X107230000Y-132270000D01*
G36*
X107230000Y-132270000D02*
G01*
X106750000Y-132270000D01*
X106990000Y-131940000D01*
X107230000Y-132270000D01*
G37*
%TO.C,R46*%
X105685000Y-116271359D02*
X105685000Y-116578641D01*
X106445000Y-116271359D02*
X106445000Y-116578641D01*
D13*
%TO.C,L6*%
X137809779Y-101493091D02*
X137809779Y-102272873D01*
X137810846Y-103316967D02*
X137810846Y-102526873D01*
X137963221Y-103469393D02*
X137810846Y-103316967D01*
X137972339Y-101330531D02*
X137809779Y-101493091D01*
X138655601Y-101330531D02*
X137972339Y-101330531D01*
X138655626Y-103469393D02*
X137963221Y-103469393D01*
X138808001Y-101482931D02*
X138655601Y-101330531D01*
X138808001Y-102272873D02*
X138808001Y-101482931D01*
X138808001Y-102526873D02*
X138808001Y-103316967D01*
X138808001Y-103316967D02*
X138655626Y-103469393D01*
D17*
%TO.C,U1*%
X114749987Y-114749987D02*
X114749987Y-127250013D01*
X114749987Y-127250013D02*
X127250013Y-127250013D01*
X127250013Y-114749987D02*
X114749987Y-114749987D01*
X127250013Y-127250013D02*
X127250013Y-114749987D01*
D18*
X125950470Y-126250190D02*
G75*
G02*
X125950470Y-126245110I293249J2540D01*
G01*
D15*
X128696215Y-127883414D02*
G75*
G02*
X128696215Y-127880874I161288J1270D01*
G01*
D12*
%TO.C,P163*%
X109145000Y-143350000D02*
X111045000Y-143350000D01*
X109145000Y-145250000D02*
X109145000Y-143350000D01*
X111045000Y-143350000D02*
X111045000Y-145250000D01*
X111045000Y-145250000D02*
X109145000Y-145250000D01*
%TO.C,C52*%
X133065000Y-102892164D02*
X133065000Y-103107836D01*
X133785000Y-102892164D02*
X133785000Y-103107836D01*
%TO.C,TP10*%
X118145000Y-106295000D02*
X120045000Y-106295000D01*
X118145000Y-108195000D02*
X118145000Y-106295000D01*
X120045000Y-106295000D02*
X120045000Y-108195000D01*
X120045000Y-108195000D02*
X118145000Y-108195000D01*
%TO.C,P151*%
X133750000Y-143350000D02*
X135650000Y-143350000D01*
X133750000Y-145250000D02*
X133750000Y-143350000D01*
X135650000Y-143350000D02*
X135650000Y-145250000D01*
X135650000Y-145250000D02*
X133750000Y-145250000D01*
D11*
%TO.C,J21*%
X141469992Y-110900000D02*
X141469992Y-112643917D01*
X141469992Y-110900000D02*
X142498847Y-110900000D01*
X141469992Y-113706198D02*
X141469992Y-113893853D01*
X141469992Y-114956134D02*
X141469992Y-115143790D01*
X141469992Y-116206071D02*
X141469992Y-116393726D01*
X141469992Y-117456007D02*
X141469992Y-117643917D01*
X141469992Y-118706198D02*
X141469992Y-118893853D01*
X141469992Y-119956134D02*
X141469992Y-121700000D01*
X141469992Y-121700000D02*
X142498847Y-121700000D01*
X145570018Y-120591745D02*
X145570018Y-112008280D01*
D12*
X140888812Y-120264692D02*
X140946329Y-120282140D01*
X140999337Y-120310473D01*
X141045798Y-120348603D01*
X141083929Y-120395065D01*
X141112262Y-120448073D01*
X141129709Y-120505590D01*
X141135601Y-120565405D01*
X141129709Y-120625221D01*
X141112262Y-120682737D01*
X141083929Y-120735745D01*
X141045798Y-120782207D01*
X140999337Y-120820337D01*
X140946329Y-120848670D01*
X140888812Y-120866118D01*
X140828997Y-120872009D01*
X140769181Y-120866118D01*
X140711664Y-120848670D01*
X140658657Y-120820337D01*
X140612195Y-120782207D01*
X140574065Y-120735745D01*
X140545732Y-120682737D01*
X140528284Y-120625221D01*
X140522393Y-120565405D01*
X140528284Y-120505590D01*
X140545732Y-120448073D01*
X140574065Y-120395065D01*
X140612195Y-120348603D01*
X140658657Y-120310473D01*
X140711664Y-120282140D01*
X140769181Y-120264692D01*
X140828997Y-120258801D01*
X140888812Y-120264692D01*
G36*
X140888812Y-120264692D02*
G01*
X140946329Y-120282140D01*
X140999337Y-120310473D01*
X141045798Y-120348603D01*
X141083929Y-120395065D01*
X141112262Y-120448073D01*
X141129709Y-120505590D01*
X141135601Y-120565405D01*
X141129709Y-120625221D01*
X141112262Y-120682737D01*
X141083929Y-120735745D01*
X141045798Y-120782207D01*
X140999337Y-120820337D01*
X140946329Y-120848670D01*
X140888812Y-120866118D01*
X140828997Y-120872009D01*
X140769181Y-120866118D01*
X140711664Y-120848670D01*
X140658657Y-120820337D01*
X140612195Y-120782207D01*
X140574065Y-120735745D01*
X140545732Y-120682737D01*
X140528284Y-120625221D01*
X140522393Y-120565405D01*
X140528284Y-120505590D01*
X140545732Y-120448073D01*
X140574065Y-120395065D01*
X140612195Y-120348603D01*
X140658657Y-120310473D01*
X140711664Y-120282140D01*
X140769181Y-120264692D01*
X140828997Y-120258801D01*
X140888812Y-120264692D01*
G37*
%TO.C,P152*%
X136450000Y-143350000D02*
X138350000Y-143350000D01*
X136450000Y-145250000D02*
X136450000Y-143350000D01*
X138350000Y-143350000D02*
X138350000Y-145250000D01*
X138350000Y-145250000D02*
X136450000Y-145250000D01*
%TO.C,C26*%
X121897164Y-137345000D02*
X122112836Y-137345000D01*
X121897164Y-138065000D02*
X122112836Y-138065000D01*
%TO.C,C67*%
X115695000Y-110797164D02*
X115695000Y-111012836D01*
X116415000Y-110797164D02*
X116415000Y-111012836D01*
D13*
%TO.C,U19*%
X124878813Y-136528800D02*
X126531213Y-136528800D01*
X124878813Y-137681200D02*
X124878813Y-136528800D01*
X126531213Y-136528800D02*
X126531213Y-137681200D01*
X126531213Y-137681200D02*
X124878813Y-137681200D01*
D14*
X124993037Y-137867002D02*
G75*
G02*
X124892959Y-137867002I-50039J0D01*
G01*
X124892959Y-137867002D02*
G75*
G02*
X124993037Y-137867002I50039J0D01*
G01*
D12*
%TO.C,R52*%
X138185000Y-119021359D02*
X138185000Y-119328641D01*
X138945000Y-119021359D02*
X138945000Y-119328641D01*
%TO.C,C73*%
X126612836Y-130845000D02*
X126397164Y-130845000D01*
X126612836Y-131565000D02*
X126397164Y-131565000D01*
%TO.C,L2*%
X111290000Y-133490000D02*
X115510000Y-133490000D01*
X115510000Y-137710000D02*
X111290000Y-137710000D01*
%TO.C,C18*%
X122183748Y-130235000D02*
X123606252Y-130235000D01*
X122183748Y-132055000D02*
X123606252Y-132055000D01*
%TO.C,R29*%
X137928641Y-114585000D02*
X137621359Y-114585000D01*
X137928641Y-115345000D02*
X137621359Y-115345000D01*
%TO.C,C79*%
X129945000Y-132762836D02*
X129945000Y-132547164D01*
X130665000Y-132762836D02*
X130665000Y-132547164D01*
%TO.C,SW2*%
X124845000Y-107995000D02*
X124845000Y-108295000D01*
X124845000Y-110795000D02*
X124845000Y-110495000D01*
X128145000Y-107995000D02*
X124845000Y-107995000D01*
X128145000Y-108295000D02*
X128145000Y-107995000D01*
X128145000Y-110495000D02*
X128145000Y-110795000D01*
X128145000Y-110795000D02*
X124845000Y-110795000D01*
%TO.C,R42*%
X128185000Y-131771359D02*
X128185000Y-132078641D01*
X128945000Y-131771359D02*
X128945000Y-132078641D01*
%TO.C,R15*%
X125621359Y-106335000D02*
X125928641Y-106335000D01*
X125621359Y-107095000D02*
X125928641Y-107095000D01*
%TO.C,C49*%
X125362836Y-111345000D02*
X125147164Y-111345000D01*
X125362836Y-112065000D02*
X125147164Y-112065000D01*
D13*
%TO.C,Q1*%
X100173787Y-136273787D02*
X100173787Y-137726213D01*
X100173787Y-137726213D02*
X101205410Y-137726213D01*
X101244602Y-136273787D02*
X102155398Y-136273787D01*
X103226213Y-136273787D02*
X103226213Y-137726213D01*
X103226213Y-137726213D02*
X102194590Y-137726213D01*
D12*
%TO.C,TP3*%
X131395000Y-129545000D02*
X133295000Y-129545000D01*
X131395000Y-131445000D02*
X131395000Y-129545000D01*
X133295000Y-129545000D02*
X133295000Y-131445000D01*
X133295000Y-131445000D02*
X131395000Y-131445000D01*
%TO.C,C75*%
X138112836Y-117095000D02*
X137897164Y-117095000D01*
X138112836Y-117815000D02*
X137897164Y-117815000D01*
%TO.C,TP9*%
X134645000Y-103045000D02*
X136545000Y-103045000D01*
X134645000Y-104945000D02*
X134645000Y-103045000D01*
X136545000Y-103045000D02*
X136545000Y-104945000D01*
X136545000Y-104945000D02*
X134645000Y-104945000D01*
%TO.C,R35*%
X136928641Y-112335000D02*
X136621359Y-112335000D01*
X136928641Y-113095000D02*
X136621359Y-113095000D01*
%TO.C,R23*%
X109621359Y-132335000D02*
X109928641Y-132335000D01*
X109621359Y-133095000D02*
X109928641Y-133095000D01*
D11*
%TO.C,U9*%
X120875997Y-133901499D02*
X120875997Y-135298501D01*
X122018999Y-133710998D02*
X122781001Y-133710998D01*
X123797003Y-134177572D02*
X123797003Y-135022352D01*
D12*
%TO.C,C66*%
X126612836Y-132095000D02*
X126397164Y-132095000D01*
X126612836Y-132815000D02*
X126397164Y-132815000D01*
%TO.C,TP4*%
X108395000Y-102795000D02*
X110295000Y-102795000D01*
X108395000Y-104695000D02*
X108395000Y-102795000D01*
X110295000Y-102795000D02*
X110295000Y-104695000D01*
X110295000Y-104695000D02*
X108395000Y-104695000D01*
%TO.C,R27*%
X109621359Y-133585000D02*
X109928641Y-133585000D01*
X109621359Y-134345000D02*
X109928641Y-134345000D01*
%TO.C,C93*%
X129340000Y-107183748D02*
X129340000Y-107706252D01*
X130810000Y-107183748D02*
X130810000Y-107706252D01*
%TO.C,P162*%
X106395000Y-143350000D02*
X108295000Y-143350000D01*
X106395000Y-145250000D02*
X106395000Y-143350000D01*
X108295000Y-143350000D02*
X108295000Y-145250000D01*
X108295000Y-145250000D02*
X106395000Y-145250000D01*
D11*
%TO.C,U22*%
X112400000Y-100950089D02*
X114200025Y-100950089D01*
X112400000Y-104050114D02*
X114200025Y-104050114D01*
X114824003Y-104151003D02*
G75*
G02*
X114570003Y-104151003I-127000J0D01*
G01*
X114570003Y-104151003D02*
G75*
G02*
X114824003Y-104151003I127000J0D01*
G01*
%TO.C,J1*%
X141387599Y-124427915D02*
X140792997Y-124427915D01*
X142688032Y-133499924D02*
X142322600Y-133499924D01*
X145600000Y-124427915D02*
X144842032Y-124427915D01*
X145600000Y-133499924D02*
X144842032Y-133499924D01*
%TO.C,J2*%
X99749987Y-112211100D02*
X99749987Y-122900000D01*
X103849987Y-110950013D02*
X102481153Y-110950013D01*
X103849987Y-112693828D02*
X103849987Y-110950013D01*
X103849987Y-113943840D02*
X103849987Y-113756109D01*
X103849987Y-115193828D02*
X103849987Y-115006121D01*
X103849987Y-116443840D02*
X103849987Y-116256109D01*
X103849987Y-117693828D02*
X103849987Y-117506121D01*
X103849987Y-118943840D02*
X103849987Y-118756109D01*
X103849987Y-120193853D02*
X103849987Y-120006121D01*
X103849987Y-121443840D02*
X103849987Y-121256134D01*
X103849987Y-122506121D02*
X103849987Y-124200000D01*
X103849987Y-124200000D02*
X102481153Y-124200000D01*
D19*
X104749987Y-112100000D02*
G75*
G02*
X104350191Y-112100000I-199898J0D01*
G01*
X104350191Y-112100000D02*
G75*
G02*
X104749987Y-112100000I199898J0D01*
G01*
D12*
%TO.C,U8*%
X119550000Y-135900000D02*
G75*
G02*
X119350000Y-135900000I-100000J0D01*
G01*
X119350000Y-135900000D02*
G75*
G02*
X119550000Y-135900000I100000J0D01*
G01*
%TO.C,R24*%
X111185000Y-118328641D02*
X111185000Y-118021359D01*
X111945000Y-118328641D02*
X111945000Y-118021359D01*
%TO.C,R4*%
X118428641Y-136585000D02*
X118121359Y-136585000D01*
X118428641Y-137345000D02*
X118121359Y-137345000D01*
%TO.C,R51*%
X138435000Y-122078641D02*
X138435000Y-121771359D01*
X139195000Y-122078641D02*
X139195000Y-121771359D01*
%TO.C,J19*%
X114570000Y-109670000D02*
X114570000Y-110305000D01*
X114570000Y-110305000D02*
X113935000Y-110305000D01*
%TO.C,C36*%
X105695000Y-124012836D02*
X105695000Y-123797164D01*
X106415000Y-124012836D02*
X106415000Y-123797164D01*
%TD*%
M02*
