%TF.GenerationSoftware,KiCad,Pcbnew,9.0.8+dfsg-1*%
%TF.CreationDate,2026-09-18T17:21:33+01:00*%
%TF.ProjectId,NAVCORE-SoOP,4e415643-4f52-4452-9d53-6f4f502e6b69,rev?*%
%TF.SameCoordinates,Original*%
%TF.FileFunction,Legend,Top*%
%TF.FilePolarity,Positive*%
%FSLAX46Y46*%
G04 Gerber Fmt 4.6, Leading zero omitted, Abs format (unit mm)*
G04 Created by KiCad (PCBNEW 9.0.8+dfsg-1) date 2026-09-18 17:21:33*
%MOMM*%
%LPD*%
G01*
G04 APERTURE LIST*
%ADD10C,0.120000*%
%ADD11C,0.150000*%
%ADD12C,0.254001*%
%ADD13C,0.248920*%
%ADD14C,0.152400*%
%ADD15C,0.100000*%
%ADD16C,0.300000*%
%ADD17C,0.200000*%
%ADD18C,0.600000*%
%ADD19C,0.150013*%
G04 APERTURE END LIST*
D10*
X134463333Y-126483855D02*
X134463333Y-127055283D01*
X134463333Y-127055283D02*
X134425238Y-127169569D01*
X134425238Y-127169569D02*
X134349047Y-127245760D01*
X134349047Y-127245760D02*
X134234762Y-127283855D01*
X134234762Y-127283855D02*
X134158571Y-127283855D01*
X134768095Y-126483855D02*
X135263333Y-126483855D01*
X135263333Y-126483855D02*
X134996667Y-126788617D01*
X134996667Y-126788617D02*
X135110952Y-126788617D01*
X135110952Y-126788617D02*
X135187143Y-126826712D01*
X135187143Y-126826712D02*
X135225238Y-126864807D01*
X135225238Y-126864807D02*
X135263333Y-126940998D01*
X135263333Y-126940998D02*
X135263333Y-127131474D01*
X135263333Y-127131474D02*
X135225238Y-127207664D01*
X135225238Y-127207664D02*
X135187143Y-127245760D01*
X135187143Y-127245760D02*
X135110952Y-127283855D01*
X135110952Y-127283855D02*
X134882381Y-127283855D01*
X134882381Y-127283855D02*
X134806190Y-127245760D01*
X134806190Y-127245760D02*
X134768095Y-127207664D01*
D11*
X107782143Y-103682079D02*
X107734524Y-103729699D01*
X107734524Y-103729699D02*
X107591667Y-103777318D01*
X107591667Y-103777318D02*
X107496429Y-103777318D01*
X107496429Y-103777318D02*
X107353572Y-103729699D01*
X107353572Y-103729699D02*
X107258334Y-103634460D01*
X107258334Y-103634460D02*
X107210715Y-103539222D01*
X107210715Y-103539222D02*
X107163096Y-103348746D01*
X107163096Y-103348746D02*
X107163096Y-103205889D01*
X107163096Y-103205889D02*
X107210715Y-103015413D01*
X107210715Y-103015413D02*
X107258334Y-102920175D01*
X107258334Y-102920175D02*
X107353572Y-102824937D01*
X107353572Y-102824937D02*
X107496429Y-102777318D01*
X107496429Y-102777318D02*
X107591667Y-102777318D01*
X107591667Y-102777318D02*
X107734524Y-102824937D01*
X107734524Y-102824937D02*
X107782143Y-102872556D01*
X108115477Y-102777318D02*
X108782143Y-102777318D01*
X108782143Y-102777318D02*
X108353572Y-103777318D01*
X109067858Y-102777318D02*
X109734524Y-102777318D01*
X109734524Y-102777318D02*
X109305953Y-103777318D01*
D10*
X107291371Y-118346663D02*
X107862799Y-118346663D01*
X107862799Y-118346663D02*
X107977085Y-118384758D01*
X107977085Y-118384758D02*
X108053276Y-118460949D01*
X108053276Y-118460949D02*
X108091371Y-118575234D01*
X108091371Y-118575234D02*
X108091371Y-118651425D01*
X107367561Y-118003806D02*
X107329466Y-117965710D01*
X107329466Y-117965710D02*
X107291371Y-117889520D01*
X107291371Y-117889520D02*
X107291371Y-117699044D01*
X107291371Y-117699044D02*
X107329466Y-117622853D01*
X107329466Y-117622853D02*
X107367561Y-117584758D01*
X107367561Y-117584758D02*
X107443752Y-117546663D01*
X107443752Y-117546663D02*
X107519942Y-117546663D01*
X107519942Y-117546663D02*
X107634228Y-117584758D01*
X107634228Y-117584758D02*
X108091371Y-118041901D01*
X108091371Y-118041901D02*
X108091371Y-117546663D01*
X118978571Y-135461855D02*
X118978571Y-134661855D01*
X118978571Y-134661855D02*
X119283333Y-134661855D01*
X119283333Y-134661855D02*
X119359523Y-134699950D01*
X119359523Y-134699950D02*
X119397618Y-134738045D01*
X119397618Y-134738045D02*
X119435714Y-134814236D01*
X119435714Y-134814236D02*
X119435714Y-134928521D01*
X119435714Y-134928521D02*
X119397618Y-135004712D01*
X119397618Y-135004712D02*
X119359523Y-135042807D01*
X119359523Y-135042807D02*
X119283333Y-135080902D01*
X119283333Y-135080902D02*
X118978571Y-135080902D01*
X119702380Y-134661855D02*
X120235714Y-134661855D01*
X120235714Y-134661855D02*
X119702380Y-135461855D01*
X119702380Y-135461855D02*
X120235714Y-135461855D01*
X120502380Y-134738045D02*
X120540476Y-134699950D01*
X120540476Y-134699950D02*
X120616666Y-134661855D01*
X120616666Y-134661855D02*
X120807142Y-134661855D01*
X120807142Y-134661855D02*
X120883333Y-134699950D01*
X120883333Y-134699950D02*
X120921428Y-134738045D01*
X120921428Y-134738045D02*
X120959523Y-134814236D01*
X120959523Y-134814236D02*
X120959523Y-134890426D01*
X120959523Y-134890426D02*
X120921428Y-135004712D01*
X120921428Y-135004712D02*
X120464285Y-135461855D01*
X120464285Y-135461855D02*
X120959523Y-135461855D01*
X133135714Y-126661855D02*
X133135714Y-125861855D01*
X133135714Y-125861855D02*
X133440476Y-125861855D01*
X133440476Y-125861855D02*
X133516666Y-125899950D01*
X133516666Y-125899950D02*
X133554761Y-125938045D01*
X133554761Y-125938045D02*
X133592857Y-126014236D01*
X133592857Y-126014236D02*
X133592857Y-126128521D01*
X133592857Y-126128521D02*
X133554761Y-126204712D01*
X133554761Y-126204712D02*
X133516666Y-126242807D01*
X133516666Y-126242807D02*
X133440476Y-126280902D01*
X133440476Y-126280902D02*
X133135714Y-126280902D01*
X134316666Y-126661855D02*
X133935714Y-126661855D01*
X133935714Y-126661855D02*
X133935714Y-125861855D01*
X134507142Y-125861855D02*
X135002380Y-125861855D01*
X135002380Y-125861855D02*
X134735714Y-126166617D01*
X134735714Y-126166617D02*
X134849999Y-126166617D01*
X134849999Y-126166617D02*
X134926190Y-126204712D01*
X134926190Y-126204712D02*
X134964285Y-126242807D01*
X134964285Y-126242807D02*
X135002380Y-126318998D01*
X135002380Y-126318998D02*
X135002380Y-126509474D01*
X135002380Y-126509474D02*
X134964285Y-126585664D01*
X134964285Y-126585664D02*
X134926190Y-126623760D01*
X134926190Y-126623760D02*
X134849999Y-126661855D01*
X134849999Y-126661855D02*
X134621428Y-126661855D01*
X134621428Y-126661855D02*
X134545237Y-126623760D01*
X134545237Y-126623760D02*
X134507142Y-126585664D01*
D11*
X102522141Y-110402320D02*
X102188808Y-109926129D01*
X101950713Y-110402320D02*
X101950713Y-109402320D01*
X101950713Y-109402320D02*
X102331665Y-109402320D01*
X102331665Y-109402320D02*
X102426903Y-109449939D01*
X102426903Y-109449939D02*
X102474522Y-109497558D01*
X102474522Y-109497558D02*
X102522141Y-109592796D01*
X102522141Y-109592796D02*
X102522141Y-109735653D01*
X102522141Y-109735653D02*
X102474522Y-109830891D01*
X102474522Y-109830891D02*
X102426903Y-109878510D01*
X102426903Y-109878510D02*
X102331665Y-109926129D01*
X102331665Y-109926129D02*
X101950713Y-109926129D01*
X103426903Y-109402320D02*
X102950713Y-109402320D01*
X102950713Y-109402320D02*
X102903094Y-109878510D01*
X102903094Y-109878510D02*
X102950713Y-109830891D01*
X102950713Y-109830891D02*
X103045951Y-109783272D01*
X103045951Y-109783272D02*
X103284046Y-109783272D01*
X103284046Y-109783272D02*
X103379284Y-109830891D01*
X103379284Y-109830891D02*
X103426903Y-109878510D01*
X103426903Y-109878510D02*
X103474522Y-109973748D01*
X103474522Y-109973748D02*
X103474522Y-110211843D01*
X103474522Y-110211843D02*
X103426903Y-110307081D01*
X103426903Y-110307081D02*
X103379284Y-110354701D01*
X103379284Y-110354701D02*
X103284046Y-110402320D01*
X103284046Y-110402320D02*
X103045951Y-110402320D01*
X103045951Y-110402320D02*
X102950713Y-110354701D01*
X102950713Y-110354701D02*
X102903094Y-110307081D01*
X104093570Y-109402320D02*
X104188808Y-109402320D01*
X104188808Y-109402320D02*
X104284046Y-109449939D01*
X104284046Y-109449939D02*
X104331665Y-109497558D01*
X104331665Y-109497558D02*
X104379284Y-109592796D01*
X104379284Y-109592796D02*
X104426903Y-109783272D01*
X104426903Y-109783272D02*
X104426903Y-110021367D01*
X104426903Y-110021367D02*
X104379284Y-110211843D01*
X104379284Y-110211843D02*
X104331665Y-110307081D01*
X104331665Y-110307081D02*
X104284046Y-110354701D01*
X104284046Y-110354701D02*
X104188808Y-110402320D01*
X104188808Y-110402320D02*
X104093570Y-110402320D01*
X104093570Y-110402320D02*
X103998332Y-110354701D01*
X103998332Y-110354701D02*
X103950713Y-110307081D01*
X103950713Y-110307081D02*
X103903094Y-110211843D01*
X103903094Y-110211843D02*
X103855475Y-110021367D01*
X103855475Y-110021367D02*
X103855475Y-109783272D01*
X103855475Y-109783272D02*
X103903094Y-109592796D01*
X103903094Y-109592796D02*
X103950713Y-109497558D01*
X103950713Y-109497558D02*
X103998332Y-109449939D01*
X103998332Y-109449939D02*
X104093570Y-109402320D01*
D10*
X134413880Y-125817153D02*
X135061499Y-125817153D01*
X135061499Y-125817153D02*
X135137689Y-125779058D01*
X135137689Y-125779058D02*
X135175785Y-125740963D01*
X135175785Y-125740963D02*
X135213880Y-125664772D01*
X135213880Y-125664772D02*
X135213880Y-125512391D01*
X135213880Y-125512391D02*
X135175785Y-125436201D01*
X135175785Y-125436201D02*
X135137689Y-125398106D01*
X135137689Y-125398106D02*
X135061499Y-125360010D01*
X135061499Y-125360010D02*
X134413880Y-125360010D01*
X135213880Y-124940963D02*
X135213880Y-124788582D01*
X135213880Y-124788582D02*
X135175785Y-124712392D01*
X135175785Y-124712392D02*
X135137689Y-124674296D01*
X135137689Y-124674296D02*
X135023404Y-124598106D01*
X135023404Y-124598106D02*
X134871023Y-124560011D01*
X134871023Y-124560011D02*
X134566261Y-124560011D01*
X134566261Y-124560011D02*
X134490070Y-124598106D01*
X134490070Y-124598106D02*
X134451975Y-124636201D01*
X134451975Y-124636201D02*
X134413880Y-124712392D01*
X134413880Y-124712392D02*
X134413880Y-124864773D01*
X134413880Y-124864773D02*
X134451975Y-124940963D01*
X134451975Y-124940963D02*
X134490070Y-124979058D01*
X134490070Y-124979058D02*
X134566261Y-125017154D01*
X134566261Y-125017154D02*
X134756737Y-125017154D01*
X134756737Y-125017154D02*
X134832927Y-124979058D01*
X134832927Y-124979058D02*
X134871023Y-124940963D01*
X134871023Y-124940963D02*
X134909118Y-124864773D01*
X134909118Y-124864773D02*
X134909118Y-124712392D01*
X134909118Y-124712392D02*
X134871023Y-124636201D01*
X134871023Y-124636201D02*
X134832927Y-124598106D01*
X134832927Y-124598106D02*
X134756737Y-124560011D01*
X120959524Y-138793855D02*
X120959524Y-137993855D01*
X120959524Y-137993855D02*
X121150000Y-137993855D01*
X121150000Y-137993855D02*
X121264286Y-138031950D01*
X121264286Y-138031950D02*
X121340476Y-138108140D01*
X121340476Y-138108140D02*
X121378571Y-138184331D01*
X121378571Y-138184331D02*
X121416667Y-138336712D01*
X121416667Y-138336712D02*
X121416667Y-138450998D01*
X121416667Y-138450998D02*
X121378571Y-138603379D01*
X121378571Y-138603379D02*
X121340476Y-138679569D01*
X121340476Y-138679569D02*
X121264286Y-138755760D01*
X121264286Y-138755760D02*
X121150000Y-138793855D01*
X121150000Y-138793855D02*
X120959524Y-138793855D01*
X121721428Y-138070045D02*
X121759524Y-138031950D01*
X121759524Y-138031950D02*
X121835714Y-137993855D01*
X121835714Y-137993855D02*
X122026190Y-137993855D01*
X122026190Y-137993855D02*
X122102381Y-138031950D01*
X122102381Y-138031950D02*
X122140476Y-138070045D01*
X122140476Y-138070045D02*
X122178571Y-138146236D01*
X122178571Y-138146236D02*
X122178571Y-138222426D01*
X122178571Y-138222426D02*
X122140476Y-138336712D01*
X122140476Y-138336712D02*
X121683333Y-138793855D01*
X121683333Y-138793855D02*
X122178571Y-138793855D01*
X116959524Y-128883855D02*
X116959524Y-128083855D01*
X116959524Y-128083855D02*
X117150000Y-128083855D01*
X117150000Y-128083855D02*
X117264286Y-128121950D01*
X117264286Y-128121950D02*
X117340476Y-128198140D01*
X117340476Y-128198140D02*
X117378571Y-128274331D01*
X117378571Y-128274331D02*
X117416667Y-128426712D01*
X117416667Y-128426712D02*
X117416667Y-128540998D01*
X117416667Y-128540998D02*
X117378571Y-128693379D01*
X117378571Y-128693379D02*
X117340476Y-128769569D01*
X117340476Y-128769569D02*
X117264286Y-128845760D01*
X117264286Y-128845760D02*
X117150000Y-128883855D01*
X117150000Y-128883855D02*
X116959524Y-128883855D01*
X117683333Y-128083855D02*
X118178571Y-128083855D01*
X118178571Y-128083855D02*
X117911905Y-128388617D01*
X117911905Y-128388617D02*
X118026190Y-128388617D01*
X118026190Y-128388617D02*
X118102381Y-128426712D01*
X118102381Y-128426712D02*
X118140476Y-128464807D01*
X118140476Y-128464807D02*
X118178571Y-128540998D01*
X118178571Y-128540998D02*
X118178571Y-128731474D01*
X118178571Y-128731474D02*
X118140476Y-128807664D01*
X118140476Y-128807664D02*
X118102381Y-128845760D01*
X118102381Y-128845760D02*
X118026190Y-128883855D01*
X118026190Y-128883855D02*
X117797619Y-128883855D01*
X117797619Y-128883855D02*
X117721428Y-128845760D01*
X117721428Y-128845760D02*
X117683333Y-128807664D01*
D11*
X104792143Y-110267318D02*
X104458810Y-109791127D01*
X104220715Y-110267318D02*
X104220715Y-109267318D01*
X104220715Y-109267318D02*
X104601667Y-109267318D01*
X104601667Y-109267318D02*
X104696905Y-109314937D01*
X104696905Y-109314937D02*
X104744524Y-109362556D01*
X104744524Y-109362556D02*
X104792143Y-109457794D01*
X104792143Y-109457794D02*
X104792143Y-109600651D01*
X104792143Y-109600651D02*
X104744524Y-109695889D01*
X104744524Y-109695889D02*
X104696905Y-109743508D01*
X104696905Y-109743508D02*
X104601667Y-109791127D01*
X104601667Y-109791127D02*
X104220715Y-109791127D01*
X105649286Y-109600651D02*
X105649286Y-110267318D01*
X105411191Y-109219699D02*
X105173096Y-109933984D01*
X105173096Y-109933984D02*
X105792143Y-109933984D01*
X106315953Y-109695889D02*
X106220715Y-109648270D01*
X106220715Y-109648270D02*
X106173096Y-109600651D01*
X106173096Y-109600651D02*
X106125477Y-109505413D01*
X106125477Y-109505413D02*
X106125477Y-109457794D01*
X106125477Y-109457794D02*
X106173096Y-109362556D01*
X106173096Y-109362556D02*
X106220715Y-109314937D01*
X106220715Y-109314937D02*
X106315953Y-109267318D01*
X106315953Y-109267318D02*
X106506429Y-109267318D01*
X106506429Y-109267318D02*
X106601667Y-109314937D01*
X106601667Y-109314937D02*
X106649286Y-109362556D01*
X106649286Y-109362556D02*
X106696905Y-109457794D01*
X106696905Y-109457794D02*
X106696905Y-109505413D01*
X106696905Y-109505413D02*
X106649286Y-109600651D01*
X106649286Y-109600651D02*
X106601667Y-109648270D01*
X106601667Y-109648270D02*
X106506429Y-109695889D01*
X106506429Y-109695889D02*
X106315953Y-109695889D01*
X106315953Y-109695889D02*
X106220715Y-109743508D01*
X106220715Y-109743508D02*
X106173096Y-109791127D01*
X106173096Y-109791127D02*
X106125477Y-109886365D01*
X106125477Y-109886365D02*
X106125477Y-110076841D01*
X106125477Y-110076841D02*
X106173096Y-110172079D01*
X106173096Y-110172079D02*
X106220715Y-110219699D01*
X106220715Y-110219699D02*
X106315953Y-110267318D01*
X106315953Y-110267318D02*
X106506429Y-110267318D01*
X106506429Y-110267318D02*
X106601667Y-110219699D01*
X106601667Y-110219699D02*
X106649286Y-110172079D01*
X106649286Y-110172079D02*
X106696905Y-110076841D01*
X106696905Y-110076841D02*
X106696905Y-109886365D01*
X106696905Y-109886365D02*
X106649286Y-109791127D01*
X106649286Y-109791127D02*
X106601667Y-109743508D01*
X106601667Y-109743508D02*
X106506429Y-109695889D01*
D10*
X121509524Y-138814993D02*
X121509524Y-139462612D01*
X121509524Y-139462612D02*
X121547619Y-139538802D01*
X121547619Y-139538802D02*
X121585714Y-139576898D01*
X121585714Y-139576898D02*
X121661905Y-139614993D01*
X121661905Y-139614993D02*
X121814286Y-139614993D01*
X121814286Y-139614993D02*
X121890476Y-139576898D01*
X121890476Y-139576898D02*
X121928571Y-139538802D01*
X121928571Y-139538802D02*
X121966667Y-139462612D01*
X121966667Y-139462612D02*
X121966667Y-138814993D01*
X122766666Y-139614993D02*
X122309523Y-139614993D01*
X122538095Y-139614993D02*
X122538095Y-138814993D01*
X122538095Y-138814993D02*
X122461904Y-138929278D01*
X122461904Y-138929278D02*
X122385714Y-139005469D01*
X122385714Y-139005469D02*
X122309523Y-139043564D01*
X123261905Y-138814993D02*
X123338095Y-138814993D01*
X123338095Y-138814993D02*
X123414286Y-138853088D01*
X123414286Y-138853088D02*
X123452381Y-138891183D01*
X123452381Y-138891183D02*
X123490476Y-138967374D01*
X123490476Y-138967374D02*
X123528571Y-139119755D01*
X123528571Y-139119755D02*
X123528571Y-139310231D01*
X123528571Y-139310231D02*
X123490476Y-139462612D01*
X123490476Y-139462612D02*
X123452381Y-139538802D01*
X123452381Y-139538802D02*
X123414286Y-139576898D01*
X123414286Y-139576898D02*
X123338095Y-139614993D01*
X123338095Y-139614993D02*
X123261905Y-139614993D01*
X123261905Y-139614993D02*
X123185714Y-139576898D01*
X123185714Y-139576898D02*
X123147619Y-139538802D01*
X123147619Y-139538802D02*
X123109524Y-139462612D01*
X123109524Y-139462612D02*
X123071428Y-139310231D01*
X123071428Y-139310231D02*
X123071428Y-139119755D01*
X123071428Y-139119755D02*
X123109524Y-138967374D01*
X123109524Y-138967374D02*
X123147619Y-138891183D01*
X123147619Y-138891183D02*
X123185714Y-138853088D01*
X123185714Y-138853088D02*
X123261905Y-138814993D01*
X131859524Y-138213893D02*
X131859524Y-138861512D01*
X131859524Y-138861512D02*
X131897619Y-138937702D01*
X131897619Y-138937702D02*
X131935714Y-138975798D01*
X131935714Y-138975798D02*
X132011905Y-139013893D01*
X132011905Y-139013893D02*
X132164286Y-139013893D01*
X132164286Y-139013893D02*
X132240476Y-138975798D01*
X132240476Y-138975798D02*
X132278571Y-138937702D01*
X132278571Y-138937702D02*
X132316667Y-138861512D01*
X132316667Y-138861512D02*
X132316667Y-138213893D01*
X133116666Y-139013893D02*
X132659523Y-139013893D01*
X132888095Y-139013893D02*
X132888095Y-138213893D01*
X132888095Y-138213893D02*
X132811904Y-138328178D01*
X132811904Y-138328178D02*
X132735714Y-138404369D01*
X132735714Y-138404369D02*
X132659523Y-138442464D01*
X133383333Y-138213893D02*
X133916667Y-138213893D01*
X133916667Y-138213893D02*
X133573809Y-139013893D01*
D11*
X102262138Y-103767318D02*
X101928805Y-103291127D01*
X101690710Y-103767318D02*
X101690710Y-102767318D01*
X101690710Y-102767318D02*
X102071662Y-102767318D01*
X102071662Y-102767318D02*
X102166900Y-102814937D01*
X102166900Y-102814937D02*
X102214519Y-102862556D01*
X102214519Y-102862556D02*
X102262138Y-102957794D01*
X102262138Y-102957794D02*
X102262138Y-103100651D01*
X102262138Y-103100651D02*
X102214519Y-103195889D01*
X102214519Y-103195889D02*
X102166900Y-103243508D01*
X102166900Y-103243508D02*
X102071662Y-103291127D01*
X102071662Y-103291127D02*
X101690710Y-103291127D01*
X103166900Y-102767318D02*
X102690710Y-102767318D01*
X102690710Y-102767318D02*
X102643091Y-103243508D01*
X102643091Y-103243508D02*
X102690710Y-103195889D01*
X102690710Y-103195889D02*
X102785948Y-103148270D01*
X102785948Y-103148270D02*
X103024043Y-103148270D01*
X103024043Y-103148270D02*
X103119281Y-103195889D01*
X103119281Y-103195889D02*
X103166900Y-103243508D01*
X103166900Y-103243508D02*
X103214519Y-103338746D01*
X103214519Y-103338746D02*
X103214519Y-103576841D01*
X103214519Y-103576841D02*
X103166900Y-103672079D01*
X103166900Y-103672079D02*
X103119281Y-103719699D01*
X103119281Y-103719699D02*
X103024043Y-103767318D01*
X103024043Y-103767318D02*
X102785948Y-103767318D01*
X102785948Y-103767318D02*
X102690710Y-103719699D01*
X102690710Y-103719699D02*
X102643091Y-103672079D01*
X103547853Y-102767318D02*
X104166900Y-102767318D01*
X104166900Y-102767318D02*
X103833567Y-103148270D01*
X103833567Y-103148270D02*
X103976424Y-103148270D01*
X103976424Y-103148270D02*
X104071662Y-103195889D01*
X104071662Y-103195889D02*
X104119281Y-103243508D01*
X104119281Y-103243508D02*
X104166900Y-103338746D01*
X104166900Y-103338746D02*
X104166900Y-103576841D01*
X104166900Y-103576841D02*
X104119281Y-103672079D01*
X104119281Y-103672079D02*
X104071662Y-103719699D01*
X104071662Y-103719699D02*
X103976424Y-103767318D01*
X103976424Y-103767318D02*
X103690710Y-103767318D01*
X103690710Y-103767318D02*
X103595472Y-103719699D01*
X103595472Y-103719699D02*
X103547853Y-103672079D01*
D10*
X136430476Y-112133756D02*
X136430476Y-112781375D01*
X136430476Y-112781375D02*
X136468571Y-112857565D01*
X136468571Y-112857565D02*
X136506666Y-112895661D01*
X136506666Y-112895661D02*
X136582857Y-112933756D01*
X136582857Y-112933756D02*
X136735238Y-112933756D01*
X136735238Y-112933756D02*
X136811428Y-112895661D01*
X136811428Y-112895661D02*
X136849523Y-112857565D01*
X136849523Y-112857565D02*
X136887619Y-112781375D01*
X136887619Y-112781375D02*
X136887619Y-112133756D01*
X137649523Y-112133756D02*
X137268571Y-112133756D01*
X137268571Y-112133756D02*
X137230475Y-112514708D01*
X137230475Y-112514708D02*
X137268571Y-112476613D01*
X137268571Y-112476613D02*
X137344761Y-112438518D01*
X137344761Y-112438518D02*
X137535237Y-112438518D01*
X137535237Y-112438518D02*
X137611428Y-112476613D01*
X137611428Y-112476613D02*
X137649523Y-112514708D01*
X137649523Y-112514708D02*
X137687618Y-112590899D01*
X137687618Y-112590899D02*
X137687618Y-112781375D01*
X137687618Y-112781375D02*
X137649523Y-112857565D01*
X137649523Y-112857565D02*
X137611428Y-112895661D01*
X137611428Y-112895661D02*
X137535237Y-112933756D01*
X137535237Y-112933756D02*
X137344761Y-112933756D01*
X137344761Y-112933756D02*
X137268571Y-112895661D01*
X137268571Y-112895661D02*
X137230475Y-112857565D01*
X117770476Y-107593944D02*
X117770476Y-108241563D01*
X117770476Y-108241563D02*
X117808571Y-108317753D01*
X117808571Y-108317753D02*
X117846666Y-108355849D01*
X117846666Y-108355849D02*
X117922857Y-108393944D01*
X117922857Y-108393944D02*
X118075238Y-108393944D01*
X118075238Y-108393944D02*
X118151428Y-108355849D01*
X118151428Y-108355849D02*
X118189523Y-108317753D01*
X118189523Y-108317753D02*
X118227619Y-108241563D01*
X118227619Y-108241563D02*
X118227619Y-107593944D01*
X119027618Y-108393944D02*
X118570475Y-108393944D01*
X118799047Y-108393944D02*
X118799047Y-107593944D01*
X118799047Y-107593944D02*
X118722856Y-107708229D01*
X118722856Y-107708229D02*
X118646666Y-107784420D01*
X118646666Y-107784420D02*
X118570475Y-107822515D01*
X140035714Y-142461855D02*
X140035714Y-141661855D01*
X140035714Y-141661855D02*
X140340476Y-141661855D01*
X140340476Y-141661855D02*
X140416666Y-141699950D01*
X140416666Y-141699950D02*
X140454761Y-141738045D01*
X140454761Y-141738045D02*
X140492857Y-141814236D01*
X140492857Y-141814236D02*
X140492857Y-141928521D01*
X140492857Y-141928521D02*
X140454761Y-142004712D01*
X140454761Y-142004712D02*
X140416666Y-142042807D01*
X140416666Y-142042807D02*
X140340476Y-142080902D01*
X140340476Y-142080902D02*
X140035714Y-142080902D01*
X141216666Y-142461855D02*
X140835714Y-142461855D01*
X140835714Y-142461855D02*
X140835714Y-141661855D01*
X141902380Y-142461855D02*
X141445237Y-142461855D01*
X141673809Y-142461855D02*
X141673809Y-141661855D01*
X141673809Y-141661855D02*
X141597618Y-141776140D01*
X141597618Y-141776140D02*
X141521428Y-141852331D01*
X141521428Y-141852331D02*
X141445237Y-141890426D01*
X107126879Y-130016694D02*
X107698307Y-130016694D01*
X107698307Y-130016694D02*
X107812593Y-130054789D01*
X107812593Y-130054789D02*
X107888784Y-130130980D01*
X107888784Y-130130980D02*
X107926879Y-130245265D01*
X107926879Y-130245265D02*
X107926879Y-130321456D01*
X107926879Y-129597646D02*
X107926879Y-129445265D01*
X107926879Y-129445265D02*
X107888784Y-129369075D01*
X107888784Y-129369075D02*
X107850688Y-129330979D01*
X107850688Y-129330979D02*
X107736403Y-129254789D01*
X107736403Y-129254789D02*
X107584022Y-129216694D01*
X107584022Y-129216694D02*
X107279260Y-129216694D01*
X107279260Y-129216694D02*
X107203069Y-129254789D01*
X107203069Y-129254789D02*
X107164974Y-129292884D01*
X107164974Y-129292884D02*
X107126879Y-129369075D01*
X107126879Y-129369075D02*
X107126879Y-129521456D01*
X107126879Y-129521456D02*
X107164974Y-129597646D01*
X107164974Y-129597646D02*
X107203069Y-129635741D01*
X107203069Y-129635741D02*
X107279260Y-129673837D01*
X107279260Y-129673837D02*
X107469736Y-129673837D01*
X107469736Y-129673837D02*
X107545926Y-129635741D01*
X107545926Y-129635741D02*
X107584022Y-129597646D01*
X107584022Y-129597646D02*
X107622117Y-129521456D01*
X107622117Y-129521456D02*
X107622117Y-129369075D01*
X107622117Y-129369075D02*
X107584022Y-129292884D01*
X107584022Y-129292884D02*
X107545926Y-129254789D01*
X107545926Y-129254789D02*
X107469736Y-129216694D01*
D11*
X103002138Y-105517318D02*
X102668805Y-105041127D01*
X102430710Y-105517318D02*
X102430710Y-104517318D01*
X102430710Y-104517318D02*
X102811662Y-104517318D01*
X102811662Y-104517318D02*
X102906900Y-104564937D01*
X102906900Y-104564937D02*
X102954519Y-104612556D01*
X102954519Y-104612556D02*
X103002138Y-104707794D01*
X103002138Y-104707794D02*
X103002138Y-104850651D01*
X103002138Y-104850651D02*
X102954519Y-104945889D01*
X102954519Y-104945889D02*
X102906900Y-104993508D01*
X102906900Y-104993508D02*
X102811662Y-105041127D01*
X102811662Y-105041127D02*
X102430710Y-105041127D01*
X103906900Y-104517318D02*
X103430710Y-104517318D01*
X103430710Y-104517318D02*
X103383091Y-104993508D01*
X103383091Y-104993508D02*
X103430710Y-104945889D01*
X103430710Y-104945889D02*
X103525948Y-104898270D01*
X103525948Y-104898270D02*
X103764043Y-104898270D01*
X103764043Y-104898270D02*
X103859281Y-104945889D01*
X103859281Y-104945889D02*
X103906900Y-104993508D01*
X103906900Y-104993508D02*
X103954519Y-105088746D01*
X103954519Y-105088746D02*
X103954519Y-105326841D01*
X103954519Y-105326841D02*
X103906900Y-105422079D01*
X103906900Y-105422079D02*
X103859281Y-105469699D01*
X103859281Y-105469699D02*
X103764043Y-105517318D01*
X103764043Y-105517318D02*
X103525948Y-105517318D01*
X103525948Y-105517318D02*
X103430710Y-105469699D01*
X103430710Y-105469699D02*
X103383091Y-105422079D01*
X104335472Y-104612556D02*
X104383091Y-104564937D01*
X104383091Y-104564937D02*
X104478329Y-104517318D01*
X104478329Y-104517318D02*
X104716424Y-104517318D01*
X104716424Y-104517318D02*
X104811662Y-104564937D01*
X104811662Y-104564937D02*
X104859281Y-104612556D01*
X104859281Y-104612556D02*
X104906900Y-104707794D01*
X104906900Y-104707794D02*
X104906900Y-104803032D01*
X104906900Y-104803032D02*
X104859281Y-104945889D01*
X104859281Y-104945889D02*
X104287853Y-105517318D01*
X104287853Y-105517318D02*
X104906900Y-105517318D01*
D10*
X129827380Y-106213855D02*
X129827380Y-106785283D01*
X129827380Y-106785283D02*
X129789285Y-106899569D01*
X129789285Y-106899569D02*
X129713094Y-106975760D01*
X129713094Y-106975760D02*
X129598809Y-107013855D01*
X129598809Y-107013855D02*
X129522618Y-107013855D01*
X130627380Y-107013855D02*
X130170237Y-107013855D01*
X130398809Y-107013855D02*
X130398809Y-106213855D01*
X130398809Y-106213855D02*
X130322618Y-106328140D01*
X130322618Y-106328140D02*
X130246428Y-106404331D01*
X130246428Y-106404331D02*
X130170237Y-106442426D01*
X130932142Y-106290045D02*
X130970238Y-106251950D01*
X130970238Y-106251950D02*
X131046428Y-106213855D01*
X131046428Y-106213855D02*
X131236904Y-106213855D01*
X131236904Y-106213855D02*
X131313095Y-106251950D01*
X131313095Y-106251950D02*
X131351190Y-106290045D01*
X131351190Y-106290045D02*
X131389285Y-106366236D01*
X131389285Y-106366236D02*
X131389285Y-106442426D01*
X131389285Y-106442426D02*
X131351190Y-106556712D01*
X131351190Y-106556712D02*
X130894047Y-107013855D01*
X130894047Y-107013855D02*
X131389285Y-107013855D01*
D11*
X126297142Y-107484819D02*
X125963809Y-107008628D01*
X125725714Y-107484819D02*
X125725714Y-106484819D01*
X125725714Y-106484819D02*
X126106666Y-106484819D01*
X126106666Y-106484819D02*
X126201904Y-106532438D01*
X126201904Y-106532438D02*
X126249523Y-106580057D01*
X126249523Y-106580057D02*
X126297142Y-106675295D01*
X126297142Y-106675295D02*
X126297142Y-106818152D01*
X126297142Y-106818152D02*
X126249523Y-106913390D01*
X126249523Y-106913390D02*
X126201904Y-106961009D01*
X126201904Y-106961009D02*
X126106666Y-107008628D01*
X126106666Y-107008628D02*
X125725714Y-107008628D01*
X127154285Y-106818152D02*
X127154285Y-107484819D01*
X126916190Y-106437200D02*
X126678095Y-107151485D01*
X126678095Y-107151485D02*
X127297142Y-107151485D01*
X127582857Y-106484819D02*
X128249523Y-106484819D01*
X128249523Y-106484819D02*
X127820952Y-107484819D01*
D10*
X142303809Y-107683832D02*
X142227619Y-107645737D01*
X142227619Y-107645737D02*
X142151428Y-107569547D01*
X142151428Y-107569547D02*
X142037142Y-107455261D01*
X142037142Y-107455261D02*
X141960952Y-107417166D01*
X141960952Y-107417166D02*
X141884761Y-107417166D01*
X141922857Y-107607642D02*
X141846666Y-107569547D01*
X141846666Y-107569547D02*
X141770476Y-107493356D01*
X141770476Y-107493356D02*
X141732380Y-107340975D01*
X141732380Y-107340975D02*
X141732380Y-107074308D01*
X141732380Y-107074308D02*
X141770476Y-106921927D01*
X141770476Y-106921927D02*
X141846666Y-106845737D01*
X141846666Y-106845737D02*
X141922857Y-106807642D01*
X141922857Y-106807642D02*
X142075238Y-106807642D01*
X142075238Y-106807642D02*
X142151428Y-106845737D01*
X142151428Y-106845737D02*
X142227619Y-106921927D01*
X142227619Y-106921927D02*
X142265714Y-107074308D01*
X142265714Y-107074308D02*
X142265714Y-107340975D01*
X142265714Y-107340975D02*
X142227619Y-107493356D01*
X142227619Y-107493356D02*
X142151428Y-107569547D01*
X142151428Y-107569547D02*
X142075238Y-107607642D01*
X142075238Y-107607642D02*
X141922857Y-107607642D01*
X143027618Y-107607642D02*
X142570475Y-107607642D01*
X142799047Y-107607642D02*
X142799047Y-106807642D01*
X142799047Y-106807642D02*
X142722856Y-106921927D01*
X142722856Y-106921927D02*
X142646666Y-106998118D01*
X142646666Y-106998118D02*
X142570475Y-107036213D01*
D11*
X101752138Y-102432079D02*
X101704519Y-102479699D01*
X101704519Y-102479699D02*
X101561662Y-102527318D01*
X101561662Y-102527318D02*
X101466424Y-102527318D01*
X101466424Y-102527318D02*
X101323567Y-102479699D01*
X101323567Y-102479699D02*
X101228329Y-102384460D01*
X101228329Y-102384460D02*
X101180710Y-102289222D01*
X101180710Y-102289222D02*
X101133091Y-102098746D01*
X101133091Y-102098746D02*
X101133091Y-101955889D01*
X101133091Y-101955889D02*
X101180710Y-101765413D01*
X101180710Y-101765413D02*
X101228329Y-101670175D01*
X101228329Y-101670175D02*
X101323567Y-101574937D01*
X101323567Y-101574937D02*
X101466424Y-101527318D01*
X101466424Y-101527318D02*
X101561662Y-101527318D01*
X101561662Y-101527318D02*
X101704519Y-101574937D01*
X101704519Y-101574937D02*
X101752138Y-101622556D01*
X102085472Y-101527318D02*
X102752138Y-101527318D01*
X102752138Y-101527318D02*
X102323567Y-102527318D01*
X103609281Y-101527318D02*
X103133091Y-101527318D01*
X103133091Y-101527318D02*
X103085472Y-102003508D01*
X103085472Y-102003508D02*
X103133091Y-101955889D01*
X103133091Y-101955889D02*
X103228329Y-101908270D01*
X103228329Y-101908270D02*
X103466424Y-101908270D01*
X103466424Y-101908270D02*
X103561662Y-101955889D01*
X103561662Y-101955889D02*
X103609281Y-102003508D01*
X103609281Y-102003508D02*
X103656900Y-102098746D01*
X103656900Y-102098746D02*
X103656900Y-102336841D01*
X103656900Y-102336841D02*
X103609281Y-102432079D01*
X103609281Y-102432079D02*
X103561662Y-102479699D01*
X103561662Y-102479699D02*
X103466424Y-102527318D01*
X103466424Y-102527318D02*
X103228329Y-102527318D01*
X103228329Y-102527318D02*
X103133091Y-102479699D01*
X103133091Y-102479699D02*
X103085472Y-102432079D01*
D10*
X129890476Y-109354757D02*
X129890476Y-110002376D01*
X129890476Y-110002376D02*
X129928571Y-110078566D01*
X129928571Y-110078566D02*
X129966666Y-110116662D01*
X129966666Y-110116662D02*
X130042857Y-110154757D01*
X130042857Y-110154757D02*
X130195238Y-110154757D01*
X130195238Y-110154757D02*
X130271428Y-110116662D01*
X130271428Y-110116662D02*
X130309523Y-110078566D01*
X130309523Y-110078566D02*
X130347619Y-110002376D01*
X130347619Y-110002376D02*
X130347619Y-109354757D01*
X130842856Y-109697614D02*
X130766666Y-109659519D01*
X130766666Y-109659519D02*
X130728571Y-109621423D01*
X130728571Y-109621423D02*
X130690475Y-109545233D01*
X130690475Y-109545233D02*
X130690475Y-109507138D01*
X130690475Y-109507138D02*
X130728571Y-109430947D01*
X130728571Y-109430947D02*
X130766666Y-109392852D01*
X130766666Y-109392852D02*
X130842856Y-109354757D01*
X130842856Y-109354757D02*
X130995237Y-109354757D01*
X130995237Y-109354757D02*
X131071428Y-109392852D01*
X131071428Y-109392852D02*
X131109523Y-109430947D01*
X131109523Y-109430947D02*
X131147618Y-109507138D01*
X131147618Y-109507138D02*
X131147618Y-109545233D01*
X131147618Y-109545233D02*
X131109523Y-109621423D01*
X131109523Y-109621423D02*
X131071428Y-109659519D01*
X131071428Y-109659519D02*
X130995237Y-109697614D01*
X130995237Y-109697614D02*
X130842856Y-109697614D01*
X130842856Y-109697614D02*
X130766666Y-109735709D01*
X130766666Y-109735709D02*
X130728571Y-109773804D01*
X130728571Y-109773804D02*
X130690475Y-109849995D01*
X130690475Y-109849995D02*
X130690475Y-110002376D01*
X130690475Y-110002376D02*
X130728571Y-110078566D01*
X130728571Y-110078566D02*
X130766666Y-110116662D01*
X130766666Y-110116662D02*
X130842856Y-110154757D01*
X130842856Y-110154757D02*
X130995237Y-110154757D01*
X130995237Y-110154757D02*
X131071428Y-110116662D01*
X131071428Y-110116662D02*
X131109523Y-110078566D01*
X131109523Y-110078566D02*
X131147618Y-110002376D01*
X131147618Y-110002376D02*
X131147618Y-109849995D01*
X131147618Y-109849995D02*
X131109523Y-109773804D01*
X131109523Y-109773804D02*
X131071428Y-109735709D01*
X131071428Y-109735709D02*
X130995237Y-109697614D01*
X129509524Y-117634757D02*
X129509524Y-118282376D01*
X129509524Y-118282376D02*
X129547619Y-118358566D01*
X129547619Y-118358566D02*
X129585714Y-118396662D01*
X129585714Y-118396662D02*
X129661905Y-118434757D01*
X129661905Y-118434757D02*
X129814286Y-118434757D01*
X129814286Y-118434757D02*
X129890476Y-118396662D01*
X129890476Y-118396662D02*
X129928571Y-118358566D01*
X129928571Y-118358566D02*
X129966667Y-118282376D01*
X129966667Y-118282376D02*
X129966667Y-117634757D01*
X130766666Y-118434757D02*
X130309523Y-118434757D01*
X130538095Y-118434757D02*
X130538095Y-117634757D01*
X130538095Y-117634757D02*
X130461904Y-117749042D01*
X130461904Y-117749042D02*
X130385714Y-117825233D01*
X130385714Y-117825233D02*
X130309523Y-117863328D01*
X131223809Y-117977614D02*
X131147619Y-117939519D01*
X131147619Y-117939519D02*
X131109524Y-117901423D01*
X131109524Y-117901423D02*
X131071428Y-117825233D01*
X131071428Y-117825233D02*
X131071428Y-117787138D01*
X131071428Y-117787138D02*
X131109524Y-117710947D01*
X131109524Y-117710947D02*
X131147619Y-117672852D01*
X131147619Y-117672852D02*
X131223809Y-117634757D01*
X131223809Y-117634757D02*
X131376190Y-117634757D01*
X131376190Y-117634757D02*
X131452381Y-117672852D01*
X131452381Y-117672852D02*
X131490476Y-117710947D01*
X131490476Y-117710947D02*
X131528571Y-117787138D01*
X131528571Y-117787138D02*
X131528571Y-117825233D01*
X131528571Y-117825233D02*
X131490476Y-117901423D01*
X131490476Y-117901423D02*
X131452381Y-117939519D01*
X131452381Y-117939519D02*
X131376190Y-117977614D01*
X131376190Y-117977614D02*
X131223809Y-117977614D01*
X131223809Y-117977614D02*
X131147619Y-118015709D01*
X131147619Y-118015709D02*
X131109524Y-118053804D01*
X131109524Y-118053804D02*
X131071428Y-118129995D01*
X131071428Y-118129995D02*
X131071428Y-118282376D01*
X131071428Y-118282376D02*
X131109524Y-118358566D01*
X131109524Y-118358566D02*
X131147619Y-118396662D01*
X131147619Y-118396662D02*
X131223809Y-118434757D01*
X131223809Y-118434757D02*
X131376190Y-118434757D01*
X131376190Y-118434757D02*
X131452381Y-118396662D01*
X131452381Y-118396662D02*
X131490476Y-118358566D01*
X131490476Y-118358566D02*
X131528571Y-118282376D01*
X131528571Y-118282376D02*
X131528571Y-118129995D01*
X131528571Y-118129995D02*
X131490476Y-118053804D01*
X131490476Y-118053804D02*
X131452381Y-118015709D01*
X131452381Y-118015709D02*
X131376190Y-117977614D01*
X132978571Y-139461855D02*
X132978571Y-138661855D01*
X132978571Y-138661855D02*
X133283333Y-138661855D01*
X133283333Y-138661855D02*
X133359523Y-138699950D01*
X133359523Y-138699950D02*
X133397618Y-138738045D01*
X133397618Y-138738045D02*
X133435714Y-138814236D01*
X133435714Y-138814236D02*
X133435714Y-138928521D01*
X133435714Y-138928521D02*
X133397618Y-139004712D01*
X133397618Y-139004712D02*
X133359523Y-139042807D01*
X133359523Y-139042807D02*
X133283333Y-139080902D01*
X133283333Y-139080902D02*
X132978571Y-139080902D01*
X133702380Y-138661855D02*
X134235714Y-138661855D01*
X134235714Y-138661855D02*
X133702380Y-139461855D01*
X133702380Y-139461855D02*
X134235714Y-139461855D01*
X134959523Y-139461855D02*
X134502380Y-139461855D01*
X134730952Y-139461855D02*
X134730952Y-138661855D01*
X134730952Y-138661855D02*
X134654761Y-138776140D01*
X134654761Y-138776140D02*
X134578571Y-138852331D01*
X134578571Y-138852331D02*
X134502380Y-138890426D01*
X112349524Y-99533906D02*
X112349524Y-100181525D01*
X112349524Y-100181525D02*
X112387619Y-100257715D01*
X112387619Y-100257715D02*
X112425714Y-100295811D01*
X112425714Y-100295811D02*
X112501905Y-100333906D01*
X112501905Y-100333906D02*
X112654286Y-100333906D01*
X112654286Y-100333906D02*
X112730476Y-100295811D01*
X112730476Y-100295811D02*
X112768571Y-100257715D01*
X112768571Y-100257715D02*
X112806667Y-100181525D01*
X112806667Y-100181525D02*
X112806667Y-99533906D01*
X113606666Y-100333906D02*
X113149523Y-100333906D01*
X113378095Y-100333906D02*
X113378095Y-99533906D01*
X113378095Y-99533906D02*
X113301904Y-99648191D01*
X113301904Y-99648191D02*
X113225714Y-99724382D01*
X113225714Y-99724382D02*
X113149523Y-99762477D01*
X114368571Y-100333906D02*
X113911428Y-100333906D01*
X114140000Y-100333906D02*
X114140000Y-99533906D01*
X114140000Y-99533906D02*
X114063809Y-99648191D01*
X114063809Y-99648191D02*
X113987619Y-99724382D01*
X113987619Y-99724382D02*
X113911428Y-99762477D01*
X122197252Y-107763887D02*
X122197252Y-108335315D01*
X122197252Y-108335315D02*
X122159157Y-108449601D01*
X122159157Y-108449601D02*
X122082966Y-108525792D01*
X122082966Y-108525792D02*
X121968681Y-108563887D01*
X121968681Y-108563887D02*
X121892490Y-108563887D01*
X122997252Y-108563887D02*
X122540109Y-108563887D01*
X122768681Y-108563887D02*
X122768681Y-107763887D01*
X122768681Y-107763887D02*
X122692490Y-107878172D01*
X122692490Y-107878172D02*
X122616300Y-107954363D01*
X122616300Y-107954363D02*
X122540109Y-107992458D01*
D11*
X103042143Y-108902320D02*
X102708810Y-108426129D01*
X102470715Y-108902320D02*
X102470715Y-107902320D01*
X102470715Y-107902320D02*
X102851667Y-107902320D01*
X102851667Y-107902320D02*
X102946905Y-107949939D01*
X102946905Y-107949939D02*
X102994524Y-107997558D01*
X102994524Y-107997558D02*
X103042143Y-108092796D01*
X103042143Y-108092796D02*
X103042143Y-108235653D01*
X103042143Y-108235653D02*
X102994524Y-108330891D01*
X102994524Y-108330891D02*
X102946905Y-108378510D01*
X102946905Y-108378510D02*
X102851667Y-108426129D01*
X102851667Y-108426129D02*
X102470715Y-108426129D01*
X103946905Y-107902320D02*
X103470715Y-107902320D01*
X103470715Y-107902320D02*
X103423096Y-108378510D01*
X103423096Y-108378510D02*
X103470715Y-108330891D01*
X103470715Y-108330891D02*
X103565953Y-108283272D01*
X103565953Y-108283272D02*
X103804048Y-108283272D01*
X103804048Y-108283272D02*
X103899286Y-108330891D01*
X103899286Y-108330891D02*
X103946905Y-108378510D01*
X103946905Y-108378510D02*
X103994524Y-108473748D01*
X103994524Y-108473748D02*
X103994524Y-108711843D01*
X103994524Y-108711843D02*
X103946905Y-108807081D01*
X103946905Y-108807081D02*
X103899286Y-108854701D01*
X103899286Y-108854701D02*
X103804048Y-108902320D01*
X103804048Y-108902320D02*
X103565953Y-108902320D01*
X103565953Y-108902320D02*
X103470715Y-108854701D01*
X103470715Y-108854701D02*
X103423096Y-108807081D01*
X104946905Y-108902320D02*
X104375477Y-108902320D01*
X104661191Y-108902320D02*
X104661191Y-107902320D01*
X104661191Y-107902320D02*
X104565953Y-108045177D01*
X104565953Y-108045177D02*
X104470715Y-108140415D01*
X104470715Y-108140415D02*
X104375477Y-108188034D01*
D10*
X102535714Y-141961855D02*
X102535714Y-141161855D01*
X102535714Y-141161855D02*
X102840476Y-141161855D01*
X102840476Y-141161855D02*
X102916666Y-141199950D01*
X102916666Y-141199950D02*
X102954761Y-141238045D01*
X102954761Y-141238045D02*
X102992857Y-141314236D01*
X102992857Y-141314236D02*
X102992857Y-141428521D01*
X102992857Y-141428521D02*
X102954761Y-141504712D01*
X102954761Y-141504712D02*
X102916666Y-141542807D01*
X102916666Y-141542807D02*
X102840476Y-141580902D01*
X102840476Y-141580902D02*
X102535714Y-141580902D01*
X103716666Y-141961855D02*
X103335714Y-141961855D01*
X103335714Y-141961855D02*
X103335714Y-141161855D01*
X103945237Y-141238045D02*
X103983333Y-141199950D01*
X103983333Y-141199950D02*
X104059523Y-141161855D01*
X104059523Y-141161855D02*
X104249999Y-141161855D01*
X104249999Y-141161855D02*
X104326190Y-141199950D01*
X104326190Y-141199950D02*
X104364285Y-141238045D01*
X104364285Y-141238045D02*
X104402380Y-141314236D01*
X104402380Y-141314236D02*
X104402380Y-141390426D01*
X104402380Y-141390426D02*
X104364285Y-141504712D01*
X104364285Y-141504712D02*
X103907142Y-141961855D01*
X103907142Y-141961855D02*
X104402380Y-141961855D01*
D12*
%TO.C,J3*%
X129330000Y-129509992D02*
X129330000Y-130538847D01*
X130438255Y-133610018D02*
X139021720Y-133610018D01*
X131073866Y-129509992D02*
X129330000Y-129509992D01*
X132323802Y-129509992D02*
X132136147Y-129509992D01*
X133573993Y-129509992D02*
X133386083Y-129509992D01*
X134823929Y-129509992D02*
X134636274Y-129509992D01*
X136073866Y-129509992D02*
X135886210Y-129509992D01*
X137323802Y-129509992D02*
X137136147Y-129509992D01*
X140130000Y-129509992D02*
X138386083Y-129509992D01*
X140130000Y-129509992D02*
X140130000Y-130538847D01*
D10*
X130524410Y-128568284D02*
X130581927Y-128585732D01*
X130634935Y-128614065D01*
X130681397Y-128652195D01*
X130719527Y-128698657D01*
X130747860Y-128751664D01*
X130765308Y-128809181D01*
X130771199Y-128868997D01*
X130765308Y-128928812D01*
X130747860Y-128986329D01*
X130719527Y-129039337D01*
X130681397Y-129085798D01*
X130634935Y-129123929D01*
X130581927Y-129152262D01*
X130524410Y-129169709D01*
X130464595Y-129175601D01*
X130404779Y-129169709D01*
X130347263Y-129152262D01*
X130294255Y-129123929D01*
X130247793Y-129085798D01*
X130209663Y-129039337D01*
X130181330Y-128986329D01*
X130163882Y-128928812D01*
X130157991Y-128868997D01*
X130163882Y-128809181D01*
X130181330Y-128751664D01*
X130209663Y-128698657D01*
X130247793Y-128652195D01*
X130294255Y-128614065D01*
X130347263Y-128585732D01*
X130404779Y-128568284D01*
X130464595Y-128562393D01*
X130524410Y-128568284D01*
G36*
X130524410Y-128568284D02*
G01*
X130581927Y-128585732D01*
X130634935Y-128614065D01*
X130681397Y-128652195D01*
X130719527Y-128698657D01*
X130747860Y-128751664D01*
X130765308Y-128809181D01*
X130771199Y-128868997D01*
X130765308Y-128928812D01*
X130747860Y-128986329D01*
X130719527Y-129039337D01*
X130681397Y-129085798D01*
X130634935Y-129123929D01*
X130581927Y-129152262D01*
X130524410Y-129169709D01*
X130464595Y-129175601D01*
X130404779Y-129169709D01*
X130347263Y-129152262D01*
X130294255Y-129123929D01*
X130247793Y-129085798D01*
X130209663Y-129039337D01*
X130181330Y-128986329D01*
X130163882Y-128928812D01*
X130157991Y-128868997D01*
X130163882Y-128809181D01*
X130181330Y-128751664D01*
X130209663Y-128698657D01*
X130247793Y-128652195D01*
X130294255Y-128614065D01*
X130347263Y-128585732D01*
X130404779Y-128568284D01*
X130464595Y-128562393D01*
X130524410Y-128568284D01*
G37*
%TO.C,P61*%
X120500000Y-136500000D02*
X122400000Y-136500000D01*
X120500000Y-138400000D02*
X120500000Y-136500000D01*
X122400000Y-136500000D02*
X122400000Y-138400000D01*
X122400000Y-138400000D02*
X120500000Y-138400000D01*
%TO.C,C77*%
X108317165Y-104122499D02*
X108532837Y-104122499D01*
X108317165Y-104842499D02*
X108532837Y-104842499D01*
%TO.C,C28*%
X126307936Y-143391100D02*
X126092264Y-143391100D01*
X126307936Y-144111100D02*
X126092264Y-144111100D01*
D12*
%TO.C,J2*%
X100930767Y-114219990D02*
X100930767Y-121900000D01*
X105610752Y-122080010D02*
X105610752Y-123319990D01*
X105610752Y-123319990D02*
X103070772Y-123319990D01*
X105650757Y-112840005D02*
X103110752Y-112840005D01*
X105650757Y-114040005D02*
X105650757Y-112840005D01*
D10*
%TO.C,PZ2*%
X119000000Y-132500000D02*
X120900000Y-132500000D01*
X119000000Y-134400000D02*
X119000000Y-132500000D01*
X120900000Y-132500000D02*
X120900000Y-134400000D01*
X120900000Y-134400000D02*
X119000000Y-134400000D01*
%TO.C,TP20*%
X139500000Y-134500000D02*
X141400000Y-134500000D01*
X139500000Y-136400000D02*
X139500000Y-134500000D01*
X141400000Y-134500000D02*
X141400000Y-136400000D01*
X141400000Y-136400000D02*
X139500000Y-136400000D01*
%TO.C,PL3*%
X133100000Y-123700000D02*
X135000000Y-123700000D01*
X133100000Y-125600000D02*
X133100000Y-123700000D01*
X135000000Y-123700000D02*
X135000000Y-125600000D01*
X135000000Y-125600000D02*
X133100000Y-125600000D01*
%TO.C,P64*%
X127825100Y-141271100D02*
X129725100Y-141271100D01*
X127825100Y-143171100D02*
X127825100Y-141271100D01*
X129725100Y-141271100D02*
X129725100Y-143171100D01*
X129725100Y-143171100D02*
X127825100Y-143171100D01*
%TO.C,R50*%
X103011358Y-110737501D02*
X103318640Y-110737501D01*
X103011358Y-111497501D02*
X103318640Y-111497501D01*
%TO.C,C30*%
X118932536Y-142333500D02*
X118716864Y-142333500D01*
X118932536Y-143053500D02*
X118716864Y-143053500D01*
%TO.C,C46*%
X123367936Y-128848900D02*
X123152264Y-128848900D01*
X123367936Y-129568900D02*
X123152264Y-129568900D01*
%TO.C,L1*%
X125931622Y-127032600D02*
X125132378Y-127032600D01*
X125931622Y-128152600D02*
X125132378Y-128152600D01*
%TO.C,P73*%
X112600000Y-131500000D02*
X114500000Y-131500000D01*
X112600000Y-133400000D02*
X112600000Y-131500000D01*
X114500000Y-131500000D02*
X114500000Y-133400000D01*
X114500000Y-133400000D02*
X112600000Y-133400000D01*
%TO.C,TP1*%
X107400000Y-110600000D02*
X109300000Y-110600000D01*
X107400000Y-112500000D02*
X107400000Y-110600000D01*
X109300000Y-110600000D02*
X109300000Y-112500000D01*
X109300000Y-112500000D02*
X107400000Y-112500000D01*
%TO.C,C13*%
X122729636Y-127052400D02*
X122513964Y-127052400D01*
X122729636Y-127772400D02*
X122513964Y-127772400D01*
D12*
%TO.C,U9*%
X137649619Y-123808087D02*
X138650381Y-123808087D01*
X137649619Y-126607173D02*
X137649619Y-123808087D01*
X138650381Y-123808087D02*
X138650381Y-126607173D01*
X138650381Y-126607173D02*
X137649619Y-126607173D01*
D13*
X139671463Y-126997038D02*
G75*
G02*
X139671463Y-126999578I-134405J-1270D01*
G01*
D10*
%TO.C,D2*%
X120065000Y-139125000D02*
X120065000Y-140595000D01*
X120065000Y-140595000D02*
X122350000Y-140595000D01*
X122350000Y-139125000D02*
X120065000Y-139125000D01*
%TO.C,R17*%
X108315000Y-101908641D02*
X108315000Y-101601359D01*
X109075000Y-101908641D02*
X109075000Y-101601359D01*
%TO.C,C6*%
X117933952Y-127179600D02*
X117411448Y-127179600D01*
X117933952Y-128649600D02*
X117411448Y-128649600D01*
D14*
%TO.C,D4*%
X135895625Y-110717063D02*
X138648076Y-110717063D01*
X135895625Y-112569540D02*
X138648076Y-112569540D01*
X136355061Y-110767076D02*
X136355061Y-112519527D01*
X138648076Y-110717063D02*
X138648076Y-110910104D01*
X138648076Y-112569540D02*
X138648076Y-112376499D01*
D10*
X135971851Y-110960878D02*
X135667050Y-110960878D01*
X135667050Y-110640889D01*
X135971851Y-110640889D01*
X135971851Y-110960878D01*
G36*
X135971851Y-110960878D02*
G01*
X135667050Y-110960878D01*
X135667050Y-110640889D01*
X135971851Y-110640889D01*
X135971851Y-110960878D01*
G37*
X135971851Y-112645715D02*
X135667050Y-112645715D01*
X135667050Y-112325725D01*
X135971851Y-112325725D01*
X135971851Y-112645715D01*
G36*
X135971851Y-112645715D02*
G01*
X135667050Y-112645715D01*
X135667050Y-112325725D01*
X135971851Y-112325725D01*
X135971851Y-112645715D01*
G37*
%TO.C,R16*%
X134817859Y-103755000D02*
X135125141Y-103755000D01*
X134817859Y-104515000D02*
X135125141Y-104515000D01*
%TO.C,R20*%
X128796359Y-139570000D02*
X129103641Y-139570000D01*
X128796359Y-140330000D02*
X129103641Y-140330000D01*
%TO.C,D3*%
X116065000Y-129215000D02*
X116065000Y-130685000D01*
X116065000Y-130685000D02*
X118350000Y-130685000D01*
X118350000Y-129215000D02*
X116065000Y-129215000D01*
%TO.C,P62*%
X128000000Y-116500000D02*
X129900000Y-116500000D01*
X128000000Y-118400000D02*
X128000000Y-116500000D01*
X129900000Y-116500000D02*
X129900000Y-118400000D01*
X129900000Y-118400000D02*
X128000000Y-118400000D01*
%TO.C,R48*%
X105281360Y-110602499D02*
X105588642Y-110602499D01*
X105281360Y-111362499D02*
X105588642Y-111362499D01*
%TO.C,C29*%
X118960136Y-143890000D02*
X118744464Y-143890000D01*
X118960136Y-144610000D02*
X118744464Y-144610000D01*
%TO.C,C45*%
X124139452Y-130376000D02*
X123616948Y-130376000D01*
X124139452Y-131846000D02*
X123616948Y-131846000D01*
%TO.C,R1*%
X141501359Y-123535000D02*
X141808641Y-123535000D01*
X141501359Y-124295000D02*
X141808641Y-124295000D01*
D15*
%TO.C,U10*%
X121599949Y-141251138D02*
X121599949Y-141397011D01*
X121599949Y-141251138D02*
X123399975Y-141251138D01*
X121599949Y-142305291D02*
X121599949Y-143296934D01*
X121599949Y-144205215D02*
X121599949Y-144351164D01*
X121599949Y-144351164D02*
X123399975Y-144351164D01*
X123399975Y-141251138D02*
X123399975Y-141396985D01*
X123399975Y-142305291D02*
X123399975Y-142346947D01*
X123399975Y-143255228D02*
X123399975Y-143296909D01*
X123399975Y-144205215D02*
X123399975Y-144351164D01*
D10*
X122915807Y-143641422D02*
X122949243Y-143651647D01*
X122980017Y-143668244D01*
X123006928Y-143690567D01*
X123028926Y-143717743D01*
X123045154Y-143748714D01*
X123054978Y-143782270D01*
X123058014Y-143817102D01*
X123054978Y-143851934D01*
X123045154Y-143885490D01*
X123028926Y-143916461D01*
X123006928Y-143943638D01*
X122980017Y-143965960D01*
X122949243Y-143982557D01*
X122915807Y-143992782D01*
X122881013Y-143996235D01*
X122846220Y-143992782D01*
X122812784Y-143982557D01*
X122782010Y-143965960D01*
X122755099Y-143943638D01*
X122733100Y-143916461D01*
X122716873Y-143885490D01*
X122707049Y-143851934D01*
X122704013Y-143817102D01*
X122707049Y-143782270D01*
X122716873Y-143748714D01*
X122733100Y-143717743D01*
X122755099Y-143690567D01*
X122782010Y-143668244D01*
X122812784Y-143651647D01*
X122846220Y-143641422D01*
X122881013Y-143637969D01*
X122915807Y-143641422D01*
G36*
X122915807Y-143641422D02*
G01*
X122949243Y-143651647D01*
X122980017Y-143668244D01*
X123006928Y-143690567D01*
X123028926Y-143717743D01*
X123045154Y-143748714D01*
X123054978Y-143782270D01*
X123058014Y-143817102D01*
X123054978Y-143851934D01*
X123045154Y-143885490D01*
X123028926Y-143916461D01*
X123006928Y-143943638D01*
X122980017Y-143965960D01*
X122949243Y-143982557D01*
X122915807Y-143992782D01*
X122881013Y-143996235D01*
X122846220Y-143992782D01*
X122812784Y-143982557D01*
X122782010Y-143965960D01*
X122755099Y-143943638D01*
X122733100Y-143916461D01*
X122716873Y-143885490D01*
X122707049Y-143851934D01*
X122704013Y-143817102D01*
X122707049Y-143782270D01*
X122716873Y-143748714D01*
X122733100Y-143717743D01*
X122755099Y-143690567D01*
X122782010Y-143668244D01*
X122812784Y-143651647D01*
X122846220Y-143641422D01*
X122881013Y-143637969D01*
X122915807Y-143641422D01*
G37*
D15*
%TO.C,U17*%
X131949949Y-140650038D02*
X131949949Y-140795911D01*
X131949949Y-140650038D02*
X133749975Y-140650038D01*
X131949949Y-141704191D02*
X131949949Y-142695834D01*
X131949949Y-143604115D02*
X131949949Y-143750064D01*
X131949949Y-143750064D02*
X133749975Y-143750064D01*
X133749975Y-140650038D02*
X133749975Y-140795885D01*
X133749975Y-141704191D02*
X133749975Y-141745847D01*
X133749975Y-142654128D02*
X133749975Y-142695809D01*
X133749975Y-143604115D02*
X133749975Y-143750064D01*
D10*
X133265807Y-143040322D02*
X133299243Y-143050547D01*
X133330017Y-143067144D01*
X133356928Y-143089467D01*
X133378926Y-143116643D01*
X133395154Y-143147614D01*
X133404978Y-143181170D01*
X133408014Y-143216002D01*
X133404978Y-143250834D01*
X133395154Y-143284390D01*
X133378926Y-143315361D01*
X133356928Y-143342538D01*
X133330017Y-143364860D01*
X133299243Y-143381457D01*
X133265807Y-143391682D01*
X133231013Y-143395135D01*
X133196220Y-143391682D01*
X133162784Y-143381457D01*
X133132010Y-143364860D01*
X133105099Y-143342538D01*
X133083100Y-143315361D01*
X133066873Y-143284390D01*
X133057049Y-143250834D01*
X133054013Y-143216002D01*
X133057049Y-143181170D01*
X133066873Y-143147614D01*
X133083100Y-143116643D01*
X133105099Y-143089467D01*
X133132010Y-143067144D01*
X133162784Y-143050547D01*
X133196220Y-143040322D01*
X133231013Y-143036869D01*
X133265807Y-143040322D01*
G36*
X133265807Y-143040322D02*
G01*
X133299243Y-143050547D01*
X133330017Y-143067144D01*
X133356928Y-143089467D01*
X133378926Y-143116643D01*
X133395154Y-143147614D01*
X133404978Y-143181170D01*
X133408014Y-143216002D01*
X133404978Y-143250834D01*
X133395154Y-143284390D01*
X133378926Y-143315361D01*
X133356928Y-143342538D01*
X133330017Y-143364860D01*
X133299243Y-143381457D01*
X133265807Y-143391682D01*
X133231013Y-143395135D01*
X133196220Y-143391682D01*
X133162784Y-143381457D01*
X133132010Y-143364860D01*
X133105099Y-143342538D01*
X133083100Y-143315361D01*
X133066873Y-143284390D01*
X133057049Y-143250834D01*
X133054013Y-143216002D01*
X133057049Y-143181170D01*
X133066873Y-143147614D01*
X133083100Y-143116643D01*
X133105099Y-143089467D01*
X133132010Y-143067144D01*
X133162784Y-143050547D01*
X133196220Y-143040322D01*
X133231013Y-143036869D01*
X133265807Y-143040322D01*
G37*
%TO.C,P63*%
X131000000Y-116500000D02*
X132900000Y-116500000D01*
X131000000Y-118400000D02*
X131000000Y-116500000D01*
X132900000Y-116500000D02*
X132900000Y-118400000D01*
X132900000Y-118400000D02*
X131000000Y-118400000D01*
%TO.C,R21*%
X134036459Y-139275000D02*
X134343741Y-139275000D01*
X134036459Y-140035000D02*
X134343741Y-140035000D01*
%TO.C,R14*%
X108396359Y-123570000D02*
X108703641Y-123570000D01*
X108396359Y-124330000D02*
X108703641Y-124330000D01*
%TO.C,P41*%
X127500000Y-124000000D02*
X129400000Y-124000000D01*
X127500000Y-125900000D02*
X127500000Y-124000000D01*
X129400000Y-124000000D02*
X129400000Y-125900000D01*
X129400000Y-125900000D02*
X127500000Y-125900000D01*
%TO.C,TP21*%
X125000000Y-133500000D02*
X126900000Y-133500000D01*
X125000000Y-135400000D02*
X125000000Y-133500000D01*
X126900000Y-133500000D02*
X126900000Y-135400000D01*
X126900000Y-135400000D02*
X125000000Y-135400000D01*
%TO.C,R53*%
X102751355Y-104102499D02*
X103058637Y-104102499D01*
X102751355Y-104862499D02*
X103058637Y-104862499D01*
D14*
%TO.C,U5*%
X134401290Y-115923597D02*
X139678710Y-115923597D01*
X134401290Y-120276403D02*
X134401290Y-115923597D01*
X139678710Y-115923597D02*
X139678710Y-120276403D01*
X139678710Y-120276403D02*
X134401290Y-120276403D01*
D16*
X134517775Y-121630099D02*
G75*
G02*
X134217547Y-121630099I-150114J0D01*
G01*
X134217547Y-121630099D02*
G75*
G02*
X134517775Y-121630099I150114J0D01*
G01*
X135285110Y-119523927D02*
G75*
G02*
X134984882Y-119523927I-150114J0D01*
G01*
X134984882Y-119523927D02*
G75*
G02*
X135285110Y-119523927I150114J0D01*
G01*
D17*
%TO.C,U1*%
X112129987Y-111329987D02*
X112129987Y-123830013D01*
X112129987Y-123830013D02*
X124630013Y-123830013D01*
X124630013Y-111329987D02*
X112129987Y-111329987D01*
X124630013Y-123830013D02*
X124630013Y-111329987D01*
D16*
X111496586Y-125276215D02*
G75*
G02*
X111499126Y-125276215I1270J-161288D01*
G01*
D18*
X113129810Y-122530470D02*
G75*
G02*
X113134890Y-122530470I2540J-293249D01*
G01*
D10*
%TO.C,TP10*%
X110350000Y-135646000D02*
X112250000Y-135646000D01*
X110350000Y-137546000D02*
X110350000Y-135646000D01*
X112250000Y-135646000D02*
X112250000Y-137546000D01*
X112250000Y-137546000D02*
X110350000Y-137546000D01*
%TO.C,PL1*%
X140000000Y-139500000D02*
X141900000Y-139500000D01*
X140000000Y-141400000D02*
X140000000Y-139500000D01*
X141900000Y-139500000D02*
X141900000Y-141400000D01*
X141900000Y-141400000D02*
X140000000Y-141400000D01*
%TO.C,TP8*%
X113100000Y-135000000D02*
X115000000Y-135000000D01*
X113100000Y-136900000D02*
X113100000Y-135000000D01*
X115000000Y-135000000D02*
X115000000Y-136900000D01*
X115000000Y-136900000D02*
X113100000Y-136900000D01*
%TO.C,P71*%
X128500000Y-134500000D02*
X130400000Y-134500000D01*
X128500000Y-136400000D02*
X128500000Y-134500000D01*
X130400000Y-134500000D02*
X130400000Y-136400000D01*
X130400000Y-136400000D02*
X128500000Y-136400000D01*
D12*
%TO.C,J9*%
X101165030Y-127760036D02*
X101165030Y-131660010D01*
X105424975Y-126760036D02*
X102825025Y-126760036D01*
X105424975Y-127839970D02*
X105424975Y-126760036D01*
X105424975Y-131820005D02*
X105424975Y-132740020D01*
X105424975Y-132740020D02*
X102818193Y-132740020D01*
X105062389Y-127280635D02*
G75*
G02*
X104812453Y-127280635I-124968J0D01*
G01*
X104812453Y-127280635D02*
G75*
G02*
X105062389Y-127280635I124968J0D01*
G01*
D10*
%TO.C,R52*%
X103491355Y-105852499D02*
X103798637Y-105852499D01*
X103491355Y-106612499D02*
X103798637Y-106612499D01*
%TO.C,P46*%
X116030000Y-137571100D02*
X117930000Y-137571100D01*
X116030000Y-139471100D02*
X116030000Y-137571100D01*
X117930000Y-137571100D02*
X117930000Y-139471100D01*
X117930000Y-139471100D02*
X116030000Y-139471100D01*
%TO.C,L2*%
X128680000Y-106440000D02*
X132900000Y-106440000D01*
X132900000Y-110660000D02*
X128680000Y-110660000D01*
%TO.C,SW2*%
X111405200Y-127962000D02*
X111405200Y-128262000D01*
X111405200Y-130762000D02*
X111405200Y-130462000D01*
X114705200Y-127962000D02*
X111405200Y-127962000D01*
X114705200Y-128262000D02*
X114705200Y-127962000D01*
X114705200Y-130462000D02*
X114705200Y-130762000D01*
X114705200Y-130762000D02*
X111405200Y-130762000D01*
%TO.C,P74*%
X110000000Y-138500000D02*
X111900000Y-138500000D01*
X110000000Y-140400000D02*
X110000000Y-138500000D01*
X111900000Y-138500000D02*
X111900000Y-140400000D01*
X111900000Y-140400000D02*
X110000000Y-140400000D01*
%TO.C,J12*%
X129115000Y-104800000D02*
X129115000Y-102100000D01*
X131835000Y-102050000D02*
X131835000Y-102690000D01*
X131835000Y-104210000D02*
X132465000Y-104210000D01*
X131835000Y-104850000D02*
X131835000Y-104210000D01*
%TO.C,R15*%
X108396359Y-125070000D02*
X108703641Y-125070000D01*
X108396359Y-125830000D02*
X108703641Y-125830000D01*
%TO.C,R47*%
X126786359Y-107820000D02*
X127093641Y-107820000D01*
X126786359Y-108580000D02*
X127093641Y-108580000D01*
D14*
%TO.C,Q1*%
X141653787Y-109243787D02*
X141653787Y-110275410D01*
X141653787Y-112296213D02*
X141653787Y-111264590D01*
X143106213Y-109243787D02*
X141653787Y-109243787D01*
X143106213Y-110314602D02*
X143106213Y-111225398D01*
X143106213Y-112296213D02*
X141653787Y-112296213D01*
D10*
%TO.C,TP3*%
X122000000Y-133500000D02*
X123900000Y-133500000D01*
X122000000Y-135400000D02*
X122000000Y-133500000D01*
X123900000Y-133500000D02*
X123900000Y-135400000D01*
X123900000Y-135400000D02*
X122000000Y-135400000D01*
%TO.C,C75*%
X102287160Y-102872499D02*
X102502832Y-102872499D01*
X102287160Y-103592499D02*
X102502832Y-103592499D01*
%TO.C,R40*%
X131211359Y-125733100D02*
X131518641Y-125733100D01*
X131211359Y-126493100D02*
X131518641Y-126493100D01*
%TO.C,TP9*%
X113100000Y-138000000D02*
X115000000Y-138000000D01*
X113100000Y-139900000D02*
X113100000Y-138000000D01*
X115000000Y-138000000D02*
X115000000Y-139900000D01*
X115000000Y-139900000D02*
X113100000Y-139900000D01*
%TO.C,TP7*%
X107600000Y-127000000D02*
X109500000Y-127000000D01*
X107600000Y-128900000D02*
X107600000Y-127000000D01*
X109500000Y-127000000D02*
X109500000Y-128900000D01*
X109500000Y-128900000D02*
X107600000Y-128900000D01*
%TO.C,TP4*%
X141000000Y-125000000D02*
X142900000Y-125000000D01*
X141000000Y-126900000D02*
X141000000Y-125000000D01*
X142900000Y-125000000D02*
X142900000Y-126900000D01*
X142900000Y-126900000D02*
X141000000Y-126900000D01*
%TO.C,R36*%
X141753641Y-117537400D02*
X141446359Y-117537400D01*
X141753641Y-118297400D02*
X141446359Y-118297400D01*
D14*
%TO.C,U8*%
X128960808Y-113829205D02*
X128960808Y-112050795D01*
X132039192Y-113829205D02*
X132039192Y-112050795D01*
D16*
X128981839Y-114241499D02*
G75*
G02*
X128681611Y-114241499I-150114J0D01*
G01*
X128681611Y-114241499D02*
G75*
G02*
X128981839Y-114241499I150114J0D01*
G01*
D14*
%TO.C,U18*%
X128960808Y-122109205D02*
X128960808Y-120330795D01*
X132039192Y-122109205D02*
X132039192Y-120330795D01*
D16*
X128981839Y-122521499D02*
G75*
G02*
X128681611Y-122521499I-150114J0D01*
G01*
X128681611Y-122521499D02*
G75*
G02*
X128981839Y-122521499I150114J0D01*
G01*
D10*
%TO.C,PZ1*%
X133000000Y-136500000D02*
X134900000Y-136500000D01*
X133000000Y-138400000D02*
X133000000Y-136500000D01*
X134900000Y-136500000D02*
X134900000Y-138400000D01*
X134900000Y-138400000D02*
X133000000Y-138400000D01*
D19*
%TO.C,U11*%
X110813787Y-103048588D02*
X115866213Y-103048588D01*
X110813787Y-104121105D02*
X110813787Y-103048588D01*
X110813787Y-105005382D02*
X110813787Y-106091412D01*
X110813787Y-106091412D02*
X115866213Y-106091412D01*
X111272436Y-103048588D02*
X110813787Y-103048588D01*
X111272436Y-106091412D02*
X110813787Y-106091412D01*
X112542438Y-103048588D02*
X111597557Y-103048588D01*
X112542438Y-106091412D02*
X111597557Y-106091412D01*
X113812441Y-103048588D02*
X112867559Y-103048588D01*
X113812441Y-106091412D02*
X112867559Y-106091412D01*
X115082443Y-103048588D02*
X114137562Y-103048588D01*
X115082443Y-106091412D02*
X114137562Y-106091412D01*
X115866213Y-103048588D02*
X115407564Y-103048588D01*
X115866213Y-103048588D02*
X115866213Y-106091412D01*
X115866213Y-106091412D02*
X115407564Y-106091412D01*
X110813787Y-105005383D02*
G75*
G02*
X110813787Y-104121105I0J442139D01*
G01*
D16*
X111585110Y-105586002D02*
G75*
G02*
X111284882Y-105586002I-150114J0D01*
G01*
X111284882Y-105586002D02*
G75*
G02*
X111585110Y-105586002I150114J0D01*
G01*
D12*
%TO.C,J1*%
X117927915Y-98999016D02*
X117927915Y-100471990D01*
X117927915Y-102428048D02*
X117927915Y-104422003D01*
X117999924Y-98850019D02*
X126999924Y-98850019D01*
X126999924Y-98850019D02*
X126999924Y-100468866D01*
X126999924Y-102431172D02*
X126999924Y-104418904D01*
D10*
%TO.C,TP2*%
X103500000Y-134500000D02*
X105400000Y-134500000D01*
X103500000Y-136400000D02*
X103500000Y-134500000D01*
X105400000Y-134500000D02*
X105400000Y-136400000D01*
X105400000Y-136400000D02*
X103500000Y-136400000D01*
%TO.C,R51*%
X103531360Y-109237501D02*
X103838642Y-109237501D01*
X103531360Y-109997501D02*
X103838642Y-109997501D01*
%TO.C,P44*%
X115270000Y-131891100D02*
X117170000Y-131891100D01*
X115270000Y-133791100D02*
X115270000Y-131891100D01*
X117170000Y-131891100D02*
X117170000Y-133791100D01*
X117170000Y-133791100D02*
X115270000Y-133791100D01*
%TO.C,P72*%
X109600000Y-131500000D02*
X111500000Y-131500000D01*
X109600000Y-133400000D02*
X109600000Y-131500000D01*
X111500000Y-131500000D02*
X111500000Y-133400000D01*
X111500000Y-133400000D02*
X109600000Y-133400000D01*
%TO.C,TP22*%
X104000000Y-100850000D02*
X105900000Y-100850000D01*
X104000000Y-102750000D02*
X104000000Y-100850000D01*
X105900000Y-100850000D02*
X105900000Y-102750000D01*
X105900000Y-102750000D02*
X104000000Y-102750000D01*
%TO.C,PL2*%
X102500000Y-139000000D02*
X104400000Y-139000000D01*
X102500000Y-140900000D02*
X102500000Y-139000000D01*
X104400000Y-139000000D02*
X104400000Y-140900000D01*
X104400000Y-140900000D02*
X102500000Y-140900000D01*
%TD*%
M02*
