%TF.GenerationSoftware,KiCad,Pcbnew,9.0.8+dfsg-1*%
%TF.CreationDate,2026-09-23T13:40:47+01:00*%
%TF.ProjectId,NAVCORE-SoOP,4e415643-4f52-4452-9d53-6f4f502e6b69,rev?*%
%TF.SameCoordinates,Original*%
%TF.FileFunction,Legend,Bot*%
%TF.FilePolarity,Positive*%
%FSLAX46Y46*%
G04 Gerber Fmt 4.6, Leading zero omitted, Abs format (unit mm)*
G04 Created by KiCad (PCBNEW 9.0.8+dfsg-1) date 2026-09-23 13:40:47*
%MOMM*%
%LPD*%
G01*
G04 APERTURE LIST*
%ADD10C,0.120000*%
%ADD11C,0.150000*%
%ADD12C,0.254001*%
%ADD13C,0.152400*%
%ADD14C,0.150013*%
%ADD15C,0.151994*%
%ADD16C,0.300000*%
%ADD17C,0.100000*%
%ADD18C,0.200000*%
G04 APERTURE END LIST*
D10*
X109960713Y-145348855D02*
X109503570Y-145348855D01*
X109732142Y-146148855D02*
X109732142Y-145348855D01*
X109084522Y-145348855D02*
X108932141Y-145348855D01*
X108932141Y-145348855D02*
X108855951Y-145386950D01*
X108855951Y-145386950D02*
X108779760Y-145463140D01*
X108779760Y-145463140D02*
X108741665Y-145615521D01*
X108741665Y-145615521D02*
X108741665Y-145882188D01*
X108741665Y-145882188D02*
X108779760Y-146034569D01*
X108779760Y-146034569D02*
X108855951Y-146110760D01*
X108855951Y-146110760D02*
X108932141Y-146148855D01*
X108932141Y-146148855D02*
X109084522Y-146148855D01*
X109084522Y-146148855D02*
X109160713Y-146110760D01*
X109160713Y-146110760D02*
X109236903Y-146034569D01*
X109236903Y-146034569D02*
X109274999Y-145882188D01*
X109274999Y-145882188D02*
X109274999Y-145615521D01*
X109274999Y-145615521D02*
X109236903Y-145463140D01*
X109236903Y-145463140D02*
X109160713Y-145386950D01*
X109160713Y-145386950D02*
X109084522Y-145348855D01*
X108398808Y-145348855D02*
X108398808Y-145996474D01*
X108398808Y-145996474D02*
X108360713Y-146072664D01*
X108360713Y-146072664D02*
X108322618Y-146110760D01*
X108322618Y-146110760D02*
X108246427Y-146148855D01*
X108246427Y-146148855D02*
X108094046Y-146148855D01*
X108094046Y-146148855D02*
X108017856Y-146110760D01*
X108017856Y-146110760D02*
X107979761Y-146072664D01*
X107979761Y-146072664D02*
X107941665Y-145996474D01*
X107941665Y-145996474D02*
X107941665Y-145348855D01*
X107103570Y-146072664D02*
X107141666Y-146110760D01*
X107141666Y-146110760D02*
X107255951Y-146148855D01*
X107255951Y-146148855D02*
X107332142Y-146148855D01*
X107332142Y-146148855D02*
X107446428Y-146110760D01*
X107446428Y-146110760D02*
X107522618Y-146034569D01*
X107522618Y-146034569D02*
X107560713Y-145958379D01*
X107560713Y-145958379D02*
X107598809Y-145805998D01*
X107598809Y-145805998D02*
X107598809Y-145691712D01*
X107598809Y-145691712D02*
X107560713Y-145539331D01*
X107560713Y-145539331D02*
X107522618Y-145463140D01*
X107522618Y-145463140D02*
X107446428Y-145386950D01*
X107446428Y-145386950D02*
X107332142Y-145348855D01*
X107332142Y-145348855D02*
X107255951Y-145348855D01*
X107255951Y-145348855D02*
X107141666Y-145386950D01*
X107141666Y-145386950D02*
X107103570Y-145425045D01*
X106760713Y-146148855D02*
X106760713Y-145348855D01*
X106760713Y-145729807D02*
X106303570Y-145729807D01*
X106303570Y-146148855D02*
X106303570Y-145348855D01*
X137610714Y-110539807D02*
X137877380Y-110539807D01*
X137877380Y-110958855D02*
X137877380Y-110158855D01*
X137877380Y-110158855D02*
X137496428Y-110158855D01*
X136810714Y-110958855D02*
X137191666Y-110958855D01*
X137191666Y-110958855D02*
X137191666Y-110158855D01*
X136391666Y-110158855D02*
X136239285Y-110158855D01*
X136239285Y-110158855D02*
X136163095Y-110196950D01*
X136163095Y-110196950D02*
X136086904Y-110273140D01*
X136086904Y-110273140D02*
X136048809Y-110425521D01*
X136048809Y-110425521D02*
X136048809Y-110692188D01*
X136048809Y-110692188D02*
X136086904Y-110844569D01*
X136086904Y-110844569D02*
X136163095Y-110920760D01*
X136163095Y-110920760D02*
X136239285Y-110958855D01*
X136239285Y-110958855D02*
X136391666Y-110958855D01*
X136391666Y-110958855D02*
X136467857Y-110920760D01*
X136467857Y-110920760D02*
X136544047Y-110844569D01*
X136544047Y-110844569D02*
X136582143Y-110692188D01*
X136582143Y-110692188D02*
X136582143Y-110425521D01*
X136582143Y-110425521D02*
X136544047Y-110273140D01*
X136544047Y-110273140D02*
X136467857Y-110196950D01*
X136467857Y-110196950D02*
X136391666Y-110158855D01*
X135782143Y-110158855D02*
X135591667Y-110958855D01*
X135591667Y-110958855D02*
X135439286Y-110387426D01*
X135439286Y-110387426D02*
X135286905Y-110958855D01*
X135286905Y-110958855D02*
X135096429Y-110158855D01*
X142698809Y-107779807D02*
X142584523Y-107817902D01*
X142584523Y-107817902D02*
X142546428Y-107855998D01*
X142546428Y-107855998D02*
X142508332Y-107932188D01*
X142508332Y-107932188D02*
X142508332Y-108046474D01*
X142508332Y-108046474D02*
X142546428Y-108122664D01*
X142546428Y-108122664D02*
X142584523Y-108160760D01*
X142584523Y-108160760D02*
X142660713Y-108198855D01*
X142660713Y-108198855D02*
X142965475Y-108198855D01*
X142965475Y-108198855D02*
X142965475Y-107398855D01*
X142965475Y-107398855D02*
X142698809Y-107398855D01*
X142698809Y-107398855D02*
X142622618Y-107436950D01*
X142622618Y-107436950D02*
X142584523Y-107475045D01*
X142584523Y-107475045D02*
X142546428Y-107551236D01*
X142546428Y-107551236D02*
X142546428Y-107627426D01*
X142546428Y-107627426D02*
X142584523Y-107703617D01*
X142584523Y-107703617D02*
X142622618Y-107741712D01*
X142622618Y-107741712D02*
X142698809Y-107779807D01*
X142698809Y-107779807D02*
X142965475Y-107779807D01*
X142165475Y-107398855D02*
X142165475Y-108046474D01*
X142165475Y-108046474D02*
X142127380Y-108122664D01*
X142127380Y-108122664D02*
X142089285Y-108160760D01*
X142089285Y-108160760D02*
X142013094Y-108198855D01*
X142013094Y-108198855D02*
X141860713Y-108198855D01*
X141860713Y-108198855D02*
X141784523Y-108160760D01*
X141784523Y-108160760D02*
X141746428Y-108122664D01*
X141746428Y-108122664D02*
X141708332Y-108046474D01*
X141708332Y-108046474D02*
X141708332Y-107398855D01*
X141403571Y-107398855D02*
X140870237Y-107398855D01*
X140870237Y-107398855D02*
X141403571Y-108198855D01*
X141403571Y-108198855D02*
X140870237Y-108198855D01*
X140641666Y-107398855D02*
X140108332Y-107398855D01*
X140108332Y-107398855D02*
X140641666Y-108198855D01*
X140641666Y-108198855D02*
X140108332Y-108198855D01*
X143497380Y-126608855D02*
X143764047Y-126227902D01*
X143954523Y-126608855D02*
X143954523Y-125808855D01*
X143954523Y-125808855D02*
X143649761Y-125808855D01*
X143649761Y-125808855D02*
X143573571Y-125846950D01*
X143573571Y-125846950D02*
X143535476Y-125885045D01*
X143535476Y-125885045D02*
X143497380Y-125961236D01*
X143497380Y-125961236D02*
X143497380Y-126075521D01*
X143497380Y-126075521D02*
X143535476Y-126151712D01*
X143535476Y-126151712D02*
X143573571Y-126189807D01*
X143573571Y-126189807D02*
X143649761Y-126227902D01*
X143649761Y-126227902D02*
X143954523Y-126227902D01*
X142697380Y-126532664D02*
X142735476Y-126570760D01*
X142735476Y-126570760D02*
X142849761Y-126608855D01*
X142849761Y-126608855D02*
X142925952Y-126608855D01*
X142925952Y-126608855D02*
X143040238Y-126570760D01*
X143040238Y-126570760D02*
X143116428Y-126494569D01*
X143116428Y-126494569D02*
X143154523Y-126418379D01*
X143154523Y-126418379D02*
X143192619Y-126265998D01*
X143192619Y-126265998D02*
X143192619Y-126151712D01*
X143192619Y-126151712D02*
X143154523Y-125999331D01*
X143154523Y-125999331D02*
X143116428Y-125923140D01*
X143116428Y-125923140D02*
X143040238Y-125846950D01*
X143040238Y-125846950D02*
X142925952Y-125808855D01*
X142925952Y-125808855D02*
X142849761Y-125808855D01*
X142849761Y-125808855D02*
X142735476Y-125846950D01*
X142735476Y-125846950D02*
X142697380Y-125885045D01*
X105338855Y-123487857D02*
X105986474Y-123487857D01*
X105986474Y-123487857D02*
X106062664Y-123525952D01*
X106062664Y-123525952D02*
X106100760Y-123564047D01*
X106100760Y-123564047D02*
X106138855Y-123640238D01*
X106138855Y-123640238D02*
X106138855Y-123792619D01*
X106138855Y-123792619D02*
X106100760Y-123868809D01*
X106100760Y-123868809D02*
X106062664Y-123906904D01*
X106062664Y-123906904D02*
X105986474Y-123945000D01*
X105986474Y-123945000D02*
X105338855Y-123945000D01*
X105910283Y-124287856D02*
X105910283Y-124668809D01*
X106138855Y-124211666D02*
X105338855Y-124478333D01*
X105338855Y-124478333D02*
X106138855Y-124744999D01*
X106138855Y-125468809D02*
X105757902Y-125202142D01*
X106138855Y-125011666D02*
X105338855Y-125011666D01*
X105338855Y-125011666D02*
X105338855Y-125316428D01*
X105338855Y-125316428D02*
X105376950Y-125392618D01*
X105376950Y-125392618D02*
X105415045Y-125430713D01*
X105415045Y-125430713D02*
X105491236Y-125468809D01*
X105491236Y-125468809D02*
X105605521Y-125468809D01*
X105605521Y-125468809D02*
X105681712Y-125430713D01*
X105681712Y-125430713D02*
X105719807Y-125392618D01*
X105719807Y-125392618D02*
X105757902Y-125316428D01*
X105757902Y-125316428D02*
X105757902Y-125011666D01*
X105338855Y-125697380D02*
X105338855Y-126154523D01*
X106138855Y-125925951D02*
X105338855Y-125925951D01*
X105415045Y-126383094D02*
X105376950Y-126421190D01*
X105376950Y-126421190D02*
X105338855Y-126497380D01*
X105338855Y-126497380D02*
X105338855Y-126687856D01*
X105338855Y-126687856D02*
X105376950Y-126764047D01*
X105376950Y-126764047D02*
X105415045Y-126802142D01*
X105415045Y-126802142D02*
X105491236Y-126840237D01*
X105491236Y-126840237D02*
X105567426Y-126840237D01*
X105567426Y-126840237D02*
X105681712Y-126802142D01*
X105681712Y-126802142D02*
X106138855Y-126344999D01*
X106138855Y-126344999D02*
X106138855Y-126840237D01*
X138222664Y-141160715D02*
X138260760Y-141122619D01*
X138260760Y-141122619D02*
X138298855Y-141008334D01*
X138298855Y-141008334D02*
X138298855Y-140932143D01*
X138298855Y-140932143D02*
X138260760Y-140817857D01*
X138260760Y-140817857D02*
X138184569Y-140741667D01*
X138184569Y-140741667D02*
X138108379Y-140703572D01*
X138108379Y-140703572D02*
X137955998Y-140665476D01*
X137955998Y-140665476D02*
X137841712Y-140665476D01*
X137841712Y-140665476D02*
X137689331Y-140703572D01*
X137689331Y-140703572D02*
X137613140Y-140741667D01*
X137613140Y-140741667D02*
X137536950Y-140817857D01*
X137536950Y-140817857D02*
X137498855Y-140932143D01*
X137498855Y-140932143D02*
X137498855Y-141008334D01*
X137498855Y-141008334D02*
X137536950Y-141122619D01*
X137536950Y-141122619D02*
X137575045Y-141160715D01*
X138070283Y-141465476D02*
X138070283Y-141846429D01*
X138298855Y-141389286D02*
X137498855Y-141655953D01*
X137498855Y-141655953D02*
X138298855Y-141922619D01*
X138298855Y-142189286D02*
X137498855Y-142189286D01*
X137498855Y-142189286D02*
X138298855Y-142646429D01*
X138298855Y-142646429D02*
X137498855Y-142646429D01*
D11*
X135533332Y-145554819D02*
X135533332Y-144554819D01*
X134485714Y-145554819D02*
X134819047Y-145078628D01*
X135057142Y-145554819D02*
X135057142Y-144554819D01*
X135057142Y-144554819D02*
X134676190Y-144554819D01*
X134676190Y-144554819D02*
X134580952Y-144602438D01*
X134580952Y-144602438D02*
X134533333Y-144650057D01*
X134533333Y-144650057D02*
X134485714Y-144745295D01*
X134485714Y-144745295D02*
X134485714Y-144888152D01*
X134485714Y-144888152D02*
X134533333Y-144983390D01*
X134533333Y-144983390D02*
X134580952Y-145031009D01*
X134580952Y-145031009D02*
X134676190Y-145078628D01*
X134676190Y-145078628D02*
X135057142Y-145078628D01*
X134057142Y-145554819D02*
X134057142Y-144554819D01*
X133580952Y-145554819D02*
X133580952Y-144554819D01*
X133580952Y-144554819D02*
X133342857Y-144554819D01*
X133342857Y-144554819D02*
X133200000Y-144602438D01*
X133200000Y-144602438D02*
X133104762Y-144697676D01*
X133104762Y-144697676D02*
X133057143Y-144792914D01*
X133057143Y-144792914D02*
X133009524Y-144983390D01*
X133009524Y-144983390D02*
X133009524Y-145126247D01*
X133009524Y-145126247D02*
X133057143Y-145316723D01*
X133057143Y-145316723D02*
X133104762Y-145411961D01*
X133104762Y-145411961D02*
X133200000Y-145507200D01*
X133200000Y-145507200D02*
X133342857Y-145554819D01*
X133342857Y-145554819D02*
X133580952Y-145554819D01*
X132580952Y-145554819D02*
X132580952Y-144554819D01*
X132104762Y-144554819D02*
X132104762Y-145364342D01*
X132104762Y-145364342D02*
X132057143Y-145459580D01*
X132057143Y-145459580D02*
X132009524Y-145507200D01*
X132009524Y-145507200D02*
X131914286Y-145554819D01*
X131914286Y-145554819D02*
X131723810Y-145554819D01*
X131723810Y-145554819D02*
X131628572Y-145507200D01*
X131628572Y-145507200D02*
X131580953Y-145459580D01*
X131580953Y-145459580D02*
X131533334Y-145364342D01*
X131533334Y-145364342D02*
X131533334Y-144554819D01*
X131057143Y-145554819D02*
X131057143Y-144554819D01*
X131057143Y-144554819D02*
X130723810Y-145269104D01*
X130723810Y-145269104D02*
X130390477Y-144554819D01*
X130390477Y-144554819D02*
X130390477Y-145554819D01*
X129152381Y-145554819D02*
X129152381Y-144554819D01*
X129152381Y-144554819D02*
X128580953Y-145554819D01*
X128580953Y-145554819D02*
X128580953Y-144554819D01*
X128152381Y-145269104D02*
X127676191Y-145269104D01*
X128247619Y-145554819D02*
X127914286Y-144554819D01*
X127914286Y-144554819D02*
X127580953Y-145554819D01*
X127390476Y-144554819D02*
X127057143Y-145554819D01*
X127057143Y-145554819D02*
X126723810Y-144554819D01*
D10*
X135014285Y-140511855D02*
X135014285Y-139711855D01*
X135014285Y-139711855D02*
X134709523Y-139711855D01*
X134709523Y-139711855D02*
X134633333Y-139749950D01*
X134633333Y-139749950D02*
X134595238Y-139788045D01*
X134595238Y-139788045D02*
X134557142Y-139864236D01*
X134557142Y-139864236D02*
X134557142Y-139978521D01*
X134557142Y-139978521D02*
X134595238Y-140054712D01*
X134595238Y-140054712D02*
X134633333Y-140092807D01*
X134633333Y-140092807D02*
X134709523Y-140130902D01*
X134709523Y-140130902D02*
X135014285Y-140130902D01*
X133833333Y-140511855D02*
X134214285Y-140511855D01*
X134214285Y-140511855D02*
X134214285Y-139711855D01*
X133642857Y-139711855D02*
X133147619Y-139711855D01*
X133147619Y-139711855D02*
X133414285Y-140016617D01*
X133414285Y-140016617D02*
X133300000Y-140016617D01*
X133300000Y-140016617D02*
X133223809Y-140054712D01*
X133223809Y-140054712D02*
X133185714Y-140092807D01*
X133185714Y-140092807D02*
X133147619Y-140168998D01*
X133147619Y-140168998D02*
X133147619Y-140359474D01*
X133147619Y-140359474D02*
X133185714Y-140435664D01*
X133185714Y-140435664D02*
X133223809Y-140473760D01*
X133223809Y-140473760D02*
X133300000Y-140511855D01*
X133300000Y-140511855D02*
X133528571Y-140511855D01*
X133528571Y-140511855D02*
X133604762Y-140473760D01*
X133604762Y-140473760D02*
X133642857Y-140435664D01*
X112383332Y-141961855D02*
X112383332Y-141161855D01*
X112383332Y-141161855D02*
X112078570Y-141161855D01*
X112078570Y-141161855D02*
X112002380Y-141199950D01*
X112002380Y-141199950D02*
X111964285Y-141238045D01*
X111964285Y-141238045D02*
X111926189Y-141314236D01*
X111926189Y-141314236D02*
X111926189Y-141428521D01*
X111926189Y-141428521D02*
X111964285Y-141504712D01*
X111964285Y-141504712D02*
X112002380Y-141542807D01*
X112002380Y-141542807D02*
X112078570Y-141580902D01*
X112078570Y-141580902D02*
X112383332Y-141580902D01*
X111697618Y-141161855D02*
X111430951Y-141961855D01*
X111430951Y-141961855D02*
X111164285Y-141161855D01*
X110478571Y-141961855D02*
X110935714Y-141961855D01*
X110707142Y-141961855D02*
X110707142Y-141161855D01*
X110707142Y-141161855D02*
X110783333Y-141276140D01*
X110783333Y-141276140D02*
X110859523Y-141352331D01*
X110859523Y-141352331D02*
X110935714Y-141390426D01*
D11*
X135342857Y-128119280D02*
X135390476Y-128166900D01*
X135390476Y-128166900D02*
X135533333Y-128214519D01*
X135533333Y-128214519D02*
X135628571Y-128214519D01*
X135628571Y-128214519D02*
X135771428Y-128166900D01*
X135771428Y-128166900D02*
X135866666Y-128071661D01*
X135866666Y-128071661D02*
X135914285Y-127976423D01*
X135914285Y-127976423D02*
X135961904Y-127785947D01*
X135961904Y-127785947D02*
X135961904Y-127643090D01*
X135961904Y-127643090D02*
X135914285Y-127452614D01*
X135914285Y-127452614D02*
X135866666Y-127357376D01*
X135866666Y-127357376D02*
X135771428Y-127262138D01*
X135771428Y-127262138D02*
X135628571Y-127214519D01*
X135628571Y-127214519D02*
X135533333Y-127214519D01*
X135533333Y-127214519D02*
X135390476Y-127262138D01*
X135390476Y-127262138D02*
X135342857Y-127309757D01*
X135009523Y-127214519D02*
X134342857Y-127214519D01*
X134342857Y-127214519D02*
X134771428Y-128214519D01*
X133533333Y-127547852D02*
X133533333Y-128214519D01*
X133771428Y-127166900D02*
X134009523Y-127881185D01*
X134009523Y-127881185D02*
X133390476Y-127881185D01*
D10*
X121259650Y-105637642D02*
X121259650Y-106285261D01*
X121259650Y-106285261D02*
X121221555Y-106361451D01*
X121221555Y-106361451D02*
X121183460Y-106399547D01*
X121183460Y-106399547D02*
X121107269Y-106437642D01*
X121107269Y-106437642D02*
X120954888Y-106437642D01*
X120954888Y-106437642D02*
X120878698Y-106399547D01*
X120878698Y-106399547D02*
X120840603Y-106361451D01*
X120840603Y-106361451D02*
X120802507Y-106285261D01*
X120802507Y-106285261D02*
X120802507Y-105637642D01*
X120459651Y-105713832D02*
X120421555Y-105675737D01*
X120421555Y-105675737D02*
X120345365Y-105637642D01*
X120345365Y-105637642D02*
X120154889Y-105637642D01*
X120154889Y-105637642D02*
X120078698Y-105675737D01*
X120078698Y-105675737D02*
X120040603Y-105713832D01*
X120040603Y-105713832D02*
X120002508Y-105790023D01*
X120002508Y-105790023D02*
X120002508Y-105866213D01*
X120002508Y-105866213D02*
X120040603Y-105980499D01*
X120040603Y-105980499D02*
X120497746Y-106437642D01*
X120497746Y-106437642D02*
X120002508Y-106437642D01*
X133247066Y-133903410D02*
X132447066Y-133903410D01*
X132447066Y-133903410D02*
X132447066Y-134208172D01*
X132447066Y-134208172D02*
X132485161Y-134284362D01*
X132485161Y-134284362D02*
X132523256Y-134322457D01*
X132523256Y-134322457D02*
X132599447Y-134360553D01*
X132599447Y-134360553D02*
X132713732Y-134360553D01*
X132713732Y-134360553D02*
X132789923Y-134322457D01*
X132789923Y-134322457D02*
X132828018Y-134284362D01*
X132828018Y-134284362D02*
X132866113Y-134208172D01*
X132866113Y-134208172D02*
X132866113Y-133903410D01*
X133247066Y-135084362D02*
X133247066Y-134703410D01*
X133247066Y-134703410D02*
X132447066Y-134703410D01*
X133247066Y-135770076D02*
X133247066Y-135312933D01*
X133247066Y-135541505D02*
X132447066Y-135541505D01*
X132447066Y-135541505D02*
X132561351Y-135465314D01*
X132561351Y-135465314D02*
X132637542Y-135389124D01*
X132637542Y-135389124D02*
X132675637Y-135312933D01*
D11*
X111547857Y-105817080D02*
X111595476Y-105864700D01*
X111595476Y-105864700D02*
X111738333Y-105912319D01*
X111738333Y-105912319D02*
X111833571Y-105912319D01*
X111833571Y-105912319D02*
X111976428Y-105864700D01*
X111976428Y-105864700D02*
X112071666Y-105769461D01*
X112071666Y-105769461D02*
X112119285Y-105674223D01*
X112119285Y-105674223D02*
X112166904Y-105483747D01*
X112166904Y-105483747D02*
X112166904Y-105340890D01*
X112166904Y-105340890D02*
X112119285Y-105150414D01*
X112119285Y-105150414D02*
X112071666Y-105055176D01*
X112071666Y-105055176D02*
X111976428Y-104959938D01*
X111976428Y-104959938D02*
X111833571Y-104912319D01*
X111833571Y-104912319D02*
X111738333Y-104912319D01*
X111738333Y-104912319D02*
X111595476Y-104959938D01*
X111595476Y-104959938D02*
X111547857Y-105007557D01*
X111214523Y-104912319D02*
X110547857Y-104912319D01*
X110547857Y-104912319D02*
X110976428Y-105912319D01*
X109738333Y-104912319D02*
X109928809Y-104912319D01*
X109928809Y-104912319D02*
X110024047Y-104959938D01*
X110024047Y-104959938D02*
X110071666Y-105007557D01*
X110071666Y-105007557D02*
X110166904Y-105150414D01*
X110166904Y-105150414D02*
X110214523Y-105340890D01*
X110214523Y-105340890D02*
X110214523Y-105721842D01*
X110214523Y-105721842D02*
X110166904Y-105817080D01*
X110166904Y-105817080D02*
X110119285Y-105864700D01*
X110119285Y-105864700D02*
X110024047Y-105912319D01*
X110024047Y-105912319D02*
X109833571Y-105912319D01*
X109833571Y-105912319D02*
X109738333Y-105864700D01*
X109738333Y-105864700D02*
X109690714Y-105817080D01*
X109690714Y-105817080D02*
X109643095Y-105721842D01*
X109643095Y-105721842D02*
X109643095Y-105483747D01*
X109643095Y-105483747D02*
X109690714Y-105388509D01*
X109690714Y-105388509D02*
X109738333Y-105340890D01*
X109738333Y-105340890D02*
X109833571Y-105293271D01*
X109833571Y-105293271D02*
X110024047Y-105293271D01*
X110024047Y-105293271D02*
X110119285Y-105340890D01*
X110119285Y-105340890D02*
X110166904Y-105388509D01*
X110166904Y-105388509D02*
X110214523Y-105483747D01*
D10*
X122658020Y-127234695D02*
X122658020Y-127806123D01*
X122658020Y-127806123D02*
X122696115Y-127920409D01*
X122696115Y-127920409D02*
X122772306Y-127996600D01*
X122772306Y-127996600D02*
X122886591Y-128034695D01*
X122886591Y-128034695D02*
X122962782Y-128034695D01*
X122162782Y-127577552D02*
X122238972Y-127539457D01*
X122238972Y-127539457D02*
X122277067Y-127501361D01*
X122277067Y-127501361D02*
X122315163Y-127425171D01*
X122315163Y-127425171D02*
X122315163Y-127387076D01*
X122315163Y-127387076D02*
X122277067Y-127310885D01*
X122277067Y-127310885D02*
X122238972Y-127272790D01*
X122238972Y-127272790D02*
X122162782Y-127234695D01*
X122162782Y-127234695D02*
X122010401Y-127234695D01*
X122010401Y-127234695D02*
X121934210Y-127272790D01*
X121934210Y-127272790D02*
X121896115Y-127310885D01*
X121896115Y-127310885D02*
X121858020Y-127387076D01*
X121858020Y-127387076D02*
X121858020Y-127425171D01*
X121858020Y-127425171D02*
X121896115Y-127501361D01*
X121896115Y-127501361D02*
X121934210Y-127539457D01*
X121934210Y-127539457D02*
X122010401Y-127577552D01*
X122010401Y-127577552D02*
X122162782Y-127577552D01*
X122162782Y-127577552D02*
X122238972Y-127615647D01*
X122238972Y-127615647D02*
X122277067Y-127653742D01*
X122277067Y-127653742D02*
X122315163Y-127729933D01*
X122315163Y-127729933D02*
X122315163Y-127882314D01*
X122315163Y-127882314D02*
X122277067Y-127958504D01*
X122277067Y-127958504D02*
X122238972Y-127996600D01*
X122238972Y-127996600D02*
X122162782Y-128034695D01*
X122162782Y-128034695D02*
X122010401Y-128034695D01*
X122010401Y-128034695D02*
X121934210Y-127996600D01*
X121934210Y-127996600D02*
X121896115Y-127958504D01*
X121896115Y-127958504D02*
X121858020Y-127882314D01*
X121858020Y-127882314D02*
X121858020Y-127729933D01*
X121858020Y-127729933D02*
X121896115Y-127653742D01*
X121896115Y-127653742D02*
X121934210Y-127615647D01*
X121934210Y-127615647D02*
X122010401Y-127577552D01*
X115063982Y-106320349D02*
X115711601Y-106320349D01*
X115711601Y-106320349D02*
X115787791Y-106358444D01*
X115787791Y-106358444D02*
X115825887Y-106396539D01*
X115825887Y-106396539D02*
X115863982Y-106472730D01*
X115863982Y-106472730D02*
X115863982Y-106625111D01*
X115863982Y-106625111D02*
X115825887Y-106701301D01*
X115825887Y-106701301D02*
X115787791Y-106739396D01*
X115787791Y-106739396D02*
X115711601Y-106777492D01*
X115711601Y-106777492D02*
X115063982Y-106777492D01*
X115330648Y-107501301D02*
X115863982Y-107501301D01*
X115025887Y-107310825D02*
X115597315Y-107120348D01*
X115597315Y-107120348D02*
X115597315Y-107615587D01*
D11*
X114338094Y-130230956D02*
X114338094Y-129230956D01*
X114338094Y-129230956D02*
X114099999Y-129230956D01*
X114099999Y-129230956D02*
X113957142Y-129278575D01*
X113957142Y-129278575D02*
X113861904Y-129373813D01*
X113861904Y-129373813D02*
X113814285Y-129469051D01*
X113814285Y-129469051D02*
X113766666Y-129659527D01*
X113766666Y-129659527D02*
X113766666Y-129802384D01*
X113766666Y-129802384D02*
X113814285Y-129992860D01*
X113814285Y-129992860D02*
X113861904Y-130088098D01*
X113861904Y-130088098D02*
X113957142Y-130183337D01*
X113957142Y-130183337D02*
X114099999Y-130230956D01*
X114099999Y-130230956D02*
X114338094Y-130230956D01*
X112861904Y-129230956D02*
X113338094Y-129230956D01*
X113338094Y-129230956D02*
X113385713Y-129707146D01*
X113385713Y-129707146D02*
X113338094Y-129659527D01*
X113338094Y-129659527D02*
X113242856Y-129611908D01*
X113242856Y-129611908D02*
X113004761Y-129611908D01*
X113004761Y-129611908D02*
X112909523Y-129659527D01*
X112909523Y-129659527D02*
X112861904Y-129707146D01*
X112861904Y-129707146D02*
X112814285Y-129802384D01*
X112814285Y-129802384D02*
X112814285Y-130040479D01*
X112814285Y-130040479D02*
X112861904Y-130135717D01*
X112861904Y-130135717D02*
X112909523Y-130183337D01*
X112909523Y-130183337D02*
X113004761Y-130230956D01*
X113004761Y-130230956D02*
X113242856Y-130230956D01*
X113242856Y-130230956D02*
X113338094Y-130183337D01*
X113338094Y-130183337D02*
X113385713Y-130135717D01*
D10*
X108326190Y-123663832D02*
X108402380Y-123625737D01*
X108402380Y-123625737D02*
X108478571Y-123549547D01*
X108478571Y-123549547D02*
X108592857Y-123435261D01*
X108592857Y-123435261D02*
X108669047Y-123397166D01*
X108669047Y-123397166D02*
X108745238Y-123397166D01*
X108707142Y-123587642D02*
X108783333Y-123549547D01*
X108783333Y-123549547D02*
X108859523Y-123473356D01*
X108859523Y-123473356D02*
X108897619Y-123320975D01*
X108897619Y-123320975D02*
X108897619Y-123054308D01*
X108897619Y-123054308D02*
X108859523Y-122901927D01*
X108859523Y-122901927D02*
X108783333Y-122825737D01*
X108783333Y-122825737D02*
X108707142Y-122787642D01*
X108707142Y-122787642D02*
X108554761Y-122787642D01*
X108554761Y-122787642D02*
X108478571Y-122825737D01*
X108478571Y-122825737D02*
X108402380Y-122901927D01*
X108402380Y-122901927D02*
X108364285Y-123054308D01*
X108364285Y-123054308D02*
X108364285Y-123320975D01*
X108364285Y-123320975D02*
X108402380Y-123473356D01*
X108402380Y-123473356D02*
X108478571Y-123549547D01*
X108478571Y-123549547D02*
X108554761Y-123587642D01*
X108554761Y-123587642D02*
X108707142Y-123587642D01*
X108097619Y-122787642D02*
X107602381Y-122787642D01*
X107602381Y-122787642D02*
X107869047Y-123092404D01*
X107869047Y-123092404D02*
X107754762Y-123092404D01*
X107754762Y-123092404D02*
X107678571Y-123130499D01*
X107678571Y-123130499D02*
X107640476Y-123168594D01*
X107640476Y-123168594D02*
X107602381Y-123244785D01*
X107602381Y-123244785D02*
X107602381Y-123435261D01*
X107602381Y-123435261D02*
X107640476Y-123511451D01*
X107640476Y-123511451D02*
X107678571Y-123549547D01*
X107678571Y-123549547D02*
X107754762Y-123587642D01*
X107754762Y-123587642D02*
X107983333Y-123587642D01*
X107983333Y-123587642D02*
X108059524Y-123549547D01*
X108059524Y-123549547D02*
X108097619Y-123511451D01*
X142100617Y-127204313D02*
X142100617Y-127585266D01*
X142367284Y-126785266D02*
X142100617Y-127204313D01*
X142100617Y-127204313D02*
X141833951Y-126785266D01*
X141605380Y-126861456D02*
X141567284Y-126823361D01*
X141567284Y-126823361D02*
X141491094Y-126785266D01*
X141491094Y-126785266D02*
X141300618Y-126785266D01*
X141300618Y-126785266D02*
X141224427Y-126823361D01*
X141224427Y-126823361D02*
X141186332Y-126861456D01*
X141186332Y-126861456D02*
X141148237Y-126937647D01*
X141148237Y-126937647D02*
X141148237Y-127013837D01*
X141148237Y-127013837D02*
X141186332Y-127128123D01*
X141186332Y-127128123D02*
X141643475Y-127585266D01*
X141643475Y-127585266D02*
X141148237Y-127585266D01*
D11*
X103561009Y-125466666D02*
X103561009Y-125133333D01*
X104084819Y-125133333D02*
X103084819Y-125133333D01*
X103084819Y-125133333D02*
X103084819Y-125609523D01*
X104084819Y-126514285D02*
X104084819Y-125942857D01*
X104084819Y-126228571D02*
X103084819Y-126228571D01*
X103084819Y-126228571D02*
X103227676Y-126133333D01*
X103227676Y-126133333D02*
X103322914Y-126038095D01*
X103322914Y-126038095D02*
X103370533Y-125942857D01*
D10*
X132863855Y-136233714D02*
X132063855Y-136233714D01*
X132063855Y-136233714D02*
X132063855Y-136538476D01*
X132063855Y-136538476D02*
X132101950Y-136614666D01*
X132101950Y-136614666D02*
X132140045Y-136652761D01*
X132140045Y-136652761D02*
X132216236Y-136690857D01*
X132216236Y-136690857D02*
X132330521Y-136690857D01*
X132330521Y-136690857D02*
X132406712Y-136652761D01*
X132406712Y-136652761D02*
X132444807Y-136614666D01*
X132444807Y-136614666D02*
X132482902Y-136538476D01*
X132482902Y-136538476D02*
X132482902Y-136233714D01*
X132863855Y-137414666D02*
X132863855Y-137033714D01*
X132863855Y-137033714D02*
X132063855Y-137033714D01*
X132140045Y-137643237D02*
X132101950Y-137681333D01*
X132101950Y-137681333D02*
X132063855Y-137757523D01*
X132063855Y-137757523D02*
X132063855Y-137947999D01*
X132063855Y-137947999D02*
X132101950Y-138024190D01*
X132101950Y-138024190D02*
X132140045Y-138062285D01*
X132140045Y-138062285D02*
X132216236Y-138100380D01*
X132216236Y-138100380D02*
X132292426Y-138100380D01*
X132292426Y-138100380D02*
X132406712Y-138062285D01*
X132406712Y-138062285D02*
X132863855Y-137605142D01*
X132863855Y-137605142D02*
X132863855Y-138100380D01*
%TO.C,R18*%
X117287258Y-121677500D02*
X116812742Y-121677500D01*
X117287258Y-122722500D02*
X116812742Y-122722500D01*
D12*
%TO.C,D_USB*%
X121657023Y-102600013D02*
X121656007Y-102598997D01*
X121662027Y-100899987D02*
X121661011Y-100901003D01*
X121953797Y-100899987D02*
X121662027Y-100899987D01*
X121953797Y-102600013D02*
X121657023Y-102600013D01*
X121953797Y-102600013D02*
X124646203Y-102600013D01*
X123019990Y-101750000D02*
X122689992Y-101750000D01*
X123045999Y-102258001D02*
X123045999Y-101241999D01*
X123122200Y-101750000D02*
X123706401Y-102156401D01*
X123706401Y-101343599D02*
X123122200Y-101750000D01*
X123706401Y-101750254D02*
X124020091Y-101750254D01*
X123706401Y-102156401D02*
X123706401Y-101343599D01*
X124646203Y-100899987D02*
X121953797Y-100899987D01*
X124646203Y-101043853D02*
X124646203Y-100899987D01*
X124646203Y-102600013D02*
X124646203Y-102456147D01*
D10*
X123706401Y-102156401D02*
X123122200Y-101750000D01*
X123706401Y-101343599D01*
X123706401Y-102156401D01*
G36*
X123706401Y-102156401D02*
G01*
X123122200Y-101750000D01*
X123706401Y-101343599D01*
X123706401Y-102156401D01*
G37*
X121798425Y-101143015D02*
X121493599Y-101143015D01*
X121493599Y-100772987D01*
X121798425Y-100772987D01*
X121798425Y-101143015D01*
G36*
X121798425Y-101143015D02*
G01*
X121493599Y-101143015D01*
X121493599Y-100772987D01*
X121798425Y-100772987D01*
X121798425Y-101143015D01*
G37*
X121798425Y-102727013D02*
X121493599Y-102727013D01*
X121493599Y-102356960D01*
X121798425Y-102356960D01*
X121798425Y-102727013D01*
G36*
X121798425Y-102727013D02*
G01*
X121493599Y-102727013D01*
X121493599Y-102356960D01*
X121798425Y-102356960D01*
X121798425Y-102727013D01*
G37*
%TO.C,R28*%
X137446459Y-111212600D02*
X137753741Y-111212600D01*
X137446459Y-111972600D02*
X137753741Y-111972600D01*
%TO.C,C3*%
X125747736Y-113407900D02*
X125532064Y-113407900D01*
X125747736Y-114127900D02*
X125532064Y-114127900D01*
%TO.C,R43*%
X138620841Y-121065100D02*
X138313559Y-121065100D01*
X138620841Y-121825100D02*
X138313559Y-121825100D01*
%TO.C,R49*%
X103858641Y-108852500D02*
X103551359Y-108852500D01*
X103858641Y-109612500D02*
X103551359Y-109612500D01*
%TO.C,R9*%
X110983741Y-119200000D02*
X110676459Y-119200000D01*
X110983741Y-119960000D02*
X110676459Y-119960000D01*
%TO.C,C11*%
X124887836Y-124769900D02*
X124672164Y-124769900D01*
X124887836Y-125489900D02*
X124672164Y-125489900D01*
%TO.C,PL3*%
X133150000Y-137550000D02*
X133150000Y-139450000D01*
X133150000Y-139450000D02*
X135050000Y-139450000D01*
X135050000Y-137550000D02*
X133150000Y-137550000D01*
X135050000Y-139450000D02*
X135050000Y-137550000D01*
%TO.C,C59*%
X133887164Y-121035000D02*
X134102836Y-121035000D01*
X133887164Y-121755000D02*
X134102836Y-121755000D01*
%TO.C,R26*%
X111538541Y-133675000D02*
X111231259Y-133675000D01*
X111538541Y-134435000D02*
X111231259Y-134435000D01*
%TO.C,C33*%
X123657836Y-112996900D02*
X123442164Y-112996900D01*
X123657836Y-113716900D02*
X123442164Y-113716900D01*
%TO.C,C22*%
X129961252Y-107040000D02*
X128538748Y-107040000D01*
X129961252Y-108860000D02*
X128538748Y-108860000D01*
%TO.C,R37*%
X134720000Y-116561041D02*
X134720000Y-116253759D01*
X135480000Y-116561041D02*
X135480000Y-116253759D01*
%TO.C,R10*%
X111483741Y-120566200D02*
X111176459Y-120566200D01*
X111483741Y-121326200D02*
X111176459Y-121326200D01*
%TO.C,C5*%
X110937936Y-123220000D02*
X110722264Y-123220000D01*
X110937936Y-123940000D02*
X110722264Y-123940000D01*
%TO.C,R19*%
X117592041Y-126160600D02*
X117284759Y-126160600D01*
X117592041Y-126920600D02*
X117284759Y-126920600D01*
%TO.C,C27*%
X136957836Y-125809700D02*
X136742164Y-125809700D01*
X136957836Y-126529700D02*
X136742164Y-126529700D01*
%TO.C,C80*%
X116377264Y-105340000D02*
X116592936Y-105340000D01*
X116377264Y-106060000D02*
X116592936Y-106060000D01*
%TO.C,C41*%
X113815136Y-106512700D02*
X113599464Y-106512700D01*
X113815136Y-107232700D02*
X113599464Y-107232700D01*
%TO.C,R41*%
X132922959Y-124955800D02*
X133230241Y-124955800D01*
X132922959Y-125715800D02*
X133230241Y-125715800D01*
%TO.C,PV1*%
X110500000Y-139000000D02*
X110500000Y-140900000D01*
X110500000Y-140900000D02*
X112400000Y-140900000D01*
X112400000Y-139000000D02*
X110500000Y-139000000D01*
X112400000Y-140900000D02*
X112400000Y-139000000D01*
%TO.C,C74*%
X134807836Y-128559700D02*
X134592164Y-128559700D01*
X134807836Y-129279700D02*
X134592164Y-129279700D01*
%TO.C,C61*%
X134492264Y-117647400D02*
X134707936Y-117647400D01*
X134492264Y-118367400D02*
X134707936Y-118367400D01*
%TO.C,L5*%
X125390000Y-121860000D02*
X129610000Y-121860000D01*
X129610000Y-117640000D02*
X125390000Y-117640000D01*
%TO.C,C57*%
X143199564Y-119140100D02*
X143415236Y-119140100D01*
X143199564Y-119860100D02*
X143415236Y-119860100D01*
D13*
%TO.C,U21*%
X113363805Y-102023927D02*
X113363805Y-103776327D01*
X113363805Y-103776327D02*
X114405410Y-103776327D01*
X115355398Y-102023927D02*
X114444602Y-102023927D01*
X116436195Y-102023927D02*
X116436195Y-103776327D01*
X116436195Y-103776327D02*
X115394590Y-103776327D01*
D10*
%TO.C,C4*%
X111193436Y-108729600D02*
X110977764Y-108729600D01*
X111193436Y-109449600D02*
X110977764Y-109449600D01*
%TO.C,C50*%
X143199564Y-115640000D02*
X143415236Y-115640000D01*
X143199564Y-116360000D02*
X143415236Y-116360000D01*
%TO.C,C10*%
X122487836Y-124769900D02*
X122272164Y-124769900D01*
X122487836Y-125489900D02*
X122272164Y-125489900D01*
%TO.C,R5*%
X137537941Y-122613000D02*
X137230659Y-122613000D01*
X137537941Y-123373000D02*
X137230659Y-123373000D01*
%TO.C,C32*%
X120546536Y-113023700D02*
X120330864Y-113023700D01*
X120546536Y-113743700D02*
X120330864Y-113743700D01*
D13*
%TO.C,U2*%
X119073927Y-108073787D02*
X119073927Y-108319507D01*
X119073927Y-110726213D02*
X119073927Y-110480493D01*
X119819622Y-108073787D02*
X119073927Y-108073787D01*
X119819622Y-110726213D02*
X119073927Y-110726213D01*
X121480632Y-108073787D02*
X122226327Y-108073787D01*
X121480632Y-110726213D02*
X122226327Y-110726213D01*
X122226327Y-108073787D02*
X122226327Y-108319507D01*
X122226327Y-110726213D02*
X122226327Y-110480493D01*
D14*
X122630061Y-108637998D02*
G75*
G02*
X122480201Y-108637998I-74930J0D01*
G01*
X122480201Y-108637998D02*
G75*
G02*
X122630061Y-108637998I74930J0D01*
G01*
D13*
%TO.C,D1*%
X101556287Y-118913792D02*
X101556287Y-119500610D01*
X101556287Y-122686208D02*
X101556287Y-122099390D01*
D15*
X105316002Y-118913792D02*
X105316002Y-122686208D01*
D13*
X107043713Y-118913792D02*
X101556287Y-118913792D01*
X107043713Y-122686208D02*
X101556287Y-122686208D01*
D10*
X107424714Y-119551410D02*
X106967513Y-119551410D01*
X106967513Y-118837592D01*
X107424714Y-118837592D01*
X107424714Y-119551410D01*
G36*
X107424714Y-119551410D02*
G01*
X106967513Y-119551410D01*
X106967513Y-118837592D01*
X107424714Y-118837592D01*
X107424714Y-119551410D01*
G37*
X107424714Y-122762408D02*
X106967513Y-122762408D01*
X106967513Y-122048590D01*
X107424714Y-122048590D01*
X107424714Y-122762408D01*
G36*
X107424714Y-122762408D02*
G01*
X106967513Y-122762408D01*
X106967513Y-122048590D01*
X107424714Y-122048590D01*
X107424714Y-122762408D01*
G37*
%TO.C,SW1*%
X108803800Y-115599700D02*
X108803800Y-115899700D01*
X108803800Y-118399700D02*
X108803800Y-118099700D01*
X112103800Y-115599700D02*
X108803800Y-115599700D01*
X112103800Y-115899700D02*
X112103800Y-115599700D01*
X112103800Y-118099700D02*
X112103800Y-118399700D01*
X112103800Y-118399700D02*
X108803800Y-118399700D01*
D13*
%TO.C,Q4*%
X101723787Y-102523787D02*
X101723787Y-103555410D01*
X101723787Y-105576213D02*
X101723787Y-104544590D01*
X103176213Y-102523787D02*
X101723787Y-102523787D01*
X103176213Y-104505398D02*
X103176213Y-103594602D01*
X103176213Y-105576213D02*
X101723787Y-105576213D01*
D10*
%TO.C,R56*%
X101846359Y-137620000D02*
X102153641Y-137620000D01*
X101846359Y-138380000D02*
X102153641Y-138380000D01*
D12*
%TO.C,J6*%
X139700025Y-139830036D02*
X142299975Y-139830036D01*
X139700025Y-140909970D02*
X139700025Y-139830036D01*
X139700025Y-144890005D02*
X139700025Y-145810020D01*
X139700025Y-145810020D02*
X142306807Y-145810020D01*
X143959970Y-140830036D02*
X143959970Y-144730010D01*
X140312547Y-140350635D02*
G75*
G02*
X140062611Y-140350635I-124968J0D01*
G01*
X140062611Y-140350635D02*
G75*
G02*
X140312547Y-140350635I124968J0D01*
G01*
D13*
%TO.C,U13*%
X136523647Y-114423774D02*
X136523647Y-115207544D01*
X136523647Y-119576149D02*
X136523647Y-118792380D01*
X137307417Y-114423774D02*
X136523647Y-114423774D01*
X137307417Y-119576149D02*
X136523647Y-119576149D01*
X140892202Y-114423774D02*
X141676022Y-114423774D01*
X140892202Y-119576149D02*
X141676022Y-119576149D01*
X141676022Y-114423774D02*
X141676022Y-115207544D01*
X141676022Y-119576149D02*
X141676022Y-118792380D01*
D10*
X137000659Y-114540113D02*
X137057991Y-114557612D01*
X137110775Y-114586020D01*
X137156958Y-114624232D01*
X137194747Y-114670763D01*
X137222671Y-114723804D01*
X137239645Y-114781293D01*
X137245009Y-114840996D01*
X137239645Y-114900698D01*
X137222671Y-114958187D01*
X137194747Y-115011228D01*
X137156958Y-115057760D01*
X137110775Y-115095972D01*
X137057991Y-115124379D01*
X137000659Y-115141878D01*
X136941008Y-115147788D01*
X136881358Y-115141878D01*
X136824026Y-115124379D01*
X136771242Y-115095972D01*
X136725058Y-115057760D01*
X136687270Y-115011228D01*
X136659346Y-114958187D01*
X136642372Y-114900698D01*
X136637008Y-114840996D01*
X136642372Y-114781293D01*
X136659346Y-114723804D01*
X136687270Y-114670763D01*
X136725058Y-114624232D01*
X136771242Y-114586020D01*
X136824026Y-114557612D01*
X136881358Y-114540113D01*
X136941008Y-114534204D01*
X137000659Y-114540113D01*
G36*
X137000659Y-114540113D02*
G01*
X137057991Y-114557612D01*
X137110775Y-114586020D01*
X137156958Y-114624232D01*
X137194747Y-114670763D01*
X137222671Y-114723804D01*
X137239645Y-114781293D01*
X137245009Y-114840996D01*
X137239645Y-114900698D01*
X137222671Y-114958187D01*
X137194747Y-115011228D01*
X137156958Y-115057760D01*
X137110775Y-115095972D01*
X137057991Y-115124379D01*
X137000659Y-115141878D01*
X136941008Y-115147788D01*
X136881358Y-115141878D01*
X136824026Y-115124379D01*
X136771242Y-115095972D01*
X136725058Y-115057760D01*
X136687270Y-115011228D01*
X136659346Y-114958187D01*
X136642372Y-114900698D01*
X136637008Y-114840996D01*
X136642372Y-114781293D01*
X136659346Y-114723804D01*
X136687270Y-114670763D01*
X136725058Y-114624232D01*
X136771242Y-114586020D01*
X136824026Y-114557612D01*
X136881358Y-114540113D01*
X136941008Y-114534204D01*
X137000659Y-114540113D01*
G37*
%TO.C,R45*%
X108096359Y-128870000D02*
X108403641Y-128870000D01*
X108096359Y-129630000D02*
X108403641Y-129630000D01*
%TO.C,PV2*%
X136270000Y-131900100D02*
X136270000Y-133800100D01*
X136270000Y-133800100D02*
X138170000Y-133800100D01*
X138170000Y-131900100D02*
X136270000Y-131900100D01*
X138170000Y-133800100D02*
X138170000Y-131900100D01*
D13*
%TO.C,U14*%
X101223749Y-112528689D02*
X101223749Y-115571539D01*
X101223749Y-115571539D02*
X106376124Y-115571539D01*
X106376124Y-112528689D02*
X101223749Y-112528689D01*
X106376124Y-115571539D02*
X106376124Y-112528689D01*
D16*
X101277750Y-111367501D02*
G75*
G02*
X100977520Y-111367501I-150115J0D01*
G01*
X100977520Y-111367501D02*
G75*
G02*
X101277750Y-111367501I150115J0D01*
G01*
X102045085Y-113280886D02*
G75*
G02*
X101744857Y-113280886I-150114J0D01*
G01*
X101744857Y-113280886D02*
G75*
G02*
X102045085Y-113280886I150114J0D01*
G01*
D10*
%TO.C,R46*%
X105896359Y-100770000D02*
X106203641Y-100770000D01*
X105896359Y-101530000D02*
X106203641Y-101530000D01*
%TO.C,R38*%
X143226359Y-111340000D02*
X143533641Y-111340000D01*
X143226359Y-112100000D02*
X143533641Y-112100000D01*
%TO.C,C7*%
X110500052Y-111673200D02*
X109977548Y-111673200D01*
X110500052Y-113143200D02*
X109977548Y-113143200D01*
%TO.C,C58*%
X142399564Y-120340100D02*
X142615236Y-120340100D01*
X142399564Y-121060100D02*
X142615236Y-121060100D01*
%TO.C,C23*%
X130082452Y-109518400D02*
X128659948Y-109518400D01*
X130082452Y-111338400D02*
X128659948Y-111338400D01*
%TO.C,C19*%
X123988436Y-117888700D02*
X123772764Y-117888700D01*
X123988436Y-118608700D02*
X123772764Y-118608700D01*
%TO.C,C52*%
X138022164Y-103642800D02*
X138237836Y-103642800D01*
X138022164Y-104362800D02*
X138237836Y-104362800D01*
%TO.C,C15*%
X119805436Y-119241000D02*
X119589764Y-119241000D01*
X119805436Y-119961000D02*
X119589764Y-119961000D01*
%TO.C,R12*%
X123982441Y-111764400D02*
X123675159Y-111764400D01*
X123982441Y-112524400D02*
X123675159Y-112524400D01*
%TO.C,R39*%
X143080059Y-112732300D02*
X143387341Y-112732300D01*
X143080059Y-113492300D02*
X143387341Y-113492300D01*
%TO.C,C51*%
X140392164Y-120447400D02*
X140607836Y-120447400D01*
X140392164Y-121167400D02*
X140607836Y-121167400D01*
%TO.C,R31*%
X129796359Y-112570000D02*
X130103641Y-112570000D01*
X129796359Y-113330000D02*
X130103641Y-113330000D01*
%TO.C,C16*%
X114862736Y-116181500D02*
X114647064Y-116181500D01*
X114862736Y-116901500D02*
X114647064Y-116901500D01*
%TO.C,R34*%
X143153759Y-117920100D02*
X143461041Y-117920100D01*
X143153759Y-118680100D02*
X143461041Y-118680100D01*
%TO.C,C63*%
X133984764Y-119840000D02*
X134200436Y-119840000D01*
X133984764Y-120560000D02*
X134200436Y-120560000D01*
D13*
%TO.C,DZ1*%
X105873800Y-102423787D02*
X108626200Y-102423787D01*
X105873800Y-104276213D02*
X108626200Y-104276213D01*
X106283198Y-104276213D02*
X106283198Y-102423787D01*
X108626200Y-102423787D02*
X108626200Y-102666789D01*
X108626200Y-104276213D02*
X108626200Y-104033211D01*
D10*
X105950000Y-102717590D02*
X105645199Y-102717590D01*
X105645199Y-102347587D01*
X105950000Y-102347587D01*
X105950000Y-102717590D01*
G36*
X105950000Y-102717590D02*
G01*
X105645199Y-102717590D01*
X105645199Y-102347587D01*
X105950000Y-102347587D01*
X105950000Y-102717590D01*
G37*
X105950000Y-104352413D02*
X105645199Y-104352413D01*
X105645199Y-103982410D01*
X105950000Y-103982410D01*
X105950000Y-104352413D01*
G36*
X105950000Y-104352413D02*
G01*
X105645199Y-104352413D01*
X105645199Y-103982410D01*
X105950000Y-103982410D01*
X105950000Y-104352413D01*
G37*
%TO.C,C26*%
X139557836Y-125809700D02*
X139342164Y-125809700D01*
X139557836Y-126529700D02*
X139342164Y-126529700D01*
D13*
%TO.C,U3*%
X123173927Y-108073787D02*
X123173927Y-108319507D01*
X123173927Y-110726213D02*
X123173927Y-110480493D01*
X123919622Y-108073787D02*
X123173927Y-108073787D01*
X123919622Y-110726213D02*
X123173927Y-110726213D01*
X125580632Y-108073787D02*
X126326327Y-108073787D01*
X125580632Y-110726213D02*
X126326327Y-110726213D01*
X126326327Y-108073787D02*
X126326327Y-108319507D01*
X126326327Y-110726213D02*
X126326327Y-110480493D01*
D14*
X126730061Y-108637998D02*
G75*
G02*
X126580201Y-108637998I-74930J0D01*
G01*
X126580201Y-108637998D02*
G75*
G02*
X126730061Y-108637998I74930J0D01*
G01*
D13*
%TO.C,Y1*%
X113992799Y-117342913D02*
X115850000Y-117342913D01*
X113992799Y-119000114D02*
X113992799Y-117342913D01*
X114221400Y-117571514D02*
X114221400Y-120928740D01*
X114221400Y-120928740D02*
X118278600Y-120928740D01*
X118278600Y-117571514D02*
X114221400Y-117571514D01*
X118278600Y-120928740D02*
X118278600Y-117571514D01*
D10*
%TO.C,C67*%
X114392164Y-105190000D02*
X114607836Y-105190000D01*
X114392164Y-105910000D02*
X114607836Y-105910000D01*
%TO.C,C17*%
X124576252Y-114735100D02*
X123153748Y-114735100D01*
X124576252Y-116555100D02*
X123153748Y-116555100D01*
D13*
%TO.C,U19*%
X136123787Y-128343500D02*
X136123787Y-129495900D01*
X136123787Y-129495900D02*
X137776187Y-129495900D01*
X137776187Y-128343500D02*
X136123787Y-128343500D01*
X137776187Y-129495900D02*
X137776187Y-128343500D01*
D17*
X137762041Y-129681702D02*
G75*
G02*
X137661963Y-129681702I-50039J0D01*
G01*
X137661963Y-129681702D02*
G75*
G02*
X137762041Y-129681702I50039J0D01*
G01*
D10*
%TO.C,PL1*%
X133550000Y-131550000D02*
X133550000Y-133450000D01*
X133550000Y-133450000D02*
X135450000Y-133450000D01*
X135450000Y-131550000D02*
X133550000Y-131550000D01*
X135450000Y-133450000D02*
X135450000Y-131550000D01*
D12*
%TO.C,J16*%
X140250000Y-103450000D02*
X140250000Y-102843650D01*
X140250000Y-103450000D02*
X140250000Y-105300013D01*
X140250000Y-105300013D02*
X141218860Y-105300013D01*
X141281140Y-100999987D02*
X143218860Y-100999987D01*
X143281140Y-105300013D02*
X144250000Y-105300013D01*
X144250000Y-105300013D02*
X144250000Y-102843650D01*
D10*
%TO.C,C76*%
X111012836Y-106257500D02*
X110797164Y-106257500D01*
X111012836Y-106977500D02*
X110797164Y-106977500D01*
%TO.C,C60*%
X143199564Y-113940100D02*
X143415236Y-113940100D01*
X143199564Y-114660100D02*
X143415236Y-114660100D01*
%TO.C,R25*%
X111538541Y-132285000D02*
X111231259Y-132285000D01*
X111538541Y-133045000D02*
X111231259Y-133045000D01*
D12*
%TO.C,J14*%
X127800000Y-105450025D02*
X127800000Y-102825743D01*
X128918872Y-105450025D02*
X127800000Y-105450025D01*
X129031191Y-100950076D02*
X134968885Y-100950076D01*
X135081179Y-105450025D02*
X136200000Y-105450025D01*
X136200000Y-105450025D02*
X136200000Y-102825743D01*
D10*
%TO.C,C73*%
X131357836Y-126390000D02*
X131142164Y-126390000D01*
X131357836Y-127110000D02*
X131142164Y-127110000D01*
%TO.C,C35*%
X117691936Y-113058900D02*
X117476264Y-113058900D01*
X117691936Y-113778900D02*
X117476264Y-113778900D01*
%TO.C,R11*%
X124170341Y-119117300D02*
X123863059Y-119117300D01*
X124170341Y-119877300D02*
X123863059Y-119877300D01*
%TO.C,C18*%
X130699852Y-115115500D02*
X129277348Y-115115500D01*
X130699852Y-116935500D02*
X129277348Y-116935500D01*
%TO.C,R29*%
X134138959Y-113320100D02*
X134446241Y-113320100D01*
X134138959Y-114080100D02*
X134446241Y-114080100D01*
D13*
%TO.C,U12*%
X121396808Y-105752105D02*
X121396808Y-103973695D01*
X124475192Y-105752105D02*
X124475192Y-103973695D01*
D16*
X124754389Y-106164399D02*
G75*
G02*
X124454161Y-106164399I-150114J0D01*
G01*
X124454161Y-106164399D02*
G75*
G02*
X124754389Y-106164399I150114J0D01*
G01*
D10*
%TO.C,C65*%
X133392164Y-141140000D02*
X133607836Y-141140000D01*
X133392164Y-141860000D02*
X133607836Y-141860000D01*
D12*
%TO.C,J8*%
X114833985Y-138651523D02*
X114833985Y-131158508D01*
X114833985Y-144061048D02*
X114833985Y-141151040D01*
X121200000Y-143351040D02*
X118262992Y-144048119D01*
X129566015Y-131078853D02*
X129566015Y-138587997D01*
X129566015Y-141000977D02*
X129566015Y-144061073D01*
X129566015Y-143351040D02*
X121200000Y-143351040D01*
X129566015Y-143575704D02*
X129566015Y-143351040D01*
X129566015Y-144061073D02*
X114833985Y-144061048D01*
D10*
%TO.C,P74*%
X107550000Y-141550000D02*
X107550000Y-143450000D01*
X107550000Y-143450000D02*
X109450000Y-143450000D01*
X109450000Y-141550000D02*
X107550000Y-141550000D01*
X109450000Y-143450000D02*
X109450000Y-141550000D01*
%TO.C,C69*%
X126840000Y-126411252D02*
X126840000Y-124988748D01*
X128660000Y-126411252D02*
X128660000Y-124988748D01*
%TO.C,R42*%
X131756959Y-119656600D02*
X132064241Y-119656600D01*
X131756959Y-120416600D02*
X132064241Y-120416600D01*
D18*
%TO.C,U4*%
X112800127Y-108429873D02*
X113075108Y-108429873D01*
X112800127Y-111829873D02*
X112800127Y-108429873D01*
X113075108Y-111829873D02*
X112800127Y-111829873D01*
X117925121Y-111829873D02*
X118200127Y-111829873D01*
X118200127Y-108429873D02*
X117925121Y-108429873D01*
X118200127Y-111829873D02*
X118200127Y-108429873D01*
D12*
X118098552Y-112149177D02*
G75*
G02*
X118101092Y-112149177I1270J-80640D01*
G01*
D10*
%TO.C,C1*%
X117487836Y-124769900D02*
X117272164Y-124769900D01*
X117487836Y-125489900D02*
X117272164Y-125489900D01*
D13*
%TO.C,D5*%
X112223825Y-125923660D02*
X114976276Y-125923660D01*
X112223825Y-127776137D02*
X114976276Y-127776137D01*
X112683261Y-127726124D02*
X112683261Y-125973673D01*
X114976276Y-125923660D02*
X114976276Y-126116701D01*
X114976276Y-127776137D02*
X114976276Y-127583096D01*
D10*
X112300051Y-126167475D02*
X111995250Y-126167475D01*
X111995250Y-125847485D01*
X112300051Y-125847485D01*
X112300051Y-126167475D01*
G36*
X112300051Y-126167475D02*
G01*
X111995250Y-126167475D01*
X111995250Y-125847485D01*
X112300051Y-125847485D01*
X112300051Y-126167475D01*
G37*
X112300051Y-127852311D02*
X111995250Y-127852311D01*
X111995250Y-127532322D01*
X112300051Y-127532322D01*
X112300051Y-127852311D01*
G36*
X112300051Y-127852311D02*
G01*
X111995250Y-127852311D01*
X111995250Y-127532322D01*
X112300051Y-127532322D01*
X112300051Y-127852311D01*
G37*
D12*
%TO.C,J11*%
X101380030Y-134839964D02*
X101380030Y-130939990D01*
X105639975Y-129859980D02*
X103033193Y-129859980D01*
X105639975Y-130779995D02*
X105639975Y-129859980D01*
X105639975Y-134760030D02*
X105639975Y-135839964D01*
X105639975Y-135839964D02*
X103040025Y-135839964D01*
X105277389Y-135319365D02*
G75*
G02*
X105027453Y-135319365I-124968J0D01*
G01*
X105027453Y-135319365D02*
G75*
G02*
X105277389Y-135319365I124968J0D01*
G01*
D10*
%TO.C,C49*%
X135492264Y-112232600D02*
X135707936Y-112232600D01*
X135492264Y-112952600D02*
X135707936Y-112952600D01*
%TO.C,C44*%
X119841636Y-126162200D02*
X119625964Y-126162200D01*
X119841636Y-126882200D02*
X119625964Y-126882200D01*
%TO.C,R35*%
X140620100Y-112346241D02*
X140620100Y-112038959D01*
X141380100Y-112346241D02*
X141380100Y-112038959D01*
%TO.C,R23*%
X111538541Y-129505000D02*
X111231259Y-129505000D01*
X111538541Y-130265000D02*
X111231259Y-130265000D01*
%TO.C,C66*%
X129757164Y-123565000D02*
X129972836Y-123565000D01*
X129757164Y-124285000D02*
X129972836Y-124285000D01*
%TO.C,R22*%
X111538541Y-128115000D02*
X111231259Y-128115000D01*
X111538541Y-128875000D02*
X111231259Y-128875000D01*
D13*
%TO.C,Q3*%
X107523787Y-125223787D02*
X108976213Y-125223787D01*
X107523787Y-126294602D02*
X107523787Y-127205398D01*
X107523787Y-128276213D02*
X108976213Y-128276213D01*
X108976213Y-125223787D02*
X108976213Y-126255410D01*
X108976213Y-128276213D02*
X108976213Y-127244590D01*
D10*
%TO.C,C31*%
X121752236Y-111574100D02*
X121536564Y-111574100D01*
X121752236Y-112294100D02*
X121536564Y-112294100D01*
%TO.C,R27*%
X111538541Y-135065000D02*
X111231259Y-135065000D01*
X111538541Y-135825000D02*
X111231259Y-135825000D01*
D12*
%TO.C,J20*%
X101000000Y-140699987D02*
X101000000Y-143156350D01*
X101968860Y-140699987D02*
X101000000Y-140699987D01*
X103968860Y-145000013D02*
X102031140Y-145000013D01*
X105000000Y-140699987D02*
X104031140Y-140699987D01*
X105000000Y-142550000D02*
X105000000Y-140699987D01*
X105000000Y-142550000D02*
X105000000Y-143156350D01*
D10*
%TO.C,C8*%
X126037736Y-112220000D02*
X125822064Y-112220000D01*
X126037736Y-112940000D02*
X125822064Y-112940000D01*
%TO.C,TP6*%
X113000000Y-121800000D02*
X113000000Y-123700000D01*
X113000000Y-123700000D02*
X114900000Y-123700000D01*
X114900000Y-121800000D02*
X113000000Y-121800000D01*
X114900000Y-123700000D02*
X114900000Y-121800000D01*
%TO.C,C70*%
X120575348Y-120858800D02*
X121997852Y-120858800D01*
X120575348Y-122678800D02*
X121997852Y-122678800D01*
%TO.C,C21*%
X127852836Y-113812900D02*
X127637164Y-113812900D01*
X127852836Y-114532900D02*
X127637164Y-114532900D01*
%TO.C,R6*%
X132963641Y-109450000D02*
X132656359Y-109450000D01*
X132963641Y-110210000D02*
X132656359Y-110210000D01*
%TO.C,C43*%
X119887836Y-124769900D02*
X119672164Y-124769900D01*
X119887836Y-125489900D02*
X119672164Y-125489900D01*
%TO.C,R7*%
X134063641Y-108050000D02*
X133756359Y-108050000D01*
X134063641Y-108810000D02*
X133756359Y-108810000D01*
%TO.C,C42*%
X118815000Y-102296252D02*
X118815000Y-101773748D01*
X120285000Y-102296252D02*
X120285000Y-101773748D01*
%TO.C,C34*%
X119701636Y-111363400D02*
X119485964Y-111363400D01*
X119701636Y-112083400D02*
X119485964Y-112083400D01*
D15*
%TO.C,Y2*%
X139541395Y-121595223D02*
X140049396Y-121595223D01*
X139541395Y-122103224D02*
X139541395Y-121595223D01*
X139797936Y-121821411D02*
X143897936Y-121821411D01*
X139797936Y-125221411D02*
X139797936Y-121821411D01*
X143897936Y-121821411D02*
X143897936Y-125221411D01*
X143897936Y-125221411D02*
X139797936Y-125221411D01*
D10*
%TO.C,R24*%
X111538541Y-130895000D02*
X111231259Y-130895000D01*
X111538541Y-131655000D02*
X111231259Y-131655000D01*
%TO.C,C12*%
X122134336Y-126162200D02*
X121918664Y-126162200D01*
X122134336Y-126882200D02*
X121918664Y-126882200D01*
%TO.C,C14*%
X117649736Y-123283600D02*
X117434064Y-123283600D01*
X117649736Y-124003600D02*
X117434064Y-124003600D01*
%TO.C,C56*%
X143199564Y-116840000D02*
X143415236Y-116840000D01*
X143199564Y-117560000D02*
X143415236Y-117560000D01*
%TO.C,F1*%
X100890000Y-126402064D02*
X100890000Y-125197936D01*
X102710000Y-126402064D02*
X102710000Y-125197936D01*
%TO.C,R4*%
X130978541Y-125108300D02*
X130671259Y-125108300D01*
X130978541Y-125868300D02*
X130671259Y-125868300D01*
%TO.C,C9*%
X111335936Y-110127500D02*
X111120264Y-110127500D01*
X111335936Y-110847500D02*
X111120264Y-110847500D01*
%TO.C,PL2*%
X133550000Y-134550000D02*
X133550000Y-136450000D01*
X133550000Y-136450000D02*
X135450000Y-136450000D01*
X135450000Y-134550000D02*
X133550000Y-134550000D01*
X135450000Y-136450000D02*
X135450000Y-134550000D01*
D12*
%TO.C,J5*%
X139860025Y-127900036D02*
X142459975Y-127900036D01*
X139860025Y-128979970D02*
X139860025Y-127900036D01*
X139860025Y-132960005D02*
X139860025Y-133880020D01*
X139860025Y-133880020D02*
X142466807Y-133880020D01*
X144119970Y-128900036D02*
X144119970Y-132800010D01*
X140472547Y-128420635D02*
G75*
G02*
X140222611Y-128420635I-124968J0D01*
G01*
X140222611Y-128420635D02*
G75*
G02*
X140472547Y-128420635I124968J0D01*
G01*
D10*
%TO.C,TP5*%
X110500000Y-101000000D02*
X110500000Y-102900000D01*
X110500000Y-102900000D02*
X112400000Y-102900000D01*
X112400000Y-101000000D02*
X110500000Y-101000000D01*
X112400000Y-102900000D02*
X112400000Y-101000000D01*
%TO.C,C36*%
X139434436Y-112799200D02*
X139218764Y-112799200D01*
X139434436Y-113519200D02*
X139218764Y-113519200D01*
%TO.C,C2*%
X125770136Y-122422900D02*
X125554464Y-122422900D01*
X125770136Y-123142900D02*
X125554464Y-123142900D01*
%TD*%
M02*
