%TF.GenerationSoftware,KiCad,Pcbnew,9.0.8+dfsg-1*%
%TF.CreationDate,2026-09-05T23:08:03+01:00*%
%TF.ProjectId,NAVCORE-SoOP,4e415643-4f52-4452-9d53-6f4f502e6b69,rev?*%
%TF.SameCoordinates,Original*%
%TF.FileFunction,Legend,Bot*%
%TF.FilePolarity,Positive*%
%FSLAX46Y46*%
G04 Gerber Fmt 4.6, Leading zero omitted, Abs format (unit mm)*
G04 Created by KiCad (PCBNEW 9.0.8+dfsg-1) date 2026-09-05 23:08:03*
%MOMM*%
%LPD*%
G01*
G04 APERTURE LIST*
%ADD10C,0.150000*%
%ADD11C,0.120000*%
%ADD12C,0.152400*%
%ADD13C,0.150013*%
%ADD14C,0.200000*%
%ADD15C,0.254001*%
%ADD16C,0.300000*%
%ADD17C,0.152000*%
%ADD18C,0.151994*%
%ADD19C,0.159995*%
%ADD20C,0.100000*%
G04 APERTURE END LIST*
D10*
X131892857Y-128699580D02*
X131940476Y-128747200D01*
X131940476Y-128747200D02*
X132083333Y-128794819D01*
X132083333Y-128794819D02*
X132178571Y-128794819D01*
X132178571Y-128794819D02*
X132321428Y-128747200D01*
X132321428Y-128747200D02*
X132416666Y-128651961D01*
X132416666Y-128651961D02*
X132464285Y-128556723D01*
X132464285Y-128556723D02*
X132511904Y-128366247D01*
X132511904Y-128366247D02*
X132511904Y-128223390D01*
X132511904Y-128223390D02*
X132464285Y-128032914D01*
X132464285Y-128032914D02*
X132416666Y-127937676D01*
X132416666Y-127937676D02*
X132321428Y-127842438D01*
X132321428Y-127842438D02*
X132178571Y-127794819D01*
X132178571Y-127794819D02*
X132083333Y-127794819D01*
X132083333Y-127794819D02*
X131940476Y-127842438D01*
X131940476Y-127842438D02*
X131892857Y-127890057D01*
X131559523Y-127794819D02*
X130892857Y-127794819D01*
X130892857Y-127794819D02*
X131321428Y-128794819D01*
X130607142Y-127794819D02*
X129988095Y-127794819D01*
X129988095Y-127794819D02*
X130321428Y-128175771D01*
X130321428Y-128175771D02*
X130178571Y-128175771D01*
X130178571Y-128175771D02*
X130083333Y-128223390D01*
X130083333Y-128223390D02*
X130035714Y-128271009D01*
X130035714Y-128271009D02*
X129988095Y-128366247D01*
X129988095Y-128366247D02*
X129988095Y-128604342D01*
X129988095Y-128604342D02*
X130035714Y-128699580D01*
X130035714Y-128699580D02*
X130083333Y-128747200D01*
X130083333Y-128747200D02*
X130178571Y-128794819D01*
X130178571Y-128794819D02*
X130464285Y-128794819D01*
X130464285Y-128794819D02*
X130559523Y-128747200D01*
X130559523Y-128747200D02*
X130607142Y-128699580D01*
D11*
X121259650Y-105637642D02*
X121259650Y-106285261D01*
X121259650Y-106285261D02*
X121221555Y-106361451D01*
X121221555Y-106361451D02*
X121183460Y-106399547D01*
X121183460Y-106399547D02*
X121107269Y-106437642D01*
X121107269Y-106437642D02*
X120954888Y-106437642D01*
X120954888Y-106437642D02*
X120878698Y-106399547D01*
X120878698Y-106399547D02*
X120840603Y-106361451D01*
X120840603Y-106361451D02*
X120802507Y-106285261D01*
X120802507Y-106285261D02*
X120802507Y-105637642D01*
X120459651Y-105713832D02*
X120421555Y-105675737D01*
X120421555Y-105675737D02*
X120345365Y-105637642D01*
X120345365Y-105637642D02*
X120154889Y-105637642D01*
X120154889Y-105637642D02*
X120078698Y-105675737D01*
X120078698Y-105675737D02*
X120040603Y-105713832D01*
X120040603Y-105713832D02*
X120002508Y-105790023D01*
X120002508Y-105790023D02*
X120002508Y-105866213D01*
X120002508Y-105866213D02*
X120040603Y-105980499D01*
X120040603Y-105980499D02*
X120497746Y-106437642D01*
X120497746Y-106437642D02*
X120002508Y-106437642D01*
X135428332Y-133213955D02*
X135428332Y-132413955D01*
X135428332Y-132413955D02*
X135123570Y-132413955D01*
X135123570Y-132413955D02*
X135047380Y-132452050D01*
X135047380Y-132452050D02*
X135009285Y-132490145D01*
X135009285Y-132490145D02*
X134971189Y-132566336D01*
X134971189Y-132566336D02*
X134971189Y-132680621D01*
X134971189Y-132680621D02*
X135009285Y-132756812D01*
X135009285Y-132756812D02*
X135047380Y-132794907D01*
X135047380Y-132794907D02*
X135123570Y-132833002D01*
X135123570Y-132833002D02*
X135428332Y-132833002D01*
X134742618Y-132413955D02*
X134475951Y-133213955D01*
X134475951Y-133213955D02*
X134209285Y-132413955D01*
X133980714Y-132490145D02*
X133942618Y-132452050D01*
X133942618Y-132452050D02*
X133866428Y-132413955D01*
X133866428Y-132413955D02*
X133675952Y-132413955D01*
X133675952Y-132413955D02*
X133599761Y-132452050D01*
X133599761Y-132452050D02*
X133561666Y-132490145D01*
X133561666Y-132490145D02*
X133523571Y-132566336D01*
X133523571Y-132566336D02*
X133523571Y-132642526D01*
X133523571Y-132642526D02*
X133561666Y-132756812D01*
X133561666Y-132756812D02*
X134018809Y-133213955D01*
X134018809Y-133213955D02*
X133523571Y-133213955D01*
X116109650Y-105993728D02*
X116109650Y-106641347D01*
X116109650Y-106641347D02*
X116071555Y-106717537D01*
X116071555Y-106717537D02*
X116033460Y-106755633D01*
X116033460Y-106755633D02*
X115957269Y-106793728D01*
X115957269Y-106793728D02*
X115804888Y-106793728D01*
X115804888Y-106793728D02*
X115728698Y-106755633D01*
X115728698Y-106755633D02*
X115690603Y-106717537D01*
X115690603Y-106717537D02*
X115652507Y-106641347D01*
X115652507Y-106641347D02*
X115652507Y-105993728D01*
X114928698Y-106260394D02*
X114928698Y-106793728D01*
X115119174Y-105955633D02*
X115309651Y-106527061D01*
X115309651Y-106527061D02*
X114814412Y-106527061D01*
D10*
X108345238Y-123773844D02*
X108440476Y-123726225D01*
X108440476Y-123726225D02*
X108535714Y-123630987D01*
X108535714Y-123630987D02*
X108678571Y-123488129D01*
X108678571Y-123488129D02*
X108773809Y-123440510D01*
X108773809Y-123440510D02*
X108869047Y-123440510D01*
X108821428Y-123678606D02*
X108916666Y-123630987D01*
X108916666Y-123630987D02*
X109011904Y-123535748D01*
X109011904Y-123535748D02*
X109059523Y-123345272D01*
X109059523Y-123345272D02*
X109059523Y-123011939D01*
X109059523Y-123011939D02*
X109011904Y-122821463D01*
X109011904Y-122821463D02*
X108916666Y-122726225D01*
X108916666Y-122726225D02*
X108821428Y-122678606D01*
X108821428Y-122678606D02*
X108630952Y-122678606D01*
X108630952Y-122678606D02*
X108535714Y-122726225D01*
X108535714Y-122726225D02*
X108440476Y-122821463D01*
X108440476Y-122821463D02*
X108392857Y-123011939D01*
X108392857Y-123011939D02*
X108392857Y-123345272D01*
X108392857Y-123345272D02*
X108440476Y-123535748D01*
X108440476Y-123535748D02*
X108535714Y-123630987D01*
X108535714Y-123630987D02*
X108630952Y-123678606D01*
X108630952Y-123678606D02*
X108821428Y-123678606D01*
X108059523Y-122678606D02*
X107440476Y-122678606D01*
X107440476Y-122678606D02*
X107773809Y-123059558D01*
X107773809Y-123059558D02*
X107630952Y-123059558D01*
X107630952Y-123059558D02*
X107535714Y-123107177D01*
X107535714Y-123107177D02*
X107488095Y-123154796D01*
X107488095Y-123154796D02*
X107440476Y-123250034D01*
X107440476Y-123250034D02*
X107440476Y-123488129D01*
X107440476Y-123488129D02*
X107488095Y-123583367D01*
X107488095Y-123583367D02*
X107535714Y-123630987D01*
X107535714Y-123630987D02*
X107630952Y-123678606D01*
X107630952Y-123678606D02*
X107916666Y-123678606D01*
X107916666Y-123678606D02*
X108011904Y-123630987D01*
X108011904Y-123630987D02*
X108059523Y-123583367D01*
D11*
X128859650Y-105637642D02*
X128859650Y-106285261D01*
X128859650Y-106285261D02*
X128821555Y-106361451D01*
X128821555Y-106361451D02*
X128783460Y-106399547D01*
X128783460Y-106399547D02*
X128707269Y-106437642D01*
X128707269Y-106437642D02*
X128554888Y-106437642D01*
X128554888Y-106437642D02*
X128478698Y-106399547D01*
X128478698Y-106399547D02*
X128440603Y-106361451D01*
X128440603Y-106361451D02*
X128402507Y-106285261D01*
X128402507Y-106285261D02*
X128402507Y-105637642D01*
X128097746Y-105637642D02*
X127602508Y-105637642D01*
X127602508Y-105637642D02*
X127869174Y-105942404D01*
X127869174Y-105942404D02*
X127754889Y-105942404D01*
X127754889Y-105942404D02*
X127678698Y-105980499D01*
X127678698Y-105980499D02*
X127640603Y-106018594D01*
X127640603Y-106018594D02*
X127602508Y-106094785D01*
X127602508Y-106094785D02*
X127602508Y-106285261D01*
X127602508Y-106285261D02*
X127640603Y-106361451D01*
X127640603Y-106361451D02*
X127678698Y-106399547D01*
X127678698Y-106399547D02*
X127754889Y-106437642D01*
X127754889Y-106437642D02*
X127983460Y-106437642D01*
X127983460Y-106437642D02*
X128059651Y-106399547D01*
X128059651Y-106399547D02*
X128097746Y-106361451D01*
D10*
X108892857Y-131284819D02*
X109226190Y-130808628D01*
X109464285Y-131284819D02*
X109464285Y-130284819D01*
X109464285Y-130284819D02*
X109083333Y-130284819D01*
X109083333Y-130284819D02*
X108988095Y-130332438D01*
X108988095Y-130332438D02*
X108940476Y-130380057D01*
X108940476Y-130380057D02*
X108892857Y-130475295D01*
X108892857Y-130475295D02*
X108892857Y-130618152D01*
X108892857Y-130618152D02*
X108940476Y-130713390D01*
X108940476Y-130713390D02*
X108988095Y-130761009D01*
X108988095Y-130761009D02*
X109083333Y-130808628D01*
X109083333Y-130808628D02*
X109464285Y-130808628D01*
X108035714Y-130618152D02*
X108035714Y-131284819D01*
X108273809Y-130237200D02*
X108511904Y-130951485D01*
X108511904Y-130951485D02*
X107892857Y-130951485D01*
X107035714Y-130284819D02*
X107511904Y-130284819D01*
X107511904Y-130284819D02*
X107559523Y-130761009D01*
X107559523Y-130761009D02*
X107511904Y-130713390D01*
X107511904Y-130713390D02*
X107416666Y-130665771D01*
X107416666Y-130665771D02*
X107178571Y-130665771D01*
X107178571Y-130665771D02*
X107083333Y-130713390D01*
X107083333Y-130713390D02*
X107035714Y-130761009D01*
X107035714Y-130761009D02*
X106988095Y-130856247D01*
X106988095Y-130856247D02*
X106988095Y-131094342D01*
X106988095Y-131094342D02*
X107035714Y-131189580D01*
X107035714Y-131189580D02*
X107083333Y-131237200D01*
X107083333Y-131237200D02*
X107178571Y-131284819D01*
X107178571Y-131284819D02*
X107416666Y-131284819D01*
X107416666Y-131284819D02*
X107511904Y-131237200D01*
X107511904Y-131237200D02*
X107559523Y-131189580D01*
D11*
X116745251Y-115554162D02*
X116745251Y-115935115D01*
X117011918Y-115135115D02*
X116745251Y-115554162D01*
X116745251Y-115554162D02*
X116478585Y-115135115D01*
X115792871Y-115935115D02*
X116250014Y-115935115D01*
X116021442Y-115935115D02*
X116021442Y-115135115D01*
X116021442Y-115135115D02*
X116097633Y-115249400D01*
X116097633Y-115249400D02*
X116173823Y-115325591D01*
X116173823Y-115325591D02*
X116250014Y-115363686D01*
X123621528Y-127251110D02*
X123621528Y-127822538D01*
X123621528Y-127822538D02*
X123659623Y-127936824D01*
X123659623Y-127936824D02*
X123735814Y-128013015D01*
X123735814Y-128013015D02*
X123850099Y-128051110D01*
X123850099Y-128051110D02*
X123926290Y-128051110D01*
X123126290Y-127593967D02*
X123202480Y-127555872D01*
X123202480Y-127555872D02*
X123240575Y-127517776D01*
X123240575Y-127517776D02*
X123278671Y-127441586D01*
X123278671Y-127441586D02*
X123278671Y-127403491D01*
X123278671Y-127403491D02*
X123240575Y-127327300D01*
X123240575Y-127327300D02*
X123202480Y-127289205D01*
X123202480Y-127289205D02*
X123126290Y-127251110D01*
X123126290Y-127251110D02*
X122973909Y-127251110D01*
X122973909Y-127251110D02*
X122897718Y-127289205D01*
X122897718Y-127289205D02*
X122859623Y-127327300D01*
X122859623Y-127327300D02*
X122821528Y-127403491D01*
X122821528Y-127403491D02*
X122821528Y-127441586D01*
X122821528Y-127441586D02*
X122859623Y-127517776D01*
X122859623Y-127517776D02*
X122897718Y-127555872D01*
X122897718Y-127555872D02*
X122973909Y-127593967D01*
X122973909Y-127593967D02*
X123126290Y-127593967D01*
X123126290Y-127593967D02*
X123202480Y-127632062D01*
X123202480Y-127632062D02*
X123240575Y-127670157D01*
X123240575Y-127670157D02*
X123278671Y-127746348D01*
X123278671Y-127746348D02*
X123278671Y-127898729D01*
X123278671Y-127898729D02*
X123240575Y-127974919D01*
X123240575Y-127974919D02*
X123202480Y-128013015D01*
X123202480Y-128013015D02*
X123126290Y-128051110D01*
X123126290Y-128051110D02*
X122973909Y-128051110D01*
X122973909Y-128051110D02*
X122897718Y-128013015D01*
X122897718Y-128013015D02*
X122859623Y-127974919D01*
X122859623Y-127974919D02*
X122821528Y-127898729D01*
X122821528Y-127898729D02*
X122821528Y-127746348D01*
X122821528Y-127746348D02*
X122859623Y-127670157D01*
X122859623Y-127670157D02*
X122897718Y-127632062D01*
X122897718Y-127632062D02*
X122973909Y-127593967D01*
X140010191Y-110911476D02*
X140010191Y-111559095D01*
X140010191Y-111559095D02*
X139972096Y-111635285D01*
X139972096Y-111635285D02*
X139934001Y-111673381D01*
X139934001Y-111673381D02*
X139857810Y-111711476D01*
X139857810Y-111711476D02*
X139705429Y-111711476D01*
X139705429Y-111711476D02*
X139629239Y-111673381D01*
X139629239Y-111673381D02*
X139591144Y-111635285D01*
X139591144Y-111635285D02*
X139553048Y-111559095D01*
X139553048Y-111559095D02*
X139553048Y-110911476D01*
X138829239Y-110911476D02*
X138981620Y-110911476D01*
X138981620Y-110911476D02*
X139057811Y-110949571D01*
X139057811Y-110949571D02*
X139095906Y-110987666D01*
X139095906Y-110987666D02*
X139172096Y-111101952D01*
X139172096Y-111101952D02*
X139210192Y-111254333D01*
X139210192Y-111254333D02*
X139210192Y-111559095D01*
X139210192Y-111559095D02*
X139172096Y-111635285D01*
X139172096Y-111635285D02*
X139134001Y-111673381D01*
X139134001Y-111673381D02*
X139057811Y-111711476D01*
X139057811Y-111711476D02*
X138905430Y-111711476D01*
X138905430Y-111711476D02*
X138829239Y-111673381D01*
X138829239Y-111673381D02*
X138791144Y-111635285D01*
X138791144Y-111635285D02*
X138753049Y-111559095D01*
X138753049Y-111559095D02*
X138753049Y-111368619D01*
X138753049Y-111368619D02*
X138791144Y-111292428D01*
X138791144Y-111292428D02*
X138829239Y-111254333D01*
X138829239Y-111254333D02*
X138905430Y-111216238D01*
X138905430Y-111216238D02*
X139057811Y-111216238D01*
X139057811Y-111216238D02*
X139134001Y-111254333D01*
X139134001Y-111254333D02*
X139172096Y-111292428D01*
X139172096Y-111292428D02*
X139210192Y-111368619D01*
X135135802Y-105261247D02*
X135135802Y-105908866D01*
X135135802Y-105908866D02*
X135097707Y-105985056D01*
X135097707Y-105985056D02*
X135059612Y-106023152D01*
X135059612Y-106023152D02*
X134983421Y-106061247D01*
X134983421Y-106061247D02*
X134831040Y-106061247D01*
X134831040Y-106061247D02*
X134754850Y-106023152D01*
X134754850Y-106023152D02*
X134716755Y-105985056D01*
X134716755Y-105985056D02*
X134678659Y-105908866D01*
X134678659Y-105908866D02*
X134678659Y-105261247D01*
X134373898Y-105261247D02*
X133840564Y-105261247D01*
X133840564Y-105261247D02*
X134183422Y-106061247D01*
%TO.C,C19*%
X123988436Y-117888700D02*
X123772764Y-117888700D01*
X123988436Y-118608700D02*
X123772764Y-118608700D01*
%TO.C,R13*%
X134868641Y-122804700D02*
X134561359Y-122804700D01*
X134868641Y-123564700D02*
X134561359Y-123564700D01*
%TO.C,L5*%
X128100764Y-117643000D02*
X126896636Y-117643000D01*
X128100764Y-120363000D02*
X126896636Y-120363000D01*
%TO.C,R27*%
X111538541Y-135065000D02*
X111231259Y-135065000D01*
X111538541Y-135825000D02*
X111231259Y-135825000D01*
%TO.C,C5*%
X110937936Y-123220000D02*
X110722264Y-123220000D01*
X110937936Y-123940000D02*
X110722264Y-123940000D01*
%TO.C,R41*%
X133230241Y-124955800D02*
X132922959Y-124955800D01*
X133230241Y-125715800D02*
X132922959Y-125715800D01*
%TO.C,C73*%
X131357836Y-126390000D02*
X131142164Y-126390000D01*
X131357836Y-127110000D02*
X131142164Y-127110000D01*
%TO.C,R12*%
X123982441Y-111764400D02*
X123675159Y-111764400D01*
X123982441Y-112524400D02*
X123675159Y-112524400D01*
%TO.C,C9*%
X111335936Y-110127500D02*
X111120264Y-110127500D01*
X111335936Y-110847500D02*
X111120264Y-110847500D01*
D12*
%TO.C,U2*%
X119073927Y-108073787D02*
X119073927Y-108319507D01*
X119073927Y-110726213D02*
X119073927Y-110480493D01*
X119819622Y-108073787D02*
X119073927Y-108073787D01*
X119819622Y-110726213D02*
X119073927Y-110726213D01*
X121480632Y-108073787D02*
X122226327Y-108073787D01*
X121480632Y-110726213D02*
X122226327Y-110726213D01*
X122226327Y-108073787D02*
X122226327Y-108319507D01*
X122226327Y-110726213D02*
X122226327Y-110480493D01*
D13*
X122630061Y-108637998D02*
G75*
G02*
X122480201Y-108637998I-74930J0D01*
G01*
X122480201Y-108637998D02*
G75*
G02*
X122630061Y-108637998I74930J0D01*
G01*
D11*
%TO.C,C32*%
X120546536Y-113023700D02*
X120330864Y-113023700D01*
X120546536Y-113743700D02*
X120330864Y-113743700D01*
%TO.C,R38*%
X143533641Y-111340000D02*
X143226359Y-111340000D01*
X143533641Y-112100000D02*
X143226359Y-112100000D01*
%TO.C,C40*%
X131033452Y-112933700D02*
X130510948Y-112933700D01*
X131033452Y-114403700D02*
X130510948Y-114403700D01*
%TO.C,R42*%
X132064241Y-119656600D02*
X131756959Y-119656600D01*
X132064241Y-120416600D02*
X131756959Y-120416600D01*
%TO.C,C22*%
X131981252Y-102250000D02*
X130558748Y-102250000D01*
X131981252Y-104070000D02*
X130558748Y-104070000D01*
%TO.C,PV2*%
X136270000Y-131900100D02*
X136270000Y-133800100D01*
X136270000Y-133800100D02*
X138170000Y-133800100D01*
X138170000Y-131900100D02*
X136270000Y-131900100D01*
X138170000Y-133800100D02*
X138170000Y-131900100D01*
D14*
%TO.C,U4*%
X112800127Y-108429873D02*
X113075108Y-108429873D01*
X112800127Y-111829873D02*
X112800127Y-108429873D01*
X113075108Y-111829873D02*
X112800127Y-111829873D01*
X117925121Y-111829873D02*
X118200127Y-111829873D01*
X118200127Y-108429873D02*
X117925121Y-108429873D01*
X118200127Y-111829873D02*
X118200127Y-108429873D01*
D15*
X118098552Y-112149177D02*
G75*
G02*
X118101092Y-112149177I1270J-80640D01*
G01*
D11*
%TO.C,R18*%
X117733641Y-121632200D02*
X117426359Y-121632200D01*
X117733641Y-122392200D02*
X117426359Y-122392200D01*
%TO.C,C3*%
X125807736Y-113407900D02*
X125592064Y-113407900D01*
X125807736Y-114127900D02*
X125592064Y-114127900D01*
%TO.C,C8*%
X126037736Y-112220000D02*
X125822064Y-112220000D01*
X126037736Y-112940000D02*
X125822064Y-112940000D01*
D12*
%TO.C,Q3*%
X107523787Y-125223787D02*
X108976213Y-125223787D01*
X107523787Y-126294602D02*
X107523787Y-127205398D01*
X107523787Y-128276213D02*
X108976213Y-128276213D01*
X108976213Y-125223787D02*
X108976213Y-126255410D01*
X108976213Y-128276213D02*
X108976213Y-127244590D01*
D11*
%TO.C,C38*%
X141993036Y-118097500D02*
X141777364Y-118097500D01*
X141993036Y-118817500D02*
X141777364Y-118817500D01*
D12*
%TO.C,U3*%
X123173927Y-108073787D02*
X123173927Y-108319507D01*
X123173927Y-110726213D02*
X123173927Y-110480493D01*
X123919622Y-108073787D02*
X123173927Y-108073787D01*
X123919622Y-110726213D02*
X123173927Y-110726213D01*
X125580632Y-108073787D02*
X126326327Y-108073787D01*
X125580632Y-110726213D02*
X126326327Y-110726213D01*
X126326327Y-108073787D02*
X126326327Y-108319507D01*
X126326327Y-110726213D02*
X126326327Y-110480493D01*
D13*
X126730061Y-108637998D02*
G75*
G02*
X126580201Y-108637998I-74930J0D01*
G01*
X126580201Y-108637998D02*
G75*
G02*
X126730061Y-108637998I74930J0D01*
G01*
D11*
%TO.C,R24*%
X111538541Y-130895000D02*
X111231259Y-130895000D01*
X111538541Y-131655000D02*
X111231259Y-131655000D01*
%TO.C,R45*%
X108403641Y-128870000D02*
X108096359Y-128870000D01*
X108403641Y-129630000D02*
X108096359Y-129630000D01*
D12*
%TO.C,Y1*%
X114221400Y-117571260D02*
X114221400Y-120928486D01*
X114221400Y-120928486D02*
X118278600Y-120928486D01*
X118278600Y-117571260D02*
X114221400Y-117571260D01*
X118278600Y-120928486D02*
X118278600Y-117571260D01*
X118507201Y-119499886D02*
X118507201Y-121157087D01*
X118507201Y-121157087D02*
X116650000Y-121157087D01*
D11*
%TO.C,R26*%
X111538541Y-133675000D02*
X111231259Y-133675000D01*
X111538541Y-134435000D02*
X111231259Y-134435000D01*
%TO.C,R6*%
X132963641Y-109450000D02*
X132656359Y-109450000D01*
X132963641Y-110210000D02*
X132656359Y-110210000D01*
%TO.C,C70*%
X121997852Y-120858800D02*
X120575348Y-120858800D01*
X121997852Y-122678800D02*
X120575348Y-122678800D01*
%TO.C,R22*%
X111538541Y-128115000D02*
X111231259Y-128115000D01*
X111538541Y-128875000D02*
X111231259Y-128875000D01*
%TO.C,C15*%
X119805436Y-119241000D02*
X119589764Y-119241000D01*
X119805436Y-119961000D02*
X119589764Y-119961000D01*
%TO.C,C26*%
X139557836Y-125809700D02*
X139342164Y-125809700D01*
X139557836Y-126529700D02*
X139342164Y-126529700D01*
%TO.C,C31*%
X121752236Y-111574100D02*
X121536564Y-111574100D01*
X121752236Y-112294100D02*
X121536564Y-112294100D01*
%TO.C,C39*%
X133838836Y-106663000D02*
X133623164Y-106663000D01*
X133838836Y-107383000D02*
X133623164Y-107383000D01*
D12*
%TO.C,D1*%
X106051002Y-119056796D02*
X106051002Y-122809197D01*
X107311200Y-119060200D02*
X102758800Y-119060200D01*
X107311200Y-122812600D02*
X102758800Y-122812600D01*
D11*
%TO.C,C4*%
X111193436Y-108729600D02*
X110977764Y-108729600D01*
X111193436Y-109449600D02*
X110977764Y-109449600D01*
D12*
%TO.C,U12*%
X121396808Y-105752105D02*
X121396808Y-103973695D01*
X124475192Y-105752105D02*
X124475192Y-103973695D01*
D16*
X124754389Y-106164399D02*
G75*
G02*
X124454161Y-106164399I-150114J0D01*
G01*
X124454161Y-106164399D02*
G75*
G02*
X124754389Y-106164399I150114J0D01*
G01*
D11*
%TO.C,C43*%
X119887836Y-124769900D02*
X119672164Y-124769900D01*
X119887836Y-125489900D02*
X119672164Y-125489900D01*
%TO.C,R23*%
X111538541Y-129505000D02*
X111231259Y-129505000D01*
X111538541Y-130265000D02*
X111231259Y-130265000D01*
%TO.C,C1*%
X117487836Y-124769900D02*
X117272164Y-124769900D01*
X117487836Y-125489900D02*
X117272164Y-125489900D01*
%TO.C,C34*%
X119701636Y-111363400D02*
X119485964Y-111363400D01*
X119701636Y-112083400D02*
X119485964Y-112083400D01*
%TO.C,R9*%
X110983741Y-119200000D02*
X110676459Y-119200000D01*
X110983741Y-119960000D02*
X110676459Y-119960000D01*
%TO.C,R4*%
X130978541Y-125108300D02*
X130671259Y-125108300D01*
X130978541Y-125868300D02*
X130671259Y-125868300D01*
%TO.C,C12*%
X122134336Y-126162200D02*
X121918664Y-126162200D01*
X122134336Y-126882200D02*
X121918664Y-126882200D01*
%TO.C,C35*%
X117691936Y-113058900D02*
X117476264Y-113058900D01*
X117691936Y-113778900D02*
X117476264Y-113778900D01*
%TO.C,C41*%
X113815136Y-106512700D02*
X113599464Y-106512700D01*
X113815136Y-107232700D02*
X113599464Y-107232700D01*
%TO.C,C16*%
X114862736Y-116181500D02*
X114647064Y-116181500D01*
X114862736Y-116901500D02*
X114647064Y-116901500D01*
%TO.C,R43*%
X138620841Y-121065100D02*
X138313559Y-121065100D01*
X138620841Y-121825100D02*
X138313559Y-121825100D01*
%TO.C,C66*%
X129972836Y-123565100D02*
X129757164Y-123565100D01*
X129972836Y-124285100D02*
X129757164Y-124285100D01*
%TO.C,C21*%
X127852836Y-113812900D02*
X127637164Y-113812900D01*
X127852836Y-114532900D02*
X127637164Y-114532900D01*
%TO.C,R10*%
X111483741Y-120566200D02*
X111176459Y-120566200D01*
X111483741Y-121326200D02*
X111176459Y-121326200D01*
%TO.C,R39*%
X143387341Y-112732300D02*
X143080059Y-112732300D01*
X143387341Y-113492300D02*
X143080059Y-113492300D01*
%TO.C,R25*%
X111538541Y-132285000D02*
X111231259Y-132285000D01*
X111538541Y-133045000D02*
X111231259Y-133045000D01*
%TO.C,R5*%
X137537941Y-122613000D02*
X137230659Y-122613000D01*
X137537941Y-123373000D02*
X137230659Y-123373000D01*
D15*
%TO.C,J8*%
X114833985Y-138651523D02*
X114833985Y-131158508D01*
X114833985Y-144061048D02*
X114833985Y-141151040D01*
X121200000Y-143351040D02*
X118262992Y-144048119D01*
X129566015Y-131078853D02*
X129566015Y-138587997D01*
X129566015Y-141000977D02*
X129566015Y-144061073D01*
X129566015Y-143351040D02*
X121200000Y-143351040D01*
X129566015Y-143575704D02*
X129566015Y-143351040D01*
X129566015Y-144061073D02*
X114833985Y-144061048D01*
D11*
%TO.C,C17*%
X124576252Y-114735100D02*
X123153748Y-114735100D01*
X124576252Y-116555100D02*
X123153748Y-116555100D01*
%TO.C,C68*%
X127724636Y-123773000D02*
X127508964Y-123773000D01*
X127724636Y-124493000D02*
X127508964Y-124493000D01*
%TO.C,R11*%
X124170341Y-119117300D02*
X123863059Y-119117300D01*
X124170341Y-119877300D02*
X123863059Y-119877300D01*
%TO.C,C44*%
X119841636Y-126162200D02*
X119625964Y-126162200D01*
X119841636Y-126882200D02*
X119625964Y-126882200D01*
%TO.C,C37*%
X141717836Y-116390000D02*
X141502164Y-116390000D01*
X141717836Y-117110000D02*
X141502164Y-117110000D01*
%TO.C,C2*%
X125770136Y-122422900D02*
X125554464Y-122422900D01*
X125770136Y-123142900D02*
X125554464Y-123142900D01*
%TO.C,C65*%
X109182736Y-143391100D02*
X108967064Y-143391100D01*
X109182736Y-144111100D02*
X108967064Y-144111100D01*
%TO.C,C69*%
X129914052Y-121051700D02*
X128491548Y-121051700D01*
X129914052Y-122871700D02*
X128491548Y-122871700D01*
%TO.C,C33*%
X123657836Y-112996900D02*
X123442164Y-112996900D01*
X123657836Y-113716900D02*
X123442164Y-113716900D01*
%TO.C,C23*%
X130082452Y-109518400D02*
X128659948Y-109518400D01*
X130082452Y-111338400D02*
X128659948Y-111338400D01*
%TO.C,C36*%
X139434436Y-112799200D02*
X139218764Y-112799200D01*
X139434436Y-113519200D02*
X139218764Y-113519200D01*
%TO.C,R19*%
X117592041Y-126160600D02*
X117284759Y-126160600D01*
X117592041Y-126920600D02*
X117284759Y-126920600D01*
D17*
%TO.C,U6*%
X133860000Y-114400000D02*
X133860000Y-115094895D01*
X133860000Y-119705105D02*
X133860000Y-120400000D01*
X133860000Y-120400000D02*
X134554895Y-120400000D01*
X134554895Y-114400000D02*
X133860000Y-114400000D01*
X135360178Y-118400000D02*
X135110191Y-118649962D01*
X135860356Y-118899822D02*
X135610267Y-119149860D01*
X137859873Y-115900178D02*
X138109911Y-115650140D01*
X138360000Y-116400000D02*
X138609987Y-116150013D01*
X139160000Y-120394895D02*
X139160000Y-119800000D01*
X139165105Y-120400000D02*
X139160000Y-120394895D01*
X139165105Y-120400000D02*
X139860000Y-120400000D01*
X139860000Y-114400000D02*
X139165105Y-114400000D01*
X139860000Y-115094895D02*
X139860000Y-114400000D01*
X139860000Y-120400000D02*
X139860000Y-119705105D01*
X135610265Y-119149860D02*
G75*
G02*
X135110191Y-118649682I-246965J253160D01*
G01*
X137835286Y-119660731D02*
G75*
G02*
X139002798Y-119517831I624897J-264677D01*
G01*
X138109911Y-115650139D02*
G75*
G02*
X138610064Y-116150318I249829J-250337D01*
G01*
D18*
X138627844Y-117400000D02*
G75*
G02*
X135092156Y-117400000I-1767844J0D01*
G01*
X135092156Y-117400000D02*
G75*
G02*
X138627844Y-117400000I1767844J0D01*
G01*
D19*
X138439883Y-115900127D02*
G75*
G02*
X138279863Y-115900127I-80010J0D01*
G01*
X138279863Y-115900127D02*
G75*
G02*
X138439883Y-115900127I80010J0D01*
G01*
X140189946Y-115450038D02*
G75*
G02*
X140029926Y-115450038I-80010J0D01*
G01*
X140029926Y-115450038D02*
G75*
G02*
X140189946Y-115450038I80010J0D01*
G01*
D20*
%TO.C,U7*%
X133270000Y-110700000D02*
X133270000Y-113300000D01*
X133270000Y-113300000D02*
X138270000Y-113300000D01*
X135370000Y-111300000D02*
X135370000Y-110799949D01*
X135370000Y-113300000D02*
X135390345Y-112398908D01*
X135390345Y-112398908D02*
X136190422Y-112398908D01*
X136170025Y-111300000D02*
X136170025Y-110799949D01*
X136190422Y-112398908D02*
X136195502Y-113300000D01*
X138270000Y-110700000D02*
X133270000Y-110700000D01*
X138270000Y-113300000D02*
X138270000Y-110700000D01*
X136169975Y-111299949D02*
G75*
G02*
X135369975Y-111299949I-400000J0D01*
G01*
D15*
X134182497Y-113460376D02*
G75*
G02*
X134055497Y-113460376I-63500J0D01*
G01*
X134055497Y-113460376D02*
G75*
G02*
X134182497Y-113460376I63500J0D01*
G01*
D11*
%TO.C,C10*%
X122487836Y-124769900D02*
X122272164Y-124769900D01*
X122487836Y-125489900D02*
X122272164Y-125489900D01*
%TO.C,SW1*%
X108803800Y-115599700D02*
X108803800Y-115899700D01*
X108803800Y-118399700D02*
X108803800Y-118099700D01*
X112103800Y-115599700D02*
X108803800Y-115599700D01*
X112103800Y-115899700D02*
X112103800Y-115599700D01*
X112103800Y-118099700D02*
X112103800Y-118399700D01*
X112103800Y-118399700D02*
X108803800Y-118399700D01*
%TO.C,C14*%
X117649736Y-123283600D02*
X117434064Y-123283600D01*
X117649736Y-124003600D02*
X117434064Y-124003600D01*
%TO.C,C11*%
X124887836Y-124769900D02*
X124672164Y-124769900D01*
X124887836Y-125489900D02*
X124672164Y-125489900D01*
%TO.C,R7*%
X134063641Y-108050000D02*
X133756359Y-108050000D01*
X134063641Y-108810000D02*
X133756359Y-108810000D01*
%TO.C,C42*%
X122361352Y-100900000D02*
X121838848Y-100900000D01*
X122361352Y-102370000D02*
X121838848Y-102370000D01*
%TO.C,C7*%
X110500052Y-111673200D02*
X109977548Y-111673200D01*
X110500052Y-113143200D02*
X109977548Y-113143200D01*
%TO.C,C18*%
X130699852Y-115115500D02*
X129277348Y-115115500D01*
X130699852Y-116935500D02*
X129277348Y-116935500D01*
%TO.C,C27*%
X136957836Y-125809700D02*
X136742164Y-125809700D01*
X136957836Y-126529700D02*
X136742164Y-126529700D01*
%TD*%
M02*
