%TF.GenerationSoftware,KiCad,Pcbnew,9.0.8+dfsg-1*%
%TF.CreationDate,2026-09-05T23:08:03+01:00*%
%TF.ProjectId,NAVCORE-SoOP,4e415643-4f52-4452-9d53-6f4f502e6b69,rev?*%
%TF.SameCoordinates,Original*%
%TF.FileFunction,Drillmap*%
%TF.FilePolarity,Positive*%
%FSLAX45Y45*%
G04 Gerber Fmt 4.5, Leading zero omitted, Abs format (unit mm)*
G04 Created by KiCad (PCBNEW 9.0.8+dfsg-1) date 2026-09-05 23:08:03*
%MOMM*%
%LPD*%
G01*
G04 APERTURE LIST*
%ADD10C,0.100000*%
%ADD11C,0.200000*%
G04 APERTURE END LIST*
D10*
X10000000Y-10400000D02*
G75*
G02*
X10400000Y-10000000I400000J0D01*
G01*
X10000000Y-14200000D02*
X10000000Y-10400000D01*
X10400000Y-10000000D02*
X14100000Y-10000000D01*
X10400000Y-14600000D02*
G75*
G02*
X10000000Y-14200000I0J400000D01*
G01*
X10925000Y-10775000D02*
G75*
G02*
X10525000Y-10775000I-200000J0D01*
G01*
X10525000Y-10775000D02*
G75*
G02*
X10925000Y-10775000I200000J0D01*
G01*
X10925000Y-13825000D02*
G75*
G02*
X10525000Y-13825000I-200000J0D01*
G01*
X10525000Y-13825000D02*
G75*
G02*
X10925000Y-13825000I200000J0D01*
G01*
X13975000Y-10775000D02*
G75*
G02*
X13575000Y-10775000I-200000J0D01*
G01*
X13575000Y-10775000D02*
G75*
G02*
X13975000Y-10775000I200000J0D01*
G01*
X13975000Y-13825000D02*
G75*
G02*
X13575000Y-13825000I-200000J0D01*
G01*
X13575000Y-13825000D02*
G75*
G02*
X13975000Y-13825000I200000J0D01*
G01*
X14100000Y-10000000D02*
G75*
G02*
X14500000Y-10400000I0J-400000D01*
G01*
X14100000Y-14600000D02*
X10400000Y-14600000D01*
X14500000Y-10400000D02*
X14500000Y-14200000D01*
X14500000Y-14200000D02*
G75*
G02*
X14100000Y-14600000I-400000J0D01*
G01*
D11*
D10*
X10090000Y-13590000D02*
X10110000Y-13610000D01*
X10110000Y-13590000D02*
X10090000Y-13610000D01*
X10090000Y-14220000D02*
X10110000Y-14240000D01*
X10110000Y-14220000D02*
X10090000Y-14240000D01*
X10213760Y-13919100D02*
X10233760Y-13939100D01*
X10233760Y-13919100D02*
X10213760Y-13939100D01*
X10300000Y-10370000D02*
X10320000Y-10390000D01*
X10320000Y-10370000D02*
X10300000Y-10390000D01*
X10300000Y-14220000D02*
X10320000Y-14240000D01*
X10320000Y-14220000D02*
X10300000Y-14240000D01*
X10300000Y-14360000D02*
X10320000Y-14380000D01*
X10320000Y-14360000D02*
X10300000Y-14380000D01*
X10300340Y-13387480D02*
X10320340Y-13407480D01*
X10320340Y-13387480D02*
X10300340Y-13407480D01*
X10302150Y-13319930D02*
X10322150Y-13339930D01*
X10322150Y-13319930D02*
X10302150Y-13339930D01*
X10370000Y-10300000D02*
X10390000Y-10320000D01*
X10390000Y-10300000D02*
X10370000Y-10320000D01*
X10370000Y-14290000D02*
X10390000Y-14310000D01*
X10390000Y-14290000D02*
X10370000Y-14310000D01*
X10440000Y-13590000D02*
X10460000Y-13610000D01*
X10460000Y-13590000D02*
X10440000Y-13610000D01*
X10440000Y-13730000D02*
X10460000Y-13750000D01*
X10460000Y-13730000D02*
X10440000Y-13750000D01*
X10440000Y-13870000D02*
X10460000Y-13890000D01*
X10460000Y-13870000D02*
X10440000Y-13890000D01*
X10440000Y-14010000D02*
X10460000Y-14030000D01*
X10460000Y-14010000D02*
X10440000Y-14030000D01*
X10650000Y-14080000D02*
X10670000Y-14100000D01*
X10670000Y-14080000D02*
X10650000Y-14100000D01*
X10650000Y-14220000D02*
X10670000Y-14240000D01*
X10670000Y-14220000D02*
X10650000Y-14240000D01*
X10650000Y-14360000D02*
X10670000Y-14380000D01*
X10670000Y-14360000D02*
X10650000Y-14380000D01*
X10720000Y-14360000D02*
X10740000Y-14380000D01*
X10740000Y-14360000D02*
X10720000Y-14380000D01*
X10741737Y-13389401D02*
X10761737Y-13409401D01*
X10761737Y-13389401D02*
X10741737Y-13409401D01*
X10860000Y-11490000D02*
X10880000Y-11510000D01*
X10880000Y-11490000D02*
X10860000Y-11510000D01*
X10885248Y-12305013D02*
X10905248Y-12325013D01*
X10905248Y-12305013D02*
X10885248Y-12325013D01*
X10935880Y-13324350D02*
X10955880Y-13344350D01*
X10955880Y-13324350D02*
X10935880Y-13344350D01*
X10939260Y-12000780D02*
X10959260Y-12020780D01*
X10959260Y-12000780D02*
X10939260Y-12020780D01*
X10959250Y-11568850D02*
X10979250Y-11588850D01*
X10979250Y-11568850D02*
X10959250Y-11588850D01*
X10959380Y-11383080D02*
X10979380Y-11403080D01*
X10979380Y-11383080D02*
X10959380Y-11403080D01*
X11000000Y-10720000D02*
X11020000Y-10740000D01*
X11020000Y-10720000D02*
X11000000Y-10740000D01*
X11000000Y-13520000D02*
X11020000Y-13540000D01*
X11020000Y-13520000D02*
X11000000Y-13540000D01*
X11000000Y-13800000D02*
X11020000Y-13820000D01*
X11020000Y-13800000D02*
X11000000Y-13820000D01*
X11000000Y-13870000D02*
X11020000Y-13890000D01*
X11020000Y-13870000D02*
X11000000Y-13890000D01*
X11027500Y-13206670D02*
X11047500Y-13226670D01*
X11047500Y-13206670D02*
X11027500Y-13226670D01*
X11067930Y-14254790D02*
X11087930Y-14274790D01*
X11087930Y-14254790D02*
X11067930Y-14274790D01*
X11068220Y-10714210D02*
X11088220Y-10734210D01*
X11088220Y-10714210D02*
X11068220Y-10734210D01*
X11088700Y-10812400D02*
X11108700Y-10832400D01*
X11108700Y-10812400D02*
X11088700Y-10832400D01*
X11163820Y-10317780D02*
X11183820Y-10337780D01*
X11183820Y-10317780D02*
X11163820Y-10337780D01*
X11179450Y-11121620D02*
X11199450Y-11141620D01*
X11199450Y-11121620D02*
X11179450Y-11141620D01*
X11193030Y-11192960D02*
X11213030Y-11212960D01*
X11213030Y-11192960D02*
X11193030Y-11212960D01*
X11194800Y-11571610D02*
X11214800Y-11591610D01*
X11214800Y-11571610D02*
X11194800Y-11591610D01*
X11241530Y-12997860D02*
X11261530Y-13017860D01*
X11261530Y-12997860D02*
X11241530Y-13017860D01*
X11242060Y-12360710D02*
X11262060Y-12380710D01*
X11262060Y-12360710D02*
X11242060Y-12380710D01*
X11280000Y-14430000D02*
X11300000Y-14450000D01*
X11300000Y-14430000D02*
X11280000Y-14450000D01*
X11350000Y-14360000D02*
X11370000Y-14380000D01*
X11370000Y-14360000D02*
X11350000Y-14380000D01*
X11369900Y-10310010D02*
X11389900Y-10330010D01*
X11389900Y-10310010D02*
X11369900Y-10330010D01*
X11420000Y-14430000D02*
X11440000Y-14450000D01*
X11440000Y-14430000D02*
X11420000Y-14450000D01*
X11445000Y-12128013D02*
X11465000Y-12148013D01*
X11465000Y-12128013D02*
X11445000Y-12148013D01*
X11490000Y-14360000D02*
X11510000Y-14380000D01*
X11510000Y-14360000D02*
X11490000Y-14380000D01*
X11512220Y-12389280D02*
X11532220Y-12409280D01*
X11532220Y-12389280D02*
X11512220Y-12409280D01*
X11560000Y-14430000D02*
X11580000Y-14450000D01*
X11580000Y-14430000D02*
X11560000Y-14450000D01*
X11596510Y-13165310D02*
X11616510Y-13185310D01*
X11616510Y-13165310D02*
X11596510Y-13185310D01*
X11630000Y-14360000D02*
X11650000Y-14380000D01*
X11650000Y-14360000D02*
X11630000Y-14380000D01*
X11695040Y-11247870D02*
X11715040Y-11267870D01*
X11715040Y-11247870D02*
X11695040Y-11267870D01*
X11700000Y-14080000D02*
X11720000Y-14100000D01*
X11720000Y-14080000D02*
X11700000Y-14100000D01*
X11770000Y-14010000D02*
X11790000Y-14030000D01*
X11790000Y-14010000D02*
X11770000Y-14030000D01*
X11811330Y-11111840D02*
X11831330Y-11131840D01*
X11831330Y-11111840D02*
X11811330Y-11131840D01*
X11813810Y-11261440D02*
X11833810Y-11281440D01*
X11833810Y-11261440D02*
X11813810Y-11281440D01*
X11945920Y-12041090D02*
X11965920Y-12061090D01*
X11965920Y-12041090D02*
X11945920Y-12061090D01*
X12024460Y-12290000D02*
X12044460Y-12310000D01*
X12044460Y-12290000D02*
X12024460Y-12310000D01*
X12050000Y-13240000D02*
X12070000Y-13260000D01*
X12070000Y-13240000D02*
X12050000Y-13260000D01*
X12078010Y-11248650D02*
X12098010Y-11268650D01*
X12098010Y-11248650D02*
X12078010Y-11268650D01*
X12100000Y-12083013D02*
X12120000Y-12103013D01*
X12120000Y-12083013D02*
X12100000Y-12103013D01*
X12167810Y-11106490D02*
X12187810Y-11126490D01*
X12187810Y-11106490D02*
X12167810Y-11126490D01*
X12195130Y-13010080D02*
X12215130Y-13030080D01*
X12215130Y-13010080D02*
X12195130Y-13030080D01*
X12277740Y-10761280D02*
X12297740Y-10781280D01*
X12297740Y-10761280D02*
X12277740Y-10781280D01*
X12341720Y-12652550D02*
X12361720Y-12672550D01*
X12361720Y-12652550D02*
X12341720Y-12672550D01*
X12344150Y-11734840D02*
X12364150Y-11754840D01*
X12364150Y-11734840D02*
X12344150Y-11754840D01*
X12364000Y-11792000D02*
X12384000Y-11812000D01*
X12384000Y-11792000D02*
X12364000Y-11812000D01*
X12367860Y-10801890D02*
X12387860Y-10821890D01*
X12387860Y-10801890D02*
X12367860Y-10821890D01*
X12378600Y-10273620D02*
X12398600Y-10293620D01*
X12398600Y-10273620D02*
X12378600Y-10293620D01*
X12384336Y-12217810D02*
X12404336Y-12237810D01*
X12404336Y-12217810D02*
X12384336Y-12237810D01*
X12398030Y-12651240D02*
X12418030Y-12671240D01*
X12418030Y-12651240D02*
X12398030Y-12671240D01*
X12428000Y-12389430D02*
X12448000Y-12409430D01*
X12448000Y-12389430D02*
X12428000Y-12409430D01*
X12465160Y-11745120D02*
X12485160Y-11765120D01*
X12485160Y-11745120D02*
X12465160Y-11765120D01*
X12499500Y-14390090D02*
X12519500Y-14410090D01*
X12519500Y-14390090D02*
X12499500Y-14410090D01*
X12553000Y-11198000D02*
X12573000Y-11218000D01*
X12573000Y-11198000D02*
X12553000Y-11218000D01*
X12555000Y-12098013D02*
X12575000Y-12118013D01*
X12575000Y-12098013D02*
X12555000Y-12118013D01*
X12594020Y-11069040D02*
X12614020Y-11089040D01*
X12614020Y-11069040D02*
X12594020Y-11089040D01*
X12602179Y-12643692D02*
X12622179Y-12663692D01*
X12622179Y-12643692D02*
X12602179Y-12663692D01*
X12700800Y-11834980D02*
X12720800Y-11854980D01*
X12720800Y-11834980D02*
X12700800Y-11854980D01*
X12717390Y-12316620D02*
X12737390Y-12336620D01*
X12737390Y-12316620D02*
X12717390Y-12336620D01*
X12726000Y-10823000D02*
X12746000Y-10843000D01*
X12746000Y-10823000D02*
X12726000Y-10843000D01*
X12738590Y-14376150D02*
X12758590Y-14396150D01*
X12758590Y-14376150D02*
X12738590Y-14396150D01*
X12820000Y-13520000D02*
X12840000Y-13540000D01*
X12840000Y-13520000D02*
X12820000Y-13540000D01*
X12890000Y-13590000D02*
X12910000Y-13610000D01*
X12910000Y-13590000D02*
X12890000Y-13610000D01*
X12960000Y-14430000D02*
X12980000Y-14450000D01*
X12980000Y-14430000D02*
X12960000Y-14450000D01*
X13026000Y-10733000D02*
X13046000Y-10753000D01*
X13046000Y-10733000D02*
X13026000Y-10753000D01*
X13030000Y-14360000D02*
X13050000Y-14380000D01*
X13050000Y-14360000D02*
X13030000Y-14380000D01*
X13100000Y-14150000D02*
X13120000Y-14170000D01*
X13120000Y-14150000D02*
X13100000Y-14170000D01*
X13100000Y-14430000D02*
X13120000Y-14450000D01*
X13120000Y-14430000D02*
X13100000Y-14450000D01*
X13123000Y-12544000D02*
X13143000Y-12564000D01*
X13143000Y-12544000D02*
X13123000Y-12564000D01*
X13170000Y-13450000D02*
X13190000Y-13470000D01*
X13190000Y-13450000D02*
X13170000Y-13470000D01*
X13170000Y-14430000D02*
X13190000Y-14450000D01*
X13190000Y-14430000D02*
X13170000Y-14450000D01*
X13240000Y-13520000D02*
X13260000Y-13540000D01*
X13260000Y-13520000D02*
X13240000Y-13540000D01*
X13310000Y-13450000D02*
X13330000Y-13470000D01*
X13330000Y-13450000D02*
X13310000Y-13470000D01*
X13330000Y-10833000D02*
X13350000Y-10853000D01*
X13350000Y-10833000D02*
X13330000Y-10853000D01*
X13342950Y-11728690D02*
X13362950Y-11748690D01*
X13362950Y-11728690D02*
X13342950Y-11748690D01*
X13380000Y-13310000D02*
X13400000Y-13330000D01*
X13400000Y-13310000D02*
X13380000Y-13330000D01*
X13393910Y-10950890D02*
X13413910Y-10970890D01*
X13413910Y-10950890D02*
X13393910Y-10970890D01*
X13400062Y-11249687D02*
X13420062Y-11269687D01*
X13420062Y-11249687D02*
X13400062Y-11269687D01*
X13483300Y-12243460D02*
X13503300Y-12263460D01*
X13503300Y-12243460D02*
X13483300Y-12263460D01*
X13520000Y-13520000D02*
X13540000Y-13540000D01*
X13540000Y-13520000D02*
X13520000Y-13540000D01*
X13543125Y-11327879D02*
X13563125Y-11347879D01*
X13563125Y-11327879D02*
X13543125Y-11347879D01*
X13590000Y-11560000D02*
X13610000Y-11580000D01*
X13610000Y-11560000D02*
X13590000Y-11580000D01*
X13590000Y-13450000D02*
X13610000Y-13470000D01*
X13610000Y-13450000D02*
X13590000Y-13470000D01*
X13590000Y-14430000D02*
X13610000Y-14450000D01*
X13610000Y-14430000D02*
X13590000Y-14450000D01*
X13660000Y-13520000D02*
X13680000Y-13540000D01*
X13680000Y-13520000D02*
X13660000Y-13540000D01*
X13730000Y-10090000D02*
X13750000Y-10110000D01*
X13750000Y-10090000D02*
X13730000Y-10110000D01*
X13730000Y-13450000D02*
X13750000Y-13470000D01*
X13750000Y-13450000D02*
X13730000Y-13470000D01*
X13785230Y-11149140D02*
X13805230Y-11169140D01*
X13805230Y-11149140D02*
X13785230Y-11169140D01*
X13800000Y-10300000D02*
X13820000Y-10320000D01*
X13820000Y-10300000D02*
X13800000Y-10320000D01*
X13800000Y-10440000D02*
X13820000Y-10460000D01*
X13820000Y-10440000D02*
X13800000Y-10460000D01*
X13800000Y-13520000D02*
X13820000Y-13540000D01*
X13820000Y-13520000D02*
X13800000Y-13540000D01*
X13851520Y-11666960D02*
X13871520Y-11686960D01*
X13871520Y-11666960D02*
X13851520Y-11686960D01*
X13870000Y-10090000D02*
X13890000Y-10110000D01*
X13890000Y-10090000D02*
X13870000Y-10110000D01*
X13870000Y-13450000D02*
X13890000Y-13470000D01*
X13890000Y-13450000D02*
X13870000Y-13470000D01*
X13870000Y-14080000D02*
X13890000Y-14100000D01*
X13890000Y-14080000D02*
X13870000Y-14100000D01*
X13870000Y-14220000D02*
X13890000Y-14240000D01*
X13890000Y-14220000D02*
X13870000Y-14240000D01*
X13940000Y-10300000D02*
X13960000Y-10320000D01*
X13960000Y-10300000D02*
X13940000Y-10320000D01*
X13940000Y-10440000D02*
X13960000Y-10460000D01*
X13960000Y-10440000D02*
X13940000Y-10460000D01*
X13940000Y-13520000D02*
X13960000Y-13540000D01*
X13960000Y-13520000D02*
X13940000Y-13540000D01*
X14010000Y-10090000D02*
X14030000Y-10110000D01*
X14030000Y-10090000D02*
X14010000Y-10110000D01*
X14010000Y-13450000D02*
X14030000Y-13470000D01*
X14030000Y-13450000D02*
X14010000Y-13470000D01*
X14010000Y-14220000D02*
X14030000Y-14240000D01*
X14030000Y-14220000D02*
X14010000Y-14240000D01*
X14080000Y-10300000D02*
X14100000Y-10320000D01*
X14100000Y-10300000D02*
X14080000Y-10320000D01*
X14080000Y-10440000D02*
X14100000Y-10460000D01*
X14100000Y-10440000D02*
X14080000Y-10460000D01*
X14080000Y-12960000D02*
X14100000Y-12980000D01*
X14100000Y-12960000D02*
X14080000Y-12980000D01*
X14080000Y-13100000D02*
X14100000Y-13120000D01*
X14100000Y-13100000D02*
X14080000Y-13120000D01*
X14080000Y-13520000D02*
X14100000Y-13540000D01*
X14100000Y-13520000D02*
X14080000Y-13540000D01*
X14080000Y-13800000D02*
X14100000Y-13820000D01*
X14100000Y-13800000D02*
X14080000Y-13820000D01*
X14080000Y-13940000D02*
X14100000Y-13960000D01*
X14100000Y-13940000D02*
X14080000Y-13960000D01*
X14080000Y-14150000D02*
X14100000Y-14170000D01*
X14100000Y-14150000D02*
X14080000Y-14170000D01*
X14150000Y-10090000D02*
X14170000Y-10110000D01*
X14170000Y-10090000D02*
X14150000Y-10110000D01*
X14150000Y-10300000D02*
X14170000Y-10320000D01*
X14170000Y-10300000D02*
X14150000Y-10320000D01*
X14150000Y-10440000D02*
X14170000Y-10460000D01*
X14170000Y-10440000D02*
X14150000Y-10460000D01*
X14150000Y-10650000D02*
X14170000Y-10670000D01*
X14170000Y-10650000D02*
X14150000Y-10670000D01*
X14150000Y-13450000D02*
X14170000Y-13470000D01*
X14170000Y-13450000D02*
X14150000Y-13470000D01*
X14150000Y-13870000D02*
X14170000Y-13890000D01*
X14170000Y-13870000D02*
X14150000Y-13890000D01*
X14150000Y-14220000D02*
X14170000Y-14240000D01*
X14170000Y-14220000D02*
X14150000Y-14240000D01*
X14179730Y-12947450D02*
X14199730Y-12967450D01*
X14199730Y-12947450D02*
X14179730Y-12967450D01*
X14179730Y-13392550D02*
X14199730Y-13412550D01*
X14199730Y-13392550D02*
X14179730Y-13412550D01*
X14220000Y-10090000D02*
X14240000Y-10110000D01*
X14240000Y-10090000D02*
X14220000Y-10110000D01*
X14220000Y-10230000D02*
X14240000Y-10250000D01*
X14240000Y-10230000D02*
X14220000Y-10250000D01*
X14220000Y-10370000D02*
X14240000Y-10390000D01*
X14240000Y-10370000D02*
X14220000Y-10390000D01*
X14220000Y-10510000D02*
X14240000Y-10530000D01*
X14240000Y-10510000D02*
X14220000Y-10530000D01*
X14220000Y-10650000D02*
X14240000Y-10670000D01*
X14240000Y-10650000D02*
X14220000Y-10670000D01*
X14220000Y-14290000D02*
X14240000Y-14310000D01*
X14240000Y-14290000D02*
X14220000Y-14310000D01*
X14220000Y-14430000D02*
X14240000Y-14450000D01*
X14240000Y-14430000D02*
X14220000Y-14450000D01*
X14290000Y-10160000D02*
X14310000Y-10180000D01*
X14310000Y-10160000D02*
X14290000Y-10180000D01*
X14290000Y-10300000D02*
X14310000Y-10320000D01*
X14310000Y-10300000D02*
X14290000Y-10320000D01*
X14290000Y-10440000D02*
X14310000Y-10460000D01*
X14310000Y-10440000D02*
X14290000Y-10460000D01*
X14290000Y-10580000D02*
X14310000Y-10600000D01*
X14310000Y-10580000D02*
X14290000Y-10600000D01*
X14290000Y-10720000D02*
X14310000Y-10740000D01*
X14310000Y-10720000D02*
X14290000Y-10740000D01*
X14290000Y-10790000D02*
X14310000Y-10810000D01*
X14310000Y-10790000D02*
X14290000Y-10810000D01*
X14290000Y-12260000D02*
X14310000Y-12280000D01*
X14310000Y-12260000D02*
X14290000Y-12280000D01*
X14290000Y-14360000D02*
X14310000Y-14380000D01*
X14310000Y-14360000D02*
X14290000Y-14380000D01*
X14360000Y-10230000D02*
X14380000Y-10250000D01*
X14380000Y-10230000D02*
X14360000Y-10250000D01*
X14360000Y-10370000D02*
X14380000Y-10390000D01*
X14380000Y-10370000D02*
X14360000Y-10390000D01*
X14360000Y-10510000D02*
X14380000Y-10530000D01*
X14380000Y-10510000D02*
X14360000Y-10530000D01*
X14360000Y-10650000D02*
X14380000Y-10670000D01*
X14380000Y-10650000D02*
X14360000Y-10670000D01*
X14360000Y-13310000D02*
X14380000Y-13330000D01*
X14380000Y-13310000D02*
X14360000Y-13330000D01*
X14360000Y-13590000D02*
X14380000Y-13610000D01*
X14380000Y-13590000D02*
X14360000Y-13610000D01*
X14360000Y-14290000D02*
X14380000Y-14310000D01*
X14380000Y-14290000D02*
X14360000Y-14310000D01*
X10112500Y-10380000D02*
G75*
G02*
X10087500Y-10380000I-12500J0D01*
G01*
X10087500Y-10380000D02*
G75*
G02*
X10112500Y-10380000I12500J0D01*
G01*
X10112500Y-10520000D02*
G75*
G02*
X10087500Y-10520000I-12500J0D01*
G01*
X10087500Y-10520000D02*
G75*
G02*
X10112500Y-10520000I12500J0D01*
G01*
X10112500Y-10660000D02*
G75*
G02*
X10087500Y-10660000I-12500J0D01*
G01*
X10087500Y-10660000D02*
G75*
G02*
X10112500Y-10660000I12500J0D01*
G01*
X10112500Y-10800000D02*
G75*
G02*
X10087500Y-10800000I-12500J0D01*
G01*
X10087500Y-10800000D02*
G75*
G02*
X10112500Y-10800000I12500J0D01*
G01*
X10112500Y-10940000D02*
G75*
G02*
X10087500Y-10940000I-12500J0D01*
G01*
X10087500Y-10940000D02*
G75*
G02*
X10112500Y-10940000I12500J0D01*
G01*
X10112500Y-11080000D02*
G75*
G02*
X10087500Y-11080000I-12500J0D01*
G01*
X10087500Y-11080000D02*
G75*
G02*
X10112500Y-11080000I12500J0D01*
G01*
X10112500Y-12480000D02*
G75*
G02*
X10087500Y-12480000I-12500J0D01*
G01*
X10087500Y-12480000D02*
G75*
G02*
X10112500Y-12480000I12500J0D01*
G01*
X10112500Y-12620000D02*
G75*
G02*
X10087500Y-12620000I-12500J0D01*
G01*
X10087500Y-12620000D02*
G75*
G02*
X10112500Y-12620000I12500J0D01*
G01*
X10112500Y-12760000D02*
G75*
G02*
X10087500Y-12760000I-12500J0D01*
G01*
X10087500Y-12760000D02*
G75*
G02*
X10112500Y-12760000I12500J0D01*
G01*
X10182500Y-10310000D02*
G75*
G02*
X10157500Y-10310000I-12500J0D01*
G01*
X10157500Y-10310000D02*
G75*
G02*
X10182500Y-10310000I12500J0D01*
G01*
X10182500Y-10450000D02*
G75*
G02*
X10157500Y-10450000I-12500J0D01*
G01*
X10157500Y-10450000D02*
G75*
G02*
X10182500Y-10450000I12500J0D01*
G01*
X10252500Y-10660000D02*
G75*
G02*
X10227500Y-10660000I-12500J0D01*
G01*
X10227500Y-10660000D02*
G75*
G02*
X10252500Y-10660000I12500J0D01*
G01*
X10252500Y-14230000D02*
G75*
G02*
X10227500Y-14230000I-12500J0D01*
G01*
X10227500Y-14230000D02*
G75*
G02*
X10252500Y-14230000I12500J0D01*
G01*
X10322500Y-10170000D02*
G75*
G02*
X10297500Y-10170000I-12500J0D01*
G01*
X10297500Y-10170000D02*
G75*
G02*
X10322500Y-10170000I12500J0D01*
G01*
X10322500Y-10310000D02*
G75*
G02*
X10297500Y-10310000I-12500J0D01*
G01*
X10297500Y-10310000D02*
G75*
G02*
X10322500Y-10310000I12500J0D01*
G01*
X10322500Y-10450000D02*
G75*
G02*
X10297500Y-10450000I-12500J0D01*
G01*
X10297500Y-10450000D02*
G75*
G02*
X10322500Y-10450000I12500J0D01*
G01*
X10322500Y-10590000D02*
G75*
G02*
X10297500Y-10590000I-12500J0D01*
G01*
X10297500Y-10590000D02*
G75*
G02*
X10322500Y-10590000I12500J0D01*
G01*
X10322500Y-10940000D02*
G75*
G02*
X10297500Y-10940000I-12500J0D01*
G01*
X10297500Y-10940000D02*
G75*
G02*
X10322500Y-10940000I12500J0D01*
G01*
X10322500Y-11080000D02*
G75*
G02*
X10297500Y-11080000I-12500J0D01*
G01*
X10297500Y-11080000D02*
G75*
G02*
X10322500Y-11080000I12500J0D01*
G01*
X10322500Y-12550000D02*
G75*
G02*
X10297500Y-12550000I-12500J0D01*
G01*
X10297500Y-12550000D02*
G75*
G02*
X10322500Y-12550000I12500J0D01*
G01*
X10322500Y-13880000D02*
G75*
G02*
X10297500Y-13880000I-12500J0D01*
G01*
X10297500Y-13880000D02*
G75*
G02*
X10322500Y-13880000I12500J0D01*
G01*
X10322500Y-14440000D02*
G75*
G02*
X10297500Y-14440000I-12500J0D01*
G01*
X10297500Y-14440000D02*
G75*
G02*
X10322500Y-14440000I12500J0D01*
G01*
X10392500Y-10100000D02*
G75*
G02*
X10367500Y-10100000I-12500J0D01*
G01*
X10367500Y-10100000D02*
G75*
G02*
X10392500Y-10100000I12500J0D01*
G01*
X10392500Y-10450000D02*
G75*
G02*
X10367500Y-10450000I-12500J0D01*
G01*
X10367500Y-10450000D02*
G75*
G02*
X10392500Y-10450000I12500J0D01*
G01*
X10392500Y-11010000D02*
G75*
G02*
X10367500Y-11010000I-12500J0D01*
G01*
X10367500Y-11010000D02*
G75*
G02*
X10392500Y-11010000I12500J0D01*
G01*
X10462500Y-10170000D02*
G75*
G02*
X10437500Y-10170000I-12500J0D01*
G01*
X10437500Y-10170000D02*
G75*
G02*
X10462500Y-10170000I12500J0D01*
G01*
X10462500Y-10310000D02*
G75*
G02*
X10437500Y-10310000I-12500J0D01*
G01*
X10437500Y-10310000D02*
G75*
G02*
X10462500Y-10310000I12500J0D01*
G01*
X10462500Y-10380000D02*
G75*
G02*
X10437500Y-10380000I-12500J0D01*
G01*
X10437500Y-10380000D02*
G75*
G02*
X10462500Y-10380000I12500J0D01*
G01*
X10462500Y-10730000D02*
G75*
G02*
X10437500Y-10730000I-12500J0D01*
G01*
X10437500Y-10730000D02*
G75*
G02*
X10462500Y-10730000I12500J0D01*
G01*
X10462500Y-10800000D02*
G75*
G02*
X10437500Y-10800000I-12500J0D01*
G01*
X10437500Y-10800000D02*
G75*
G02*
X10462500Y-10800000I12500J0D01*
G01*
X10462500Y-10940000D02*
G75*
G02*
X10437500Y-10940000I-12500J0D01*
G01*
X10437500Y-10940000D02*
G75*
G02*
X10462500Y-10940000I12500J0D01*
G01*
X10462500Y-11080000D02*
G75*
G02*
X10437500Y-11080000I-12500J0D01*
G01*
X10437500Y-11080000D02*
G75*
G02*
X10462500Y-11080000I12500J0D01*
G01*
X10462500Y-13530000D02*
G75*
G02*
X10437500Y-13530000I-12500J0D01*
G01*
X10437500Y-13530000D02*
G75*
G02*
X10462500Y-13530000I12500J0D01*
G01*
X10462500Y-13810000D02*
G75*
G02*
X10437500Y-13810000I-12500J0D01*
G01*
X10437500Y-13810000D02*
G75*
G02*
X10462500Y-13810000I12500J0D01*
G01*
X10532500Y-10100000D02*
G75*
G02*
X10507500Y-10100000I-12500J0D01*
G01*
X10507500Y-10100000D02*
G75*
G02*
X10532500Y-10100000I12500J0D01*
G01*
X10532500Y-14090000D02*
G75*
G02*
X10507500Y-14090000I-12500J0D01*
G01*
X10507500Y-14090000D02*
G75*
G02*
X10532500Y-14090000I12500J0D01*
G01*
X10602500Y-10310000D02*
G75*
G02*
X10577500Y-10310000I-12500J0D01*
G01*
X10577500Y-10310000D02*
G75*
G02*
X10602500Y-10310000I12500J0D01*
G01*
X10602500Y-13530000D02*
G75*
G02*
X10577500Y-13530000I-12500J0D01*
G01*
X10577500Y-13530000D02*
G75*
G02*
X10602500Y-13530000I12500J0D01*
G01*
X10602500Y-14090000D02*
G75*
G02*
X10577500Y-14090000I-12500J0D01*
G01*
X10577500Y-14090000D02*
G75*
G02*
X10602500Y-14090000I12500J0D01*
G01*
X10672500Y-10100000D02*
G75*
G02*
X10647500Y-10100000I-12500J0D01*
G01*
X10647500Y-10100000D02*
G75*
G02*
X10672500Y-10100000I12500J0D01*
G01*
X10672500Y-10240000D02*
G75*
G02*
X10647500Y-10240000I-12500J0D01*
G01*
X10647500Y-10240000D02*
G75*
G02*
X10672500Y-10240000I12500J0D01*
G01*
X10742500Y-14440000D02*
G75*
G02*
X10717500Y-14440000I-12500J0D01*
G01*
X10717500Y-14440000D02*
G75*
G02*
X10742500Y-14440000I12500J0D01*
G01*
X10812500Y-10450000D02*
G75*
G02*
X10787500Y-10450000I-12500J0D01*
G01*
X10787500Y-10450000D02*
G75*
G02*
X10812500Y-10450000I12500J0D01*
G01*
X10812500Y-11220000D02*
G75*
G02*
X10787500Y-11220000I-12500J0D01*
G01*
X10787500Y-11220000D02*
G75*
G02*
X10812500Y-11220000I12500J0D01*
G01*
X10812500Y-12340000D02*
G75*
G02*
X10787500Y-12340000I-12500J0D01*
G01*
X10787500Y-12340000D02*
G75*
G02*
X10812500Y-12340000I12500J0D01*
G01*
X10812500Y-14440000D02*
G75*
G02*
X10787500Y-14440000I-12500J0D01*
G01*
X10787500Y-14440000D02*
G75*
G02*
X10812500Y-14440000I12500J0D01*
G01*
X10882500Y-13180000D02*
G75*
G02*
X10857500Y-13180000I-12500J0D01*
G01*
X10857500Y-13180000D02*
G75*
G02*
X10882500Y-13180000I12500J0D01*
G01*
X10952500Y-10450000D02*
G75*
G02*
X10927500Y-10450000I-12500J0D01*
G01*
X10927500Y-10450000D02*
G75*
G02*
X10952500Y-10450000I12500J0D01*
G01*
X11022500Y-10520000D02*
G75*
G02*
X10997500Y-10520000I-12500J0D01*
G01*
X10997500Y-10520000D02*
G75*
G02*
X11022500Y-10520000I12500J0D01*
G01*
X11022500Y-10660000D02*
G75*
G02*
X10997500Y-10660000I-12500J0D01*
G01*
X10997500Y-10660000D02*
G75*
G02*
X11022500Y-10660000I12500J0D01*
G01*
X11092500Y-10450000D02*
G75*
G02*
X11067500Y-10450000I-12500J0D01*
G01*
X11067500Y-10450000D02*
G75*
G02*
X11092500Y-10450000I12500J0D01*
G01*
X11092500Y-12620000D02*
G75*
G02*
X11067500Y-12620000I-12500J0D01*
G01*
X11067500Y-12620000D02*
G75*
G02*
X11092500Y-12620000I12500J0D01*
G01*
X11232500Y-10450000D02*
G75*
G02*
X11207500Y-10450000I-12500J0D01*
G01*
X11207500Y-10450000D02*
G75*
G02*
X11232500Y-10450000I12500J0D01*
G01*
X11232500Y-10520000D02*
G75*
G02*
X11207500Y-10520000I-12500J0D01*
G01*
X11207500Y-10520000D02*
G75*
G02*
X11232500Y-10520000I12500J0D01*
G01*
X11372500Y-10450000D02*
G75*
G02*
X11347500Y-10450000I-12500J0D01*
G01*
X11347500Y-10450000D02*
G75*
G02*
X11372500Y-10450000I12500J0D01*
G01*
X11442500Y-10520000D02*
G75*
G02*
X11417500Y-10520000I-12500J0D01*
G01*
X11417500Y-10520000D02*
G75*
G02*
X11442500Y-10520000I12500J0D01*
G01*
X11442500Y-13670000D02*
G75*
G02*
X11417500Y-13670000I-12500J0D01*
G01*
X11417500Y-13670000D02*
G75*
G02*
X11442500Y-13670000I12500J0D01*
G01*
X11512500Y-10450000D02*
G75*
G02*
X11487500Y-10450000I-12500J0D01*
G01*
X11487500Y-10450000D02*
G75*
G02*
X11512500Y-10450000I12500J0D01*
G01*
X11582500Y-10590000D02*
G75*
G02*
X11557500Y-10590000I-12500J0D01*
G01*
X11557500Y-10590000D02*
G75*
G02*
X11582500Y-10590000I12500J0D01*
G01*
X11582500Y-12830000D02*
G75*
G02*
X11557500Y-12830000I-12500J0D01*
G01*
X11557500Y-12830000D02*
G75*
G02*
X11582500Y-12830000I12500J0D01*
G01*
X11582500Y-13950000D02*
G75*
G02*
X11557500Y-13950000I-12500J0D01*
G01*
X11557500Y-13950000D02*
G75*
G02*
X11582500Y-13950000I12500J0D01*
G01*
X11582500Y-14020000D02*
G75*
G02*
X11557500Y-14020000I-12500J0D01*
G01*
X11557500Y-14020000D02*
G75*
G02*
X11582500Y-14020000I12500J0D01*
G01*
X11652500Y-14090000D02*
G75*
G02*
X11627500Y-14090000I-12500J0D01*
G01*
X11627500Y-14090000D02*
G75*
G02*
X11652500Y-14090000I12500J0D01*
G01*
X11693130Y-14213710D02*
G75*
G02*
X11668130Y-14213710I-12500J0D01*
G01*
X11668130Y-14213710D02*
G75*
G02*
X11693130Y-14213710I12500J0D01*
G01*
X11722500Y-14160000D02*
G75*
G02*
X11697500Y-14160000I-12500J0D01*
G01*
X11697500Y-14160000D02*
G75*
G02*
X11722500Y-14160000I12500J0D01*
G01*
X11885620Y-14365620D02*
G75*
G02*
X11860620Y-14365620I-12500J0D01*
G01*
X11860620Y-14365620D02*
G75*
G02*
X11885620Y-14365620I12500J0D01*
G01*
X12125790Y-12362586D02*
G75*
G02*
X12100790Y-12362586I-12500J0D01*
G01*
X12100790Y-12362586D02*
G75*
G02*
X12125790Y-12362586I12500J0D01*
G01*
X12142500Y-14090000D02*
G75*
G02*
X12117500Y-14090000I-12500J0D01*
G01*
X12117500Y-14090000D02*
G75*
G02*
X12142500Y-14090000I12500J0D01*
G01*
X12352500Y-13530000D02*
G75*
G02*
X12327500Y-13530000I-12500J0D01*
G01*
X12327500Y-13530000D02*
G75*
G02*
X12352500Y-13530000I12500J0D01*
G01*
X13052500Y-13530000D02*
G75*
G02*
X13027500Y-13530000I-12500J0D01*
G01*
X13027500Y-13530000D02*
G75*
G02*
X13052500Y-13530000I12500J0D01*
G01*
X13472500Y-13530000D02*
G75*
G02*
X13447500Y-13530000I-12500J0D01*
G01*
X13447500Y-13530000D02*
G75*
G02*
X13472500Y-13530000I12500J0D01*
G01*
X13472500Y-13670000D02*
G75*
G02*
X13447500Y-13670000I-12500J0D01*
G01*
X13447500Y-13670000D02*
G75*
G02*
X13472500Y-13670000I12500J0D01*
G01*
X13472500Y-13740000D02*
G75*
G02*
X13447500Y-13740000I-12500J0D01*
G01*
X13447500Y-13740000D02*
G75*
G02*
X13472500Y-13740000I12500J0D01*
G01*
X13472500Y-13810000D02*
G75*
G02*
X13447500Y-13810000I-12500J0D01*
G01*
X13447500Y-13810000D02*
G75*
G02*
X13472500Y-13810000I12500J0D01*
G01*
X13542500Y-13250000D02*
G75*
G02*
X13517500Y-13250000I-12500J0D01*
G01*
X13517500Y-13250000D02*
G75*
G02*
X13542500Y-13250000I12500J0D01*
G01*
X13682500Y-14090000D02*
G75*
G02*
X13657500Y-14090000I-12500J0D01*
G01*
X13657500Y-14090000D02*
G75*
G02*
X13682500Y-14090000I12500J0D01*
G01*
X13752500Y-10240000D02*
G75*
G02*
X13727500Y-10240000I-12500J0D01*
G01*
X13727500Y-10240000D02*
G75*
G02*
X13752500Y-10240000I12500J0D01*
G01*
X13892500Y-10240000D02*
G75*
G02*
X13867500Y-10240000I-12500J0D01*
G01*
X13867500Y-10240000D02*
G75*
G02*
X13892500Y-10240000I12500J0D01*
G01*
X13892500Y-10380000D02*
G75*
G02*
X13867500Y-10380000I-12500J0D01*
G01*
X13867500Y-10380000D02*
G75*
G02*
X13892500Y-10380000I12500J0D01*
G01*
X13962500Y-14090000D02*
G75*
G02*
X13937500Y-14090000I-12500J0D01*
G01*
X13937500Y-14090000D02*
G75*
G02*
X13962500Y-14090000I12500J0D01*
G01*
X14032500Y-14090000D02*
G75*
G02*
X14007500Y-14090000I-12500J0D01*
G01*
X14007500Y-14090000D02*
G75*
G02*
X14032500Y-14090000I12500J0D01*
G01*
X14102500Y-10170000D02*
G75*
G02*
X14077500Y-10170000I-12500J0D01*
G01*
X14077500Y-10170000D02*
G75*
G02*
X14102500Y-10170000I12500J0D01*
G01*
X14102500Y-10380000D02*
G75*
G02*
X14077500Y-10380000I-12500J0D01*
G01*
X14077500Y-10380000D02*
G75*
G02*
X14102500Y-10380000I12500J0D01*
G01*
X14102500Y-10590000D02*
G75*
G02*
X14077500Y-10590000I-12500J0D01*
G01*
X14077500Y-10590000D02*
G75*
G02*
X14102500Y-10590000I12500J0D01*
G01*
X14102500Y-10730000D02*
G75*
G02*
X14077500Y-10730000I-12500J0D01*
G01*
X14077500Y-10730000D02*
G75*
G02*
X14102500Y-10730000I12500J0D01*
G01*
X14102500Y-10870000D02*
G75*
G02*
X14077500Y-10870000I-12500J0D01*
G01*
X14077500Y-10870000D02*
G75*
G02*
X14102500Y-10870000I12500J0D01*
G01*
X14102500Y-10940000D02*
G75*
G02*
X14077500Y-10940000I-12500J0D01*
G01*
X14077500Y-10940000D02*
G75*
G02*
X14102500Y-10940000I12500J0D01*
G01*
X14102500Y-13600000D02*
G75*
G02*
X14077500Y-13600000I-12500J0D01*
G01*
X14077500Y-13600000D02*
G75*
G02*
X14102500Y-13600000I12500J0D01*
G01*
X14242500Y-10730000D02*
G75*
G02*
X14217500Y-10730000I-12500J0D01*
G01*
X14217500Y-10730000D02*
G75*
G02*
X14242500Y-10730000I12500J0D01*
G01*
X14312500Y-11500000D02*
G75*
G02*
X14287500Y-11500000I-12500J0D01*
G01*
X14287500Y-11500000D02*
G75*
G02*
X14312500Y-11500000I12500J0D01*
G01*
X14312500Y-11640000D02*
G75*
G02*
X14287500Y-11640000I-12500J0D01*
G01*
X14287500Y-11640000D02*
G75*
G02*
X14312500Y-11640000I12500J0D01*
G01*
X14312500Y-11780000D02*
G75*
G02*
X14287500Y-11780000I-12500J0D01*
G01*
X14287500Y-11780000D02*
G75*
G02*
X14312500Y-11780000I12500J0D01*
G01*
X14312500Y-11990000D02*
G75*
G02*
X14287500Y-11990000I-12500J0D01*
G01*
X14287500Y-11990000D02*
G75*
G02*
X14312500Y-11990000I12500J0D01*
G01*
X14312500Y-12130000D02*
G75*
G02*
X14287500Y-12130000I-12500J0D01*
G01*
X14287500Y-12130000D02*
G75*
G02*
X14312500Y-12130000I12500J0D01*
G01*
X14312500Y-12620000D02*
G75*
G02*
X14287500Y-12620000I-12500J0D01*
G01*
X14287500Y-12620000D02*
G75*
G02*
X14312500Y-12620000I12500J0D01*
G01*
X14312500Y-12760000D02*
G75*
G02*
X14287500Y-12760000I-12500J0D01*
G01*
X14287500Y-12760000D02*
G75*
G02*
X14312500Y-12760000I12500J0D01*
G01*
X14382500Y-10800000D02*
G75*
G02*
X14357500Y-10800000I-12500J0D01*
G01*
X14357500Y-10800000D02*
G75*
G02*
X14382500Y-10800000I12500J0D01*
G01*
X10100000Y-10295000D02*
X10100000Y-10325000D01*
X10085000Y-10310000D02*
X10115000Y-10310000D01*
X10100000Y-10435000D02*
X10100000Y-10465000D01*
X10085000Y-10450000D02*
X10115000Y-10450000D01*
X10100000Y-10575000D02*
X10100000Y-10605000D01*
X10085000Y-10590000D02*
X10115000Y-10590000D01*
X10100000Y-10715000D02*
X10100000Y-10745000D01*
X10085000Y-10730000D02*
X10115000Y-10730000D01*
X10100000Y-10855000D02*
X10100000Y-10885000D01*
X10085000Y-10870000D02*
X10115000Y-10870000D01*
X10100000Y-10995000D02*
X10100000Y-11025000D01*
X10085000Y-11010000D02*
X10115000Y-11010000D01*
X10100000Y-12535000D02*
X10100000Y-12565000D01*
X10085000Y-12550000D02*
X10115000Y-12550000D01*
X10100000Y-12675000D02*
X10100000Y-12705000D01*
X10085000Y-12690000D02*
X10115000Y-12690000D01*
X10100000Y-13025000D02*
X10100000Y-13055000D01*
X10085000Y-13040000D02*
X10115000Y-13040000D01*
X10100000Y-13235000D02*
X10100000Y-13265000D01*
X10085000Y-13250000D02*
X10115000Y-13250000D01*
X10100000Y-13515000D02*
X10100000Y-13545000D01*
X10085000Y-13530000D02*
X10115000Y-13530000D01*
X10100000Y-13865000D02*
X10100000Y-13895000D01*
X10085000Y-13880000D02*
X10115000Y-13880000D01*
X10100000Y-14145000D02*
X10100000Y-14175000D01*
X10085000Y-14160000D02*
X10115000Y-14160000D01*
X10100000Y-14285000D02*
X10100000Y-14315000D01*
X10085000Y-14300000D02*
X10115000Y-14300000D01*
X10170000Y-10645000D02*
X10170000Y-10675000D01*
X10155000Y-10660000D02*
X10185000Y-10660000D01*
X10170000Y-14215000D02*
X10170000Y-14245000D01*
X10155000Y-14230000D02*
X10185000Y-14230000D01*
X10200000Y-10185000D02*
X10200000Y-10215000D01*
X10185000Y-10200000D02*
X10215000Y-10200000D01*
X10200000Y-10365000D02*
X10200000Y-10395000D01*
X10185000Y-10380000D02*
X10215000Y-10380000D01*
X10200000Y-10545000D02*
X10200000Y-10575000D01*
X10185000Y-10560000D02*
X10215000Y-10560000D01*
X10200000Y-10725000D02*
X10200000Y-10755000D01*
X10185000Y-10740000D02*
X10215000Y-10740000D01*
X10200000Y-14145000D02*
X10200000Y-14175000D01*
X10185000Y-14160000D02*
X10215000Y-14160000D01*
X10200000Y-14325000D02*
X10200000Y-14355000D01*
X10185000Y-14340000D02*
X10215000Y-14340000D01*
X10240000Y-10295000D02*
X10240000Y-10325000D01*
X10225000Y-10310000D02*
X10255000Y-10310000D01*
X10240000Y-10435000D02*
X10240000Y-10465000D01*
X10225000Y-10450000D02*
X10255000Y-10450000D01*
X10240000Y-14425000D02*
X10240000Y-14455000D01*
X10225000Y-14440000D02*
X10255000Y-14440000D01*
X10267000Y-12770860D02*
X10267000Y-12800860D01*
X10252000Y-12785860D02*
X10282000Y-12785860D01*
X10296875Y-12694375D02*
X10296875Y-12724375D01*
X10281875Y-12709375D02*
X10311875Y-12709375D01*
X10310000Y-10085000D02*
X10310000Y-10115000D01*
X10295000Y-10100000D02*
X10325000Y-10100000D01*
X10310000Y-10225000D02*
X10310000Y-10255000D01*
X10295000Y-10240000D02*
X10325000Y-10240000D01*
X10310000Y-10505000D02*
X10310000Y-10535000D01*
X10295000Y-10520000D02*
X10325000Y-10520000D01*
X10310000Y-10855000D02*
X10310000Y-10885000D01*
X10295000Y-10870000D02*
X10325000Y-10870000D01*
X10310000Y-10995000D02*
X10310000Y-11025000D01*
X10295000Y-11010000D02*
X10325000Y-11010000D01*
X10310000Y-14145000D02*
X10310000Y-14175000D01*
X10295000Y-14160000D02*
X10325000Y-14160000D01*
X10310000Y-14285000D02*
X10310000Y-14315000D01*
X10295000Y-14300000D02*
X10325000Y-14300000D01*
X10318150Y-13795120D02*
X10318150Y-13825120D01*
X10303150Y-13810120D02*
X10333150Y-13810120D01*
X10333405Y-13008326D02*
X10333405Y-13038326D01*
X10318405Y-13023326D02*
X10348405Y-13023326D01*
X10350228Y-12945541D02*
X10350228Y-12975541D01*
X10335228Y-12960541D02*
X10365228Y-12960541D01*
X10359375Y-12625625D02*
X10359375Y-12655625D01*
X10344375Y-12640625D02*
X10374375Y-12640625D01*
X10380000Y-10185000D02*
X10380000Y-10215000D01*
X10365000Y-10200000D02*
X10395000Y-10200000D01*
X10380000Y-10365000D02*
X10380000Y-10395000D01*
X10365000Y-10380000D02*
X10395000Y-10380000D01*
X10380000Y-10545000D02*
X10380000Y-10575000D01*
X10365000Y-10560000D02*
X10395000Y-10560000D01*
X10380000Y-10785000D02*
X10380000Y-10815000D01*
X10365000Y-10800000D02*
X10395000Y-10800000D01*
X10380000Y-10905000D02*
X10380000Y-10935000D01*
X10365000Y-10920000D02*
X10395000Y-10920000D01*
X10380000Y-11085000D02*
X10380000Y-11115000D01*
X10365000Y-11100000D02*
X10395000Y-11100000D01*
X10380000Y-11265000D02*
X10380000Y-11295000D01*
X10365000Y-11280000D02*
X10395000Y-11280000D01*
X10380000Y-11445000D02*
X10380000Y-11475000D01*
X10365000Y-11460000D02*
X10395000Y-11460000D01*
X10380000Y-11625000D02*
X10380000Y-11655000D01*
X10365000Y-11640000D02*
X10395000Y-11640000D01*
X10380000Y-12345000D02*
X10380000Y-12375000D01*
X10365000Y-12360000D02*
X10395000Y-12360000D01*
X10380000Y-12525000D02*
X10380000Y-12555000D01*
X10365000Y-12540000D02*
X10395000Y-12540000D01*
X10380000Y-12705000D02*
X10380000Y-12735000D01*
X10365000Y-12720000D02*
X10395000Y-12720000D01*
X10380000Y-13515000D02*
X10380000Y-13545000D01*
X10365000Y-13530000D02*
X10395000Y-13530000D01*
X10380000Y-13605000D02*
X10380000Y-13635000D01*
X10365000Y-13620000D02*
X10395000Y-13620000D01*
X10380000Y-13725000D02*
X10380000Y-13755000D01*
X10365000Y-13740000D02*
X10395000Y-13740000D01*
X10380000Y-13865000D02*
X10380000Y-13895000D01*
X10365000Y-13880000D02*
X10395000Y-13880000D01*
X10380000Y-13965000D02*
X10380000Y-13995000D01*
X10365000Y-13980000D02*
X10395000Y-13980000D01*
X10380000Y-14215000D02*
X10380000Y-14245000D01*
X10365000Y-14230000D02*
X10395000Y-14230000D01*
X10384375Y-11781875D02*
X10384375Y-11811875D01*
X10369375Y-11796875D02*
X10399375Y-11796875D01*
X10384769Y-13037981D02*
X10384769Y-13067981D01*
X10369769Y-13052981D02*
X10399769Y-13052981D01*
X10441949Y-13039211D02*
X10441949Y-13069211D01*
X10426949Y-13054211D02*
X10456949Y-13054211D01*
X10446875Y-11944375D02*
X10446875Y-11974375D01*
X10431875Y-11959375D02*
X10461875Y-11959375D01*
X10450000Y-10085000D02*
X10450000Y-10115000D01*
X10435000Y-10100000D02*
X10465000Y-10100000D01*
X10450000Y-10225000D02*
X10450000Y-10255000D01*
X10435000Y-10240000D02*
X10465000Y-10240000D01*
X10450000Y-10435000D02*
X10450000Y-10465000D01*
X10435000Y-10450000D02*
X10465000Y-10450000D01*
X10450000Y-10855000D02*
X10450000Y-10885000D01*
X10435000Y-10870000D02*
X10465000Y-10870000D01*
X10450000Y-10995000D02*
X10450000Y-11025000D01*
X10435000Y-11010000D02*
X10465000Y-11010000D01*
X10450000Y-13655000D02*
X10450000Y-13685000D01*
X10435000Y-13670000D02*
X10465000Y-13670000D01*
X10450000Y-13935000D02*
X10450000Y-13965000D01*
X10435000Y-13950000D02*
X10465000Y-13950000D01*
X10453125Y-13200625D02*
X10453125Y-13230625D01*
X10438125Y-13215625D02*
X10468125Y-13215625D01*
X10459375Y-11794375D02*
X10459375Y-11824375D01*
X10444375Y-11809375D02*
X10474375Y-11809375D01*
X10459375Y-12194375D02*
X10459375Y-12224375D01*
X10444375Y-12209375D02*
X10474375Y-12209375D01*
X10478125Y-12425625D02*
X10478125Y-12455625D01*
X10463125Y-12440625D02*
X10493125Y-12440625D01*
X10486000Y-12725130D02*
X10486000Y-12755130D01*
X10471000Y-12740130D02*
X10501000Y-12740130D01*
X10487752Y-11875013D02*
X10487752Y-11905013D01*
X10472752Y-11890013D02*
X10502752Y-11890013D01*
X10515625Y-13138125D02*
X10515625Y-13168125D01*
X10500625Y-13153125D02*
X10530625Y-13153125D01*
X10520000Y-10295000D02*
X10520000Y-10325000D01*
X10505000Y-10310000D02*
X10535000Y-10310000D01*
X10520000Y-13515000D02*
X10520000Y-13545000D01*
X10505000Y-13530000D02*
X10535000Y-13530000D01*
X10526380Y-14266720D02*
X10526380Y-14296720D01*
X10511380Y-14281720D02*
X10541380Y-14281720D01*
X10560000Y-10185000D02*
X10560000Y-10215000D01*
X10545000Y-10200000D02*
X10575000Y-10200000D01*
X10560000Y-10365000D02*
X10560000Y-10395000D01*
X10545000Y-10380000D02*
X10575000Y-10380000D01*
X10560000Y-11085000D02*
X10560000Y-11115000D01*
X10545000Y-11100000D02*
X10575000Y-11100000D01*
X10560000Y-11265000D02*
X10560000Y-11295000D01*
X10545000Y-11280000D02*
X10575000Y-11280000D01*
X10560000Y-14145000D02*
X10560000Y-14175000D01*
X10545000Y-14160000D02*
X10575000Y-14160000D01*
X10571875Y-12306875D02*
X10571875Y-12336875D01*
X10556875Y-12321875D02*
X10586875Y-12321875D01*
X10590000Y-10085000D02*
X10590000Y-10115000D01*
X10575000Y-10100000D02*
X10605000Y-10100000D01*
X10603125Y-13231875D02*
X10603125Y-13261875D01*
X10588125Y-13246875D02*
X10618125Y-13246875D01*
X10642749Y-11759809D02*
X10642749Y-11789809D01*
X10627749Y-11774809D02*
X10657749Y-11774809D01*
X10660000Y-10155000D02*
X10660000Y-10185000D01*
X10645000Y-10170000D02*
X10675000Y-10170000D01*
X10660000Y-11065000D02*
X10660000Y-11095000D01*
X10645000Y-11080000D02*
X10675000Y-11080000D01*
X10660000Y-13515000D02*
X10660000Y-13545000D01*
X10645000Y-13530000D02*
X10675000Y-13530000D01*
X10660000Y-14145000D02*
X10660000Y-14175000D01*
X10645000Y-14160000D02*
X10675000Y-14160000D01*
X10660000Y-14425000D02*
X10660000Y-14455000D01*
X10645000Y-14440000D02*
X10675000Y-14440000D01*
X10729607Y-13209852D02*
X10729607Y-13239852D01*
X10714607Y-13224852D02*
X10744607Y-13224852D01*
X10730000Y-10435000D02*
X10730000Y-10465000D01*
X10715000Y-10450000D02*
X10745000Y-10450000D01*
X10740000Y-10185000D02*
X10740000Y-10215000D01*
X10725000Y-10200000D02*
X10755000Y-10200000D01*
X10740000Y-11085000D02*
X10740000Y-11115000D01*
X10725000Y-11100000D02*
X10755000Y-11100000D01*
X10740000Y-11265000D02*
X10740000Y-11295000D01*
X10725000Y-11280000D02*
X10755000Y-11280000D01*
X10740000Y-13065000D02*
X10740000Y-13095000D01*
X10725000Y-13080000D02*
X10755000Y-13080000D01*
X10741570Y-14102540D02*
X10741570Y-14132540D01*
X10726570Y-14117540D02*
X10756570Y-14117540D01*
X10780762Y-10085723D02*
X10780762Y-10115723D01*
X10765762Y-10100723D02*
X10795762Y-10100723D01*
X10786150Y-11830780D02*
X10786150Y-11860780D01*
X10771150Y-11845780D02*
X10801150Y-11845780D01*
X10789939Y-10155434D02*
X10789939Y-10185434D01*
X10774939Y-10170434D02*
X10804939Y-10170434D01*
X10800000Y-11135000D02*
X10800000Y-11165000D01*
X10785000Y-11150000D02*
X10815000Y-11150000D01*
X10800000Y-11555000D02*
X10800000Y-11585000D01*
X10785000Y-11570000D02*
X10815000Y-11570000D01*
X10800000Y-12605000D02*
X10800000Y-12635000D01*
X10785000Y-12620000D02*
X10815000Y-12620000D01*
X10810393Y-13209852D02*
X10810393Y-13239852D01*
X10795393Y-13224852D02*
X10825393Y-13224852D01*
X10829290Y-11888380D02*
X10829290Y-11918380D01*
X10814290Y-11903380D02*
X10844290Y-11903380D01*
X10869383Y-14446217D02*
X10869383Y-14476217D01*
X10854383Y-14461217D02*
X10884383Y-14461217D01*
X10870000Y-10435000D02*
X10870000Y-10465000D01*
X10855000Y-10450000D02*
X10885000Y-10450000D01*
X10870000Y-11065000D02*
X10870000Y-11095000D01*
X10855000Y-11080000D02*
X10885000Y-11080000D01*
X10879720Y-12175100D02*
X10879720Y-12205100D01*
X10864720Y-12190100D02*
X10894720Y-12190100D01*
X10880000Y-12986875D02*
X10880000Y-13016875D01*
X10865000Y-13001875D02*
X10895000Y-13001875D01*
X10880355Y-13470955D02*
X10880355Y-13500955D01*
X10865355Y-13485955D02*
X10895355Y-13485955D01*
X10896320Y-11548770D02*
X10896320Y-11578770D01*
X10881320Y-11563770D02*
X10911320Y-11563770D01*
X10920000Y-10545000D02*
X10920000Y-10575000D01*
X10905000Y-10560000D02*
X10935000Y-10560000D01*
X10920748Y-13400993D02*
X10920748Y-13430993D01*
X10905748Y-13415993D02*
X10935748Y-13415993D01*
X10931737Y-14448756D02*
X10931737Y-14478756D01*
X10916737Y-14463756D02*
X10946737Y-14463756D01*
X10932230Y-11912450D02*
X10932230Y-11942450D01*
X10917230Y-11927450D02*
X10947230Y-11927450D01*
X10949630Y-12058620D02*
X10949630Y-12088620D01*
X10934630Y-12073620D02*
X10964630Y-12073620D01*
X10958700Y-13248110D02*
X10958700Y-13278110D01*
X10943700Y-13263110D02*
X10973700Y-13263110D01*
X10961590Y-11713890D02*
X10961590Y-11743890D01*
X10946590Y-11728890D02*
X10976590Y-11728890D01*
X10962051Y-10162934D02*
X10962051Y-10192934D01*
X10947051Y-10177934D02*
X10977051Y-10177934D01*
X10962360Y-11447250D02*
X10962360Y-11477250D01*
X10947360Y-11462250D02*
X10977360Y-11462250D01*
X10969610Y-14098330D02*
X10969610Y-14128330D01*
X10954610Y-14113330D02*
X10984610Y-14113330D01*
X11001377Y-14439588D02*
X11001377Y-14469588D01*
X10986377Y-14454588D02*
X11016377Y-14454588D01*
X11009375Y-13988125D02*
X11009375Y-14018125D01*
X10994375Y-14003125D02*
X11024375Y-14003125D01*
X11010000Y-10435000D02*
X11010000Y-10465000D01*
X10995000Y-10450000D02*
X11025000Y-10450000D01*
X11010000Y-10575000D02*
X11010000Y-10605000D01*
X10995000Y-10590000D02*
X11025000Y-10590000D01*
X11010000Y-12605000D02*
X11010000Y-12635000D01*
X10995000Y-12620000D02*
X11025000Y-12620000D01*
X11010000Y-14215000D02*
X11010000Y-14245000D01*
X10995000Y-14230000D02*
X11025000Y-14230000D01*
X11014600Y-13588480D02*
X11014600Y-13618480D01*
X10999600Y-13603480D02*
X11029600Y-13603480D01*
X11018790Y-13114540D02*
X11018790Y-13144540D01*
X11003790Y-13129540D02*
X11033790Y-13129540D01*
X11019770Y-12945000D02*
X11019770Y-12975000D01*
X11004770Y-12960000D02*
X11034770Y-12960000D01*
X11044136Y-14383863D02*
X11044136Y-14413863D01*
X11029136Y-14398863D02*
X11059136Y-14398863D01*
X11080000Y-12675000D02*
X11080000Y-12705000D01*
X11065000Y-12690000D02*
X11095000Y-12690000D01*
X11100000Y-10545000D02*
X11100000Y-10575000D01*
X11085000Y-10560000D02*
X11115000Y-10560000D01*
X11100000Y-12525000D02*
X11100000Y-12555000D01*
X11085000Y-12540000D02*
X11115000Y-12540000D01*
X11112350Y-12761110D02*
X11112350Y-12791110D01*
X11097350Y-12776110D02*
X11127350Y-12776110D01*
X11130000Y-13767320D02*
X11130000Y-13797320D01*
X11115000Y-13782320D02*
X11145000Y-13782320D01*
X11138354Y-14061302D02*
X11138354Y-14091302D01*
X11123354Y-14076302D02*
X11153354Y-14076302D01*
X11150000Y-12605000D02*
X11150000Y-12635000D01*
X11135000Y-12620000D02*
X11165000Y-12620000D01*
X11159133Y-13988010D02*
X11159133Y-14018010D01*
X11144133Y-14003010D02*
X11174133Y-14003010D01*
X11161830Y-13493727D02*
X11161830Y-13523727D01*
X11146830Y-13508727D02*
X11176830Y-13508727D01*
X11189490Y-13422631D02*
X11189490Y-13452631D01*
X11174490Y-13437631D02*
X11204490Y-13437631D01*
X11196666Y-14061302D02*
X11196666Y-14091302D01*
X11181666Y-14076302D02*
X11211666Y-14076302D01*
X11220000Y-13935000D02*
X11220000Y-13965000D01*
X11205000Y-13950000D02*
X11235000Y-13950000D01*
X11223370Y-11811120D02*
X11223370Y-11841120D01*
X11208370Y-11826120D02*
X11238370Y-11826120D01*
X11230430Y-12272380D02*
X11230430Y-12302380D01*
X11215430Y-12287380D02*
X11245430Y-12287380D01*
X11234084Y-10648517D02*
X11234084Y-10678517D01*
X11219084Y-10663517D02*
X11249084Y-10663517D01*
X11243070Y-12014820D02*
X11243070Y-12044820D01*
X11228070Y-12029820D02*
X11258070Y-12029820D01*
X11247166Y-14090458D02*
X11247166Y-14120458D01*
X11232166Y-14105458D02*
X11262166Y-14105458D01*
X11252640Y-11368090D02*
X11252640Y-11398090D01*
X11237640Y-11383090D02*
X11267640Y-11383090D01*
X11270500Y-10312660D02*
X11270500Y-10342660D01*
X11255500Y-10327660D02*
X11285500Y-10327660D01*
X11280000Y-10545000D02*
X11280000Y-10575000D01*
X11265000Y-10560000D02*
X11295000Y-10560000D01*
X11280160Y-14170114D02*
X11280160Y-14200114D01*
X11265160Y-14185114D02*
X11295160Y-14185114D01*
X11281110Y-10864080D02*
X11281110Y-10894080D01*
X11266110Y-10879080D02*
X11296110Y-10879080D01*
X11290000Y-10435000D02*
X11290000Y-10465000D01*
X11275000Y-10450000D02*
X11305000Y-10450000D01*
X11290000Y-14355000D02*
X11290000Y-14385000D01*
X11275000Y-14370000D02*
X11305000Y-14370000D01*
X11300720Y-11756020D02*
X11300720Y-11786020D01*
X11285720Y-11771020D02*
X11315720Y-11771020D01*
X11300770Y-12286300D02*
X11300770Y-12316300D01*
X11285770Y-12301300D02*
X11315770Y-12301300D01*
X11314900Y-12377450D02*
X11314900Y-12407450D01*
X11299900Y-12392450D02*
X11329900Y-12392450D01*
X11321695Y-13494076D02*
X11321695Y-13524076D01*
X11306695Y-13509076D02*
X11336695Y-13509076D01*
X11322730Y-10580497D02*
X11322730Y-10610497D01*
X11307730Y-10595497D02*
X11337730Y-10595497D01*
X11330180Y-13988010D02*
X11330180Y-14018010D01*
X11315180Y-14003010D02*
X11345180Y-14003010D01*
X11343660Y-12778610D02*
X11343660Y-12808610D01*
X11328660Y-12793610D02*
X11358660Y-12793610D01*
X11360000Y-13655000D02*
X11360000Y-13685000D01*
X11345000Y-13670000D02*
X11375000Y-13670000D01*
X11360000Y-14425000D02*
X11360000Y-14455000D01*
X11345000Y-14440000D02*
X11375000Y-14440000D01*
X11366359Y-13529500D02*
X11366359Y-13559500D01*
X11351359Y-13544500D02*
X11381359Y-13544500D01*
X11387990Y-11244330D02*
X11387990Y-11274330D01*
X11372990Y-11259330D02*
X11402990Y-11259330D01*
X11388900Y-13224940D02*
X11388900Y-13254940D01*
X11373900Y-13239940D02*
X11403900Y-13239940D01*
X11389440Y-11822180D02*
X11389440Y-11852180D01*
X11374440Y-11837180D02*
X11404440Y-11837180D01*
X11400160Y-12271520D02*
X11400160Y-12301520D01*
X11385160Y-12286520D02*
X11415160Y-12286520D01*
X11404240Y-12042690D02*
X11404240Y-12072690D01*
X11389240Y-12057690D02*
X11419240Y-12057690D01*
X11430000Y-10435000D02*
X11430000Y-10465000D01*
X11415000Y-10450000D02*
X11445000Y-10450000D01*
X11430000Y-11345000D02*
X11430000Y-11375000D01*
X11415000Y-11360000D02*
X11445000Y-11360000D01*
X11430000Y-14355000D02*
X11430000Y-14385000D01*
X11415000Y-14370000D02*
X11445000Y-14370000D01*
X11442310Y-10578250D02*
X11442310Y-10608250D01*
X11427310Y-10593250D02*
X11457310Y-10593250D01*
X11460000Y-11265000D02*
X11460000Y-11295000D01*
X11445000Y-11280000D02*
X11475000Y-11280000D01*
X11460000Y-11445000D02*
X11460000Y-11475000D01*
X11445000Y-11460000D02*
X11475000Y-11460000D01*
X11460000Y-12345000D02*
X11460000Y-12375000D01*
X11445000Y-12360000D02*
X11475000Y-12360000D01*
X11460000Y-13425000D02*
X11460000Y-13455000D01*
X11445000Y-13440000D02*
X11475000Y-13440000D01*
X11500000Y-14425000D02*
X11500000Y-14455000D01*
X11485000Y-14440000D02*
X11515000Y-14440000D01*
X11501470Y-12170210D02*
X11501470Y-12200210D01*
X11486470Y-12185210D02*
X11516470Y-12185210D01*
X11529880Y-14096140D02*
X11529880Y-14126140D01*
X11514880Y-14111140D02*
X11544880Y-14111140D01*
X11570000Y-14355000D02*
X11570000Y-14385000D01*
X11555000Y-14370000D02*
X11585000Y-14370000D01*
X11577560Y-12117860D02*
X11577560Y-12147860D01*
X11562560Y-12132860D02*
X11592560Y-12132860D01*
X11618540Y-12359170D02*
X11618540Y-12389170D01*
X11603540Y-12374170D02*
X11633540Y-12374170D01*
X11620780Y-10709210D02*
X11620780Y-10739210D01*
X11605780Y-10724210D02*
X11635780Y-10724210D01*
X11622000Y-13436630D02*
X11622000Y-13466630D01*
X11607000Y-13451630D02*
X11637000Y-13451630D01*
X11640000Y-10185000D02*
X11640000Y-10215000D01*
X11625000Y-10200000D02*
X11655000Y-10200000D01*
X11640000Y-10545000D02*
X11640000Y-10575000D01*
X11625000Y-10560000D02*
X11655000Y-10560000D01*
X11640000Y-13965000D02*
X11640000Y-13995000D01*
X11625000Y-13980000D02*
X11655000Y-13980000D01*
X11640000Y-14145000D02*
X11640000Y-14175000D01*
X11625000Y-14160000D02*
X11655000Y-14160000D01*
X11640000Y-10085000D02*
X11640000Y-10115000D01*
X11625000Y-10100000D02*
X11655000Y-10100000D01*
X11640000Y-10295000D02*
X11640000Y-10325000D01*
X11625000Y-10310000D02*
X11655000Y-10310000D01*
X11640000Y-14425000D02*
X11640000Y-14455000D01*
X11625000Y-14440000D02*
X11655000Y-14440000D01*
X11670020Y-11614530D02*
X11670020Y-11644530D01*
X11655020Y-11629530D02*
X11685020Y-11629530D01*
X11691120Y-10650390D02*
X11691120Y-10680390D01*
X11676120Y-10665390D02*
X11706120Y-10665390D01*
X11691120Y-10711450D02*
X11691120Y-10741450D01*
X11676120Y-10726450D02*
X11706120Y-10726450D01*
X11705200Y-11398350D02*
X11705200Y-11428350D01*
X11690200Y-11413350D02*
X11720200Y-11413350D01*
X11710000Y-14005000D02*
X11710000Y-14035000D01*
X11695000Y-14020000D02*
X11725000Y-14020000D01*
X11740934Y-13644600D02*
X11740934Y-13674600D01*
X11725934Y-13659600D02*
X11755934Y-13659600D01*
X11748584Y-14386247D02*
X11748584Y-14416247D01*
X11733584Y-14401247D02*
X11763584Y-14401247D01*
X11757752Y-14455886D02*
X11757752Y-14485886D01*
X11742752Y-14470886D02*
X11772752Y-14470886D01*
X11768467Y-13701816D02*
X11768467Y-13731816D01*
X11753467Y-13716816D02*
X11783467Y-13716816D01*
X11769360Y-11433670D02*
X11769360Y-11463670D01*
X11754360Y-11448670D02*
X11784360Y-11448670D01*
X11771875Y-13494375D02*
X11771875Y-13524375D01*
X11756875Y-13509375D02*
X11786875Y-13509375D01*
X11776850Y-12943110D02*
X11776850Y-12973110D01*
X11761850Y-12958110D02*
X11791850Y-12958110D01*
X11780000Y-14075000D02*
X11780000Y-14105000D01*
X11765000Y-14090000D02*
X11795000Y-14090000D01*
X11809570Y-10862030D02*
X11809570Y-10892030D01*
X11794570Y-10877030D02*
X11824570Y-10877030D01*
X11813477Y-14498646D02*
X11813477Y-14528646D01*
X11798477Y-14513646D02*
X11828477Y-14513646D01*
X11820000Y-10725000D02*
X11820000Y-10755000D01*
X11805000Y-10740000D02*
X11835000Y-10740000D01*
X11820000Y-14145000D02*
X11820000Y-14175000D01*
X11805000Y-14160000D02*
X11835000Y-14160000D01*
X11831252Y-13684993D02*
X11831252Y-13714993D01*
X11816252Y-13699993D02*
X11846252Y-13699993D01*
X11832777Y-12097481D02*
X11832777Y-12127481D01*
X11817777Y-12112481D02*
X11847777Y-12112481D01*
X11840010Y-11169680D02*
X11840010Y-11199680D01*
X11825010Y-11184680D02*
X11855010Y-11184680D01*
X11846875Y-13525625D02*
X11846875Y-13555625D01*
X11831875Y-13540625D02*
X11861875Y-13540625D01*
X11852600Y-13155090D02*
X11852600Y-13185090D01*
X11837600Y-13170090D02*
X11867600Y-13170090D01*
X11859200Y-12989220D02*
X11859200Y-13019220D01*
X11844200Y-13004220D02*
X11874200Y-13004220D01*
X11883116Y-14489478D02*
X11883116Y-14519478D01*
X11868116Y-14504478D02*
X11898116Y-14504478D01*
X11883550Y-11321480D02*
X11883550Y-11351480D01*
X11868550Y-11336480D02*
X11898550Y-11336480D01*
X11900180Y-10720380D02*
X11900180Y-10750380D01*
X11885180Y-10735380D02*
X11915180Y-10735380D01*
X11934375Y-14406875D02*
X11934375Y-14436875D01*
X11919375Y-14421875D02*
X11949375Y-14421875D01*
X11965000Y-10685000D02*
X11965000Y-10715000D01*
X11950000Y-10700000D02*
X11980000Y-10700000D01*
X11978030Y-12800200D02*
X11978030Y-12830200D01*
X11963030Y-12815200D02*
X11993030Y-12815200D01*
X12000000Y-11445000D02*
X12000000Y-11475000D01*
X11985000Y-11460000D02*
X12015000Y-11460000D01*
X12000000Y-11805000D02*
X12000000Y-11835000D01*
X11985000Y-11820000D02*
X12015000Y-11820000D01*
X12000000Y-14145000D02*
X12000000Y-14175000D01*
X11985000Y-14160000D02*
X12015000Y-14160000D01*
X12002660Y-12364090D02*
X12002660Y-12394090D01*
X11987660Y-12379090D02*
X12017660Y-12379090D01*
X12008100Y-14350010D02*
X12008100Y-14380010D01*
X11993100Y-14365010D02*
X12023100Y-14365010D01*
X12052110Y-12754170D02*
X12052110Y-12784170D01*
X12037110Y-12769170D02*
X12067110Y-12769170D01*
X12055930Y-13882480D02*
X12055930Y-13912480D01*
X12040930Y-13897480D02*
X12070930Y-13897480D01*
X12060000Y-13515000D02*
X12060000Y-13545000D01*
X12045000Y-13530000D02*
X12075000Y-13530000D01*
X12060000Y-14075000D02*
X12060000Y-14105000D01*
X12045000Y-14090000D02*
X12075000Y-14090000D01*
X12060740Y-10687800D02*
X12060740Y-10717800D01*
X12045740Y-10702800D02*
X12075740Y-10702800D01*
X12074580Y-13383040D02*
X12074580Y-13413040D01*
X12059580Y-13398040D02*
X12089580Y-13398040D01*
X12076990Y-13011620D02*
X12076990Y-13041620D01*
X12061990Y-13026620D02*
X12091990Y-13026620D01*
X12078125Y-11475625D02*
X12078125Y-11505625D01*
X12063125Y-11490625D02*
X12093125Y-11490625D01*
X12085770Y-13083900D02*
X12085770Y-13113900D01*
X12070770Y-13098900D02*
X12100770Y-13098900D01*
X12106610Y-10492910D02*
X12106610Y-10522910D01*
X12091610Y-10507910D02*
X12121610Y-10507910D01*
X12119990Y-14472756D02*
X12119990Y-14502756D01*
X12104990Y-14487756D02*
X12134990Y-14487756D01*
X12173248Y-13165135D02*
X12173248Y-13195135D01*
X12158248Y-13180135D02*
X12188248Y-13180135D01*
X12176180Y-11356520D02*
X12176180Y-11386520D01*
X12161180Y-11371520D02*
X12191180Y-11371520D01*
X12176315Y-14457664D02*
X12176315Y-14487664D01*
X12161315Y-14472664D02*
X12191315Y-14472664D01*
X12181560Y-10795020D02*
X12181560Y-10825020D01*
X12166560Y-10810020D02*
X12196560Y-10810020D01*
X12200000Y-10485000D02*
X12200000Y-10515000D01*
X12185000Y-10500000D02*
X12215000Y-10500000D01*
X12200590Y-12352940D02*
X12200590Y-12382940D01*
X12185590Y-12367940D02*
X12215590Y-12367940D01*
X12206600Y-11257020D02*
X12206600Y-11287020D01*
X12191600Y-11272020D02*
X12221600Y-11272020D01*
X12209490Y-12799660D02*
X12209490Y-12829660D01*
X12194490Y-12814660D02*
X12224490Y-12814660D01*
X12215625Y-12019375D02*
X12215625Y-12049375D01*
X12200625Y-12034375D02*
X12230625Y-12034375D01*
X12217547Y-14416431D02*
X12217547Y-14446431D01*
X12202547Y-14431431D02*
X12232547Y-14431431D01*
X12232640Y-14360106D02*
X12232640Y-14390106D01*
X12217640Y-14375106D02*
X12247640Y-14375106D01*
X12245000Y-13531875D02*
X12245000Y-13561875D01*
X12230000Y-13546875D02*
X12260000Y-13546875D01*
X12245780Y-11815500D02*
X12245780Y-11845500D01*
X12230780Y-11830500D02*
X12260780Y-11830500D01*
X12257085Y-13229465D02*
X12257085Y-13259465D01*
X12242085Y-13244465D02*
X12272085Y-13244465D01*
X12270980Y-12371070D02*
X12270980Y-12401070D01*
X12255980Y-12386070D02*
X12285980Y-12386070D01*
X12278125Y-10456875D02*
X12278125Y-10486875D01*
X12263125Y-10471875D02*
X12293125Y-10471875D01*
X12291310Y-11738040D02*
X12291310Y-11768040D01*
X12276310Y-11753040D02*
X12306310Y-11753040D01*
X12300355Y-14439762D02*
X12300355Y-14469762D01*
X12285355Y-14454762D02*
X12315355Y-14454762D01*
X12301763Y-12817244D02*
X12301763Y-12847244D01*
X12286763Y-12832244D02*
X12316763Y-12832244D01*
X12309375Y-10688125D02*
X12309375Y-10718125D01*
X12294375Y-10703125D02*
X12324375Y-10703125D01*
X12314769Y-14052019D02*
X12314769Y-14082019D01*
X12299769Y-14067019D02*
X12329769Y-14067019D01*
X12342160Y-12376390D02*
X12342160Y-12406390D01*
X12327160Y-12391390D02*
X12357160Y-12391390D01*
X12344424Y-14000655D02*
X12344424Y-14030655D01*
X12329424Y-14015655D02*
X12359424Y-14015655D01*
X12350854Y-14468917D02*
X12350854Y-14498917D01*
X12335854Y-14483917D02*
X12365854Y-14483917D01*
X12359470Y-11523920D02*
X12359470Y-11553920D01*
X12344470Y-11538920D02*
X12374470Y-11538920D01*
X12409166Y-14061302D02*
X12409166Y-14091302D01*
X12394166Y-14076302D02*
X12424166Y-14076302D01*
X12409166Y-14468917D02*
X12409166Y-14498917D01*
X12394166Y-14483917D02*
X12424166Y-14483917D01*
X12423250Y-13223840D02*
X12423250Y-13253840D01*
X12408250Y-13238840D02*
X12438250Y-13238840D01*
X12435510Y-11531140D02*
X12435510Y-11561140D01*
X12420510Y-11546140D02*
X12450510Y-11546140D01*
X12437960Y-12008020D02*
X12437960Y-12038020D01*
X12422960Y-12023020D02*
X12452960Y-12023020D01*
X12443950Y-12085310D02*
X12443950Y-12115310D01*
X12428950Y-12100310D02*
X12458950Y-12100310D01*
X12444270Y-12260010D02*
X12444270Y-12290010D01*
X12429270Y-12275010D02*
X12459270Y-12275010D01*
X12447000Y-13623260D02*
X12447000Y-13653260D01*
X12432000Y-13638260D02*
X12462000Y-13638260D01*
X12448920Y-11443340D02*
X12448920Y-11473340D01*
X12433920Y-11458340D02*
X12463920Y-11458340D01*
X12459666Y-14439762D02*
X12459666Y-14469762D01*
X12444666Y-14454762D02*
X12474666Y-14454762D01*
X12477707Y-13024180D02*
X12477707Y-13054180D01*
X12462707Y-13039180D02*
X12492707Y-13039180D01*
X12497240Y-14075330D02*
X12497240Y-14105330D01*
X12482240Y-14090330D02*
X12512240Y-14090330D01*
X12500000Y-10045000D02*
X12500000Y-10075000D01*
X12485000Y-10060000D02*
X12515000Y-10060000D01*
X12500000Y-10725000D02*
X12500000Y-10755000D01*
X12485000Y-10740000D02*
X12515000Y-10740000D01*
X12524800Y-12574560D02*
X12524800Y-12604560D01*
X12509800Y-12589560D02*
X12539800Y-12589560D01*
X12540000Y-13965000D02*
X12540000Y-13995000D01*
X12525000Y-13980000D02*
X12555000Y-13980000D01*
X12550000Y-13725000D02*
X12550000Y-13755000D01*
X12535000Y-13740000D02*
X12565000Y-13740000D01*
X12554030Y-12665080D02*
X12554030Y-12695080D01*
X12539030Y-12680080D02*
X12569030Y-12680080D01*
X12560630Y-13813810D02*
X12560630Y-13843810D01*
X12545630Y-13828810D02*
X12575630Y-13828810D01*
X12565625Y-13225625D02*
X12565625Y-13255625D01*
X12550625Y-13240625D02*
X12580625Y-13240625D01*
X12567033Y-13521738D02*
X12567033Y-13551738D01*
X12552033Y-13536738D02*
X12582033Y-13536738D01*
X12575250Y-12770740D02*
X12575250Y-12800740D01*
X12560250Y-12785740D02*
X12590250Y-12785740D01*
X12579960Y-10774590D02*
X12579960Y-10804590D01*
X12564960Y-10789590D02*
X12594960Y-10789590D01*
X12580000Y-10565000D02*
X12580000Y-10595000D01*
X12565000Y-10580000D02*
X12595000Y-10580000D01*
X12581920Y-13031970D02*
X12581920Y-13061970D01*
X12566920Y-13046970D02*
X12596920Y-13046970D01*
X12583065Y-14016078D02*
X12583065Y-14046078D01*
X12568065Y-14031078D02*
X12598065Y-14031078D01*
X12607150Y-13387550D02*
X12607150Y-13417550D01*
X12592150Y-13402550D02*
X12622150Y-13402550D01*
X12620000Y-10045000D02*
X12620000Y-10075000D01*
X12605000Y-10060000D02*
X12635000Y-10060000D01*
X12620000Y-10165000D02*
X12620000Y-10195000D01*
X12605000Y-10180000D02*
X12635000Y-10180000D01*
X12646500Y-12440090D02*
X12646500Y-12470090D01*
X12631500Y-12455090D02*
X12661500Y-12455090D01*
X12652560Y-13549300D02*
X12652560Y-13579300D01*
X12637560Y-13564300D02*
X12667560Y-13564300D01*
X12675410Y-10879470D02*
X12675410Y-10909470D01*
X12660410Y-10894470D02*
X12690410Y-10894470D01*
X12675680Y-13623660D02*
X12675680Y-13653660D01*
X12660680Y-13638660D02*
X12690680Y-13638660D01*
X12713350Y-11221750D02*
X12713350Y-11251750D01*
X12698350Y-11236750D02*
X12728350Y-11236750D01*
X12713370Y-11498590D02*
X12713370Y-11528590D01*
X12698370Y-11513590D02*
X12728370Y-11513590D01*
X12713830Y-11968430D02*
X12713830Y-11998430D01*
X12698830Y-11983430D02*
X12728830Y-11983430D01*
X12727300Y-12567750D02*
X12727300Y-12597750D01*
X12712300Y-12582750D02*
X12742300Y-12582750D01*
X12740000Y-10045000D02*
X12740000Y-10075000D01*
X12725000Y-10060000D02*
X12755000Y-10060000D01*
X12740000Y-10165000D02*
X12740000Y-10195000D01*
X12725000Y-10180000D02*
X12755000Y-10180000D01*
X12743369Y-14134610D02*
X12743369Y-14164610D01*
X12728369Y-14149610D02*
X12758369Y-14149610D01*
X12749590Y-11330460D02*
X12749590Y-11360460D01*
X12734590Y-11345460D02*
X12764590Y-11345460D01*
X12785625Y-11717000D02*
X12785625Y-11747000D01*
X12770625Y-11732000D02*
X12800625Y-11732000D01*
X12808369Y-14134610D02*
X12808369Y-14164610D01*
X12793369Y-14149610D02*
X12823369Y-14149610D01*
X12820000Y-10285000D02*
X12820000Y-10315000D01*
X12805000Y-10300000D02*
X12835000Y-10300000D01*
X12833770Y-12800520D02*
X12833770Y-12830520D01*
X12818770Y-12815520D02*
X12848770Y-12815520D01*
X12840625Y-13050625D02*
X12840625Y-13080625D01*
X12825625Y-13065625D02*
X12855625Y-13065625D01*
X12840625Y-13444375D02*
X12840625Y-13474375D01*
X12825625Y-13459375D02*
X12855625Y-13459375D01*
X12843400Y-13765190D02*
X12843400Y-13795190D01*
X12828400Y-13780190D02*
X12858400Y-13780190D01*
X12846875Y-11343125D02*
X12846875Y-11373125D01*
X12831875Y-11358125D02*
X12861875Y-11358125D01*
X12878125Y-12444375D02*
X12878125Y-12474375D01*
X12863125Y-12459375D02*
X12893125Y-12459375D01*
X12878182Y-14078927D02*
X12878182Y-14108927D01*
X12863182Y-14093927D02*
X12893182Y-14093927D01*
X12878369Y-14134610D02*
X12878369Y-14164610D01*
X12863369Y-14149610D02*
X12893369Y-14149610D01*
X12886500Y-11453910D02*
X12886500Y-11483910D01*
X12871500Y-11468910D02*
X12901500Y-11468910D01*
X12900000Y-14325000D02*
X12900000Y-14355000D01*
X12885000Y-14340000D02*
X12915000Y-14340000D01*
X12900000Y-10045000D02*
X12900000Y-10075000D01*
X12885000Y-10060000D02*
X12915000Y-10060000D01*
X12900000Y-10165000D02*
X12900000Y-10195000D01*
X12885000Y-10180000D02*
X12915000Y-10180000D01*
X12900000Y-13515000D02*
X12900000Y-13545000D01*
X12885000Y-13530000D02*
X12915000Y-13530000D01*
X12904000Y-11073000D02*
X12904000Y-11103000D01*
X12889000Y-11088000D02*
X12919000Y-11088000D01*
X12944375Y-12128125D02*
X12944375Y-12158125D01*
X12929375Y-12143125D02*
X12959375Y-12143125D01*
X12951250Y-12561640D02*
X12951250Y-12591640D01*
X12936250Y-12576640D02*
X12966250Y-12576640D01*
X12952875Y-14122051D02*
X12952875Y-14152051D01*
X12937875Y-14137051D02*
X12967875Y-14137051D01*
X12970000Y-14355000D02*
X12970000Y-14385000D01*
X12955000Y-14370000D02*
X12985000Y-14370000D01*
X12995999Y-14157729D02*
X12995999Y-14187729D01*
X12980999Y-14172729D02*
X13010999Y-14172729D01*
X13011148Y-13676607D02*
X13011148Y-13706607D01*
X12996148Y-13691607D02*
X13026148Y-13691607D01*
X13015630Y-11682425D02*
X13015630Y-11712425D01*
X13000630Y-11697425D02*
X13030630Y-11697425D01*
X13020000Y-10325000D02*
X13020000Y-10355000D01*
X13005000Y-10340000D02*
X13035000Y-10340000D01*
X13039124Y-14122051D02*
X13039124Y-14152051D01*
X13024124Y-14137051D02*
X13054124Y-14137051D01*
X13040000Y-14425000D02*
X13040000Y-14455000D01*
X13025000Y-14440000D02*
X13055000Y-14440000D01*
X13040567Y-13157257D02*
X13040567Y-13187257D01*
X13025567Y-13172257D02*
X13055567Y-13172257D01*
X13060000Y-10045000D02*
X13060000Y-10075000D01*
X13045000Y-10060000D02*
X13075000Y-10060000D01*
X13061407Y-12777907D02*
X13061407Y-12807907D01*
X13046407Y-12792907D02*
X13076407Y-12792907D01*
X13064274Y-13690842D02*
X13064274Y-13720842D01*
X13049274Y-13705842D02*
X13079274Y-13705842D01*
X13080000Y-10185000D02*
X13080000Y-10215000D01*
X13065000Y-10200000D02*
X13095000Y-10200000D01*
X13080000Y-13245000D02*
X13080000Y-13275000D01*
X13065000Y-13260000D02*
X13095000Y-13260000D01*
X13080000Y-13605000D02*
X13080000Y-13635000D01*
X13065000Y-13620000D02*
X13095000Y-13620000D01*
X13080625Y-10262000D02*
X13080625Y-10292000D01*
X13065625Y-10277000D02*
X13095625Y-10277000D01*
X13110000Y-13445000D02*
X13110000Y-13475000D01*
X13095000Y-13460000D02*
X13125000Y-13460000D01*
X13119144Y-13062027D02*
X13119144Y-13092027D01*
X13104144Y-13077027D02*
X13134144Y-13077027D01*
X13126530Y-12751640D02*
X13126530Y-12781640D01*
X13111530Y-12766640D02*
X13141530Y-12766640D01*
X13130060Y-12018660D02*
X13130060Y-12048660D01*
X13115060Y-12033660D02*
X13145060Y-12033660D01*
X13140000Y-10325000D02*
X13140000Y-10355000D01*
X13125000Y-10340000D02*
X13155000Y-10340000D01*
X13142571Y-13739000D02*
X13142571Y-13769000D01*
X13127571Y-13754000D02*
X13157571Y-13754000D01*
X13146360Y-11587550D02*
X13146360Y-11617550D01*
X13131360Y-11602550D02*
X13161360Y-11602550D01*
X13161510Y-13906870D02*
X13161510Y-13936870D01*
X13146510Y-13921870D02*
X13176510Y-13921870D01*
X13167410Y-11721860D02*
X13167410Y-11751860D01*
X13152410Y-11736860D02*
X13182410Y-11736860D01*
X13180000Y-10045000D02*
X13180000Y-10075000D01*
X13165000Y-10060000D02*
X13195000Y-10060000D01*
X13180000Y-13515000D02*
X13180000Y-13545000D01*
X13165000Y-13530000D02*
X13195000Y-13530000D01*
X13180000Y-14145000D02*
X13180000Y-14175000D01*
X13165000Y-14160000D02*
X13195000Y-14160000D01*
X13190625Y-13175625D02*
X13190625Y-13205625D01*
X13175625Y-13190625D02*
X13205625Y-13190625D01*
X13196771Y-13012364D02*
X13196771Y-13042364D01*
X13181771Y-13027364D02*
X13211771Y-13027364D01*
X13196875Y-12599375D02*
X13196875Y-12629375D01*
X13181875Y-12614375D02*
X13211875Y-12614375D01*
X13215000Y-11194090D02*
X13215000Y-11224090D01*
X13200000Y-11209090D02*
X13230000Y-11209090D01*
X13220000Y-10165000D02*
X13220000Y-10195000D01*
X13205000Y-10180000D02*
X13235000Y-10180000D01*
X13225000Y-12013000D02*
X13225000Y-12043000D01*
X13210000Y-12028000D02*
X13240000Y-12028000D01*
X13226875Y-10968000D02*
X13226875Y-10998000D01*
X13211875Y-10983000D02*
X13241875Y-10983000D01*
X13239556Y-12427764D02*
X13239556Y-12457764D01*
X13224556Y-12442764D02*
X13254556Y-12442764D01*
X13244000Y-13739000D02*
X13244000Y-13769000D01*
X13229000Y-13754000D02*
X13259000Y-13754000D01*
X13250000Y-13445000D02*
X13250000Y-13475000D01*
X13235000Y-13460000D02*
X13265000Y-13460000D01*
X13250000Y-14425000D02*
X13250000Y-14455000D01*
X13235000Y-14440000D02*
X13265000Y-14440000D01*
X13254860Y-12725550D02*
X13254860Y-12755550D01*
X13239860Y-12740550D02*
X13269860Y-12740550D01*
X13260000Y-13065000D02*
X13260000Y-13095000D01*
X13245000Y-13080000D02*
X13275000Y-13080000D01*
X13260000Y-13245000D02*
X13260000Y-13275000D01*
X13245000Y-13260000D02*
X13275000Y-13260000D01*
X13271875Y-12150625D02*
X13271875Y-12180625D01*
X13256875Y-12165625D02*
X13286875Y-12165625D01*
X13274000Y-10786000D02*
X13274000Y-10816000D01*
X13259000Y-10801000D02*
X13289000Y-10801000D01*
X13284375Y-11288125D02*
X13284375Y-11318125D01*
X13269375Y-11303125D02*
X13299375Y-11303125D01*
X13285000Y-13341875D02*
X13285000Y-13371875D01*
X13270000Y-13356875D02*
X13300000Y-13356875D01*
X13294590Y-11195270D02*
X13294590Y-11225270D01*
X13279590Y-11210270D02*
X13309590Y-11210270D01*
X13299790Y-14218620D02*
X13299790Y-14248620D01*
X13284790Y-14233620D02*
X13314790Y-14233620D01*
X13303125Y-13175625D02*
X13303125Y-13205625D01*
X13288125Y-13190625D02*
X13318125Y-13190625D01*
X13312890Y-13855410D02*
X13312890Y-13885410D01*
X13297890Y-13870410D02*
X13327890Y-13870410D01*
X13320000Y-11555000D02*
X13320000Y-11585000D01*
X13305000Y-11570000D02*
X13335000Y-11570000D01*
X13320000Y-13515000D02*
X13320000Y-13545000D01*
X13305000Y-13530000D02*
X13335000Y-13530000D01*
X13327470Y-11914950D02*
X13327470Y-11944950D01*
X13312470Y-11929950D02*
X13342470Y-11929950D01*
X13340000Y-10045000D02*
X13340000Y-10075000D01*
X13325000Y-10060000D02*
X13355000Y-10060000D01*
X13340000Y-10165000D02*
X13340000Y-10195000D01*
X13325000Y-10180000D02*
X13355000Y-10180000D01*
X13346875Y-13250625D02*
X13346875Y-13280625D01*
X13331875Y-13265625D02*
X13361875Y-13265625D01*
X13351490Y-12369300D02*
X13351490Y-12399300D01*
X13336490Y-12384300D02*
X13366490Y-12384300D01*
X13380000Y-10325000D02*
X13380000Y-10355000D01*
X13365000Y-10340000D02*
X13395000Y-10340000D01*
X13384375Y-13175625D02*
X13384375Y-13205625D01*
X13369375Y-13190625D02*
X13399375Y-13190625D01*
X13397570Y-12725320D02*
X13397570Y-12755320D01*
X13382570Y-12740320D02*
X13412570Y-12740320D01*
X13440000Y-10858000D02*
X13440000Y-10888000D01*
X13425000Y-10873000D02*
X13455000Y-10873000D01*
X13440000Y-13065000D02*
X13440000Y-13095000D01*
X13425000Y-13080000D02*
X13455000Y-13080000D01*
X13440000Y-13245000D02*
X13440000Y-13275000D01*
X13425000Y-13260000D02*
X13455000Y-13260000D01*
X13445510Y-14046934D02*
X13445510Y-14076934D01*
X13430510Y-14061934D02*
X13460510Y-14061934D01*
X13470010Y-13877570D02*
X13470010Y-13907570D01*
X13455010Y-13892570D02*
X13485010Y-13892570D01*
X13478125Y-12706875D02*
X13478125Y-12736875D01*
X13463125Y-12721875D02*
X13493125Y-12721875D01*
X13484375Y-13175625D02*
X13484375Y-13205625D01*
X13469375Y-13190625D02*
X13499375Y-13190625D01*
X13496780Y-11768430D02*
X13496780Y-11798430D01*
X13481780Y-11783430D02*
X13511780Y-11783430D01*
X13500000Y-10045000D02*
X13500000Y-10075000D01*
X13485000Y-10060000D02*
X13515000Y-10060000D01*
X13515780Y-14351600D02*
X13515780Y-14381600D01*
X13500780Y-14366600D02*
X13530780Y-14366600D01*
X13530000Y-13445000D02*
X13530000Y-13475000D01*
X13515000Y-13460000D02*
X13545000Y-13460000D01*
X13555865Y-14092645D02*
X13555865Y-14122645D01*
X13540865Y-14107645D02*
X13570865Y-14107645D01*
X13600000Y-13165000D02*
X13600000Y-13195000D01*
X13585000Y-13180000D02*
X13615000Y-13180000D01*
X13600000Y-13515000D02*
X13600000Y-13545000D01*
X13585000Y-13530000D02*
X13615000Y-13530000D01*
X13600000Y-14355000D02*
X13600000Y-14385000D01*
X13585000Y-14370000D02*
X13615000Y-14370000D01*
X13601576Y-14203000D02*
X13601576Y-14233000D01*
X13586576Y-14218000D02*
X13616576Y-14218000D01*
X13609375Y-12319375D02*
X13609375Y-12349375D01*
X13594375Y-12334375D02*
X13624375Y-12334375D01*
X13616106Y-12529494D02*
X13616106Y-12559494D01*
X13601106Y-12544494D02*
X13631106Y-12544494D01*
X13620000Y-13065000D02*
X13620000Y-13095000D01*
X13605000Y-13080000D02*
X13635000Y-13080000D01*
X13633570Y-12227850D02*
X13633570Y-12257850D01*
X13618570Y-12242850D02*
X13648570Y-12242850D01*
X13639110Y-11912110D02*
X13639110Y-11942110D01*
X13624110Y-11927110D02*
X13654110Y-11927110D01*
X13670000Y-13445000D02*
X13670000Y-13475000D01*
X13655000Y-13460000D02*
X13685000Y-13460000D01*
X13687113Y-12522492D02*
X13687113Y-12552492D01*
X13672113Y-12537492D02*
X13702113Y-12537492D01*
X13687113Y-12681448D02*
X13687113Y-12711448D01*
X13672113Y-12696448D02*
X13702113Y-12696448D01*
X13691590Y-11864140D02*
X13691590Y-11894140D01*
X13676590Y-11879140D02*
X13706590Y-11879140D01*
X13707925Y-13011354D02*
X13707925Y-13041354D01*
X13692925Y-13026354D02*
X13722925Y-13026354D01*
X13740000Y-10295000D02*
X13740000Y-10325000D01*
X13725000Y-10310000D02*
X13755000Y-10310000D01*
X13740000Y-10435000D02*
X13740000Y-10465000D01*
X13725000Y-10450000D02*
X13755000Y-10450000D01*
X13740000Y-13515000D02*
X13740000Y-13545000D01*
X13725000Y-13530000D02*
X13755000Y-13530000D01*
X13751490Y-12334300D02*
X13751490Y-12364300D01*
X13736490Y-12349300D02*
X13766490Y-12349300D01*
X13755000Y-14266700D02*
X13755000Y-14296700D01*
X13740000Y-14281700D02*
X13770000Y-14281700D01*
X13756700Y-12712540D02*
X13756700Y-12742540D01*
X13741700Y-12727540D02*
X13771700Y-12727540D01*
X13760878Y-12536836D02*
X13760878Y-12566836D01*
X13745878Y-12551836D02*
X13775878Y-12551836D01*
X13785494Y-13017139D02*
X13785494Y-13047139D01*
X13770494Y-13032139D02*
X13800494Y-13032139D01*
X13800000Y-10185000D02*
X13800000Y-10215000D01*
X13785000Y-10200000D02*
X13815000Y-10200000D01*
X13800000Y-10365000D02*
X13800000Y-10395000D01*
X13785000Y-10380000D02*
X13815000Y-10380000D01*
X13800000Y-14145000D02*
X13800000Y-14175000D01*
X13785000Y-14160000D02*
X13815000Y-14160000D01*
X13809300Y-11249860D02*
X13809300Y-11279860D01*
X13794300Y-11264860D02*
X13824300Y-11264860D01*
X13810000Y-10085000D02*
X13810000Y-10115000D01*
X13795000Y-10100000D02*
X13825000Y-10100000D01*
X13810000Y-13445000D02*
X13810000Y-13475000D01*
X13795000Y-13460000D02*
X13825000Y-13460000D01*
X13810040Y-11584370D02*
X13810040Y-11614370D01*
X13795040Y-11599370D02*
X13825040Y-11599370D01*
X13815000Y-12590380D02*
X13815000Y-12620380D01*
X13800000Y-12605380D02*
X13830000Y-12605380D01*
X13862762Y-14423393D02*
X13862762Y-14453393D01*
X13847762Y-14438393D02*
X13877762Y-14438393D01*
X13878066Y-13270010D02*
X13878066Y-13300010D01*
X13863066Y-13285010D02*
X13893066Y-13285010D01*
X13880000Y-10155000D02*
X13880000Y-10185000D01*
X13865000Y-10170000D02*
X13895000Y-10170000D01*
X13880000Y-10295000D02*
X13880000Y-10325000D01*
X13865000Y-10310000D02*
X13895000Y-10310000D01*
X13880000Y-10435000D02*
X13880000Y-10465000D01*
X13865000Y-10450000D02*
X13895000Y-10450000D01*
X13880000Y-13515000D02*
X13880000Y-13545000D01*
X13865000Y-13530000D02*
X13895000Y-13530000D01*
X13880000Y-14145000D02*
X13880000Y-14175000D01*
X13865000Y-14160000D02*
X13895000Y-14160000D01*
X13880000Y-14285000D02*
X13880000Y-14315000D01*
X13865000Y-14300000D02*
X13895000Y-14300000D01*
X13883138Y-13176977D02*
X13883138Y-13206977D01*
X13868138Y-13191977D02*
X13898138Y-13191977D01*
X13884587Y-12777907D02*
X13884587Y-12807907D01*
X13869587Y-12792907D02*
X13899587Y-12792907D01*
X13891130Y-12507597D02*
X13891130Y-12537597D01*
X13876130Y-12522597D02*
X13906130Y-12522597D01*
X13906893Y-12688077D02*
X13906893Y-12718077D01*
X13891893Y-12703077D02*
X13921893Y-12703077D01*
X13925633Y-12877000D02*
X13925633Y-12907000D01*
X13910633Y-12892000D02*
X13940633Y-12892000D01*
X13940000Y-10965000D02*
X13940000Y-10995000D01*
X13925000Y-10980000D02*
X13955000Y-10980000D01*
X13945000Y-12412030D02*
X13945000Y-12442030D01*
X13930000Y-12427030D02*
X13960000Y-12427030D01*
X13950000Y-10085000D02*
X13950000Y-10115000D01*
X13935000Y-10100000D02*
X13965000Y-10100000D01*
X13950000Y-13445000D02*
X13950000Y-13475000D01*
X13935000Y-13460000D02*
X13965000Y-13460000D01*
X13950000Y-14215000D02*
X13950000Y-14245000D01*
X13935000Y-14230000D02*
X13965000Y-14230000D01*
X13950999Y-12009128D02*
X13950999Y-12039128D01*
X13935999Y-12024128D02*
X13965999Y-12024128D01*
X13959375Y-13000625D02*
X13959375Y-13030625D01*
X13944375Y-13015625D02*
X13974375Y-13015625D01*
X13980000Y-10185000D02*
X13980000Y-10215000D01*
X13965000Y-10200000D02*
X13995000Y-10200000D01*
X13980000Y-10365000D02*
X13980000Y-10395000D01*
X13965000Y-10380000D02*
X13995000Y-10380000D01*
X13980000Y-10545000D02*
X13980000Y-10575000D01*
X13965000Y-10560000D02*
X13995000Y-10560000D01*
X13980000Y-12705000D02*
X13980000Y-12735000D01*
X13965000Y-12720000D02*
X13995000Y-12720000D01*
X13980000Y-14145000D02*
X13980000Y-14175000D01*
X13965000Y-14160000D02*
X13995000Y-14160000D01*
X13992500Y-12314837D02*
X13992500Y-12344837D01*
X13977500Y-12329837D02*
X14007500Y-12329837D01*
X14008820Y-11226710D02*
X14008820Y-11256710D01*
X13993820Y-11241710D02*
X14023820Y-11241710D01*
X14013510Y-14383000D02*
X14013510Y-14413000D01*
X13998510Y-14398000D02*
X14028510Y-14398000D01*
X14020000Y-10295000D02*
X14020000Y-10325000D01*
X14005000Y-10310000D02*
X14035000Y-10310000D01*
X14020000Y-10435000D02*
X14020000Y-10465000D01*
X14005000Y-10450000D02*
X14035000Y-10450000D01*
X14020000Y-13515000D02*
X14020000Y-13545000D01*
X14005000Y-13530000D02*
X14035000Y-13530000D01*
X14020160Y-11107080D02*
X14020160Y-11137080D01*
X14005160Y-11122080D02*
X14035160Y-11122080D01*
X14021875Y-12938125D02*
X14021875Y-12968125D01*
X14006875Y-12953125D02*
X14036875Y-12953125D01*
X14036893Y-12372596D02*
X14036893Y-12402596D01*
X14021893Y-12387596D02*
X14051893Y-12387596D01*
X14040130Y-11919996D02*
X14040130Y-11949996D01*
X14025130Y-11934996D02*
X14055130Y-11934996D01*
X14046180Y-12018580D02*
X14046180Y-12048580D01*
X14031180Y-12033580D02*
X14061180Y-12033580D01*
X14048747Y-11830750D02*
X14048747Y-11860750D01*
X14033747Y-11845750D02*
X14063747Y-11845750D01*
X14054538Y-12441383D02*
X14054538Y-12471383D01*
X14039538Y-12456383D02*
X14069538Y-12456383D01*
X14057893Y-12666863D02*
X14057893Y-12696863D01*
X14042893Y-12681863D02*
X14072893Y-12681863D01*
X14082180Y-12491234D02*
X14082180Y-12521234D01*
X14067180Y-12506234D02*
X14097180Y-12506234D01*
X14084773Y-12601970D02*
X14084773Y-12631970D01*
X14069773Y-12616970D02*
X14099773Y-12616970D01*
X14090000Y-10085000D02*
X14090000Y-10115000D01*
X14075000Y-10100000D02*
X14105000Y-10100000D01*
X14090000Y-10225000D02*
X14090000Y-10255000D01*
X14075000Y-10240000D02*
X14105000Y-10240000D01*
X14090000Y-10505000D02*
X14090000Y-10535000D01*
X14075000Y-10520000D02*
X14105000Y-10520000D01*
X14090000Y-10645000D02*
X14090000Y-10675000D01*
X14075000Y-10660000D02*
X14105000Y-10660000D01*
X14090000Y-10785000D02*
X14090000Y-10815000D01*
X14075000Y-10800000D02*
X14105000Y-10800000D01*
X14090000Y-13025000D02*
X14090000Y-13055000D01*
X14075000Y-13040000D02*
X14105000Y-13040000D01*
X14090000Y-13445000D02*
X14090000Y-13475000D01*
X14075000Y-13460000D02*
X14105000Y-13460000D01*
X14090000Y-13865000D02*
X14090000Y-13895000D01*
X14075000Y-13880000D02*
X14105000Y-13880000D01*
X14090000Y-14005000D02*
X14090000Y-14035000D01*
X14075000Y-14020000D02*
X14105000Y-14020000D01*
X14090000Y-14215000D02*
X14090000Y-14245000D01*
X14075000Y-14230000D02*
X14105000Y-14230000D01*
X14116767Y-11919396D02*
X14116767Y-11949396D01*
X14101767Y-11934396D02*
X14131767Y-11934396D01*
X14119500Y-11846182D02*
X14119500Y-11876182D01*
X14104500Y-11861182D02*
X14134500Y-11861182D01*
X14119500Y-11981182D02*
X14119500Y-12011182D01*
X14104500Y-11996182D02*
X14134500Y-11996182D01*
X14128125Y-12831875D02*
X14128125Y-12861875D01*
X14113125Y-12846875D02*
X14143125Y-12846875D01*
X14138471Y-13293981D02*
X14138471Y-13323981D01*
X14123471Y-13308981D02*
X14153471Y-13308981D01*
X14146762Y-14063393D02*
X14146762Y-14093393D01*
X14131762Y-14078393D02*
X14161762Y-14078393D01*
X14147252Y-13698607D02*
X14147252Y-13728607D01*
X14132252Y-13713607D02*
X14162252Y-13713607D01*
X14160000Y-13515000D02*
X14160000Y-13545000D01*
X14145000Y-13530000D02*
X14175000Y-13530000D01*
X14160000Y-14285000D02*
X14160000Y-14315000D01*
X14145000Y-14300000D02*
X14175000Y-14300000D01*
X14160000Y-10185000D02*
X14160000Y-10215000D01*
X14145000Y-10200000D02*
X14175000Y-10200000D01*
X14160000Y-10365000D02*
X14160000Y-10395000D01*
X14145000Y-10380000D02*
X14175000Y-10380000D01*
X14160000Y-10545000D02*
X14160000Y-10575000D01*
X14145000Y-10560000D02*
X14175000Y-10560000D01*
X14160000Y-10725000D02*
X14160000Y-10755000D01*
X14145000Y-10740000D02*
X14175000Y-10740000D01*
X14160000Y-10905000D02*
X14160000Y-10935000D01*
X14145000Y-10920000D02*
X14175000Y-10920000D01*
X14160000Y-13065000D02*
X14160000Y-13095000D01*
X14145000Y-13080000D02*
X14175000Y-13080000D01*
X14160000Y-13605000D02*
X14160000Y-13635000D01*
X14145000Y-13620000D02*
X14175000Y-13620000D01*
X14160000Y-13785000D02*
X14160000Y-13815000D01*
X14145000Y-13800000D02*
X14175000Y-13800000D01*
X14160000Y-13965000D02*
X14160000Y-13995000D01*
X14145000Y-13980000D02*
X14175000Y-13980000D01*
X14160000Y-14145000D02*
X14160000Y-14175000D01*
X14145000Y-14160000D02*
X14175000Y-14160000D01*
X14228365Y-10967004D02*
X14228365Y-10997004D01*
X14213365Y-10982004D02*
X14243365Y-10982004D01*
X14230000Y-10155000D02*
X14230000Y-10185000D01*
X14215000Y-10170000D02*
X14245000Y-10170000D01*
X14230000Y-10295000D02*
X14230000Y-10325000D01*
X14215000Y-10310000D02*
X14245000Y-10310000D01*
X14230000Y-10435000D02*
X14230000Y-10465000D01*
X14215000Y-10450000D02*
X14245000Y-10450000D01*
X14230000Y-10575000D02*
X14230000Y-10605000D01*
X14215000Y-10590000D02*
X14245000Y-10590000D01*
X14230000Y-10785000D02*
X14230000Y-10815000D01*
X14215000Y-10800000D02*
X14245000Y-10800000D01*
X14230000Y-13025000D02*
X14230000Y-13055000D01*
X14215000Y-13040000D02*
X14245000Y-13040000D01*
X14240277Y-12287761D02*
X14240277Y-12317761D01*
X14225277Y-12302761D02*
X14255277Y-12302761D01*
X14243054Y-10912186D02*
X14243054Y-10942186D01*
X14228054Y-10927186D02*
X14258054Y-10927186D01*
X14243940Y-11066390D02*
X14243940Y-11096390D01*
X14228940Y-11081390D02*
X14258940Y-11081390D01*
X14244160Y-12479727D02*
X14244160Y-12509727D01*
X14229160Y-12494727D02*
X14259160Y-12494727D01*
X14257117Y-14173748D02*
X14257117Y-14203748D01*
X14242117Y-14188748D02*
X14272117Y-14188748D01*
X14257607Y-13889748D02*
X14257607Y-13919748D01*
X14242607Y-13904748D02*
X14272607Y-13904748D01*
X14283183Y-10872057D02*
X14283183Y-10902057D01*
X14268183Y-10887057D02*
X14298183Y-10887057D01*
X14300000Y-10225000D02*
X14300000Y-10255000D01*
X14285000Y-10240000D02*
X14315000Y-10240000D01*
X14300000Y-10365000D02*
X14300000Y-10395000D01*
X14285000Y-10380000D02*
X14315000Y-10380000D01*
X14300000Y-10505000D02*
X14300000Y-10535000D01*
X14285000Y-10520000D02*
X14315000Y-10520000D01*
X14300000Y-10645000D02*
X14300000Y-10675000D01*
X14285000Y-10660000D02*
X14315000Y-10660000D01*
X14300000Y-11415000D02*
X14300000Y-11445000D01*
X14285000Y-11430000D02*
X14315000Y-11430000D01*
X14300000Y-11555000D02*
X14300000Y-11585000D01*
X14285000Y-11570000D02*
X14315000Y-11570000D01*
X14300000Y-11695000D02*
X14300000Y-11725000D01*
X14285000Y-11710000D02*
X14315000Y-11710000D01*
X14300000Y-11905000D02*
X14300000Y-11935000D01*
X14285000Y-11920000D02*
X14315000Y-11920000D01*
X14300000Y-12045000D02*
X14300000Y-12075000D01*
X14285000Y-12060000D02*
X14315000Y-12060000D01*
X14300000Y-12185000D02*
X14300000Y-12215000D01*
X14285000Y-12200000D02*
X14315000Y-12200000D01*
X14300000Y-12535000D02*
X14300000Y-12565000D01*
X14285000Y-12550000D02*
X14315000Y-12550000D01*
X14300000Y-12675000D02*
X14300000Y-12705000D01*
X14285000Y-12690000D02*
X14315000Y-12690000D01*
X14300000Y-13305000D02*
X14300000Y-13335000D01*
X14285000Y-13320000D02*
X14315000Y-13320000D01*
X14300000Y-13585000D02*
X14300000Y-13615000D01*
X14285000Y-13600000D02*
X14315000Y-13600000D01*
X14300000Y-14285000D02*
X14300000Y-14315000D01*
X14285000Y-14300000D02*
X14315000Y-14300000D01*
X14300000Y-14425000D02*
X14300000Y-14455000D01*
X14285000Y-14440000D02*
X14315000Y-14440000D01*
X14308369Y-12376500D02*
X14308369Y-12406500D01*
X14293369Y-12391500D02*
X14323369Y-12391500D01*
X14337903Y-14173748D02*
X14337903Y-14203748D01*
X14322903Y-14188748D02*
X14352903Y-14188748D01*
X14338393Y-13889748D02*
X14338393Y-13919748D01*
X14323393Y-13904748D02*
X14353393Y-13904748D01*
X14370000Y-10295000D02*
X14370000Y-10325000D01*
X14355000Y-10310000D02*
X14385000Y-10310000D01*
X14370000Y-10435000D02*
X14370000Y-10465000D01*
X14355000Y-10450000D02*
X14385000Y-10450000D01*
X14370000Y-10575000D02*
X14370000Y-10605000D01*
X14355000Y-10590000D02*
X14385000Y-10590000D01*
X14370000Y-10715000D02*
X14370000Y-10745000D01*
X14355000Y-10730000D02*
X14385000Y-10730000D01*
X14370000Y-10855000D02*
X14370000Y-10885000D01*
X14355000Y-10870000D02*
X14385000Y-10870000D01*
X14370000Y-14355000D02*
X14370000Y-14385000D01*
X14355000Y-14370000D02*
X14385000Y-14370000D01*
X14390400Y-11912320D02*
X14390400Y-11942320D01*
X14375400Y-11927320D02*
X14405400Y-11927320D01*
X14407865Y-14133355D02*
X14407865Y-14163355D01*
X14392865Y-14148355D02*
X14422865Y-14148355D01*
X14408355Y-13849355D02*
X14408355Y-13879355D01*
X14393355Y-13864355D02*
X14423355Y-13864355D01*
X14415523Y-11044527D02*
X14415523Y-11074527D01*
X14400523Y-11059527D02*
X14430523Y-11059527D01*
X11838714Y-10149710D02*
X11838714Y-10107283D01*
X11796287Y-10107283D01*
X11796287Y-10149710D01*
X11838714Y-10149710D01*
X11847501Y-10158497D02*
X11847501Y-10098497D01*
X11787501Y-10098497D02*
G75*
G02*
X11847501Y-10098497I30000J0D01*
G01*
X11787501Y-10098497D02*
X11787501Y-10158497D01*
X11787501Y-10158497D02*
G75*
G03*
X11847501Y-10158497I30000J0D01*
G01*
X11838714Y-10569726D02*
X11838714Y-10527299D01*
X11796287Y-10527299D01*
X11796287Y-10569726D01*
X11838714Y-10569726D01*
X11847501Y-10593513D02*
X11847501Y-10503511D01*
X11787501Y-10503511D02*
G75*
G02*
X11847501Y-10503511I30000J0D01*
G01*
X11787501Y-10503511D02*
X11787501Y-10593513D01*
X11787501Y-10593513D02*
G75*
G03*
X11847501Y-10593513I30000J0D01*
G01*
X12703713Y-10149710D02*
X12703713Y-10107283D01*
X12661286Y-10107283D01*
X12661286Y-10149710D01*
X12703713Y-10149710D01*
X12712499Y-10158497D02*
X12712499Y-10098497D01*
X12652499Y-10098497D02*
G75*
G02*
X12712499Y-10098497I30000J0D01*
G01*
X12652499Y-10098497D02*
X12652499Y-10158497D01*
X12652499Y-10158497D02*
G75*
G03*
X12712499Y-10158497I30000J0D01*
G01*
X12703713Y-10569726D02*
X12703713Y-10527299D01*
X12661286Y-10527299D01*
X12661286Y-10569726D01*
X12703713Y-10569726D01*
X12712499Y-10593512D02*
X12712499Y-10503512D01*
X12652499Y-10503512D02*
G75*
G02*
X12712499Y-10503512I30000J0D01*
G01*
X12652499Y-10503512D02*
X12652499Y-10593512D01*
X12652499Y-10593512D02*
G75*
G03*
X12712499Y-10593512I30000J0D01*
G01*
X11960985Y-10531494D02*
X11995987Y-10496493D01*
X11960985Y-10461492D01*
X11925984Y-10496493D01*
X11960985Y-10531494D01*
X12538989Y-10531494D02*
X12573990Y-10496493D01*
X12538989Y-10461492D01*
X12503988Y-10496493D01*
X12538989Y-10531494D01*
X11864996Y-13955109D02*
X11964996Y-14055109D01*
X11964996Y-13955109D02*
X11864996Y-14055109D01*
X11964996Y-14005109D02*
G75*
G02*
X11864996Y-14005109I-50000J0D01*
G01*
X11864996Y-14005109D02*
G75*
G02*
X11964996Y-14005109I50000J0D01*
G01*
X12664996Y-13955109D02*
X12764996Y-14055109D01*
X12764996Y-13955109D02*
X12664996Y-14055109D01*
X12764996Y-14005109D02*
G75*
G02*
X12664996Y-14005109I-50000J0D01*
G01*
X12664996Y-14005109D02*
G75*
G02*
X12764996Y-14005109I50000J0D01*
G01*
D11*
X10255777Y-14916484D02*
X10255777Y-14716484D01*
X10255777Y-14716484D02*
X10303396Y-14716484D01*
X10303396Y-14716484D02*
X10331967Y-14726008D01*
X10331967Y-14726008D02*
X10351015Y-14745055D01*
X10351015Y-14745055D02*
X10360539Y-14764103D01*
X10360539Y-14764103D02*
X10370063Y-14802198D01*
X10370063Y-14802198D02*
X10370063Y-14830769D01*
X10370063Y-14830769D02*
X10360539Y-14868865D01*
X10360539Y-14868865D02*
X10351015Y-14887912D01*
X10351015Y-14887912D02*
X10331967Y-14906960D01*
X10331967Y-14906960D02*
X10303396Y-14916484D01*
X10303396Y-14916484D02*
X10255777Y-14916484D01*
X10455777Y-14916484D02*
X10455777Y-14783150D01*
X10455777Y-14821246D02*
X10465301Y-14802198D01*
X10465301Y-14802198D02*
X10474824Y-14792674D01*
X10474824Y-14792674D02*
X10493872Y-14783150D01*
X10493872Y-14783150D02*
X10512920Y-14783150D01*
X10579586Y-14916484D02*
X10579586Y-14783150D01*
X10579586Y-14716484D02*
X10570063Y-14726008D01*
X10570063Y-14726008D02*
X10579586Y-14735531D01*
X10579586Y-14735531D02*
X10589110Y-14726008D01*
X10589110Y-14726008D02*
X10579586Y-14716484D01*
X10579586Y-14716484D02*
X10579586Y-14735531D01*
X10703396Y-14916484D02*
X10684348Y-14906960D01*
X10684348Y-14906960D02*
X10674824Y-14887912D01*
X10674824Y-14887912D02*
X10674824Y-14716484D01*
X10808158Y-14916484D02*
X10789110Y-14906960D01*
X10789110Y-14906960D02*
X10779586Y-14887912D01*
X10779586Y-14887912D02*
X10779586Y-14716484D01*
X11036729Y-14916484D02*
X11036729Y-14716484D01*
X11036729Y-14716484D02*
X11103396Y-14859341D01*
X11103396Y-14859341D02*
X11170063Y-14716484D01*
X11170063Y-14716484D02*
X11170063Y-14916484D01*
X11351015Y-14916484D02*
X11351015Y-14811722D01*
X11351015Y-14811722D02*
X11341491Y-14792674D01*
X11341491Y-14792674D02*
X11322443Y-14783150D01*
X11322443Y-14783150D02*
X11284348Y-14783150D01*
X11284348Y-14783150D02*
X11265301Y-14792674D01*
X11351015Y-14906960D02*
X11331967Y-14916484D01*
X11331967Y-14916484D02*
X11284348Y-14916484D01*
X11284348Y-14916484D02*
X11265301Y-14906960D01*
X11265301Y-14906960D02*
X11255777Y-14887912D01*
X11255777Y-14887912D02*
X11255777Y-14868865D01*
X11255777Y-14868865D02*
X11265301Y-14849817D01*
X11265301Y-14849817D02*
X11284348Y-14840293D01*
X11284348Y-14840293D02*
X11331967Y-14840293D01*
X11331967Y-14840293D02*
X11351015Y-14830769D01*
X11446253Y-14783150D02*
X11446253Y-14983150D01*
X11446253Y-14792674D02*
X11465301Y-14783150D01*
X11465301Y-14783150D02*
X11503396Y-14783150D01*
X11503396Y-14783150D02*
X11522443Y-14792674D01*
X11522443Y-14792674D02*
X11531967Y-14802198D01*
X11531967Y-14802198D02*
X11541491Y-14821246D01*
X11541491Y-14821246D02*
X11541491Y-14878388D01*
X11541491Y-14878388D02*
X11531967Y-14897436D01*
X11531967Y-14897436D02*
X11522443Y-14906960D01*
X11522443Y-14906960D02*
X11503396Y-14916484D01*
X11503396Y-14916484D02*
X11465301Y-14916484D01*
X11465301Y-14916484D02*
X11446253Y-14906960D01*
X11627205Y-14897436D02*
X11636729Y-14906960D01*
X11636729Y-14906960D02*
X11627205Y-14916484D01*
X11627205Y-14916484D02*
X11617682Y-14906960D01*
X11617682Y-14906960D02*
X11627205Y-14897436D01*
X11627205Y-14897436D02*
X11627205Y-14916484D01*
X11627205Y-14792674D02*
X11636729Y-14802198D01*
X11636729Y-14802198D02*
X11627205Y-14811722D01*
X11627205Y-14811722D02*
X11617682Y-14802198D01*
X11617682Y-14802198D02*
X11627205Y-14792674D01*
X11627205Y-14792674D02*
X11627205Y-14811722D01*
D10*
X9975000Y-15235000D02*
X9995000Y-15255000D01*
X9995000Y-15235000D02*
X9975000Y-15255000D01*
D11*
X10293872Y-15136484D02*
X10312920Y-15136484D01*
X10312920Y-15136484D02*
X10331967Y-15146008D01*
X10331967Y-15146008D02*
X10341491Y-15155531D01*
X10341491Y-15155531D02*
X10351015Y-15174579D01*
X10351015Y-15174579D02*
X10360539Y-15212674D01*
X10360539Y-15212674D02*
X10360539Y-15260293D01*
X10360539Y-15260293D02*
X10351015Y-15298388D01*
X10351015Y-15298388D02*
X10341491Y-15317436D01*
X10341491Y-15317436D02*
X10331967Y-15326960D01*
X10331967Y-15326960D02*
X10312920Y-15336484D01*
X10312920Y-15336484D02*
X10293872Y-15336484D01*
X10293872Y-15336484D02*
X10274824Y-15326960D01*
X10274824Y-15326960D02*
X10265301Y-15317436D01*
X10265301Y-15317436D02*
X10255777Y-15298388D01*
X10255777Y-15298388D02*
X10246253Y-15260293D01*
X10246253Y-15260293D02*
X10246253Y-15212674D01*
X10246253Y-15212674D02*
X10255777Y-15174579D01*
X10255777Y-15174579D02*
X10265301Y-15155531D01*
X10265301Y-15155531D02*
X10274824Y-15146008D01*
X10274824Y-15146008D02*
X10293872Y-15136484D01*
X10446253Y-15317436D02*
X10455777Y-15326960D01*
X10455777Y-15326960D02*
X10446253Y-15336484D01*
X10446253Y-15336484D02*
X10436729Y-15326960D01*
X10436729Y-15326960D02*
X10446253Y-15317436D01*
X10446253Y-15317436D02*
X10446253Y-15336484D01*
X10531967Y-15155531D02*
X10541491Y-15146008D01*
X10541491Y-15146008D02*
X10560539Y-15136484D01*
X10560539Y-15136484D02*
X10608158Y-15136484D01*
X10608158Y-15136484D02*
X10627205Y-15146008D01*
X10627205Y-15146008D02*
X10636729Y-15155531D01*
X10636729Y-15155531D02*
X10646253Y-15174579D01*
X10646253Y-15174579D02*
X10646253Y-15193627D01*
X10646253Y-15193627D02*
X10636729Y-15222198D01*
X10636729Y-15222198D02*
X10522444Y-15336484D01*
X10522444Y-15336484D02*
X10646253Y-15336484D01*
X10770063Y-15136484D02*
X10789110Y-15136484D01*
X10789110Y-15136484D02*
X10808158Y-15146008D01*
X10808158Y-15146008D02*
X10817682Y-15155531D01*
X10817682Y-15155531D02*
X10827205Y-15174579D01*
X10827205Y-15174579D02*
X10836729Y-15212674D01*
X10836729Y-15212674D02*
X10836729Y-15260293D01*
X10836729Y-15260293D02*
X10827205Y-15298388D01*
X10827205Y-15298388D02*
X10817682Y-15317436D01*
X10817682Y-15317436D02*
X10808158Y-15326960D01*
X10808158Y-15326960D02*
X10789110Y-15336484D01*
X10789110Y-15336484D02*
X10770063Y-15336484D01*
X10770063Y-15336484D02*
X10751015Y-15326960D01*
X10751015Y-15326960D02*
X10741491Y-15317436D01*
X10741491Y-15317436D02*
X10731967Y-15298388D01*
X10731967Y-15298388D02*
X10722444Y-15260293D01*
X10722444Y-15260293D02*
X10722444Y-15212674D01*
X10722444Y-15212674D02*
X10731967Y-15174579D01*
X10731967Y-15174579D02*
X10741491Y-15155531D01*
X10741491Y-15155531D02*
X10751015Y-15146008D01*
X10751015Y-15146008D02*
X10770063Y-15136484D01*
X10960539Y-15136484D02*
X10979586Y-15136484D01*
X10979586Y-15136484D02*
X10998634Y-15146008D01*
X10998634Y-15146008D02*
X11008158Y-15155531D01*
X11008158Y-15155531D02*
X11017682Y-15174579D01*
X11017682Y-15174579D02*
X11027205Y-15212674D01*
X11027205Y-15212674D02*
X11027205Y-15260293D01*
X11027205Y-15260293D02*
X11017682Y-15298388D01*
X11017682Y-15298388D02*
X11008158Y-15317436D01*
X11008158Y-15317436D02*
X10998634Y-15326960D01*
X10998634Y-15326960D02*
X10979586Y-15336484D01*
X10979586Y-15336484D02*
X10960539Y-15336484D01*
X10960539Y-15336484D02*
X10941491Y-15326960D01*
X10941491Y-15326960D02*
X10931967Y-15317436D01*
X10931967Y-15317436D02*
X10922444Y-15298388D01*
X10922444Y-15298388D02*
X10912920Y-15260293D01*
X10912920Y-15260293D02*
X10912920Y-15212674D01*
X10912920Y-15212674D02*
X10922444Y-15174579D01*
X10922444Y-15174579D02*
X10931967Y-15155531D01*
X10931967Y-15155531D02*
X10941491Y-15146008D01*
X10941491Y-15146008D02*
X10960539Y-15136484D01*
X11112920Y-15336484D02*
X11112920Y-15203150D01*
X11112920Y-15222198D02*
X11122444Y-15212674D01*
X11122444Y-15212674D02*
X11141491Y-15203150D01*
X11141491Y-15203150D02*
X11170063Y-15203150D01*
X11170063Y-15203150D02*
X11189110Y-15212674D01*
X11189110Y-15212674D02*
X11198634Y-15231722D01*
X11198634Y-15231722D02*
X11198634Y-15336484D01*
X11198634Y-15231722D02*
X11208158Y-15212674D01*
X11208158Y-15212674D02*
X11227205Y-15203150D01*
X11227205Y-15203150D02*
X11255777Y-15203150D01*
X11255777Y-15203150D02*
X11274824Y-15212674D01*
X11274824Y-15212674D02*
X11284348Y-15231722D01*
X11284348Y-15231722D02*
X11284348Y-15336484D01*
X11379586Y-15336484D02*
X11379586Y-15203150D01*
X11379586Y-15222198D02*
X11389110Y-15212674D01*
X11389110Y-15212674D02*
X11408158Y-15203150D01*
X11408158Y-15203150D02*
X11436729Y-15203150D01*
X11436729Y-15203150D02*
X11455777Y-15212674D01*
X11455777Y-15212674D02*
X11465301Y-15231722D01*
X11465301Y-15231722D02*
X11465301Y-15336484D01*
X11465301Y-15231722D02*
X11474824Y-15212674D01*
X11474824Y-15212674D02*
X11493872Y-15203150D01*
X11493872Y-15203150D02*
X11522443Y-15203150D01*
X11522443Y-15203150D02*
X11541491Y-15212674D01*
X11541491Y-15212674D02*
X11551015Y-15231722D01*
X11551015Y-15231722D02*
X11551015Y-15336484D01*
X11941491Y-15126960D02*
X11770063Y-15384103D01*
X12198634Y-15136484D02*
X12217682Y-15136484D01*
X12217682Y-15136484D02*
X12236729Y-15146008D01*
X12236729Y-15146008D02*
X12246253Y-15155531D01*
X12246253Y-15155531D02*
X12255777Y-15174579D01*
X12255777Y-15174579D02*
X12265301Y-15212674D01*
X12265301Y-15212674D02*
X12265301Y-15260293D01*
X12265301Y-15260293D02*
X12255777Y-15298388D01*
X12255777Y-15298388D02*
X12246253Y-15317436D01*
X12246253Y-15317436D02*
X12236729Y-15326960D01*
X12236729Y-15326960D02*
X12217682Y-15336484D01*
X12217682Y-15336484D02*
X12198634Y-15336484D01*
X12198634Y-15336484D02*
X12179586Y-15326960D01*
X12179586Y-15326960D02*
X12170063Y-15317436D01*
X12170063Y-15317436D02*
X12160539Y-15298388D01*
X12160539Y-15298388D02*
X12151015Y-15260293D01*
X12151015Y-15260293D02*
X12151015Y-15212674D01*
X12151015Y-15212674D02*
X12160539Y-15174579D01*
X12160539Y-15174579D02*
X12170063Y-15155531D01*
X12170063Y-15155531D02*
X12179586Y-15146008D01*
X12179586Y-15146008D02*
X12198634Y-15136484D01*
X12351015Y-15317436D02*
X12360539Y-15326960D01*
X12360539Y-15326960D02*
X12351015Y-15336484D01*
X12351015Y-15336484D02*
X12341491Y-15326960D01*
X12341491Y-15326960D02*
X12351015Y-15317436D01*
X12351015Y-15317436D02*
X12351015Y-15336484D01*
X12484348Y-15136484D02*
X12503396Y-15136484D01*
X12503396Y-15136484D02*
X12522444Y-15146008D01*
X12522444Y-15146008D02*
X12531967Y-15155531D01*
X12531967Y-15155531D02*
X12541491Y-15174579D01*
X12541491Y-15174579D02*
X12551015Y-15212674D01*
X12551015Y-15212674D02*
X12551015Y-15260293D01*
X12551015Y-15260293D02*
X12541491Y-15298388D01*
X12541491Y-15298388D02*
X12531967Y-15317436D01*
X12531967Y-15317436D02*
X12522444Y-15326960D01*
X12522444Y-15326960D02*
X12503396Y-15336484D01*
X12503396Y-15336484D02*
X12484348Y-15336484D01*
X12484348Y-15336484D02*
X12465301Y-15326960D01*
X12465301Y-15326960D02*
X12455777Y-15317436D01*
X12455777Y-15317436D02*
X12446253Y-15298388D01*
X12446253Y-15298388D02*
X12436729Y-15260293D01*
X12436729Y-15260293D02*
X12436729Y-15212674D01*
X12436729Y-15212674D02*
X12446253Y-15174579D01*
X12446253Y-15174579D02*
X12455777Y-15155531D01*
X12455777Y-15155531D02*
X12465301Y-15146008D01*
X12465301Y-15146008D02*
X12484348Y-15136484D01*
X12674825Y-15136484D02*
X12693872Y-15136484D01*
X12693872Y-15136484D02*
X12712920Y-15146008D01*
X12712920Y-15146008D02*
X12722444Y-15155531D01*
X12722444Y-15155531D02*
X12731967Y-15174579D01*
X12731967Y-15174579D02*
X12741491Y-15212674D01*
X12741491Y-15212674D02*
X12741491Y-15260293D01*
X12741491Y-15260293D02*
X12731967Y-15298388D01*
X12731967Y-15298388D02*
X12722444Y-15317436D01*
X12722444Y-15317436D02*
X12712920Y-15326960D01*
X12712920Y-15326960D02*
X12693872Y-15336484D01*
X12693872Y-15336484D02*
X12674825Y-15336484D01*
X12674825Y-15336484D02*
X12655777Y-15326960D01*
X12655777Y-15326960D02*
X12646253Y-15317436D01*
X12646253Y-15317436D02*
X12636729Y-15298388D01*
X12636729Y-15298388D02*
X12627206Y-15260293D01*
X12627206Y-15260293D02*
X12627206Y-15212674D01*
X12627206Y-15212674D02*
X12636729Y-15174579D01*
X12636729Y-15174579D02*
X12646253Y-15155531D01*
X12646253Y-15155531D02*
X12655777Y-15146008D01*
X12655777Y-15146008D02*
X12674825Y-15136484D01*
X12808158Y-15136484D02*
X12941491Y-15136484D01*
X12941491Y-15136484D02*
X12855777Y-15336484D01*
X13027206Y-15336484D02*
X13065301Y-15336484D01*
X13065301Y-15336484D02*
X13084348Y-15326960D01*
X13084348Y-15326960D02*
X13093872Y-15317436D01*
X13093872Y-15317436D02*
X13112920Y-15288865D01*
X13112920Y-15288865D02*
X13122444Y-15250769D01*
X13122444Y-15250769D02*
X13122444Y-15174579D01*
X13122444Y-15174579D02*
X13112920Y-15155531D01*
X13112920Y-15155531D02*
X13103396Y-15146008D01*
X13103396Y-15146008D02*
X13084348Y-15136484D01*
X13084348Y-15136484D02*
X13046253Y-15136484D01*
X13046253Y-15136484D02*
X13027206Y-15146008D01*
X13027206Y-15146008D02*
X13017682Y-15155531D01*
X13017682Y-15155531D02*
X13008158Y-15174579D01*
X13008158Y-15174579D02*
X13008158Y-15222198D01*
X13008158Y-15222198D02*
X13017682Y-15241246D01*
X13017682Y-15241246D02*
X13027206Y-15250769D01*
X13027206Y-15250769D02*
X13046253Y-15260293D01*
X13046253Y-15260293D02*
X13084348Y-15260293D01*
X13084348Y-15260293D02*
X13103396Y-15250769D01*
X13103396Y-15250769D02*
X13112920Y-15241246D01*
X13112920Y-15241246D02*
X13122444Y-15222198D01*
X13198634Y-15136484D02*
X13198634Y-15174579D01*
X13274825Y-15136484D02*
X13274825Y-15174579D01*
X13570063Y-15412674D02*
X13560539Y-15403150D01*
X13560539Y-15403150D02*
X13541491Y-15374579D01*
X13541491Y-15374579D02*
X13531968Y-15355531D01*
X13531968Y-15355531D02*
X13522444Y-15326960D01*
X13522444Y-15326960D02*
X13512920Y-15279341D01*
X13512920Y-15279341D02*
X13512920Y-15241246D01*
X13512920Y-15241246D02*
X13522444Y-15193627D01*
X13522444Y-15193627D02*
X13531968Y-15165055D01*
X13531968Y-15165055D02*
X13541491Y-15146008D01*
X13541491Y-15146008D02*
X13560539Y-15117436D01*
X13560539Y-15117436D02*
X13570063Y-15107912D01*
X13751015Y-15336484D02*
X13636729Y-15336484D01*
X13693872Y-15336484D02*
X13693872Y-15136484D01*
X13693872Y-15136484D02*
X13674825Y-15165055D01*
X13674825Y-15165055D02*
X13655777Y-15184103D01*
X13655777Y-15184103D02*
X13636729Y-15193627D01*
X13922444Y-15136484D02*
X13884348Y-15136484D01*
X13884348Y-15136484D02*
X13865301Y-15146008D01*
X13865301Y-15146008D02*
X13855777Y-15155531D01*
X13855777Y-15155531D02*
X13836729Y-15184103D01*
X13836729Y-15184103D02*
X13827206Y-15222198D01*
X13827206Y-15222198D02*
X13827206Y-15298388D01*
X13827206Y-15298388D02*
X13836729Y-15317436D01*
X13836729Y-15317436D02*
X13846253Y-15326960D01*
X13846253Y-15326960D02*
X13865301Y-15336484D01*
X13865301Y-15336484D02*
X13903396Y-15336484D01*
X13903396Y-15336484D02*
X13922444Y-15326960D01*
X13922444Y-15326960D02*
X13931968Y-15317436D01*
X13931968Y-15317436D02*
X13941491Y-15298388D01*
X13941491Y-15298388D02*
X13941491Y-15250769D01*
X13941491Y-15250769D02*
X13931968Y-15231722D01*
X13931968Y-15231722D02*
X13922444Y-15222198D01*
X13922444Y-15222198D02*
X13903396Y-15212674D01*
X13903396Y-15212674D02*
X13865301Y-15212674D01*
X13865301Y-15212674D02*
X13846253Y-15222198D01*
X13846253Y-15222198D02*
X13836729Y-15231722D01*
X13836729Y-15231722D02*
X13827206Y-15250769D01*
X14065301Y-15136484D02*
X14084349Y-15136484D01*
X14084349Y-15136484D02*
X14103396Y-15146008D01*
X14103396Y-15146008D02*
X14112920Y-15155531D01*
X14112920Y-15155531D02*
X14122444Y-15174579D01*
X14122444Y-15174579D02*
X14131968Y-15212674D01*
X14131968Y-15212674D02*
X14131968Y-15260293D01*
X14131968Y-15260293D02*
X14122444Y-15298388D01*
X14122444Y-15298388D02*
X14112920Y-15317436D01*
X14112920Y-15317436D02*
X14103396Y-15326960D01*
X14103396Y-15326960D02*
X14084349Y-15336484D01*
X14084349Y-15336484D02*
X14065301Y-15336484D01*
X14065301Y-15336484D02*
X14046253Y-15326960D01*
X14046253Y-15326960D02*
X14036729Y-15317436D01*
X14036729Y-15317436D02*
X14027206Y-15298388D01*
X14027206Y-15298388D02*
X14017682Y-15260293D01*
X14017682Y-15260293D02*
X14017682Y-15212674D01*
X14017682Y-15212674D02*
X14027206Y-15174579D01*
X14027206Y-15174579D02*
X14036729Y-15155531D01*
X14036729Y-15155531D02*
X14046253Y-15146008D01*
X14046253Y-15146008D02*
X14065301Y-15136484D01*
X14370063Y-15336484D02*
X14370063Y-15136484D01*
X14455777Y-15336484D02*
X14455777Y-15231722D01*
X14455777Y-15231722D02*
X14446253Y-15212674D01*
X14446253Y-15212674D02*
X14427206Y-15203150D01*
X14427206Y-15203150D02*
X14398634Y-15203150D01*
X14398634Y-15203150D02*
X14379587Y-15212674D01*
X14379587Y-15212674D02*
X14370063Y-15222198D01*
X14579587Y-15336484D02*
X14560539Y-15326960D01*
X14560539Y-15326960D02*
X14551015Y-15317436D01*
X14551015Y-15317436D02*
X14541491Y-15298388D01*
X14541491Y-15298388D02*
X14541491Y-15241246D01*
X14541491Y-15241246D02*
X14551015Y-15222198D01*
X14551015Y-15222198D02*
X14560539Y-15212674D01*
X14560539Y-15212674D02*
X14579587Y-15203150D01*
X14579587Y-15203150D02*
X14608158Y-15203150D01*
X14608158Y-15203150D02*
X14627206Y-15212674D01*
X14627206Y-15212674D02*
X14636730Y-15222198D01*
X14636730Y-15222198D02*
X14646253Y-15241246D01*
X14646253Y-15241246D02*
X14646253Y-15298388D01*
X14646253Y-15298388D02*
X14636730Y-15317436D01*
X14636730Y-15317436D02*
X14627206Y-15326960D01*
X14627206Y-15326960D02*
X14608158Y-15336484D01*
X14608158Y-15336484D02*
X14579587Y-15336484D01*
X14760539Y-15336484D02*
X14741491Y-15326960D01*
X14741491Y-15326960D02*
X14731968Y-15307912D01*
X14731968Y-15307912D02*
X14731968Y-15136484D01*
X14912920Y-15326960D02*
X14893872Y-15336484D01*
X14893872Y-15336484D02*
X14855777Y-15336484D01*
X14855777Y-15336484D02*
X14836730Y-15326960D01*
X14836730Y-15326960D02*
X14827206Y-15307912D01*
X14827206Y-15307912D02*
X14827206Y-15231722D01*
X14827206Y-15231722D02*
X14836730Y-15212674D01*
X14836730Y-15212674D02*
X14855777Y-15203150D01*
X14855777Y-15203150D02*
X14893872Y-15203150D01*
X14893872Y-15203150D02*
X14912920Y-15212674D01*
X14912920Y-15212674D02*
X14922444Y-15231722D01*
X14922444Y-15231722D02*
X14922444Y-15250769D01*
X14922444Y-15250769D02*
X14827206Y-15269817D01*
X14998634Y-15326960D02*
X15017682Y-15336484D01*
X15017682Y-15336484D02*
X15055777Y-15336484D01*
X15055777Y-15336484D02*
X15074825Y-15326960D01*
X15074825Y-15326960D02*
X15084349Y-15307912D01*
X15084349Y-15307912D02*
X15084349Y-15298388D01*
X15084349Y-15298388D02*
X15074825Y-15279341D01*
X15074825Y-15279341D02*
X15055777Y-15269817D01*
X15055777Y-15269817D02*
X15027206Y-15269817D01*
X15027206Y-15269817D02*
X15008158Y-15260293D01*
X15008158Y-15260293D02*
X14998634Y-15241246D01*
X14998634Y-15241246D02*
X14998634Y-15231722D01*
X14998634Y-15231722D02*
X15008158Y-15212674D01*
X15008158Y-15212674D02*
X15027206Y-15203150D01*
X15027206Y-15203150D02*
X15055777Y-15203150D01*
X15055777Y-15203150D02*
X15074825Y-15212674D01*
X15151015Y-15412674D02*
X15160539Y-15403150D01*
X15160539Y-15403150D02*
X15179587Y-15374579D01*
X15179587Y-15374579D02*
X15189111Y-15355531D01*
X15189111Y-15355531D02*
X15198634Y-15326960D01*
X15198634Y-15326960D02*
X15208158Y-15279341D01*
X15208158Y-15279341D02*
X15208158Y-15241246D01*
X15208158Y-15241246D02*
X15198634Y-15193627D01*
X15198634Y-15193627D02*
X15189111Y-15165055D01*
X15189111Y-15165055D02*
X15179587Y-15146008D01*
X15179587Y-15146008D02*
X15160539Y-15117436D01*
X15160539Y-15117436D02*
X15151015Y-15107912D01*
D10*
X9995000Y-15509000D02*
G75*
G02*
X9970000Y-15509000I-12500J0D01*
G01*
X9970000Y-15509000D02*
G75*
G02*
X9995000Y-15509000I12500J0D01*
G01*
D11*
X10293872Y-15400484D02*
X10312920Y-15400484D01*
X10312920Y-15400484D02*
X10331967Y-15410008D01*
X10331967Y-15410008D02*
X10341491Y-15419531D01*
X10341491Y-15419531D02*
X10351015Y-15438579D01*
X10351015Y-15438579D02*
X10360539Y-15476674D01*
X10360539Y-15476674D02*
X10360539Y-15524293D01*
X10360539Y-15524293D02*
X10351015Y-15562388D01*
X10351015Y-15562388D02*
X10341491Y-15581436D01*
X10341491Y-15581436D02*
X10331967Y-15590960D01*
X10331967Y-15590960D02*
X10312920Y-15600484D01*
X10312920Y-15600484D02*
X10293872Y-15600484D01*
X10293872Y-15600484D02*
X10274824Y-15590960D01*
X10274824Y-15590960D02*
X10265301Y-15581436D01*
X10265301Y-15581436D02*
X10255777Y-15562388D01*
X10255777Y-15562388D02*
X10246253Y-15524293D01*
X10246253Y-15524293D02*
X10246253Y-15476674D01*
X10246253Y-15476674D02*
X10255777Y-15438579D01*
X10255777Y-15438579D02*
X10265301Y-15419531D01*
X10265301Y-15419531D02*
X10274824Y-15410008D01*
X10274824Y-15410008D02*
X10293872Y-15400484D01*
X10446253Y-15581436D02*
X10455777Y-15590960D01*
X10455777Y-15590960D02*
X10446253Y-15600484D01*
X10446253Y-15600484D02*
X10436729Y-15590960D01*
X10436729Y-15590960D02*
X10446253Y-15581436D01*
X10446253Y-15581436D02*
X10446253Y-15600484D01*
X10531967Y-15419531D02*
X10541491Y-15410008D01*
X10541491Y-15410008D02*
X10560539Y-15400484D01*
X10560539Y-15400484D02*
X10608158Y-15400484D01*
X10608158Y-15400484D02*
X10627205Y-15410008D01*
X10627205Y-15410008D02*
X10636729Y-15419531D01*
X10636729Y-15419531D02*
X10646253Y-15438579D01*
X10646253Y-15438579D02*
X10646253Y-15457627D01*
X10646253Y-15457627D02*
X10636729Y-15486198D01*
X10636729Y-15486198D02*
X10522444Y-15600484D01*
X10522444Y-15600484D02*
X10646253Y-15600484D01*
X10827205Y-15400484D02*
X10731967Y-15400484D01*
X10731967Y-15400484D02*
X10722444Y-15495722D01*
X10722444Y-15495722D02*
X10731967Y-15486198D01*
X10731967Y-15486198D02*
X10751015Y-15476674D01*
X10751015Y-15476674D02*
X10798634Y-15476674D01*
X10798634Y-15476674D02*
X10817682Y-15486198D01*
X10817682Y-15486198D02*
X10827205Y-15495722D01*
X10827205Y-15495722D02*
X10836729Y-15514769D01*
X10836729Y-15514769D02*
X10836729Y-15562388D01*
X10836729Y-15562388D02*
X10827205Y-15581436D01*
X10827205Y-15581436D02*
X10817682Y-15590960D01*
X10817682Y-15590960D02*
X10798634Y-15600484D01*
X10798634Y-15600484D02*
X10751015Y-15600484D01*
X10751015Y-15600484D02*
X10731967Y-15590960D01*
X10731967Y-15590960D02*
X10722444Y-15581436D01*
X10960539Y-15400484D02*
X10979586Y-15400484D01*
X10979586Y-15400484D02*
X10998634Y-15410008D01*
X10998634Y-15410008D02*
X11008158Y-15419531D01*
X11008158Y-15419531D02*
X11017682Y-15438579D01*
X11017682Y-15438579D02*
X11027205Y-15476674D01*
X11027205Y-15476674D02*
X11027205Y-15524293D01*
X11027205Y-15524293D02*
X11017682Y-15562388D01*
X11017682Y-15562388D02*
X11008158Y-15581436D01*
X11008158Y-15581436D02*
X10998634Y-15590960D01*
X10998634Y-15590960D02*
X10979586Y-15600484D01*
X10979586Y-15600484D02*
X10960539Y-15600484D01*
X10960539Y-15600484D02*
X10941491Y-15590960D01*
X10941491Y-15590960D02*
X10931967Y-15581436D01*
X10931967Y-15581436D02*
X10922444Y-15562388D01*
X10922444Y-15562388D02*
X10912920Y-15524293D01*
X10912920Y-15524293D02*
X10912920Y-15476674D01*
X10912920Y-15476674D02*
X10922444Y-15438579D01*
X10922444Y-15438579D02*
X10931967Y-15419531D01*
X10931967Y-15419531D02*
X10941491Y-15410008D01*
X10941491Y-15410008D02*
X10960539Y-15400484D01*
X11112920Y-15600484D02*
X11112920Y-15467150D01*
X11112920Y-15486198D02*
X11122444Y-15476674D01*
X11122444Y-15476674D02*
X11141491Y-15467150D01*
X11141491Y-15467150D02*
X11170063Y-15467150D01*
X11170063Y-15467150D02*
X11189110Y-15476674D01*
X11189110Y-15476674D02*
X11198634Y-15495722D01*
X11198634Y-15495722D02*
X11198634Y-15600484D01*
X11198634Y-15495722D02*
X11208158Y-15476674D01*
X11208158Y-15476674D02*
X11227205Y-15467150D01*
X11227205Y-15467150D02*
X11255777Y-15467150D01*
X11255777Y-15467150D02*
X11274824Y-15476674D01*
X11274824Y-15476674D02*
X11284348Y-15495722D01*
X11284348Y-15495722D02*
X11284348Y-15600484D01*
X11379586Y-15600484D02*
X11379586Y-15467150D01*
X11379586Y-15486198D02*
X11389110Y-15476674D01*
X11389110Y-15476674D02*
X11408158Y-15467150D01*
X11408158Y-15467150D02*
X11436729Y-15467150D01*
X11436729Y-15467150D02*
X11455777Y-15476674D01*
X11455777Y-15476674D02*
X11465301Y-15495722D01*
X11465301Y-15495722D02*
X11465301Y-15600484D01*
X11465301Y-15495722D02*
X11474824Y-15476674D01*
X11474824Y-15476674D02*
X11493872Y-15467150D01*
X11493872Y-15467150D02*
X11522443Y-15467150D01*
X11522443Y-15467150D02*
X11541491Y-15476674D01*
X11541491Y-15476674D02*
X11551015Y-15495722D01*
X11551015Y-15495722D02*
X11551015Y-15600484D01*
X11941491Y-15390960D02*
X11770063Y-15648103D01*
X12198634Y-15400484D02*
X12217682Y-15400484D01*
X12217682Y-15400484D02*
X12236729Y-15410008D01*
X12236729Y-15410008D02*
X12246253Y-15419531D01*
X12246253Y-15419531D02*
X12255777Y-15438579D01*
X12255777Y-15438579D02*
X12265301Y-15476674D01*
X12265301Y-15476674D02*
X12265301Y-15524293D01*
X12265301Y-15524293D02*
X12255777Y-15562388D01*
X12255777Y-15562388D02*
X12246253Y-15581436D01*
X12246253Y-15581436D02*
X12236729Y-15590960D01*
X12236729Y-15590960D02*
X12217682Y-15600484D01*
X12217682Y-15600484D02*
X12198634Y-15600484D01*
X12198634Y-15600484D02*
X12179586Y-15590960D01*
X12179586Y-15590960D02*
X12170063Y-15581436D01*
X12170063Y-15581436D02*
X12160539Y-15562388D01*
X12160539Y-15562388D02*
X12151015Y-15524293D01*
X12151015Y-15524293D02*
X12151015Y-15476674D01*
X12151015Y-15476674D02*
X12160539Y-15438579D01*
X12160539Y-15438579D02*
X12170063Y-15419531D01*
X12170063Y-15419531D02*
X12179586Y-15410008D01*
X12179586Y-15410008D02*
X12198634Y-15400484D01*
X12351015Y-15581436D02*
X12360539Y-15590960D01*
X12360539Y-15590960D02*
X12351015Y-15600484D01*
X12351015Y-15600484D02*
X12341491Y-15590960D01*
X12341491Y-15590960D02*
X12351015Y-15581436D01*
X12351015Y-15581436D02*
X12351015Y-15600484D01*
X12484348Y-15400484D02*
X12503396Y-15400484D01*
X12503396Y-15400484D02*
X12522444Y-15410008D01*
X12522444Y-15410008D02*
X12531967Y-15419531D01*
X12531967Y-15419531D02*
X12541491Y-15438579D01*
X12541491Y-15438579D02*
X12551015Y-15476674D01*
X12551015Y-15476674D02*
X12551015Y-15524293D01*
X12551015Y-15524293D02*
X12541491Y-15562388D01*
X12541491Y-15562388D02*
X12531967Y-15581436D01*
X12531967Y-15581436D02*
X12522444Y-15590960D01*
X12522444Y-15590960D02*
X12503396Y-15600484D01*
X12503396Y-15600484D02*
X12484348Y-15600484D01*
X12484348Y-15600484D02*
X12465301Y-15590960D01*
X12465301Y-15590960D02*
X12455777Y-15581436D01*
X12455777Y-15581436D02*
X12446253Y-15562388D01*
X12446253Y-15562388D02*
X12436729Y-15524293D01*
X12436729Y-15524293D02*
X12436729Y-15476674D01*
X12436729Y-15476674D02*
X12446253Y-15438579D01*
X12446253Y-15438579D02*
X12455777Y-15419531D01*
X12455777Y-15419531D02*
X12465301Y-15410008D01*
X12465301Y-15410008D02*
X12484348Y-15400484D01*
X12674825Y-15400484D02*
X12693872Y-15400484D01*
X12693872Y-15400484D02*
X12712920Y-15410008D01*
X12712920Y-15410008D02*
X12722444Y-15419531D01*
X12722444Y-15419531D02*
X12731967Y-15438579D01*
X12731967Y-15438579D02*
X12741491Y-15476674D01*
X12741491Y-15476674D02*
X12741491Y-15524293D01*
X12741491Y-15524293D02*
X12731967Y-15562388D01*
X12731967Y-15562388D02*
X12722444Y-15581436D01*
X12722444Y-15581436D02*
X12712920Y-15590960D01*
X12712920Y-15590960D02*
X12693872Y-15600484D01*
X12693872Y-15600484D02*
X12674825Y-15600484D01*
X12674825Y-15600484D02*
X12655777Y-15590960D01*
X12655777Y-15590960D02*
X12646253Y-15581436D01*
X12646253Y-15581436D02*
X12636729Y-15562388D01*
X12636729Y-15562388D02*
X12627206Y-15524293D01*
X12627206Y-15524293D02*
X12627206Y-15476674D01*
X12627206Y-15476674D02*
X12636729Y-15438579D01*
X12636729Y-15438579D02*
X12646253Y-15419531D01*
X12646253Y-15419531D02*
X12655777Y-15410008D01*
X12655777Y-15410008D02*
X12674825Y-15400484D01*
X12836729Y-15600484D02*
X12874825Y-15600484D01*
X12874825Y-15600484D02*
X12893872Y-15590960D01*
X12893872Y-15590960D02*
X12903396Y-15581436D01*
X12903396Y-15581436D02*
X12922444Y-15552865D01*
X12922444Y-15552865D02*
X12931967Y-15514769D01*
X12931967Y-15514769D02*
X12931967Y-15438579D01*
X12931967Y-15438579D02*
X12922444Y-15419531D01*
X12922444Y-15419531D02*
X12912920Y-15410008D01*
X12912920Y-15410008D02*
X12893872Y-15400484D01*
X12893872Y-15400484D02*
X12855777Y-15400484D01*
X12855777Y-15400484D02*
X12836729Y-15410008D01*
X12836729Y-15410008D02*
X12827206Y-15419531D01*
X12827206Y-15419531D02*
X12817682Y-15438579D01*
X12817682Y-15438579D02*
X12817682Y-15486198D01*
X12817682Y-15486198D02*
X12827206Y-15505246D01*
X12827206Y-15505246D02*
X12836729Y-15514769D01*
X12836729Y-15514769D02*
X12855777Y-15524293D01*
X12855777Y-15524293D02*
X12893872Y-15524293D01*
X12893872Y-15524293D02*
X12912920Y-15514769D01*
X12912920Y-15514769D02*
X12922444Y-15505246D01*
X12922444Y-15505246D02*
X12931967Y-15486198D01*
X13046253Y-15486198D02*
X13027206Y-15476674D01*
X13027206Y-15476674D02*
X13017682Y-15467150D01*
X13017682Y-15467150D02*
X13008158Y-15448103D01*
X13008158Y-15448103D02*
X13008158Y-15438579D01*
X13008158Y-15438579D02*
X13017682Y-15419531D01*
X13017682Y-15419531D02*
X13027206Y-15410008D01*
X13027206Y-15410008D02*
X13046253Y-15400484D01*
X13046253Y-15400484D02*
X13084348Y-15400484D01*
X13084348Y-15400484D02*
X13103396Y-15410008D01*
X13103396Y-15410008D02*
X13112920Y-15419531D01*
X13112920Y-15419531D02*
X13122444Y-15438579D01*
X13122444Y-15438579D02*
X13122444Y-15448103D01*
X13122444Y-15448103D02*
X13112920Y-15467150D01*
X13112920Y-15467150D02*
X13103396Y-15476674D01*
X13103396Y-15476674D02*
X13084348Y-15486198D01*
X13084348Y-15486198D02*
X13046253Y-15486198D01*
X13046253Y-15486198D02*
X13027206Y-15495722D01*
X13027206Y-15495722D02*
X13017682Y-15505246D01*
X13017682Y-15505246D02*
X13008158Y-15524293D01*
X13008158Y-15524293D02*
X13008158Y-15562388D01*
X13008158Y-15562388D02*
X13017682Y-15581436D01*
X13017682Y-15581436D02*
X13027206Y-15590960D01*
X13027206Y-15590960D02*
X13046253Y-15600484D01*
X13046253Y-15600484D02*
X13084348Y-15600484D01*
X13084348Y-15600484D02*
X13103396Y-15590960D01*
X13103396Y-15590960D02*
X13112920Y-15581436D01*
X13112920Y-15581436D02*
X13122444Y-15562388D01*
X13122444Y-15562388D02*
X13122444Y-15524293D01*
X13122444Y-15524293D02*
X13112920Y-15505246D01*
X13112920Y-15505246D02*
X13103396Y-15495722D01*
X13103396Y-15495722D02*
X13084348Y-15486198D01*
X13198634Y-15400484D02*
X13198634Y-15438579D01*
X13274825Y-15400484D02*
X13274825Y-15438579D01*
X13570063Y-15676674D02*
X13560539Y-15667150D01*
X13560539Y-15667150D02*
X13541491Y-15638579D01*
X13541491Y-15638579D02*
X13531968Y-15619531D01*
X13531968Y-15619531D02*
X13522444Y-15590960D01*
X13522444Y-15590960D02*
X13512920Y-15543341D01*
X13512920Y-15543341D02*
X13512920Y-15505246D01*
X13512920Y-15505246D02*
X13522444Y-15457627D01*
X13522444Y-15457627D02*
X13531968Y-15429055D01*
X13531968Y-15429055D02*
X13541491Y-15410008D01*
X13541491Y-15410008D02*
X13560539Y-15381436D01*
X13560539Y-15381436D02*
X13570063Y-15371912D01*
X13655777Y-15600484D02*
X13693872Y-15600484D01*
X13693872Y-15600484D02*
X13712920Y-15590960D01*
X13712920Y-15590960D02*
X13722444Y-15581436D01*
X13722444Y-15581436D02*
X13741491Y-15552865D01*
X13741491Y-15552865D02*
X13751015Y-15514769D01*
X13751015Y-15514769D02*
X13751015Y-15438579D01*
X13751015Y-15438579D02*
X13741491Y-15419531D01*
X13741491Y-15419531D02*
X13731968Y-15410008D01*
X13731968Y-15410008D02*
X13712920Y-15400484D01*
X13712920Y-15400484D02*
X13674825Y-15400484D01*
X13674825Y-15400484D02*
X13655777Y-15410008D01*
X13655777Y-15410008D02*
X13646253Y-15419531D01*
X13646253Y-15419531D02*
X13636729Y-15438579D01*
X13636729Y-15438579D02*
X13636729Y-15486198D01*
X13636729Y-15486198D02*
X13646253Y-15505246D01*
X13646253Y-15505246D02*
X13655777Y-15514769D01*
X13655777Y-15514769D02*
X13674825Y-15524293D01*
X13674825Y-15524293D02*
X13712920Y-15524293D01*
X13712920Y-15524293D02*
X13731968Y-15514769D01*
X13731968Y-15514769D02*
X13741491Y-15505246D01*
X13741491Y-15505246D02*
X13751015Y-15486198D01*
X13817682Y-15400484D02*
X13951015Y-15400484D01*
X13951015Y-15400484D02*
X13865301Y-15600484D01*
X14179587Y-15600484D02*
X14179587Y-15400484D01*
X14265301Y-15600484D02*
X14265301Y-15495722D01*
X14265301Y-15495722D02*
X14255777Y-15476674D01*
X14255777Y-15476674D02*
X14236730Y-15467150D01*
X14236730Y-15467150D02*
X14208158Y-15467150D01*
X14208158Y-15467150D02*
X14189110Y-15476674D01*
X14189110Y-15476674D02*
X14179587Y-15486198D01*
X14389110Y-15600484D02*
X14370063Y-15590960D01*
X14370063Y-15590960D02*
X14360539Y-15581436D01*
X14360539Y-15581436D02*
X14351015Y-15562388D01*
X14351015Y-15562388D02*
X14351015Y-15505246D01*
X14351015Y-15505246D02*
X14360539Y-15486198D01*
X14360539Y-15486198D02*
X14370063Y-15476674D01*
X14370063Y-15476674D02*
X14389110Y-15467150D01*
X14389110Y-15467150D02*
X14417682Y-15467150D01*
X14417682Y-15467150D02*
X14436730Y-15476674D01*
X14436730Y-15476674D02*
X14446253Y-15486198D01*
X14446253Y-15486198D02*
X14455777Y-15505246D01*
X14455777Y-15505246D02*
X14455777Y-15562388D01*
X14455777Y-15562388D02*
X14446253Y-15581436D01*
X14446253Y-15581436D02*
X14436730Y-15590960D01*
X14436730Y-15590960D02*
X14417682Y-15600484D01*
X14417682Y-15600484D02*
X14389110Y-15600484D01*
X14570063Y-15600484D02*
X14551015Y-15590960D01*
X14551015Y-15590960D02*
X14541491Y-15571912D01*
X14541491Y-15571912D02*
X14541491Y-15400484D01*
X14722444Y-15590960D02*
X14703396Y-15600484D01*
X14703396Y-15600484D02*
X14665301Y-15600484D01*
X14665301Y-15600484D02*
X14646253Y-15590960D01*
X14646253Y-15590960D02*
X14636730Y-15571912D01*
X14636730Y-15571912D02*
X14636730Y-15495722D01*
X14636730Y-15495722D02*
X14646253Y-15476674D01*
X14646253Y-15476674D02*
X14665301Y-15467150D01*
X14665301Y-15467150D02*
X14703396Y-15467150D01*
X14703396Y-15467150D02*
X14722444Y-15476674D01*
X14722444Y-15476674D02*
X14731968Y-15495722D01*
X14731968Y-15495722D02*
X14731968Y-15514769D01*
X14731968Y-15514769D02*
X14636730Y-15533817D01*
X14808158Y-15590960D02*
X14827206Y-15600484D01*
X14827206Y-15600484D02*
X14865301Y-15600484D01*
X14865301Y-15600484D02*
X14884349Y-15590960D01*
X14884349Y-15590960D02*
X14893872Y-15571912D01*
X14893872Y-15571912D02*
X14893872Y-15562388D01*
X14893872Y-15562388D02*
X14884349Y-15543341D01*
X14884349Y-15543341D02*
X14865301Y-15533817D01*
X14865301Y-15533817D02*
X14836730Y-15533817D01*
X14836730Y-15533817D02*
X14817682Y-15524293D01*
X14817682Y-15524293D02*
X14808158Y-15505246D01*
X14808158Y-15505246D02*
X14808158Y-15495722D01*
X14808158Y-15495722D02*
X14817682Y-15476674D01*
X14817682Y-15476674D02*
X14836730Y-15467150D01*
X14836730Y-15467150D02*
X14865301Y-15467150D01*
X14865301Y-15467150D02*
X14884349Y-15476674D01*
X14960539Y-15676674D02*
X14970063Y-15667150D01*
X14970063Y-15667150D02*
X14989111Y-15638579D01*
X14989111Y-15638579D02*
X14998634Y-15619531D01*
X14998634Y-15619531D02*
X15008158Y-15590960D01*
X15008158Y-15590960D02*
X15017682Y-15543341D01*
X15017682Y-15543341D02*
X15017682Y-15505246D01*
X15017682Y-15505246D02*
X15008158Y-15457627D01*
X15008158Y-15457627D02*
X14998634Y-15429055D01*
X14998634Y-15429055D02*
X14989111Y-15410008D01*
X14989111Y-15410008D02*
X14970063Y-15381436D01*
X14970063Y-15381436D02*
X14960539Y-15371912D01*
D10*
X9980000Y-15758000D02*
X9980000Y-15788000D01*
X9965000Y-15773000D02*
X9995000Y-15773000D01*
D11*
X10293872Y-15664484D02*
X10312920Y-15664484D01*
X10312920Y-15664484D02*
X10331967Y-15674008D01*
X10331967Y-15674008D02*
X10341491Y-15683531D01*
X10341491Y-15683531D02*
X10351015Y-15702579D01*
X10351015Y-15702579D02*
X10360539Y-15740674D01*
X10360539Y-15740674D02*
X10360539Y-15788293D01*
X10360539Y-15788293D02*
X10351015Y-15826388D01*
X10351015Y-15826388D02*
X10341491Y-15845436D01*
X10341491Y-15845436D02*
X10331967Y-15854960D01*
X10331967Y-15854960D02*
X10312920Y-15864484D01*
X10312920Y-15864484D02*
X10293872Y-15864484D01*
X10293872Y-15864484D02*
X10274824Y-15854960D01*
X10274824Y-15854960D02*
X10265301Y-15845436D01*
X10265301Y-15845436D02*
X10255777Y-15826388D01*
X10255777Y-15826388D02*
X10246253Y-15788293D01*
X10246253Y-15788293D02*
X10246253Y-15740674D01*
X10246253Y-15740674D02*
X10255777Y-15702579D01*
X10255777Y-15702579D02*
X10265301Y-15683531D01*
X10265301Y-15683531D02*
X10274824Y-15674008D01*
X10274824Y-15674008D02*
X10293872Y-15664484D01*
X10446253Y-15845436D02*
X10455777Y-15854960D01*
X10455777Y-15854960D02*
X10446253Y-15864484D01*
X10446253Y-15864484D02*
X10436729Y-15854960D01*
X10436729Y-15854960D02*
X10446253Y-15845436D01*
X10446253Y-15845436D02*
X10446253Y-15864484D01*
X10522444Y-15664484D02*
X10646253Y-15664484D01*
X10646253Y-15664484D02*
X10579586Y-15740674D01*
X10579586Y-15740674D02*
X10608158Y-15740674D01*
X10608158Y-15740674D02*
X10627205Y-15750198D01*
X10627205Y-15750198D02*
X10636729Y-15759722D01*
X10636729Y-15759722D02*
X10646253Y-15778769D01*
X10646253Y-15778769D02*
X10646253Y-15826388D01*
X10646253Y-15826388D02*
X10636729Y-15845436D01*
X10636729Y-15845436D02*
X10627205Y-15854960D01*
X10627205Y-15854960D02*
X10608158Y-15864484D01*
X10608158Y-15864484D02*
X10551015Y-15864484D01*
X10551015Y-15864484D02*
X10531967Y-15854960D01*
X10531967Y-15854960D02*
X10522444Y-15845436D01*
X10770063Y-15664484D02*
X10789110Y-15664484D01*
X10789110Y-15664484D02*
X10808158Y-15674008D01*
X10808158Y-15674008D02*
X10817682Y-15683531D01*
X10817682Y-15683531D02*
X10827205Y-15702579D01*
X10827205Y-15702579D02*
X10836729Y-15740674D01*
X10836729Y-15740674D02*
X10836729Y-15788293D01*
X10836729Y-15788293D02*
X10827205Y-15826388D01*
X10827205Y-15826388D02*
X10817682Y-15845436D01*
X10817682Y-15845436D02*
X10808158Y-15854960D01*
X10808158Y-15854960D02*
X10789110Y-15864484D01*
X10789110Y-15864484D02*
X10770063Y-15864484D01*
X10770063Y-15864484D02*
X10751015Y-15854960D01*
X10751015Y-15854960D02*
X10741491Y-15845436D01*
X10741491Y-15845436D02*
X10731967Y-15826388D01*
X10731967Y-15826388D02*
X10722444Y-15788293D01*
X10722444Y-15788293D02*
X10722444Y-15740674D01*
X10722444Y-15740674D02*
X10731967Y-15702579D01*
X10731967Y-15702579D02*
X10741491Y-15683531D01*
X10741491Y-15683531D02*
X10751015Y-15674008D01*
X10751015Y-15674008D02*
X10770063Y-15664484D01*
X10960539Y-15664484D02*
X10979586Y-15664484D01*
X10979586Y-15664484D02*
X10998634Y-15674008D01*
X10998634Y-15674008D02*
X11008158Y-15683531D01*
X11008158Y-15683531D02*
X11017682Y-15702579D01*
X11017682Y-15702579D02*
X11027205Y-15740674D01*
X11027205Y-15740674D02*
X11027205Y-15788293D01*
X11027205Y-15788293D02*
X11017682Y-15826388D01*
X11017682Y-15826388D02*
X11008158Y-15845436D01*
X11008158Y-15845436D02*
X10998634Y-15854960D01*
X10998634Y-15854960D02*
X10979586Y-15864484D01*
X10979586Y-15864484D02*
X10960539Y-15864484D01*
X10960539Y-15864484D02*
X10941491Y-15854960D01*
X10941491Y-15854960D02*
X10931967Y-15845436D01*
X10931967Y-15845436D02*
X10922444Y-15826388D01*
X10922444Y-15826388D02*
X10912920Y-15788293D01*
X10912920Y-15788293D02*
X10912920Y-15740674D01*
X10912920Y-15740674D02*
X10922444Y-15702579D01*
X10922444Y-15702579D02*
X10931967Y-15683531D01*
X10931967Y-15683531D02*
X10941491Y-15674008D01*
X10941491Y-15674008D02*
X10960539Y-15664484D01*
X11112920Y-15864484D02*
X11112920Y-15731150D01*
X11112920Y-15750198D02*
X11122444Y-15740674D01*
X11122444Y-15740674D02*
X11141491Y-15731150D01*
X11141491Y-15731150D02*
X11170063Y-15731150D01*
X11170063Y-15731150D02*
X11189110Y-15740674D01*
X11189110Y-15740674D02*
X11198634Y-15759722D01*
X11198634Y-15759722D02*
X11198634Y-15864484D01*
X11198634Y-15759722D02*
X11208158Y-15740674D01*
X11208158Y-15740674D02*
X11227205Y-15731150D01*
X11227205Y-15731150D02*
X11255777Y-15731150D01*
X11255777Y-15731150D02*
X11274824Y-15740674D01*
X11274824Y-15740674D02*
X11284348Y-15759722D01*
X11284348Y-15759722D02*
X11284348Y-15864484D01*
X11379586Y-15864484D02*
X11379586Y-15731150D01*
X11379586Y-15750198D02*
X11389110Y-15740674D01*
X11389110Y-15740674D02*
X11408158Y-15731150D01*
X11408158Y-15731150D02*
X11436729Y-15731150D01*
X11436729Y-15731150D02*
X11455777Y-15740674D01*
X11455777Y-15740674D02*
X11465301Y-15759722D01*
X11465301Y-15759722D02*
X11465301Y-15864484D01*
X11465301Y-15759722D02*
X11474824Y-15740674D01*
X11474824Y-15740674D02*
X11493872Y-15731150D01*
X11493872Y-15731150D02*
X11522443Y-15731150D01*
X11522443Y-15731150D02*
X11541491Y-15740674D01*
X11541491Y-15740674D02*
X11551015Y-15759722D01*
X11551015Y-15759722D02*
X11551015Y-15864484D01*
X11941491Y-15654960D02*
X11770063Y-15912103D01*
X12198634Y-15664484D02*
X12217682Y-15664484D01*
X12217682Y-15664484D02*
X12236729Y-15674008D01*
X12236729Y-15674008D02*
X12246253Y-15683531D01*
X12246253Y-15683531D02*
X12255777Y-15702579D01*
X12255777Y-15702579D02*
X12265301Y-15740674D01*
X12265301Y-15740674D02*
X12265301Y-15788293D01*
X12265301Y-15788293D02*
X12255777Y-15826388D01*
X12255777Y-15826388D02*
X12246253Y-15845436D01*
X12246253Y-15845436D02*
X12236729Y-15854960D01*
X12236729Y-15854960D02*
X12217682Y-15864484D01*
X12217682Y-15864484D02*
X12198634Y-15864484D01*
X12198634Y-15864484D02*
X12179586Y-15854960D01*
X12179586Y-15854960D02*
X12170063Y-15845436D01*
X12170063Y-15845436D02*
X12160539Y-15826388D01*
X12160539Y-15826388D02*
X12151015Y-15788293D01*
X12151015Y-15788293D02*
X12151015Y-15740674D01*
X12151015Y-15740674D02*
X12160539Y-15702579D01*
X12160539Y-15702579D02*
X12170063Y-15683531D01*
X12170063Y-15683531D02*
X12179586Y-15674008D01*
X12179586Y-15674008D02*
X12198634Y-15664484D01*
X12351015Y-15845436D02*
X12360539Y-15854960D01*
X12360539Y-15854960D02*
X12351015Y-15864484D01*
X12351015Y-15864484D02*
X12341491Y-15854960D01*
X12341491Y-15854960D02*
X12351015Y-15845436D01*
X12351015Y-15845436D02*
X12351015Y-15864484D01*
X12484348Y-15664484D02*
X12503396Y-15664484D01*
X12503396Y-15664484D02*
X12522444Y-15674008D01*
X12522444Y-15674008D02*
X12531967Y-15683531D01*
X12531967Y-15683531D02*
X12541491Y-15702579D01*
X12541491Y-15702579D02*
X12551015Y-15740674D01*
X12551015Y-15740674D02*
X12551015Y-15788293D01*
X12551015Y-15788293D02*
X12541491Y-15826388D01*
X12541491Y-15826388D02*
X12531967Y-15845436D01*
X12531967Y-15845436D02*
X12522444Y-15854960D01*
X12522444Y-15854960D02*
X12503396Y-15864484D01*
X12503396Y-15864484D02*
X12484348Y-15864484D01*
X12484348Y-15864484D02*
X12465301Y-15854960D01*
X12465301Y-15854960D02*
X12455777Y-15845436D01*
X12455777Y-15845436D02*
X12446253Y-15826388D01*
X12446253Y-15826388D02*
X12436729Y-15788293D01*
X12436729Y-15788293D02*
X12436729Y-15740674D01*
X12436729Y-15740674D02*
X12446253Y-15702579D01*
X12446253Y-15702579D02*
X12455777Y-15683531D01*
X12455777Y-15683531D02*
X12465301Y-15674008D01*
X12465301Y-15674008D02*
X12484348Y-15664484D01*
X12741491Y-15864484D02*
X12627206Y-15864484D01*
X12684348Y-15864484D02*
X12684348Y-15664484D01*
X12684348Y-15664484D02*
X12665301Y-15693055D01*
X12665301Y-15693055D02*
X12646253Y-15712103D01*
X12646253Y-15712103D02*
X12627206Y-15721627D01*
X12931967Y-15864484D02*
X12817682Y-15864484D01*
X12874825Y-15864484D02*
X12874825Y-15664484D01*
X12874825Y-15664484D02*
X12855777Y-15693055D01*
X12855777Y-15693055D02*
X12836729Y-15712103D01*
X12836729Y-15712103D02*
X12817682Y-15721627D01*
X13046253Y-15750198D02*
X13027206Y-15740674D01*
X13027206Y-15740674D02*
X13017682Y-15731150D01*
X13017682Y-15731150D02*
X13008158Y-15712103D01*
X13008158Y-15712103D02*
X13008158Y-15702579D01*
X13008158Y-15702579D02*
X13017682Y-15683531D01*
X13017682Y-15683531D02*
X13027206Y-15674008D01*
X13027206Y-15674008D02*
X13046253Y-15664484D01*
X13046253Y-15664484D02*
X13084348Y-15664484D01*
X13084348Y-15664484D02*
X13103396Y-15674008D01*
X13103396Y-15674008D02*
X13112920Y-15683531D01*
X13112920Y-15683531D02*
X13122444Y-15702579D01*
X13122444Y-15702579D02*
X13122444Y-15712103D01*
X13122444Y-15712103D02*
X13112920Y-15731150D01*
X13112920Y-15731150D02*
X13103396Y-15740674D01*
X13103396Y-15740674D02*
X13084348Y-15750198D01*
X13084348Y-15750198D02*
X13046253Y-15750198D01*
X13046253Y-15750198D02*
X13027206Y-15759722D01*
X13027206Y-15759722D02*
X13017682Y-15769246D01*
X13017682Y-15769246D02*
X13008158Y-15788293D01*
X13008158Y-15788293D02*
X13008158Y-15826388D01*
X13008158Y-15826388D02*
X13017682Y-15845436D01*
X13017682Y-15845436D02*
X13027206Y-15854960D01*
X13027206Y-15854960D02*
X13046253Y-15864484D01*
X13046253Y-15864484D02*
X13084348Y-15864484D01*
X13084348Y-15864484D02*
X13103396Y-15854960D01*
X13103396Y-15854960D02*
X13112920Y-15845436D01*
X13112920Y-15845436D02*
X13122444Y-15826388D01*
X13122444Y-15826388D02*
X13122444Y-15788293D01*
X13122444Y-15788293D02*
X13112920Y-15769246D01*
X13112920Y-15769246D02*
X13103396Y-15759722D01*
X13103396Y-15759722D02*
X13084348Y-15750198D01*
X13198634Y-15664484D02*
X13198634Y-15702579D01*
X13274825Y-15664484D02*
X13274825Y-15702579D01*
X13570063Y-15940674D02*
X13560539Y-15931150D01*
X13560539Y-15931150D02*
X13541491Y-15902579D01*
X13541491Y-15902579D02*
X13531968Y-15883531D01*
X13531968Y-15883531D02*
X13522444Y-15854960D01*
X13522444Y-15854960D02*
X13512920Y-15807341D01*
X13512920Y-15807341D02*
X13512920Y-15769246D01*
X13512920Y-15769246D02*
X13522444Y-15721627D01*
X13522444Y-15721627D02*
X13531968Y-15693055D01*
X13531968Y-15693055D02*
X13541491Y-15674008D01*
X13541491Y-15674008D02*
X13560539Y-15645436D01*
X13560539Y-15645436D02*
X13570063Y-15635912D01*
X13741491Y-15664484D02*
X13646253Y-15664484D01*
X13646253Y-15664484D02*
X13636729Y-15759722D01*
X13636729Y-15759722D02*
X13646253Y-15750198D01*
X13646253Y-15750198D02*
X13665301Y-15740674D01*
X13665301Y-15740674D02*
X13712920Y-15740674D01*
X13712920Y-15740674D02*
X13731968Y-15750198D01*
X13731968Y-15750198D02*
X13741491Y-15759722D01*
X13741491Y-15759722D02*
X13751015Y-15778769D01*
X13751015Y-15778769D02*
X13751015Y-15826388D01*
X13751015Y-15826388D02*
X13741491Y-15845436D01*
X13741491Y-15845436D02*
X13731968Y-15854960D01*
X13731968Y-15854960D02*
X13712920Y-15864484D01*
X13712920Y-15864484D02*
X13665301Y-15864484D01*
X13665301Y-15864484D02*
X13646253Y-15854960D01*
X13646253Y-15854960D02*
X13636729Y-15845436D01*
X13922444Y-15731150D02*
X13922444Y-15864484D01*
X13874825Y-15654960D02*
X13827206Y-15797817D01*
X13827206Y-15797817D02*
X13951015Y-15797817D01*
X14065301Y-15664484D02*
X14084349Y-15664484D01*
X14084349Y-15664484D02*
X14103396Y-15674008D01*
X14103396Y-15674008D02*
X14112920Y-15683531D01*
X14112920Y-15683531D02*
X14122444Y-15702579D01*
X14122444Y-15702579D02*
X14131968Y-15740674D01*
X14131968Y-15740674D02*
X14131968Y-15788293D01*
X14131968Y-15788293D02*
X14122444Y-15826388D01*
X14122444Y-15826388D02*
X14112920Y-15845436D01*
X14112920Y-15845436D02*
X14103396Y-15854960D01*
X14103396Y-15854960D02*
X14084349Y-15864484D01*
X14084349Y-15864484D02*
X14065301Y-15864484D01*
X14065301Y-15864484D02*
X14046253Y-15854960D01*
X14046253Y-15854960D02*
X14036729Y-15845436D01*
X14036729Y-15845436D02*
X14027206Y-15826388D01*
X14027206Y-15826388D02*
X14017682Y-15788293D01*
X14017682Y-15788293D02*
X14017682Y-15740674D01*
X14017682Y-15740674D02*
X14027206Y-15702579D01*
X14027206Y-15702579D02*
X14036729Y-15683531D01*
X14036729Y-15683531D02*
X14046253Y-15674008D01*
X14046253Y-15674008D02*
X14065301Y-15664484D01*
X14370063Y-15864484D02*
X14370063Y-15664484D01*
X14455777Y-15864484D02*
X14455777Y-15759722D01*
X14455777Y-15759722D02*
X14446253Y-15740674D01*
X14446253Y-15740674D02*
X14427206Y-15731150D01*
X14427206Y-15731150D02*
X14398634Y-15731150D01*
X14398634Y-15731150D02*
X14379587Y-15740674D01*
X14379587Y-15740674D02*
X14370063Y-15750198D01*
X14579587Y-15864484D02*
X14560539Y-15854960D01*
X14560539Y-15854960D02*
X14551015Y-15845436D01*
X14551015Y-15845436D02*
X14541491Y-15826388D01*
X14541491Y-15826388D02*
X14541491Y-15769246D01*
X14541491Y-15769246D02*
X14551015Y-15750198D01*
X14551015Y-15750198D02*
X14560539Y-15740674D01*
X14560539Y-15740674D02*
X14579587Y-15731150D01*
X14579587Y-15731150D02*
X14608158Y-15731150D01*
X14608158Y-15731150D02*
X14627206Y-15740674D01*
X14627206Y-15740674D02*
X14636730Y-15750198D01*
X14636730Y-15750198D02*
X14646253Y-15769246D01*
X14646253Y-15769246D02*
X14646253Y-15826388D01*
X14646253Y-15826388D02*
X14636730Y-15845436D01*
X14636730Y-15845436D02*
X14627206Y-15854960D01*
X14627206Y-15854960D02*
X14608158Y-15864484D01*
X14608158Y-15864484D02*
X14579587Y-15864484D01*
X14760539Y-15864484D02*
X14741491Y-15854960D01*
X14741491Y-15854960D02*
X14731968Y-15835912D01*
X14731968Y-15835912D02*
X14731968Y-15664484D01*
X14912920Y-15854960D02*
X14893872Y-15864484D01*
X14893872Y-15864484D02*
X14855777Y-15864484D01*
X14855777Y-15864484D02*
X14836730Y-15854960D01*
X14836730Y-15854960D02*
X14827206Y-15835912D01*
X14827206Y-15835912D02*
X14827206Y-15759722D01*
X14827206Y-15759722D02*
X14836730Y-15740674D01*
X14836730Y-15740674D02*
X14855777Y-15731150D01*
X14855777Y-15731150D02*
X14893872Y-15731150D01*
X14893872Y-15731150D02*
X14912920Y-15740674D01*
X14912920Y-15740674D02*
X14922444Y-15759722D01*
X14922444Y-15759722D02*
X14922444Y-15778769D01*
X14922444Y-15778769D02*
X14827206Y-15797817D01*
X14998634Y-15854960D02*
X15017682Y-15864484D01*
X15017682Y-15864484D02*
X15055777Y-15864484D01*
X15055777Y-15864484D02*
X15074825Y-15854960D01*
X15074825Y-15854960D02*
X15084349Y-15835912D01*
X15084349Y-15835912D02*
X15084349Y-15826388D01*
X15084349Y-15826388D02*
X15074825Y-15807341D01*
X15074825Y-15807341D02*
X15055777Y-15797817D01*
X15055777Y-15797817D02*
X15027206Y-15797817D01*
X15027206Y-15797817D02*
X15008158Y-15788293D01*
X15008158Y-15788293D02*
X14998634Y-15769246D01*
X14998634Y-15769246D02*
X14998634Y-15759722D01*
X14998634Y-15759722D02*
X15008158Y-15740674D01*
X15008158Y-15740674D02*
X15027206Y-15731150D01*
X15027206Y-15731150D02*
X15055777Y-15731150D01*
X15055777Y-15731150D02*
X15074825Y-15740674D01*
X15151015Y-15940674D02*
X15160539Y-15931150D01*
X15160539Y-15931150D02*
X15179587Y-15902579D01*
X15179587Y-15902579D02*
X15189111Y-15883531D01*
X15189111Y-15883531D02*
X15198634Y-15854960D01*
X15198634Y-15854960D02*
X15208158Y-15807341D01*
X15208158Y-15807341D02*
X15208158Y-15769246D01*
X15208158Y-15769246D02*
X15198634Y-15721627D01*
X15198634Y-15721627D02*
X15189111Y-15693055D01*
X15189111Y-15693055D02*
X15179587Y-15674008D01*
X15179587Y-15674008D02*
X15160539Y-15645436D01*
X15160539Y-15645436D02*
X15151015Y-15635912D01*
D10*
X9986213Y-16058213D02*
X9986213Y-16015787D01*
X9943787Y-16015787D01*
X9943787Y-16058213D01*
X9986213Y-16058213D01*
D11*
X10293872Y-15928484D02*
X10312920Y-15928484D01*
X10312920Y-15928484D02*
X10331967Y-15938008D01*
X10331967Y-15938008D02*
X10341491Y-15947531D01*
X10341491Y-15947531D02*
X10351015Y-15966579D01*
X10351015Y-15966579D02*
X10360539Y-16004674D01*
X10360539Y-16004674D02*
X10360539Y-16052293D01*
X10360539Y-16052293D02*
X10351015Y-16090388D01*
X10351015Y-16090388D02*
X10341491Y-16109436D01*
X10341491Y-16109436D02*
X10331967Y-16118960D01*
X10331967Y-16118960D02*
X10312920Y-16128484D01*
X10312920Y-16128484D02*
X10293872Y-16128484D01*
X10293872Y-16128484D02*
X10274824Y-16118960D01*
X10274824Y-16118960D02*
X10265301Y-16109436D01*
X10265301Y-16109436D02*
X10255777Y-16090388D01*
X10255777Y-16090388D02*
X10246253Y-16052293D01*
X10246253Y-16052293D02*
X10246253Y-16004674D01*
X10246253Y-16004674D02*
X10255777Y-15966579D01*
X10255777Y-15966579D02*
X10265301Y-15947531D01*
X10265301Y-15947531D02*
X10274824Y-15938008D01*
X10274824Y-15938008D02*
X10293872Y-15928484D01*
X10446253Y-16109436D02*
X10455777Y-16118960D01*
X10455777Y-16118960D02*
X10446253Y-16128484D01*
X10446253Y-16128484D02*
X10436729Y-16118960D01*
X10436729Y-16118960D02*
X10446253Y-16109436D01*
X10446253Y-16109436D02*
X10446253Y-16128484D01*
X10627205Y-15928484D02*
X10589110Y-15928484D01*
X10589110Y-15928484D02*
X10570063Y-15938008D01*
X10570063Y-15938008D02*
X10560539Y-15947531D01*
X10560539Y-15947531D02*
X10541491Y-15976103D01*
X10541491Y-15976103D02*
X10531967Y-16014198D01*
X10531967Y-16014198D02*
X10531967Y-16090388D01*
X10531967Y-16090388D02*
X10541491Y-16109436D01*
X10541491Y-16109436D02*
X10551015Y-16118960D01*
X10551015Y-16118960D02*
X10570063Y-16128484D01*
X10570063Y-16128484D02*
X10608158Y-16128484D01*
X10608158Y-16128484D02*
X10627205Y-16118960D01*
X10627205Y-16118960D02*
X10636729Y-16109436D01*
X10636729Y-16109436D02*
X10646253Y-16090388D01*
X10646253Y-16090388D02*
X10646253Y-16042769D01*
X10646253Y-16042769D02*
X10636729Y-16023722D01*
X10636729Y-16023722D02*
X10627205Y-16014198D01*
X10627205Y-16014198D02*
X10608158Y-16004674D01*
X10608158Y-16004674D02*
X10570063Y-16004674D01*
X10570063Y-16004674D02*
X10551015Y-16014198D01*
X10551015Y-16014198D02*
X10541491Y-16023722D01*
X10541491Y-16023722D02*
X10531967Y-16042769D01*
X10770063Y-15928484D02*
X10789110Y-15928484D01*
X10789110Y-15928484D02*
X10808158Y-15938008D01*
X10808158Y-15938008D02*
X10817682Y-15947531D01*
X10817682Y-15947531D02*
X10827205Y-15966579D01*
X10827205Y-15966579D02*
X10836729Y-16004674D01*
X10836729Y-16004674D02*
X10836729Y-16052293D01*
X10836729Y-16052293D02*
X10827205Y-16090388D01*
X10827205Y-16090388D02*
X10817682Y-16109436D01*
X10817682Y-16109436D02*
X10808158Y-16118960D01*
X10808158Y-16118960D02*
X10789110Y-16128484D01*
X10789110Y-16128484D02*
X10770063Y-16128484D01*
X10770063Y-16128484D02*
X10751015Y-16118960D01*
X10751015Y-16118960D02*
X10741491Y-16109436D01*
X10741491Y-16109436D02*
X10731967Y-16090388D01*
X10731967Y-16090388D02*
X10722444Y-16052293D01*
X10722444Y-16052293D02*
X10722444Y-16004674D01*
X10722444Y-16004674D02*
X10731967Y-15966579D01*
X10731967Y-15966579D02*
X10741491Y-15947531D01*
X10741491Y-15947531D02*
X10751015Y-15938008D01*
X10751015Y-15938008D02*
X10770063Y-15928484D01*
X10960539Y-15928484D02*
X10979586Y-15928484D01*
X10979586Y-15928484D02*
X10998634Y-15938008D01*
X10998634Y-15938008D02*
X11008158Y-15947531D01*
X11008158Y-15947531D02*
X11017682Y-15966579D01*
X11017682Y-15966579D02*
X11027205Y-16004674D01*
X11027205Y-16004674D02*
X11027205Y-16052293D01*
X11027205Y-16052293D02*
X11017682Y-16090388D01*
X11017682Y-16090388D02*
X11008158Y-16109436D01*
X11008158Y-16109436D02*
X10998634Y-16118960D01*
X10998634Y-16118960D02*
X10979586Y-16128484D01*
X10979586Y-16128484D02*
X10960539Y-16128484D01*
X10960539Y-16128484D02*
X10941491Y-16118960D01*
X10941491Y-16118960D02*
X10931967Y-16109436D01*
X10931967Y-16109436D02*
X10922444Y-16090388D01*
X10922444Y-16090388D02*
X10912920Y-16052293D01*
X10912920Y-16052293D02*
X10912920Y-16004674D01*
X10912920Y-16004674D02*
X10922444Y-15966579D01*
X10922444Y-15966579D02*
X10931967Y-15947531D01*
X10931967Y-15947531D02*
X10941491Y-15938008D01*
X10941491Y-15938008D02*
X10960539Y-15928484D01*
X11112920Y-16128484D02*
X11112920Y-15995150D01*
X11112920Y-16014198D02*
X11122444Y-16004674D01*
X11122444Y-16004674D02*
X11141491Y-15995150D01*
X11141491Y-15995150D02*
X11170063Y-15995150D01*
X11170063Y-15995150D02*
X11189110Y-16004674D01*
X11189110Y-16004674D02*
X11198634Y-16023722D01*
X11198634Y-16023722D02*
X11198634Y-16128484D01*
X11198634Y-16023722D02*
X11208158Y-16004674D01*
X11208158Y-16004674D02*
X11227205Y-15995150D01*
X11227205Y-15995150D02*
X11255777Y-15995150D01*
X11255777Y-15995150D02*
X11274824Y-16004674D01*
X11274824Y-16004674D02*
X11284348Y-16023722D01*
X11284348Y-16023722D02*
X11284348Y-16128484D01*
X11379586Y-16128484D02*
X11379586Y-15995150D01*
X11379586Y-16014198D02*
X11389110Y-16004674D01*
X11389110Y-16004674D02*
X11408158Y-15995150D01*
X11408158Y-15995150D02*
X11436729Y-15995150D01*
X11436729Y-15995150D02*
X11455777Y-16004674D01*
X11455777Y-16004674D02*
X11465301Y-16023722D01*
X11465301Y-16023722D02*
X11465301Y-16128484D01*
X11465301Y-16023722D02*
X11474824Y-16004674D01*
X11474824Y-16004674D02*
X11493872Y-15995150D01*
X11493872Y-15995150D02*
X11522443Y-15995150D01*
X11522443Y-15995150D02*
X11541491Y-16004674D01*
X11541491Y-16004674D02*
X11551015Y-16023722D01*
X11551015Y-16023722D02*
X11551015Y-16128484D01*
X11941491Y-15918960D02*
X11770063Y-16176103D01*
X12198634Y-15928484D02*
X12217682Y-15928484D01*
X12217682Y-15928484D02*
X12236729Y-15938008D01*
X12236729Y-15938008D02*
X12246253Y-15947531D01*
X12246253Y-15947531D02*
X12255777Y-15966579D01*
X12255777Y-15966579D02*
X12265301Y-16004674D01*
X12265301Y-16004674D02*
X12265301Y-16052293D01*
X12265301Y-16052293D02*
X12255777Y-16090388D01*
X12255777Y-16090388D02*
X12246253Y-16109436D01*
X12246253Y-16109436D02*
X12236729Y-16118960D01*
X12236729Y-16118960D02*
X12217682Y-16128484D01*
X12217682Y-16128484D02*
X12198634Y-16128484D01*
X12198634Y-16128484D02*
X12179586Y-16118960D01*
X12179586Y-16118960D02*
X12170063Y-16109436D01*
X12170063Y-16109436D02*
X12160539Y-16090388D01*
X12160539Y-16090388D02*
X12151015Y-16052293D01*
X12151015Y-16052293D02*
X12151015Y-16004674D01*
X12151015Y-16004674D02*
X12160539Y-15966579D01*
X12160539Y-15966579D02*
X12170063Y-15947531D01*
X12170063Y-15947531D02*
X12179586Y-15938008D01*
X12179586Y-15938008D02*
X12198634Y-15928484D01*
X12351015Y-16109436D02*
X12360539Y-16118960D01*
X12360539Y-16118960D02*
X12351015Y-16128484D01*
X12351015Y-16128484D02*
X12341491Y-16118960D01*
X12341491Y-16118960D02*
X12351015Y-16109436D01*
X12351015Y-16109436D02*
X12351015Y-16128484D01*
X12484348Y-15928484D02*
X12503396Y-15928484D01*
X12503396Y-15928484D02*
X12522444Y-15938008D01*
X12522444Y-15938008D02*
X12531967Y-15947531D01*
X12531967Y-15947531D02*
X12541491Y-15966579D01*
X12541491Y-15966579D02*
X12551015Y-16004674D01*
X12551015Y-16004674D02*
X12551015Y-16052293D01*
X12551015Y-16052293D02*
X12541491Y-16090388D01*
X12541491Y-16090388D02*
X12531967Y-16109436D01*
X12531967Y-16109436D02*
X12522444Y-16118960D01*
X12522444Y-16118960D02*
X12503396Y-16128484D01*
X12503396Y-16128484D02*
X12484348Y-16128484D01*
X12484348Y-16128484D02*
X12465301Y-16118960D01*
X12465301Y-16118960D02*
X12455777Y-16109436D01*
X12455777Y-16109436D02*
X12446253Y-16090388D01*
X12446253Y-16090388D02*
X12436729Y-16052293D01*
X12436729Y-16052293D02*
X12436729Y-16004674D01*
X12436729Y-16004674D02*
X12446253Y-15966579D01*
X12446253Y-15966579D02*
X12455777Y-15947531D01*
X12455777Y-15947531D02*
X12465301Y-15938008D01*
X12465301Y-15938008D02*
X12484348Y-15928484D01*
X12627206Y-15947531D02*
X12636729Y-15938008D01*
X12636729Y-15938008D02*
X12655777Y-15928484D01*
X12655777Y-15928484D02*
X12703396Y-15928484D01*
X12703396Y-15928484D02*
X12722444Y-15938008D01*
X12722444Y-15938008D02*
X12731967Y-15947531D01*
X12731967Y-15947531D02*
X12741491Y-15966579D01*
X12741491Y-15966579D02*
X12741491Y-15985627D01*
X12741491Y-15985627D02*
X12731967Y-16014198D01*
X12731967Y-16014198D02*
X12617682Y-16128484D01*
X12617682Y-16128484D02*
X12741491Y-16128484D01*
X12808158Y-15928484D02*
X12931967Y-15928484D01*
X12931967Y-15928484D02*
X12865301Y-16004674D01*
X12865301Y-16004674D02*
X12893872Y-16004674D01*
X12893872Y-16004674D02*
X12912920Y-16014198D01*
X12912920Y-16014198D02*
X12922444Y-16023722D01*
X12922444Y-16023722D02*
X12931967Y-16042769D01*
X12931967Y-16042769D02*
X12931967Y-16090388D01*
X12931967Y-16090388D02*
X12922444Y-16109436D01*
X12922444Y-16109436D02*
X12912920Y-16118960D01*
X12912920Y-16118960D02*
X12893872Y-16128484D01*
X12893872Y-16128484D02*
X12836729Y-16128484D01*
X12836729Y-16128484D02*
X12817682Y-16118960D01*
X12817682Y-16118960D02*
X12808158Y-16109436D01*
X13103396Y-15928484D02*
X13065301Y-15928484D01*
X13065301Y-15928484D02*
X13046253Y-15938008D01*
X13046253Y-15938008D02*
X13036729Y-15947531D01*
X13036729Y-15947531D02*
X13017682Y-15976103D01*
X13017682Y-15976103D02*
X13008158Y-16014198D01*
X13008158Y-16014198D02*
X13008158Y-16090388D01*
X13008158Y-16090388D02*
X13017682Y-16109436D01*
X13017682Y-16109436D02*
X13027206Y-16118960D01*
X13027206Y-16118960D02*
X13046253Y-16128484D01*
X13046253Y-16128484D02*
X13084348Y-16128484D01*
X13084348Y-16128484D02*
X13103396Y-16118960D01*
X13103396Y-16118960D02*
X13112920Y-16109436D01*
X13112920Y-16109436D02*
X13122444Y-16090388D01*
X13122444Y-16090388D02*
X13122444Y-16042769D01*
X13122444Y-16042769D02*
X13112920Y-16023722D01*
X13112920Y-16023722D02*
X13103396Y-16014198D01*
X13103396Y-16014198D02*
X13084348Y-16004674D01*
X13084348Y-16004674D02*
X13046253Y-16004674D01*
X13046253Y-16004674D02*
X13027206Y-16014198D01*
X13027206Y-16014198D02*
X13017682Y-16023722D01*
X13017682Y-16023722D02*
X13008158Y-16042769D01*
X13198634Y-15928484D02*
X13198634Y-15966579D01*
X13274825Y-15928484D02*
X13274825Y-15966579D01*
X13570063Y-16204674D02*
X13560539Y-16195150D01*
X13560539Y-16195150D02*
X13541491Y-16166579D01*
X13541491Y-16166579D02*
X13531968Y-16147531D01*
X13531968Y-16147531D02*
X13522444Y-16118960D01*
X13522444Y-16118960D02*
X13512920Y-16071341D01*
X13512920Y-16071341D02*
X13512920Y-16033246D01*
X13512920Y-16033246D02*
X13522444Y-15985627D01*
X13522444Y-15985627D02*
X13531968Y-15957055D01*
X13531968Y-15957055D02*
X13541491Y-15938008D01*
X13541491Y-15938008D02*
X13560539Y-15909436D01*
X13560539Y-15909436D02*
X13570063Y-15899912D01*
X13684348Y-15928484D02*
X13703396Y-15928484D01*
X13703396Y-15928484D02*
X13722444Y-15938008D01*
X13722444Y-15938008D02*
X13731968Y-15947531D01*
X13731968Y-15947531D02*
X13741491Y-15966579D01*
X13741491Y-15966579D02*
X13751015Y-16004674D01*
X13751015Y-16004674D02*
X13751015Y-16052293D01*
X13751015Y-16052293D02*
X13741491Y-16090388D01*
X13741491Y-16090388D02*
X13731968Y-16109436D01*
X13731968Y-16109436D02*
X13722444Y-16118960D01*
X13722444Y-16118960D02*
X13703396Y-16128484D01*
X13703396Y-16128484D02*
X13684348Y-16128484D01*
X13684348Y-16128484D02*
X13665301Y-16118960D01*
X13665301Y-16118960D02*
X13655777Y-16109436D01*
X13655777Y-16109436D02*
X13646253Y-16090388D01*
X13646253Y-16090388D02*
X13636729Y-16052293D01*
X13636729Y-16052293D02*
X13636729Y-16004674D01*
X13636729Y-16004674D02*
X13646253Y-15966579D01*
X13646253Y-15966579D02*
X13655777Y-15947531D01*
X13655777Y-15947531D02*
X13665301Y-15938008D01*
X13665301Y-15938008D02*
X13684348Y-15928484D01*
X13989110Y-16128484D02*
X13989110Y-15928484D01*
X14074825Y-16128484D02*
X14074825Y-16023722D01*
X14074825Y-16023722D02*
X14065301Y-16004674D01*
X14065301Y-16004674D02*
X14046253Y-15995150D01*
X14046253Y-15995150D02*
X14017682Y-15995150D01*
X14017682Y-15995150D02*
X13998634Y-16004674D01*
X13998634Y-16004674D02*
X13989110Y-16014198D01*
X14198634Y-16128484D02*
X14179587Y-16118960D01*
X14179587Y-16118960D02*
X14170063Y-16109436D01*
X14170063Y-16109436D02*
X14160539Y-16090388D01*
X14160539Y-16090388D02*
X14160539Y-16033246D01*
X14160539Y-16033246D02*
X14170063Y-16014198D01*
X14170063Y-16014198D02*
X14179587Y-16004674D01*
X14179587Y-16004674D02*
X14198634Y-15995150D01*
X14198634Y-15995150D02*
X14227206Y-15995150D01*
X14227206Y-15995150D02*
X14246253Y-16004674D01*
X14246253Y-16004674D02*
X14255777Y-16014198D01*
X14255777Y-16014198D02*
X14265301Y-16033246D01*
X14265301Y-16033246D02*
X14265301Y-16090388D01*
X14265301Y-16090388D02*
X14255777Y-16109436D01*
X14255777Y-16109436D02*
X14246253Y-16118960D01*
X14246253Y-16118960D02*
X14227206Y-16128484D01*
X14227206Y-16128484D02*
X14198634Y-16128484D01*
X14379587Y-16128484D02*
X14360539Y-16118960D01*
X14360539Y-16118960D02*
X14351015Y-16099912D01*
X14351015Y-16099912D02*
X14351015Y-15928484D01*
X14531968Y-16118960D02*
X14512920Y-16128484D01*
X14512920Y-16128484D02*
X14474825Y-16128484D01*
X14474825Y-16128484D02*
X14455777Y-16118960D01*
X14455777Y-16118960D02*
X14446253Y-16099912D01*
X14446253Y-16099912D02*
X14446253Y-16023722D01*
X14446253Y-16023722D02*
X14455777Y-16004674D01*
X14455777Y-16004674D02*
X14474825Y-15995150D01*
X14474825Y-15995150D02*
X14512920Y-15995150D01*
X14512920Y-15995150D02*
X14531968Y-16004674D01*
X14531968Y-16004674D02*
X14541491Y-16023722D01*
X14541491Y-16023722D02*
X14541491Y-16042769D01*
X14541491Y-16042769D02*
X14446253Y-16061817D01*
X14617682Y-16118960D02*
X14636730Y-16128484D01*
X14636730Y-16128484D02*
X14674825Y-16128484D01*
X14674825Y-16128484D02*
X14693872Y-16118960D01*
X14693872Y-16118960D02*
X14703396Y-16099912D01*
X14703396Y-16099912D02*
X14703396Y-16090388D01*
X14703396Y-16090388D02*
X14693872Y-16071341D01*
X14693872Y-16071341D02*
X14674825Y-16061817D01*
X14674825Y-16061817D02*
X14646253Y-16061817D01*
X14646253Y-16061817D02*
X14627206Y-16052293D01*
X14627206Y-16052293D02*
X14617682Y-16033246D01*
X14617682Y-16033246D02*
X14617682Y-16023722D01*
X14617682Y-16023722D02*
X14627206Y-16004674D01*
X14627206Y-16004674D02*
X14646253Y-15995150D01*
X14646253Y-15995150D02*
X14674825Y-15995150D01*
X14674825Y-15995150D02*
X14693872Y-16004674D01*
X14941492Y-16052293D02*
X15093873Y-16052293D01*
X15017682Y-16128484D02*
X15017682Y-15976103D01*
X15427206Y-15995150D02*
X15427206Y-16128484D01*
X15379587Y-15918960D02*
X15331968Y-16061817D01*
X15331968Y-16061817D02*
X15455777Y-16061817D01*
X15674825Y-16118960D02*
X15693873Y-16128484D01*
X15693873Y-16128484D02*
X15731968Y-16128484D01*
X15731968Y-16128484D02*
X15751015Y-16118960D01*
X15751015Y-16118960D02*
X15760539Y-16099912D01*
X15760539Y-16099912D02*
X15760539Y-16090388D01*
X15760539Y-16090388D02*
X15751015Y-16071341D01*
X15751015Y-16071341D02*
X15731968Y-16061817D01*
X15731968Y-16061817D02*
X15703396Y-16061817D01*
X15703396Y-16061817D02*
X15684349Y-16052293D01*
X15684349Y-16052293D02*
X15674825Y-16033246D01*
X15674825Y-16033246D02*
X15674825Y-16023722D01*
X15674825Y-16023722D02*
X15684349Y-16004674D01*
X15684349Y-16004674D02*
X15703396Y-15995150D01*
X15703396Y-15995150D02*
X15731968Y-15995150D01*
X15731968Y-15995150D02*
X15751015Y-16004674D01*
X15874825Y-16128484D02*
X15855777Y-16118960D01*
X15855777Y-16118960D02*
X15846254Y-16099912D01*
X15846254Y-16099912D02*
X15846254Y-15928484D01*
X15979587Y-16128484D02*
X15960539Y-16118960D01*
X15960539Y-16118960D02*
X15951015Y-16109436D01*
X15951015Y-16109436D02*
X15941492Y-16090388D01*
X15941492Y-16090388D02*
X15941492Y-16033246D01*
X15941492Y-16033246D02*
X15951015Y-16014198D01*
X15951015Y-16014198D02*
X15960539Y-16004674D01*
X15960539Y-16004674D02*
X15979587Y-15995150D01*
X15979587Y-15995150D02*
X16008158Y-15995150D01*
X16008158Y-15995150D02*
X16027206Y-16004674D01*
X16027206Y-16004674D02*
X16036730Y-16014198D01*
X16036730Y-16014198D02*
X16046254Y-16033246D01*
X16046254Y-16033246D02*
X16046254Y-16090388D01*
X16046254Y-16090388D02*
X16036730Y-16109436D01*
X16036730Y-16109436D02*
X16027206Y-16118960D01*
X16027206Y-16118960D02*
X16008158Y-16128484D01*
X16008158Y-16128484D02*
X15979587Y-16128484D01*
X16103396Y-15995150D02*
X16179587Y-15995150D01*
X16131968Y-15928484D02*
X16131968Y-16099912D01*
X16131968Y-16099912D02*
X16141492Y-16118960D01*
X16141492Y-16118960D02*
X16160539Y-16128484D01*
X16160539Y-16128484D02*
X16179587Y-16128484D01*
X16236730Y-16118960D02*
X16255777Y-16128484D01*
X16255777Y-16128484D02*
X16293873Y-16128484D01*
X16293873Y-16128484D02*
X16312920Y-16118960D01*
X16312920Y-16118960D02*
X16322444Y-16099912D01*
X16322444Y-16099912D02*
X16322444Y-16090388D01*
X16322444Y-16090388D02*
X16312920Y-16071341D01*
X16312920Y-16071341D02*
X16293873Y-16061817D01*
X16293873Y-16061817D02*
X16265301Y-16061817D01*
X16265301Y-16061817D02*
X16246254Y-16052293D01*
X16246254Y-16052293D02*
X16236730Y-16033246D01*
X16236730Y-16033246D02*
X16236730Y-16023722D01*
X16236730Y-16023722D02*
X16246254Y-16004674D01*
X16246254Y-16004674D02*
X16265301Y-15995150D01*
X16265301Y-15995150D02*
X16293873Y-15995150D01*
X16293873Y-15995150D02*
X16312920Y-16004674D01*
X16389111Y-16204674D02*
X16398635Y-16195150D01*
X16398635Y-16195150D02*
X16417682Y-16166579D01*
X16417682Y-16166579D02*
X16427206Y-16147531D01*
X16427206Y-16147531D02*
X16436730Y-16118960D01*
X16436730Y-16118960D02*
X16446254Y-16071341D01*
X16446254Y-16071341D02*
X16446254Y-16033246D01*
X16446254Y-16033246D02*
X16436730Y-15985627D01*
X16436730Y-15985627D02*
X16427206Y-15957055D01*
X16427206Y-15957055D02*
X16417682Y-15938008D01*
X16417682Y-15938008D02*
X16398635Y-15909436D01*
X16398635Y-15909436D02*
X16389111Y-15899912D01*
D10*
X9959999Y-16336001D02*
X9995000Y-16301000D01*
X9959999Y-16265999D01*
X9924998Y-16301000D01*
X9959999Y-16336001D01*
D11*
X10293872Y-16192484D02*
X10312920Y-16192484D01*
X10312920Y-16192484D02*
X10331967Y-16202008D01*
X10331967Y-16202008D02*
X10341491Y-16211531D01*
X10341491Y-16211531D02*
X10351015Y-16230579D01*
X10351015Y-16230579D02*
X10360539Y-16268674D01*
X10360539Y-16268674D02*
X10360539Y-16316293D01*
X10360539Y-16316293D02*
X10351015Y-16354388D01*
X10351015Y-16354388D02*
X10341491Y-16373436D01*
X10341491Y-16373436D02*
X10331967Y-16382960D01*
X10331967Y-16382960D02*
X10312920Y-16392484D01*
X10312920Y-16392484D02*
X10293872Y-16392484D01*
X10293872Y-16392484D02*
X10274824Y-16382960D01*
X10274824Y-16382960D02*
X10265301Y-16373436D01*
X10265301Y-16373436D02*
X10255777Y-16354388D01*
X10255777Y-16354388D02*
X10246253Y-16316293D01*
X10246253Y-16316293D02*
X10246253Y-16268674D01*
X10246253Y-16268674D02*
X10255777Y-16230579D01*
X10255777Y-16230579D02*
X10265301Y-16211531D01*
X10265301Y-16211531D02*
X10274824Y-16202008D01*
X10274824Y-16202008D02*
X10293872Y-16192484D01*
X10446253Y-16373436D02*
X10455777Y-16382960D01*
X10455777Y-16382960D02*
X10446253Y-16392484D01*
X10446253Y-16392484D02*
X10436729Y-16382960D01*
X10436729Y-16382960D02*
X10446253Y-16373436D01*
X10446253Y-16373436D02*
X10446253Y-16392484D01*
X10522444Y-16192484D02*
X10655777Y-16192484D01*
X10655777Y-16192484D02*
X10570063Y-16392484D01*
X10770063Y-16192484D02*
X10789110Y-16192484D01*
X10789110Y-16192484D02*
X10808158Y-16202008D01*
X10808158Y-16202008D02*
X10817682Y-16211531D01*
X10817682Y-16211531D02*
X10827205Y-16230579D01*
X10827205Y-16230579D02*
X10836729Y-16268674D01*
X10836729Y-16268674D02*
X10836729Y-16316293D01*
X10836729Y-16316293D02*
X10827205Y-16354388D01*
X10827205Y-16354388D02*
X10817682Y-16373436D01*
X10817682Y-16373436D02*
X10808158Y-16382960D01*
X10808158Y-16382960D02*
X10789110Y-16392484D01*
X10789110Y-16392484D02*
X10770063Y-16392484D01*
X10770063Y-16392484D02*
X10751015Y-16382960D01*
X10751015Y-16382960D02*
X10741491Y-16373436D01*
X10741491Y-16373436D02*
X10731967Y-16354388D01*
X10731967Y-16354388D02*
X10722444Y-16316293D01*
X10722444Y-16316293D02*
X10722444Y-16268674D01*
X10722444Y-16268674D02*
X10731967Y-16230579D01*
X10731967Y-16230579D02*
X10741491Y-16211531D01*
X10741491Y-16211531D02*
X10751015Y-16202008D01*
X10751015Y-16202008D02*
X10770063Y-16192484D01*
X10960539Y-16192484D02*
X10979586Y-16192484D01*
X10979586Y-16192484D02*
X10998634Y-16202008D01*
X10998634Y-16202008D02*
X11008158Y-16211531D01*
X11008158Y-16211531D02*
X11017682Y-16230579D01*
X11017682Y-16230579D02*
X11027205Y-16268674D01*
X11027205Y-16268674D02*
X11027205Y-16316293D01*
X11027205Y-16316293D02*
X11017682Y-16354388D01*
X11017682Y-16354388D02*
X11008158Y-16373436D01*
X11008158Y-16373436D02*
X10998634Y-16382960D01*
X10998634Y-16382960D02*
X10979586Y-16392484D01*
X10979586Y-16392484D02*
X10960539Y-16392484D01*
X10960539Y-16392484D02*
X10941491Y-16382960D01*
X10941491Y-16382960D02*
X10931967Y-16373436D01*
X10931967Y-16373436D02*
X10922444Y-16354388D01*
X10922444Y-16354388D02*
X10912920Y-16316293D01*
X10912920Y-16316293D02*
X10912920Y-16268674D01*
X10912920Y-16268674D02*
X10922444Y-16230579D01*
X10922444Y-16230579D02*
X10931967Y-16211531D01*
X10931967Y-16211531D02*
X10941491Y-16202008D01*
X10941491Y-16202008D02*
X10960539Y-16192484D01*
X11112920Y-16392484D02*
X11112920Y-16259150D01*
X11112920Y-16278198D02*
X11122444Y-16268674D01*
X11122444Y-16268674D02*
X11141491Y-16259150D01*
X11141491Y-16259150D02*
X11170063Y-16259150D01*
X11170063Y-16259150D02*
X11189110Y-16268674D01*
X11189110Y-16268674D02*
X11198634Y-16287722D01*
X11198634Y-16287722D02*
X11198634Y-16392484D01*
X11198634Y-16287722D02*
X11208158Y-16268674D01*
X11208158Y-16268674D02*
X11227205Y-16259150D01*
X11227205Y-16259150D02*
X11255777Y-16259150D01*
X11255777Y-16259150D02*
X11274824Y-16268674D01*
X11274824Y-16268674D02*
X11284348Y-16287722D01*
X11284348Y-16287722D02*
X11284348Y-16392484D01*
X11379586Y-16392484D02*
X11379586Y-16259150D01*
X11379586Y-16278198D02*
X11389110Y-16268674D01*
X11389110Y-16268674D02*
X11408158Y-16259150D01*
X11408158Y-16259150D02*
X11436729Y-16259150D01*
X11436729Y-16259150D02*
X11455777Y-16268674D01*
X11455777Y-16268674D02*
X11465301Y-16287722D01*
X11465301Y-16287722D02*
X11465301Y-16392484D01*
X11465301Y-16287722D02*
X11474824Y-16268674D01*
X11474824Y-16268674D02*
X11493872Y-16259150D01*
X11493872Y-16259150D02*
X11522443Y-16259150D01*
X11522443Y-16259150D02*
X11541491Y-16268674D01*
X11541491Y-16268674D02*
X11551015Y-16287722D01*
X11551015Y-16287722D02*
X11551015Y-16392484D01*
X11941491Y-16182960D02*
X11770063Y-16440103D01*
X12198634Y-16192484D02*
X12217682Y-16192484D01*
X12217682Y-16192484D02*
X12236729Y-16202008D01*
X12236729Y-16202008D02*
X12246253Y-16211531D01*
X12246253Y-16211531D02*
X12255777Y-16230579D01*
X12255777Y-16230579D02*
X12265301Y-16268674D01*
X12265301Y-16268674D02*
X12265301Y-16316293D01*
X12265301Y-16316293D02*
X12255777Y-16354388D01*
X12255777Y-16354388D02*
X12246253Y-16373436D01*
X12246253Y-16373436D02*
X12236729Y-16382960D01*
X12236729Y-16382960D02*
X12217682Y-16392484D01*
X12217682Y-16392484D02*
X12198634Y-16392484D01*
X12198634Y-16392484D02*
X12179586Y-16382960D01*
X12179586Y-16382960D02*
X12170063Y-16373436D01*
X12170063Y-16373436D02*
X12160539Y-16354388D01*
X12160539Y-16354388D02*
X12151015Y-16316293D01*
X12151015Y-16316293D02*
X12151015Y-16268674D01*
X12151015Y-16268674D02*
X12160539Y-16230579D01*
X12160539Y-16230579D02*
X12170063Y-16211531D01*
X12170063Y-16211531D02*
X12179586Y-16202008D01*
X12179586Y-16202008D02*
X12198634Y-16192484D01*
X12351015Y-16373436D02*
X12360539Y-16382960D01*
X12360539Y-16382960D02*
X12351015Y-16392484D01*
X12351015Y-16392484D02*
X12341491Y-16382960D01*
X12341491Y-16382960D02*
X12351015Y-16373436D01*
X12351015Y-16373436D02*
X12351015Y-16392484D01*
X12484348Y-16192484D02*
X12503396Y-16192484D01*
X12503396Y-16192484D02*
X12522444Y-16202008D01*
X12522444Y-16202008D02*
X12531967Y-16211531D01*
X12531967Y-16211531D02*
X12541491Y-16230579D01*
X12541491Y-16230579D02*
X12551015Y-16268674D01*
X12551015Y-16268674D02*
X12551015Y-16316293D01*
X12551015Y-16316293D02*
X12541491Y-16354388D01*
X12541491Y-16354388D02*
X12531967Y-16373436D01*
X12531967Y-16373436D02*
X12522444Y-16382960D01*
X12522444Y-16382960D02*
X12503396Y-16392484D01*
X12503396Y-16392484D02*
X12484348Y-16392484D01*
X12484348Y-16392484D02*
X12465301Y-16382960D01*
X12465301Y-16382960D02*
X12455777Y-16373436D01*
X12455777Y-16373436D02*
X12446253Y-16354388D01*
X12446253Y-16354388D02*
X12436729Y-16316293D01*
X12436729Y-16316293D02*
X12436729Y-16268674D01*
X12436729Y-16268674D02*
X12446253Y-16230579D01*
X12446253Y-16230579D02*
X12455777Y-16211531D01*
X12455777Y-16211531D02*
X12465301Y-16202008D01*
X12465301Y-16202008D02*
X12484348Y-16192484D01*
X12627206Y-16211531D02*
X12636729Y-16202008D01*
X12636729Y-16202008D02*
X12655777Y-16192484D01*
X12655777Y-16192484D02*
X12703396Y-16192484D01*
X12703396Y-16192484D02*
X12722444Y-16202008D01*
X12722444Y-16202008D02*
X12731967Y-16211531D01*
X12731967Y-16211531D02*
X12741491Y-16230579D01*
X12741491Y-16230579D02*
X12741491Y-16249627D01*
X12741491Y-16249627D02*
X12731967Y-16278198D01*
X12731967Y-16278198D02*
X12617682Y-16392484D01*
X12617682Y-16392484D02*
X12741491Y-16392484D01*
X12808158Y-16192484D02*
X12941491Y-16192484D01*
X12941491Y-16192484D02*
X12855777Y-16392484D01*
X13103396Y-16192484D02*
X13065301Y-16192484D01*
X13065301Y-16192484D02*
X13046253Y-16202008D01*
X13046253Y-16202008D02*
X13036729Y-16211531D01*
X13036729Y-16211531D02*
X13017682Y-16240103D01*
X13017682Y-16240103D02*
X13008158Y-16278198D01*
X13008158Y-16278198D02*
X13008158Y-16354388D01*
X13008158Y-16354388D02*
X13017682Y-16373436D01*
X13017682Y-16373436D02*
X13027206Y-16382960D01*
X13027206Y-16382960D02*
X13046253Y-16392484D01*
X13046253Y-16392484D02*
X13084348Y-16392484D01*
X13084348Y-16392484D02*
X13103396Y-16382960D01*
X13103396Y-16382960D02*
X13112920Y-16373436D01*
X13112920Y-16373436D02*
X13122444Y-16354388D01*
X13122444Y-16354388D02*
X13122444Y-16306769D01*
X13122444Y-16306769D02*
X13112920Y-16287722D01*
X13112920Y-16287722D02*
X13103396Y-16278198D01*
X13103396Y-16278198D02*
X13084348Y-16268674D01*
X13084348Y-16268674D02*
X13046253Y-16268674D01*
X13046253Y-16268674D02*
X13027206Y-16278198D01*
X13027206Y-16278198D02*
X13017682Y-16287722D01*
X13017682Y-16287722D02*
X13008158Y-16306769D01*
X13198634Y-16192484D02*
X13198634Y-16230579D01*
X13274825Y-16192484D02*
X13274825Y-16230579D01*
X13570063Y-16468674D02*
X13560539Y-16459150D01*
X13560539Y-16459150D02*
X13541491Y-16430579D01*
X13541491Y-16430579D02*
X13531968Y-16411531D01*
X13531968Y-16411531D02*
X13522444Y-16382960D01*
X13522444Y-16382960D02*
X13512920Y-16335341D01*
X13512920Y-16335341D02*
X13512920Y-16297246D01*
X13512920Y-16297246D02*
X13522444Y-16249627D01*
X13522444Y-16249627D02*
X13531968Y-16221055D01*
X13531968Y-16221055D02*
X13541491Y-16202008D01*
X13541491Y-16202008D02*
X13560539Y-16173436D01*
X13560539Y-16173436D02*
X13570063Y-16163912D01*
X13636729Y-16211531D02*
X13646253Y-16202008D01*
X13646253Y-16202008D02*
X13665301Y-16192484D01*
X13665301Y-16192484D02*
X13712920Y-16192484D01*
X13712920Y-16192484D02*
X13731968Y-16202008D01*
X13731968Y-16202008D02*
X13741491Y-16211531D01*
X13741491Y-16211531D02*
X13751015Y-16230579D01*
X13751015Y-16230579D02*
X13751015Y-16249627D01*
X13751015Y-16249627D02*
X13741491Y-16278198D01*
X13741491Y-16278198D02*
X13627206Y-16392484D01*
X13627206Y-16392484D02*
X13751015Y-16392484D01*
X13989110Y-16392484D02*
X13989110Y-16192484D01*
X14074825Y-16392484D02*
X14074825Y-16287722D01*
X14074825Y-16287722D02*
X14065301Y-16268674D01*
X14065301Y-16268674D02*
X14046253Y-16259150D01*
X14046253Y-16259150D02*
X14017682Y-16259150D01*
X14017682Y-16259150D02*
X13998634Y-16268674D01*
X13998634Y-16268674D02*
X13989110Y-16278198D01*
X14198634Y-16392484D02*
X14179587Y-16382960D01*
X14179587Y-16382960D02*
X14170063Y-16373436D01*
X14170063Y-16373436D02*
X14160539Y-16354388D01*
X14160539Y-16354388D02*
X14160539Y-16297246D01*
X14160539Y-16297246D02*
X14170063Y-16278198D01*
X14170063Y-16278198D02*
X14179587Y-16268674D01*
X14179587Y-16268674D02*
X14198634Y-16259150D01*
X14198634Y-16259150D02*
X14227206Y-16259150D01*
X14227206Y-16259150D02*
X14246253Y-16268674D01*
X14246253Y-16268674D02*
X14255777Y-16278198D01*
X14255777Y-16278198D02*
X14265301Y-16297246D01*
X14265301Y-16297246D02*
X14265301Y-16354388D01*
X14265301Y-16354388D02*
X14255777Y-16373436D01*
X14255777Y-16373436D02*
X14246253Y-16382960D01*
X14246253Y-16382960D02*
X14227206Y-16392484D01*
X14227206Y-16392484D02*
X14198634Y-16392484D01*
X14379587Y-16392484D02*
X14360539Y-16382960D01*
X14360539Y-16382960D02*
X14351015Y-16363912D01*
X14351015Y-16363912D02*
X14351015Y-16192484D01*
X14531968Y-16382960D02*
X14512920Y-16392484D01*
X14512920Y-16392484D02*
X14474825Y-16392484D01*
X14474825Y-16392484D02*
X14455777Y-16382960D01*
X14455777Y-16382960D02*
X14446253Y-16363912D01*
X14446253Y-16363912D02*
X14446253Y-16287722D01*
X14446253Y-16287722D02*
X14455777Y-16268674D01*
X14455777Y-16268674D02*
X14474825Y-16259150D01*
X14474825Y-16259150D02*
X14512920Y-16259150D01*
X14512920Y-16259150D02*
X14531968Y-16268674D01*
X14531968Y-16268674D02*
X14541491Y-16287722D01*
X14541491Y-16287722D02*
X14541491Y-16306769D01*
X14541491Y-16306769D02*
X14446253Y-16325817D01*
X14617682Y-16382960D02*
X14636730Y-16392484D01*
X14636730Y-16392484D02*
X14674825Y-16392484D01*
X14674825Y-16392484D02*
X14693872Y-16382960D01*
X14693872Y-16382960D02*
X14703396Y-16363912D01*
X14703396Y-16363912D02*
X14703396Y-16354388D01*
X14703396Y-16354388D02*
X14693872Y-16335341D01*
X14693872Y-16335341D02*
X14674825Y-16325817D01*
X14674825Y-16325817D02*
X14646253Y-16325817D01*
X14646253Y-16325817D02*
X14627206Y-16316293D01*
X14627206Y-16316293D02*
X14617682Y-16297246D01*
X14617682Y-16297246D02*
X14617682Y-16287722D01*
X14617682Y-16287722D02*
X14627206Y-16268674D01*
X14627206Y-16268674D02*
X14646253Y-16259150D01*
X14646253Y-16259150D02*
X14674825Y-16259150D01*
X14674825Y-16259150D02*
X14693872Y-16268674D01*
X14770063Y-16468674D02*
X14779587Y-16459150D01*
X14779587Y-16459150D02*
X14798634Y-16430579D01*
X14798634Y-16430579D02*
X14808158Y-16411531D01*
X14808158Y-16411531D02*
X14817682Y-16382960D01*
X14817682Y-16382960D02*
X14827206Y-16335341D01*
X14827206Y-16335341D02*
X14827206Y-16297246D01*
X14827206Y-16297246D02*
X14817682Y-16249627D01*
X14817682Y-16249627D02*
X14808158Y-16221055D01*
X14808158Y-16221055D02*
X14798634Y-16202008D01*
X14798634Y-16202008D02*
X14779587Y-16173436D01*
X14779587Y-16173436D02*
X14770063Y-16163912D01*
X15131968Y-16468674D02*
X15122444Y-16459150D01*
X15122444Y-16459150D02*
X15103396Y-16430579D01*
X15103396Y-16430579D02*
X15093872Y-16411531D01*
X15093872Y-16411531D02*
X15084349Y-16382960D01*
X15084349Y-16382960D02*
X15074825Y-16335341D01*
X15074825Y-16335341D02*
X15074825Y-16297246D01*
X15074825Y-16297246D02*
X15084349Y-16249627D01*
X15084349Y-16249627D02*
X15093872Y-16221055D01*
X15093872Y-16221055D02*
X15103396Y-16202008D01*
X15103396Y-16202008D02*
X15122444Y-16173436D01*
X15122444Y-16173436D02*
X15131968Y-16163912D01*
X15208158Y-16259150D02*
X15208158Y-16392484D01*
X15208158Y-16278198D02*
X15217682Y-16268674D01*
X15217682Y-16268674D02*
X15236730Y-16259150D01*
X15236730Y-16259150D02*
X15265301Y-16259150D01*
X15265301Y-16259150D02*
X15284349Y-16268674D01*
X15284349Y-16268674D02*
X15293872Y-16287722D01*
X15293872Y-16287722D02*
X15293872Y-16392484D01*
X15417682Y-16392484D02*
X15398634Y-16382960D01*
X15398634Y-16382960D02*
X15389111Y-16373436D01*
X15389111Y-16373436D02*
X15379587Y-16354388D01*
X15379587Y-16354388D02*
X15379587Y-16297246D01*
X15379587Y-16297246D02*
X15389111Y-16278198D01*
X15389111Y-16278198D02*
X15398634Y-16268674D01*
X15398634Y-16268674D02*
X15417682Y-16259150D01*
X15417682Y-16259150D02*
X15446253Y-16259150D01*
X15446253Y-16259150D02*
X15465301Y-16268674D01*
X15465301Y-16268674D02*
X15474825Y-16278198D01*
X15474825Y-16278198D02*
X15484349Y-16297246D01*
X15484349Y-16297246D02*
X15484349Y-16354388D01*
X15484349Y-16354388D02*
X15474825Y-16373436D01*
X15474825Y-16373436D02*
X15465301Y-16382960D01*
X15465301Y-16382960D02*
X15446253Y-16392484D01*
X15446253Y-16392484D02*
X15417682Y-16392484D01*
X15541492Y-16259150D02*
X15617682Y-16259150D01*
X15570063Y-16192484D02*
X15570063Y-16363912D01*
X15570063Y-16363912D02*
X15579587Y-16382960D01*
X15579587Y-16382960D02*
X15598634Y-16392484D01*
X15598634Y-16392484D02*
X15617682Y-16392484D01*
X15836730Y-16259150D02*
X15836730Y-16459150D01*
X15836730Y-16268674D02*
X15855777Y-16259150D01*
X15855777Y-16259150D02*
X15893873Y-16259150D01*
X15893873Y-16259150D02*
X15912920Y-16268674D01*
X15912920Y-16268674D02*
X15922444Y-16278198D01*
X15922444Y-16278198D02*
X15931968Y-16297246D01*
X15931968Y-16297246D02*
X15931968Y-16354388D01*
X15931968Y-16354388D02*
X15922444Y-16373436D01*
X15922444Y-16373436D02*
X15912920Y-16382960D01*
X15912920Y-16382960D02*
X15893873Y-16392484D01*
X15893873Y-16392484D02*
X15855777Y-16392484D01*
X15855777Y-16392484D02*
X15836730Y-16382960D01*
X16046253Y-16392484D02*
X16027206Y-16382960D01*
X16027206Y-16382960D02*
X16017682Y-16363912D01*
X16017682Y-16363912D02*
X16017682Y-16192484D01*
X16208158Y-16392484D02*
X16208158Y-16287722D01*
X16208158Y-16287722D02*
X16198634Y-16268674D01*
X16198634Y-16268674D02*
X16179587Y-16259150D01*
X16179587Y-16259150D02*
X16141492Y-16259150D01*
X16141492Y-16259150D02*
X16122444Y-16268674D01*
X16208158Y-16382960D02*
X16189111Y-16392484D01*
X16189111Y-16392484D02*
X16141492Y-16392484D01*
X16141492Y-16392484D02*
X16122444Y-16382960D01*
X16122444Y-16382960D02*
X16112920Y-16363912D01*
X16112920Y-16363912D02*
X16112920Y-16344865D01*
X16112920Y-16344865D02*
X16122444Y-16325817D01*
X16122444Y-16325817D02*
X16141492Y-16316293D01*
X16141492Y-16316293D02*
X16189111Y-16316293D01*
X16189111Y-16316293D02*
X16208158Y-16306769D01*
X16274825Y-16259150D02*
X16351015Y-16259150D01*
X16303396Y-16192484D02*
X16303396Y-16363912D01*
X16303396Y-16363912D02*
X16312920Y-16382960D01*
X16312920Y-16382960D02*
X16331968Y-16392484D01*
X16331968Y-16392484D02*
X16351015Y-16392484D01*
X16493873Y-16382960D02*
X16474825Y-16392484D01*
X16474825Y-16392484D02*
X16436730Y-16392484D01*
X16436730Y-16392484D02*
X16417682Y-16382960D01*
X16417682Y-16382960D02*
X16408158Y-16363912D01*
X16408158Y-16363912D02*
X16408158Y-16287722D01*
X16408158Y-16287722D02*
X16417682Y-16268674D01*
X16417682Y-16268674D02*
X16436730Y-16259150D01*
X16436730Y-16259150D02*
X16474825Y-16259150D01*
X16474825Y-16259150D02*
X16493873Y-16268674D01*
X16493873Y-16268674D02*
X16503396Y-16287722D01*
X16503396Y-16287722D02*
X16503396Y-16306769D01*
X16503396Y-16306769D02*
X16408158Y-16325817D01*
X16674825Y-16392484D02*
X16674825Y-16192484D01*
X16674825Y-16382960D02*
X16655777Y-16392484D01*
X16655777Y-16392484D02*
X16617682Y-16392484D01*
X16617682Y-16392484D02*
X16598634Y-16382960D01*
X16598634Y-16382960D02*
X16589111Y-16373436D01*
X16589111Y-16373436D02*
X16579587Y-16354388D01*
X16579587Y-16354388D02*
X16579587Y-16297246D01*
X16579587Y-16297246D02*
X16589111Y-16278198D01*
X16589111Y-16278198D02*
X16598634Y-16268674D01*
X16598634Y-16268674D02*
X16617682Y-16259150D01*
X16617682Y-16259150D02*
X16655777Y-16259150D01*
X16655777Y-16259150D02*
X16674825Y-16268674D01*
X16751015Y-16468674D02*
X16760539Y-16459150D01*
X16760539Y-16459150D02*
X16779587Y-16430579D01*
X16779587Y-16430579D02*
X16789111Y-16411531D01*
X16789111Y-16411531D02*
X16798635Y-16382960D01*
X16798635Y-16382960D02*
X16808158Y-16335341D01*
X16808158Y-16335341D02*
X16808158Y-16297246D01*
X16808158Y-16297246D02*
X16798635Y-16249627D01*
X16798635Y-16249627D02*
X16789111Y-16221055D01*
X16789111Y-16221055D02*
X16779587Y-16202008D01*
X16779587Y-16202008D02*
X16760539Y-16173436D01*
X16760539Y-16173436D02*
X16751015Y-16163912D01*
D10*
X9895000Y-16515000D02*
X9995000Y-16615000D01*
X9995000Y-16515000D02*
X9895000Y-16615000D01*
X9995000Y-16565000D02*
G75*
G02*
X9895000Y-16565000I-50000J0D01*
G01*
X9895000Y-16565000D02*
G75*
G02*
X9995000Y-16565000I50000J0D01*
G01*
D11*
X10360539Y-16656484D02*
X10246253Y-16656484D01*
X10303396Y-16656484D02*
X10303396Y-16456484D01*
X10303396Y-16456484D02*
X10284348Y-16485055D01*
X10284348Y-16485055D02*
X10265301Y-16504103D01*
X10265301Y-16504103D02*
X10246253Y-16513627D01*
X10446253Y-16637436D02*
X10455777Y-16646960D01*
X10455777Y-16646960D02*
X10446253Y-16656484D01*
X10446253Y-16656484D02*
X10436729Y-16646960D01*
X10436729Y-16646960D02*
X10446253Y-16637436D01*
X10446253Y-16637436D02*
X10446253Y-16656484D01*
X10579586Y-16456484D02*
X10598634Y-16456484D01*
X10598634Y-16456484D02*
X10617682Y-16466008D01*
X10617682Y-16466008D02*
X10627205Y-16475531D01*
X10627205Y-16475531D02*
X10636729Y-16494579D01*
X10636729Y-16494579D02*
X10646253Y-16532674D01*
X10646253Y-16532674D02*
X10646253Y-16580293D01*
X10646253Y-16580293D02*
X10636729Y-16618388D01*
X10636729Y-16618388D02*
X10627205Y-16637436D01*
X10627205Y-16637436D02*
X10617682Y-16646960D01*
X10617682Y-16646960D02*
X10598634Y-16656484D01*
X10598634Y-16656484D02*
X10579586Y-16656484D01*
X10579586Y-16656484D02*
X10560539Y-16646960D01*
X10560539Y-16646960D02*
X10551015Y-16637436D01*
X10551015Y-16637436D02*
X10541491Y-16618388D01*
X10541491Y-16618388D02*
X10531967Y-16580293D01*
X10531967Y-16580293D02*
X10531967Y-16532674D01*
X10531967Y-16532674D02*
X10541491Y-16494579D01*
X10541491Y-16494579D02*
X10551015Y-16475531D01*
X10551015Y-16475531D02*
X10560539Y-16466008D01*
X10560539Y-16466008D02*
X10579586Y-16456484D01*
X10770063Y-16456484D02*
X10789110Y-16456484D01*
X10789110Y-16456484D02*
X10808158Y-16466008D01*
X10808158Y-16466008D02*
X10817682Y-16475531D01*
X10817682Y-16475531D02*
X10827205Y-16494579D01*
X10827205Y-16494579D02*
X10836729Y-16532674D01*
X10836729Y-16532674D02*
X10836729Y-16580293D01*
X10836729Y-16580293D02*
X10827205Y-16618388D01*
X10827205Y-16618388D02*
X10817682Y-16637436D01*
X10817682Y-16637436D02*
X10808158Y-16646960D01*
X10808158Y-16646960D02*
X10789110Y-16656484D01*
X10789110Y-16656484D02*
X10770063Y-16656484D01*
X10770063Y-16656484D02*
X10751015Y-16646960D01*
X10751015Y-16646960D02*
X10741491Y-16637436D01*
X10741491Y-16637436D02*
X10731967Y-16618388D01*
X10731967Y-16618388D02*
X10722444Y-16580293D01*
X10722444Y-16580293D02*
X10722444Y-16532674D01*
X10722444Y-16532674D02*
X10731967Y-16494579D01*
X10731967Y-16494579D02*
X10741491Y-16475531D01*
X10741491Y-16475531D02*
X10751015Y-16466008D01*
X10751015Y-16466008D02*
X10770063Y-16456484D01*
X10960539Y-16456484D02*
X10979586Y-16456484D01*
X10979586Y-16456484D02*
X10998634Y-16466008D01*
X10998634Y-16466008D02*
X11008158Y-16475531D01*
X11008158Y-16475531D02*
X11017682Y-16494579D01*
X11017682Y-16494579D02*
X11027205Y-16532674D01*
X11027205Y-16532674D02*
X11027205Y-16580293D01*
X11027205Y-16580293D02*
X11017682Y-16618388D01*
X11017682Y-16618388D02*
X11008158Y-16637436D01*
X11008158Y-16637436D02*
X10998634Y-16646960D01*
X10998634Y-16646960D02*
X10979586Y-16656484D01*
X10979586Y-16656484D02*
X10960539Y-16656484D01*
X10960539Y-16656484D02*
X10941491Y-16646960D01*
X10941491Y-16646960D02*
X10931967Y-16637436D01*
X10931967Y-16637436D02*
X10922444Y-16618388D01*
X10922444Y-16618388D02*
X10912920Y-16580293D01*
X10912920Y-16580293D02*
X10912920Y-16532674D01*
X10912920Y-16532674D02*
X10922444Y-16494579D01*
X10922444Y-16494579D02*
X10931967Y-16475531D01*
X10931967Y-16475531D02*
X10941491Y-16466008D01*
X10941491Y-16466008D02*
X10960539Y-16456484D01*
X11112920Y-16656484D02*
X11112920Y-16523150D01*
X11112920Y-16542198D02*
X11122444Y-16532674D01*
X11122444Y-16532674D02*
X11141491Y-16523150D01*
X11141491Y-16523150D02*
X11170063Y-16523150D01*
X11170063Y-16523150D02*
X11189110Y-16532674D01*
X11189110Y-16532674D02*
X11198634Y-16551722D01*
X11198634Y-16551722D02*
X11198634Y-16656484D01*
X11198634Y-16551722D02*
X11208158Y-16532674D01*
X11208158Y-16532674D02*
X11227205Y-16523150D01*
X11227205Y-16523150D02*
X11255777Y-16523150D01*
X11255777Y-16523150D02*
X11274824Y-16532674D01*
X11274824Y-16532674D02*
X11284348Y-16551722D01*
X11284348Y-16551722D02*
X11284348Y-16656484D01*
X11379586Y-16656484D02*
X11379586Y-16523150D01*
X11379586Y-16542198D02*
X11389110Y-16532674D01*
X11389110Y-16532674D02*
X11408158Y-16523150D01*
X11408158Y-16523150D02*
X11436729Y-16523150D01*
X11436729Y-16523150D02*
X11455777Y-16532674D01*
X11455777Y-16532674D02*
X11465301Y-16551722D01*
X11465301Y-16551722D02*
X11465301Y-16656484D01*
X11465301Y-16551722D02*
X11474824Y-16532674D01*
X11474824Y-16532674D02*
X11493872Y-16523150D01*
X11493872Y-16523150D02*
X11522443Y-16523150D01*
X11522443Y-16523150D02*
X11541491Y-16532674D01*
X11541491Y-16532674D02*
X11551015Y-16551722D01*
X11551015Y-16551722D02*
X11551015Y-16656484D01*
X11941491Y-16446960D02*
X11770063Y-16704103D01*
X12198634Y-16456484D02*
X12217682Y-16456484D01*
X12217682Y-16456484D02*
X12236729Y-16466008D01*
X12236729Y-16466008D02*
X12246253Y-16475531D01*
X12246253Y-16475531D02*
X12255777Y-16494579D01*
X12255777Y-16494579D02*
X12265301Y-16532674D01*
X12265301Y-16532674D02*
X12265301Y-16580293D01*
X12265301Y-16580293D02*
X12255777Y-16618388D01*
X12255777Y-16618388D02*
X12246253Y-16637436D01*
X12246253Y-16637436D02*
X12236729Y-16646960D01*
X12236729Y-16646960D02*
X12217682Y-16656484D01*
X12217682Y-16656484D02*
X12198634Y-16656484D01*
X12198634Y-16656484D02*
X12179586Y-16646960D01*
X12179586Y-16646960D02*
X12170063Y-16637436D01*
X12170063Y-16637436D02*
X12160539Y-16618388D01*
X12160539Y-16618388D02*
X12151015Y-16580293D01*
X12151015Y-16580293D02*
X12151015Y-16532674D01*
X12151015Y-16532674D02*
X12160539Y-16494579D01*
X12160539Y-16494579D02*
X12170063Y-16475531D01*
X12170063Y-16475531D02*
X12179586Y-16466008D01*
X12179586Y-16466008D02*
X12198634Y-16456484D01*
X12351015Y-16637436D02*
X12360539Y-16646960D01*
X12360539Y-16646960D02*
X12351015Y-16656484D01*
X12351015Y-16656484D02*
X12341491Y-16646960D01*
X12341491Y-16646960D02*
X12351015Y-16637436D01*
X12351015Y-16637436D02*
X12351015Y-16656484D01*
X12484348Y-16456484D02*
X12503396Y-16456484D01*
X12503396Y-16456484D02*
X12522444Y-16466008D01*
X12522444Y-16466008D02*
X12531967Y-16475531D01*
X12531967Y-16475531D02*
X12541491Y-16494579D01*
X12541491Y-16494579D02*
X12551015Y-16532674D01*
X12551015Y-16532674D02*
X12551015Y-16580293D01*
X12551015Y-16580293D02*
X12541491Y-16618388D01*
X12541491Y-16618388D02*
X12531967Y-16637436D01*
X12531967Y-16637436D02*
X12522444Y-16646960D01*
X12522444Y-16646960D02*
X12503396Y-16656484D01*
X12503396Y-16656484D02*
X12484348Y-16656484D01*
X12484348Y-16656484D02*
X12465301Y-16646960D01*
X12465301Y-16646960D02*
X12455777Y-16637436D01*
X12455777Y-16637436D02*
X12446253Y-16618388D01*
X12446253Y-16618388D02*
X12436729Y-16580293D01*
X12436729Y-16580293D02*
X12436729Y-16532674D01*
X12436729Y-16532674D02*
X12446253Y-16494579D01*
X12446253Y-16494579D02*
X12455777Y-16475531D01*
X12455777Y-16475531D02*
X12465301Y-16466008D01*
X12465301Y-16466008D02*
X12484348Y-16456484D01*
X12617682Y-16456484D02*
X12741491Y-16456484D01*
X12741491Y-16456484D02*
X12674825Y-16532674D01*
X12674825Y-16532674D02*
X12703396Y-16532674D01*
X12703396Y-16532674D02*
X12722444Y-16542198D01*
X12722444Y-16542198D02*
X12731967Y-16551722D01*
X12731967Y-16551722D02*
X12741491Y-16570769D01*
X12741491Y-16570769D02*
X12741491Y-16618388D01*
X12741491Y-16618388D02*
X12731967Y-16637436D01*
X12731967Y-16637436D02*
X12722444Y-16646960D01*
X12722444Y-16646960D02*
X12703396Y-16656484D01*
X12703396Y-16656484D02*
X12646253Y-16656484D01*
X12646253Y-16656484D02*
X12627206Y-16646960D01*
X12627206Y-16646960D02*
X12617682Y-16637436D01*
X12836729Y-16656484D02*
X12874825Y-16656484D01*
X12874825Y-16656484D02*
X12893872Y-16646960D01*
X12893872Y-16646960D02*
X12903396Y-16637436D01*
X12903396Y-16637436D02*
X12922444Y-16608865D01*
X12922444Y-16608865D02*
X12931967Y-16570769D01*
X12931967Y-16570769D02*
X12931967Y-16494579D01*
X12931967Y-16494579D02*
X12922444Y-16475531D01*
X12922444Y-16475531D02*
X12912920Y-16466008D01*
X12912920Y-16466008D02*
X12893872Y-16456484D01*
X12893872Y-16456484D02*
X12855777Y-16456484D01*
X12855777Y-16456484D02*
X12836729Y-16466008D01*
X12836729Y-16466008D02*
X12827206Y-16475531D01*
X12827206Y-16475531D02*
X12817682Y-16494579D01*
X12817682Y-16494579D02*
X12817682Y-16542198D01*
X12817682Y-16542198D02*
X12827206Y-16561246D01*
X12827206Y-16561246D02*
X12836729Y-16570769D01*
X12836729Y-16570769D02*
X12855777Y-16580293D01*
X12855777Y-16580293D02*
X12893872Y-16580293D01*
X12893872Y-16580293D02*
X12912920Y-16570769D01*
X12912920Y-16570769D02*
X12922444Y-16561246D01*
X12922444Y-16561246D02*
X12931967Y-16542198D01*
X13103396Y-16523150D02*
X13103396Y-16656484D01*
X13055777Y-16446960D02*
X13008158Y-16589817D01*
X13008158Y-16589817D02*
X13131967Y-16589817D01*
X13198634Y-16456484D02*
X13198634Y-16494579D01*
X13274825Y-16456484D02*
X13274825Y-16494579D01*
X13570063Y-16732674D02*
X13560539Y-16723150D01*
X13560539Y-16723150D02*
X13541491Y-16694579D01*
X13541491Y-16694579D02*
X13531968Y-16675531D01*
X13531968Y-16675531D02*
X13522444Y-16646960D01*
X13522444Y-16646960D02*
X13512920Y-16599341D01*
X13512920Y-16599341D02*
X13512920Y-16561246D01*
X13512920Y-16561246D02*
X13522444Y-16513627D01*
X13522444Y-16513627D02*
X13531968Y-16485055D01*
X13531968Y-16485055D02*
X13541491Y-16466008D01*
X13541491Y-16466008D02*
X13560539Y-16437436D01*
X13560539Y-16437436D02*
X13570063Y-16427912D01*
X13636729Y-16475531D02*
X13646253Y-16466008D01*
X13646253Y-16466008D02*
X13665301Y-16456484D01*
X13665301Y-16456484D02*
X13712920Y-16456484D01*
X13712920Y-16456484D02*
X13731968Y-16466008D01*
X13731968Y-16466008D02*
X13741491Y-16475531D01*
X13741491Y-16475531D02*
X13751015Y-16494579D01*
X13751015Y-16494579D02*
X13751015Y-16513627D01*
X13751015Y-16513627D02*
X13741491Y-16542198D01*
X13741491Y-16542198D02*
X13627206Y-16656484D01*
X13627206Y-16656484D02*
X13751015Y-16656484D01*
X13989110Y-16656484D02*
X13989110Y-16456484D01*
X14074825Y-16656484D02*
X14074825Y-16551722D01*
X14074825Y-16551722D02*
X14065301Y-16532674D01*
X14065301Y-16532674D02*
X14046253Y-16523150D01*
X14046253Y-16523150D02*
X14017682Y-16523150D01*
X14017682Y-16523150D02*
X13998634Y-16532674D01*
X13998634Y-16532674D02*
X13989110Y-16542198D01*
X14198634Y-16656484D02*
X14179587Y-16646960D01*
X14179587Y-16646960D02*
X14170063Y-16637436D01*
X14170063Y-16637436D02*
X14160539Y-16618388D01*
X14160539Y-16618388D02*
X14160539Y-16561246D01*
X14160539Y-16561246D02*
X14170063Y-16542198D01*
X14170063Y-16542198D02*
X14179587Y-16532674D01*
X14179587Y-16532674D02*
X14198634Y-16523150D01*
X14198634Y-16523150D02*
X14227206Y-16523150D01*
X14227206Y-16523150D02*
X14246253Y-16532674D01*
X14246253Y-16532674D02*
X14255777Y-16542198D01*
X14255777Y-16542198D02*
X14265301Y-16561246D01*
X14265301Y-16561246D02*
X14265301Y-16618388D01*
X14265301Y-16618388D02*
X14255777Y-16637436D01*
X14255777Y-16637436D02*
X14246253Y-16646960D01*
X14246253Y-16646960D02*
X14227206Y-16656484D01*
X14227206Y-16656484D02*
X14198634Y-16656484D01*
X14379587Y-16656484D02*
X14360539Y-16646960D01*
X14360539Y-16646960D02*
X14351015Y-16627912D01*
X14351015Y-16627912D02*
X14351015Y-16456484D01*
X14531968Y-16646960D02*
X14512920Y-16656484D01*
X14512920Y-16656484D02*
X14474825Y-16656484D01*
X14474825Y-16656484D02*
X14455777Y-16646960D01*
X14455777Y-16646960D02*
X14446253Y-16627912D01*
X14446253Y-16627912D02*
X14446253Y-16551722D01*
X14446253Y-16551722D02*
X14455777Y-16532674D01*
X14455777Y-16532674D02*
X14474825Y-16523150D01*
X14474825Y-16523150D02*
X14512920Y-16523150D01*
X14512920Y-16523150D02*
X14531968Y-16532674D01*
X14531968Y-16532674D02*
X14541491Y-16551722D01*
X14541491Y-16551722D02*
X14541491Y-16570769D01*
X14541491Y-16570769D02*
X14446253Y-16589817D01*
X14617682Y-16646960D02*
X14636730Y-16656484D01*
X14636730Y-16656484D02*
X14674825Y-16656484D01*
X14674825Y-16656484D02*
X14693872Y-16646960D01*
X14693872Y-16646960D02*
X14703396Y-16627912D01*
X14703396Y-16627912D02*
X14703396Y-16618388D01*
X14703396Y-16618388D02*
X14693872Y-16599341D01*
X14693872Y-16599341D02*
X14674825Y-16589817D01*
X14674825Y-16589817D02*
X14646253Y-16589817D01*
X14646253Y-16589817D02*
X14627206Y-16580293D01*
X14627206Y-16580293D02*
X14617682Y-16561246D01*
X14617682Y-16561246D02*
X14617682Y-16551722D01*
X14617682Y-16551722D02*
X14627206Y-16532674D01*
X14627206Y-16532674D02*
X14646253Y-16523150D01*
X14646253Y-16523150D02*
X14674825Y-16523150D01*
X14674825Y-16523150D02*
X14693872Y-16532674D01*
X14770063Y-16732674D02*
X14779587Y-16723150D01*
X14779587Y-16723150D02*
X14798634Y-16694579D01*
X14798634Y-16694579D02*
X14808158Y-16675531D01*
X14808158Y-16675531D02*
X14817682Y-16646960D01*
X14817682Y-16646960D02*
X14827206Y-16599341D01*
X14827206Y-16599341D02*
X14827206Y-16561246D01*
X14827206Y-16561246D02*
X14817682Y-16513627D01*
X14817682Y-16513627D02*
X14808158Y-16485055D01*
X14808158Y-16485055D02*
X14798634Y-16466008D01*
X14798634Y-16466008D02*
X14779587Y-16437436D01*
X14779587Y-16437436D02*
X14770063Y-16427912D01*
X15131968Y-16732674D02*
X15122444Y-16723150D01*
X15122444Y-16723150D02*
X15103396Y-16694579D01*
X15103396Y-16694579D02*
X15093872Y-16675531D01*
X15093872Y-16675531D02*
X15084349Y-16646960D01*
X15084349Y-16646960D02*
X15074825Y-16599341D01*
X15074825Y-16599341D02*
X15074825Y-16561246D01*
X15074825Y-16561246D02*
X15084349Y-16513627D01*
X15084349Y-16513627D02*
X15093872Y-16485055D01*
X15093872Y-16485055D02*
X15103396Y-16466008D01*
X15103396Y-16466008D02*
X15122444Y-16437436D01*
X15122444Y-16437436D02*
X15131968Y-16427912D01*
X15208158Y-16523150D02*
X15208158Y-16656484D01*
X15208158Y-16542198D02*
X15217682Y-16532674D01*
X15217682Y-16532674D02*
X15236730Y-16523150D01*
X15236730Y-16523150D02*
X15265301Y-16523150D01*
X15265301Y-16523150D02*
X15284349Y-16532674D01*
X15284349Y-16532674D02*
X15293872Y-16551722D01*
X15293872Y-16551722D02*
X15293872Y-16656484D01*
X15417682Y-16656484D02*
X15398634Y-16646960D01*
X15398634Y-16646960D02*
X15389111Y-16637436D01*
X15389111Y-16637436D02*
X15379587Y-16618388D01*
X15379587Y-16618388D02*
X15379587Y-16561246D01*
X15379587Y-16561246D02*
X15389111Y-16542198D01*
X15389111Y-16542198D02*
X15398634Y-16532674D01*
X15398634Y-16532674D02*
X15417682Y-16523150D01*
X15417682Y-16523150D02*
X15446253Y-16523150D01*
X15446253Y-16523150D02*
X15465301Y-16532674D01*
X15465301Y-16532674D02*
X15474825Y-16542198D01*
X15474825Y-16542198D02*
X15484349Y-16561246D01*
X15484349Y-16561246D02*
X15484349Y-16618388D01*
X15484349Y-16618388D02*
X15474825Y-16637436D01*
X15474825Y-16637436D02*
X15465301Y-16646960D01*
X15465301Y-16646960D02*
X15446253Y-16656484D01*
X15446253Y-16656484D02*
X15417682Y-16656484D01*
X15541492Y-16523150D02*
X15617682Y-16523150D01*
X15570063Y-16456484D02*
X15570063Y-16627912D01*
X15570063Y-16627912D02*
X15579587Y-16646960D01*
X15579587Y-16646960D02*
X15598634Y-16656484D01*
X15598634Y-16656484D02*
X15617682Y-16656484D01*
X15836730Y-16523150D02*
X15836730Y-16723150D01*
X15836730Y-16532674D02*
X15855777Y-16523150D01*
X15855777Y-16523150D02*
X15893873Y-16523150D01*
X15893873Y-16523150D02*
X15912920Y-16532674D01*
X15912920Y-16532674D02*
X15922444Y-16542198D01*
X15922444Y-16542198D02*
X15931968Y-16561246D01*
X15931968Y-16561246D02*
X15931968Y-16618388D01*
X15931968Y-16618388D02*
X15922444Y-16637436D01*
X15922444Y-16637436D02*
X15912920Y-16646960D01*
X15912920Y-16646960D02*
X15893873Y-16656484D01*
X15893873Y-16656484D02*
X15855777Y-16656484D01*
X15855777Y-16656484D02*
X15836730Y-16646960D01*
X16046253Y-16656484D02*
X16027206Y-16646960D01*
X16027206Y-16646960D02*
X16017682Y-16627912D01*
X16017682Y-16627912D02*
X16017682Y-16456484D01*
X16208158Y-16656484D02*
X16208158Y-16551722D01*
X16208158Y-16551722D02*
X16198634Y-16532674D01*
X16198634Y-16532674D02*
X16179587Y-16523150D01*
X16179587Y-16523150D02*
X16141492Y-16523150D01*
X16141492Y-16523150D02*
X16122444Y-16532674D01*
X16208158Y-16646960D02*
X16189111Y-16656484D01*
X16189111Y-16656484D02*
X16141492Y-16656484D01*
X16141492Y-16656484D02*
X16122444Y-16646960D01*
X16122444Y-16646960D02*
X16112920Y-16627912D01*
X16112920Y-16627912D02*
X16112920Y-16608865D01*
X16112920Y-16608865D02*
X16122444Y-16589817D01*
X16122444Y-16589817D02*
X16141492Y-16580293D01*
X16141492Y-16580293D02*
X16189111Y-16580293D01*
X16189111Y-16580293D02*
X16208158Y-16570769D01*
X16274825Y-16523150D02*
X16351015Y-16523150D01*
X16303396Y-16456484D02*
X16303396Y-16627912D01*
X16303396Y-16627912D02*
X16312920Y-16646960D01*
X16312920Y-16646960D02*
X16331968Y-16656484D01*
X16331968Y-16656484D02*
X16351015Y-16656484D01*
X16493873Y-16646960D02*
X16474825Y-16656484D01*
X16474825Y-16656484D02*
X16436730Y-16656484D01*
X16436730Y-16656484D02*
X16417682Y-16646960D01*
X16417682Y-16646960D02*
X16408158Y-16627912D01*
X16408158Y-16627912D02*
X16408158Y-16551722D01*
X16408158Y-16551722D02*
X16417682Y-16532674D01*
X16417682Y-16532674D02*
X16436730Y-16523150D01*
X16436730Y-16523150D02*
X16474825Y-16523150D01*
X16474825Y-16523150D02*
X16493873Y-16532674D01*
X16493873Y-16532674D02*
X16503396Y-16551722D01*
X16503396Y-16551722D02*
X16503396Y-16570769D01*
X16503396Y-16570769D02*
X16408158Y-16589817D01*
X16674825Y-16656484D02*
X16674825Y-16456484D01*
X16674825Y-16646960D02*
X16655777Y-16656484D01*
X16655777Y-16656484D02*
X16617682Y-16656484D01*
X16617682Y-16656484D02*
X16598634Y-16646960D01*
X16598634Y-16646960D02*
X16589111Y-16637436D01*
X16589111Y-16637436D02*
X16579587Y-16618388D01*
X16579587Y-16618388D02*
X16579587Y-16561246D01*
X16579587Y-16561246D02*
X16589111Y-16542198D01*
X16589111Y-16542198D02*
X16598634Y-16532674D01*
X16598634Y-16532674D02*
X16617682Y-16523150D01*
X16617682Y-16523150D02*
X16655777Y-16523150D01*
X16655777Y-16523150D02*
X16674825Y-16532674D01*
X16751015Y-16732674D02*
X16760539Y-16723150D01*
X16760539Y-16723150D02*
X16779587Y-16694579D01*
X16779587Y-16694579D02*
X16789111Y-16675531D01*
X16789111Y-16675531D02*
X16798635Y-16646960D01*
X16798635Y-16646960D02*
X16808158Y-16599341D01*
X16808158Y-16599341D02*
X16808158Y-16561246D01*
X16808158Y-16561246D02*
X16798635Y-16513627D01*
X16798635Y-16513627D02*
X16789111Y-16485055D01*
X16789111Y-16485055D02*
X16779587Y-16466008D01*
X16779587Y-16466008D02*
X16760539Y-16437436D01*
X16760539Y-16437436D02*
X16751015Y-16427912D01*
M02*
