%TF.GenerationSoftware,KiCad,Pcbnew,9.0.8+dfsg-1*%
%TF.CreationDate,2026-10-02T15:24:55+01:00*%
%TF.ProjectId,NAVCORE-SoOP,4e415643-4f52-4452-9d53-6f4f502e6b69,rev?*%
%TF.SameCoordinates,Original*%
%TF.FileFunction,Legend,Bot*%
%TF.FilePolarity,Positive*%
%FSLAX46Y46*%
G04 Gerber Fmt 4.6, Leading zero omitted, Abs format (unit mm)*
G04 Created by KiCad (PCBNEW 9.0.8+dfsg-1) date 2026-10-02 15:24:55*
%MOMM*%
%LPD*%
G01*
G04 APERTURE LIST*
%ADD10C,0.150000*%
%ADD11C,0.120000*%
%ADD12C,0.254001*%
%ADD13C,0.152400*%
%ADD14C,0.150013*%
%ADD15C,0.300000*%
%ADD16C,0.200000*%
%ADD17C,0.151994*%
G04 APERTURE END LIST*
D10*
X112371189Y-100779819D02*
X112371189Y-99779819D01*
X111942618Y-99875057D02*
X111894999Y-99827438D01*
X111894999Y-99827438D02*
X111799761Y-99779819D01*
X111799761Y-99779819D02*
X111561666Y-99779819D01*
X111561666Y-99779819D02*
X111466428Y-99827438D01*
X111466428Y-99827438D02*
X111418809Y-99875057D01*
X111418809Y-99875057D02*
X111371190Y-99970295D01*
X111371190Y-99970295D02*
X111371190Y-100065533D01*
X111371190Y-100065533D02*
X111418809Y-100208390D01*
X111418809Y-100208390D02*
X111990237Y-100779819D01*
X111990237Y-100779819D02*
X111371190Y-100779819D01*
X110371190Y-100684580D02*
X110418809Y-100732200D01*
X110418809Y-100732200D02*
X110561666Y-100779819D01*
X110561666Y-100779819D02*
X110656904Y-100779819D01*
X110656904Y-100779819D02*
X110799761Y-100732200D01*
X110799761Y-100732200D02*
X110894999Y-100636961D01*
X110894999Y-100636961D02*
X110942618Y-100541723D01*
X110942618Y-100541723D02*
X110990237Y-100351247D01*
X110990237Y-100351247D02*
X110990237Y-100208390D01*
X110990237Y-100208390D02*
X110942618Y-100017914D01*
X110942618Y-100017914D02*
X110894999Y-99922676D01*
X110894999Y-99922676D02*
X110799761Y-99827438D01*
X110799761Y-99827438D02*
X110656904Y-99779819D01*
X110656904Y-99779819D02*
X110561666Y-99779819D01*
X110561666Y-99779819D02*
X110418809Y-99827438D01*
X110418809Y-99827438D02*
X110371190Y-99875057D01*
X100654819Y-100469048D02*
X99654819Y-100469048D01*
X100654819Y-101040476D02*
X100083390Y-100611905D01*
X99654819Y-101040476D02*
X100226247Y-100469048D01*
X100654819Y-102040476D02*
X100178628Y-101707143D01*
X100654819Y-101469048D02*
X99654819Y-101469048D01*
X99654819Y-101469048D02*
X99654819Y-101850000D01*
X99654819Y-101850000D02*
X99702438Y-101945238D01*
X99702438Y-101945238D02*
X99750057Y-101992857D01*
X99750057Y-101992857D02*
X99845295Y-102040476D01*
X99845295Y-102040476D02*
X99988152Y-102040476D01*
X99988152Y-102040476D02*
X100083390Y-101992857D01*
X100083390Y-101992857D02*
X100131009Y-101945238D01*
X100131009Y-101945238D02*
X100178628Y-101850000D01*
X100178628Y-101850000D02*
X100178628Y-101469048D01*
X100178628Y-102659524D02*
X100654819Y-102659524D01*
X99654819Y-102326191D02*
X100178628Y-102659524D01*
X100178628Y-102659524D02*
X99654819Y-102992857D01*
X100607200Y-103278572D02*
X100654819Y-103421429D01*
X100654819Y-103421429D02*
X100654819Y-103659524D01*
X100654819Y-103659524D02*
X100607200Y-103754762D01*
X100607200Y-103754762D02*
X100559580Y-103802381D01*
X100559580Y-103802381D02*
X100464342Y-103850000D01*
X100464342Y-103850000D02*
X100369104Y-103850000D01*
X100369104Y-103850000D02*
X100273866Y-103802381D01*
X100273866Y-103802381D02*
X100226247Y-103754762D01*
X100226247Y-103754762D02*
X100178628Y-103659524D01*
X100178628Y-103659524D02*
X100131009Y-103469048D01*
X100131009Y-103469048D02*
X100083390Y-103373810D01*
X100083390Y-103373810D02*
X100035771Y-103326191D01*
X100035771Y-103326191D02*
X99940533Y-103278572D01*
X99940533Y-103278572D02*
X99845295Y-103278572D01*
X99845295Y-103278572D02*
X99750057Y-103326191D01*
X99750057Y-103326191D02*
X99702438Y-103373810D01*
X99702438Y-103373810D02*
X99654819Y-103469048D01*
X99654819Y-103469048D02*
X99654819Y-103707143D01*
X99654819Y-103707143D02*
X99702438Y-103850000D01*
X99654819Y-104135715D02*
X99654819Y-104707143D01*
X100654819Y-104421429D02*
X99654819Y-104421429D01*
X100654819Y-105040477D02*
X99654819Y-105040477D01*
X100369104Y-105469048D02*
X100369104Y-105945238D01*
X100654819Y-105373810D02*
X99654819Y-105707143D01*
X99654819Y-105707143D02*
X100654819Y-106040476D01*
X100654819Y-106373810D02*
X99654819Y-106373810D01*
X99654819Y-106373810D02*
X100654819Y-106945238D01*
X100654819Y-106945238D02*
X99654819Y-106945238D01*
X100131009Y-108516667D02*
X100131009Y-108183334D01*
X100654819Y-108183334D02*
X99654819Y-108183334D01*
X99654819Y-108183334D02*
X99654819Y-108659524D01*
X100654819Y-109040477D02*
X99654819Y-109040477D01*
X100654819Y-109992857D02*
X100654819Y-109516667D01*
X100654819Y-109516667D02*
X99654819Y-109516667D01*
X100654819Y-110326191D02*
X99654819Y-110326191D01*
X100654819Y-110802381D02*
X99654819Y-110802381D01*
X99654819Y-110802381D02*
X99654819Y-111183333D01*
X99654819Y-111183333D02*
X99702438Y-111278571D01*
X99702438Y-111278571D02*
X99750057Y-111326190D01*
X99750057Y-111326190D02*
X99845295Y-111373809D01*
X99845295Y-111373809D02*
X99988152Y-111373809D01*
X99988152Y-111373809D02*
X100083390Y-111326190D01*
X100083390Y-111326190D02*
X100131009Y-111278571D01*
X100131009Y-111278571D02*
X100178628Y-111183333D01*
X100178628Y-111183333D02*
X100178628Y-110802381D01*
X100131009Y-111802381D02*
X100131009Y-112135714D01*
X100654819Y-112278571D02*
X100654819Y-111802381D01*
X100654819Y-111802381D02*
X99654819Y-111802381D01*
X99654819Y-111802381D02*
X99654819Y-112278571D01*
X100654819Y-112707143D02*
X99654819Y-112707143D01*
X100654819Y-113278571D02*
X100083390Y-112850000D01*
X99654819Y-113278571D02*
X100226247Y-112707143D01*
X100654819Y-132016667D02*
X99654819Y-132016667D01*
X100654819Y-133064285D02*
X100178628Y-132730952D01*
X100654819Y-132492857D02*
X99654819Y-132492857D01*
X99654819Y-132492857D02*
X99654819Y-132873809D01*
X99654819Y-132873809D02*
X99702438Y-132969047D01*
X99702438Y-132969047D02*
X99750057Y-133016666D01*
X99750057Y-133016666D02*
X99845295Y-133064285D01*
X99845295Y-133064285D02*
X99988152Y-133064285D01*
X99988152Y-133064285D02*
X100083390Y-133016666D01*
X100083390Y-133016666D02*
X100131009Y-132969047D01*
X100131009Y-132969047D02*
X100178628Y-132873809D01*
X100178628Y-132873809D02*
X100178628Y-132492857D01*
X100654819Y-133492857D02*
X99654819Y-133492857D01*
X100654819Y-133969047D02*
X99654819Y-133969047D01*
X99654819Y-133969047D02*
X99654819Y-134207142D01*
X99654819Y-134207142D02*
X99702438Y-134349999D01*
X99702438Y-134349999D02*
X99797676Y-134445237D01*
X99797676Y-134445237D02*
X99892914Y-134492856D01*
X99892914Y-134492856D02*
X100083390Y-134540475D01*
X100083390Y-134540475D02*
X100226247Y-134540475D01*
X100226247Y-134540475D02*
X100416723Y-134492856D01*
X100416723Y-134492856D02*
X100511961Y-134445237D01*
X100511961Y-134445237D02*
X100607200Y-134349999D01*
X100607200Y-134349999D02*
X100654819Y-134207142D01*
X100654819Y-134207142D02*
X100654819Y-133969047D01*
X100654819Y-134969047D02*
X99654819Y-134969047D01*
X99654819Y-135445237D02*
X100464342Y-135445237D01*
X100464342Y-135445237D02*
X100559580Y-135492856D01*
X100559580Y-135492856D02*
X100607200Y-135540475D01*
X100607200Y-135540475D02*
X100654819Y-135635713D01*
X100654819Y-135635713D02*
X100654819Y-135826189D01*
X100654819Y-135826189D02*
X100607200Y-135921427D01*
X100607200Y-135921427D02*
X100559580Y-135969046D01*
X100559580Y-135969046D02*
X100464342Y-136016665D01*
X100464342Y-136016665D02*
X99654819Y-136016665D01*
X100654819Y-136492856D02*
X99654819Y-136492856D01*
X99654819Y-136492856D02*
X100369104Y-136826189D01*
X100369104Y-136826189D02*
X99654819Y-137159522D01*
X99654819Y-137159522D02*
X100654819Y-137159522D01*
X100654819Y-138397618D02*
X99654819Y-138397618D01*
X99654819Y-138397618D02*
X100654819Y-138969046D01*
X100654819Y-138969046D02*
X99654819Y-138969046D01*
X100369104Y-139397618D02*
X100369104Y-139873808D01*
X100654819Y-139302380D02*
X99654819Y-139635713D01*
X99654819Y-139635713D02*
X100654819Y-139969046D01*
X99654819Y-140159523D02*
X100654819Y-140492856D01*
X100654819Y-140492856D02*
X99654819Y-140826189D01*
X112349819Y-140554523D02*
X111873628Y-140221190D01*
X112349819Y-139983095D02*
X111349819Y-139983095D01*
X111349819Y-139983095D02*
X111349819Y-140364047D01*
X111349819Y-140364047D02*
X111397438Y-140459285D01*
X111397438Y-140459285D02*
X111445057Y-140506904D01*
X111445057Y-140506904D02*
X111540295Y-140554523D01*
X111540295Y-140554523D02*
X111683152Y-140554523D01*
X111683152Y-140554523D02*
X111778390Y-140506904D01*
X111778390Y-140506904D02*
X111826009Y-140459285D01*
X111826009Y-140459285D02*
X111873628Y-140364047D01*
X111873628Y-140364047D02*
X111873628Y-139983095D01*
X112254580Y-141554523D02*
X112302200Y-141506904D01*
X112302200Y-141506904D02*
X112349819Y-141364047D01*
X112349819Y-141364047D02*
X112349819Y-141268809D01*
X112349819Y-141268809D02*
X112302200Y-141125952D01*
X112302200Y-141125952D02*
X112206961Y-141030714D01*
X112206961Y-141030714D02*
X112111723Y-140983095D01*
X112111723Y-140983095D02*
X111921247Y-140935476D01*
X111921247Y-140935476D02*
X111778390Y-140935476D01*
X111778390Y-140935476D02*
X111587914Y-140983095D01*
X111587914Y-140983095D02*
X111492676Y-141030714D01*
X111492676Y-141030714D02*
X111397438Y-141125952D01*
X111397438Y-141125952D02*
X111349819Y-141268809D01*
X111349819Y-141268809D02*
X111349819Y-141364047D01*
X111349819Y-141364047D02*
X111397438Y-141506904D01*
X111397438Y-141506904D02*
X111445057Y-141554523D01*
X123254580Y-103782142D02*
X123302200Y-103734523D01*
X123302200Y-103734523D02*
X123349819Y-103591666D01*
X123349819Y-103591666D02*
X123349819Y-103496428D01*
X123349819Y-103496428D02*
X123302200Y-103353571D01*
X123302200Y-103353571D02*
X123206961Y-103258333D01*
X123206961Y-103258333D02*
X123111723Y-103210714D01*
X123111723Y-103210714D02*
X122921247Y-103163095D01*
X122921247Y-103163095D02*
X122778390Y-103163095D01*
X122778390Y-103163095D02*
X122587914Y-103210714D01*
X122587914Y-103210714D02*
X122492676Y-103258333D01*
X122492676Y-103258333D02*
X122397438Y-103353571D01*
X122397438Y-103353571D02*
X122349819Y-103496428D01*
X122349819Y-103496428D02*
X122349819Y-103591666D01*
X122349819Y-103591666D02*
X122397438Y-103734523D01*
X122397438Y-103734523D02*
X122445057Y-103782142D01*
X123064104Y-104163095D02*
X123064104Y-104639285D01*
X123349819Y-104067857D02*
X122349819Y-104401190D01*
X122349819Y-104401190D02*
X123349819Y-104734523D01*
X123349819Y-105067857D02*
X122349819Y-105067857D01*
X122349819Y-105067857D02*
X123349819Y-105639285D01*
X123349819Y-105639285D02*
X122349819Y-105639285D01*
X134149819Y-140073571D02*
X134959342Y-140073571D01*
X134959342Y-140073571D02*
X135054580Y-140121190D01*
X135054580Y-140121190D02*
X135102200Y-140168809D01*
X135102200Y-140168809D02*
X135149819Y-140264047D01*
X135149819Y-140264047D02*
X135149819Y-140454523D01*
X135149819Y-140454523D02*
X135102200Y-140549761D01*
X135102200Y-140549761D02*
X135054580Y-140597380D01*
X135054580Y-140597380D02*
X134959342Y-140644999D01*
X134959342Y-140644999D02*
X134149819Y-140644999D01*
X134864104Y-141073571D02*
X134864104Y-141549761D01*
X135149819Y-140978333D02*
X134149819Y-141311666D01*
X134149819Y-141311666D02*
X135149819Y-141644999D01*
X135149819Y-142549761D02*
X134673628Y-142216428D01*
X135149819Y-141978333D02*
X134149819Y-141978333D01*
X134149819Y-141978333D02*
X134149819Y-142359285D01*
X134149819Y-142359285D02*
X134197438Y-142454523D01*
X134197438Y-142454523D02*
X134245057Y-142502142D01*
X134245057Y-142502142D02*
X134340295Y-142549761D01*
X134340295Y-142549761D02*
X134483152Y-142549761D01*
X134483152Y-142549761D02*
X134578390Y-142502142D01*
X134578390Y-142502142D02*
X134626009Y-142454523D01*
X134626009Y-142454523D02*
X134673628Y-142359285D01*
X134673628Y-142359285D02*
X134673628Y-141978333D01*
X134149819Y-142835476D02*
X134149819Y-143406904D01*
X135149819Y-143121190D02*
X134149819Y-143121190D01*
X134245057Y-143692619D02*
X134197438Y-143740238D01*
X134197438Y-143740238D02*
X134149819Y-143835476D01*
X134149819Y-143835476D02*
X134149819Y-144073571D01*
X134149819Y-144073571D02*
X134197438Y-144168809D01*
X134197438Y-144168809D02*
X134245057Y-144216428D01*
X134245057Y-144216428D02*
X134340295Y-144264047D01*
X134340295Y-144264047D02*
X134435533Y-144264047D01*
X134435533Y-144264047D02*
X134578390Y-144216428D01*
X134578390Y-144216428D02*
X135149819Y-143645000D01*
X135149819Y-143645000D02*
X135149819Y-144264047D01*
X113104580Y-112978333D02*
X113152200Y-112930714D01*
X113152200Y-112930714D02*
X113199819Y-112787857D01*
X113199819Y-112787857D02*
X113199819Y-112692619D01*
X113199819Y-112692619D02*
X113152200Y-112549762D01*
X113152200Y-112549762D02*
X113056961Y-112454524D01*
X113056961Y-112454524D02*
X112961723Y-112406905D01*
X112961723Y-112406905D02*
X112771247Y-112359286D01*
X112771247Y-112359286D02*
X112628390Y-112359286D01*
X112628390Y-112359286D02*
X112437914Y-112406905D01*
X112437914Y-112406905D02*
X112342676Y-112454524D01*
X112342676Y-112454524D02*
X112247438Y-112549762D01*
X112247438Y-112549762D02*
X112199819Y-112692619D01*
X112199819Y-112692619D02*
X112199819Y-112787857D01*
X112199819Y-112787857D02*
X112247438Y-112930714D01*
X112247438Y-112930714D02*
X112295057Y-112978333D01*
X112199819Y-113311667D02*
X112199819Y-113930714D01*
X112199819Y-113930714D02*
X112580771Y-113597381D01*
X112580771Y-113597381D02*
X112580771Y-113740238D01*
X112580771Y-113740238D02*
X112628390Y-113835476D01*
X112628390Y-113835476D02*
X112676009Y-113883095D01*
X112676009Y-113883095D02*
X112771247Y-113930714D01*
X112771247Y-113930714D02*
X113009342Y-113930714D01*
X113009342Y-113930714D02*
X113104580Y-113883095D01*
X113104580Y-113883095D02*
X113152200Y-113835476D01*
X113152200Y-113835476D02*
X113199819Y-113740238D01*
X113199819Y-113740238D02*
X113199819Y-113454524D01*
X113199819Y-113454524D02*
X113152200Y-113359286D01*
X113152200Y-113359286D02*
X113104580Y-113311667D01*
X112654857Y-106791827D02*
X113464380Y-106791827D01*
X113464380Y-106791827D02*
X113559618Y-106839446D01*
X113559618Y-106839446D02*
X113607238Y-106887065D01*
X113607238Y-106887065D02*
X113654857Y-106982303D01*
X113654857Y-106982303D02*
X113654857Y-107172779D01*
X113654857Y-107172779D02*
X113607238Y-107268017D01*
X113607238Y-107268017D02*
X113559618Y-107315636D01*
X113559618Y-107315636D02*
X113464380Y-107363255D01*
X113464380Y-107363255D02*
X112654857Y-107363255D01*
X112750095Y-107791827D02*
X112702476Y-107839446D01*
X112702476Y-107839446D02*
X112654857Y-107934684D01*
X112654857Y-107934684D02*
X112654857Y-108172779D01*
X112654857Y-108172779D02*
X112702476Y-108268017D01*
X112702476Y-108268017D02*
X112750095Y-108315636D01*
X112750095Y-108315636D02*
X112845333Y-108363255D01*
X112845333Y-108363255D02*
X112940571Y-108363255D01*
X112940571Y-108363255D02*
X113083428Y-108315636D01*
X113083428Y-108315636D02*
X113654857Y-107744208D01*
X113654857Y-107744208D02*
X113654857Y-108363255D01*
X113654857Y-109315636D02*
X113654857Y-108744208D01*
X113654857Y-109029922D02*
X112654857Y-109029922D01*
X112654857Y-109029922D02*
X112797714Y-108934684D01*
X112797714Y-108934684D02*
X112892952Y-108839446D01*
X112892952Y-108839446D02*
X112940571Y-108744208D01*
X128254857Y-108960698D02*
X127254857Y-108960698D01*
X127254857Y-108960698D02*
X127254857Y-109198793D01*
X127254857Y-109198793D02*
X127302476Y-109341650D01*
X127302476Y-109341650D02*
X127397714Y-109436888D01*
X127397714Y-109436888D02*
X127492952Y-109484507D01*
X127492952Y-109484507D02*
X127683428Y-109532126D01*
X127683428Y-109532126D02*
X127826285Y-109532126D01*
X127826285Y-109532126D02*
X128016761Y-109484507D01*
X128016761Y-109484507D02*
X128111999Y-109436888D01*
X128111999Y-109436888D02*
X128207238Y-109341650D01*
X128207238Y-109341650D02*
X128254857Y-109198793D01*
X128254857Y-109198793D02*
X128254857Y-108960698D01*
X127254857Y-110389269D02*
X127254857Y-110198793D01*
X127254857Y-110198793D02*
X127302476Y-110103555D01*
X127302476Y-110103555D02*
X127350095Y-110055936D01*
X127350095Y-110055936D02*
X127492952Y-109960698D01*
X127492952Y-109960698D02*
X127683428Y-109913079D01*
X127683428Y-109913079D02*
X128064380Y-109913079D01*
X128064380Y-109913079D02*
X128159618Y-109960698D01*
X128159618Y-109960698D02*
X128207238Y-110008317D01*
X128207238Y-110008317D02*
X128254857Y-110103555D01*
X128254857Y-110103555D02*
X128254857Y-110294031D01*
X128254857Y-110294031D02*
X128207238Y-110389269D01*
X128207238Y-110389269D02*
X128159618Y-110436888D01*
X128159618Y-110436888D02*
X128064380Y-110484507D01*
X128064380Y-110484507D02*
X127826285Y-110484507D01*
X127826285Y-110484507D02*
X127731047Y-110436888D01*
X127731047Y-110436888D02*
X127683428Y-110389269D01*
X127683428Y-110389269D02*
X127635809Y-110294031D01*
X127635809Y-110294031D02*
X127635809Y-110103555D01*
X127635809Y-110103555D02*
X127683428Y-110008317D01*
X127683428Y-110008317D02*
X127731047Y-109960698D01*
X127731047Y-109960698D02*
X127826285Y-109913079D01*
X118469818Y-137511905D02*
X117469818Y-137511905D01*
X117469818Y-137511905D02*
X117469818Y-137750000D01*
X117469818Y-137750000D02*
X117517437Y-137892857D01*
X117517437Y-137892857D02*
X117612675Y-137988095D01*
X117612675Y-137988095D02*
X117707913Y-138035714D01*
X117707913Y-138035714D02*
X117898389Y-138083333D01*
X117898389Y-138083333D02*
X118041246Y-138083333D01*
X118041246Y-138083333D02*
X118231722Y-138035714D01*
X118231722Y-138035714D02*
X118326960Y-137988095D01*
X118326960Y-137988095D02*
X118422199Y-137892857D01*
X118422199Y-137892857D02*
X118469818Y-137750000D01*
X118469818Y-137750000D02*
X118469818Y-137511905D01*
X117898389Y-138654762D02*
X117850770Y-138559524D01*
X117850770Y-138559524D02*
X117803151Y-138511905D01*
X117803151Y-138511905D02*
X117707913Y-138464286D01*
X117707913Y-138464286D02*
X117660294Y-138464286D01*
X117660294Y-138464286D02*
X117565056Y-138511905D01*
X117565056Y-138511905D02*
X117517437Y-138559524D01*
X117517437Y-138559524D02*
X117469818Y-138654762D01*
X117469818Y-138654762D02*
X117469818Y-138845238D01*
X117469818Y-138845238D02*
X117517437Y-138940476D01*
X117517437Y-138940476D02*
X117565056Y-138988095D01*
X117565056Y-138988095D02*
X117660294Y-139035714D01*
X117660294Y-139035714D02*
X117707913Y-139035714D01*
X117707913Y-139035714D02*
X117803151Y-138988095D01*
X117803151Y-138988095D02*
X117850770Y-138940476D01*
X117850770Y-138940476D02*
X117898389Y-138845238D01*
X117898389Y-138845238D02*
X117898389Y-138654762D01*
X117898389Y-138654762D02*
X117946008Y-138559524D01*
X117946008Y-138559524D02*
X117993627Y-138511905D01*
X117993627Y-138511905D02*
X118088865Y-138464286D01*
X118088865Y-138464286D02*
X118279341Y-138464286D01*
X118279341Y-138464286D02*
X118374579Y-138511905D01*
X118374579Y-138511905D02*
X118422199Y-138559524D01*
X118422199Y-138559524D02*
X118469818Y-138654762D01*
X118469818Y-138654762D02*
X118469818Y-138845238D01*
X118469818Y-138845238D02*
X118422199Y-138940476D01*
X118422199Y-138940476D02*
X118374579Y-138988095D01*
X118374579Y-138988095D02*
X118279341Y-139035714D01*
X118279341Y-139035714D02*
X118088865Y-139035714D01*
X118088865Y-139035714D02*
X117993627Y-138988095D01*
X117993627Y-138988095D02*
X117946008Y-138940476D01*
X117946008Y-138940476D02*
X117898389Y-138845238D01*
X107869178Y-111229809D02*
X107869178Y-110229809D01*
X107869178Y-110229809D02*
X107631083Y-110229809D01*
X107631083Y-110229809D02*
X107488226Y-110277428D01*
X107488226Y-110277428D02*
X107392988Y-110372666D01*
X107392988Y-110372666D02*
X107345369Y-110467904D01*
X107345369Y-110467904D02*
X107297750Y-110658380D01*
X107297750Y-110658380D02*
X107297750Y-110801237D01*
X107297750Y-110801237D02*
X107345369Y-110991713D01*
X107345369Y-110991713D02*
X107392988Y-111086951D01*
X107392988Y-111086951D02*
X107488226Y-111182190D01*
X107488226Y-111182190D02*
X107631083Y-111229809D01*
X107631083Y-111229809D02*
X107869178Y-111229809D01*
X106964416Y-110229809D02*
X106297750Y-110229809D01*
X106297750Y-110229809D02*
X106964416Y-111229809D01*
X106964416Y-111229809D02*
X106297750Y-111229809D01*
X105392988Y-111229809D02*
X105964416Y-111229809D01*
X105678702Y-111229809D02*
X105678702Y-110229809D01*
X105678702Y-110229809D02*
X105773940Y-110372666D01*
X105773940Y-110372666D02*
X105869178Y-110467904D01*
X105869178Y-110467904D02*
X105964416Y-110515523D01*
X102997318Y-113844849D02*
X102997318Y-114559134D01*
X102997318Y-114559134D02*
X103044937Y-114701991D01*
X103044937Y-114701991D02*
X103140175Y-114797230D01*
X103140175Y-114797230D02*
X103283032Y-114844849D01*
X103283032Y-114844849D02*
X103378270Y-114844849D01*
X102378270Y-114273420D02*
X102473508Y-114225801D01*
X102473508Y-114225801D02*
X102521127Y-114178182D01*
X102521127Y-114178182D02*
X102568746Y-114082944D01*
X102568746Y-114082944D02*
X102568746Y-114035325D01*
X102568746Y-114035325D02*
X102521127Y-113940087D01*
X102521127Y-113940087D02*
X102473508Y-113892468D01*
X102473508Y-113892468D02*
X102378270Y-113844849D01*
X102378270Y-113844849D02*
X102187794Y-113844849D01*
X102187794Y-113844849D02*
X102092556Y-113892468D01*
X102092556Y-113892468D02*
X102044937Y-113940087D01*
X102044937Y-113940087D02*
X101997318Y-114035325D01*
X101997318Y-114035325D02*
X101997318Y-114082944D01*
X101997318Y-114082944D02*
X102044937Y-114178182D01*
X102044937Y-114178182D02*
X102092556Y-114225801D01*
X102092556Y-114225801D02*
X102187794Y-114273420D01*
X102187794Y-114273420D02*
X102378270Y-114273420D01*
X102378270Y-114273420D02*
X102473508Y-114321039D01*
X102473508Y-114321039D02*
X102521127Y-114368658D01*
X102521127Y-114368658D02*
X102568746Y-114463896D01*
X102568746Y-114463896D02*
X102568746Y-114654372D01*
X102568746Y-114654372D02*
X102521127Y-114749610D01*
X102521127Y-114749610D02*
X102473508Y-114797230D01*
X102473508Y-114797230D02*
X102378270Y-114844849D01*
X102378270Y-114844849D02*
X102187794Y-114844849D01*
X102187794Y-114844849D02*
X102092556Y-114797230D01*
X102092556Y-114797230D02*
X102044937Y-114749610D01*
X102044937Y-114749610D02*
X101997318Y-114654372D01*
X101997318Y-114654372D02*
X101997318Y-114463896D01*
X101997318Y-114463896D02*
X102044937Y-114368658D01*
X102044937Y-114368658D02*
X102092556Y-114321039D01*
X102092556Y-114321039D02*
X102187794Y-114273420D01*
X132704580Y-130102142D02*
X132752200Y-130054523D01*
X132752200Y-130054523D02*
X132799819Y-129911666D01*
X132799819Y-129911666D02*
X132799819Y-129816428D01*
X132799819Y-129816428D02*
X132752200Y-129673571D01*
X132752200Y-129673571D02*
X132656961Y-129578333D01*
X132656961Y-129578333D02*
X132561723Y-129530714D01*
X132561723Y-129530714D02*
X132371247Y-129483095D01*
X132371247Y-129483095D02*
X132228390Y-129483095D01*
X132228390Y-129483095D02*
X132037914Y-129530714D01*
X132037914Y-129530714D02*
X131942676Y-129578333D01*
X131942676Y-129578333D02*
X131847438Y-129673571D01*
X131847438Y-129673571D02*
X131799819Y-129816428D01*
X131799819Y-129816428D02*
X131799819Y-129911666D01*
X131799819Y-129911666D02*
X131847438Y-130054523D01*
X131847438Y-130054523D02*
X131895057Y-130102142D01*
X131799819Y-130959285D02*
X131799819Y-130768809D01*
X131799819Y-130768809D02*
X131847438Y-130673571D01*
X131847438Y-130673571D02*
X131895057Y-130625952D01*
X131895057Y-130625952D02*
X132037914Y-130530714D01*
X132037914Y-130530714D02*
X132228390Y-130483095D01*
X132228390Y-130483095D02*
X132609342Y-130483095D01*
X132609342Y-130483095D02*
X132704580Y-130530714D01*
X132704580Y-130530714D02*
X132752200Y-130578333D01*
X132752200Y-130578333D02*
X132799819Y-130673571D01*
X132799819Y-130673571D02*
X132799819Y-130864047D01*
X132799819Y-130864047D02*
X132752200Y-130959285D01*
X132752200Y-130959285D02*
X132704580Y-131006904D01*
X132704580Y-131006904D02*
X132609342Y-131054523D01*
X132609342Y-131054523D02*
X132371247Y-131054523D01*
X132371247Y-131054523D02*
X132276009Y-131006904D01*
X132276009Y-131006904D02*
X132228390Y-130959285D01*
X132228390Y-130959285D02*
X132180771Y-130864047D01*
X132180771Y-130864047D02*
X132180771Y-130673571D01*
X132180771Y-130673571D02*
X132228390Y-130578333D01*
X132228390Y-130578333D02*
X132276009Y-130530714D01*
X132276009Y-130530714D02*
X132371247Y-130483095D01*
X132799819Y-131530714D02*
X132799819Y-131721190D01*
X132799819Y-131721190D02*
X132752200Y-131816428D01*
X132752200Y-131816428D02*
X132704580Y-131864047D01*
X132704580Y-131864047D02*
X132561723Y-131959285D01*
X132561723Y-131959285D02*
X132371247Y-132006904D01*
X132371247Y-132006904D02*
X131990295Y-132006904D01*
X131990295Y-132006904D02*
X131895057Y-131959285D01*
X131895057Y-131959285D02*
X131847438Y-131911666D01*
X131847438Y-131911666D02*
X131799819Y-131816428D01*
X131799819Y-131816428D02*
X131799819Y-131625952D01*
X131799819Y-131625952D02*
X131847438Y-131530714D01*
X131847438Y-131530714D02*
X131895057Y-131483095D01*
X131895057Y-131483095D02*
X131990295Y-131435476D01*
X131990295Y-131435476D02*
X132228390Y-131435476D01*
X132228390Y-131435476D02*
X132323628Y-131483095D01*
X132323628Y-131483095D02*
X132371247Y-131530714D01*
X132371247Y-131530714D02*
X132418866Y-131625952D01*
X132418866Y-131625952D02*
X132418866Y-131816428D01*
X132418866Y-131816428D02*
X132371247Y-131911666D01*
X132371247Y-131911666D02*
X132323628Y-131959285D01*
X132323628Y-131959285D02*
X132228390Y-132006904D01*
X110887857Y-135349819D02*
X111221190Y-134873628D01*
X111459285Y-135349819D02*
X111459285Y-134349819D01*
X111459285Y-134349819D02*
X111078333Y-134349819D01*
X111078333Y-134349819D02*
X110983095Y-134397438D01*
X110983095Y-134397438D02*
X110935476Y-134445057D01*
X110935476Y-134445057D02*
X110887857Y-134540295D01*
X110887857Y-134540295D02*
X110887857Y-134683152D01*
X110887857Y-134683152D02*
X110935476Y-134778390D01*
X110935476Y-134778390D02*
X110983095Y-134826009D01*
X110983095Y-134826009D02*
X111078333Y-134873628D01*
X111078333Y-134873628D02*
X111459285Y-134873628D01*
X110506904Y-134445057D02*
X110459285Y-134397438D01*
X110459285Y-134397438D02*
X110364047Y-134349819D01*
X110364047Y-134349819D02*
X110125952Y-134349819D01*
X110125952Y-134349819D02*
X110030714Y-134397438D01*
X110030714Y-134397438D02*
X109983095Y-134445057D01*
X109983095Y-134445057D02*
X109935476Y-134540295D01*
X109935476Y-134540295D02*
X109935476Y-134635533D01*
X109935476Y-134635533D02*
X109983095Y-134778390D01*
X109983095Y-134778390D02*
X110554523Y-135349819D01*
X110554523Y-135349819D02*
X109935476Y-135349819D01*
X109554523Y-134445057D02*
X109506904Y-134397438D01*
X109506904Y-134397438D02*
X109411666Y-134349819D01*
X109411666Y-134349819D02*
X109173571Y-134349819D01*
X109173571Y-134349819D02*
X109078333Y-134397438D01*
X109078333Y-134397438D02*
X109030714Y-134445057D01*
X109030714Y-134445057D02*
X108983095Y-134540295D01*
X108983095Y-134540295D02*
X108983095Y-134635533D01*
X108983095Y-134635533D02*
X109030714Y-134778390D01*
X109030714Y-134778390D02*
X109602142Y-135349819D01*
X109602142Y-135349819D02*
X108983095Y-135349819D01*
X112059580Y-137057142D02*
X112107200Y-137009523D01*
X112107200Y-137009523D02*
X112154819Y-136866666D01*
X112154819Y-136866666D02*
X112154819Y-136771428D01*
X112154819Y-136771428D02*
X112107200Y-136628571D01*
X112107200Y-136628571D02*
X112011961Y-136533333D01*
X112011961Y-136533333D02*
X111916723Y-136485714D01*
X111916723Y-136485714D02*
X111726247Y-136438095D01*
X111726247Y-136438095D02*
X111583390Y-136438095D01*
X111583390Y-136438095D02*
X111392914Y-136485714D01*
X111392914Y-136485714D02*
X111297676Y-136533333D01*
X111297676Y-136533333D02*
X111202438Y-136628571D01*
X111202438Y-136628571D02*
X111154819Y-136771428D01*
X111154819Y-136771428D02*
X111154819Y-136866666D01*
X111154819Y-136866666D02*
X111202438Y-137009523D01*
X111202438Y-137009523D02*
X111250057Y-137057142D01*
X112154819Y-137533333D02*
X112154819Y-137723809D01*
X112154819Y-137723809D02*
X112107200Y-137819047D01*
X112107200Y-137819047D02*
X112059580Y-137866666D01*
X112059580Y-137866666D02*
X111916723Y-137961904D01*
X111916723Y-137961904D02*
X111726247Y-138009523D01*
X111726247Y-138009523D02*
X111345295Y-138009523D01*
X111345295Y-138009523D02*
X111250057Y-137961904D01*
X111250057Y-137961904D02*
X111202438Y-137914285D01*
X111202438Y-137914285D02*
X111154819Y-137819047D01*
X111154819Y-137819047D02*
X111154819Y-137628571D01*
X111154819Y-137628571D02*
X111202438Y-137533333D01*
X111202438Y-137533333D02*
X111250057Y-137485714D01*
X111250057Y-137485714D02*
X111345295Y-137438095D01*
X111345295Y-137438095D02*
X111583390Y-137438095D01*
X111583390Y-137438095D02*
X111678628Y-137485714D01*
X111678628Y-137485714D02*
X111726247Y-137533333D01*
X111726247Y-137533333D02*
X111773866Y-137628571D01*
X111773866Y-137628571D02*
X111773866Y-137819047D01*
X111773866Y-137819047D02*
X111726247Y-137914285D01*
X111726247Y-137914285D02*
X111678628Y-137961904D01*
X111678628Y-137961904D02*
X111583390Y-138009523D01*
X111250057Y-138390476D02*
X111202438Y-138438095D01*
X111202438Y-138438095D02*
X111154819Y-138533333D01*
X111154819Y-138533333D02*
X111154819Y-138771428D01*
X111154819Y-138771428D02*
X111202438Y-138866666D01*
X111202438Y-138866666D02*
X111250057Y-138914285D01*
X111250057Y-138914285D02*
X111345295Y-138961904D01*
X111345295Y-138961904D02*
X111440533Y-138961904D01*
X111440533Y-138961904D02*
X111583390Y-138914285D01*
X111583390Y-138914285D02*
X112154819Y-138342857D01*
X112154819Y-138342857D02*
X112154819Y-138961904D01*
X107913132Y-141029806D02*
X107913132Y-141839329D01*
X107913132Y-141839329D02*
X107865513Y-141934567D01*
X107865513Y-141934567D02*
X107817894Y-141982187D01*
X107817894Y-141982187D02*
X107722656Y-142029806D01*
X107722656Y-142029806D02*
X107532180Y-142029806D01*
X107532180Y-142029806D02*
X107436942Y-141982187D01*
X107436942Y-141982187D02*
X107389323Y-141934567D01*
X107389323Y-141934567D02*
X107341704Y-141839329D01*
X107341704Y-141839329D02*
X107341704Y-141029806D01*
X106913132Y-141125044D02*
X106865513Y-141077425D01*
X106865513Y-141077425D02*
X106770275Y-141029806D01*
X106770275Y-141029806D02*
X106532180Y-141029806D01*
X106532180Y-141029806D02*
X106436942Y-141077425D01*
X106436942Y-141077425D02*
X106389323Y-141125044D01*
X106389323Y-141125044D02*
X106341704Y-141220282D01*
X106341704Y-141220282D02*
X106341704Y-141315520D01*
X106341704Y-141315520D02*
X106389323Y-141458377D01*
X106389323Y-141458377D02*
X106960751Y-142029806D01*
X106960751Y-142029806D02*
X106341704Y-142029806D01*
X106008370Y-141029806D02*
X105389323Y-141029806D01*
X105389323Y-141029806D02*
X105722656Y-141410758D01*
X105722656Y-141410758D02*
X105579799Y-141410758D01*
X105579799Y-141410758D02*
X105484561Y-141458377D01*
X105484561Y-141458377D02*
X105436942Y-141505996D01*
X105436942Y-141505996D02*
X105389323Y-141601234D01*
X105389323Y-141601234D02*
X105389323Y-141839329D01*
X105389323Y-141839329D02*
X105436942Y-141934567D01*
X105436942Y-141934567D02*
X105484561Y-141982187D01*
X105484561Y-141982187D02*
X105579799Y-142029806D01*
X105579799Y-142029806D02*
X105865513Y-142029806D01*
X105865513Y-142029806D02*
X105960751Y-141982187D01*
X105960751Y-141982187D02*
X106008370Y-141934567D01*
X114949819Y-135228333D02*
X114473628Y-134895000D01*
X114949819Y-134656905D02*
X113949819Y-134656905D01*
X113949819Y-134656905D02*
X113949819Y-135037857D01*
X113949819Y-135037857D02*
X113997438Y-135133095D01*
X113997438Y-135133095D02*
X114045057Y-135180714D01*
X114045057Y-135180714D02*
X114140295Y-135228333D01*
X114140295Y-135228333D02*
X114283152Y-135228333D01*
X114283152Y-135228333D02*
X114378390Y-135180714D01*
X114378390Y-135180714D02*
X114426009Y-135133095D01*
X114426009Y-135133095D02*
X114473628Y-135037857D01*
X114473628Y-135037857D02*
X114473628Y-134656905D01*
X113949819Y-136085476D02*
X113949819Y-135895000D01*
X113949819Y-135895000D02*
X113997438Y-135799762D01*
X113997438Y-135799762D02*
X114045057Y-135752143D01*
X114045057Y-135752143D02*
X114187914Y-135656905D01*
X114187914Y-135656905D02*
X114378390Y-135609286D01*
X114378390Y-135609286D02*
X114759342Y-135609286D01*
X114759342Y-135609286D02*
X114854580Y-135656905D01*
X114854580Y-135656905D02*
X114902200Y-135704524D01*
X114902200Y-135704524D02*
X114949819Y-135799762D01*
X114949819Y-135799762D02*
X114949819Y-135990238D01*
X114949819Y-135990238D02*
X114902200Y-136085476D01*
X114902200Y-136085476D02*
X114854580Y-136133095D01*
X114854580Y-136133095D02*
X114759342Y-136180714D01*
X114759342Y-136180714D02*
X114521247Y-136180714D01*
X114521247Y-136180714D02*
X114426009Y-136133095D01*
X114426009Y-136133095D02*
X114378390Y-136085476D01*
X114378390Y-136085476D02*
X114330771Y-135990238D01*
X114330771Y-135990238D02*
X114330771Y-135799762D01*
X114330771Y-135799762D02*
X114378390Y-135704524D01*
X114378390Y-135704524D02*
X114426009Y-135656905D01*
X114426009Y-135656905D02*
X114521247Y-135609286D01*
X125116666Y-139904819D02*
X125592856Y-139904819D01*
X125592856Y-139904819D02*
X125592856Y-138904819D01*
X124307142Y-138904819D02*
X124783332Y-138904819D01*
X124783332Y-138904819D02*
X124830951Y-139381009D01*
X124830951Y-139381009D02*
X124783332Y-139333390D01*
X124783332Y-139333390D02*
X124688094Y-139285771D01*
X124688094Y-139285771D02*
X124449999Y-139285771D01*
X124449999Y-139285771D02*
X124354761Y-139333390D01*
X124354761Y-139333390D02*
X124307142Y-139381009D01*
X124307142Y-139381009D02*
X124259523Y-139476247D01*
X124259523Y-139476247D02*
X124259523Y-139714342D01*
X124259523Y-139714342D02*
X124307142Y-139809580D01*
X124307142Y-139809580D02*
X124354761Y-139857200D01*
X124354761Y-139857200D02*
X124449999Y-139904819D01*
X124449999Y-139904819D02*
X124688094Y-139904819D01*
X124688094Y-139904819D02*
X124783332Y-139857200D01*
X124783332Y-139857200D02*
X124830951Y-139809580D01*
D11*
%TO.C,R18*%
X129802500Y-124712258D02*
X129802500Y-124237742D01*
X130847500Y-124712258D02*
X130847500Y-124237742D01*
%TO.C,C28*%
X135362836Y-128345000D02*
X135147164Y-128345000D01*
X135362836Y-129065000D02*
X135147164Y-129065000D01*
%TO.C,R28*%
X128121359Y-114085000D02*
X128428641Y-114085000D01*
X128121359Y-114845000D02*
X128428641Y-114845000D01*
%TO.C,C3*%
X114362836Y-112845000D02*
X114147164Y-112845000D01*
X114362836Y-113565000D02*
X114147164Y-113565000D01*
%TO.C,R43*%
X128185000Y-132078641D02*
X128185000Y-131771359D01*
X128945000Y-132078641D02*
X128945000Y-131771359D01*
%TO.C,R49*%
X137871359Y-119585000D02*
X138178641Y-119585000D01*
X137871359Y-120345000D02*
X138178641Y-120345000D01*
%TO.C,R9*%
X123928641Y-128085000D02*
X123621359Y-128085000D01*
X123928641Y-128845000D02*
X123621359Y-128845000D01*
%TO.C,C11*%
X126112836Y-118345000D02*
X125897164Y-118345000D01*
X126112836Y-119065000D02*
X125897164Y-119065000D01*
D12*
%TO.C,J14*%
X141469992Y-110900000D02*
X142498847Y-110900000D01*
X141469992Y-112643866D02*
X141469992Y-110900000D01*
X141469992Y-113893802D02*
X141469992Y-113706147D01*
X141469992Y-115143993D02*
X141469992Y-114956083D01*
X141469992Y-116393929D02*
X141469992Y-116206274D01*
X141469992Y-117643866D02*
X141469992Y-117456210D01*
X141469992Y-118893802D02*
X141469992Y-118706147D01*
X141469992Y-121700000D02*
X141469992Y-119956083D01*
X141469992Y-121700000D02*
X142498847Y-121700000D01*
X145570018Y-112008255D02*
X145570018Y-120591720D01*
D11*
X140888812Y-111733882D02*
X140946329Y-111751330D01*
X140999337Y-111779663D01*
X141045798Y-111817793D01*
X141083929Y-111864255D01*
X141112262Y-111917263D01*
X141129709Y-111974779D01*
X141135601Y-112034595D01*
X141129709Y-112094410D01*
X141112262Y-112151927D01*
X141083929Y-112204935D01*
X141045798Y-112251397D01*
X140999337Y-112289527D01*
X140946329Y-112317860D01*
X140888812Y-112335308D01*
X140828997Y-112341199D01*
X140769181Y-112335308D01*
X140711664Y-112317860D01*
X140658657Y-112289527D01*
X140612195Y-112251397D01*
X140574065Y-112204935D01*
X140545732Y-112151927D01*
X140528284Y-112094410D01*
X140522393Y-112034595D01*
X140528284Y-111974779D01*
X140545732Y-111917263D01*
X140574065Y-111864255D01*
X140612195Y-111817793D01*
X140658657Y-111779663D01*
X140711664Y-111751330D01*
X140769181Y-111733882D01*
X140828997Y-111727991D01*
X140888812Y-111733882D01*
G36*
X140888812Y-111733882D02*
G01*
X140946329Y-111751330D01*
X140999337Y-111779663D01*
X141045798Y-111817793D01*
X141083929Y-111864255D01*
X141112262Y-111917263D01*
X141129709Y-111974779D01*
X141135601Y-112034595D01*
X141129709Y-112094410D01*
X141112262Y-112151927D01*
X141083929Y-112204935D01*
X141045798Y-112251397D01*
X140999337Y-112289527D01*
X140946329Y-112317860D01*
X140888812Y-112335308D01*
X140828997Y-112341199D01*
X140769181Y-112335308D01*
X140711664Y-112317860D01*
X140658657Y-112289527D01*
X140612195Y-112251397D01*
X140574065Y-112204935D01*
X140545732Y-112151927D01*
X140528284Y-112094410D01*
X140522393Y-112034595D01*
X140528284Y-111974779D01*
X140545732Y-111917263D01*
X140574065Y-111864255D01*
X140612195Y-111817793D01*
X140658657Y-111779663D01*
X140711664Y-111751330D01*
X140769181Y-111733882D01*
X140828997Y-111727991D01*
X140888812Y-111733882D01*
G37*
%TO.C,C59*%
X116612836Y-119845000D02*
X116397164Y-119845000D01*
X116612836Y-120565000D02*
X116397164Y-120565000D01*
%TO.C,R50*%
X135371359Y-125835000D02*
X135678641Y-125835000D01*
X135371359Y-126595000D02*
X135678641Y-126595000D01*
%TO.C,R26*%
X114685000Y-122078641D02*
X114685000Y-121771359D01*
X115445000Y-122078641D02*
X115445000Y-121771359D01*
%TO.C,C84*%
X131945000Y-114797164D02*
X131945000Y-115012836D01*
X132665000Y-114797164D02*
X132665000Y-115012836D01*
%TO.C,C33*%
X123612836Y-125095000D02*
X123397164Y-125095000D01*
X123612836Y-125815000D02*
X123397164Y-125815000D01*
D12*
%TO.C,U24*%
X129375089Y-107075000D02*
X129375089Y-108875025D01*
X132475114Y-107075000D02*
X132475114Y-108875025D01*
X132703003Y-109372003D02*
G75*
G02*
X132449003Y-109372003I-127000J0D01*
G01*
X132449003Y-109372003D02*
G75*
G02*
X132703003Y-109372003I127000J0D01*
G01*
D11*
%TO.C,R59*%
X131178641Y-110585000D02*
X130871359Y-110585000D01*
X131178641Y-111345000D02*
X130871359Y-111345000D01*
%TO.C,C88*%
X110445000Y-103297164D02*
X110445000Y-103512836D01*
X111165000Y-103297164D02*
X111165000Y-103512836D01*
%TO.C,R10*%
X123928641Y-126835000D02*
X123621359Y-126835000D01*
X123928641Y-127595000D02*
X123621359Y-127595000D01*
%TO.C,C5*%
X126612836Y-128095000D02*
X126397164Y-128095000D01*
X126612836Y-128815000D02*
X126397164Y-128815000D01*
%TO.C,R19*%
X124928641Y-119835000D02*
X124621359Y-119835000D01*
X124928641Y-120595000D02*
X124621359Y-120595000D01*
%TO.C,C13*%
X129445000Y-117297164D02*
X129445000Y-117512836D01*
X130165000Y-117297164D02*
X130165000Y-117512836D01*
%TO.C,C27*%
X123695000Y-133012836D02*
X123695000Y-132797164D01*
X124415000Y-133012836D02*
X124415000Y-132797164D01*
%TO.C,R41*%
X126685000Y-130828641D02*
X126685000Y-130521359D01*
X127445000Y-130828641D02*
X127445000Y-130521359D01*
%TO.C,C61*%
X134695000Y-118762836D02*
X134695000Y-118547164D01*
X135415000Y-118762836D02*
X135415000Y-118547164D01*
%TO.C,C57*%
X124397164Y-129345000D02*
X124612836Y-129345000D01*
X124397164Y-130065000D02*
X124612836Y-130065000D01*
%TO.C,C6*%
X127806252Y-124990000D02*
X127283748Y-124990000D01*
X127806252Y-126460000D02*
X127283748Y-126460000D01*
%TO.C,C4*%
X115397164Y-126845000D02*
X115612836Y-126845000D01*
X115397164Y-127565000D02*
X115612836Y-127565000D01*
%TO.C,C50*%
X124945000Y-114512836D02*
X124945000Y-114297164D01*
X125665000Y-114512836D02*
X125665000Y-114297164D01*
%TO.C,C10*%
X128112836Y-117095000D02*
X127897164Y-117095000D01*
X128112836Y-117815000D02*
X127897164Y-117815000D01*
%TO.C,R5*%
X118121359Y-136085000D02*
X118428641Y-136085000D01*
X118121359Y-136845000D02*
X118428641Y-136845000D01*
D12*
%TO.C,J9*%
X112775997Y-102736210D02*
X112775997Y-103874056D01*
X112775997Y-103874056D02*
X114493828Y-103874056D01*
X115556109Y-103874056D02*
X115743840Y-103874056D01*
X116806121Y-103874056D02*
X116993828Y-103874056D01*
X118056109Y-103874056D02*
X118243840Y-103874056D01*
X119306045Y-103874056D02*
X119493777Y-103874056D01*
X119306172Y-103874056D02*
X119493904Y-103874056D01*
X119306274Y-103874031D02*
X121024130Y-103874031D01*
X119800127Y-99683048D02*
X113918999Y-99683048D01*
X120556058Y-103874056D02*
X120743764Y-103874056D01*
X121024130Y-103874031D02*
X121024130Y-102736236D01*
D11*
X114426975Y-104636058D02*
X114426975Y-104636083D01*
X114045999Y-105017059D01*
X114045999Y-104382057D01*
X114426975Y-104636058D01*
G36*
X114426975Y-104636058D02*
G01*
X114426975Y-104636083D01*
X114045999Y-105017059D01*
X114045999Y-104382057D01*
X114426975Y-104636058D01*
G37*
%TO.C,C32*%
X116695000Y-121797164D02*
X116695000Y-122012836D01*
X117415000Y-121797164D02*
X117415000Y-122012836D01*
%TO.C,R20*%
X121371359Y-126835000D02*
X121678641Y-126835000D01*
X121371359Y-127595000D02*
X121678641Y-127595000D01*
%TO.C,C81*%
X131397164Y-116345000D02*
X131612836Y-116345000D01*
X131397164Y-117065000D02*
X131612836Y-117065000D01*
D13*
%TO.C,U2*%
X118173787Y-119423927D02*
X118419507Y-119423927D01*
X118173787Y-120169622D02*
X118173787Y-119423927D01*
X118173787Y-121830632D02*
X118173787Y-122576327D01*
X118173787Y-122576327D02*
X118419507Y-122576327D01*
X120826213Y-119423927D02*
X120580493Y-119423927D01*
X120826213Y-120169622D02*
X120826213Y-119423927D01*
X120826213Y-121830632D02*
X120826213Y-122576327D01*
X120826213Y-122576327D02*
X120580493Y-122576327D01*
D14*
X120336932Y-122905131D02*
G75*
G02*
X120187072Y-122905131I-74930J0D01*
G01*
X120187072Y-122905131D02*
G75*
G02*
X120336932Y-122905131I74930J0D01*
G01*
D11*
%TO.C,R48*%
X132178641Y-126585000D02*
X131871359Y-126585000D01*
X132178641Y-127345000D02*
X131871359Y-127345000D01*
%TO.C,C29*%
X136112836Y-133595000D02*
X135897164Y-133595000D01*
X136112836Y-134315000D02*
X135897164Y-134315000D01*
%TO.C,R60*%
X115678641Y-116085000D02*
X115371359Y-116085000D01*
X115678641Y-116845000D02*
X115371359Y-116845000D01*
%TO.C,C45*%
X114840000Y-129433748D02*
X114840000Y-129956252D01*
X116310000Y-129433748D02*
X116310000Y-129956252D01*
D13*
%TO.C,U21*%
X114163805Y-107923673D02*
X115205410Y-107923673D01*
X114163805Y-109676073D02*
X114163805Y-107923673D01*
X115244602Y-109676073D02*
X116155398Y-109676073D01*
X117236195Y-107923673D02*
X116194590Y-107923673D01*
X117236195Y-109676073D02*
X117236195Y-107923673D01*
D11*
%TO.C,R1*%
X121178641Y-128085000D02*
X120871359Y-128085000D01*
X121178641Y-128845000D02*
X120871359Y-128845000D01*
%TO.C,SW1*%
X120095000Y-129995000D02*
X120395000Y-129995000D01*
X120095000Y-133295000D02*
X120095000Y-129995000D01*
X120395000Y-133295000D02*
X120095000Y-133295000D01*
X122595000Y-133295000D02*
X122895000Y-133295000D01*
X122895000Y-129995000D02*
X122595000Y-129995000D01*
X122895000Y-133295000D02*
X122895000Y-129995000D01*
D13*
%TO.C,D6*%
X124263805Y-106923927D02*
X124263805Y-108676327D01*
X124263805Y-108676327D02*
X125305410Y-108676327D01*
X126255398Y-106923927D02*
X125344602Y-106923927D01*
X127336195Y-106923927D02*
X127336195Y-108676327D01*
X127336195Y-108676327D02*
X126294590Y-108676327D01*
D11*
%TO.C,R45*%
X124435000Y-112328641D02*
X124435000Y-112021359D01*
X125195000Y-112328641D02*
X125195000Y-112021359D01*
%TO.C,R21*%
X121121359Y-125585000D02*
X121428641Y-125585000D01*
X121121359Y-126345000D02*
X121428641Y-126345000D01*
%TO.C,R14*%
X118871359Y-126085000D02*
X119178641Y-126085000D01*
X118871359Y-126845000D02*
X119178641Y-126845000D01*
D13*
%TO.C,D8*%
X119623774Y-137673762D02*
X122376226Y-137673762D01*
X119623774Y-139526238D02*
X122376226Y-139526238D01*
X120283236Y-139476226D02*
X120283236Y-137723774D01*
X122376226Y-137673762D02*
X122376226Y-137866802D01*
X122376226Y-139526238D02*
X122376226Y-139333198D01*
D11*
X119700000Y-137917577D02*
X119395199Y-137917577D01*
X119395199Y-137597587D01*
X119700000Y-137597587D01*
X119700000Y-137917577D01*
G36*
X119700000Y-137917577D02*
G01*
X119395199Y-137917577D01*
X119395199Y-137597587D01*
X119700000Y-137597587D01*
X119700000Y-137917577D01*
G37*
X119700000Y-139602413D02*
X119395199Y-139602413D01*
X119395199Y-139282423D01*
X119700000Y-139282423D01*
X119700000Y-139602413D01*
G36*
X119700000Y-139602413D02*
G01*
X119395199Y-139602413D01*
X119395199Y-139282423D01*
X119700000Y-139282423D01*
X119700000Y-139602413D01*
G37*
%TO.C,R53*%
X138435000Y-118328641D02*
X138435000Y-118021359D01*
X139195000Y-118328641D02*
X139195000Y-118021359D01*
%TO.C,R38*%
X104678641Y-134335000D02*
X104371359Y-134335000D01*
X104678641Y-135095000D02*
X104371359Y-135095000D01*
%TO.C,C90*%
X137945000Y-103297164D02*
X137945000Y-103512836D01*
X138665000Y-103297164D02*
X138665000Y-103512836D01*
%TO.C,C7*%
X116033748Y-123490000D02*
X116556252Y-123490000D01*
X116033748Y-124960000D02*
X116556252Y-124960000D01*
%TO.C,C58*%
X135945000Y-119762836D02*
X135945000Y-119547164D01*
X136665000Y-119762836D02*
X136665000Y-119547164D01*
%TO.C,C23*%
X122606252Y-134735000D02*
X121183748Y-134735000D01*
X122606252Y-136555000D02*
X121183748Y-136555000D01*
%TO.C,C19*%
X117945000Y-133262836D02*
X117945000Y-133047164D01*
X118665000Y-133262836D02*
X118665000Y-133047164D01*
%TO.C,C42*%
X140033748Y-129490000D02*
X140556252Y-129490000D01*
X140033748Y-130960000D02*
X140556252Y-130960000D01*
%TO.C,C68*%
X130695000Y-134512836D02*
X130695000Y-134297164D01*
X131415000Y-134512836D02*
X131415000Y-134297164D01*
%TO.C,C15*%
X131397164Y-117595000D02*
X131612836Y-117595000D01*
X131397164Y-118315000D02*
X131612836Y-118315000D01*
%TO.C,R12*%
X116371359Y-111835000D02*
X116678641Y-111835000D01*
X116371359Y-112595000D02*
X116678641Y-112595000D01*
%TO.C,R39*%
X102185000Y-135578641D02*
X102185000Y-135271359D01*
X102945000Y-135578641D02*
X102945000Y-135271359D01*
%TO.C,C51*%
X126397164Y-111845000D02*
X126612836Y-111845000D01*
X126397164Y-112565000D02*
X126612836Y-112565000D01*
%TO.C,R31*%
X132685000Y-123771359D02*
X132685000Y-124078641D01*
X133445000Y-123771359D02*
X133445000Y-124078641D01*
%TO.C,C16*%
X131445000Y-123797164D02*
X131445000Y-124012836D01*
X132165000Y-123797164D02*
X132165000Y-124012836D01*
%TO.C,R34*%
X127935000Y-127771359D02*
X127935000Y-128078641D01*
X128695000Y-127771359D02*
X128695000Y-128078641D01*
%TO.C,C63*%
X135945000Y-117512836D02*
X135945000Y-117297164D01*
X136665000Y-117512836D02*
X136665000Y-117297164D01*
D13*
%TO.C,DZ1*%
X108168800Y-113431213D02*
X107368800Y-113431213D01*
X109711802Y-111578787D02*
X109711802Y-113431213D01*
X110121200Y-111578787D02*
X107368800Y-111578787D01*
X110121200Y-113431213D02*
X109021201Y-113431213D01*
D11*
X110349801Y-111785005D02*
X110045000Y-111785005D01*
X110045000Y-111502587D01*
X110349801Y-111502587D01*
X110349801Y-111785005D01*
G36*
X110349801Y-111785005D02*
G01*
X110045000Y-111785005D01*
X110045000Y-111502587D01*
X110349801Y-111502587D01*
X110349801Y-111785005D01*
G37*
X110349801Y-113507413D02*
X110045000Y-113507413D01*
X110045000Y-113224995D01*
X110349801Y-113224995D01*
X110349801Y-113507413D01*
G36*
X110349801Y-113507413D02*
G01*
X110045000Y-113507413D01*
X110045000Y-113224995D01*
X110349801Y-113224995D01*
X110349801Y-113507413D01*
G37*
D12*
%TO.C,D_USB*%
X137672023Y-128615013D02*
X137671007Y-128613997D01*
X137677027Y-126914987D02*
X137676011Y-126916003D01*
X137968797Y-126914987D02*
X137677027Y-126914987D01*
X137968797Y-128615013D02*
X137672023Y-128615013D01*
X137968797Y-128615013D02*
X140661203Y-128615013D01*
X139034990Y-127765000D02*
X138704992Y-127765000D01*
X139060999Y-128273001D02*
X139060999Y-127256999D01*
X139137200Y-127765000D02*
X139721401Y-128171401D01*
X139721401Y-127358599D02*
X139137200Y-127765000D01*
X139721401Y-127765254D02*
X140035091Y-127765254D01*
X139721401Y-128171401D02*
X139721401Y-127358599D01*
X140661203Y-126914987D02*
X137968797Y-126914987D01*
X140661203Y-127058853D02*
X140661203Y-126914987D01*
X140661203Y-128615013D02*
X140661203Y-128471147D01*
D11*
X139721401Y-128171401D02*
X139137200Y-127765000D01*
X139721401Y-127358599D01*
X139721401Y-128171401D01*
G36*
X139721401Y-128171401D02*
G01*
X139137200Y-127765000D01*
X139721401Y-127358599D01*
X139721401Y-128171401D01*
G37*
X137813425Y-127158015D02*
X137508599Y-127158015D01*
X137508599Y-126787987D01*
X137813425Y-126787987D01*
X137813425Y-127158015D01*
G36*
X137813425Y-127158015D02*
G01*
X137508599Y-127158015D01*
X137508599Y-126787987D01*
X137813425Y-126787987D01*
X137813425Y-127158015D01*
G37*
X137813425Y-128742013D02*
X137508599Y-128742013D01*
X137508599Y-128371960D01*
X137813425Y-128371960D01*
X137813425Y-128742013D01*
G36*
X137813425Y-128742013D02*
G01*
X137508599Y-128742013D01*
X137508599Y-128371960D01*
X137813425Y-128371960D01*
X137813425Y-128742013D01*
G37*
D13*
%TO.C,U25*%
X140908787Y-107886207D02*
X140908787Y-106183793D01*
X141958597Y-106183793D02*
X142911403Y-106183793D01*
X143961213Y-107886207D02*
X143961213Y-106183793D01*
D15*
X144236117Y-108178002D02*
G75*
G02*
X143935889Y-108178002I-150114J0D01*
G01*
X143935889Y-108178002D02*
G75*
G02*
X144236117Y-108178002I150114J0D01*
G01*
D13*
%TO.C,U3*%
X122123927Y-121773787D02*
X122123927Y-122019507D01*
X122123927Y-124426213D02*
X122123927Y-124180493D01*
X122869622Y-121773787D02*
X122123927Y-121773787D01*
X122869622Y-124426213D02*
X122123927Y-124426213D01*
X124530632Y-121773787D02*
X125276327Y-121773787D01*
X124530632Y-124426213D02*
X125276327Y-124426213D01*
X125276327Y-121773787D02*
X125276327Y-122019507D01*
X125276327Y-124426213D02*
X125276327Y-124180493D01*
D14*
X125680061Y-122337998D02*
G75*
G02*
X125530201Y-122337998I-74930J0D01*
G01*
X125530201Y-122337998D02*
G75*
G02*
X125680061Y-122337998I74930J0D01*
G01*
D13*
%TO.C,Y1*%
X128542799Y-118692913D02*
X130400000Y-118692913D01*
X128542799Y-120350114D02*
X128542799Y-118692913D01*
X128771400Y-118921514D02*
X128771400Y-122278740D01*
X128771400Y-122278740D02*
X132828600Y-122278740D01*
X132828600Y-118921514D02*
X128771400Y-118921514D01*
X132828600Y-122278740D02*
X132828600Y-118921514D01*
D11*
%TO.C,C17*%
X117585000Y-130256252D02*
X117585000Y-128833748D01*
X119405000Y-130256252D02*
X119405000Y-128833748D01*
%TO.C,C76*%
X135397164Y-127095000D02*
X135612836Y-127095000D01*
X135397164Y-127815000D02*
X135612836Y-127815000D01*
%TO.C,C60*%
X130612836Y-114845000D02*
X130397164Y-114845000D01*
X130612836Y-115565000D02*
X130397164Y-115565000D01*
D12*
%TO.C,J11*%
X123975870Y-142125969D02*
X123975870Y-143263764D01*
X124443942Y-142125944D02*
X124256236Y-142125944D01*
X125199873Y-146316952D02*
X131081001Y-146316952D01*
X125693726Y-142125969D02*
X123975870Y-142125969D01*
X125693828Y-142125944D02*
X125506096Y-142125944D01*
X125693955Y-142125944D02*
X125506223Y-142125944D01*
X126943891Y-142125944D02*
X126756160Y-142125944D01*
X128193879Y-142125944D02*
X128006172Y-142125944D01*
X129443891Y-142125944D02*
X129256160Y-142125944D01*
X132224003Y-142125944D02*
X130506172Y-142125944D01*
X132224003Y-143263790D02*
X132224003Y-142125944D01*
D11*
X130954001Y-141617943D02*
X130573025Y-141363942D01*
X130573025Y-141363917D01*
X130954001Y-140982941D01*
X130954001Y-141617943D01*
G36*
X130954001Y-141617943D02*
G01*
X130573025Y-141363942D01*
X130573025Y-141363917D01*
X130954001Y-140982941D01*
X130954001Y-141617943D01*
G37*
%TO.C,R25*%
X115185000Y-118271359D02*
X115185000Y-118578641D01*
X115945000Y-118271359D02*
X115945000Y-118578641D01*
%TO.C,C35*%
X117362836Y-117345000D02*
X117147164Y-117345000D01*
X117362836Y-118065000D02*
X117147164Y-118065000D01*
%TO.C,R11*%
X116935000Y-114828641D02*
X116935000Y-114521359D01*
X117695000Y-114828641D02*
X117695000Y-114521359D01*
%TO.C,C78*%
X115445000Y-133512836D02*
X115445000Y-133297164D01*
X116165000Y-133512836D02*
X116165000Y-133297164D01*
D13*
%TO.C,U12*%
X136984205Y-129760808D02*
X135205795Y-129760808D01*
X136984205Y-132839192D02*
X135205795Y-132839192D01*
D15*
X137546613Y-129631725D02*
G75*
G02*
X137246385Y-129631725I-150114J0D01*
G01*
X137246385Y-129631725D02*
G75*
G02*
X137546613Y-129631725I150114J0D01*
G01*
D11*
%TO.C,C65*%
X133195000Y-134512836D02*
X133195000Y-134297164D01*
X133915000Y-134512836D02*
X133915000Y-134297164D01*
D12*
%TO.C,J8*%
X99442000Y-116133985D02*
X100287999Y-116133985D01*
X100015599Y-130866015D02*
X99400000Y-130866015D01*
X101364023Y-130866015D02*
X100969600Y-130866015D01*
X103780901Y-116133985D02*
X111206492Y-116133985D01*
X111286147Y-130866015D02*
X104698692Y-130866015D01*
%TO.C,J6*%
X123975997Y-102736210D02*
X123975997Y-103874056D01*
X123975997Y-103874056D02*
X125693828Y-103874056D01*
X126756109Y-103874056D02*
X126943840Y-103874056D01*
X128006121Y-103874056D02*
X128193828Y-103874056D01*
X129256109Y-103874056D02*
X129443840Y-103874056D01*
X130506045Y-103874056D02*
X130693777Y-103874056D01*
X130506172Y-103874056D02*
X130693904Y-103874056D01*
X130506274Y-103874031D02*
X132224130Y-103874031D01*
X131000127Y-99683048D02*
X125118999Y-99683048D01*
X131756058Y-103874056D02*
X131943764Y-103874056D01*
X132224130Y-103874031D02*
X132224130Y-102736236D01*
D11*
X125626975Y-104636058D02*
X125626975Y-104636083D01*
X125245999Y-105017059D01*
X125245999Y-104382057D01*
X125626975Y-104636058D01*
G36*
X125626975Y-104636058D02*
G01*
X125626975Y-104636083D01*
X125245999Y-105017059D01*
X125245999Y-104382057D01*
X125626975Y-104636058D01*
G37*
%TO.C,C69*%
X129585000Y-131256252D02*
X129585000Y-129833748D01*
X131405000Y-131256252D02*
X131405000Y-129833748D01*
D16*
%TO.C,U4*%
X118799873Y-114400127D02*
X118799873Y-117800127D01*
X118799873Y-117800127D02*
X119074879Y-117800127D01*
X119074879Y-114400127D02*
X118799873Y-114400127D01*
X123924892Y-114400127D02*
X124199873Y-114400127D01*
X124199873Y-114400127D02*
X124199873Y-117800127D01*
X124199873Y-117800127D02*
X123924892Y-117800127D01*
D12*
X118901448Y-114080823D02*
G75*
G02*
X118898908Y-114080823I-1270J80640D01*
G01*
D11*
%TO.C,C1*%
X128112836Y-123595000D02*
X127897164Y-123595000D01*
X128112836Y-124315000D02*
X127897164Y-124315000D01*
%TO.C,R47*%
X132428641Y-125335000D02*
X132121359Y-125335000D01*
X132428641Y-126095000D02*
X132121359Y-126095000D01*
%TO.C,C44*%
X127445000Y-120047164D02*
X127445000Y-120262836D01*
X128165000Y-120047164D02*
X128165000Y-120262836D01*
%TO.C,R40*%
X126621359Y-132085000D02*
X126928641Y-132085000D01*
X126621359Y-132845000D02*
X126928641Y-132845000D01*
D12*
%TO.C,J5*%
X112775870Y-142125969D02*
X112775870Y-143263764D01*
X113243942Y-142125944D02*
X113056236Y-142125944D01*
X113999873Y-146316952D02*
X119881001Y-146316952D01*
X114493726Y-142125969D02*
X112775870Y-142125969D01*
X114493828Y-142125944D02*
X114306096Y-142125944D01*
X114493955Y-142125944D02*
X114306223Y-142125944D01*
X115743891Y-142125944D02*
X115556160Y-142125944D01*
X116993879Y-142125944D02*
X116806172Y-142125944D01*
X118243891Y-142125944D02*
X118056160Y-142125944D01*
X121024003Y-142125944D02*
X119306172Y-142125944D01*
X121024003Y-143263790D02*
X121024003Y-142125944D01*
D11*
X119754001Y-141617943D02*
X119373025Y-141363942D01*
X119373025Y-141363917D01*
X119754001Y-140982941D01*
X119754001Y-141617943D01*
G36*
X119754001Y-141617943D02*
G01*
X119373025Y-141363942D01*
X119373025Y-141363917D01*
X119754001Y-140982941D01*
X119754001Y-141617943D01*
G37*
%TO.C,R22*%
X109871359Y-133085000D02*
X110178641Y-133085000D01*
X109871359Y-133845000D02*
X110178641Y-133845000D01*
D13*
%TO.C,Q3*%
X134618787Y-113618787D02*
X134618787Y-115071213D01*
X134618787Y-115071213D02*
X135650410Y-115071213D01*
X136600398Y-113618787D02*
X135689602Y-113618787D01*
X137671213Y-113618787D02*
X137671213Y-115071213D01*
X137671213Y-115071213D02*
X136639590Y-115071213D01*
D11*
%TO.C,C31*%
X120695000Y-124047164D02*
X120695000Y-124262836D01*
X121415000Y-124047164D02*
X121415000Y-124262836D01*
%TO.C,C92*%
X113788748Y-137690000D02*
X115211252Y-137690000D01*
X113788748Y-139510000D02*
X115211252Y-139510000D01*
%TO.C,R57*%
X132935000Y-117328641D02*
X132935000Y-117021359D01*
X133695000Y-117328641D02*
X133695000Y-117021359D01*
%TO.C,R36*%
X133435000Y-119521359D02*
X133435000Y-119828641D01*
X134195000Y-119521359D02*
X134195000Y-119828641D01*
%TO.C,C8*%
X115695000Y-113797164D02*
X115695000Y-114012836D01*
X116415000Y-113797164D02*
X116415000Y-114012836D01*
%TO.C,C91*%
X136612836Y-103095000D02*
X136397164Y-103095000D01*
X136612836Y-103815000D02*
X136397164Y-103815000D01*
D14*
%TO.C,U11*%
X118373787Y-107978588D02*
X118373787Y-111021412D01*
X118373787Y-107978588D02*
X118832436Y-107978588D01*
X118373787Y-111021412D02*
X118832436Y-111021412D01*
X119157557Y-107978588D02*
X120102438Y-107978588D01*
X119157557Y-111021412D02*
X120102438Y-111021412D01*
X120427559Y-107978588D02*
X121372441Y-107978588D01*
X120427559Y-111021412D02*
X121372441Y-111021412D01*
X121697562Y-107978588D02*
X122642443Y-107978588D01*
X121697562Y-111021412D02*
X122642443Y-111021412D01*
X122967564Y-107978588D02*
X123426213Y-107978588D01*
X122967564Y-111021412D02*
X123426213Y-111021412D01*
X123426213Y-107978588D02*
X118373787Y-107978588D01*
X123426213Y-109051105D02*
X123426213Y-107978588D01*
X123426213Y-109935382D02*
X123426213Y-111021412D01*
X123426213Y-111021412D02*
X118373787Y-111021412D01*
X123426213Y-109051105D02*
G75*
G02*
X123426213Y-109935383I0J-442139D01*
G01*
D15*
X122955118Y-110516002D02*
G75*
G02*
X122654890Y-110516002I-150114J0D01*
G01*
X122654890Y-110516002D02*
G75*
G02*
X122955118Y-110516002I150114J0D01*
G01*
D12*
%TO.C,U23*%
X107875089Y-142575000D02*
X107875089Y-144375025D01*
X110975114Y-142575000D02*
X110975114Y-144375025D01*
X111203003Y-144872003D02*
G75*
G02*
X110949003Y-144872003I-127000J0D01*
G01*
X110949003Y-144872003D02*
G75*
G02*
X111203003Y-144872003I127000J0D01*
G01*
D11*
%TO.C,C70*%
X130835000Y-138756252D02*
X130835000Y-137333748D01*
X132655000Y-138756252D02*
X132655000Y-137333748D01*
%TO.C,R58*%
X136621359Y-111335000D02*
X136928641Y-111335000D01*
X136621359Y-112095000D02*
X136928641Y-112095000D01*
%TO.C,C21*%
X116695000Y-133512836D02*
X116695000Y-133297164D01*
X117415000Y-133512836D02*
X117415000Y-133297164D01*
%TO.C,R6*%
X115871359Y-134835000D02*
X116178641Y-134835000D01*
X115871359Y-135595000D02*
X116178641Y-135595000D01*
%TO.C,C43*%
X126195000Y-120297164D02*
X126195000Y-120512836D01*
X126915000Y-120297164D02*
X126915000Y-120512836D01*
%TO.C,R7*%
X118121359Y-134835000D02*
X118428641Y-134835000D01*
X118121359Y-135595000D02*
X118428641Y-135595000D01*
%TO.C,C34*%
X119445000Y-124047164D02*
X119445000Y-124262836D01*
X120165000Y-124047164D02*
X120165000Y-124262836D01*
D17*
%TO.C,Y2*%
X134423689Y-121070536D02*
X137823689Y-121070536D01*
X134423689Y-125170536D02*
X134423689Y-121070536D01*
X137541876Y-120813995D02*
X138049877Y-120813995D01*
X137823689Y-121070536D02*
X137823689Y-125170536D01*
X137823689Y-125170536D02*
X134423689Y-125170536D01*
X138049877Y-120813995D02*
X138049877Y-121321996D01*
D11*
%TO.C,L5*%
X124890000Y-133390000D02*
X124890000Y-138610000D01*
X124890000Y-138610000D02*
X125140000Y-138610000D01*
X125140000Y-133390000D02*
X124890000Y-133390000D01*
X129860000Y-138610000D02*
X130110000Y-138610000D01*
X130110000Y-133390000D02*
X129860000Y-133390000D01*
X130110000Y-138610000D02*
X130110000Y-133390000D01*
%TO.C,C12*%
X128112836Y-115845000D02*
X127897164Y-115845000D01*
X128112836Y-116565000D02*
X127897164Y-116565000D01*
%TO.C,C14*%
X127362836Y-121845000D02*
X127147164Y-121845000D01*
X127362836Y-122565000D02*
X127147164Y-122565000D01*
%TO.C,C56*%
X137195000Y-117547164D02*
X137195000Y-117762836D01*
X137915000Y-117547164D02*
X137915000Y-117762836D01*
%TO.C,C86*%
X133195000Y-114797164D02*
X133195000Y-115012836D01*
X133915000Y-114797164D02*
X133915000Y-115012836D01*
%TO.C,C9*%
X115397164Y-125595000D02*
X115612836Y-125595000D01*
X115397164Y-126315000D02*
X115612836Y-126315000D01*
%TO.C,C2*%
X126195000Y-113797164D02*
X126195000Y-114012836D01*
X126915000Y-113797164D02*
X126915000Y-114012836D01*
%TD*%
M02*
