%TF.GenerationSoftware,KiCad,Pcbnew,9.0.8+dfsg-1*%
%TF.CreationDate,2026-10-05T18:06:23+01:00*%
%TF.ProjectId,NAVCORE-SoOP,4e415643-4f52-4452-9d53-6f4f502e6b69,rev?*%
%TF.SameCoordinates,Original*%
%TF.FileFunction,Drillmap*%
%TF.FilePolarity,Positive*%
%FSLAX45Y45*%
G04 Gerber Fmt 4.5, Leading zero omitted, Abs format (unit mm)*
G04 Created by KiCad (PCBNEW 9.0.8+dfsg-1) date 2026-10-05 18:06:23*
%MOMM*%
%LPD*%
G01*
G04 APERTURE LIST*
%ADD10C,0.100000*%
%ADD11C,0.200000*%
G04 APERTURE END LIST*
D10*
X9925000Y-9990000D02*
G75*
G02*
X9975000Y-9940000I50000J0D01*
G01*
X9925000Y-14610000D02*
X9925000Y-9990000D01*
X9975000Y-9940000D02*
X14525000Y-9940000D01*
X9975000Y-14660000D02*
G75*
G02*
X9925000Y-14610000I0J50000D01*
G01*
X10925000Y-10775000D02*
G75*
G02*
X10525000Y-10775000I-200000J0D01*
G01*
X10525000Y-10775000D02*
G75*
G02*
X10925000Y-10775000I200000J0D01*
G01*
X10925000Y-13825000D02*
G75*
G02*
X10525000Y-13825000I-200000J0D01*
G01*
X10525000Y-13825000D02*
G75*
G02*
X10925000Y-13825000I200000J0D01*
G01*
X13975000Y-10775000D02*
G75*
G02*
X13575000Y-10775000I-200000J0D01*
G01*
X13575000Y-10775000D02*
G75*
G02*
X13975000Y-10775000I200000J0D01*
G01*
X13975000Y-13825000D02*
G75*
G02*
X13575000Y-13825000I-200000J0D01*
G01*
X13575000Y-13825000D02*
G75*
G02*
X13975000Y-13825000I200000J0D01*
G01*
X14525000Y-9940000D02*
G75*
G02*
X14575000Y-9990000I0J-50000D01*
G01*
X14525000Y-14660000D02*
X9975000Y-14660000D01*
X14575000Y-9990000D02*
X14575000Y-14610000D01*
X14575000Y-14610000D02*
G75*
G02*
X14525000Y-14660000I-50000J0D01*
G01*
D11*
D10*
X9999375Y-11376875D02*
X10019375Y-11396875D01*
X10019375Y-11376875D02*
X9999375Y-11396875D01*
X10005625Y-10951875D02*
X10025625Y-10971875D01*
X10025625Y-10951875D02*
X10005625Y-10971875D01*
X10018125Y-11708125D02*
X10038125Y-11728125D01*
X10038125Y-11708125D02*
X10018125Y-11728125D01*
X10093555Y-11069790D02*
X10113555Y-11089790D01*
X10113555Y-11069790D02*
X10093555Y-11089790D01*
X10099375Y-11683125D02*
X10119375Y-11703125D01*
X10119375Y-11683125D02*
X10099375Y-11703125D01*
X10124375Y-10951875D02*
X10144375Y-10971875D01*
X10144375Y-10951875D02*
X10124375Y-10971875D01*
X10143125Y-11458125D02*
X10163125Y-11478125D01*
X10163125Y-11458125D02*
X10143125Y-11478125D01*
X10193125Y-11295625D02*
X10213125Y-11315625D01*
X10213125Y-11295625D02*
X10193125Y-11315625D01*
X10205625Y-11414375D02*
X10225625Y-11434375D01*
X10225625Y-11414375D02*
X10205625Y-11434375D01*
X10274375Y-11808125D02*
X10294375Y-11828125D01*
X10294375Y-11808125D02*
X10274375Y-11828125D01*
X10286875Y-12189375D02*
X10306875Y-12209375D01*
X10306875Y-12189375D02*
X10286875Y-12209375D01*
X10293125Y-11864375D02*
X10313125Y-11884375D01*
X10313125Y-11864375D02*
X10293125Y-11884375D01*
X10324375Y-10983125D02*
X10344375Y-11003125D01*
X10344375Y-10983125D02*
X10324375Y-11003125D01*
X10375000Y-10950000D02*
X10395000Y-10970000D01*
X10395000Y-10950000D02*
X10375000Y-10970000D01*
X10474375Y-11039375D02*
X10494375Y-11059375D01*
X10494375Y-11039375D02*
X10474375Y-11059375D01*
X10505625Y-12251875D02*
X10525625Y-12271875D01*
X10525625Y-12251875D02*
X10505625Y-12271875D01*
X10511875Y-11601875D02*
X10531875Y-11621875D01*
X10531875Y-11601875D02*
X10511875Y-11621875D01*
X10518125Y-11658125D02*
X10538125Y-11678125D01*
X10538125Y-11658125D02*
X10518125Y-11678125D01*
X10524375Y-11414375D02*
X10544375Y-11434375D01*
X10544375Y-11414375D02*
X10524375Y-11434375D01*
X10536875Y-11814375D02*
X10556875Y-11834375D01*
X10556875Y-11814375D02*
X10536875Y-11834375D01*
X10586875Y-11789375D02*
X10606875Y-11809375D01*
X10606875Y-11789375D02*
X10586875Y-11809375D01*
X10638470Y-13178320D02*
X10658470Y-13198320D01*
X10658470Y-13178320D02*
X10638470Y-13198320D01*
X10649375Y-11514375D02*
X10669375Y-11534375D01*
X10669375Y-11514375D02*
X10649375Y-11534375D01*
X10660000Y-12320000D02*
X10680000Y-12340000D01*
X10680000Y-12320000D02*
X10660000Y-12340000D01*
X10691630Y-14311190D02*
X10711630Y-14331190D01*
X10711630Y-14311190D02*
X10691630Y-14331190D01*
X10793125Y-12501875D02*
X10813125Y-12521875D01*
X10813125Y-12501875D02*
X10793125Y-12521875D01*
X10817200Y-11358860D02*
X10837200Y-11378860D01*
X10837200Y-11358860D02*
X10817200Y-11378860D01*
X10930625Y-11289375D02*
X10950625Y-11309375D01*
X10950625Y-11289375D02*
X10930625Y-11309375D01*
X10971220Y-13200980D02*
X10991220Y-13220980D01*
X10991220Y-13200980D02*
X10971220Y-13220980D01*
X10974375Y-14283125D02*
X10994375Y-14303125D01*
X10994375Y-14283125D02*
X10974375Y-14303125D01*
X10997190Y-11338460D02*
X11017190Y-11358460D01*
X11017190Y-11338460D02*
X10997190Y-11358460D01*
X11005520Y-12538740D02*
X11025520Y-12558740D01*
X11025520Y-12538740D02*
X11005520Y-12558740D01*
X11009000Y-13127320D02*
X11029000Y-13147320D01*
X11029000Y-13127320D02*
X11009000Y-13147320D01*
X11080000Y-10820000D02*
X11100000Y-10840000D01*
X11100000Y-10820000D02*
X11080000Y-10840000D01*
X11117515Y-12333290D02*
X11137515Y-12353290D01*
X11137515Y-12333290D02*
X11117515Y-12353290D01*
X11124375Y-10658125D02*
X11144375Y-10678125D01*
X11144375Y-10658125D02*
X11124375Y-10678125D01*
X11124375Y-10858125D02*
X11144375Y-10878125D01*
X11144375Y-10858125D02*
X11124375Y-10878125D01*
X11190960Y-12496470D02*
X11210960Y-12516470D01*
X11210960Y-12496470D02*
X11190960Y-12516470D01*
X11228010Y-11181980D02*
X11248010Y-11201980D01*
X11248010Y-11181980D02*
X11228010Y-11201980D01*
X11235900Y-12642600D02*
X11255900Y-12662600D01*
X11255900Y-12642600D02*
X11235900Y-12662600D01*
X11343125Y-13308125D02*
X11363125Y-13328125D01*
X11363125Y-13308125D02*
X11343125Y-13328125D01*
X11343880Y-13147130D02*
X11363880Y-13167130D01*
X11363880Y-13147130D02*
X11343880Y-13167130D01*
X11386875Y-13270625D02*
X11406875Y-13290625D01*
X11406875Y-13270625D02*
X11386875Y-13290625D01*
X11408550Y-12815140D02*
X11428550Y-12835140D01*
X11428550Y-12815140D02*
X11408550Y-12835140D01*
X11424070Y-10420750D02*
X11444070Y-10440750D01*
X11444070Y-10420750D02*
X11424070Y-10440750D01*
X11430625Y-13970625D02*
X11450625Y-13990625D01*
X11450625Y-13970625D02*
X11430625Y-13990625D01*
X11443125Y-11095625D02*
X11463125Y-11115625D01*
X11463125Y-11095625D02*
X11443125Y-11115625D01*
X11447960Y-11961720D02*
X11467960Y-11981720D01*
X11467960Y-11961720D02*
X11447960Y-11981720D01*
X11455610Y-12295940D02*
X11475610Y-12315940D01*
X11475610Y-12295940D02*
X11455610Y-12315940D01*
X11460460Y-12506830D02*
X11480460Y-12526830D01*
X11480460Y-12506830D02*
X11460460Y-12526830D01*
X11518125Y-10920625D02*
X11538125Y-10940625D01*
X11538125Y-10920625D02*
X11518125Y-10940625D01*
X11526320Y-11193230D02*
X11546320Y-11213230D01*
X11546320Y-11193230D02*
X11526320Y-11213230D01*
X11530625Y-11539375D02*
X11550625Y-11559375D01*
X11550625Y-11539375D02*
X11530625Y-11559375D01*
X11536660Y-12531150D02*
X11556660Y-12551150D01*
X11556660Y-12531150D02*
X11536660Y-12551150D01*
X11552890Y-10303410D02*
X11572890Y-10323410D01*
X11572890Y-10303410D02*
X11552890Y-10323410D01*
X11561875Y-10964375D02*
X11581875Y-10984375D01*
X11581875Y-10964375D02*
X11561875Y-10984375D01*
X11570150Y-11944170D02*
X11590150Y-11964170D01*
X11590150Y-11944170D02*
X11570150Y-11964170D01*
X11578820Y-12967930D02*
X11598820Y-12987930D01*
X11598820Y-12967930D02*
X11578820Y-12987930D01*
X11595220Y-13561740D02*
X11615220Y-13581740D01*
X11615220Y-13561740D02*
X11595220Y-13581740D01*
X11630625Y-13326875D02*
X11650625Y-13346875D01*
X11650625Y-13326875D02*
X11630625Y-13346875D01*
X11631700Y-11507586D02*
X11651700Y-11527586D01*
X11651700Y-11507586D02*
X11631700Y-11527586D01*
X11650000Y-13590000D02*
X11670000Y-13610000D01*
X11670000Y-13590000D02*
X11650000Y-13610000D01*
X11650415Y-11919648D02*
X11670415Y-11939648D01*
X11670415Y-11919648D02*
X11650415Y-11939648D01*
X11653440Y-10070570D02*
X11673440Y-10090570D01*
X11673440Y-10070570D02*
X11653440Y-10090570D01*
X11655625Y-10751875D02*
X11675625Y-10771875D01*
X11675625Y-10751875D02*
X11655625Y-10771875D01*
X11663700Y-11003569D02*
X11683700Y-11023569D01*
X11683700Y-11003569D02*
X11663700Y-11023569D01*
X11674375Y-11139375D02*
X11694375Y-11159375D01*
X11694375Y-11139375D02*
X11674375Y-11159375D01*
X11696835Y-13633790D02*
X11716835Y-13653790D01*
X11716835Y-13633790D02*
X11696835Y-13653790D01*
X11705625Y-13733125D02*
X11725625Y-13753125D01*
X11725625Y-13733125D02*
X11705625Y-13753125D01*
X11768125Y-10633125D02*
X11788125Y-10653125D01*
X11788125Y-10633125D02*
X11768125Y-10653125D01*
X11768125Y-10864375D02*
X11788125Y-10884375D01*
X11788125Y-10864375D02*
X11768125Y-10884375D01*
X11812700Y-12461650D02*
X11832700Y-12481650D01*
X11832700Y-12461650D02*
X11812700Y-12481650D01*
X11818125Y-11014375D02*
X11838125Y-11034375D01*
X11838125Y-11014375D02*
X11818125Y-11034375D01*
X11845510Y-12069329D02*
X11865510Y-12089329D01*
X11865510Y-12069329D02*
X11845510Y-12089329D01*
X11890000Y-10980000D02*
X11910000Y-11000000D01*
X11910000Y-10980000D02*
X11890000Y-11000000D01*
X11894790Y-13568665D02*
X11914790Y-13588665D01*
X11914790Y-13568665D02*
X11894790Y-13588665D01*
X11924375Y-12976875D02*
X11944375Y-12996875D01*
X11944375Y-12976875D02*
X11924375Y-12996875D01*
X11933410Y-12034650D02*
X11953410Y-12054650D01*
X11953410Y-12034650D02*
X11933410Y-12054650D01*
X11939700Y-13535310D02*
X11959700Y-13555310D01*
X11959700Y-13535310D02*
X11939700Y-13555310D01*
X11953000Y-11138000D02*
X11973000Y-11158000D01*
X11973000Y-11138000D02*
X11953000Y-11158000D01*
X11955950Y-11620490D02*
X11975950Y-11640490D01*
X11975950Y-11620490D02*
X11955950Y-11640490D01*
X11972190Y-12140260D02*
X11992190Y-12160260D01*
X11992190Y-12140260D02*
X11972190Y-12160260D01*
X11999375Y-10901875D02*
X12019375Y-10921875D01*
X12019375Y-10901875D02*
X11999375Y-10921875D01*
X12018125Y-10551875D02*
X12038125Y-10571875D01*
X12038125Y-10551875D02*
X12018125Y-10571875D01*
X12036875Y-10858125D02*
X12056875Y-10878125D01*
X12056875Y-10858125D02*
X12036875Y-10878125D01*
X12038380Y-13115860D02*
X12058380Y-13135860D01*
X12058380Y-13115860D02*
X12038380Y-13135860D01*
X12052270Y-11611030D02*
X12072270Y-11631030D01*
X12072270Y-11611030D02*
X12052270Y-11631030D01*
X12062000Y-11944990D02*
X12082000Y-11964990D01*
X12082000Y-11944990D02*
X12062000Y-11964990D01*
X12094560Y-12189850D02*
X12114560Y-12209850D01*
X12114560Y-12189850D02*
X12094560Y-12209850D01*
X12118770Y-11158393D02*
X12138770Y-11178393D01*
X12138770Y-11158393D02*
X12118770Y-11178393D01*
X12149375Y-10964375D02*
X12169375Y-10984375D01*
X12169375Y-10964375D02*
X12149375Y-10984375D01*
X12163300Y-12329470D02*
X12183300Y-12349470D01*
X12183300Y-12329470D02*
X12163300Y-12349470D01*
X12166090Y-12233050D02*
X12186090Y-12253050D01*
X12186090Y-12233050D02*
X12166090Y-12253050D01*
X12207000Y-11145600D02*
X12227000Y-11165600D01*
X12227000Y-11145600D02*
X12207000Y-11165600D01*
X12207320Y-11204100D02*
X12227320Y-11224100D01*
X12227320Y-11204100D02*
X12207320Y-11224100D01*
X12212950Y-11839080D02*
X12232950Y-11859080D01*
X12232950Y-11839080D02*
X12212950Y-11859080D01*
X12214280Y-11620860D02*
X12234280Y-11640860D01*
X12234280Y-11620860D02*
X12214280Y-11640860D01*
X12224375Y-10533125D02*
X12244375Y-10553125D01*
X12244375Y-10533125D02*
X12224375Y-10553125D01*
X12236875Y-10076875D02*
X12256875Y-10096875D01*
X12256875Y-10076875D02*
X12236875Y-10096875D01*
X12255000Y-12719510D02*
X12275000Y-12739510D01*
X12275000Y-12719510D02*
X12255000Y-12739510D01*
X12259750Y-13332290D02*
X12279750Y-13352290D01*
X12279750Y-13332290D02*
X12259750Y-13352290D01*
X12343125Y-11033125D02*
X12363125Y-11053125D01*
X12363125Y-11033125D02*
X12343125Y-11053125D01*
X12370370Y-11958870D02*
X12390370Y-11978870D01*
X12390370Y-11958870D02*
X12370370Y-11978870D01*
X12386875Y-11633125D02*
X12406875Y-11653125D01*
X12406875Y-11633125D02*
X12386875Y-11653125D01*
X12404090Y-12469560D02*
X12424090Y-12489560D01*
X12424090Y-12469560D02*
X12404090Y-12489560D01*
X12417180Y-10293750D02*
X12437180Y-10313750D01*
X12437180Y-10293750D02*
X12417180Y-10313750D01*
X12453230Y-12128840D02*
X12473230Y-12148840D01*
X12473230Y-12128840D02*
X12453230Y-12148840D01*
X12455625Y-13276875D02*
X12475625Y-13296875D01*
X12475625Y-13276875D02*
X12455625Y-13296875D01*
X12486875Y-10764375D02*
X12506875Y-10784375D01*
X12506875Y-10764375D02*
X12486875Y-10784375D01*
X12530625Y-10808125D02*
X12550625Y-10828125D01*
X12550625Y-10808125D02*
X12530625Y-10828125D01*
X12536875Y-11608125D02*
X12556875Y-11628125D01*
X12556875Y-11608125D02*
X12536875Y-11628125D01*
X12543080Y-13284880D02*
X12563080Y-13304880D01*
X12563080Y-13284880D02*
X12543080Y-13304880D01*
X12550170Y-10536980D02*
X12570170Y-10556980D01*
X12570170Y-10536980D02*
X12550170Y-10556980D01*
X12568125Y-12439375D02*
X12588125Y-12459375D01*
X12588125Y-12439375D02*
X12568125Y-12459375D01*
X12573990Y-11527660D02*
X12593990Y-11547660D01*
X12593990Y-11527660D02*
X12573990Y-11547660D01*
X12574375Y-13026875D02*
X12594375Y-13046875D01*
X12594375Y-13026875D02*
X12574375Y-13046875D01*
X12609750Y-12282330D02*
X12629750Y-12302330D01*
X12629750Y-12282330D02*
X12609750Y-12302330D01*
X12620000Y-12150000D02*
X12640000Y-12170000D01*
X12640000Y-12150000D02*
X12620000Y-12170000D01*
X12631190Y-12439350D02*
X12651190Y-12459350D01*
X12651190Y-12439350D02*
X12631190Y-12459350D01*
X12662550Y-10535920D02*
X12682550Y-10555920D01*
X12682550Y-10535920D02*
X12662550Y-10555920D01*
X12676890Y-12143000D02*
X12696890Y-12163000D01*
X12696890Y-12143000D02*
X12676890Y-12163000D01*
X12678540Y-12395840D02*
X12698540Y-12415840D01*
X12698540Y-12395840D02*
X12678540Y-12415840D01*
X12680790Y-11598280D02*
X12700790Y-11618280D01*
X12700790Y-11598280D02*
X12680790Y-11618280D01*
X12684080Y-11687510D02*
X12704080Y-11707510D01*
X12704080Y-11687510D02*
X12684080Y-11707510D01*
X12699375Y-12320625D02*
X12719375Y-12340625D01*
X12719375Y-12320625D02*
X12699375Y-12340625D01*
X12701790Y-12092830D02*
X12721790Y-12112830D01*
X12721790Y-12092830D02*
X12701790Y-12112830D01*
X12702110Y-11879560D02*
X12722110Y-11899560D01*
X12722110Y-11879560D02*
X12702110Y-11899560D01*
X12704270Y-12033550D02*
X12724270Y-12053550D01*
X12724270Y-12033550D02*
X12704270Y-12053550D01*
X12722500Y-11525540D02*
X12742500Y-11545540D01*
X12742500Y-11525540D02*
X12722500Y-11545540D01*
X12726600Y-13170480D02*
X12746600Y-13190480D01*
X12746600Y-13170480D02*
X12726600Y-13190480D01*
X12741406Y-12769910D02*
X12761406Y-12789910D01*
X12761406Y-12769910D02*
X12741406Y-12789910D01*
X12745790Y-11260590D02*
X12765790Y-11280590D01*
X12765790Y-11260590D02*
X12745790Y-11280590D01*
X12774375Y-14276875D02*
X12794375Y-14296875D01*
X12794375Y-14276875D02*
X12774375Y-14296875D01*
X12777750Y-10810570D02*
X12797750Y-10830570D01*
X12797750Y-10810570D02*
X12777750Y-10830570D01*
X12780630Y-13136330D02*
X12800630Y-13156330D01*
X12800630Y-13136330D02*
X12780630Y-13156330D01*
X12805625Y-11258125D02*
X12825625Y-11278125D01*
X12825625Y-11258125D02*
X12805625Y-11278125D01*
X12843125Y-11208125D02*
X12863125Y-11228125D01*
X12863125Y-11208125D02*
X12843125Y-11228125D01*
X12849375Y-11295625D02*
X12869375Y-11315625D01*
X12869375Y-11295625D02*
X12849375Y-11315625D01*
X12877696Y-12239357D02*
X12897696Y-12259357D01*
X12897696Y-12239357D02*
X12877696Y-12259357D01*
X12891800Y-13568570D02*
X12911800Y-13588570D01*
X12911800Y-13568570D02*
X12891800Y-13588570D01*
X12893125Y-11164375D02*
X12913125Y-11184375D01*
X12913125Y-11164375D02*
X12893125Y-11184375D01*
X12899375Y-12908125D02*
X12919375Y-12928125D01*
X12919375Y-12908125D02*
X12899375Y-12928125D01*
X12904120Y-11219270D02*
X12924120Y-11239270D01*
X12924120Y-11219270D02*
X12904120Y-11239270D01*
X12924375Y-10726875D02*
X12944375Y-10746875D01*
X12944375Y-10726875D02*
X12924375Y-10746875D01*
X12940000Y-12385500D02*
X12960000Y-12405500D01*
X12960000Y-12385500D02*
X12940000Y-12405500D01*
X12955625Y-11358125D02*
X12975625Y-11378125D01*
X12975625Y-11358125D02*
X12955625Y-11378125D01*
X12965210Y-12605310D02*
X12985210Y-12625310D01*
X12985210Y-12605310D02*
X12965210Y-12625310D01*
X12974375Y-11120625D02*
X12994375Y-11140625D01*
X12994375Y-11120625D02*
X12974375Y-11140625D01*
X12980710Y-11792670D02*
X13000710Y-11812670D01*
X13000710Y-11792670D02*
X12980710Y-11812670D01*
X12982000Y-12672000D02*
X13002000Y-12692000D01*
X13002000Y-12672000D02*
X12982000Y-12692000D01*
X12986600Y-12278780D02*
X13006600Y-12298780D01*
X13006600Y-12278780D02*
X12986600Y-12298780D01*
X13004710Y-11528510D02*
X13024710Y-11548510D01*
X13024710Y-11528510D02*
X13004710Y-11548510D01*
X13011875Y-11433125D02*
X13031875Y-11453125D01*
X13031875Y-11433125D02*
X13011875Y-11453125D01*
X13053470Y-10329040D02*
X13073470Y-10349040D01*
X13073470Y-10329040D02*
X13053470Y-10349040D01*
X13093125Y-14233125D02*
X13113125Y-14253125D01*
X13113125Y-14233125D02*
X13093125Y-14253125D01*
X13105625Y-11370625D02*
X13125625Y-11390625D01*
X13125625Y-11370625D02*
X13105625Y-11390625D01*
X13111930Y-12606620D02*
X13131930Y-12626620D01*
X13131930Y-12606620D02*
X13111930Y-12626620D01*
X13118125Y-13039375D02*
X13138125Y-13059375D01*
X13138125Y-13039375D02*
X13118125Y-13059375D01*
X13143125Y-14145625D02*
X13163125Y-14165625D01*
X13163125Y-14145625D02*
X13143125Y-14165625D01*
X13193125Y-14170625D02*
X13213125Y-14190625D01*
X13213125Y-14170625D02*
X13193125Y-14190625D01*
X13205625Y-11158125D02*
X13225625Y-11178125D01*
X13225625Y-11158125D02*
X13205625Y-11178125D01*
X13205625Y-12901875D02*
X13225625Y-12921875D01*
X13225625Y-12901875D02*
X13205625Y-12921875D01*
X13210000Y-11410000D02*
X13230000Y-11430000D01*
X13230000Y-11410000D02*
X13210000Y-11430000D01*
X13236875Y-10576875D02*
X13256875Y-10596875D01*
X13256875Y-10576875D02*
X13236875Y-10596875D01*
X13248240Y-12245010D02*
X13268240Y-12265010D01*
X13268240Y-12245010D02*
X13248240Y-12265010D01*
X13274400Y-11333100D02*
X13294400Y-11353100D01*
X13294400Y-11333100D02*
X13274400Y-11353100D01*
X13280625Y-13820625D02*
X13300625Y-13840625D01*
X13300625Y-13820625D02*
X13280625Y-13840625D01*
X13295000Y-12848000D02*
X13315000Y-12868000D01*
X13315000Y-12848000D02*
X13295000Y-12868000D01*
X13303690Y-12115240D02*
X13323690Y-12135240D01*
X13323690Y-12115240D02*
X13303690Y-12135240D01*
X13336875Y-12176875D02*
X13356875Y-12196875D01*
X13356875Y-12176875D02*
X13336875Y-12196875D01*
X13336875Y-13814375D02*
X13356875Y-13834375D01*
X13356875Y-13814375D02*
X13336875Y-13834375D01*
X13343125Y-12764375D02*
X13363125Y-12784375D01*
X13363125Y-12764375D02*
X13343125Y-12784375D01*
X13390000Y-12210000D02*
X13410000Y-12230000D01*
X13410000Y-12210000D02*
X13390000Y-12230000D01*
X13393125Y-14158125D02*
X13413125Y-14178125D01*
X13413125Y-14158125D02*
X13393125Y-14178125D01*
X13395020Y-13192030D02*
X13415020Y-13212030D01*
X13415020Y-13192030D02*
X13395020Y-13212030D01*
X13399375Y-13064375D02*
X13419375Y-13084375D01*
X13419375Y-13064375D02*
X13399375Y-13084375D01*
X13411875Y-11339375D02*
X13431875Y-11359375D01*
X13431875Y-11339375D02*
X13411875Y-11359375D01*
X13424375Y-10458125D02*
X13444375Y-10478125D01*
X13444375Y-10458125D02*
X13424375Y-10478125D01*
X13430625Y-10695625D02*
X13450625Y-10715625D01*
X13450625Y-10695625D02*
X13430625Y-10715625D01*
X13430625Y-12776875D02*
X13450625Y-12796875D01*
X13450625Y-12776875D02*
X13430625Y-12796875D01*
X13437300Y-11992770D02*
X13457300Y-12012770D01*
X13457300Y-11992770D02*
X13437300Y-12012770D01*
X13461470Y-12543410D02*
X13481470Y-12563410D01*
X13481470Y-12543410D02*
X13461470Y-12563410D01*
X13461875Y-11026875D02*
X13481875Y-11046875D01*
X13481875Y-11026875D02*
X13461875Y-11046875D01*
X13468125Y-11108125D02*
X13488125Y-11128125D01*
X13488125Y-11108125D02*
X13468125Y-11128125D01*
X13480625Y-14164375D02*
X13500625Y-14184375D01*
X13500625Y-14164375D02*
X13480625Y-14184375D01*
X13493125Y-11208125D02*
X13513125Y-11228125D01*
X13513125Y-11208125D02*
X13493125Y-11228125D01*
X13505625Y-14045625D02*
X13525625Y-14065625D01*
X13525625Y-14045625D02*
X13505625Y-14065625D01*
X13545290Y-11411890D02*
X13565290Y-11431890D01*
X13565290Y-11411890D02*
X13545290Y-11431890D01*
X13564230Y-11851260D02*
X13584230Y-11871260D01*
X13584230Y-11851260D02*
X13564230Y-11871260D01*
X13573559Y-12086626D02*
X13593559Y-12106626D01*
X13593559Y-12086626D02*
X13573559Y-12106626D01*
X13618125Y-11370625D02*
X13638125Y-11390625D01*
X13638125Y-11370625D02*
X13618125Y-11390625D01*
X13641290Y-12905130D02*
X13661290Y-12925130D01*
X13661290Y-12905130D02*
X13641290Y-12925130D01*
X13642070Y-11840310D02*
X13662070Y-11860310D01*
X13662070Y-11840310D02*
X13642070Y-11860310D01*
X13655630Y-12607390D02*
X13675630Y-12627390D01*
X13675630Y-12607390D02*
X13655630Y-12627390D01*
X13656000Y-11766000D02*
X13676000Y-11786000D01*
X13676000Y-11766000D02*
X13656000Y-11786000D01*
X13657610Y-10420600D02*
X13677610Y-10440600D01*
X13677610Y-10420600D02*
X13657610Y-10440600D01*
X13668125Y-11008125D02*
X13688125Y-11028125D01*
X13688125Y-11008125D02*
X13668125Y-11028125D01*
X13669770Y-11592210D02*
X13689770Y-11612210D01*
X13689770Y-11592210D02*
X13669770Y-11612210D01*
X13718125Y-11564375D02*
X13738125Y-11584375D01*
X13738125Y-11564375D02*
X13718125Y-11584375D01*
X13779056Y-11168270D02*
X13799056Y-11188270D01*
X13799056Y-11168270D02*
X13779056Y-11188270D01*
X13784830Y-12427630D02*
X13804830Y-12447630D01*
X13804830Y-12427630D02*
X13784830Y-12447630D01*
X13787850Y-12239900D02*
X13807850Y-12259900D01*
X13807850Y-12239900D02*
X13787850Y-12259900D01*
X13874375Y-12051875D02*
X13894375Y-12071875D01*
X13894375Y-12051875D02*
X13874375Y-12071875D01*
X13880625Y-11145625D02*
X13900625Y-11165625D01*
X13900625Y-11145625D02*
X13880625Y-11165625D01*
X13893125Y-11470625D02*
X13913125Y-11490625D01*
X13913125Y-11470625D02*
X13893125Y-11490625D01*
X13924910Y-11425380D02*
X13944910Y-11445380D01*
X13944910Y-11425380D02*
X13924910Y-11445380D01*
X13930625Y-11964375D02*
X13950625Y-11984375D01*
X13950625Y-11964375D02*
X13930625Y-11984375D01*
X13930625Y-12058125D02*
X13950625Y-12078125D01*
X13950625Y-12058125D02*
X13930625Y-12078125D01*
X13974375Y-12101875D02*
X13994375Y-12121875D01*
X13994375Y-12101875D02*
X13974375Y-12121875D01*
X13980625Y-12826875D02*
X14000625Y-12846875D01*
X14000625Y-12826875D02*
X13980625Y-12846875D01*
X13993125Y-10320625D02*
X14013125Y-10340625D01*
X14013125Y-10320625D02*
X13993125Y-10340625D01*
X14018125Y-12176875D02*
X14038125Y-12196875D01*
X14038125Y-12176875D02*
X14018125Y-12196875D01*
X14043125Y-10370625D02*
X14063125Y-10390625D01*
X14063125Y-10370625D02*
X14043125Y-10390625D01*
X14061875Y-11095625D02*
X14081875Y-11115625D01*
X14081875Y-11095625D02*
X14061875Y-11115625D01*
X14093125Y-10664375D02*
X14113125Y-10684375D01*
X14113125Y-10664375D02*
X14093125Y-10684375D01*
X14143125Y-12133125D02*
X14163125Y-12153125D01*
X14163125Y-12133125D02*
X14143125Y-12153125D01*
X14180625Y-11195625D02*
X14200625Y-11215625D01*
X14200625Y-11195625D02*
X14180625Y-11215625D01*
X14193125Y-12558125D02*
X14213125Y-12578125D01*
X14213125Y-12558125D02*
X14193125Y-12578125D01*
X14199375Y-11701875D02*
X14219375Y-11721875D01*
X14219375Y-11701875D02*
X14199375Y-11721875D01*
X14205625Y-11433125D02*
X14225625Y-11453125D01*
X14225625Y-11433125D02*
X14205625Y-11453125D01*
X14205625Y-12064375D02*
X14225625Y-12084375D01*
X14225625Y-12064375D02*
X14205625Y-12084375D01*
X14218125Y-11833125D02*
X14238125Y-11853125D01*
X14238125Y-11833125D02*
X14218125Y-11853125D01*
X14230000Y-11750000D02*
X14250000Y-11770000D01*
X14250000Y-11750000D02*
X14230000Y-11770000D01*
X14249375Y-12558125D02*
X14269375Y-12578125D01*
X14269375Y-12558125D02*
X14249375Y-12578125D01*
X14298915Y-12754967D02*
X14318915Y-12774967D01*
X14318915Y-12754967D02*
X14298915Y-12774967D01*
X14299375Y-11883125D02*
X14319375Y-11903125D01*
X14319375Y-11883125D02*
X14299375Y-11903125D01*
X14305625Y-13039375D02*
X14325625Y-13059375D01*
X14325625Y-13039375D02*
X14305625Y-13059375D01*
X14355625Y-12995625D02*
X14375625Y-13015625D01*
X14375625Y-12995625D02*
X14355625Y-13015625D01*
X14455625Y-12751875D02*
X14475625Y-12771875D01*
X14475625Y-12751875D02*
X14455625Y-12771875D01*
X14474375Y-12551875D02*
X14494375Y-12571875D01*
X14494375Y-12551875D02*
X14474375Y-12571875D01*
X14499375Y-12408125D02*
X14519375Y-12428125D01*
X14519375Y-12408125D02*
X14499375Y-12428125D01*
X12407134Y-10960548D02*
G75*
G02*
X12382134Y-10960548I-12500J0D01*
G01*
X12382134Y-10960548D02*
G75*
G02*
X12407134Y-10960548I12500J0D01*
G01*
X10066592Y-12870983D02*
X10066592Y-12900983D01*
X10051592Y-12885983D02*
X10081592Y-12885983D01*
X10125000Y-10305000D02*
X10125000Y-10335000D01*
X10110000Y-10320000D02*
X10140000Y-10320000D01*
X10125000Y-10485000D02*
X10125000Y-10515000D01*
X10110000Y-10500000D02*
X10140000Y-10500000D01*
X10125000Y-10665000D02*
X10125000Y-10695000D01*
X10110000Y-10680000D02*
X10140000Y-10680000D01*
X10125000Y-11745000D02*
X10125000Y-11775000D01*
X10110000Y-11760000D02*
X10140000Y-11760000D01*
X10125000Y-11925000D02*
X10125000Y-11955000D01*
X10110000Y-11940000D02*
X10140000Y-11940000D01*
X10125000Y-12105000D02*
X10125000Y-12135000D01*
X10110000Y-12120000D02*
X10140000Y-12120000D01*
X10125000Y-13005000D02*
X10125000Y-13035000D01*
X10110000Y-13020000D02*
X10140000Y-13020000D01*
X10172437Y-13499025D02*
X10172437Y-13529025D01*
X10157437Y-13514025D02*
X10187437Y-13514025D01*
X10179501Y-11699108D02*
X10179501Y-11729108D01*
X10164501Y-11714108D02*
X10194501Y-11714108D01*
X10179798Y-13585000D02*
X10179798Y-13615000D01*
X10164798Y-13600000D02*
X10194798Y-13600000D01*
X10232598Y-13325008D02*
X10232598Y-13355008D01*
X10217598Y-13340008D02*
X10247598Y-13340008D01*
X10248590Y-11746290D02*
X10248590Y-11776290D01*
X10233590Y-11761290D02*
X10263590Y-11761290D01*
X10283107Y-12367517D02*
X10283107Y-12397517D01*
X10268107Y-12382517D02*
X10298107Y-12382517D01*
X10289490Y-14353495D02*
X10289490Y-14383495D01*
X10274490Y-14368495D02*
X10304490Y-14368495D01*
X10305000Y-10125000D02*
X10305000Y-10155000D01*
X10290000Y-10140000D02*
X10320000Y-10140000D01*
X10305000Y-10305000D02*
X10305000Y-10335000D01*
X10290000Y-10320000D02*
X10320000Y-10320000D01*
X10305000Y-10485000D02*
X10305000Y-10515000D01*
X10290000Y-10500000D02*
X10320000Y-10500000D01*
X10305000Y-10665000D02*
X10305000Y-10695000D01*
X10290000Y-10680000D02*
X10320000Y-10680000D01*
X10305000Y-12285000D02*
X10305000Y-12315000D01*
X10290000Y-12300000D02*
X10320000Y-12300000D01*
X10305000Y-12465000D02*
X10305000Y-12495000D01*
X10290000Y-12480000D02*
X10320000Y-12480000D01*
X10305000Y-12645000D02*
X10305000Y-12675000D01*
X10290000Y-12660000D02*
X10320000Y-12660000D01*
X10305000Y-13005000D02*
X10305000Y-13035000D01*
X10290000Y-13020000D02*
X10320000Y-13020000D01*
X10305000Y-13365000D02*
X10305000Y-13395000D01*
X10290000Y-13380000D02*
X10320000Y-13380000D01*
X10305000Y-13725000D02*
X10305000Y-13755000D01*
X10290000Y-13740000D02*
X10320000Y-13740000D01*
X10305000Y-13905000D02*
X10305000Y-13935000D01*
X10290000Y-13920000D02*
X10320000Y-13920000D01*
X10305000Y-14265000D02*
X10305000Y-14295000D01*
X10290000Y-14280000D02*
X10320000Y-14280000D01*
X10422169Y-13110999D02*
X10422169Y-13140999D01*
X10407169Y-13125999D02*
X10437169Y-13125999D01*
X10452500Y-13393530D02*
X10452500Y-13423530D01*
X10437500Y-13408530D02*
X10467500Y-13408530D01*
X10485000Y-10125000D02*
X10485000Y-10155000D01*
X10470000Y-10140000D02*
X10500000Y-10140000D01*
X10485000Y-10305000D02*
X10485000Y-10335000D01*
X10470000Y-10320000D02*
X10500000Y-10320000D01*
X10485000Y-10485000D02*
X10485000Y-10515000D01*
X10470000Y-10500000D02*
X10500000Y-10500000D01*
X10485000Y-12645000D02*
X10485000Y-12675000D01*
X10470000Y-12660000D02*
X10500000Y-12660000D01*
X10485000Y-13545000D02*
X10485000Y-13575000D01*
X10470000Y-13560000D02*
X10500000Y-13560000D01*
X10485000Y-14085000D02*
X10485000Y-14115000D01*
X10470000Y-14100000D02*
X10500000Y-14100000D01*
X10509375Y-13253125D02*
X10509375Y-13283125D01*
X10494375Y-13268125D02*
X10524375Y-13268125D01*
X10535160Y-12009240D02*
X10535160Y-12039240D01*
X10520160Y-12024240D02*
X10550160Y-12024240D01*
X10545299Y-11307497D02*
X10545299Y-11337497D01*
X10530299Y-11322497D02*
X10560299Y-11322497D01*
X10553125Y-12940625D02*
X10553125Y-12970625D01*
X10538125Y-12955625D02*
X10568125Y-12955625D01*
X10572706Y-13014987D02*
X10572706Y-13044987D01*
X10557706Y-13029987D02*
X10587706Y-13029987D01*
X10572706Y-13140006D02*
X10572706Y-13170006D01*
X10557706Y-13155006D02*
X10587706Y-13155006D01*
X10586073Y-14454140D02*
X10586073Y-14484140D01*
X10571073Y-14469140D02*
X10601073Y-14469140D01*
X10609271Y-12575000D02*
X10609271Y-12605000D01*
X10594271Y-12590000D02*
X10624271Y-12590000D01*
X10613890Y-11860970D02*
X10613890Y-11890970D01*
X10598890Y-11875970D02*
X10628890Y-11875970D01*
X10626050Y-12661850D02*
X10626050Y-12691850D01*
X10611050Y-12676850D02*
X10641050Y-12676850D01*
X10665000Y-10125000D02*
X10665000Y-10155000D01*
X10650000Y-10140000D02*
X10680000Y-10140000D01*
X10665000Y-10305000D02*
X10665000Y-10335000D01*
X10650000Y-10320000D02*
X10680000Y-10320000D01*
X10665000Y-11385000D02*
X10665000Y-11415000D01*
X10650000Y-11400000D02*
X10680000Y-11400000D01*
X10688100Y-13325670D02*
X10688100Y-13355670D01*
X10673100Y-13340670D02*
X10703100Y-13340670D01*
X10693529Y-11678500D02*
X10693529Y-11708500D01*
X10678529Y-11693500D02*
X10708529Y-11693500D01*
X10748359Y-12620115D02*
X10748359Y-12650115D01*
X10733359Y-12635115D02*
X10763359Y-12635115D01*
X10749850Y-13195820D02*
X10749850Y-13225820D01*
X10734850Y-13210820D02*
X10764850Y-13210820D01*
X10845000Y-10125000D02*
X10845000Y-10155000D01*
X10830000Y-10140000D02*
X10860000Y-10140000D01*
X10845000Y-10485000D02*
X10845000Y-10515000D01*
X10830000Y-10500000D02*
X10860000Y-10500000D01*
X10845000Y-11025000D02*
X10845000Y-11055000D01*
X10830000Y-11040000D02*
X10860000Y-11040000D01*
X10845000Y-13365000D02*
X10845000Y-13395000D01*
X10830000Y-13380000D02*
X10860000Y-13380000D01*
X10845000Y-13545000D02*
X10845000Y-13575000D01*
X10830000Y-13560000D02*
X10860000Y-13560000D01*
X10845000Y-14085000D02*
X10845000Y-14115000D01*
X10830000Y-14100000D02*
X10860000Y-14100000D01*
X10849470Y-13254550D02*
X10849470Y-13284550D01*
X10834470Y-13269550D02*
X10864470Y-13269550D01*
X10914597Y-14301635D02*
X10914597Y-14331635D01*
X10899597Y-14316635D02*
X10929597Y-14316635D01*
X10915650Y-11961700D02*
X10915650Y-11991700D01*
X10900650Y-11976700D02*
X10930650Y-11976700D01*
X11005214Y-10234033D02*
X11005214Y-10264033D01*
X10990214Y-10249033D02*
X11020214Y-10249033D01*
X11022762Y-12161250D02*
X11022762Y-12191250D01*
X11007762Y-12176250D02*
X11037762Y-12176250D01*
X11025000Y-10125000D02*
X11025000Y-10155000D01*
X11010000Y-10140000D02*
X11040000Y-10140000D01*
X11025000Y-13725000D02*
X11025000Y-13755000D01*
X11010000Y-13740000D02*
X11040000Y-13740000D01*
X11025000Y-13905000D02*
X11025000Y-13935000D01*
X11010000Y-13920000D02*
X11040000Y-13920000D01*
X11025000Y-14085000D02*
X11025000Y-14115000D01*
X11010000Y-14100000D02*
X11040000Y-14100000D01*
X11049791Y-11405000D02*
X11049791Y-11435000D01*
X11034791Y-11420000D02*
X11064791Y-11420000D01*
X11056130Y-11892360D02*
X11056130Y-11922360D01*
X11041130Y-11907360D02*
X11071130Y-11907360D01*
X11065625Y-12084375D02*
X11065625Y-12114375D01*
X11050625Y-12099375D02*
X11080625Y-12099375D01*
X11066020Y-12380310D02*
X11066020Y-12410310D01*
X11051020Y-12395310D02*
X11081020Y-12395310D01*
X11070790Y-12293130D02*
X11070790Y-12323130D01*
X11055790Y-12308130D02*
X11085790Y-12308130D01*
X11080500Y-10460433D02*
X11080500Y-10490433D01*
X11065500Y-10475433D02*
X11095500Y-10475433D01*
X11090862Y-10262903D02*
X11090862Y-10292903D01*
X11075862Y-10277903D02*
X11105862Y-10277903D01*
X11098980Y-12480810D02*
X11098980Y-12510810D01*
X11083980Y-12495810D02*
X11113980Y-12495810D01*
X11137990Y-11530830D02*
X11137990Y-11560830D01*
X11122990Y-11545830D02*
X11152990Y-11545830D01*
X11159270Y-11235500D02*
X11159270Y-11265500D01*
X11144270Y-11250500D02*
X11174270Y-11250500D01*
X11163160Y-12689700D02*
X11163160Y-12719700D01*
X11148160Y-12704700D02*
X11178160Y-12704700D01*
X11169580Y-14348440D02*
X11169580Y-14378440D01*
X11154580Y-14363440D02*
X11184580Y-14363440D01*
X11178760Y-12557720D02*
X11178760Y-12587720D01*
X11163760Y-12572720D02*
X11193760Y-12572720D01*
X11219230Y-14276490D02*
X11219230Y-14306490D01*
X11204230Y-14291490D02*
X11234230Y-14291490D01*
X11221620Y-13235180D02*
X11221620Y-13265180D01*
X11206620Y-13250180D02*
X11236620Y-13250180D01*
X11339810Y-13663730D02*
X11339810Y-13693730D01*
X11324810Y-13678730D02*
X11354810Y-13678730D01*
X11360865Y-10207097D02*
X11360865Y-10237097D01*
X11345865Y-10222097D02*
X11375865Y-10222097D01*
X11420966Y-11380786D02*
X11420966Y-11410786D01*
X11405966Y-11395786D02*
X11435966Y-11395786D01*
X11434375Y-12734375D02*
X11434375Y-12764375D01*
X11419375Y-12749375D02*
X11449375Y-12749375D01*
X11436723Y-11220410D02*
X11436723Y-11250410D01*
X11421723Y-11235410D02*
X11451723Y-11235410D01*
X11447880Y-12944490D02*
X11447880Y-12974490D01*
X11432880Y-12959490D02*
X11462880Y-12959490D01*
X11475409Y-10870090D02*
X11475409Y-10900090D01*
X11460409Y-10885090D02*
X11490409Y-10885090D01*
X11489090Y-10703570D02*
X11489090Y-10733570D01*
X11474090Y-10718570D02*
X11504090Y-10718570D01*
X11511316Y-14474506D02*
X11511316Y-14504506D01*
X11496316Y-14489506D02*
X11526316Y-14489506D01*
X11520670Y-12024980D02*
X11520670Y-12054980D01*
X11505670Y-12039980D02*
X11535670Y-12039980D01*
X11582930Y-14331810D02*
X11582930Y-14361810D01*
X11567930Y-14346810D02*
X11597930Y-14346810D01*
X11583090Y-10050630D02*
X11583090Y-10080630D01*
X11568090Y-10065630D02*
X11598090Y-10065630D01*
X11609860Y-12178260D02*
X11609860Y-12208260D01*
X11594860Y-12193260D02*
X11624860Y-12193260D01*
X11627000Y-12478810D02*
X11627000Y-12508810D01*
X11612000Y-12493810D02*
X11642000Y-12493810D01*
X11629390Y-12389490D02*
X11629390Y-12419490D01*
X11614390Y-12404490D02*
X11644390Y-12404490D01*
X11674660Y-12657070D02*
X11674660Y-12687070D01*
X11659660Y-12672070D02*
X11689660Y-12672070D01*
X11679250Y-14023490D02*
X11679250Y-14053490D01*
X11664250Y-14038490D02*
X11694250Y-14038490D01*
X11680786Y-10891967D02*
X11680786Y-10921967D01*
X11665786Y-10906967D02*
X11695786Y-10906967D01*
X11687563Y-11654025D02*
X11687563Y-11684025D01*
X11672563Y-11669025D02*
X11702563Y-11669025D01*
X11730910Y-11577640D02*
X11730910Y-11607640D01*
X11715910Y-11592640D02*
X11745910Y-11592640D01*
X11755214Y-13209033D02*
X11755214Y-13239033D01*
X11740214Y-13224033D02*
X11770214Y-13224033D01*
X11769710Y-12977660D02*
X11769710Y-13007660D01*
X11754710Y-12992660D02*
X11784710Y-12992660D01*
X11805320Y-14331810D02*
X11805320Y-14361810D01*
X11790320Y-14346810D02*
X11820320Y-14346810D01*
X11825290Y-11582310D02*
X11825290Y-11612310D01*
X11810290Y-11597310D02*
X11840290Y-11597310D01*
X11834144Y-11888046D02*
X11834144Y-11918046D01*
X11819144Y-11903046D02*
X11849144Y-11903046D01*
X11834880Y-12393110D02*
X11834880Y-12423110D01*
X11819880Y-12408110D02*
X11849880Y-12408110D01*
X11873800Y-14023910D02*
X11873800Y-14053910D01*
X11858800Y-14038910D02*
X11888800Y-14038910D01*
X11888700Y-12514340D02*
X11888700Y-12544340D01*
X11873700Y-12529340D02*
X11903700Y-12529340D01*
X11894651Y-10192405D02*
X11894651Y-10222405D01*
X11879651Y-10207405D02*
X11909651Y-10207405D01*
X11899100Y-11564500D02*
X11899100Y-11594500D01*
X11884100Y-11579500D02*
X11914100Y-11579500D01*
X11917850Y-13284410D02*
X11917850Y-13314410D01*
X11902850Y-13299410D02*
X11932850Y-13299410D01*
X11973161Y-10506176D02*
X11973161Y-10536176D01*
X11958161Y-10521176D02*
X11988161Y-10521176D01*
X12002050Y-12980450D02*
X12002050Y-13010450D01*
X11987050Y-12995450D02*
X12017050Y-12995450D01*
X12016310Y-12526280D02*
X12016310Y-12556280D01*
X12001310Y-12541280D02*
X12031310Y-12541280D01*
X12030760Y-12648170D02*
X12030760Y-12678170D01*
X12015760Y-12663170D02*
X12045760Y-12663170D01*
X12034375Y-13790625D02*
X12034375Y-13820625D01*
X12019375Y-13805625D02*
X12049375Y-13805625D01*
X12060260Y-13712520D02*
X12060260Y-13742520D01*
X12045260Y-13727520D02*
X12075260Y-13727520D01*
X12086690Y-12247690D02*
X12086690Y-12277690D01*
X12071690Y-12262690D02*
X12101690Y-12262690D01*
X12091420Y-10774390D02*
X12091420Y-10804390D01*
X12076420Y-10789390D02*
X12106420Y-10789390D01*
X12152500Y-13842433D02*
X12152500Y-13872433D01*
X12137500Y-13857433D02*
X12167500Y-13857433D01*
X12162890Y-11892160D02*
X12162890Y-11922160D01*
X12147890Y-11907160D02*
X12177890Y-11907160D01*
X12171630Y-13232330D02*
X12171630Y-13262330D01*
X12156630Y-13247330D02*
X12186630Y-13247330D01*
X12184670Y-14052650D02*
X12184670Y-14082650D01*
X12169670Y-14067650D02*
X12199670Y-14067650D01*
X12187890Y-12165210D02*
X12187890Y-12195210D01*
X12172890Y-12180210D02*
X12202890Y-12180210D01*
X12202950Y-13673390D02*
X12202950Y-13703390D01*
X12187950Y-13688390D02*
X12217950Y-13688390D01*
X12240530Y-13136490D02*
X12240530Y-13166490D01*
X12225530Y-13151490D02*
X12255530Y-13151490D01*
X12241040Y-12020540D02*
X12241040Y-12050540D01*
X12226040Y-12035540D02*
X12256040Y-12035540D01*
X12250100Y-10238070D02*
X12250100Y-10268070D01*
X12235100Y-10253070D02*
X12265100Y-10253070D01*
X12256325Y-14474506D02*
X12256325Y-14504506D01*
X12241325Y-14489506D02*
X12271325Y-14489506D01*
X12270210Y-12625610D02*
X12270210Y-12655610D01*
X12255210Y-12640610D02*
X12285210Y-12640610D01*
X12280000Y-12446529D02*
X12280000Y-12476529D01*
X12265000Y-12461529D02*
X12295000Y-12461529D01*
X12284140Y-12970940D02*
X12284140Y-13000940D01*
X12269140Y-12985940D02*
X12299140Y-12985940D01*
X12285000Y-10125000D02*
X12285000Y-10155000D01*
X12270000Y-10140000D02*
X12300000Y-10140000D01*
X12285000Y-14085000D02*
X12285000Y-14115000D01*
X12270000Y-14100000D02*
X12300000Y-14100000D01*
X12287208Y-12518626D02*
X12287208Y-12548626D01*
X12272208Y-12533626D02*
X12302208Y-12533626D01*
X12300970Y-13068480D02*
X12300970Y-13098480D01*
X12285970Y-13083480D02*
X12315970Y-13083480D01*
X12323240Y-10247280D02*
X12323240Y-10277280D01*
X12308240Y-10262280D02*
X12338240Y-10262280D01*
X12326910Y-12049510D02*
X12326910Y-12079510D01*
X12311910Y-12064510D02*
X12341910Y-12064510D01*
X12361040Y-12279620D02*
X12361040Y-12309620D01*
X12346040Y-12294620D02*
X12376040Y-12294620D01*
X12361040Y-12611030D02*
X12361040Y-12641030D01*
X12346040Y-12626030D02*
X12376040Y-12626030D01*
X12376094Y-13910006D02*
X12376094Y-13940006D01*
X12361094Y-13925006D02*
X12391094Y-13925006D01*
X12390625Y-13715625D02*
X12390625Y-13745625D01*
X12375625Y-13730625D02*
X12405625Y-13730625D01*
X12413800Y-10714180D02*
X12413800Y-10744180D01*
X12398800Y-10729180D02*
X12428800Y-10729180D01*
X12445790Y-11842800D02*
X12445790Y-11872800D01*
X12430790Y-11857800D02*
X12460790Y-11857800D01*
X12446070Y-13763360D02*
X12446070Y-13793360D01*
X12431070Y-13778360D02*
X12461070Y-13778360D01*
X12448050Y-11540080D02*
X12448050Y-11570080D01*
X12433050Y-11555080D02*
X12463050Y-11555080D01*
X12459375Y-13428125D02*
X12459375Y-13458125D01*
X12444375Y-13443125D02*
X12474375Y-13443125D01*
X12480422Y-11927578D02*
X12480422Y-11957578D01*
X12465422Y-11942578D02*
X12495422Y-11942578D01*
X12490753Y-12437094D02*
X12490753Y-12467094D01*
X12475753Y-12452094D02*
X12505753Y-12452094D01*
X12503125Y-13815625D02*
X12503125Y-13845625D01*
X12488125Y-13830625D02*
X12518125Y-13830625D01*
X12505530Y-13608160D02*
X12505530Y-13638160D01*
X12490530Y-13623160D02*
X12520530Y-13623160D01*
X12507660Y-12550630D02*
X12507660Y-12580630D01*
X12492660Y-12565630D02*
X12522660Y-12565630D01*
X12521680Y-12698230D02*
X12521680Y-12728230D01*
X12506680Y-12713230D02*
X12536680Y-12713230D01*
X12528140Y-10281240D02*
X12528140Y-10311240D01*
X12513140Y-10296240D02*
X12543140Y-10296240D01*
X12546875Y-12490625D02*
X12546875Y-12520625D01*
X12531875Y-12505625D02*
X12561875Y-12505625D01*
X12558850Y-11930540D02*
X12558850Y-11960540D01*
X12543850Y-11945540D02*
X12573850Y-11945540D01*
X12586397Y-13616180D02*
X12586397Y-13646180D01*
X12571397Y-13631180D02*
X12601397Y-13631180D01*
X12598790Y-11750730D02*
X12598790Y-11780730D01*
X12583790Y-11765730D02*
X12613790Y-11765730D01*
X12613510Y-12712040D02*
X12613510Y-12742040D01*
X12598510Y-12727040D02*
X12628510Y-12727040D01*
X12626300Y-14018730D02*
X12626300Y-14048730D01*
X12611300Y-14033730D02*
X12641300Y-14033730D01*
X12626530Y-12970490D02*
X12626530Y-13000490D01*
X12611530Y-12985490D02*
X12641530Y-12985490D01*
X12631316Y-10095494D02*
X12631316Y-10125494D01*
X12616316Y-10110494D02*
X12646316Y-10110494D01*
X12631316Y-14474506D02*
X12631316Y-14504506D01*
X12616316Y-14489506D02*
X12646316Y-14489506D01*
X12652050Y-10857360D02*
X12652050Y-10887360D01*
X12637050Y-10872360D02*
X12667050Y-10872360D01*
X12731870Y-12700360D02*
X12731870Y-12730360D01*
X12716870Y-12715360D02*
X12746870Y-12715360D01*
X12828322Y-13884322D02*
X12828322Y-13914322D01*
X12813322Y-13899322D02*
X12843322Y-13899322D01*
X12840625Y-12959375D02*
X12840625Y-12989375D01*
X12825625Y-12974375D02*
X12855625Y-12974375D01*
X12887620Y-11094300D02*
X12887620Y-11124300D01*
X12872620Y-11109300D02*
X12902620Y-11109300D01*
X12919880Y-13288630D02*
X12919880Y-13318630D01*
X12904880Y-13303630D02*
X12934880Y-13303630D01*
X12925470Y-12760490D02*
X12925470Y-12790490D01*
X12910470Y-12775490D02*
X12940470Y-12775490D01*
X12936620Y-10092003D02*
X12936620Y-10122003D01*
X12921620Y-10107003D02*
X12951620Y-10107003D01*
X12962472Y-10541194D02*
X12962472Y-10571194D01*
X12947472Y-10556194D02*
X12977472Y-10556194D01*
X12996875Y-13046875D02*
X12996875Y-13076875D01*
X12981875Y-13061875D02*
X13011875Y-13061875D01*
X12999280Y-11600380D02*
X12999280Y-11630380D01*
X12984280Y-11615380D02*
X13014280Y-11615380D01*
X13003380Y-13565510D02*
X13003380Y-13595510D01*
X12988380Y-13580510D02*
X13018380Y-13580510D01*
X13005000Y-10125000D02*
X13005000Y-10155000D01*
X12990000Y-10140000D02*
X13020000Y-10140000D01*
X13009375Y-13715625D02*
X13009375Y-13745625D01*
X12994375Y-13730625D02*
X13024375Y-13730625D01*
X13045452Y-10232546D02*
X13045452Y-10262546D01*
X13030452Y-10247546D02*
X13060452Y-10247546D01*
X13050080Y-11849980D02*
X13050080Y-11879980D01*
X13035080Y-11864980D02*
X13065080Y-11864980D01*
X13069660Y-12685320D02*
X13069660Y-12715320D01*
X13054660Y-12700320D02*
X13084660Y-12700320D01*
X13071875Y-13765625D02*
X13071875Y-13795625D01*
X13056875Y-13780625D02*
X13086875Y-13780625D01*
X13077500Y-10517433D02*
X13077500Y-10547433D01*
X13062500Y-10532433D02*
X13092500Y-10532433D01*
X13109690Y-11432990D02*
X13109690Y-11462990D01*
X13094690Y-11447990D02*
X13124690Y-11447990D01*
X13115625Y-13284375D02*
X13115625Y-13314375D01*
X13100625Y-13299375D02*
X13130625Y-13299375D01*
X13155000Y-12017500D02*
X13155000Y-12047500D01*
X13140000Y-12032500D02*
X13170000Y-12032500D01*
X13185000Y-13365000D02*
X13185000Y-13395000D01*
X13170000Y-13380000D02*
X13200000Y-13380000D01*
X13185000Y-14085000D02*
X13185000Y-14115000D01*
X13170000Y-14100000D02*
X13200000Y-14100000D01*
X13185000Y-14265000D02*
X13185000Y-14295000D01*
X13170000Y-14280000D02*
X13200000Y-14280000D01*
X13207800Y-13662496D02*
X13207800Y-13692496D01*
X13192800Y-13677496D02*
X13222800Y-13677496D01*
X13234375Y-11053125D02*
X13234375Y-11083125D01*
X13219375Y-11068125D02*
X13249375Y-11068125D01*
X13271529Y-13400000D02*
X13271529Y-13430000D01*
X13256529Y-13415000D02*
X13286529Y-13415000D01*
X13272500Y-10393000D02*
X13272500Y-10423000D01*
X13257500Y-10408000D02*
X13287500Y-10408000D01*
X13272500Y-10513000D02*
X13272500Y-10543000D01*
X13257500Y-10528000D02*
X13287500Y-10528000D01*
X13272500Y-10633000D02*
X13272500Y-10663000D01*
X13257500Y-10648000D02*
X13287500Y-10648000D01*
X13272500Y-10753000D02*
X13272500Y-10783000D01*
X13257500Y-10768000D02*
X13287500Y-10768000D01*
X13272500Y-10873000D02*
X13272500Y-10903000D01*
X13257500Y-10888000D02*
X13287500Y-10888000D01*
X13272500Y-10993000D02*
X13272500Y-11023000D01*
X13257500Y-11008000D02*
X13287500Y-11008000D01*
X13272500Y-11113000D02*
X13272500Y-11143000D01*
X13257500Y-11128000D02*
X13287500Y-11128000D01*
X13272500Y-11233000D02*
X13272500Y-11263000D01*
X13257500Y-11248000D02*
X13287500Y-11248000D01*
X13281952Y-13749452D02*
X13281952Y-13779452D01*
X13266952Y-13764452D02*
X13296952Y-13764452D01*
X13300430Y-12009560D02*
X13300430Y-12039560D01*
X13285430Y-12024560D02*
X13315430Y-12024560D01*
X13314471Y-11546000D02*
X13314471Y-11576000D01*
X13299471Y-11561000D02*
X13329471Y-11561000D01*
X13331520Y-13274430D02*
X13331520Y-13304430D01*
X13316520Y-13289430D02*
X13346520Y-13289430D01*
X13365000Y-14265000D02*
X13365000Y-14295000D01*
X13350000Y-14280000D02*
X13380000Y-14280000D01*
X13365625Y-10040625D02*
X13365625Y-10070625D01*
X13350625Y-10055625D02*
X13380625Y-10055625D01*
X13369721Y-14524670D02*
X13369721Y-14554670D01*
X13354721Y-14539670D02*
X13384721Y-14539670D01*
X13375550Y-12082740D02*
X13375550Y-12112740D01*
X13360550Y-12097740D02*
X13390550Y-12097740D01*
X13392190Y-12276070D02*
X13392190Y-12306070D01*
X13377190Y-12291070D02*
X13407190Y-12291070D01*
X13397350Y-12659100D02*
X13397350Y-12689100D01*
X13382350Y-12674100D02*
X13412350Y-12674100D01*
X13400000Y-10105000D02*
X13400000Y-10135000D01*
X13385000Y-10120000D02*
X13415000Y-10120000D01*
X13412500Y-10393000D02*
X13412500Y-10423000D01*
X13397500Y-10408000D02*
X13427500Y-10408000D01*
X13412500Y-10513000D02*
X13412500Y-10543000D01*
X13397500Y-10528000D02*
X13427500Y-10528000D01*
X13412500Y-10633000D02*
X13412500Y-10663000D01*
X13397500Y-10648000D02*
X13427500Y-10648000D01*
X13412500Y-10753000D02*
X13412500Y-10783000D01*
X13397500Y-10768000D02*
X13427500Y-10768000D01*
X13412500Y-10873000D02*
X13412500Y-10903000D01*
X13397500Y-10888000D02*
X13427500Y-10888000D01*
X13412500Y-10993000D02*
X13412500Y-11023000D01*
X13397500Y-11008000D02*
X13427500Y-11008000D01*
X13412500Y-11113000D02*
X13412500Y-11143000D01*
X13397500Y-11128000D02*
X13427500Y-11128000D01*
X13412500Y-11233000D02*
X13412500Y-11263000D01*
X13397500Y-11248000D02*
X13427500Y-11248000D01*
X13416971Y-13534971D02*
X13416971Y-13564971D01*
X13401971Y-13549971D02*
X13431971Y-13549971D01*
X13418410Y-12413970D02*
X13418410Y-12443970D01*
X13403410Y-12428970D02*
X13433410Y-12428970D01*
X13439471Y-11546000D02*
X13439471Y-11576000D01*
X13424471Y-11561000D02*
X13454471Y-11561000D01*
X13446670Y-13399830D02*
X13446670Y-13429830D01*
X13431670Y-13414830D02*
X13461670Y-13414830D01*
X13466380Y-12061000D02*
X13466380Y-12091000D01*
X13451380Y-12076000D02*
X13481380Y-12076000D01*
X13467820Y-13472504D02*
X13467820Y-13502504D01*
X13452820Y-13487504D02*
X13482820Y-13487504D01*
X13471875Y-10834375D02*
X13471875Y-10864375D01*
X13456875Y-10849375D02*
X13486875Y-10849375D01*
X13501422Y-12927578D02*
X13501422Y-12957578D01*
X13486422Y-12942578D02*
X13516422Y-12942578D01*
X13504080Y-10718610D02*
X13504080Y-10748610D01*
X13489080Y-10733610D02*
X13519080Y-10733610D01*
X13520000Y-10105000D02*
X13520000Y-10135000D01*
X13505000Y-10120000D02*
X13535000Y-10120000D01*
X13520000Y-10245000D02*
X13520000Y-10275000D01*
X13505000Y-10260000D02*
X13535000Y-10260000D01*
X13550000Y-11112500D02*
X13550000Y-11142500D01*
X13535000Y-11127500D02*
X13565000Y-11127500D01*
X13551650Y-12010140D02*
X13551650Y-12040140D01*
X13536650Y-12025140D02*
X13566650Y-12025140D01*
X13575000Y-13296529D02*
X13575000Y-13326529D01*
X13560000Y-13311529D02*
X13590000Y-13311529D01*
X13587900Y-14331810D02*
X13587900Y-14361810D01*
X13572900Y-14346810D02*
X13602900Y-14346810D01*
X13595966Y-13505786D02*
X13595966Y-13535786D01*
X13580966Y-13520786D02*
X13610966Y-13520786D01*
X13621875Y-13121875D02*
X13621875Y-13151875D01*
X13606875Y-13136875D02*
X13636875Y-13136875D01*
X13640000Y-10105000D02*
X13640000Y-10135000D01*
X13625000Y-10120000D02*
X13655000Y-10120000D01*
X13640000Y-10245000D02*
X13640000Y-10275000D01*
X13625000Y-10260000D02*
X13655000Y-10260000D01*
X13671000Y-13464471D02*
X13671000Y-13494471D01*
X13656000Y-13479471D02*
X13686000Y-13479471D01*
X13725000Y-14265000D02*
X13725000Y-14295000D01*
X13710000Y-14280000D02*
X13740000Y-14280000D01*
X13741080Y-11621740D02*
X13741080Y-11651740D01*
X13726080Y-11636740D02*
X13756080Y-11636740D01*
X13760000Y-10105000D02*
X13760000Y-10135000D01*
X13745000Y-10120000D02*
X13775000Y-10120000D01*
X13773520Y-13291200D02*
X13773520Y-13321200D01*
X13758520Y-13306200D02*
X13788520Y-13306200D01*
X13803125Y-12953125D02*
X13803125Y-12983125D01*
X13788125Y-12968125D02*
X13818125Y-12968125D01*
X13809375Y-12653125D02*
X13809375Y-12683125D01*
X13794375Y-12668125D02*
X13824375Y-12668125D01*
X13835000Y-11512500D02*
X13835000Y-11542500D01*
X13820000Y-11527500D02*
X13850000Y-11527500D01*
X13836000Y-11349430D02*
X13836000Y-11379430D01*
X13821000Y-11364430D02*
X13851000Y-11364430D01*
X13839650Y-11104020D02*
X13839650Y-11134020D01*
X13824650Y-11119020D02*
X13854650Y-11119020D01*
X13875330Y-11589920D02*
X13875330Y-11619920D01*
X13860330Y-11604920D02*
X13890330Y-11604920D01*
X13880000Y-10105000D02*
X13880000Y-10135000D01*
X13865000Y-10120000D02*
X13895000Y-10120000D01*
X13901270Y-10448360D02*
X13901270Y-10478360D01*
X13886270Y-10463360D02*
X13916270Y-10463360D01*
X13905000Y-10305000D02*
X13905000Y-10335000D01*
X13890000Y-10320000D02*
X13920000Y-10320000D01*
X13905000Y-11205000D02*
X13905000Y-11235000D01*
X13890000Y-11220000D02*
X13920000Y-11220000D01*
X13905000Y-13545000D02*
X13905000Y-13575000D01*
X13890000Y-13560000D02*
X13920000Y-13560000D01*
X13905000Y-14085000D02*
X13905000Y-14115000D01*
X13890000Y-14100000D02*
X13920000Y-14100000D01*
X13909950Y-10520020D02*
X13909950Y-10550020D01*
X13894950Y-10535020D02*
X13924950Y-10535020D01*
X13915940Y-11531060D02*
X13915940Y-11561060D01*
X13900940Y-11546060D02*
X13930940Y-11546060D01*
X13943286Y-10072635D02*
X13943286Y-10102635D01*
X13928286Y-10087635D02*
X13958286Y-10087635D01*
X13953125Y-11303125D02*
X13953125Y-11333125D01*
X13938125Y-11318125D02*
X13968125Y-11318125D01*
X14000000Y-10105000D02*
X14000000Y-10135000D01*
X13985000Y-10120000D02*
X14015000Y-10120000D01*
X14000000Y-10245000D02*
X14000000Y-10275000D01*
X13985000Y-10260000D02*
X14015000Y-10260000D01*
X14029500Y-13007620D02*
X14029500Y-13037620D01*
X14014500Y-13022620D02*
X14044500Y-13022620D01*
X14050152Y-12479171D02*
X14050152Y-12509171D01*
X14035152Y-12494171D02*
X14065152Y-12494171D01*
X14085000Y-11205000D02*
X14085000Y-11235000D01*
X14070000Y-11220000D02*
X14100000Y-11220000D01*
X14085000Y-12285000D02*
X14085000Y-12315000D01*
X14070000Y-12300000D02*
X14100000Y-12300000D01*
X14085000Y-13545000D02*
X14085000Y-13575000D01*
X14070000Y-13560000D02*
X14100000Y-13560000D01*
X14085000Y-13725000D02*
X14085000Y-13755000D01*
X14070000Y-13740000D02*
X14100000Y-13740000D01*
X14085000Y-13905000D02*
X14085000Y-13935000D01*
X14070000Y-13920000D02*
X14100000Y-13920000D01*
X14085000Y-14085000D02*
X14085000Y-14115000D01*
X14070000Y-14100000D02*
X14100000Y-14100000D01*
X14085000Y-14265000D02*
X14085000Y-14295000D01*
X14070000Y-14280000D02*
X14100000Y-14280000D01*
X14100990Y-13305270D02*
X14100990Y-13335270D01*
X14085990Y-13320270D02*
X14115990Y-13320270D01*
X14103125Y-12209375D02*
X14103125Y-12239375D01*
X14088125Y-12224375D02*
X14118125Y-12224375D01*
X14185726Y-14415000D02*
X14185726Y-14445000D01*
X14170726Y-14430000D02*
X14200726Y-14430000D01*
X14252578Y-10601422D02*
X14252578Y-10631422D01*
X14237578Y-10616422D02*
X14267578Y-10616422D01*
X14257729Y-13007500D02*
X14257729Y-13037500D01*
X14242729Y-13022500D02*
X14272729Y-13022500D01*
X14265000Y-10485000D02*
X14265000Y-10515000D01*
X14250000Y-10500000D02*
X14280000Y-10500000D01*
X14265000Y-11925000D02*
X14265000Y-11955000D01*
X14250000Y-11940000D02*
X14280000Y-11940000D01*
X14265000Y-12285000D02*
X14265000Y-12315000D01*
X14250000Y-12300000D02*
X14280000Y-12300000D01*
X14265000Y-13185000D02*
X14265000Y-13215000D01*
X14250000Y-13200000D02*
X14280000Y-13200000D01*
X14265000Y-13545000D02*
X14265000Y-13575000D01*
X14250000Y-13560000D02*
X14280000Y-13560000D01*
X14265000Y-13725000D02*
X14265000Y-13755000D01*
X14250000Y-13740000D02*
X14280000Y-13740000D01*
X14265000Y-13905000D02*
X14265000Y-13935000D01*
X14250000Y-13920000D02*
X14280000Y-13920000D01*
X14265000Y-14085000D02*
X14265000Y-14115000D01*
X14250000Y-14100000D02*
X14280000Y-14100000D01*
X14265000Y-14265000D02*
X14265000Y-14295000D01*
X14250000Y-14280000D02*
X14280000Y-14280000D01*
X14270380Y-11530610D02*
X14270380Y-11560610D01*
X14255380Y-11545610D02*
X14285380Y-11545610D01*
X14271448Y-10908171D02*
X14271448Y-10938171D01*
X14256448Y-10923171D02*
X14286448Y-10923171D01*
X14359049Y-11300179D02*
X14359049Y-11330179D01*
X14344049Y-11315179D02*
X14374049Y-11315179D01*
X14359052Y-12295173D02*
X14359052Y-12325173D01*
X14344052Y-12310173D02*
X14374052Y-12310173D01*
X14445940Y-10884450D02*
X14445940Y-10914450D01*
X14430940Y-10899450D02*
X14460940Y-10899450D01*
X14456946Y-12295176D02*
X14456946Y-12325176D01*
X14441946Y-12310176D02*
X14471946Y-12310176D01*
X14456948Y-11300182D02*
X14456948Y-11330182D01*
X14441948Y-11315182D02*
X14471948Y-11315182D01*
X13977701Y-12488714D02*
X13977701Y-12446287D01*
X13935274Y-12446287D01*
X13935274Y-12488714D01*
X13977701Y-12488714D01*
X13911487Y-12497501D02*
X14001489Y-12497501D01*
X14001489Y-12437501D02*
G75*
G02*
X14001489Y-12497501I0J-30000D01*
G01*
X14001489Y-12437501D02*
X13911487Y-12437501D01*
X13911487Y-12437501D02*
G75*
G03*
X13911487Y-12497501I0J-30000D01*
G01*
X13977701Y-13353713D02*
X13977701Y-13311286D01*
X13935274Y-13311286D01*
X13935274Y-13353713D01*
X13977701Y-13353713D01*
X13911488Y-13362499D02*
X14001488Y-13362499D01*
X14001488Y-13302499D02*
G75*
G02*
X14001488Y-13362499I0J-30000D01*
G01*
X14001488Y-13302499D02*
X13911488Y-13302499D01*
X13911488Y-13302499D02*
G75*
G03*
X13911488Y-13362499I0J-30000D01*
G01*
X14397717Y-12488714D02*
X14397717Y-12446287D01*
X14355290Y-12446287D01*
X14355290Y-12488714D01*
X14397717Y-12488714D01*
X14346503Y-12497501D02*
X14406503Y-12497501D01*
X14406503Y-12437501D02*
G75*
G02*
X14406503Y-12497501I0J-30000D01*
G01*
X14406503Y-12437501D02*
X14346503Y-12437501D01*
X14346503Y-12437501D02*
G75*
G03*
X14346503Y-12497501I0J-30000D01*
G01*
X14397717Y-13353713D02*
X14397717Y-13311286D01*
X14355290Y-13311286D01*
X14355290Y-13353713D01*
X14397717Y-13353713D01*
X14346503Y-13362499D02*
X14406503Y-13362499D01*
X14406503Y-13302499D02*
G75*
G02*
X14406503Y-13362499I0J-30000D01*
G01*
X14406503Y-13302499D02*
X14346503Y-13302499D01*
X14346503Y-13302499D02*
G75*
G03*
X14346503Y-13362499I0J-30000D01*
G01*
X14173000Y-10108001D02*
X14218001Y-10063000D01*
X14173000Y-10017999D01*
X14127998Y-10063000D01*
X14173000Y-10108001D01*
X14173000Y-10362002D02*
X14218001Y-10317000D01*
X14173000Y-10271999D01*
X14127998Y-10317000D01*
X14173000Y-10362002D01*
X14427000Y-10108001D02*
X14472001Y-10063000D01*
X14427000Y-10017999D01*
X14381999Y-10063000D01*
X14427000Y-10108001D01*
X14427000Y-10362002D02*
X14472001Y-10317000D01*
X14427000Y-10271999D01*
X14381999Y-10317000D01*
X14427000Y-10362002D01*
X14250000Y-10140000D02*
X14350000Y-10240000D01*
X14350000Y-10140000D02*
X14250000Y-10240000D01*
X14350000Y-10190000D02*
G75*
G02*
X14250000Y-10190000I-50000J0D01*
G01*
X14250000Y-10190000D02*
G75*
G02*
X14350000Y-10190000I50000J0D01*
G01*
X13973506Y-12575984D02*
X14043508Y-12645987D01*
X14043508Y-12575984D02*
X13973506Y-12645987D01*
X14008507Y-12575984D02*
X14008507Y-12645987D01*
X13973506Y-12610985D02*
X14043508Y-12610985D01*
X13973506Y-13153988D02*
X14043508Y-13223990D01*
X14043508Y-13153988D02*
X13973506Y-13223990D01*
X14008507Y-13153988D02*
X14008507Y-13223990D01*
X13973506Y-13188989D02*
X14043508Y-13188989D01*
X11178870Y-10536470D02*
X11277930Y-10635530D01*
X11277930Y-10536470D02*
X11178870Y-10635530D01*
X11263423Y-10621023D02*
X11263423Y-10550977D01*
X11193377Y-10550977D01*
X11193377Y-10621023D01*
X11263423Y-10621023D01*
X11280470Y-11044470D02*
X11379530Y-11143530D01*
X11379530Y-11044470D02*
X11280470Y-11143530D01*
X11365023Y-11129023D02*
X11365023Y-11058977D01*
X11294977Y-11058977D01*
X11294977Y-11129023D01*
X11365023Y-11129023D01*
X11382070Y-10536470D02*
X11481130Y-10635530D01*
X11481130Y-10536470D02*
X11382070Y-10635530D01*
X11466623Y-10621023D02*
X11466623Y-10550977D01*
X11396577Y-10550977D01*
X11396577Y-10621023D01*
X11466623Y-10621023D01*
X10181391Y-11994996D02*
X10281391Y-12094996D01*
X10281391Y-11994996D02*
X10181391Y-12094996D01*
X10231391Y-12094996D02*
X10281391Y-12044996D01*
X10231391Y-11994996D01*
X10181391Y-12044996D01*
X10231391Y-12094996D01*
X10181391Y-12794996D02*
X10281391Y-12894996D01*
X10281391Y-12794996D02*
X10181391Y-12894996D01*
X10231391Y-12894996D02*
X10281391Y-12844996D01*
X10231391Y-12794996D01*
X10181391Y-12844996D01*
X10231391Y-12894996D01*
D11*
X10180777Y-14976484D02*
X10180777Y-14776484D01*
X10180777Y-14776484D02*
X10228396Y-14776484D01*
X10228396Y-14776484D02*
X10256967Y-14786008D01*
X10256967Y-14786008D02*
X10276015Y-14805055D01*
X10276015Y-14805055D02*
X10285539Y-14824103D01*
X10285539Y-14824103D02*
X10295063Y-14862198D01*
X10295063Y-14862198D02*
X10295063Y-14890769D01*
X10295063Y-14890769D02*
X10285539Y-14928865D01*
X10285539Y-14928865D02*
X10276015Y-14947912D01*
X10276015Y-14947912D02*
X10256967Y-14966960D01*
X10256967Y-14966960D02*
X10228396Y-14976484D01*
X10228396Y-14976484D02*
X10180777Y-14976484D01*
X10380777Y-14976484D02*
X10380777Y-14843150D01*
X10380777Y-14881246D02*
X10390301Y-14862198D01*
X10390301Y-14862198D02*
X10399824Y-14852674D01*
X10399824Y-14852674D02*
X10418872Y-14843150D01*
X10418872Y-14843150D02*
X10437920Y-14843150D01*
X10504586Y-14976484D02*
X10504586Y-14843150D01*
X10504586Y-14776484D02*
X10495063Y-14786008D01*
X10495063Y-14786008D02*
X10504586Y-14795531D01*
X10504586Y-14795531D02*
X10514110Y-14786008D01*
X10514110Y-14786008D02*
X10504586Y-14776484D01*
X10504586Y-14776484D02*
X10504586Y-14795531D01*
X10628396Y-14976484D02*
X10609348Y-14966960D01*
X10609348Y-14966960D02*
X10599824Y-14947912D01*
X10599824Y-14947912D02*
X10599824Y-14776484D01*
X10733158Y-14976484D02*
X10714110Y-14966960D01*
X10714110Y-14966960D02*
X10704586Y-14947912D01*
X10704586Y-14947912D02*
X10704586Y-14776484D01*
X10961729Y-14976484D02*
X10961729Y-14776484D01*
X10961729Y-14776484D02*
X11028396Y-14919341D01*
X11028396Y-14919341D02*
X11095063Y-14776484D01*
X11095063Y-14776484D02*
X11095063Y-14976484D01*
X11276015Y-14976484D02*
X11276015Y-14871722D01*
X11276015Y-14871722D02*
X11266491Y-14852674D01*
X11266491Y-14852674D02*
X11247443Y-14843150D01*
X11247443Y-14843150D02*
X11209348Y-14843150D01*
X11209348Y-14843150D02*
X11190301Y-14852674D01*
X11276015Y-14966960D02*
X11256967Y-14976484D01*
X11256967Y-14976484D02*
X11209348Y-14976484D01*
X11209348Y-14976484D02*
X11190301Y-14966960D01*
X11190301Y-14966960D02*
X11180777Y-14947912D01*
X11180777Y-14947912D02*
X11180777Y-14928865D01*
X11180777Y-14928865D02*
X11190301Y-14909817D01*
X11190301Y-14909817D02*
X11209348Y-14900293D01*
X11209348Y-14900293D02*
X11256967Y-14900293D01*
X11256967Y-14900293D02*
X11276015Y-14890769D01*
X11371253Y-14843150D02*
X11371253Y-15043150D01*
X11371253Y-14852674D02*
X11390301Y-14843150D01*
X11390301Y-14843150D02*
X11428396Y-14843150D01*
X11428396Y-14843150D02*
X11447443Y-14852674D01*
X11447443Y-14852674D02*
X11456967Y-14862198D01*
X11456967Y-14862198D02*
X11466491Y-14881246D01*
X11466491Y-14881246D02*
X11466491Y-14938388D01*
X11466491Y-14938388D02*
X11456967Y-14957436D01*
X11456967Y-14957436D02*
X11447443Y-14966960D01*
X11447443Y-14966960D02*
X11428396Y-14976484D01*
X11428396Y-14976484D02*
X11390301Y-14976484D01*
X11390301Y-14976484D02*
X11371253Y-14966960D01*
X11552205Y-14957436D02*
X11561729Y-14966960D01*
X11561729Y-14966960D02*
X11552205Y-14976484D01*
X11552205Y-14976484D02*
X11542682Y-14966960D01*
X11542682Y-14966960D02*
X11552205Y-14957436D01*
X11552205Y-14957436D02*
X11552205Y-14976484D01*
X11552205Y-14852674D02*
X11561729Y-14862198D01*
X11561729Y-14862198D02*
X11552205Y-14871722D01*
X11552205Y-14871722D02*
X11542682Y-14862198D01*
X11542682Y-14862198D02*
X11552205Y-14852674D01*
X11552205Y-14852674D02*
X11552205Y-14871722D01*
D10*
X9900000Y-15295000D02*
X9920000Y-15315000D01*
X9920000Y-15295000D02*
X9900000Y-15315000D01*
D11*
X10218872Y-15196484D02*
X10237920Y-15196484D01*
X10237920Y-15196484D02*
X10256967Y-15206008D01*
X10256967Y-15206008D02*
X10266491Y-15215531D01*
X10266491Y-15215531D02*
X10276015Y-15234579D01*
X10276015Y-15234579D02*
X10285539Y-15272674D01*
X10285539Y-15272674D02*
X10285539Y-15320293D01*
X10285539Y-15320293D02*
X10276015Y-15358388D01*
X10276015Y-15358388D02*
X10266491Y-15377436D01*
X10266491Y-15377436D02*
X10256967Y-15386960D01*
X10256967Y-15386960D02*
X10237920Y-15396484D01*
X10237920Y-15396484D02*
X10218872Y-15396484D01*
X10218872Y-15396484D02*
X10199824Y-15386960D01*
X10199824Y-15386960D02*
X10190301Y-15377436D01*
X10190301Y-15377436D02*
X10180777Y-15358388D01*
X10180777Y-15358388D02*
X10171253Y-15320293D01*
X10171253Y-15320293D02*
X10171253Y-15272674D01*
X10171253Y-15272674D02*
X10180777Y-15234579D01*
X10180777Y-15234579D02*
X10190301Y-15215531D01*
X10190301Y-15215531D02*
X10199824Y-15206008D01*
X10199824Y-15206008D02*
X10218872Y-15196484D01*
X10371253Y-15377436D02*
X10380777Y-15386960D01*
X10380777Y-15386960D02*
X10371253Y-15396484D01*
X10371253Y-15396484D02*
X10361729Y-15386960D01*
X10361729Y-15386960D02*
X10371253Y-15377436D01*
X10371253Y-15377436D02*
X10371253Y-15396484D01*
X10456967Y-15215531D02*
X10466491Y-15206008D01*
X10466491Y-15206008D02*
X10485539Y-15196484D01*
X10485539Y-15196484D02*
X10533158Y-15196484D01*
X10533158Y-15196484D02*
X10552205Y-15206008D01*
X10552205Y-15206008D02*
X10561729Y-15215531D01*
X10561729Y-15215531D02*
X10571253Y-15234579D01*
X10571253Y-15234579D02*
X10571253Y-15253627D01*
X10571253Y-15253627D02*
X10561729Y-15282198D01*
X10561729Y-15282198D02*
X10447444Y-15396484D01*
X10447444Y-15396484D02*
X10571253Y-15396484D01*
X10695063Y-15196484D02*
X10714110Y-15196484D01*
X10714110Y-15196484D02*
X10733158Y-15206008D01*
X10733158Y-15206008D02*
X10742682Y-15215531D01*
X10742682Y-15215531D02*
X10752205Y-15234579D01*
X10752205Y-15234579D02*
X10761729Y-15272674D01*
X10761729Y-15272674D02*
X10761729Y-15320293D01*
X10761729Y-15320293D02*
X10752205Y-15358388D01*
X10752205Y-15358388D02*
X10742682Y-15377436D01*
X10742682Y-15377436D02*
X10733158Y-15386960D01*
X10733158Y-15386960D02*
X10714110Y-15396484D01*
X10714110Y-15396484D02*
X10695063Y-15396484D01*
X10695063Y-15396484D02*
X10676015Y-15386960D01*
X10676015Y-15386960D02*
X10666491Y-15377436D01*
X10666491Y-15377436D02*
X10656967Y-15358388D01*
X10656967Y-15358388D02*
X10647444Y-15320293D01*
X10647444Y-15320293D02*
X10647444Y-15272674D01*
X10647444Y-15272674D02*
X10656967Y-15234579D01*
X10656967Y-15234579D02*
X10666491Y-15215531D01*
X10666491Y-15215531D02*
X10676015Y-15206008D01*
X10676015Y-15206008D02*
X10695063Y-15196484D01*
X10885539Y-15196484D02*
X10904586Y-15196484D01*
X10904586Y-15196484D02*
X10923634Y-15206008D01*
X10923634Y-15206008D02*
X10933158Y-15215531D01*
X10933158Y-15215531D02*
X10942682Y-15234579D01*
X10942682Y-15234579D02*
X10952205Y-15272674D01*
X10952205Y-15272674D02*
X10952205Y-15320293D01*
X10952205Y-15320293D02*
X10942682Y-15358388D01*
X10942682Y-15358388D02*
X10933158Y-15377436D01*
X10933158Y-15377436D02*
X10923634Y-15386960D01*
X10923634Y-15386960D02*
X10904586Y-15396484D01*
X10904586Y-15396484D02*
X10885539Y-15396484D01*
X10885539Y-15396484D02*
X10866491Y-15386960D01*
X10866491Y-15386960D02*
X10856967Y-15377436D01*
X10856967Y-15377436D02*
X10847444Y-15358388D01*
X10847444Y-15358388D02*
X10837920Y-15320293D01*
X10837920Y-15320293D02*
X10837920Y-15272674D01*
X10837920Y-15272674D02*
X10847444Y-15234579D01*
X10847444Y-15234579D02*
X10856967Y-15215531D01*
X10856967Y-15215531D02*
X10866491Y-15206008D01*
X10866491Y-15206008D02*
X10885539Y-15196484D01*
X11037920Y-15396484D02*
X11037920Y-15263150D01*
X11037920Y-15282198D02*
X11047444Y-15272674D01*
X11047444Y-15272674D02*
X11066491Y-15263150D01*
X11066491Y-15263150D02*
X11095063Y-15263150D01*
X11095063Y-15263150D02*
X11114110Y-15272674D01*
X11114110Y-15272674D02*
X11123634Y-15291722D01*
X11123634Y-15291722D02*
X11123634Y-15396484D01*
X11123634Y-15291722D02*
X11133158Y-15272674D01*
X11133158Y-15272674D02*
X11152205Y-15263150D01*
X11152205Y-15263150D02*
X11180777Y-15263150D01*
X11180777Y-15263150D02*
X11199824Y-15272674D01*
X11199824Y-15272674D02*
X11209348Y-15291722D01*
X11209348Y-15291722D02*
X11209348Y-15396484D01*
X11304586Y-15396484D02*
X11304586Y-15263150D01*
X11304586Y-15282198D02*
X11314110Y-15272674D01*
X11314110Y-15272674D02*
X11333158Y-15263150D01*
X11333158Y-15263150D02*
X11361729Y-15263150D01*
X11361729Y-15263150D02*
X11380777Y-15272674D01*
X11380777Y-15272674D02*
X11390301Y-15291722D01*
X11390301Y-15291722D02*
X11390301Y-15396484D01*
X11390301Y-15291722D02*
X11399824Y-15272674D01*
X11399824Y-15272674D02*
X11418872Y-15263150D01*
X11418872Y-15263150D02*
X11447443Y-15263150D01*
X11447443Y-15263150D02*
X11466491Y-15272674D01*
X11466491Y-15272674D02*
X11476015Y-15291722D01*
X11476015Y-15291722D02*
X11476015Y-15396484D01*
X11866491Y-15186960D02*
X11695063Y-15444103D01*
X12123634Y-15196484D02*
X12142682Y-15196484D01*
X12142682Y-15196484D02*
X12161729Y-15206008D01*
X12161729Y-15206008D02*
X12171253Y-15215531D01*
X12171253Y-15215531D02*
X12180777Y-15234579D01*
X12180777Y-15234579D02*
X12190301Y-15272674D01*
X12190301Y-15272674D02*
X12190301Y-15320293D01*
X12190301Y-15320293D02*
X12180777Y-15358388D01*
X12180777Y-15358388D02*
X12171253Y-15377436D01*
X12171253Y-15377436D02*
X12161729Y-15386960D01*
X12161729Y-15386960D02*
X12142682Y-15396484D01*
X12142682Y-15396484D02*
X12123634Y-15396484D01*
X12123634Y-15396484D02*
X12104586Y-15386960D01*
X12104586Y-15386960D02*
X12095063Y-15377436D01*
X12095063Y-15377436D02*
X12085539Y-15358388D01*
X12085539Y-15358388D02*
X12076015Y-15320293D01*
X12076015Y-15320293D02*
X12076015Y-15272674D01*
X12076015Y-15272674D02*
X12085539Y-15234579D01*
X12085539Y-15234579D02*
X12095063Y-15215531D01*
X12095063Y-15215531D02*
X12104586Y-15206008D01*
X12104586Y-15206008D02*
X12123634Y-15196484D01*
X12276015Y-15377436D02*
X12285539Y-15386960D01*
X12285539Y-15386960D02*
X12276015Y-15396484D01*
X12276015Y-15396484D02*
X12266491Y-15386960D01*
X12266491Y-15386960D02*
X12276015Y-15377436D01*
X12276015Y-15377436D02*
X12276015Y-15396484D01*
X12409348Y-15196484D02*
X12428396Y-15196484D01*
X12428396Y-15196484D02*
X12447444Y-15206008D01*
X12447444Y-15206008D02*
X12456967Y-15215531D01*
X12456967Y-15215531D02*
X12466491Y-15234579D01*
X12466491Y-15234579D02*
X12476015Y-15272674D01*
X12476015Y-15272674D02*
X12476015Y-15320293D01*
X12476015Y-15320293D02*
X12466491Y-15358388D01*
X12466491Y-15358388D02*
X12456967Y-15377436D01*
X12456967Y-15377436D02*
X12447444Y-15386960D01*
X12447444Y-15386960D02*
X12428396Y-15396484D01*
X12428396Y-15396484D02*
X12409348Y-15396484D01*
X12409348Y-15396484D02*
X12390301Y-15386960D01*
X12390301Y-15386960D02*
X12380777Y-15377436D01*
X12380777Y-15377436D02*
X12371253Y-15358388D01*
X12371253Y-15358388D02*
X12361729Y-15320293D01*
X12361729Y-15320293D02*
X12361729Y-15272674D01*
X12361729Y-15272674D02*
X12371253Y-15234579D01*
X12371253Y-15234579D02*
X12380777Y-15215531D01*
X12380777Y-15215531D02*
X12390301Y-15206008D01*
X12390301Y-15206008D02*
X12409348Y-15196484D01*
X12599825Y-15196484D02*
X12618872Y-15196484D01*
X12618872Y-15196484D02*
X12637920Y-15206008D01*
X12637920Y-15206008D02*
X12647444Y-15215531D01*
X12647444Y-15215531D02*
X12656967Y-15234579D01*
X12656967Y-15234579D02*
X12666491Y-15272674D01*
X12666491Y-15272674D02*
X12666491Y-15320293D01*
X12666491Y-15320293D02*
X12656967Y-15358388D01*
X12656967Y-15358388D02*
X12647444Y-15377436D01*
X12647444Y-15377436D02*
X12637920Y-15386960D01*
X12637920Y-15386960D02*
X12618872Y-15396484D01*
X12618872Y-15396484D02*
X12599825Y-15396484D01*
X12599825Y-15396484D02*
X12580777Y-15386960D01*
X12580777Y-15386960D02*
X12571253Y-15377436D01*
X12571253Y-15377436D02*
X12561729Y-15358388D01*
X12561729Y-15358388D02*
X12552206Y-15320293D01*
X12552206Y-15320293D02*
X12552206Y-15272674D01*
X12552206Y-15272674D02*
X12561729Y-15234579D01*
X12561729Y-15234579D02*
X12571253Y-15215531D01*
X12571253Y-15215531D02*
X12580777Y-15206008D01*
X12580777Y-15206008D02*
X12599825Y-15196484D01*
X12733158Y-15196484D02*
X12866491Y-15196484D01*
X12866491Y-15196484D02*
X12780777Y-15396484D01*
X12952206Y-15396484D02*
X12990301Y-15396484D01*
X12990301Y-15396484D02*
X13009348Y-15386960D01*
X13009348Y-15386960D02*
X13018872Y-15377436D01*
X13018872Y-15377436D02*
X13037920Y-15348865D01*
X13037920Y-15348865D02*
X13047444Y-15310769D01*
X13047444Y-15310769D02*
X13047444Y-15234579D01*
X13047444Y-15234579D02*
X13037920Y-15215531D01*
X13037920Y-15215531D02*
X13028396Y-15206008D01*
X13028396Y-15206008D02*
X13009348Y-15196484D01*
X13009348Y-15196484D02*
X12971253Y-15196484D01*
X12971253Y-15196484D02*
X12952206Y-15206008D01*
X12952206Y-15206008D02*
X12942682Y-15215531D01*
X12942682Y-15215531D02*
X12933158Y-15234579D01*
X12933158Y-15234579D02*
X12933158Y-15282198D01*
X12933158Y-15282198D02*
X12942682Y-15301246D01*
X12942682Y-15301246D02*
X12952206Y-15310769D01*
X12952206Y-15310769D02*
X12971253Y-15320293D01*
X12971253Y-15320293D02*
X13009348Y-15320293D01*
X13009348Y-15320293D02*
X13028396Y-15310769D01*
X13028396Y-15310769D02*
X13037920Y-15301246D01*
X13037920Y-15301246D02*
X13047444Y-15282198D01*
X13123634Y-15196484D02*
X13123634Y-15234579D01*
X13199825Y-15196484D02*
X13199825Y-15234579D01*
X13495063Y-15472674D02*
X13485539Y-15463150D01*
X13485539Y-15463150D02*
X13466491Y-15434579D01*
X13466491Y-15434579D02*
X13456968Y-15415531D01*
X13456968Y-15415531D02*
X13447444Y-15386960D01*
X13447444Y-15386960D02*
X13437920Y-15339341D01*
X13437920Y-15339341D02*
X13437920Y-15301246D01*
X13437920Y-15301246D02*
X13447444Y-15253627D01*
X13447444Y-15253627D02*
X13456968Y-15225055D01*
X13456968Y-15225055D02*
X13466491Y-15206008D01*
X13466491Y-15206008D02*
X13485539Y-15177436D01*
X13485539Y-15177436D02*
X13495063Y-15167912D01*
X13561729Y-15215531D02*
X13571253Y-15206008D01*
X13571253Y-15206008D02*
X13590301Y-15196484D01*
X13590301Y-15196484D02*
X13637920Y-15196484D01*
X13637920Y-15196484D02*
X13656968Y-15206008D01*
X13656968Y-15206008D02*
X13666491Y-15215531D01*
X13666491Y-15215531D02*
X13676015Y-15234579D01*
X13676015Y-15234579D02*
X13676015Y-15253627D01*
X13676015Y-15253627D02*
X13666491Y-15282198D01*
X13666491Y-15282198D02*
X13552206Y-15396484D01*
X13552206Y-15396484D02*
X13676015Y-15396484D01*
X13742682Y-15196484D02*
X13866491Y-15196484D01*
X13866491Y-15196484D02*
X13799825Y-15272674D01*
X13799825Y-15272674D02*
X13828396Y-15272674D01*
X13828396Y-15272674D02*
X13847444Y-15282198D01*
X13847444Y-15282198D02*
X13856968Y-15291722D01*
X13856968Y-15291722D02*
X13866491Y-15310769D01*
X13866491Y-15310769D02*
X13866491Y-15358388D01*
X13866491Y-15358388D02*
X13856968Y-15377436D01*
X13856968Y-15377436D02*
X13847444Y-15386960D01*
X13847444Y-15386960D02*
X13828396Y-15396484D01*
X13828396Y-15396484D02*
X13771253Y-15396484D01*
X13771253Y-15396484D02*
X13752206Y-15386960D01*
X13752206Y-15386960D02*
X13742682Y-15377436D01*
X14056968Y-15396484D02*
X13942682Y-15396484D01*
X13999825Y-15396484D02*
X13999825Y-15196484D01*
X13999825Y-15196484D02*
X13980777Y-15225055D01*
X13980777Y-15225055D02*
X13961729Y-15244103D01*
X13961729Y-15244103D02*
X13942682Y-15253627D01*
X14295063Y-15396484D02*
X14295063Y-15196484D01*
X14380777Y-15396484D02*
X14380777Y-15291722D01*
X14380777Y-15291722D02*
X14371253Y-15272674D01*
X14371253Y-15272674D02*
X14352206Y-15263150D01*
X14352206Y-15263150D02*
X14323634Y-15263150D01*
X14323634Y-15263150D02*
X14304587Y-15272674D01*
X14304587Y-15272674D02*
X14295063Y-15282198D01*
X14504587Y-15396484D02*
X14485539Y-15386960D01*
X14485539Y-15386960D02*
X14476015Y-15377436D01*
X14476015Y-15377436D02*
X14466491Y-15358388D01*
X14466491Y-15358388D02*
X14466491Y-15301246D01*
X14466491Y-15301246D02*
X14476015Y-15282198D01*
X14476015Y-15282198D02*
X14485539Y-15272674D01*
X14485539Y-15272674D02*
X14504587Y-15263150D01*
X14504587Y-15263150D02*
X14533158Y-15263150D01*
X14533158Y-15263150D02*
X14552206Y-15272674D01*
X14552206Y-15272674D02*
X14561730Y-15282198D01*
X14561730Y-15282198D02*
X14571253Y-15301246D01*
X14571253Y-15301246D02*
X14571253Y-15358388D01*
X14571253Y-15358388D02*
X14561730Y-15377436D01*
X14561730Y-15377436D02*
X14552206Y-15386960D01*
X14552206Y-15386960D02*
X14533158Y-15396484D01*
X14533158Y-15396484D02*
X14504587Y-15396484D01*
X14685539Y-15396484D02*
X14666491Y-15386960D01*
X14666491Y-15386960D02*
X14656968Y-15367912D01*
X14656968Y-15367912D02*
X14656968Y-15196484D01*
X14837920Y-15386960D02*
X14818872Y-15396484D01*
X14818872Y-15396484D02*
X14780777Y-15396484D01*
X14780777Y-15396484D02*
X14761730Y-15386960D01*
X14761730Y-15386960D02*
X14752206Y-15367912D01*
X14752206Y-15367912D02*
X14752206Y-15291722D01*
X14752206Y-15291722D02*
X14761730Y-15272674D01*
X14761730Y-15272674D02*
X14780777Y-15263150D01*
X14780777Y-15263150D02*
X14818872Y-15263150D01*
X14818872Y-15263150D02*
X14837920Y-15272674D01*
X14837920Y-15272674D02*
X14847444Y-15291722D01*
X14847444Y-15291722D02*
X14847444Y-15310769D01*
X14847444Y-15310769D02*
X14752206Y-15329817D01*
X14923634Y-15386960D02*
X14942682Y-15396484D01*
X14942682Y-15396484D02*
X14980777Y-15396484D01*
X14980777Y-15396484D02*
X14999825Y-15386960D01*
X14999825Y-15386960D02*
X15009349Y-15367912D01*
X15009349Y-15367912D02*
X15009349Y-15358388D01*
X15009349Y-15358388D02*
X14999825Y-15339341D01*
X14999825Y-15339341D02*
X14980777Y-15329817D01*
X14980777Y-15329817D02*
X14952206Y-15329817D01*
X14952206Y-15329817D02*
X14933158Y-15320293D01*
X14933158Y-15320293D02*
X14923634Y-15301246D01*
X14923634Y-15301246D02*
X14923634Y-15291722D01*
X14923634Y-15291722D02*
X14933158Y-15272674D01*
X14933158Y-15272674D02*
X14952206Y-15263150D01*
X14952206Y-15263150D02*
X14980777Y-15263150D01*
X14980777Y-15263150D02*
X14999825Y-15272674D01*
X15076015Y-15472674D02*
X15085539Y-15463150D01*
X15085539Y-15463150D02*
X15104587Y-15434579D01*
X15104587Y-15434579D02*
X15114111Y-15415531D01*
X15114111Y-15415531D02*
X15123634Y-15386960D01*
X15123634Y-15386960D02*
X15133158Y-15339341D01*
X15133158Y-15339341D02*
X15133158Y-15301246D01*
X15133158Y-15301246D02*
X15123634Y-15253627D01*
X15123634Y-15253627D02*
X15114111Y-15225055D01*
X15114111Y-15225055D02*
X15104587Y-15206008D01*
X15104587Y-15206008D02*
X15085539Y-15177436D01*
X15085539Y-15177436D02*
X15076015Y-15167912D01*
D10*
X9920000Y-15569000D02*
G75*
G02*
X9895000Y-15569000I-12500J0D01*
G01*
X9895000Y-15569000D02*
G75*
G02*
X9920000Y-15569000I12500J0D01*
G01*
D11*
X10218872Y-15460484D02*
X10237920Y-15460484D01*
X10237920Y-15460484D02*
X10256967Y-15470008D01*
X10256967Y-15470008D02*
X10266491Y-15479531D01*
X10266491Y-15479531D02*
X10276015Y-15498579D01*
X10276015Y-15498579D02*
X10285539Y-15536674D01*
X10285539Y-15536674D02*
X10285539Y-15584293D01*
X10285539Y-15584293D02*
X10276015Y-15622388D01*
X10276015Y-15622388D02*
X10266491Y-15641436D01*
X10266491Y-15641436D02*
X10256967Y-15650960D01*
X10256967Y-15650960D02*
X10237920Y-15660484D01*
X10237920Y-15660484D02*
X10218872Y-15660484D01*
X10218872Y-15660484D02*
X10199824Y-15650960D01*
X10199824Y-15650960D02*
X10190301Y-15641436D01*
X10190301Y-15641436D02*
X10180777Y-15622388D01*
X10180777Y-15622388D02*
X10171253Y-15584293D01*
X10171253Y-15584293D02*
X10171253Y-15536674D01*
X10171253Y-15536674D02*
X10180777Y-15498579D01*
X10180777Y-15498579D02*
X10190301Y-15479531D01*
X10190301Y-15479531D02*
X10199824Y-15470008D01*
X10199824Y-15470008D02*
X10218872Y-15460484D01*
X10371253Y-15641436D02*
X10380777Y-15650960D01*
X10380777Y-15650960D02*
X10371253Y-15660484D01*
X10371253Y-15660484D02*
X10361729Y-15650960D01*
X10361729Y-15650960D02*
X10371253Y-15641436D01*
X10371253Y-15641436D02*
X10371253Y-15660484D01*
X10456967Y-15479531D02*
X10466491Y-15470008D01*
X10466491Y-15470008D02*
X10485539Y-15460484D01*
X10485539Y-15460484D02*
X10533158Y-15460484D01*
X10533158Y-15460484D02*
X10552205Y-15470008D01*
X10552205Y-15470008D02*
X10561729Y-15479531D01*
X10561729Y-15479531D02*
X10571253Y-15498579D01*
X10571253Y-15498579D02*
X10571253Y-15517627D01*
X10571253Y-15517627D02*
X10561729Y-15546198D01*
X10561729Y-15546198D02*
X10447444Y-15660484D01*
X10447444Y-15660484D02*
X10571253Y-15660484D01*
X10752205Y-15460484D02*
X10656967Y-15460484D01*
X10656967Y-15460484D02*
X10647444Y-15555722D01*
X10647444Y-15555722D02*
X10656967Y-15546198D01*
X10656967Y-15546198D02*
X10676015Y-15536674D01*
X10676015Y-15536674D02*
X10723634Y-15536674D01*
X10723634Y-15536674D02*
X10742682Y-15546198D01*
X10742682Y-15546198D02*
X10752205Y-15555722D01*
X10752205Y-15555722D02*
X10761729Y-15574769D01*
X10761729Y-15574769D02*
X10761729Y-15622388D01*
X10761729Y-15622388D02*
X10752205Y-15641436D01*
X10752205Y-15641436D02*
X10742682Y-15650960D01*
X10742682Y-15650960D02*
X10723634Y-15660484D01*
X10723634Y-15660484D02*
X10676015Y-15660484D01*
X10676015Y-15660484D02*
X10656967Y-15650960D01*
X10656967Y-15650960D02*
X10647444Y-15641436D01*
X10885539Y-15460484D02*
X10904586Y-15460484D01*
X10904586Y-15460484D02*
X10923634Y-15470008D01*
X10923634Y-15470008D02*
X10933158Y-15479531D01*
X10933158Y-15479531D02*
X10942682Y-15498579D01*
X10942682Y-15498579D02*
X10952205Y-15536674D01*
X10952205Y-15536674D02*
X10952205Y-15584293D01*
X10952205Y-15584293D02*
X10942682Y-15622388D01*
X10942682Y-15622388D02*
X10933158Y-15641436D01*
X10933158Y-15641436D02*
X10923634Y-15650960D01*
X10923634Y-15650960D02*
X10904586Y-15660484D01*
X10904586Y-15660484D02*
X10885539Y-15660484D01*
X10885539Y-15660484D02*
X10866491Y-15650960D01*
X10866491Y-15650960D02*
X10856967Y-15641436D01*
X10856967Y-15641436D02*
X10847444Y-15622388D01*
X10847444Y-15622388D02*
X10837920Y-15584293D01*
X10837920Y-15584293D02*
X10837920Y-15536674D01*
X10837920Y-15536674D02*
X10847444Y-15498579D01*
X10847444Y-15498579D02*
X10856967Y-15479531D01*
X10856967Y-15479531D02*
X10866491Y-15470008D01*
X10866491Y-15470008D02*
X10885539Y-15460484D01*
X11037920Y-15660484D02*
X11037920Y-15527150D01*
X11037920Y-15546198D02*
X11047444Y-15536674D01*
X11047444Y-15536674D02*
X11066491Y-15527150D01*
X11066491Y-15527150D02*
X11095063Y-15527150D01*
X11095063Y-15527150D02*
X11114110Y-15536674D01*
X11114110Y-15536674D02*
X11123634Y-15555722D01*
X11123634Y-15555722D02*
X11123634Y-15660484D01*
X11123634Y-15555722D02*
X11133158Y-15536674D01*
X11133158Y-15536674D02*
X11152205Y-15527150D01*
X11152205Y-15527150D02*
X11180777Y-15527150D01*
X11180777Y-15527150D02*
X11199824Y-15536674D01*
X11199824Y-15536674D02*
X11209348Y-15555722D01*
X11209348Y-15555722D02*
X11209348Y-15660484D01*
X11304586Y-15660484D02*
X11304586Y-15527150D01*
X11304586Y-15546198D02*
X11314110Y-15536674D01*
X11314110Y-15536674D02*
X11333158Y-15527150D01*
X11333158Y-15527150D02*
X11361729Y-15527150D01*
X11361729Y-15527150D02*
X11380777Y-15536674D01*
X11380777Y-15536674D02*
X11390301Y-15555722D01*
X11390301Y-15555722D02*
X11390301Y-15660484D01*
X11390301Y-15555722D02*
X11399824Y-15536674D01*
X11399824Y-15536674D02*
X11418872Y-15527150D01*
X11418872Y-15527150D02*
X11447443Y-15527150D01*
X11447443Y-15527150D02*
X11466491Y-15536674D01*
X11466491Y-15536674D02*
X11476015Y-15555722D01*
X11476015Y-15555722D02*
X11476015Y-15660484D01*
X11866491Y-15450960D02*
X11695063Y-15708103D01*
X12123634Y-15460484D02*
X12142682Y-15460484D01*
X12142682Y-15460484D02*
X12161729Y-15470008D01*
X12161729Y-15470008D02*
X12171253Y-15479531D01*
X12171253Y-15479531D02*
X12180777Y-15498579D01*
X12180777Y-15498579D02*
X12190301Y-15536674D01*
X12190301Y-15536674D02*
X12190301Y-15584293D01*
X12190301Y-15584293D02*
X12180777Y-15622388D01*
X12180777Y-15622388D02*
X12171253Y-15641436D01*
X12171253Y-15641436D02*
X12161729Y-15650960D01*
X12161729Y-15650960D02*
X12142682Y-15660484D01*
X12142682Y-15660484D02*
X12123634Y-15660484D01*
X12123634Y-15660484D02*
X12104586Y-15650960D01*
X12104586Y-15650960D02*
X12095063Y-15641436D01*
X12095063Y-15641436D02*
X12085539Y-15622388D01*
X12085539Y-15622388D02*
X12076015Y-15584293D01*
X12076015Y-15584293D02*
X12076015Y-15536674D01*
X12076015Y-15536674D02*
X12085539Y-15498579D01*
X12085539Y-15498579D02*
X12095063Y-15479531D01*
X12095063Y-15479531D02*
X12104586Y-15470008D01*
X12104586Y-15470008D02*
X12123634Y-15460484D01*
X12276015Y-15641436D02*
X12285539Y-15650960D01*
X12285539Y-15650960D02*
X12276015Y-15660484D01*
X12276015Y-15660484D02*
X12266491Y-15650960D01*
X12266491Y-15650960D02*
X12276015Y-15641436D01*
X12276015Y-15641436D02*
X12276015Y-15660484D01*
X12409348Y-15460484D02*
X12428396Y-15460484D01*
X12428396Y-15460484D02*
X12447444Y-15470008D01*
X12447444Y-15470008D02*
X12456967Y-15479531D01*
X12456967Y-15479531D02*
X12466491Y-15498579D01*
X12466491Y-15498579D02*
X12476015Y-15536674D01*
X12476015Y-15536674D02*
X12476015Y-15584293D01*
X12476015Y-15584293D02*
X12466491Y-15622388D01*
X12466491Y-15622388D02*
X12456967Y-15641436D01*
X12456967Y-15641436D02*
X12447444Y-15650960D01*
X12447444Y-15650960D02*
X12428396Y-15660484D01*
X12428396Y-15660484D02*
X12409348Y-15660484D01*
X12409348Y-15660484D02*
X12390301Y-15650960D01*
X12390301Y-15650960D02*
X12380777Y-15641436D01*
X12380777Y-15641436D02*
X12371253Y-15622388D01*
X12371253Y-15622388D02*
X12361729Y-15584293D01*
X12361729Y-15584293D02*
X12361729Y-15536674D01*
X12361729Y-15536674D02*
X12371253Y-15498579D01*
X12371253Y-15498579D02*
X12380777Y-15479531D01*
X12380777Y-15479531D02*
X12390301Y-15470008D01*
X12390301Y-15470008D02*
X12409348Y-15460484D01*
X12599825Y-15460484D02*
X12618872Y-15460484D01*
X12618872Y-15460484D02*
X12637920Y-15470008D01*
X12637920Y-15470008D02*
X12647444Y-15479531D01*
X12647444Y-15479531D02*
X12656967Y-15498579D01*
X12656967Y-15498579D02*
X12666491Y-15536674D01*
X12666491Y-15536674D02*
X12666491Y-15584293D01*
X12666491Y-15584293D02*
X12656967Y-15622388D01*
X12656967Y-15622388D02*
X12647444Y-15641436D01*
X12647444Y-15641436D02*
X12637920Y-15650960D01*
X12637920Y-15650960D02*
X12618872Y-15660484D01*
X12618872Y-15660484D02*
X12599825Y-15660484D01*
X12599825Y-15660484D02*
X12580777Y-15650960D01*
X12580777Y-15650960D02*
X12571253Y-15641436D01*
X12571253Y-15641436D02*
X12561729Y-15622388D01*
X12561729Y-15622388D02*
X12552206Y-15584293D01*
X12552206Y-15584293D02*
X12552206Y-15536674D01*
X12552206Y-15536674D02*
X12561729Y-15498579D01*
X12561729Y-15498579D02*
X12571253Y-15479531D01*
X12571253Y-15479531D02*
X12580777Y-15470008D01*
X12580777Y-15470008D02*
X12599825Y-15460484D01*
X12761729Y-15660484D02*
X12799825Y-15660484D01*
X12799825Y-15660484D02*
X12818872Y-15650960D01*
X12818872Y-15650960D02*
X12828396Y-15641436D01*
X12828396Y-15641436D02*
X12847444Y-15612865D01*
X12847444Y-15612865D02*
X12856967Y-15574769D01*
X12856967Y-15574769D02*
X12856967Y-15498579D01*
X12856967Y-15498579D02*
X12847444Y-15479531D01*
X12847444Y-15479531D02*
X12837920Y-15470008D01*
X12837920Y-15470008D02*
X12818872Y-15460484D01*
X12818872Y-15460484D02*
X12780777Y-15460484D01*
X12780777Y-15460484D02*
X12761729Y-15470008D01*
X12761729Y-15470008D02*
X12752206Y-15479531D01*
X12752206Y-15479531D02*
X12742682Y-15498579D01*
X12742682Y-15498579D02*
X12742682Y-15546198D01*
X12742682Y-15546198D02*
X12752206Y-15565246D01*
X12752206Y-15565246D02*
X12761729Y-15574769D01*
X12761729Y-15574769D02*
X12780777Y-15584293D01*
X12780777Y-15584293D02*
X12818872Y-15584293D01*
X12818872Y-15584293D02*
X12837920Y-15574769D01*
X12837920Y-15574769D02*
X12847444Y-15565246D01*
X12847444Y-15565246D02*
X12856967Y-15546198D01*
X12971253Y-15546198D02*
X12952206Y-15536674D01*
X12952206Y-15536674D02*
X12942682Y-15527150D01*
X12942682Y-15527150D02*
X12933158Y-15508103D01*
X12933158Y-15508103D02*
X12933158Y-15498579D01*
X12933158Y-15498579D02*
X12942682Y-15479531D01*
X12942682Y-15479531D02*
X12952206Y-15470008D01*
X12952206Y-15470008D02*
X12971253Y-15460484D01*
X12971253Y-15460484D02*
X13009348Y-15460484D01*
X13009348Y-15460484D02*
X13028396Y-15470008D01*
X13028396Y-15470008D02*
X13037920Y-15479531D01*
X13037920Y-15479531D02*
X13047444Y-15498579D01*
X13047444Y-15498579D02*
X13047444Y-15508103D01*
X13047444Y-15508103D02*
X13037920Y-15527150D01*
X13037920Y-15527150D02*
X13028396Y-15536674D01*
X13028396Y-15536674D02*
X13009348Y-15546198D01*
X13009348Y-15546198D02*
X12971253Y-15546198D01*
X12971253Y-15546198D02*
X12952206Y-15555722D01*
X12952206Y-15555722D02*
X12942682Y-15565246D01*
X12942682Y-15565246D02*
X12933158Y-15584293D01*
X12933158Y-15584293D02*
X12933158Y-15622388D01*
X12933158Y-15622388D02*
X12942682Y-15641436D01*
X12942682Y-15641436D02*
X12952206Y-15650960D01*
X12952206Y-15650960D02*
X12971253Y-15660484D01*
X12971253Y-15660484D02*
X13009348Y-15660484D01*
X13009348Y-15660484D02*
X13028396Y-15650960D01*
X13028396Y-15650960D02*
X13037920Y-15641436D01*
X13037920Y-15641436D02*
X13047444Y-15622388D01*
X13047444Y-15622388D02*
X13047444Y-15584293D01*
X13047444Y-15584293D02*
X13037920Y-15565246D01*
X13037920Y-15565246D02*
X13028396Y-15555722D01*
X13028396Y-15555722D02*
X13009348Y-15546198D01*
X13123634Y-15460484D02*
X13123634Y-15498579D01*
X13199825Y-15460484D02*
X13199825Y-15498579D01*
X13495063Y-15736674D02*
X13485539Y-15727150D01*
X13485539Y-15727150D02*
X13466491Y-15698579D01*
X13466491Y-15698579D02*
X13456968Y-15679531D01*
X13456968Y-15679531D02*
X13447444Y-15650960D01*
X13447444Y-15650960D02*
X13437920Y-15603341D01*
X13437920Y-15603341D02*
X13437920Y-15565246D01*
X13437920Y-15565246D02*
X13447444Y-15517627D01*
X13447444Y-15517627D02*
X13456968Y-15489055D01*
X13456968Y-15489055D02*
X13466491Y-15470008D01*
X13466491Y-15470008D02*
X13485539Y-15441436D01*
X13485539Y-15441436D02*
X13495063Y-15431912D01*
X13676015Y-15660484D02*
X13561729Y-15660484D01*
X13618872Y-15660484D02*
X13618872Y-15460484D01*
X13618872Y-15460484D02*
X13599825Y-15489055D01*
X13599825Y-15489055D02*
X13580777Y-15508103D01*
X13580777Y-15508103D02*
X13561729Y-15517627D01*
X13914110Y-15660484D02*
X13914110Y-15460484D01*
X13999825Y-15660484D02*
X13999825Y-15555722D01*
X13999825Y-15555722D02*
X13990301Y-15536674D01*
X13990301Y-15536674D02*
X13971253Y-15527150D01*
X13971253Y-15527150D02*
X13942682Y-15527150D01*
X13942682Y-15527150D02*
X13923634Y-15536674D01*
X13923634Y-15536674D02*
X13914110Y-15546198D01*
X14123634Y-15660484D02*
X14104587Y-15650960D01*
X14104587Y-15650960D02*
X14095063Y-15641436D01*
X14095063Y-15641436D02*
X14085539Y-15622388D01*
X14085539Y-15622388D02*
X14085539Y-15565246D01*
X14085539Y-15565246D02*
X14095063Y-15546198D01*
X14095063Y-15546198D02*
X14104587Y-15536674D01*
X14104587Y-15536674D02*
X14123634Y-15527150D01*
X14123634Y-15527150D02*
X14152206Y-15527150D01*
X14152206Y-15527150D02*
X14171253Y-15536674D01*
X14171253Y-15536674D02*
X14180777Y-15546198D01*
X14180777Y-15546198D02*
X14190301Y-15565246D01*
X14190301Y-15565246D02*
X14190301Y-15622388D01*
X14190301Y-15622388D02*
X14180777Y-15641436D01*
X14180777Y-15641436D02*
X14171253Y-15650960D01*
X14171253Y-15650960D02*
X14152206Y-15660484D01*
X14152206Y-15660484D02*
X14123634Y-15660484D01*
X14304587Y-15660484D02*
X14285539Y-15650960D01*
X14285539Y-15650960D02*
X14276015Y-15631912D01*
X14276015Y-15631912D02*
X14276015Y-15460484D01*
X14456968Y-15650960D02*
X14437920Y-15660484D01*
X14437920Y-15660484D02*
X14399825Y-15660484D01*
X14399825Y-15660484D02*
X14380777Y-15650960D01*
X14380777Y-15650960D02*
X14371253Y-15631912D01*
X14371253Y-15631912D02*
X14371253Y-15555722D01*
X14371253Y-15555722D02*
X14380777Y-15536674D01*
X14380777Y-15536674D02*
X14399825Y-15527150D01*
X14399825Y-15527150D02*
X14437920Y-15527150D01*
X14437920Y-15527150D02*
X14456968Y-15536674D01*
X14456968Y-15536674D02*
X14466491Y-15555722D01*
X14466491Y-15555722D02*
X14466491Y-15574769D01*
X14466491Y-15574769D02*
X14371253Y-15593817D01*
X14533158Y-15736674D02*
X14542682Y-15727150D01*
X14542682Y-15727150D02*
X14561730Y-15698579D01*
X14561730Y-15698579D02*
X14571253Y-15679531D01*
X14571253Y-15679531D02*
X14580777Y-15650960D01*
X14580777Y-15650960D02*
X14590301Y-15603341D01*
X14590301Y-15603341D02*
X14590301Y-15565246D01*
X14590301Y-15565246D02*
X14580777Y-15517627D01*
X14580777Y-15517627D02*
X14571253Y-15489055D01*
X14571253Y-15489055D02*
X14561730Y-15470008D01*
X14561730Y-15470008D02*
X14542682Y-15441436D01*
X14542682Y-15441436D02*
X14533158Y-15431912D01*
D10*
X9905000Y-15818000D02*
X9905000Y-15848000D01*
X9890000Y-15833000D02*
X9920000Y-15833000D01*
D11*
X10218872Y-15724484D02*
X10237920Y-15724484D01*
X10237920Y-15724484D02*
X10256967Y-15734008D01*
X10256967Y-15734008D02*
X10266491Y-15743531D01*
X10266491Y-15743531D02*
X10276015Y-15762579D01*
X10276015Y-15762579D02*
X10285539Y-15800674D01*
X10285539Y-15800674D02*
X10285539Y-15848293D01*
X10285539Y-15848293D02*
X10276015Y-15886388D01*
X10276015Y-15886388D02*
X10266491Y-15905436D01*
X10266491Y-15905436D02*
X10256967Y-15914960D01*
X10256967Y-15914960D02*
X10237920Y-15924484D01*
X10237920Y-15924484D02*
X10218872Y-15924484D01*
X10218872Y-15924484D02*
X10199824Y-15914960D01*
X10199824Y-15914960D02*
X10190301Y-15905436D01*
X10190301Y-15905436D02*
X10180777Y-15886388D01*
X10180777Y-15886388D02*
X10171253Y-15848293D01*
X10171253Y-15848293D02*
X10171253Y-15800674D01*
X10171253Y-15800674D02*
X10180777Y-15762579D01*
X10180777Y-15762579D02*
X10190301Y-15743531D01*
X10190301Y-15743531D02*
X10199824Y-15734008D01*
X10199824Y-15734008D02*
X10218872Y-15724484D01*
X10371253Y-15905436D02*
X10380777Y-15914960D01*
X10380777Y-15914960D02*
X10371253Y-15924484D01*
X10371253Y-15924484D02*
X10361729Y-15914960D01*
X10361729Y-15914960D02*
X10371253Y-15905436D01*
X10371253Y-15905436D02*
X10371253Y-15924484D01*
X10447444Y-15724484D02*
X10571253Y-15724484D01*
X10571253Y-15724484D02*
X10504586Y-15800674D01*
X10504586Y-15800674D02*
X10533158Y-15800674D01*
X10533158Y-15800674D02*
X10552205Y-15810198D01*
X10552205Y-15810198D02*
X10561729Y-15819722D01*
X10561729Y-15819722D02*
X10571253Y-15838769D01*
X10571253Y-15838769D02*
X10571253Y-15886388D01*
X10571253Y-15886388D02*
X10561729Y-15905436D01*
X10561729Y-15905436D02*
X10552205Y-15914960D01*
X10552205Y-15914960D02*
X10533158Y-15924484D01*
X10533158Y-15924484D02*
X10476015Y-15924484D01*
X10476015Y-15924484D02*
X10456967Y-15914960D01*
X10456967Y-15914960D02*
X10447444Y-15905436D01*
X10695063Y-15724484D02*
X10714110Y-15724484D01*
X10714110Y-15724484D02*
X10733158Y-15734008D01*
X10733158Y-15734008D02*
X10742682Y-15743531D01*
X10742682Y-15743531D02*
X10752205Y-15762579D01*
X10752205Y-15762579D02*
X10761729Y-15800674D01*
X10761729Y-15800674D02*
X10761729Y-15848293D01*
X10761729Y-15848293D02*
X10752205Y-15886388D01*
X10752205Y-15886388D02*
X10742682Y-15905436D01*
X10742682Y-15905436D02*
X10733158Y-15914960D01*
X10733158Y-15914960D02*
X10714110Y-15924484D01*
X10714110Y-15924484D02*
X10695063Y-15924484D01*
X10695063Y-15924484D02*
X10676015Y-15914960D01*
X10676015Y-15914960D02*
X10666491Y-15905436D01*
X10666491Y-15905436D02*
X10656967Y-15886388D01*
X10656967Y-15886388D02*
X10647444Y-15848293D01*
X10647444Y-15848293D02*
X10647444Y-15800674D01*
X10647444Y-15800674D02*
X10656967Y-15762579D01*
X10656967Y-15762579D02*
X10666491Y-15743531D01*
X10666491Y-15743531D02*
X10676015Y-15734008D01*
X10676015Y-15734008D02*
X10695063Y-15724484D01*
X10885539Y-15724484D02*
X10904586Y-15724484D01*
X10904586Y-15724484D02*
X10923634Y-15734008D01*
X10923634Y-15734008D02*
X10933158Y-15743531D01*
X10933158Y-15743531D02*
X10942682Y-15762579D01*
X10942682Y-15762579D02*
X10952205Y-15800674D01*
X10952205Y-15800674D02*
X10952205Y-15848293D01*
X10952205Y-15848293D02*
X10942682Y-15886388D01*
X10942682Y-15886388D02*
X10933158Y-15905436D01*
X10933158Y-15905436D02*
X10923634Y-15914960D01*
X10923634Y-15914960D02*
X10904586Y-15924484D01*
X10904586Y-15924484D02*
X10885539Y-15924484D01*
X10885539Y-15924484D02*
X10866491Y-15914960D01*
X10866491Y-15914960D02*
X10856967Y-15905436D01*
X10856967Y-15905436D02*
X10847444Y-15886388D01*
X10847444Y-15886388D02*
X10837920Y-15848293D01*
X10837920Y-15848293D02*
X10837920Y-15800674D01*
X10837920Y-15800674D02*
X10847444Y-15762579D01*
X10847444Y-15762579D02*
X10856967Y-15743531D01*
X10856967Y-15743531D02*
X10866491Y-15734008D01*
X10866491Y-15734008D02*
X10885539Y-15724484D01*
X11037920Y-15924484D02*
X11037920Y-15791150D01*
X11037920Y-15810198D02*
X11047444Y-15800674D01*
X11047444Y-15800674D02*
X11066491Y-15791150D01*
X11066491Y-15791150D02*
X11095063Y-15791150D01*
X11095063Y-15791150D02*
X11114110Y-15800674D01*
X11114110Y-15800674D02*
X11123634Y-15819722D01*
X11123634Y-15819722D02*
X11123634Y-15924484D01*
X11123634Y-15819722D02*
X11133158Y-15800674D01*
X11133158Y-15800674D02*
X11152205Y-15791150D01*
X11152205Y-15791150D02*
X11180777Y-15791150D01*
X11180777Y-15791150D02*
X11199824Y-15800674D01*
X11199824Y-15800674D02*
X11209348Y-15819722D01*
X11209348Y-15819722D02*
X11209348Y-15924484D01*
X11304586Y-15924484D02*
X11304586Y-15791150D01*
X11304586Y-15810198D02*
X11314110Y-15800674D01*
X11314110Y-15800674D02*
X11333158Y-15791150D01*
X11333158Y-15791150D02*
X11361729Y-15791150D01*
X11361729Y-15791150D02*
X11380777Y-15800674D01*
X11380777Y-15800674D02*
X11390301Y-15819722D01*
X11390301Y-15819722D02*
X11390301Y-15924484D01*
X11390301Y-15819722D02*
X11399824Y-15800674D01*
X11399824Y-15800674D02*
X11418872Y-15791150D01*
X11418872Y-15791150D02*
X11447443Y-15791150D01*
X11447443Y-15791150D02*
X11466491Y-15800674D01*
X11466491Y-15800674D02*
X11476015Y-15819722D01*
X11476015Y-15819722D02*
X11476015Y-15924484D01*
X11866491Y-15714960D02*
X11695063Y-15972103D01*
X12123634Y-15724484D02*
X12142682Y-15724484D01*
X12142682Y-15724484D02*
X12161729Y-15734008D01*
X12161729Y-15734008D02*
X12171253Y-15743531D01*
X12171253Y-15743531D02*
X12180777Y-15762579D01*
X12180777Y-15762579D02*
X12190301Y-15800674D01*
X12190301Y-15800674D02*
X12190301Y-15848293D01*
X12190301Y-15848293D02*
X12180777Y-15886388D01*
X12180777Y-15886388D02*
X12171253Y-15905436D01*
X12171253Y-15905436D02*
X12161729Y-15914960D01*
X12161729Y-15914960D02*
X12142682Y-15924484D01*
X12142682Y-15924484D02*
X12123634Y-15924484D01*
X12123634Y-15924484D02*
X12104586Y-15914960D01*
X12104586Y-15914960D02*
X12095063Y-15905436D01*
X12095063Y-15905436D02*
X12085539Y-15886388D01*
X12085539Y-15886388D02*
X12076015Y-15848293D01*
X12076015Y-15848293D02*
X12076015Y-15800674D01*
X12076015Y-15800674D02*
X12085539Y-15762579D01*
X12085539Y-15762579D02*
X12095063Y-15743531D01*
X12095063Y-15743531D02*
X12104586Y-15734008D01*
X12104586Y-15734008D02*
X12123634Y-15724484D01*
X12276015Y-15905436D02*
X12285539Y-15914960D01*
X12285539Y-15914960D02*
X12276015Y-15924484D01*
X12276015Y-15924484D02*
X12266491Y-15914960D01*
X12266491Y-15914960D02*
X12276015Y-15905436D01*
X12276015Y-15905436D02*
X12276015Y-15924484D01*
X12409348Y-15724484D02*
X12428396Y-15724484D01*
X12428396Y-15724484D02*
X12447444Y-15734008D01*
X12447444Y-15734008D02*
X12456967Y-15743531D01*
X12456967Y-15743531D02*
X12466491Y-15762579D01*
X12466491Y-15762579D02*
X12476015Y-15800674D01*
X12476015Y-15800674D02*
X12476015Y-15848293D01*
X12476015Y-15848293D02*
X12466491Y-15886388D01*
X12466491Y-15886388D02*
X12456967Y-15905436D01*
X12456967Y-15905436D02*
X12447444Y-15914960D01*
X12447444Y-15914960D02*
X12428396Y-15924484D01*
X12428396Y-15924484D02*
X12409348Y-15924484D01*
X12409348Y-15924484D02*
X12390301Y-15914960D01*
X12390301Y-15914960D02*
X12380777Y-15905436D01*
X12380777Y-15905436D02*
X12371253Y-15886388D01*
X12371253Y-15886388D02*
X12361729Y-15848293D01*
X12361729Y-15848293D02*
X12361729Y-15800674D01*
X12361729Y-15800674D02*
X12371253Y-15762579D01*
X12371253Y-15762579D02*
X12380777Y-15743531D01*
X12380777Y-15743531D02*
X12390301Y-15734008D01*
X12390301Y-15734008D02*
X12409348Y-15724484D01*
X12666491Y-15924484D02*
X12552206Y-15924484D01*
X12609348Y-15924484D02*
X12609348Y-15724484D01*
X12609348Y-15724484D02*
X12590301Y-15753055D01*
X12590301Y-15753055D02*
X12571253Y-15772103D01*
X12571253Y-15772103D02*
X12552206Y-15781627D01*
X12856967Y-15924484D02*
X12742682Y-15924484D01*
X12799825Y-15924484D02*
X12799825Y-15724484D01*
X12799825Y-15724484D02*
X12780777Y-15753055D01*
X12780777Y-15753055D02*
X12761729Y-15772103D01*
X12761729Y-15772103D02*
X12742682Y-15781627D01*
X12971253Y-15810198D02*
X12952206Y-15800674D01*
X12952206Y-15800674D02*
X12942682Y-15791150D01*
X12942682Y-15791150D02*
X12933158Y-15772103D01*
X12933158Y-15772103D02*
X12933158Y-15762579D01*
X12933158Y-15762579D02*
X12942682Y-15743531D01*
X12942682Y-15743531D02*
X12952206Y-15734008D01*
X12952206Y-15734008D02*
X12971253Y-15724484D01*
X12971253Y-15724484D02*
X13009348Y-15724484D01*
X13009348Y-15724484D02*
X13028396Y-15734008D01*
X13028396Y-15734008D02*
X13037920Y-15743531D01*
X13037920Y-15743531D02*
X13047444Y-15762579D01*
X13047444Y-15762579D02*
X13047444Y-15772103D01*
X13047444Y-15772103D02*
X13037920Y-15791150D01*
X13037920Y-15791150D02*
X13028396Y-15800674D01*
X13028396Y-15800674D02*
X13009348Y-15810198D01*
X13009348Y-15810198D02*
X12971253Y-15810198D01*
X12971253Y-15810198D02*
X12952206Y-15819722D01*
X12952206Y-15819722D02*
X12942682Y-15829246D01*
X12942682Y-15829246D02*
X12933158Y-15848293D01*
X12933158Y-15848293D02*
X12933158Y-15886388D01*
X12933158Y-15886388D02*
X12942682Y-15905436D01*
X12942682Y-15905436D02*
X12952206Y-15914960D01*
X12952206Y-15914960D02*
X12971253Y-15924484D01*
X12971253Y-15924484D02*
X13009348Y-15924484D01*
X13009348Y-15924484D02*
X13028396Y-15914960D01*
X13028396Y-15914960D02*
X13037920Y-15905436D01*
X13037920Y-15905436D02*
X13047444Y-15886388D01*
X13047444Y-15886388D02*
X13047444Y-15848293D01*
X13047444Y-15848293D02*
X13037920Y-15829246D01*
X13037920Y-15829246D02*
X13028396Y-15819722D01*
X13028396Y-15819722D02*
X13009348Y-15810198D01*
X13123634Y-15724484D02*
X13123634Y-15762579D01*
X13199825Y-15724484D02*
X13199825Y-15762579D01*
X13495063Y-16000674D02*
X13485539Y-15991150D01*
X13485539Y-15991150D02*
X13466491Y-15962579D01*
X13466491Y-15962579D02*
X13456968Y-15943531D01*
X13456968Y-15943531D02*
X13447444Y-15914960D01*
X13447444Y-15914960D02*
X13437920Y-15867341D01*
X13437920Y-15867341D02*
X13437920Y-15829246D01*
X13437920Y-15829246D02*
X13447444Y-15781627D01*
X13447444Y-15781627D02*
X13456968Y-15753055D01*
X13456968Y-15753055D02*
X13466491Y-15734008D01*
X13466491Y-15734008D02*
X13485539Y-15705436D01*
X13485539Y-15705436D02*
X13495063Y-15695912D01*
X13561729Y-15743531D02*
X13571253Y-15734008D01*
X13571253Y-15734008D02*
X13590301Y-15724484D01*
X13590301Y-15724484D02*
X13637920Y-15724484D01*
X13637920Y-15724484D02*
X13656968Y-15734008D01*
X13656968Y-15734008D02*
X13666491Y-15743531D01*
X13666491Y-15743531D02*
X13676015Y-15762579D01*
X13676015Y-15762579D02*
X13676015Y-15781627D01*
X13676015Y-15781627D02*
X13666491Y-15810198D01*
X13666491Y-15810198D02*
X13552206Y-15924484D01*
X13552206Y-15924484D02*
X13676015Y-15924484D01*
X13771253Y-15924484D02*
X13809348Y-15924484D01*
X13809348Y-15924484D02*
X13828396Y-15914960D01*
X13828396Y-15914960D02*
X13837920Y-15905436D01*
X13837920Y-15905436D02*
X13856968Y-15876865D01*
X13856968Y-15876865D02*
X13866491Y-15838769D01*
X13866491Y-15838769D02*
X13866491Y-15762579D01*
X13866491Y-15762579D02*
X13856968Y-15743531D01*
X13856968Y-15743531D02*
X13847444Y-15734008D01*
X13847444Y-15734008D02*
X13828396Y-15724484D01*
X13828396Y-15724484D02*
X13790301Y-15724484D01*
X13790301Y-15724484D02*
X13771253Y-15734008D01*
X13771253Y-15734008D02*
X13761729Y-15743531D01*
X13761729Y-15743531D02*
X13752206Y-15762579D01*
X13752206Y-15762579D02*
X13752206Y-15810198D01*
X13752206Y-15810198D02*
X13761729Y-15829246D01*
X13761729Y-15829246D02*
X13771253Y-15838769D01*
X13771253Y-15838769D02*
X13790301Y-15848293D01*
X13790301Y-15848293D02*
X13828396Y-15848293D01*
X13828396Y-15848293D02*
X13847444Y-15838769D01*
X13847444Y-15838769D02*
X13856968Y-15829246D01*
X13856968Y-15829246D02*
X13866491Y-15810198D01*
X13942682Y-15743531D02*
X13952206Y-15734008D01*
X13952206Y-15734008D02*
X13971253Y-15724484D01*
X13971253Y-15724484D02*
X14018872Y-15724484D01*
X14018872Y-15724484D02*
X14037920Y-15734008D01*
X14037920Y-15734008D02*
X14047444Y-15743531D01*
X14047444Y-15743531D02*
X14056968Y-15762579D01*
X14056968Y-15762579D02*
X14056968Y-15781627D01*
X14056968Y-15781627D02*
X14047444Y-15810198D01*
X14047444Y-15810198D02*
X13933158Y-15924484D01*
X13933158Y-15924484D02*
X14056968Y-15924484D01*
X14295063Y-15924484D02*
X14295063Y-15724484D01*
X14380777Y-15924484D02*
X14380777Y-15819722D01*
X14380777Y-15819722D02*
X14371253Y-15800674D01*
X14371253Y-15800674D02*
X14352206Y-15791150D01*
X14352206Y-15791150D02*
X14323634Y-15791150D01*
X14323634Y-15791150D02*
X14304587Y-15800674D01*
X14304587Y-15800674D02*
X14295063Y-15810198D01*
X14504587Y-15924484D02*
X14485539Y-15914960D01*
X14485539Y-15914960D02*
X14476015Y-15905436D01*
X14476015Y-15905436D02*
X14466491Y-15886388D01*
X14466491Y-15886388D02*
X14466491Y-15829246D01*
X14466491Y-15829246D02*
X14476015Y-15810198D01*
X14476015Y-15810198D02*
X14485539Y-15800674D01*
X14485539Y-15800674D02*
X14504587Y-15791150D01*
X14504587Y-15791150D02*
X14533158Y-15791150D01*
X14533158Y-15791150D02*
X14552206Y-15800674D01*
X14552206Y-15800674D02*
X14561730Y-15810198D01*
X14561730Y-15810198D02*
X14571253Y-15829246D01*
X14571253Y-15829246D02*
X14571253Y-15886388D01*
X14571253Y-15886388D02*
X14561730Y-15905436D01*
X14561730Y-15905436D02*
X14552206Y-15914960D01*
X14552206Y-15914960D02*
X14533158Y-15924484D01*
X14533158Y-15924484D02*
X14504587Y-15924484D01*
X14685539Y-15924484D02*
X14666491Y-15914960D01*
X14666491Y-15914960D02*
X14656968Y-15895912D01*
X14656968Y-15895912D02*
X14656968Y-15724484D01*
X14837920Y-15914960D02*
X14818872Y-15924484D01*
X14818872Y-15924484D02*
X14780777Y-15924484D01*
X14780777Y-15924484D02*
X14761730Y-15914960D01*
X14761730Y-15914960D02*
X14752206Y-15895912D01*
X14752206Y-15895912D02*
X14752206Y-15819722D01*
X14752206Y-15819722D02*
X14761730Y-15800674D01*
X14761730Y-15800674D02*
X14780777Y-15791150D01*
X14780777Y-15791150D02*
X14818872Y-15791150D01*
X14818872Y-15791150D02*
X14837920Y-15800674D01*
X14837920Y-15800674D02*
X14847444Y-15819722D01*
X14847444Y-15819722D02*
X14847444Y-15838769D01*
X14847444Y-15838769D02*
X14752206Y-15857817D01*
X14923634Y-15914960D02*
X14942682Y-15924484D01*
X14942682Y-15924484D02*
X14980777Y-15924484D01*
X14980777Y-15924484D02*
X14999825Y-15914960D01*
X14999825Y-15914960D02*
X15009349Y-15895912D01*
X15009349Y-15895912D02*
X15009349Y-15886388D01*
X15009349Y-15886388D02*
X14999825Y-15867341D01*
X14999825Y-15867341D02*
X14980777Y-15857817D01*
X14980777Y-15857817D02*
X14952206Y-15857817D01*
X14952206Y-15857817D02*
X14933158Y-15848293D01*
X14933158Y-15848293D02*
X14923634Y-15829246D01*
X14923634Y-15829246D02*
X14923634Y-15819722D01*
X14923634Y-15819722D02*
X14933158Y-15800674D01*
X14933158Y-15800674D02*
X14952206Y-15791150D01*
X14952206Y-15791150D02*
X14980777Y-15791150D01*
X14980777Y-15791150D02*
X14999825Y-15800674D01*
X15076015Y-16000674D02*
X15085539Y-15991150D01*
X15085539Y-15991150D02*
X15104587Y-15962579D01*
X15104587Y-15962579D02*
X15114111Y-15943531D01*
X15114111Y-15943531D02*
X15123634Y-15914960D01*
X15123634Y-15914960D02*
X15133158Y-15867341D01*
X15133158Y-15867341D02*
X15133158Y-15829246D01*
X15133158Y-15829246D02*
X15123634Y-15781627D01*
X15123634Y-15781627D02*
X15114111Y-15753055D01*
X15114111Y-15753055D02*
X15104587Y-15734008D01*
X15104587Y-15734008D02*
X15085539Y-15705436D01*
X15085539Y-15705436D02*
X15076015Y-15695912D01*
D10*
X9911213Y-16118213D02*
X9911213Y-16075787D01*
X9868787Y-16075787D01*
X9868787Y-16118213D01*
X9911213Y-16118213D01*
D11*
X10218872Y-15988484D02*
X10237920Y-15988484D01*
X10237920Y-15988484D02*
X10256967Y-15998008D01*
X10256967Y-15998008D02*
X10266491Y-16007531D01*
X10266491Y-16007531D02*
X10276015Y-16026579D01*
X10276015Y-16026579D02*
X10285539Y-16064674D01*
X10285539Y-16064674D02*
X10285539Y-16112293D01*
X10285539Y-16112293D02*
X10276015Y-16150388D01*
X10276015Y-16150388D02*
X10266491Y-16169436D01*
X10266491Y-16169436D02*
X10256967Y-16178960D01*
X10256967Y-16178960D02*
X10237920Y-16188484D01*
X10237920Y-16188484D02*
X10218872Y-16188484D01*
X10218872Y-16188484D02*
X10199824Y-16178960D01*
X10199824Y-16178960D02*
X10190301Y-16169436D01*
X10190301Y-16169436D02*
X10180777Y-16150388D01*
X10180777Y-16150388D02*
X10171253Y-16112293D01*
X10171253Y-16112293D02*
X10171253Y-16064674D01*
X10171253Y-16064674D02*
X10180777Y-16026579D01*
X10180777Y-16026579D02*
X10190301Y-16007531D01*
X10190301Y-16007531D02*
X10199824Y-15998008D01*
X10199824Y-15998008D02*
X10218872Y-15988484D01*
X10371253Y-16169436D02*
X10380777Y-16178960D01*
X10380777Y-16178960D02*
X10371253Y-16188484D01*
X10371253Y-16188484D02*
X10361729Y-16178960D01*
X10361729Y-16178960D02*
X10371253Y-16169436D01*
X10371253Y-16169436D02*
X10371253Y-16188484D01*
X10552205Y-15988484D02*
X10514110Y-15988484D01*
X10514110Y-15988484D02*
X10495063Y-15998008D01*
X10495063Y-15998008D02*
X10485539Y-16007531D01*
X10485539Y-16007531D02*
X10466491Y-16036103D01*
X10466491Y-16036103D02*
X10456967Y-16074198D01*
X10456967Y-16074198D02*
X10456967Y-16150388D01*
X10456967Y-16150388D02*
X10466491Y-16169436D01*
X10466491Y-16169436D02*
X10476015Y-16178960D01*
X10476015Y-16178960D02*
X10495063Y-16188484D01*
X10495063Y-16188484D02*
X10533158Y-16188484D01*
X10533158Y-16188484D02*
X10552205Y-16178960D01*
X10552205Y-16178960D02*
X10561729Y-16169436D01*
X10561729Y-16169436D02*
X10571253Y-16150388D01*
X10571253Y-16150388D02*
X10571253Y-16102769D01*
X10571253Y-16102769D02*
X10561729Y-16083722D01*
X10561729Y-16083722D02*
X10552205Y-16074198D01*
X10552205Y-16074198D02*
X10533158Y-16064674D01*
X10533158Y-16064674D02*
X10495063Y-16064674D01*
X10495063Y-16064674D02*
X10476015Y-16074198D01*
X10476015Y-16074198D02*
X10466491Y-16083722D01*
X10466491Y-16083722D02*
X10456967Y-16102769D01*
X10695063Y-15988484D02*
X10714110Y-15988484D01*
X10714110Y-15988484D02*
X10733158Y-15998008D01*
X10733158Y-15998008D02*
X10742682Y-16007531D01*
X10742682Y-16007531D02*
X10752205Y-16026579D01*
X10752205Y-16026579D02*
X10761729Y-16064674D01*
X10761729Y-16064674D02*
X10761729Y-16112293D01*
X10761729Y-16112293D02*
X10752205Y-16150388D01*
X10752205Y-16150388D02*
X10742682Y-16169436D01*
X10742682Y-16169436D02*
X10733158Y-16178960D01*
X10733158Y-16178960D02*
X10714110Y-16188484D01*
X10714110Y-16188484D02*
X10695063Y-16188484D01*
X10695063Y-16188484D02*
X10676015Y-16178960D01*
X10676015Y-16178960D02*
X10666491Y-16169436D01*
X10666491Y-16169436D02*
X10656967Y-16150388D01*
X10656967Y-16150388D02*
X10647444Y-16112293D01*
X10647444Y-16112293D02*
X10647444Y-16064674D01*
X10647444Y-16064674D02*
X10656967Y-16026579D01*
X10656967Y-16026579D02*
X10666491Y-16007531D01*
X10666491Y-16007531D02*
X10676015Y-15998008D01*
X10676015Y-15998008D02*
X10695063Y-15988484D01*
X10885539Y-15988484D02*
X10904586Y-15988484D01*
X10904586Y-15988484D02*
X10923634Y-15998008D01*
X10923634Y-15998008D02*
X10933158Y-16007531D01*
X10933158Y-16007531D02*
X10942682Y-16026579D01*
X10942682Y-16026579D02*
X10952205Y-16064674D01*
X10952205Y-16064674D02*
X10952205Y-16112293D01*
X10952205Y-16112293D02*
X10942682Y-16150388D01*
X10942682Y-16150388D02*
X10933158Y-16169436D01*
X10933158Y-16169436D02*
X10923634Y-16178960D01*
X10923634Y-16178960D02*
X10904586Y-16188484D01*
X10904586Y-16188484D02*
X10885539Y-16188484D01*
X10885539Y-16188484D02*
X10866491Y-16178960D01*
X10866491Y-16178960D02*
X10856967Y-16169436D01*
X10856967Y-16169436D02*
X10847444Y-16150388D01*
X10847444Y-16150388D02*
X10837920Y-16112293D01*
X10837920Y-16112293D02*
X10837920Y-16064674D01*
X10837920Y-16064674D02*
X10847444Y-16026579D01*
X10847444Y-16026579D02*
X10856967Y-16007531D01*
X10856967Y-16007531D02*
X10866491Y-15998008D01*
X10866491Y-15998008D02*
X10885539Y-15988484D01*
X11037920Y-16188484D02*
X11037920Y-16055150D01*
X11037920Y-16074198D02*
X11047444Y-16064674D01*
X11047444Y-16064674D02*
X11066491Y-16055150D01*
X11066491Y-16055150D02*
X11095063Y-16055150D01*
X11095063Y-16055150D02*
X11114110Y-16064674D01*
X11114110Y-16064674D02*
X11123634Y-16083722D01*
X11123634Y-16083722D02*
X11123634Y-16188484D01*
X11123634Y-16083722D02*
X11133158Y-16064674D01*
X11133158Y-16064674D02*
X11152205Y-16055150D01*
X11152205Y-16055150D02*
X11180777Y-16055150D01*
X11180777Y-16055150D02*
X11199824Y-16064674D01*
X11199824Y-16064674D02*
X11209348Y-16083722D01*
X11209348Y-16083722D02*
X11209348Y-16188484D01*
X11304586Y-16188484D02*
X11304586Y-16055150D01*
X11304586Y-16074198D02*
X11314110Y-16064674D01*
X11314110Y-16064674D02*
X11333158Y-16055150D01*
X11333158Y-16055150D02*
X11361729Y-16055150D01*
X11361729Y-16055150D02*
X11380777Y-16064674D01*
X11380777Y-16064674D02*
X11390301Y-16083722D01*
X11390301Y-16083722D02*
X11390301Y-16188484D01*
X11390301Y-16083722D02*
X11399824Y-16064674D01*
X11399824Y-16064674D02*
X11418872Y-16055150D01*
X11418872Y-16055150D02*
X11447443Y-16055150D01*
X11447443Y-16055150D02*
X11466491Y-16064674D01*
X11466491Y-16064674D02*
X11476015Y-16083722D01*
X11476015Y-16083722D02*
X11476015Y-16188484D01*
X11866491Y-15978960D02*
X11695063Y-16236103D01*
X12123634Y-15988484D02*
X12142682Y-15988484D01*
X12142682Y-15988484D02*
X12161729Y-15998008D01*
X12161729Y-15998008D02*
X12171253Y-16007531D01*
X12171253Y-16007531D02*
X12180777Y-16026579D01*
X12180777Y-16026579D02*
X12190301Y-16064674D01*
X12190301Y-16064674D02*
X12190301Y-16112293D01*
X12190301Y-16112293D02*
X12180777Y-16150388D01*
X12180777Y-16150388D02*
X12171253Y-16169436D01*
X12171253Y-16169436D02*
X12161729Y-16178960D01*
X12161729Y-16178960D02*
X12142682Y-16188484D01*
X12142682Y-16188484D02*
X12123634Y-16188484D01*
X12123634Y-16188484D02*
X12104586Y-16178960D01*
X12104586Y-16178960D02*
X12095063Y-16169436D01*
X12095063Y-16169436D02*
X12085539Y-16150388D01*
X12085539Y-16150388D02*
X12076015Y-16112293D01*
X12076015Y-16112293D02*
X12076015Y-16064674D01*
X12076015Y-16064674D02*
X12085539Y-16026579D01*
X12085539Y-16026579D02*
X12095063Y-16007531D01*
X12095063Y-16007531D02*
X12104586Y-15998008D01*
X12104586Y-15998008D02*
X12123634Y-15988484D01*
X12276015Y-16169436D02*
X12285539Y-16178960D01*
X12285539Y-16178960D02*
X12276015Y-16188484D01*
X12276015Y-16188484D02*
X12266491Y-16178960D01*
X12266491Y-16178960D02*
X12276015Y-16169436D01*
X12276015Y-16169436D02*
X12276015Y-16188484D01*
X12409348Y-15988484D02*
X12428396Y-15988484D01*
X12428396Y-15988484D02*
X12447444Y-15998008D01*
X12447444Y-15998008D02*
X12456967Y-16007531D01*
X12456967Y-16007531D02*
X12466491Y-16026579D01*
X12466491Y-16026579D02*
X12476015Y-16064674D01*
X12476015Y-16064674D02*
X12476015Y-16112293D01*
X12476015Y-16112293D02*
X12466491Y-16150388D01*
X12466491Y-16150388D02*
X12456967Y-16169436D01*
X12456967Y-16169436D02*
X12447444Y-16178960D01*
X12447444Y-16178960D02*
X12428396Y-16188484D01*
X12428396Y-16188484D02*
X12409348Y-16188484D01*
X12409348Y-16188484D02*
X12390301Y-16178960D01*
X12390301Y-16178960D02*
X12380777Y-16169436D01*
X12380777Y-16169436D02*
X12371253Y-16150388D01*
X12371253Y-16150388D02*
X12361729Y-16112293D01*
X12361729Y-16112293D02*
X12361729Y-16064674D01*
X12361729Y-16064674D02*
X12371253Y-16026579D01*
X12371253Y-16026579D02*
X12380777Y-16007531D01*
X12380777Y-16007531D02*
X12390301Y-15998008D01*
X12390301Y-15998008D02*
X12409348Y-15988484D01*
X12552206Y-16007531D02*
X12561729Y-15998008D01*
X12561729Y-15998008D02*
X12580777Y-15988484D01*
X12580777Y-15988484D02*
X12628396Y-15988484D01*
X12628396Y-15988484D02*
X12647444Y-15998008D01*
X12647444Y-15998008D02*
X12656967Y-16007531D01*
X12656967Y-16007531D02*
X12666491Y-16026579D01*
X12666491Y-16026579D02*
X12666491Y-16045627D01*
X12666491Y-16045627D02*
X12656967Y-16074198D01*
X12656967Y-16074198D02*
X12542682Y-16188484D01*
X12542682Y-16188484D02*
X12666491Y-16188484D01*
X12733158Y-15988484D02*
X12856967Y-15988484D01*
X12856967Y-15988484D02*
X12790301Y-16064674D01*
X12790301Y-16064674D02*
X12818872Y-16064674D01*
X12818872Y-16064674D02*
X12837920Y-16074198D01*
X12837920Y-16074198D02*
X12847444Y-16083722D01*
X12847444Y-16083722D02*
X12856967Y-16102769D01*
X12856967Y-16102769D02*
X12856967Y-16150388D01*
X12856967Y-16150388D02*
X12847444Y-16169436D01*
X12847444Y-16169436D02*
X12837920Y-16178960D01*
X12837920Y-16178960D02*
X12818872Y-16188484D01*
X12818872Y-16188484D02*
X12761729Y-16188484D01*
X12761729Y-16188484D02*
X12742682Y-16178960D01*
X12742682Y-16178960D02*
X12733158Y-16169436D01*
X13028396Y-15988484D02*
X12990301Y-15988484D01*
X12990301Y-15988484D02*
X12971253Y-15998008D01*
X12971253Y-15998008D02*
X12961729Y-16007531D01*
X12961729Y-16007531D02*
X12942682Y-16036103D01*
X12942682Y-16036103D02*
X12933158Y-16074198D01*
X12933158Y-16074198D02*
X12933158Y-16150388D01*
X12933158Y-16150388D02*
X12942682Y-16169436D01*
X12942682Y-16169436D02*
X12952206Y-16178960D01*
X12952206Y-16178960D02*
X12971253Y-16188484D01*
X12971253Y-16188484D02*
X13009348Y-16188484D01*
X13009348Y-16188484D02*
X13028396Y-16178960D01*
X13028396Y-16178960D02*
X13037920Y-16169436D01*
X13037920Y-16169436D02*
X13047444Y-16150388D01*
X13047444Y-16150388D02*
X13047444Y-16102769D01*
X13047444Y-16102769D02*
X13037920Y-16083722D01*
X13037920Y-16083722D02*
X13028396Y-16074198D01*
X13028396Y-16074198D02*
X13009348Y-16064674D01*
X13009348Y-16064674D02*
X12971253Y-16064674D01*
X12971253Y-16064674D02*
X12952206Y-16074198D01*
X12952206Y-16074198D02*
X12942682Y-16083722D01*
X12942682Y-16083722D02*
X12933158Y-16102769D01*
X13123634Y-15988484D02*
X13123634Y-16026579D01*
X13199825Y-15988484D02*
X13199825Y-16026579D01*
X13495063Y-16264674D02*
X13485539Y-16255150D01*
X13485539Y-16255150D02*
X13466491Y-16226579D01*
X13466491Y-16226579D02*
X13456968Y-16207531D01*
X13456968Y-16207531D02*
X13447444Y-16178960D01*
X13447444Y-16178960D02*
X13437920Y-16131341D01*
X13437920Y-16131341D02*
X13437920Y-16093246D01*
X13437920Y-16093246D02*
X13447444Y-16045627D01*
X13447444Y-16045627D02*
X13456968Y-16017055D01*
X13456968Y-16017055D02*
X13466491Y-15998008D01*
X13466491Y-15998008D02*
X13485539Y-15969436D01*
X13485539Y-15969436D02*
X13495063Y-15959912D01*
X13609348Y-15988484D02*
X13628396Y-15988484D01*
X13628396Y-15988484D02*
X13647444Y-15998008D01*
X13647444Y-15998008D02*
X13656968Y-16007531D01*
X13656968Y-16007531D02*
X13666491Y-16026579D01*
X13666491Y-16026579D02*
X13676015Y-16064674D01*
X13676015Y-16064674D02*
X13676015Y-16112293D01*
X13676015Y-16112293D02*
X13666491Y-16150388D01*
X13666491Y-16150388D02*
X13656968Y-16169436D01*
X13656968Y-16169436D02*
X13647444Y-16178960D01*
X13647444Y-16178960D02*
X13628396Y-16188484D01*
X13628396Y-16188484D02*
X13609348Y-16188484D01*
X13609348Y-16188484D02*
X13590301Y-16178960D01*
X13590301Y-16178960D02*
X13580777Y-16169436D01*
X13580777Y-16169436D02*
X13571253Y-16150388D01*
X13571253Y-16150388D02*
X13561729Y-16112293D01*
X13561729Y-16112293D02*
X13561729Y-16064674D01*
X13561729Y-16064674D02*
X13571253Y-16026579D01*
X13571253Y-16026579D02*
X13580777Y-16007531D01*
X13580777Y-16007531D02*
X13590301Y-15998008D01*
X13590301Y-15998008D02*
X13609348Y-15988484D01*
X13914110Y-16188484D02*
X13914110Y-15988484D01*
X13999825Y-16188484D02*
X13999825Y-16083722D01*
X13999825Y-16083722D02*
X13990301Y-16064674D01*
X13990301Y-16064674D02*
X13971253Y-16055150D01*
X13971253Y-16055150D02*
X13942682Y-16055150D01*
X13942682Y-16055150D02*
X13923634Y-16064674D01*
X13923634Y-16064674D02*
X13914110Y-16074198D01*
X14123634Y-16188484D02*
X14104587Y-16178960D01*
X14104587Y-16178960D02*
X14095063Y-16169436D01*
X14095063Y-16169436D02*
X14085539Y-16150388D01*
X14085539Y-16150388D02*
X14085539Y-16093246D01*
X14085539Y-16093246D02*
X14095063Y-16074198D01*
X14095063Y-16074198D02*
X14104587Y-16064674D01*
X14104587Y-16064674D02*
X14123634Y-16055150D01*
X14123634Y-16055150D02*
X14152206Y-16055150D01*
X14152206Y-16055150D02*
X14171253Y-16064674D01*
X14171253Y-16064674D02*
X14180777Y-16074198D01*
X14180777Y-16074198D02*
X14190301Y-16093246D01*
X14190301Y-16093246D02*
X14190301Y-16150388D01*
X14190301Y-16150388D02*
X14180777Y-16169436D01*
X14180777Y-16169436D02*
X14171253Y-16178960D01*
X14171253Y-16178960D02*
X14152206Y-16188484D01*
X14152206Y-16188484D02*
X14123634Y-16188484D01*
X14304587Y-16188484D02*
X14285539Y-16178960D01*
X14285539Y-16178960D02*
X14276015Y-16159912D01*
X14276015Y-16159912D02*
X14276015Y-15988484D01*
X14456968Y-16178960D02*
X14437920Y-16188484D01*
X14437920Y-16188484D02*
X14399825Y-16188484D01*
X14399825Y-16188484D02*
X14380777Y-16178960D01*
X14380777Y-16178960D02*
X14371253Y-16159912D01*
X14371253Y-16159912D02*
X14371253Y-16083722D01*
X14371253Y-16083722D02*
X14380777Y-16064674D01*
X14380777Y-16064674D02*
X14399825Y-16055150D01*
X14399825Y-16055150D02*
X14437920Y-16055150D01*
X14437920Y-16055150D02*
X14456968Y-16064674D01*
X14456968Y-16064674D02*
X14466491Y-16083722D01*
X14466491Y-16083722D02*
X14466491Y-16102769D01*
X14466491Y-16102769D02*
X14371253Y-16121817D01*
X14542682Y-16178960D02*
X14561730Y-16188484D01*
X14561730Y-16188484D02*
X14599825Y-16188484D01*
X14599825Y-16188484D02*
X14618872Y-16178960D01*
X14618872Y-16178960D02*
X14628396Y-16159912D01*
X14628396Y-16159912D02*
X14628396Y-16150388D01*
X14628396Y-16150388D02*
X14618872Y-16131341D01*
X14618872Y-16131341D02*
X14599825Y-16121817D01*
X14599825Y-16121817D02*
X14571253Y-16121817D01*
X14571253Y-16121817D02*
X14552206Y-16112293D01*
X14552206Y-16112293D02*
X14542682Y-16093246D01*
X14542682Y-16093246D02*
X14542682Y-16083722D01*
X14542682Y-16083722D02*
X14552206Y-16064674D01*
X14552206Y-16064674D02*
X14571253Y-16055150D01*
X14571253Y-16055150D02*
X14599825Y-16055150D01*
X14599825Y-16055150D02*
X14618872Y-16064674D01*
X14866492Y-16112293D02*
X15018873Y-16112293D01*
X14942682Y-16188484D02*
X14942682Y-16036103D01*
X15352206Y-16055150D02*
X15352206Y-16188484D01*
X15304587Y-15978960D02*
X15256968Y-16121817D01*
X15256968Y-16121817D02*
X15380777Y-16121817D01*
X15599825Y-16178960D02*
X15618873Y-16188484D01*
X15618873Y-16188484D02*
X15656968Y-16188484D01*
X15656968Y-16188484D02*
X15676015Y-16178960D01*
X15676015Y-16178960D02*
X15685539Y-16159912D01*
X15685539Y-16159912D02*
X15685539Y-16150388D01*
X15685539Y-16150388D02*
X15676015Y-16131341D01*
X15676015Y-16131341D02*
X15656968Y-16121817D01*
X15656968Y-16121817D02*
X15628396Y-16121817D01*
X15628396Y-16121817D02*
X15609349Y-16112293D01*
X15609349Y-16112293D02*
X15599825Y-16093246D01*
X15599825Y-16093246D02*
X15599825Y-16083722D01*
X15599825Y-16083722D02*
X15609349Y-16064674D01*
X15609349Y-16064674D02*
X15628396Y-16055150D01*
X15628396Y-16055150D02*
X15656968Y-16055150D01*
X15656968Y-16055150D02*
X15676015Y-16064674D01*
X15799825Y-16188484D02*
X15780777Y-16178960D01*
X15780777Y-16178960D02*
X15771254Y-16159912D01*
X15771254Y-16159912D02*
X15771254Y-15988484D01*
X15904587Y-16188484D02*
X15885539Y-16178960D01*
X15885539Y-16178960D02*
X15876015Y-16169436D01*
X15876015Y-16169436D02*
X15866492Y-16150388D01*
X15866492Y-16150388D02*
X15866492Y-16093246D01*
X15866492Y-16093246D02*
X15876015Y-16074198D01*
X15876015Y-16074198D02*
X15885539Y-16064674D01*
X15885539Y-16064674D02*
X15904587Y-16055150D01*
X15904587Y-16055150D02*
X15933158Y-16055150D01*
X15933158Y-16055150D02*
X15952206Y-16064674D01*
X15952206Y-16064674D02*
X15961730Y-16074198D01*
X15961730Y-16074198D02*
X15971254Y-16093246D01*
X15971254Y-16093246D02*
X15971254Y-16150388D01*
X15971254Y-16150388D02*
X15961730Y-16169436D01*
X15961730Y-16169436D02*
X15952206Y-16178960D01*
X15952206Y-16178960D02*
X15933158Y-16188484D01*
X15933158Y-16188484D02*
X15904587Y-16188484D01*
X16028396Y-16055150D02*
X16104587Y-16055150D01*
X16056968Y-15988484D02*
X16056968Y-16159912D01*
X16056968Y-16159912D02*
X16066492Y-16178960D01*
X16066492Y-16178960D02*
X16085539Y-16188484D01*
X16085539Y-16188484D02*
X16104587Y-16188484D01*
X16161730Y-16178960D02*
X16180777Y-16188484D01*
X16180777Y-16188484D02*
X16218873Y-16188484D01*
X16218873Y-16188484D02*
X16237920Y-16178960D01*
X16237920Y-16178960D02*
X16247444Y-16159912D01*
X16247444Y-16159912D02*
X16247444Y-16150388D01*
X16247444Y-16150388D02*
X16237920Y-16131341D01*
X16237920Y-16131341D02*
X16218873Y-16121817D01*
X16218873Y-16121817D02*
X16190301Y-16121817D01*
X16190301Y-16121817D02*
X16171254Y-16112293D01*
X16171254Y-16112293D02*
X16161730Y-16093246D01*
X16161730Y-16093246D02*
X16161730Y-16083722D01*
X16161730Y-16083722D02*
X16171254Y-16064674D01*
X16171254Y-16064674D02*
X16190301Y-16055150D01*
X16190301Y-16055150D02*
X16218873Y-16055150D01*
X16218873Y-16055150D02*
X16237920Y-16064674D01*
X16314111Y-16264674D02*
X16323635Y-16255150D01*
X16323635Y-16255150D02*
X16342682Y-16226579D01*
X16342682Y-16226579D02*
X16352206Y-16207531D01*
X16352206Y-16207531D02*
X16361730Y-16178960D01*
X16361730Y-16178960D02*
X16371254Y-16131341D01*
X16371254Y-16131341D02*
X16371254Y-16093246D01*
X16371254Y-16093246D02*
X16361730Y-16045627D01*
X16361730Y-16045627D02*
X16352206Y-16017055D01*
X16352206Y-16017055D02*
X16342682Y-15998008D01*
X16342682Y-15998008D02*
X16323635Y-15969436D01*
X16323635Y-15969436D02*
X16314111Y-15959912D01*
D10*
X9874999Y-16406001D02*
X9920000Y-16361000D01*
X9874999Y-16315999D01*
X9829998Y-16361000D01*
X9874999Y-16406001D01*
D11*
X10218872Y-16252484D02*
X10237920Y-16252484D01*
X10237920Y-16252484D02*
X10256967Y-16262008D01*
X10256967Y-16262008D02*
X10266491Y-16271531D01*
X10266491Y-16271531D02*
X10276015Y-16290579D01*
X10276015Y-16290579D02*
X10285539Y-16328674D01*
X10285539Y-16328674D02*
X10285539Y-16376293D01*
X10285539Y-16376293D02*
X10276015Y-16414388D01*
X10276015Y-16414388D02*
X10266491Y-16433436D01*
X10266491Y-16433436D02*
X10256967Y-16442960D01*
X10256967Y-16442960D02*
X10237920Y-16452484D01*
X10237920Y-16452484D02*
X10218872Y-16452484D01*
X10218872Y-16452484D02*
X10199824Y-16442960D01*
X10199824Y-16442960D02*
X10190301Y-16433436D01*
X10190301Y-16433436D02*
X10180777Y-16414388D01*
X10180777Y-16414388D02*
X10171253Y-16376293D01*
X10171253Y-16376293D02*
X10171253Y-16328674D01*
X10171253Y-16328674D02*
X10180777Y-16290579D01*
X10180777Y-16290579D02*
X10190301Y-16271531D01*
X10190301Y-16271531D02*
X10199824Y-16262008D01*
X10199824Y-16262008D02*
X10218872Y-16252484D01*
X10371253Y-16433436D02*
X10380777Y-16442960D01*
X10380777Y-16442960D02*
X10371253Y-16452484D01*
X10371253Y-16452484D02*
X10361729Y-16442960D01*
X10361729Y-16442960D02*
X10371253Y-16433436D01*
X10371253Y-16433436D02*
X10371253Y-16452484D01*
X10476015Y-16452484D02*
X10514110Y-16452484D01*
X10514110Y-16452484D02*
X10533158Y-16442960D01*
X10533158Y-16442960D02*
X10542682Y-16433436D01*
X10542682Y-16433436D02*
X10561729Y-16404865D01*
X10561729Y-16404865D02*
X10571253Y-16366769D01*
X10571253Y-16366769D02*
X10571253Y-16290579D01*
X10571253Y-16290579D02*
X10561729Y-16271531D01*
X10561729Y-16271531D02*
X10552205Y-16262008D01*
X10552205Y-16262008D02*
X10533158Y-16252484D01*
X10533158Y-16252484D02*
X10495063Y-16252484D01*
X10495063Y-16252484D02*
X10476015Y-16262008D01*
X10476015Y-16262008D02*
X10466491Y-16271531D01*
X10466491Y-16271531D02*
X10456967Y-16290579D01*
X10456967Y-16290579D02*
X10456967Y-16338198D01*
X10456967Y-16338198D02*
X10466491Y-16357246D01*
X10466491Y-16357246D02*
X10476015Y-16366769D01*
X10476015Y-16366769D02*
X10495063Y-16376293D01*
X10495063Y-16376293D02*
X10533158Y-16376293D01*
X10533158Y-16376293D02*
X10552205Y-16366769D01*
X10552205Y-16366769D02*
X10561729Y-16357246D01*
X10561729Y-16357246D02*
X10571253Y-16338198D01*
X10695063Y-16252484D02*
X10714110Y-16252484D01*
X10714110Y-16252484D02*
X10733158Y-16262008D01*
X10733158Y-16262008D02*
X10742682Y-16271531D01*
X10742682Y-16271531D02*
X10752205Y-16290579D01*
X10752205Y-16290579D02*
X10761729Y-16328674D01*
X10761729Y-16328674D02*
X10761729Y-16376293D01*
X10761729Y-16376293D02*
X10752205Y-16414388D01*
X10752205Y-16414388D02*
X10742682Y-16433436D01*
X10742682Y-16433436D02*
X10733158Y-16442960D01*
X10733158Y-16442960D02*
X10714110Y-16452484D01*
X10714110Y-16452484D02*
X10695063Y-16452484D01*
X10695063Y-16452484D02*
X10676015Y-16442960D01*
X10676015Y-16442960D02*
X10666491Y-16433436D01*
X10666491Y-16433436D02*
X10656967Y-16414388D01*
X10656967Y-16414388D02*
X10647444Y-16376293D01*
X10647444Y-16376293D02*
X10647444Y-16328674D01*
X10647444Y-16328674D02*
X10656967Y-16290579D01*
X10656967Y-16290579D02*
X10666491Y-16271531D01*
X10666491Y-16271531D02*
X10676015Y-16262008D01*
X10676015Y-16262008D02*
X10695063Y-16252484D01*
X10885539Y-16252484D02*
X10904586Y-16252484D01*
X10904586Y-16252484D02*
X10923634Y-16262008D01*
X10923634Y-16262008D02*
X10933158Y-16271531D01*
X10933158Y-16271531D02*
X10942682Y-16290579D01*
X10942682Y-16290579D02*
X10952205Y-16328674D01*
X10952205Y-16328674D02*
X10952205Y-16376293D01*
X10952205Y-16376293D02*
X10942682Y-16414388D01*
X10942682Y-16414388D02*
X10933158Y-16433436D01*
X10933158Y-16433436D02*
X10923634Y-16442960D01*
X10923634Y-16442960D02*
X10904586Y-16452484D01*
X10904586Y-16452484D02*
X10885539Y-16452484D01*
X10885539Y-16452484D02*
X10866491Y-16442960D01*
X10866491Y-16442960D02*
X10856967Y-16433436D01*
X10856967Y-16433436D02*
X10847444Y-16414388D01*
X10847444Y-16414388D02*
X10837920Y-16376293D01*
X10837920Y-16376293D02*
X10837920Y-16328674D01*
X10837920Y-16328674D02*
X10847444Y-16290579D01*
X10847444Y-16290579D02*
X10856967Y-16271531D01*
X10856967Y-16271531D02*
X10866491Y-16262008D01*
X10866491Y-16262008D02*
X10885539Y-16252484D01*
X11037920Y-16452484D02*
X11037920Y-16319150D01*
X11037920Y-16338198D02*
X11047444Y-16328674D01*
X11047444Y-16328674D02*
X11066491Y-16319150D01*
X11066491Y-16319150D02*
X11095063Y-16319150D01*
X11095063Y-16319150D02*
X11114110Y-16328674D01*
X11114110Y-16328674D02*
X11123634Y-16347722D01*
X11123634Y-16347722D02*
X11123634Y-16452484D01*
X11123634Y-16347722D02*
X11133158Y-16328674D01*
X11133158Y-16328674D02*
X11152205Y-16319150D01*
X11152205Y-16319150D02*
X11180777Y-16319150D01*
X11180777Y-16319150D02*
X11199824Y-16328674D01*
X11199824Y-16328674D02*
X11209348Y-16347722D01*
X11209348Y-16347722D02*
X11209348Y-16452484D01*
X11304586Y-16452484D02*
X11304586Y-16319150D01*
X11304586Y-16338198D02*
X11314110Y-16328674D01*
X11314110Y-16328674D02*
X11333158Y-16319150D01*
X11333158Y-16319150D02*
X11361729Y-16319150D01*
X11361729Y-16319150D02*
X11380777Y-16328674D01*
X11380777Y-16328674D02*
X11390301Y-16347722D01*
X11390301Y-16347722D02*
X11390301Y-16452484D01*
X11390301Y-16347722D02*
X11399824Y-16328674D01*
X11399824Y-16328674D02*
X11418872Y-16319150D01*
X11418872Y-16319150D02*
X11447443Y-16319150D01*
X11447443Y-16319150D02*
X11466491Y-16328674D01*
X11466491Y-16328674D02*
X11476015Y-16347722D01*
X11476015Y-16347722D02*
X11476015Y-16452484D01*
X11866491Y-16242960D02*
X11695063Y-16500103D01*
X12123634Y-16252484D02*
X12142682Y-16252484D01*
X12142682Y-16252484D02*
X12161729Y-16262008D01*
X12161729Y-16262008D02*
X12171253Y-16271531D01*
X12171253Y-16271531D02*
X12180777Y-16290579D01*
X12180777Y-16290579D02*
X12190301Y-16328674D01*
X12190301Y-16328674D02*
X12190301Y-16376293D01*
X12190301Y-16376293D02*
X12180777Y-16414388D01*
X12180777Y-16414388D02*
X12171253Y-16433436D01*
X12171253Y-16433436D02*
X12161729Y-16442960D01*
X12161729Y-16442960D02*
X12142682Y-16452484D01*
X12142682Y-16452484D02*
X12123634Y-16452484D01*
X12123634Y-16452484D02*
X12104586Y-16442960D01*
X12104586Y-16442960D02*
X12095063Y-16433436D01*
X12095063Y-16433436D02*
X12085539Y-16414388D01*
X12085539Y-16414388D02*
X12076015Y-16376293D01*
X12076015Y-16376293D02*
X12076015Y-16328674D01*
X12076015Y-16328674D02*
X12085539Y-16290579D01*
X12085539Y-16290579D02*
X12095063Y-16271531D01*
X12095063Y-16271531D02*
X12104586Y-16262008D01*
X12104586Y-16262008D02*
X12123634Y-16252484D01*
X12276015Y-16433436D02*
X12285539Y-16442960D01*
X12285539Y-16442960D02*
X12276015Y-16452484D01*
X12276015Y-16452484D02*
X12266491Y-16442960D01*
X12266491Y-16442960D02*
X12276015Y-16433436D01*
X12276015Y-16433436D02*
X12276015Y-16452484D01*
X12409348Y-16252484D02*
X12428396Y-16252484D01*
X12428396Y-16252484D02*
X12447444Y-16262008D01*
X12447444Y-16262008D02*
X12456967Y-16271531D01*
X12456967Y-16271531D02*
X12466491Y-16290579D01*
X12466491Y-16290579D02*
X12476015Y-16328674D01*
X12476015Y-16328674D02*
X12476015Y-16376293D01*
X12476015Y-16376293D02*
X12466491Y-16414388D01*
X12466491Y-16414388D02*
X12456967Y-16433436D01*
X12456967Y-16433436D02*
X12447444Y-16442960D01*
X12447444Y-16442960D02*
X12428396Y-16452484D01*
X12428396Y-16452484D02*
X12409348Y-16452484D01*
X12409348Y-16452484D02*
X12390301Y-16442960D01*
X12390301Y-16442960D02*
X12380777Y-16433436D01*
X12380777Y-16433436D02*
X12371253Y-16414388D01*
X12371253Y-16414388D02*
X12361729Y-16376293D01*
X12361729Y-16376293D02*
X12361729Y-16328674D01*
X12361729Y-16328674D02*
X12371253Y-16290579D01*
X12371253Y-16290579D02*
X12380777Y-16271531D01*
X12380777Y-16271531D02*
X12390301Y-16262008D01*
X12390301Y-16262008D02*
X12409348Y-16252484D01*
X12542682Y-16252484D02*
X12666491Y-16252484D01*
X12666491Y-16252484D02*
X12599825Y-16328674D01*
X12599825Y-16328674D02*
X12628396Y-16328674D01*
X12628396Y-16328674D02*
X12647444Y-16338198D01*
X12647444Y-16338198D02*
X12656967Y-16347722D01*
X12656967Y-16347722D02*
X12666491Y-16366769D01*
X12666491Y-16366769D02*
X12666491Y-16414388D01*
X12666491Y-16414388D02*
X12656967Y-16433436D01*
X12656967Y-16433436D02*
X12647444Y-16442960D01*
X12647444Y-16442960D02*
X12628396Y-16452484D01*
X12628396Y-16452484D02*
X12571253Y-16452484D01*
X12571253Y-16452484D02*
X12552206Y-16442960D01*
X12552206Y-16442960D02*
X12542682Y-16433436D01*
X12847444Y-16252484D02*
X12752206Y-16252484D01*
X12752206Y-16252484D02*
X12742682Y-16347722D01*
X12742682Y-16347722D02*
X12752206Y-16338198D01*
X12752206Y-16338198D02*
X12771253Y-16328674D01*
X12771253Y-16328674D02*
X12818872Y-16328674D01*
X12818872Y-16328674D02*
X12837920Y-16338198D01*
X12837920Y-16338198D02*
X12847444Y-16347722D01*
X12847444Y-16347722D02*
X12856967Y-16366769D01*
X12856967Y-16366769D02*
X12856967Y-16414388D01*
X12856967Y-16414388D02*
X12847444Y-16433436D01*
X12847444Y-16433436D02*
X12837920Y-16442960D01*
X12837920Y-16442960D02*
X12818872Y-16452484D01*
X12818872Y-16452484D02*
X12771253Y-16452484D01*
X12771253Y-16452484D02*
X12752206Y-16442960D01*
X12752206Y-16442960D02*
X12742682Y-16433436D01*
X13028396Y-16319150D02*
X13028396Y-16452484D01*
X12980777Y-16242960D02*
X12933158Y-16385817D01*
X12933158Y-16385817D02*
X13056967Y-16385817D01*
X13123634Y-16252484D02*
X13123634Y-16290579D01*
X13199825Y-16252484D02*
X13199825Y-16290579D01*
X13495063Y-16528674D02*
X13485539Y-16519150D01*
X13485539Y-16519150D02*
X13466491Y-16490579D01*
X13466491Y-16490579D02*
X13456968Y-16471531D01*
X13456968Y-16471531D02*
X13447444Y-16442960D01*
X13447444Y-16442960D02*
X13437920Y-16395341D01*
X13437920Y-16395341D02*
X13437920Y-16357246D01*
X13437920Y-16357246D02*
X13447444Y-16309627D01*
X13447444Y-16309627D02*
X13456968Y-16281055D01*
X13456968Y-16281055D02*
X13466491Y-16262008D01*
X13466491Y-16262008D02*
X13485539Y-16233436D01*
X13485539Y-16233436D02*
X13495063Y-16223912D01*
X13656968Y-16319150D02*
X13656968Y-16452484D01*
X13609348Y-16242960D02*
X13561729Y-16385817D01*
X13561729Y-16385817D02*
X13685539Y-16385817D01*
X13914110Y-16452484D02*
X13914110Y-16252484D01*
X13999825Y-16452484D02*
X13999825Y-16347722D01*
X13999825Y-16347722D02*
X13990301Y-16328674D01*
X13990301Y-16328674D02*
X13971253Y-16319150D01*
X13971253Y-16319150D02*
X13942682Y-16319150D01*
X13942682Y-16319150D02*
X13923634Y-16328674D01*
X13923634Y-16328674D02*
X13914110Y-16338198D01*
X14123634Y-16452484D02*
X14104587Y-16442960D01*
X14104587Y-16442960D02*
X14095063Y-16433436D01*
X14095063Y-16433436D02*
X14085539Y-16414388D01*
X14085539Y-16414388D02*
X14085539Y-16357246D01*
X14085539Y-16357246D02*
X14095063Y-16338198D01*
X14095063Y-16338198D02*
X14104587Y-16328674D01*
X14104587Y-16328674D02*
X14123634Y-16319150D01*
X14123634Y-16319150D02*
X14152206Y-16319150D01*
X14152206Y-16319150D02*
X14171253Y-16328674D01*
X14171253Y-16328674D02*
X14180777Y-16338198D01*
X14180777Y-16338198D02*
X14190301Y-16357246D01*
X14190301Y-16357246D02*
X14190301Y-16414388D01*
X14190301Y-16414388D02*
X14180777Y-16433436D01*
X14180777Y-16433436D02*
X14171253Y-16442960D01*
X14171253Y-16442960D02*
X14152206Y-16452484D01*
X14152206Y-16452484D02*
X14123634Y-16452484D01*
X14304587Y-16452484D02*
X14285539Y-16442960D01*
X14285539Y-16442960D02*
X14276015Y-16423912D01*
X14276015Y-16423912D02*
X14276015Y-16252484D01*
X14456968Y-16442960D02*
X14437920Y-16452484D01*
X14437920Y-16452484D02*
X14399825Y-16452484D01*
X14399825Y-16452484D02*
X14380777Y-16442960D01*
X14380777Y-16442960D02*
X14371253Y-16423912D01*
X14371253Y-16423912D02*
X14371253Y-16347722D01*
X14371253Y-16347722D02*
X14380777Y-16328674D01*
X14380777Y-16328674D02*
X14399825Y-16319150D01*
X14399825Y-16319150D02*
X14437920Y-16319150D01*
X14437920Y-16319150D02*
X14456968Y-16328674D01*
X14456968Y-16328674D02*
X14466491Y-16347722D01*
X14466491Y-16347722D02*
X14466491Y-16366769D01*
X14466491Y-16366769D02*
X14371253Y-16385817D01*
X14542682Y-16442960D02*
X14561730Y-16452484D01*
X14561730Y-16452484D02*
X14599825Y-16452484D01*
X14599825Y-16452484D02*
X14618872Y-16442960D01*
X14618872Y-16442960D02*
X14628396Y-16423912D01*
X14628396Y-16423912D02*
X14628396Y-16414388D01*
X14628396Y-16414388D02*
X14618872Y-16395341D01*
X14618872Y-16395341D02*
X14599825Y-16385817D01*
X14599825Y-16385817D02*
X14571253Y-16385817D01*
X14571253Y-16385817D02*
X14552206Y-16376293D01*
X14552206Y-16376293D02*
X14542682Y-16357246D01*
X14542682Y-16357246D02*
X14542682Y-16347722D01*
X14542682Y-16347722D02*
X14552206Y-16328674D01*
X14552206Y-16328674D02*
X14571253Y-16319150D01*
X14571253Y-16319150D02*
X14599825Y-16319150D01*
X14599825Y-16319150D02*
X14618872Y-16328674D01*
X14695063Y-16528674D02*
X14704587Y-16519150D01*
X14704587Y-16519150D02*
X14723634Y-16490579D01*
X14723634Y-16490579D02*
X14733158Y-16471531D01*
X14733158Y-16471531D02*
X14742682Y-16442960D01*
X14742682Y-16442960D02*
X14752206Y-16395341D01*
X14752206Y-16395341D02*
X14752206Y-16357246D01*
X14752206Y-16357246D02*
X14742682Y-16309627D01*
X14742682Y-16309627D02*
X14733158Y-16281055D01*
X14733158Y-16281055D02*
X14723634Y-16262008D01*
X14723634Y-16262008D02*
X14704587Y-16233436D01*
X14704587Y-16233436D02*
X14695063Y-16223912D01*
D10*
X9820000Y-16575000D02*
X9920000Y-16675000D01*
X9920000Y-16575000D02*
X9820000Y-16675000D01*
X9920000Y-16625000D02*
G75*
G02*
X9820000Y-16625000I-50000J0D01*
G01*
X9820000Y-16625000D02*
G75*
G02*
X9920000Y-16625000I50000J0D01*
G01*
D11*
X10285539Y-16716484D02*
X10171253Y-16716484D01*
X10228396Y-16716484D02*
X10228396Y-16516484D01*
X10228396Y-16516484D02*
X10209348Y-16545055D01*
X10209348Y-16545055D02*
X10190301Y-16564103D01*
X10190301Y-16564103D02*
X10171253Y-16573627D01*
X10371253Y-16697436D02*
X10380777Y-16706960D01*
X10380777Y-16706960D02*
X10371253Y-16716484D01*
X10371253Y-16716484D02*
X10361729Y-16706960D01*
X10361729Y-16706960D02*
X10371253Y-16697436D01*
X10371253Y-16697436D02*
X10371253Y-16716484D01*
X10504586Y-16516484D02*
X10523634Y-16516484D01*
X10523634Y-16516484D02*
X10542682Y-16526008D01*
X10542682Y-16526008D02*
X10552205Y-16535531D01*
X10552205Y-16535531D02*
X10561729Y-16554579D01*
X10561729Y-16554579D02*
X10571253Y-16592674D01*
X10571253Y-16592674D02*
X10571253Y-16640293D01*
X10571253Y-16640293D02*
X10561729Y-16678388D01*
X10561729Y-16678388D02*
X10552205Y-16697436D01*
X10552205Y-16697436D02*
X10542682Y-16706960D01*
X10542682Y-16706960D02*
X10523634Y-16716484D01*
X10523634Y-16716484D02*
X10504586Y-16716484D01*
X10504586Y-16716484D02*
X10485539Y-16706960D01*
X10485539Y-16706960D02*
X10476015Y-16697436D01*
X10476015Y-16697436D02*
X10466491Y-16678388D01*
X10466491Y-16678388D02*
X10456967Y-16640293D01*
X10456967Y-16640293D02*
X10456967Y-16592674D01*
X10456967Y-16592674D02*
X10466491Y-16554579D01*
X10466491Y-16554579D02*
X10476015Y-16535531D01*
X10476015Y-16535531D02*
X10485539Y-16526008D01*
X10485539Y-16526008D02*
X10504586Y-16516484D01*
X10695063Y-16516484D02*
X10714110Y-16516484D01*
X10714110Y-16516484D02*
X10733158Y-16526008D01*
X10733158Y-16526008D02*
X10742682Y-16535531D01*
X10742682Y-16535531D02*
X10752205Y-16554579D01*
X10752205Y-16554579D02*
X10761729Y-16592674D01*
X10761729Y-16592674D02*
X10761729Y-16640293D01*
X10761729Y-16640293D02*
X10752205Y-16678388D01*
X10752205Y-16678388D02*
X10742682Y-16697436D01*
X10742682Y-16697436D02*
X10733158Y-16706960D01*
X10733158Y-16706960D02*
X10714110Y-16716484D01*
X10714110Y-16716484D02*
X10695063Y-16716484D01*
X10695063Y-16716484D02*
X10676015Y-16706960D01*
X10676015Y-16706960D02*
X10666491Y-16697436D01*
X10666491Y-16697436D02*
X10656967Y-16678388D01*
X10656967Y-16678388D02*
X10647444Y-16640293D01*
X10647444Y-16640293D02*
X10647444Y-16592674D01*
X10647444Y-16592674D02*
X10656967Y-16554579D01*
X10656967Y-16554579D02*
X10666491Y-16535531D01*
X10666491Y-16535531D02*
X10676015Y-16526008D01*
X10676015Y-16526008D02*
X10695063Y-16516484D01*
X10885539Y-16516484D02*
X10904586Y-16516484D01*
X10904586Y-16516484D02*
X10923634Y-16526008D01*
X10923634Y-16526008D02*
X10933158Y-16535531D01*
X10933158Y-16535531D02*
X10942682Y-16554579D01*
X10942682Y-16554579D02*
X10952205Y-16592674D01*
X10952205Y-16592674D02*
X10952205Y-16640293D01*
X10952205Y-16640293D02*
X10942682Y-16678388D01*
X10942682Y-16678388D02*
X10933158Y-16697436D01*
X10933158Y-16697436D02*
X10923634Y-16706960D01*
X10923634Y-16706960D02*
X10904586Y-16716484D01*
X10904586Y-16716484D02*
X10885539Y-16716484D01*
X10885539Y-16716484D02*
X10866491Y-16706960D01*
X10866491Y-16706960D02*
X10856967Y-16697436D01*
X10856967Y-16697436D02*
X10847444Y-16678388D01*
X10847444Y-16678388D02*
X10837920Y-16640293D01*
X10837920Y-16640293D02*
X10837920Y-16592674D01*
X10837920Y-16592674D02*
X10847444Y-16554579D01*
X10847444Y-16554579D02*
X10856967Y-16535531D01*
X10856967Y-16535531D02*
X10866491Y-16526008D01*
X10866491Y-16526008D02*
X10885539Y-16516484D01*
X11037920Y-16716484D02*
X11037920Y-16583150D01*
X11037920Y-16602198D02*
X11047444Y-16592674D01*
X11047444Y-16592674D02*
X11066491Y-16583150D01*
X11066491Y-16583150D02*
X11095063Y-16583150D01*
X11095063Y-16583150D02*
X11114110Y-16592674D01*
X11114110Y-16592674D02*
X11123634Y-16611722D01*
X11123634Y-16611722D02*
X11123634Y-16716484D01*
X11123634Y-16611722D02*
X11133158Y-16592674D01*
X11133158Y-16592674D02*
X11152205Y-16583150D01*
X11152205Y-16583150D02*
X11180777Y-16583150D01*
X11180777Y-16583150D02*
X11199824Y-16592674D01*
X11199824Y-16592674D02*
X11209348Y-16611722D01*
X11209348Y-16611722D02*
X11209348Y-16716484D01*
X11304586Y-16716484D02*
X11304586Y-16583150D01*
X11304586Y-16602198D02*
X11314110Y-16592674D01*
X11314110Y-16592674D02*
X11333158Y-16583150D01*
X11333158Y-16583150D02*
X11361729Y-16583150D01*
X11361729Y-16583150D02*
X11380777Y-16592674D01*
X11380777Y-16592674D02*
X11390301Y-16611722D01*
X11390301Y-16611722D02*
X11390301Y-16716484D01*
X11390301Y-16611722D02*
X11399824Y-16592674D01*
X11399824Y-16592674D02*
X11418872Y-16583150D01*
X11418872Y-16583150D02*
X11447443Y-16583150D01*
X11447443Y-16583150D02*
X11466491Y-16592674D01*
X11466491Y-16592674D02*
X11476015Y-16611722D01*
X11476015Y-16611722D02*
X11476015Y-16716484D01*
X11866491Y-16506960D02*
X11695063Y-16764103D01*
X12123634Y-16516484D02*
X12142682Y-16516484D01*
X12142682Y-16516484D02*
X12161729Y-16526008D01*
X12161729Y-16526008D02*
X12171253Y-16535531D01*
X12171253Y-16535531D02*
X12180777Y-16554579D01*
X12180777Y-16554579D02*
X12190301Y-16592674D01*
X12190301Y-16592674D02*
X12190301Y-16640293D01*
X12190301Y-16640293D02*
X12180777Y-16678388D01*
X12180777Y-16678388D02*
X12171253Y-16697436D01*
X12171253Y-16697436D02*
X12161729Y-16706960D01*
X12161729Y-16706960D02*
X12142682Y-16716484D01*
X12142682Y-16716484D02*
X12123634Y-16716484D01*
X12123634Y-16716484D02*
X12104586Y-16706960D01*
X12104586Y-16706960D02*
X12095063Y-16697436D01*
X12095063Y-16697436D02*
X12085539Y-16678388D01*
X12085539Y-16678388D02*
X12076015Y-16640293D01*
X12076015Y-16640293D02*
X12076015Y-16592674D01*
X12076015Y-16592674D02*
X12085539Y-16554579D01*
X12085539Y-16554579D02*
X12095063Y-16535531D01*
X12095063Y-16535531D02*
X12104586Y-16526008D01*
X12104586Y-16526008D02*
X12123634Y-16516484D01*
X12276015Y-16697436D02*
X12285539Y-16706960D01*
X12285539Y-16706960D02*
X12276015Y-16716484D01*
X12276015Y-16716484D02*
X12266491Y-16706960D01*
X12266491Y-16706960D02*
X12276015Y-16697436D01*
X12276015Y-16697436D02*
X12276015Y-16716484D01*
X12409348Y-16516484D02*
X12428396Y-16516484D01*
X12428396Y-16516484D02*
X12447444Y-16526008D01*
X12447444Y-16526008D02*
X12456967Y-16535531D01*
X12456967Y-16535531D02*
X12466491Y-16554579D01*
X12466491Y-16554579D02*
X12476015Y-16592674D01*
X12476015Y-16592674D02*
X12476015Y-16640293D01*
X12476015Y-16640293D02*
X12466491Y-16678388D01*
X12466491Y-16678388D02*
X12456967Y-16697436D01*
X12456967Y-16697436D02*
X12447444Y-16706960D01*
X12447444Y-16706960D02*
X12428396Y-16716484D01*
X12428396Y-16716484D02*
X12409348Y-16716484D01*
X12409348Y-16716484D02*
X12390301Y-16706960D01*
X12390301Y-16706960D02*
X12380777Y-16697436D01*
X12380777Y-16697436D02*
X12371253Y-16678388D01*
X12371253Y-16678388D02*
X12361729Y-16640293D01*
X12361729Y-16640293D02*
X12361729Y-16592674D01*
X12361729Y-16592674D02*
X12371253Y-16554579D01*
X12371253Y-16554579D02*
X12380777Y-16535531D01*
X12380777Y-16535531D02*
X12390301Y-16526008D01*
X12390301Y-16526008D02*
X12409348Y-16516484D01*
X12542682Y-16516484D02*
X12666491Y-16516484D01*
X12666491Y-16516484D02*
X12599825Y-16592674D01*
X12599825Y-16592674D02*
X12628396Y-16592674D01*
X12628396Y-16592674D02*
X12647444Y-16602198D01*
X12647444Y-16602198D02*
X12656967Y-16611722D01*
X12656967Y-16611722D02*
X12666491Y-16630769D01*
X12666491Y-16630769D02*
X12666491Y-16678388D01*
X12666491Y-16678388D02*
X12656967Y-16697436D01*
X12656967Y-16697436D02*
X12647444Y-16706960D01*
X12647444Y-16706960D02*
X12628396Y-16716484D01*
X12628396Y-16716484D02*
X12571253Y-16716484D01*
X12571253Y-16716484D02*
X12552206Y-16706960D01*
X12552206Y-16706960D02*
X12542682Y-16697436D01*
X12761729Y-16716484D02*
X12799825Y-16716484D01*
X12799825Y-16716484D02*
X12818872Y-16706960D01*
X12818872Y-16706960D02*
X12828396Y-16697436D01*
X12828396Y-16697436D02*
X12847444Y-16668865D01*
X12847444Y-16668865D02*
X12856967Y-16630769D01*
X12856967Y-16630769D02*
X12856967Y-16554579D01*
X12856967Y-16554579D02*
X12847444Y-16535531D01*
X12847444Y-16535531D02*
X12837920Y-16526008D01*
X12837920Y-16526008D02*
X12818872Y-16516484D01*
X12818872Y-16516484D02*
X12780777Y-16516484D01*
X12780777Y-16516484D02*
X12761729Y-16526008D01*
X12761729Y-16526008D02*
X12752206Y-16535531D01*
X12752206Y-16535531D02*
X12742682Y-16554579D01*
X12742682Y-16554579D02*
X12742682Y-16602198D01*
X12742682Y-16602198D02*
X12752206Y-16621246D01*
X12752206Y-16621246D02*
X12761729Y-16630769D01*
X12761729Y-16630769D02*
X12780777Y-16640293D01*
X12780777Y-16640293D02*
X12818872Y-16640293D01*
X12818872Y-16640293D02*
X12837920Y-16630769D01*
X12837920Y-16630769D02*
X12847444Y-16621246D01*
X12847444Y-16621246D02*
X12856967Y-16602198D01*
X13028396Y-16583150D02*
X13028396Y-16716484D01*
X12980777Y-16506960D02*
X12933158Y-16649817D01*
X12933158Y-16649817D02*
X13056967Y-16649817D01*
X13123634Y-16516484D02*
X13123634Y-16554579D01*
X13199825Y-16516484D02*
X13199825Y-16554579D01*
X13495063Y-16792674D02*
X13485539Y-16783150D01*
X13485539Y-16783150D02*
X13466491Y-16754579D01*
X13466491Y-16754579D02*
X13456968Y-16735531D01*
X13456968Y-16735531D02*
X13447444Y-16706960D01*
X13447444Y-16706960D02*
X13437920Y-16659341D01*
X13437920Y-16659341D02*
X13437920Y-16621246D01*
X13437920Y-16621246D02*
X13447444Y-16573627D01*
X13447444Y-16573627D02*
X13456968Y-16545055D01*
X13456968Y-16545055D02*
X13466491Y-16526008D01*
X13466491Y-16526008D02*
X13485539Y-16497436D01*
X13485539Y-16497436D02*
X13495063Y-16487912D01*
X13676015Y-16716484D02*
X13561729Y-16716484D01*
X13618872Y-16716484D02*
X13618872Y-16516484D01*
X13618872Y-16516484D02*
X13599825Y-16545055D01*
X13599825Y-16545055D02*
X13580777Y-16564103D01*
X13580777Y-16564103D02*
X13561729Y-16573627D01*
X13914110Y-16716484D02*
X13914110Y-16516484D01*
X13999825Y-16716484D02*
X13999825Y-16611722D01*
X13999825Y-16611722D02*
X13990301Y-16592674D01*
X13990301Y-16592674D02*
X13971253Y-16583150D01*
X13971253Y-16583150D02*
X13942682Y-16583150D01*
X13942682Y-16583150D02*
X13923634Y-16592674D01*
X13923634Y-16592674D02*
X13914110Y-16602198D01*
X14123634Y-16716484D02*
X14104587Y-16706960D01*
X14104587Y-16706960D02*
X14095063Y-16697436D01*
X14095063Y-16697436D02*
X14085539Y-16678388D01*
X14085539Y-16678388D02*
X14085539Y-16621246D01*
X14085539Y-16621246D02*
X14095063Y-16602198D01*
X14095063Y-16602198D02*
X14104587Y-16592674D01*
X14104587Y-16592674D02*
X14123634Y-16583150D01*
X14123634Y-16583150D02*
X14152206Y-16583150D01*
X14152206Y-16583150D02*
X14171253Y-16592674D01*
X14171253Y-16592674D02*
X14180777Y-16602198D01*
X14180777Y-16602198D02*
X14190301Y-16621246D01*
X14190301Y-16621246D02*
X14190301Y-16678388D01*
X14190301Y-16678388D02*
X14180777Y-16697436D01*
X14180777Y-16697436D02*
X14171253Y-16706960D01*
X14171253Y-16706960D02*
X14152206Y-16716484D01*
X14152206Y-16716484D02*
X14123634Y-16716484D01*
X14304587Y-16716484D02*
X14285539Y-16706960D01*
X14285539Y-16706960D02*
X14276015Y-16687912D01*
X14276015Y-16687912D02*
X14276015Y-16516484D01*
X14456968Y-16706960D02*
X14437920Y-16716484D01*
X14437920Y-16716484D02*
X14399825Y-16716484D01*
X14399825Y-16716484D02*
X14380777Y-16706960D01*
X14380777Y-16706960D02*
X14371253Y-16687912D01*
X14371253Y-16687912D02*
X14371253Y-16611722D01*
X14371253Y-16611722D02*
X14380777Y-16592674D01*
X14380777Y-16592674D02*
X14399825Y-16583150D01*
X14399825Y-16583150D02*
X14437920Y-16583150D01*
X14437920Y-16583150D02*
X14456968Y-16592674D01*
X14456968Y-16592674D02*
X14466491Y-16611722D01*
X14466491Y-16611722D02*
X14466491Y-16630769D01*
X14466491Y-16630769D02*
X14371253Y-16649817D01*
X14533158Y-16792674D02*
X14542682Y-16783150D01*
X14542682Y-16783150D02*
X14561730Y-16754579D01*
X14561730Y-16754579D02*
X14571253Y-16735531D01*
X14571253Y-16735531D02*
X14580777Y-16706960D01*
X14580777Y-16706960D02*
X14590301Y-16659341D01*
X14590301Y-16659341D02*
X14590301Y-16621246D01*
X14590301Y-16621246D02*
X14580777Y-16573627D01*
X14580777Y-16573627D02*
X14571253Y-16545055D01*
X14571253Y-16545055D02*
X14561730Y-16526008D01*
X14561730Y-16526008D02*
X14542682Y-16497436D01*
X14542682Y-16497436D02*
X14533158Y-16487912D01*
D10*
X9849998Y-16853999D02*
X9920000Y-16924001D01*
X9920000Y-16853999D02*
X9849998Y-16924001D01*
X9884999Y-16853999D02*
X9884999Y-16924001D01*
X9849998Y-16889000D02*
X9920000Y-16889000D01*
D11*
X10218872Y-16780484D02*
X10237920Y-16780484D01*
X10237920Y-16780484D02*
X10256967Y-16790008D01*
X10256967Y-16790008D02*
X10266491Y-16799531D01*
X10266491Y-16799531D02*
X10276015Y-16818579D01*
X10276015Y-16818579D02*
X10285539Y-16856674D01*
X10285539Y-16856674D02*
X10285539Y-16904293D01*
X10285539Y-16904293D02*
X10276015Y-16942389D01*
X10276015Y-16942389D02*
X10266491Y-16961436D01*
X10266491Y-16961436D02*
X10256967Y-16970960D01*
X10256967Y-16970960D02*
X10237920Y-16980484D01*
X10237920Y-16980484D02*
X10218872Y-16980484D01*
X10218872Y-16980484D02*
X10199824Y-16970960D01*
X10199824Y-16970960D02*
X10190301Y-16961436D01*
X10190301Y-16961436D02*
X10180777Y-16942389D01*
X10180777Y-16942389D02*
X10171253Y-16904293D01*
X10171253Y-16904293D02*
X10171253Y-16856674D01*
X10171253Y-16856674D02*
X10180777Y-16818579D01*
X10180777Y-16818579D02*
X10190301Y-16799531D01*
X10190301Y-16799531D02*
X10199824Y-16790008D01*
X10199824Y-16790008D02*
X10218872Y-16780484D01*
X10371253Y-16961436D02*
X10380777Y-16970960D01*
X10380777Y-16970960D02*
X10371253Y-16980484D01*
X10371253Y-16980484D02*
X10361729Y-16970960D01*
X10361729Y-16970960D02*
X10371253Y-16961436D01*
X10371253Y-16961436D02*
X10371253Y-16980484D01*
X10447444Y-16780484D02*
X10580777Y-16780484D01*
X10580777Y-16780484D02*
X10495063Y-16980484D01*
X10695063Y-16780484D02*
X10714110Y-16780484D01*
X10714110Y-16780484D02*
X10733158Y-16790008D01*
X10733158Y-16790008D02*
X10742682Y-16799531D01*
X10742682Y-16799531D02*
X10752205Y-16818579D01*
X10752205Y-16818579D02*
X10761729Y-16856674D01*
X10761729Y-16856674D02*
X10761729Y-16904293D01*
X10761729Y-16904293D02*
X10752205Y-16942389D01*
X10752205Y-16942389D02*
X10742682Y-16961436D01*
X10742682Y-16961436D02*
X10733158Y-16970960D01*
X10733158Y-16970960D02*
X10714110Y-16980484D01*
X10714110Y-16980484D02*
X10695063Y-16980484D01*
X10695063Y-16980484D02*
X10676015Y-16970960D01*
X10676015Y-16970960D02*
X10666491Y-16961436D01*
X10666491Y-16961436D02*
X10656967Y-16942389D01*
X10656967Y-16942389D02*
X10647444Y-16904293D01*
X10647444Y-16904293D02*
X10647444Y-16856674D01*
X10647444Y-16856674D02*
X10656967Y-16818579D01*
X10656967Y-16818579D02*
X10666491Y-16799531D01*
X10666491Y-16799531D02*
X10676015Y-16790008D01*
X10676015Y-16790008D02*
X10695063Y-16780484D01*
X10885539Y-16780484D02*
X10904586Y-16780484D01*
X10904586Y-16780484D02*
X10923634Y-16790008D01*
X10923634Y-16790008D02*
X10933158Y-16799531D01*
X10933158Y-16799531D02*
X10942682Y-16818579D01*
X10942682Y-16818579D02*
X10952205Y-16856674D01*
X10952205Y-16856674D02*
X10952205Y-16904293D01*
X10952205Y-16904293D02*
X10942682Y-16942389D01*
X10942682Y-16942389D02*
X10933158Y-16961436D01*
X10933158Y-16961436D02*
X10923634Y-16970960D01*
X10923634Y-16970960D02*
X10904586Y-16980484D01*
X10904586Y-16980484D02*
X10885539Y-16980484D01*
X10885539Y-16980484D02*
X10866491Y-16970960D01*
X10866491Y-16970960D02*
X10856967Y-16961436D01*
X10856967Y-16961436D02*
X10847444Y-16942389D01*
X10847444Y-16942389D02*
X10837920Y-16904293D01*
X10837920Y-16904293D02*
X10837920Y-16856674D01*
X10837920Y-16856674D02*
X10847444Y-16818579D01*
X10847444Y-16818579D02*
X10856967Y-16799531D01*
X10856967Y-16799531D02*
X10866491Y-16790008D01*
X10866491Y-16790008D02*
X10885539Y-16780484D01*
X11037920Y-16980484D02*
X11037920Y-16847150D01*
X11037920Y-16866198D02*
X11047444Y-16856674D01*
X11047444Y-16856674D02*
X11066491Y-16847150D01*
X11066491Y-16847150D02*
X11095063Y-16847150D01*
X11095063Y-16847150D02*
X11114110Y-16856674D01*
X11114110Y-16856674D02*
X11123634Y-16875722D01*
X11123634Y-16875722D02*
X11123634Y-16980484D01*
X11123634Y-16875722D02*
X11133158Y-16856674D01*
X11133158Y-16856674D02*
X11152205Y-16847150D01*
X11152205Y-16847150D02*
X11180777Y-16847150D01*
X11180777Y-16847150D02*
X11199824Y-16856674D01*
X11199824Y-16856674D02*
X11209348Y-16875722D01*
X11209348Y-16875722D02*
X11209348Y-16980484D01*
X11304586Y-16980484D02*
X11304586Y-16847150D01*
X11304586Y-16866198D02*
X11314110Y-16856674D01*
X11314110Y-16856674D02*
X11333158Y-16847150D01*
X11333158Y-16847150D02*
X11361729Y-16847150D01*
X11361729Y-16847150D02*
X11380777Y-16856674D01*
X11380777Y-16856674D02*
X11390301Y-16875722D01*
X11390301Y-16875722D02*
X11390301Y-16980484D01*
X11390301Y-16875722D02*
X11399824Y-16856674D01*
X11399824Y-16856674D02*
X11418872Y-16847150D01*
X11418872Y-16847150D02*
X11447443Y-16847150D01*
X11447443Y-16847150D02*
X11466491Y-16856674D01*
X11466491Y-16856674D02*
X11476015Y-16875722D01*
X11476015Y-16875722D02*
X11476015Y-16980484D01*
X11866491Y-16770960D02*
X11695063Y-17028103D01*
X12123634Y-16780484D02*
X12142682Y-16780484D01*
X12142682Y-16780484D02*
X12161729Y-16790008D01*
X12161729Y-16790008D02*
X12171253Y-16799531D01*
X12171253Y-16799531D02*
X12180777Y-16818579D01*
X12180777Y-16818579D02*
X12190301Y-16856674D01*
X12190301Y-16856674D02*
X12190301Y-16904293D01*
X12190301Y-16904293D02*
X12180777Y-16942389D01*
X12180777Y-16942389D02*
X12171253Y-16961436D01*
X12171253Y-16961436D02*
X12161729Y-16970960D01*
X12161729Y-16970960D02*
X12142682Y-16980484D01*
X12142682Y-16980484D02*
X12123634Y-16980484D01*
X12123634Y-16980484D02*
X12104586Y-16970960D01*
X12104586Y-16970960D02*
X12095063Y-16961436D01*
X12095063Y-16961436D02*
X12085539Y-16942389D01*
X12085539Y-16942389D02*
X12076015Y-16904293D01*
X12076015Y-16904293D02*
X12076015Y-16856674D01*
X12076015Y-16856674D02*
X12085539Y-16818579D01*
X12085539Y-16818579D02*
X12095063Y-16799531D01*
X12095063Y-16799531D02*
X12104586Y-16790008D01*
X12104586Y-16790008D02*
X12123634Y-16780484D01*
X12276015Y-16961436D02*
X12285539Y-16970960D01*
X12285539Y-16970960D02*
X12276015Y-16980484D01*
X12276015Y-16980484D02*
X12266491Y-16970960D01*
X12266491Y-16970960D02*
X12276015Y-16961436D01*
X12276015Y-16961436D02*
X12276015Y-16980484D01*
X12409348Y-16780484D02*
X12428396Y-16780484D01*
X12428396Y-16780484D02*
X12447444Y-16790008D01*
X12447444Y-16790008D02*
X12456967Y-16799531D01*
X12456967Y-16799531D02*
X12466491Y-16818579D01*
X12466491Y-16818579D02*
X12476015Y-16856674D01*
X12476015Y-16856674D02*
X12476015Y-16904293D01*
X12476015Y-16904293D02*
X12466491Y-16942389D01*
X12466491Y-16942389D02*
X12456967Y-16961436D01*
X12456967Y-16961436D02*
X12447444Y-16970960D01*
X12447444Y-16970960D02*
X12428396Y-16980484D01*
X12428396Y-16980484D02*
X12409348Y-16980484D01*
X12409348Y-16980484D02*
X12390301Y-16970960D01*
X12390301Y-16970960D02*
X12380777Y-16961436D01*
X12380777Y-16961436D02*
X12371253Y-16942389D01*
X12371253Y-16942389D02*
X12361729Y-16904293D01*
X12361729Y-16904293D02*
X12361729Y-16856674D01*
X12361729Y-16856674D02*
X12371253Y-16818579D01*
X12371253Y-16818579D02*
X12380777Y-16799531D01*
X12380777Y-16799531D02*
X12390301Y-16790008D01*
X12390301Y-16790008D02*
X12409348Y-16780484D01*
X12552206Y-16799531D02*
X12561729Y-16790008D01*
X12561729Y-16790008D02*
X12580777Y-16780484D01*
X12580777Y-16780484D02*
X12628396Y-16780484D01*
X12628396Y-16780484D02*
X12647444Y-16790008D01*
X12647444Y-16790008D02*
X12656967Y-16799531D01*
X12656967Y-16799531D02*
X12666491Y-16818579D01*
X12666491Y-16818579D02*
X12666491Y-16837627D01*
X12666491Y-16837627D02*
X12656967Y-16866198D01*
X12656967Y-16866198D02*
X12542682Y-16980484D01*
X12542682Y-16980484D02*
X12666491Y-16980484D01*
X12733158Y-16780484D02*
X12866491Y-16780484D01*
X12866491Y-16780484D02*
X12780777Y-16980484D01*
X13028396Y-16780484D02*
X12990301Y-16780484D01*
X12990301Y-16780484D02*
X12971253Y-16790008D01*
X12971253Y-16790008D02*
X12961729Y-16799531D01*
X12961729Y-16799531D02*
X12942682Y-16828103D01*
X12942682Y-16828103D02*
X12933158Y-16866198D01*
X12933158Y-16866198D02*
X12933158Y-16942389D01*
X12933158Y-16942389D02*
X12942682Y-16961436D01*
X12942682Y-16961436D02*
X12952206Y-16970960D01*
X12952206Y-16970960D02*
X12971253Y-16980484D01*
X12971253Y-16980484D02*
X13009348Y-16980484D01*
X13009348Y-16980484D02*
X13028396Y-16970960D01*
X13028396Y-16970960D02*
X13037920Y-16961436D01*
X13037920Y-16961436D02*
X13047444Y-16942389D01*
X13047444Y-16942389D02*
X13047444Y-16894770D01*
X13047444Y-16894770D02*
X13037920Y-16875722D01*
X13037920Y-16875722D02*
X13028396Y-16866198D01*
X13028396Y-16866198D02*
X13009348Y-16856674D01*
X13009348Y-16856674D02*
X12971253Y-16856674D01*
X12971253Y-16856674D02*
X12952206Y-16866198D01*
X12952206Y-16866198D02*
X12942682Y-16875722D01*
X12942682Y-16875722D02*
X12933158Y-16894770D01*
X13123634Y-16780484D02*
X13123634Y-16818579D01*
X13199825Y-16780484D02*
X13199825Y-16818579D01*
X13495063Y-17056674D02*
X13485539Y-17047150D01*
X13485539Y-17047150D02*
X13466491Y-17018579D01*
X13466491Y-17018579D02*
X13456968Y-16999531D01*
X13456968Y-16999531D02*
X13447444Y-16970960D01*
X13447444Y-16970960D02*
X13437920Y-16923341D01*
X13437920Y-16923341D02*
X13437920Y-16885246D01*
X13437920Y-16885246D02*
X13447444Y-16837627D01*
X13447444Y-16837627D02*
X13456968Y-16809055D01*
X13456968Y-16809055D02*
X13466491Y-16790008D01*
X13466491Y-16790008D02*
X13485539Y-16761436D01*
X13485539Y-16761436D02*
X13495063Y-16751912D01*
X13561729Y-16799531D02*
X13571253Y-16790008D01*
X13571253Y-16790008D02*
X13590301Y-16780484D01*
X13590301Y-16780484D02*
X13637920Y-16780484D01*
X13637920Y-16780484D02*
X13656968Y-16790008D01*
X13656968Y-16790008D02*
X13666491Y-16799531D01*
X13666491Y-16799531D02*
X13676015Y-16818579D01*
X13676015Y-16818579D02*
X13676015Y-16837627D01*
X13676015Y-16837627D02*
X13666491Y-16866198D01*
X13666491Y-16866198D02*
X13552206Y-16980484D01*
X13552206Y-16980484D02*
X13676015Y-16980484D01*
X13914110Y-16980484D02*
X13914110Y-16780484D01*
X13999825Y-16980484D02*
X13999825Y-16875722D01*
X13999825Y-16875722D02*
X13990301Y-16856674D01*
X13990301Y-16856674D02*
X13971253Y-16847150D01*
X13971253Y-16847150D02*
X13942682Y-16847150D01*
X13942682Y-16847150D02*
X13923634Y-16856674D01*
X13923634Y-16856674D02*
X13914110Y-16866198D01*
X14123634Y-16980484D02*
X14104587Y-16970960D01*
X14104587Y-16970960D02*
X14095063Y-16961436D01*
X14095063Y-16961436D02*
X14085539Y-16942389D01*
X14085539Y-16942389D02*
X14085539Y-16885246D01*
X14085539Y-16885246D02*
X14095063Y-16866198D01*
X14095063Y-16866198D02*
X14104587Y-16856674D01*
X14104587Y-16856674D02*
X14123634Y-16847150D01*
X14123634Y-16847150D02*
X14152206Y-16847150D01*
X14152206Y-16847150D02*
X14171253Y-16856674D01*
X14171253Y-16856674D02*
X14180777Y-16866198D01*
X14180777Y-16866198D02*
X14190301Y-16885246D01*
X14190301Y-16885246D02*
X14190301Y-16942389D01*
X14190301Y-16942389D02*
X14180777Y-16961436D01*
X14180777Y-16961436D02*
X14171253Y-16970960D01*
X14171253Y-16970960D02*
X14152206Y-16980484D01*
X14152206Y-16980484D02*
X14123634Y-16980484D01*
X14304587Y-16980484D02*
X14285539Y-16970960D01*
X14285539Y-16970960D02*
X14276015Y-16951912D01*
X14276015Y-16951912D02*
X14276015Y-16780484D01*
X14456968Y-16970960D02*
X14437920Y-16980484D01*
X14437920Y-16980484D02*
X14399825Y-16980484D01*
X14399825Y-16980484D02*
X14380777Y-16970960D01*
X14380777Y-16970960D02*
X14371253Y-16951912D01*
X14371253Y-16951912D02*
X14371253Y-16875722D01*
X14371253Y-16875722D02*
X14380777Y-16856674D01*
X14380777Y-16856674D02*
X14399825Y-16847150D01*
X14399825Y-16847150D02*
X14437920Y-16847150D01*
X14437920Y-16847150D02*
X14456968Y-16856674D01*
X14456968Y-16856674D02*
X14466491Y-16875722D01*
X14466491Y-16875722D02*
X14466491Y-16894770D01*
X14466491Y-16894770D02*
X14371253Y-16913817D01*
X14542682Y-16970960D02*
X14561730Y-16980484D01*
X14561730Y-16980484D02*
X14599825Y-16980484D01*
X14599825Y-16980484D02*
X14618872Y-16970960D01*
X14618872Y-16970960D02*
X14628396Y-16951912D01*
X14628396Y-16951912D02*
X14628396Y-16942389D01*
X14628396Y-16942389D02*
X14618872Y-16923341D01*
X14618872Y-16923341D02*
X14599825Y-16913817D01*
X14599825Y-16913817D02*
X14571253Y-16913817D01*
X14571253Y-16913817D02*
X14552206Y-16904293D01*
X14552206Y-16904293D02*
X14542682Y-16885246D01*
X14542682Y-16885246D02*
X14542682Y-16875722D01*
X14542682Y-16875722D02*
X14552206Y-16856674D01*
X14552206Y-16856674D02*
X14571253Y-16847150D01*
X14571253Y-16847150D02*
X14599825Y-16847150D01*
X14599825Y-16847150D02*
X14618872Y-16856674D01*
X14695063Y-17056674D02*
X14704587Y-17047150D01*
X14704587Y-17047150D02*
X14723634Y-17018579D01*
X14723634Y-17018579D02*
X14733158Y-16999531D01*
X14733158Y-16999531D02*
X14742682Y-16970960D01*
X14742682Y-16970960D02*
X14752206Y-16923341D01*
X14752206Y-16923341D02*
X14752206Y-16885246D01*
X14752206Y-16885246D02*
X14742682Y-16837627D01*
X14742682Y-16837627D02*
X14733158Y-16809055D01*
X14733158Y-16809055D02*
X14723634Y-16790008D01*
X14723634Y-16790008D02*
X14704587Y-16761436D01*
X14704587Y-16761436D02*
X14695063Y-16751912D01*
X15056968Y-17056674D02*
X15047444Y-17047150D01*
X15047444Y-17047150D02*
X15028396Y-17018579D01*
X15028396Y-17018579D02*
X15018872Y-16999531D01*
X15018872Y-16999531D02*
X15009349Y-16970960D01*
X15009349Y-16970960D02*
X14999825Y-16923341D01*
X14999825Y-16923341D02*
X14999825Y-16885246D01*
X14999825Y-16885246D02*
X15009349Y-16837627D01*
X15009349Y-16837627D02*
X15018872Y-16809055D01*
X15018872Y-16809055D02*
X15028396Y-16790008D01*
X15028396Y-16790008D02*
X15047444Y-16761436D01*
X15047444Y-16761436D02*
X15056968Y-16751912D01*
X15133158Y-16847150D02*
X15133158Y-16980484D01*
X15133158Y-16866198D02*
X15142682Y-16856674D01*
X15142682Y-16856674D02*
X15161730Y-16847150D01*
X15161730Y-16847150D02*
X15190301Y-16847150D01*
X15190301Y-16847150D02*
X15209349Y-16856674D01*
X15209349Y-16856674D02*
X15218872Y-16875722D01*
X15218872Y-16875722D02*
X15218872Y-16980484D01*
X15342682Y-16980484D02*
X15323634Y-16970960D01*
X15323634Y-16970960D02*
X15314111Y-16961436D01*
X15314111Y-16961436D02*
X15304587Y-16942389D01*
X15304587Y-16942389D02*
X15304587Y-16885246D01*
X15304587Y-16885246D02*
X15314111Y-16866198D01*
X15314111Y-16866198D02*
X15323634Y-16856674D01*
X15323634Y-16856674D02*
X15342682Y-16847150D01*
X15342682Y-16847150D02*
X15371253Y-16847150D01*
X15371253Y-16847150D02*
X15390301Y-16856674D01*
X15390301Y-16856674D02*
X15399825Y-16866198D01*
X15399825Y-16866198D02*
X15409349Y-16885246D01*
X15409349Y-16885246D02*
X15409349Y-16942389D01*
X15409349Y-16942389D02*
X15399825Y-16961436D01*
X15399825Y-16961436D02*
X15390301Y-16970960D01*
X15390301Y-16970960D02*
X15371253Y-16980484D01*
X15371253Y-16980484D02*
X15342682Y-16980484D01*
X15466492Y-16847150D02*
X15542682Y-16847150D01*
X15495063Y-16780484D02*
X15495063Y-16951912D01*
X15495063Y-16951912D02*
X15504587Y-16970960D01*
X15504587Y-16970960D02*
X15523634Y-16980484D01*
X15523634Y-16980484D02*
X15542682Y-16980484D01*
X15761730Y-16847150D02*
X15761730Y-17047150D01*
X15761730Y-16856674D02*
X15780777Y-16847150D01*
X15780777Y-16847150D02*
X15818873Y-16847150D01*
X15818873Y-16847150D02*
X15837920Y-16856674D01*
X15837920Y-16856674D02*
X15847444Y-16866198D01*
X15847444Y-16866198D02*
X15856968Y-16885246D01*
X15856968Y-16885246D02*
X15856968Y-16942389D01*
X15856968Y-16942389D02*
X15847444Y-16961436D01*
X15847444Y-16961436D02*
X15837920Y-16970960D01*
X15837920Y-16970960D02*
X15818873Y-16980484D01*
X15818873Y-16980484D02*
X15780777Y-16980484D01*
X15780777Y-16980484D02*
X15761730Y-16970960D01*
X15971253Y-16980484D02*
X15952206Y-16970960D01*
X15952206Y-16970960D02*
X15942682Y-16951912D01*
X15942682Y-16951912D02*
X15942682Y-16780484D01*
X16133158Y-16980484D02*
X16133158Y-16875722D01*
X16133158Y-16875722D02*
X16123634Y-16856674D01*
X16123634Y-16856674D02*
X16104587Y-16847150D01*
X16104587Y-16847150D02*
X16066492Y-16847150D01*
X16066492Y-16847150D02*
X16047444Y-16856674D01*
X16133158Y-16970960D02*
X16114111Y-16980484D01*
X16114111Y-16980484D02*
X16066492Y-16980484D01*
X16066492Y-16980484D02*
X16047444Y-16970960D01*
X16047444Y-16970960D02*
X16037920Y-16951912D01*
X16037920Y-16951912D02*
X16037920Y-16932865D01*
X16037920Y-16932865D02*
X16047444Y-16913817D01*
X16047444Y-16913817D02*
X16066492Y-16904293D01*
X16066492Y-16904293D02*
X16114111Y-16904293D01*
X16114111Y-16904293D02*
X16133158Y-16894770D01*
X16199825Y-16847150D02*
X16276015Y-16847150D01*
X16228396Y-16780484D02*
X16228396Y-16951912D01*
X16228396Y-16951912D02*
X16237920Y-16970960D01*
X16237920Y-16970960D02*
X16256968Y-16980484D01*
X16256968Y-16980484D02*
X16276015Y-16980484D01*
X16418873Y-16970960D02*
X16399825Y-16980484D01*
X16399825Y-16980484D02*
X16361730Y-16980484D01*
X16361730Y-16980484D02*
X16342682Y-16970960D01*
X16342682Y-16970960D02*
X16333158Y-16951912D01*
X16333158Y-16951912D02*
X16333158Y-16875722D01*
X16333158Y-16875722D02*
X16342682Y-16856674D01*
X16342682Y-16856674D02*
X16361730Y-16847150D01*
X16361730Y-16847150D02*
X16399825Y-16847150D01*
X16399825Y-16847150D02*
X16418873Y-16856674D01*
X16418873Y-16856674D02*
X16428396Y-16875722D01*
X16428396Y-16875722D02*
X16428396Y-16894770D01*
X16428396Y-16894770D02*
X16333158Y-16913817D01*
X16599825Y-16980484D02*
X16599825Y-16780484D01*
X16599825Y-16970960D02*
X16580777Y-16980484D01*
X16580777Y-16980484D02*
X16542682Y-16980484D01*
X16542682Y-16980484D02*
X16523634Y-16970960D01*
X16523634Y-16970960D02*
X16514111Y-16961436D01*
X16514111Y-16961436D02*
X16504587Y-16942389D01*
X16504587Y-16942389D02*
X16504587Y-16885246D01*
X16504587Y-16885246D02*
X16514111Y-16866198D01*
X16514111Y-16866198D02*
X16523634Y-16856674D01*
X16523634Y-16856674D02*
X16542682Y-16847150D01*
X16542682Y-16847150D02*
X16580777Y-16847150D01*
X16580777Y-16847150D02*
X16599825Y-16856674D01*
X16676015Y-17056674D02*
X16685539Y-17047150D01*
X16685539Y-17047150D02*
X16704587Y-17018579D01*
X16704587Y-17018579D02*
X16714111Y-16999531D01*
X16714111Y-16999531D02*
X16723634Y-16970960D01*
X16723634Y-16970960D02*
X16733158Y-16923341D01*
X16733158Y-16923341D02*
X16733158Y-16885246D01*
X16733158Y-16885246D02*
X16723634Y-16837627D01*
X16723634Y-16837627D02*
X16714111Y-16809055D01*
X16714111Y-16809055D02*
X16704587Y-16790008D01*
X16704587Y-16790008D02*
X16685539Y-16761436D01*
X16685539Y-16761436D02*
X16676015Y-16751912D01*
D10*
X9820940Y-17103470D02*
X9920000Y-17202530D01*
X9920000Y-17103470D02*
X9820940Y-17202530D01*
X9905493Y-17188023D02*
X9905493Y-17117977D01*
X9835447Y-17117977D01*
X9835447Y-17188023D01*
X9905493Y-17188023D01*
D11*
X10218872Y-17044484D02*
X10237920Y-17044484D01*
X10237920Y-17044484D02*
X10256967Y-17054008D01*
X10256967Y-17054008D02*
X10266491Y-17063531D01*
X10266491Y-17063531D02*
X10276015Y-17082579D01*
X10276015Y-17082579D02*
X10285539Y-17120674D01*
X10285539Y-17120674D02*
X10285539Y-17168293D01*
X10285539Y-17168293D02*
X10276015Y-17206389D01*
X10276015Y-17206389D02*
X10266491Y-17225436D01*
X10266491Y-17225436D02*
X10256967Y-17234960D01*
X10256967Y-17234960D02*
X10237920Y-17244484D01*
X10237920Y-17244484D02*
X10218872Y-17244484D01*
X10218872Y-17244484D02*
X10199824Y-17234960D01*
X10199824Y-17234960D02*
X10190301Y-17225436D01*
X10190301Y-17225436D02*
X10180777Y-17206389D01*
X10180777Y-17206389D02*
X10171253Y-17168293D01*
X10171253Y-17168293D02*
X10171253Y-17120674D01*
X10171253Y-17120674D02*
X10180777Y-17082579D01*
X10180777Y-17082579D02*
X10190301Y-17063531D01*
X10190301Y-17063531D02*
X10199824Y-17054008D01*
X10199824Y-17054008D02*
X10218872Y-17044484D01*
X10371253Y-17225436D02*
X10380777Y-17234960D01*
X10380777Y-17234960D02*
X10371253Y-17244484D01*
X10371253Y-17244484D02*
X10361729Y-17234960D01*
X10361729Y-17234960D02*
X10371253Y-17225436D01*
X10371253Y-17225436D02*
X10371253Y-17244484D01*
X10476015Y-17244484D02*
X10514110Y-17244484D01*
X10514110Y-17244484D02*
X10533158Y-17234960D01*
X10533158Y-17234960D02*
X10542682Y-17225436D01*
X10542682Y-17225436D02*
X10561729Y-17196865D01*
X10561729Y-17196865D02*
X10571253Y-17158770D01*
X10571253Y-17158770D02*
X10571253Y-17082579D01*
X10571253Y-17082579D02*
X10561729Y-17063531D01*
X10561729Y-17063531D02*
X10552205Y-17054008D01*
X10552205Y-17054008D02*
X10533158Y-17044484D01*
X10533158Y-17044484D02*
X10495063Y-17044484D01*
X10495063Y-17044484D02*
X10476015Y-17054008D01*
X10476015Y-17054008D02*
X10466491Y-17063531D01*
X10466491Y-17063531D02*
X10456967Y-17082579D01*
X10456967Y-17082579D02*
X10456967Y-17130198D01*
X10456967Y-17130198D02*
X10466491Y-17149246D01*
X10466491Y-17149246D02*
X10476015Y-17158770D01*
X10476015Y-17158770D02*
X10495063Y-17168293D01*
X10495063Y-17168293D02*
X10533158Y-17168293D01*
X10533158Y-17168293D02*
X10552205Y-17158770D01*
X10552205Y-17158770D02*
X10561729Y-17149246D01*
X10561729Y-17149246D02*
X10571253Y-17130198D01*
X10666491Y-17244484D02*
X10704586Y-17244484D01*
X10704586Y-17244484D02*
X10723634Y-17234960D01*
X10723634Y-17234960D02*
X10733158Y-17225436D01*
X10733158Y-17225436D02*
X10752205Y-17196865D01*
X10752205Y-17196865D02*
X10761729Y-17158770D01*
X10761729Y-17158770D02*
X10761729Y-17082579D01*
X10761729Y-17082579D02*
X10752205Y-17063531D01*
X10752205Y-17063531D02*
X10742682Y-17054008D01*
X10742682Y-17054008D02*
X10723634Y-17044484D01*
X10723634Y-17044484D02*
X10685539Y-17044484D01*
X10685539Y-17044484D02*
X10666491Y-17054008D01*
X10666491Y-17054008D02*
X10656967Y-17063531D01*
X10656967Y-17063531D02*
X10647444Y-17082579D01*
X10647444Y-17082579D02*
X10647444Y-17130198D01*
X10647444Y-17130198D02*
X10656967Y-17149246D01*
X10656967Y-17149246D02*
X10666491Y-17158770D01*
X10666491Y-17158770D02*
X10685539Y-17168293D01*
X10685539Y-17168293D02*
X10723634Y-17168293D01*
X10723634Y-17168293D02*
X10742682Y-17158770D01*
X10742682Y-17158770D02*
X10752205Y-17149246D01*
X10752205Y-17149246D02*
X10761729Y-17130198D01*
X10952205Y-17244484D02*
X10837920Y-17244484D01*
X10895063Y-17244484D02*
X10895063Y-17044484D01*
X10895063Y-17044484D02*
X10876015Y-17073055D01*
X10876015Y-17073055D02*
X10856967Y-17092103D01*
X10856967Y-17092103D02*
X10837920Y-17101627D01*
X11037920Y-17244484D02*
X11037920Y-17111150D01*
X11037920Y-17130198D02*
X11047444Y-17120674D01*
X11047444Y-17120674D02*
X11066491Y-17111150D01*
X11066491Y-17111150D02*
X11095063Y-17111150D01*
X11095063Y-17111150D02*
X11114110Y-17120674D01*
X11114110Y-17120674D02*
X11123634Y-17139722D01*
X11123634Y-17139722D02*
X11123634Y-17244484D01*
X11123634Y-17139722D02*
X11133158Y-17120674D01*
X11133158Y-17120674D02*
X11152205Y-17111150D01*
X11152205Y-17111150D02*
X11180777Y-17111150D01*
X11180777Y-17111150D02*
X11199824Y-17120674D01*
X11199824Y-17120674D02*
X11209348Y-17139722D01*
X11209348Y-17139722D02*
X11209348Y-17244484D01*
X11304586Y-17244484D02*
X11304586Y-17111150D01*
X11304586Y-17130198D02*
X11314110Y-17120674D01*
X11314110Y-17120674D02*
X11333158Y-17111150D01*
X11333158Y-17111150D02*
X11361729Y-17111150D01*
X11361729Y-17111150D02*
X11380777Y-17120674D01*
X11380777Y-17120674D02*
X11390301Y-17139722D01*
X11390301Y-17139722D02*
X11390301Y-17244484D01*
X11390301Y-17139722D02*
X11399824Y-17120674D01*
X11399824Y-17120674D02*
X11418872Y-17111150D01*
X11418872Y-17111150D02*
X11447443Y-17111150D01*
X11447443Y-17111150D02*
X11466491Y-17120674D01*
X11466491Y-17120674D02*
X11476015Y-17139722D01*
X11476015Y-17139722D02*
X11476015Y-17244484D01*
X11866491Y-17034960D02*
X11695063Y-17292103D01*
X12123634Y-17044484D02*
X12142682Y-17044484D01*
X12142682Y-17044484D02*
X12161729Y-17054008D01*
X12161729Y-17054008D02*
X12171253Y-17063531D01*
X12171253Y-17063531D02*
X12180777Y-17082579D01*
X12180777Y-17082579D02*
X12190301Y-17120674D01*
X12190301Y-17120674D02*
X12190301Y-17168293D01*
X12190301Y-17168293D02*
X12180777Y-17206389D01*
X12180777Y-17206389D02*
X12171253Y-17225436D01*
X12171253Y-17225436D02*
X12161729Y-17234960D01*
X12161729Y-17234960D02*
X12142682Y-17244484D01*
X12142682Y-17244484D02*
X12123634Y-17244484D01*
X12123634Y-17244484D02*
X12104586Y-17234960D01*
X12104586Y-17234960D02*
X12095063Y-17225436D01*
X12095063Y-17225436D02*
X12085539Y-17206389D01*
X12085539Y-17206389D02*
X12076015Y-17168293D01*
X12076015Y-17168293D02*
X12076015Y-17120674D01*
X12076015Y-17120674D02*
X12085539Y-17082579D01*
X12085539Y-17082579D02*
X12095063Y-17063531D01*
X12095063Y-17063531D02*
X12104586Y-17054008D01*
X12104586Y-17054008D02*
X12123634Y-17044484D01*
X12276015Y-17225436D02*
X12285539Y-17234960D01*
X12285539Y-17234960D02*
X12276015Y-17244484D01*
X12276015Y-17244484D02*
X12266491Y-17234960D01*
X12266491Y-17234960D02*
X12276015Y-17225436D01*
X12276015Y-17225436D02*
X12276015Y-17244484D01*
X12409348Y-17044484D02*
X12428396Y-17044484D01*
X12428396Y-17044484D02*
X12447444Y-17054008D01*
X12447444Y-17054008D02*
X12456967Y-17063531D01*
X12456967Y-17063531D02*
X12466491Y-17082579D01*
X12466491Y-17082579D02*
X12476015Y-17120674D01*
X12476015Y-17120674D02*
X12476015Y-17168293D01*
X12476015Y-17168293D02*
X12466491Y-17206389D01*
X12466491Y-17206389D02*
X12456967Y-17225436D01*
X12456967Y-17225436D02*
X12447444Y-17234960D01*
X12447444Y-17234960D02*
X12428396Y-17244484D01*
X12428396Y-17244484D02*
X12409348Y-17244484D01*
X12409348Y-17244484D02*
X12390301Y-17234960D01*
X12390301Y-17234960D02*
X12380777Y-17225436D01*
X12380777Y-17225436D02*
X12371253Y-17206389D01*
X12371253Y-17206389D02*
X12361729Y-17168293D01*
X12361729Y-17168293D02*
X12361729Y-17120674D01*
X12361729Y-17120674D02*
X12371253Y-17082579D01*
X12371253Y-17082579D02*
X12380777Y-17063531D01*
X12380777Y-17063531D02*
X12390301Y-17054008D01*
X12390301Y-17054008D02*
X12409348Y-17044484D01*
X12542682Y-17044484D02*
X12666491Y-17044484D01*
X12666491Y-17044484D02*
X12599825Y-17120674D01*
X12599825Y-17120674D02*
X12628396Y-17120674D01*
X12628396Y-17120674D02*
X12647444Y-17130198D01*
X12647444Y-17130198D02*
X12656967Y-17139722D01*
X12656967Y-17139722D02*
X12666491Y-17158770D01*
X12666491Y-17158770D02*
X12666491Y-17206389D01*
X12666491Y-17206389D02*
X12656967Y-17225436D01*
X12656967Y-17225436D02*
X12647444Y-17234960D01*
X12647444Y-17234960D02*
X12628396Y-17244484D01*
X12628396Y-17244484D02*
X12571253Y-17244484D01*
X12571253Y-17244484D02*
X12552206Y-17234960D01*
X12552206Y-17234960D02*
X12542682Y-17225436D01*
X12761729Y-17244484D02*
X12799825Y-17244484D01*
X12799825Y-17244484D02*
X12818872Y-17234960D01*
X12818872Y-17234960D02*
X12828396Y-17225436D01*
X12828396Y-17225436D02*
X12847444Y-17196865D01*
X12847444Y-17196865D02*
X12856967Y-17158770D01*
X12856967Y-17158770D02*
X12856967Y-17082579D01*
X12856967Y-17082579D02*
X12847444Y-17063531D01*
X12847444Y-17063531D02*
X12837920Y-17054008D01*
X12837920Y-17054008D02*
X12818872Y-17044484D01*
X12818872Y-17044484D02*
X12780777Y-17044484D01*
X12780777Y-17044484D02*
X12761729Y-17054008D01*
X12761729Y-17054008D02*
X12752206Y-17063531D01*
X12752206Y-17063531D02*
X12742682Y-17082579D01*
X12742682Y-17082579D02*
X12742682Y-17130198D01*
X12742682Y-17130198D02*
X12752206Y-17149246D01*
X12752206Y-17149246D02*
X12761729Y-17158770D01*
X12761729Y-17158770D02*
X12780777Y-17168293D01*
X12780777Y-17168293D02*
X12818872Y-17168293D01*
X12818872Y-17168293D02*
X12837920Y-17158770D01*
X12837920Y-17158770D02*
X12847444Y-17149246D01*
X12847444Y-17149246D02*
X12856967Y-17130198D01*
X12980777Y-17044484D02*
X12999825Y-17044484D01*
X12999825Y-17044484D02*
X13018872Y-17054008D01*
X13018872Y-17054008D02*
X13028396Y-17063531D01*
X13028396Y-17063531D02*
X13037920Y-17082579D01*
X13037920Y-17082579D02*
X13047444Y-17120674D01*
X13047444Y-17120674D02*
X13047444Y-17168293D01*
X13047444Y-17168293D02*
X13037920Y-17206389D01*
X13037920Y-17206389D02*
X13028396Y-17225436D01*
X13028396Y-17225436D02*
X13018872Y-17234960D01*
X13018872Y-17234960D02*
X12999825Y-17244484D01*
X12999825Y-17244484D02*
X12980777Y-17244484D01*
X12980777Y-17244484D02*
X12961729Y-17234960D01*
X12961729Y-17234960D02*
X12952206Y-17225436D01*
X12952206Y-17225436D02*
X12942682Y-17206389D01*
X12942682Y-17206389D02*
X12933158Y-17168293D01*
X12933158Y-17168293D02*
X12933158Y-17120674D01*
X12933158Y-17120674D02*
X12942682Y-17082579D01*
X12942682Y-17082579D02*
X12952206Y-17063531D01*
X12952206Y-17063531D02*
X12961729Y-17054008D01*
X12961729Y-17054008D02*
X12980777Y-17044484D01*
X13123634Y-17044484D02*
X13123634Y-17082579D01*
X13199825Y-17044484D02*
X13199825Y-17082579D01*
X13495063Y-17320674D02*
X13485539Y-17311150D01*
X13485539Y-17311150D02*
X13466491Y-17282579D01*
X13466491Y-17282579D02*
X13456968Y-17263531D01*
X13456968Y-17263531D02*
X13447444Y-17234960D01*
X13447444Y-17234960D02*
X13437920Y-17187341D01*
X13437920Y-17187341D02*
X13437920Y-17149246D01*
X13437920Y-17149246D02*
X13447444Y-17101627D01*
X13447444Y-17101627D02*
X13456968Y-17073055D01*
X13456968Y-17073055D02*
X13466491Y-17054008D01*
X13466491Y-17054008D02*
X13485539Y-17025436D01*
X13485539Y-17025436D02*
X13495063Y-17015912D01*
X13552206Y-17044484D02*
X13676015Y-17044484D01*
X13676015Y-17044484D02*
X13609348Y-17120674D01*
X13609348Y-17120674D02*
X13637920Y-17120674D01*
X13637920Y-17120674D02*
X13656968Y-17130198D01*
X13656968Y-17130198D02*
X13666491Y-17139722D01*
X13666491Y-17139722D02*
X13676015Y-17158770D01*
X13676015Y-17158770D02*
X13676015Y-17206389D01*
X13676015Y-17206389D02*
X13666491Y-17225436D01*
X13666491Y-17225436D02*
X13656968Y-17234960D01*
X13656968Y-17234960D02*
X13637920Y-17244484D01*
X13637920Y-17244484D02*
X13580777Y-17244484D01*
X13580777Y-17244484D02*
X13561729Y-17234960D01*
X13561729Y-17234960D02*
X13552206Y-17225436D01*
X13914110Y-17244484D02*
X13914110Y-17044484D01*
X13999825Y-17244484D02*
X13999825Y-17139722D01*
X13999825Y-17139722D02*
X13990301Y-17120674D01*
X13990301Y-17120674D02*
X13971253Y-17111150D01*
X13971253Y-17111150D02*
X13942682Y-17111150D01*
X13942682Y-17111150D02*
X13923634Y-17120674D01*
X13923634Y-17120674D02*
X13914110Y-17130198D01*
X14123634Y-17244484D02*
X14104587Y-17234960D01*
X14104587Y-17234960D02*
X14095063Y-17225436D01*
X14095063Y-17225436D02*
X14085539Y-17206389D01*
X14085539Y-17206389D02*
X14085539Y-17149246D01*
X14085539Y-17149246D02*
X14095063Y-17130198D01*
X14095063Y-17130198D02*
X14104587Y-17120674D01*
X14104587Y-17120674D02*
X14123634Y-17111150D01*
X14123634Y-17111150D02*
X14152206Y-17111150D01*
X14152206Y-17111150D02*
X14171253Y-17120674D01*
X14171253Y-17120674D02*
X14180777Y-17130198D01*
X14180777Y-17130198D02*
X14190301Y-17149246D01*
X14190301Y-17149246D02*
X14190301Y-17206389D01*
X14190301Y-17206389D02*
X14180777Y-17225436D01*
X14180777Y-17225436D02*
X14171253Y-17234960D01*
X14171253Y-17234960D02*
X14152206Y-17244484D01*
X14152206Y-17244484D02*
X14123634Y-17244484D01*
X14304587Y-17244484D02*
X14285539Y-17234960D01*
X14285539Y-17234960D02*
X14276015Y-17215912D01*
X14276015Y-17215912D02*
X14276015Y-17044484D01*
X14456968Y-17234960D02*
X14437920Y-17244484D01*
X14437920Y-17244484D02*
X14399825Y-17244484D01*
X14399825Y-17244484D02*
X14380777Y-17234960D01*
X14380777Y-17234960D02*
X14371253Y-17215912D01*
X14371253Y-17215912D02*
X14371253Y-17139722D01*
X14371253Y-17139722D02*
X14380777Y-17120674D01*
X14380777Y-17120674D02*
X14399825Y-17111150D01*
X14399825Y-17111150D02*
X14437920Y-17111150D01*
X14437920Y-17111150D02*
X14456968Y-17120674D01*
X14456968Y-17120674D02*
X14466491Y-17139722D01*
X14466491Y-17139722D02*
X14466491Y-17158770D01*
X14466491Y-17158770D02*
X14371253Y-17177817D01*
X14542682Y-17234960D02*
X14561730Y-17244484D01*
X14561730Y-17244484D02*
X14599825Y-17244484D01*
X14599825Y-17244484D02*
X14618872Y-17234960D01*
X14618872Y-17234960D02*
X14628396Y-17215912D01*
X14628396Y-17215912D02*
X14628396Y-17206389D01*
X14628396Y-17206389D02*
X14618872Y-17187341D01*
X14618872Y-17187341D02*
X14599825Y-17177817D01*
X14599825Y-17177817D02*
X14571253Y-17177817D01*
X14571253Y-17177817D02*
X14552206Y-17168293D01*
X14552206Y-17168293D02*
X14542682Y-17149246D01*
X14542682Y-17149246D02*
X14542682Y-17139722D01*
X14542682Y-17139722D02*
X14552206Y-17120674D01*
X14552206Y-17120674D02*
X14571253Y-17111150D01*
X14571253Y-17111150D02*
X14599825Y-17111150D01*
X14599825Y-17111150D02*
X14618872Y-17120674D01*
X14695063Y-17320674D02*
X14704587Y-17311150D01*
X14704587Y-17311150D02*
X14723634Y-17282579D01*
X14723634Y-17282579D02*
X14733158Y-17263531D01*
X14733158Y-17263531D02*
X14742682Y-17234960D01*
X14742682Y-17234960D02*
X14752206Y-17187341D01*
X14752206Y-17187341D02*
X14752206Y-17149246D01*
X14752206Y-17149246D02*
X14742682Y-17101627D01*
X14742682Y-17101627D02*
X14733158Y-17073055D01*
X14733158Y-17073055D02*
X14723634Y-17054008D01*
X14723634Y-17054008D02*
X14704587Y-17025436D01*
X14704587Y-17025436D02*
X14695063Y-17015912D01*
X15056968Y-17320674D02*
X15047444Y-17311150D01*
X15047444Y-17311150D02*
X15028396Y-17282579D01*
X15028396Y-17282579D02*
X15018872Y-17263531D01*
X15018872Y-17263531D02*
X15009349Y-17234960D01*
X15009349Y-17234960D02*
X14999825Y-17187341D01*
X14999825Y-17187341D02*
X14999825Y-17149246D01*
X14999825Y-17149246D02*
X15009349Y-17101627D01*
X15009349Y-17101627D02*
X15018872Y-17073055D01*
X15018872Y-17073055D02*
X15028396Y-17054008D01*
X15028396Y-17054008D02*
X15047444Y-17025436D01*
X15047444Y-17025436D02*
X15056968Y-17015912D01*
X15133158Y-17111150D02*
X15133158Y-17244484D01*
X15133158Y-17130198D02*
X15142682Y-17120674D01*
X15142682Y-17120674D02*
X15161730Y-17111150D01*
X15161730Y-17111150D02*
X15190301Y-17111150D01*
X15190301Y-17111150D02*
X15209349Y-17120674D01*
X15209349Y-17120674D02*
X15218872Y-17139722D01*
X15218872Y-17139722D02*
X15218872Y-17244484D01*
X15342682Y-17244484D02*
X15323634Y-17234960D01*
X15323634Y-17234960D02*
X15314111Y-17225436D01*
X15314111Y-17225436D02*
X15304587Y-17206389D01*
X15304587Y-17206389D02*
X15304587Y-17149246D01*
X15304587Y-17149246D02*
X15314111Y-17130198D01*
X15314111Y-17130198D02*
X15323634Y-17120674D01*
X15323634Y-17120674D02*
X15342682Y-17111150D01*
X15342682Y-17111150D02*
X15371253Y-17111150D01*
X15371253Y-17111150D02*
X15390301Y-17120674D01*
X15390301Y-17120674D02*
X15399825Y-17130198D01*
X15399825Y-17130198D02*
X15409349Y-17149246D01*
X15409349Y-17149246D02*
X15409349Y-17206389D01*
X15409349Y-17206389D02*
X15399825Y-17225436D01*
X15399825Y-17225436D02*
X15390301Y-17234960D01*
X15390301Y-17234960D02*
X15371253Y-17244484D01*
X15371253Y-17244484D02*
X15342682Y-17244484D01*
X15466492Y-17111150D02*
X15542682Y-17111150D01*
X15495063Y-17044484D02*
X15495063Y-17215912D01*
X15495063Y-17215912D02*
X15504587Y-17234960D01*
X15504587Y-17234960D02*
X15523634Y-17244484D01*
X15523634Y-17244484D02*
X15542682Y-17244484D01*
X15761730Y-17111150D02*
X15761730Y-17311150D01*
X15761730Y-17120674D02*
X15780777Y-17111150D01*
X15780777Y-17111150D02*
X15818873Y-17111150D01*
X15818873Y-17111150D02*
X15837920Y-17120674D01*
X15837920Y-17120674D02*
X15847444Y-17130198D01*
X15847444Y-17130198D02*
X15856968Y-17149246D01*
X15856968Y-17149246D02*
X15856968Y-17206389D01*
X15856968Y-17206389D02*
X15847444Y-17225436D01*
X15847444Y-17225436D02*
X15837920Y-17234960D01*
X15837920Y-17234960D02*
X15818873Y-17244484D01*
X15818873Y-17244484D02*
X15780777Y-17244484D01*
X15780777Y-17244484D02*
X15761730Y-17234960D01*
X15971253Y-17244484D02*
X15952206Y-17234960D01*
X15952206Y-17234960D02*
X15942682Y-17215912D01*
X15942682Y-17215912D02*
X15942682Y-17044484D01*
X16133158Y-17244484D02*
X16133158Y-17139722D01*
X16133158Y-17139722D02*
X16123634Y-17120674D01*
X16123634Y-17120674D02*
X16104587Y-17111150D01*
X16104587Y-17111150D02*
X16066492Y-17111150D01*
X16066492Y-17111150D02*
X16047444Y-17120674D01*
X16133158Y-17234960D02*
X16114111Y-17244484D01*
X16114111Y-17244484D02*
X16066492Y-17244484D01*
X16066492Y-17244484D02*
X16047444Y-17234960D01*
X16047444Y-17234960D02*
X16037920Y-17215912D01*
X16037920Y-17215912D02*
X16037920Y-17196865D01*
X16037920Y-17196865D02*
X16047444Y-17177817D01*
X16047444Y-17177817D02*
X16066492Y-17168293D01*
X16066492Y-17168293D02*
X16114111Y-17168293D01*
X16114111Y-17168293D02*
X16133158Y-17158770D01*
X16199825Y-17111150D02*
X16276015Y-17111150D01*
X16228396Y-17044484D02*
X16228396Y-17215912D01*
X16228396Y-17215912D02*
X16237920Y-17234960D01*
X16237920Y-17234960D02*
X16256968Y-17244484D01*
X16256968Y-17244484D02*
X16276015Y-17244484D01*
X16418873Y-17234960D02*
X16399825Y-17244484D01*
X16399825Y-17244484D02*
X16361730Y-17244484D01*
X16361730Y-17244484D02*
X16342682Y-17234960D01*
X16342682Y-17234960D02*
X16333158Y-17215912D01*
X16333158Y-17215912D02*
X16333158Y-17139722D01*
X16333158Y-17139722D02*
X16342682Y-17120674D01*
X16342682Y-17120674D02*
X16361730Y-17111150D01*
X16361730Y-17111150D02*
X16399825Y-17111150D01*
X16399825Y-17111150D02*
X16418873Y-17120674D01*
X16418873Y-17120674D02*
X16428396Y-17139722D01*
X16428396Y-17139722D02*
X16428396Y-17158770D01*
X16428396Y-17158770D02*
X16333158Y-17177817D01*
X16599825Y-17244484D02*
X16599825Y-17044484D01*
X16599825Y-17234960D02*
X16580777Y-17244484D01*
X16580777Y-17244484D02*
X16542682Y-17244484D01*
X16542682Y-17244484D02*
X16523634Y-17234960D01*
X16523634Y-17234960D02*
X16514111Y-17225436D01*
X16514111Y-17225436D02*
X16504587Y-17206389D01*
X16504587Y-17206389D02*
X16504587Y-17149246D01*
X16504587Y-17149246D02*
X16514111Y-17130198D01*
X16514111Y-17130198D02*
X16523634Y-17120674D01*
X16523634Y-17120674D02*
X16542682Y-17111150D01*
X16542682Y-17111150D02*
X16580777Y-17111150D01*
X16580777Y-17111150D02*
X16599825Y-17120674D01*
X16676015Y-17320674D02*
X16685539Y-17311150D01*
X16685539Y-17311150D02*
X16704587Y-17282579D01*
X16704587Y-17282579D02*
X16714111Y-17263531D01*
X16714111Y-17263531D02*
X16723634Y-17234960D01*
X16723634Y-17234960D02*
X16733158Y-17187341D01*
X16733158Y-17187341D02*
X16733158Y-17149246D01*
X16733158Y-17149246D02*
X16723634Y-17101627D01*
X16723634Y-17101627D02*
X16714111Y-17073055D01*
X16714111Y-17073055D02*
X16704587Y-17054008D01*
X16704587Y-17054008D02*
X16685539Y-17025436D01*
X16685539Y-17025436D02*
X16676015Y-17015912D01*
D10*
X9820000Y-17367000D02*
X9920000Y-17467000D01*
X9920000Y-17367000D02*
X9820000Y-17467000D01*
X9870000Y-17467000D02*
X9920000Y-17417000D01*
X9870000Y-17367000D01*
X9820000Y-17417000D01*
X9870000Y-17467000D01*
D11*
X10285539Y-17508484D02*
X10171253Y-17508484D01*
X10228396Y-17508484D02*
X10228396Y-17308484D01*
X10228396Y-17308484D02*
X10209348Y-17337055D01*
X10209348Y-17337055D02*
X10190301Y-17356103D01*
X10190301Y-17356103D02*
X10171253Y-17365627D01*
X10371253Y-17489436D02*
X10380777Y-17498960D01*
X10380777Y-17498960D02*
X10371253Y-17508484D01*
X10371253Y-17508484D02*
X10361729Y-17498960D01*
X10361729Y-17498960D02*
X10371253Y-17489436D01*
X10371253Y-17489436D02*
X10371253Y-17508484D01*
X10504586Y-17308484D02*
X10523634Y-17308484D01*
X10523634Y-17308484D02*
X10542682Y-17318008D01*
X10542682Y-17318008D02*
X10552205Y-17327531D01*
X10552205Y-17327531D02*
X10561729Y-17346579D01*
X10561729Y-17346579D02*
X10571253Y-17384674D01*
X10571253Y-17384674D02*
X10571253Y-17432293D01*
X10571253Y-17432293D02*
X10561729Y-17470389D01*
X10561729Y-17470389D02*
X10552205Y-17489436D01*
X10552205Y-17489436D02*
X10542682Y-17498960D01*
X10542682Y-17498960D02*
X10523634Y-17508484D01*
X10523634Y-17508484D02*
X10504586Y-17508484D01*
X10504586Y-17508484D02*
X10485539Y-17498960D01*
X10485539Y-17498960D02*
X10476015Y-17489436D01*
X10476015Y-17489436D02*
X10466491Y-17470389D01*
X10466491Y-17470389D02*
X10456967Y-17432293D01*
X10456967Y-17432293D02*
X10456967Y-17384674D01*
X10456967Y-17384674D02*
X10466491Y-17346579D01*
X10466491Y-17346579D02*
X10476015Y-17327531D01*
X10476015Y-17327531D02*
X10485539Y-17318008D01*
X10485539Y-17318008D02*
X10504586Y-17308484D01*
X10695063Y-17308484D02*
X10714110Y-17308484D01*
X10714110Y-17308484D02*
X10733158Y-17318008D01*
X10733158Y-17318008D02*
X10742682Y-17327531D01*
X10742682Y-17327531D02*
X10752205Y-17346579D01*
X10752205Y-17346579D02*
X10761729Y-17384674D01*
X10761729Y-17384674D02*
X10761729Y-17432293D01*
X10761729Y-17432293D02*
X10752205Y-17470389D01*
X10752205Y-17470389D02*
X10742682Y-17489436D01*
X10742682Y-17489436D02*
X10733158Y-17498960D01*
X10733158Y-17498960D02*
X10714110Y-17508484D01*
X10714110Y-17508484D02*
X10695063Y-17508484D01*
X10695063Y-17508484D02*
X10676015Y-17498960D01*
X10676015Y-17498960D02*
X10666491Y-17489436D01*
X10666491Y-17489436D02*
X10656967Y-17470389D01*
X10656967Y-17470389D02*
X10647444Y-17432293D01*
X10647444Y-17432293D02*
X10647444Y-17384674D01*
X10647444Y-17384674D02*
X10656967Y-17346579D01*
X10656967Y-17346579D02*
X10666491Y-17327531D01*
X10666491Y-17327531D02*
X10676015Y-17318008D01*
X10676015Y-17318008D02*
X10695063Y-17308484D01*
X10885539Y-17308484D02*
X10904586Y-17308484D01*
X10904586Y-17308484D02*
X10923634Y-17318008D01*
X10923634Y-17318008D02*
X10933158Y-17327531D01*
X10933158Y-17327531D02*
X10942682Y-17346579D01*
X10942682Y-17346579D02*
X10952205Y-17384674D01*
X10952205Y-17384674D02*
X10952205Y-17432293D01*
X10952205Y-17432293D02*
X10942682Y-17470389D01*
X10942682Y-17470389D02*
X10933158Y-17489436D01*
X10933158Y-17489436D02*
X10923634Y-17498960D01*
X10923634Y-17498960D02*
X10904586Y-17508484D01*
X10904586Y-17508484D02*
X10885539Y-17508484D01*
X10885539Y-17508484D02*
X10866491Y-17498960D01*
X10866491Y-17498960D02*
X10856967Y-17489436D01*
X10856967Y-17489436D02*
X10847444Y-17470389D01*
X10847444Y-17470389D02*
X10837920Y-17432293D01*
X10837920Y-17432293D02*
X10837920Y-17384674D01*
X10837920Y-17384674D02*
X10847444Y-17346579D01*
X10847444Y-17346579D02*
X10856967Y-17327531D01*
X10856967Y-17327531D02*
X10866491Y-17318008D01*
X10866491Y-17318008D02*
X10885539Y-17308484D01*
X11037920Y-17508484D02*
X11037920Y-17375150D01*
X11037920Y-17394198D02*
X11047444Y-17384674D01*
X11047444Y-17384674D02*
X11066491Y-17375150D01*
X11066491Y-17375150D02*
X11095063Y-17375150D01*
X11095063Y-17375150D02*
X11114110Y-17384674D01*
X11114110Y-17384674D02*
X11123634Y-17403722D01*
X11123634Y-17403722D02*
X11123634Y-17508484D01*
X11123634Y-17403722D02*
X11133158Y-17384674D01*
X11133158Y-17384674D02*
X11152205Y-17375150D01*
X11152205Y-17375150D02*
X11180777Y-17375150D01*
X11180777Y-17375150D02*
X11199824Y-17384674D01*
X11199824Y-17384674D02*
X11209348Y-17403722D01*
X11209348Y-17403722D02*
X11209348Y-17508484D01*
X11304586Y-17508484D02*
X11304586Y-17375150D01*
X11304586Y-17394198D02*
X11314110Y-17384674D01*
X11314110Y-17384674D02*
X11333158Y-17375150D01*
X11333158Y-17375150D02*
X11361729Y-17375150D01*
X11361729Y-17375150D02*
X11380777Y-17384674D01*
X11380777Y-17384674D02*
X11390301Y-17403722D01*
X11390301Y-17403722D02*
X11390301Y-17508484D01*
X11390301Y-17403722D02*
X11399824Y-17384674D01*
X11399824Y-17384674D02*
X11418872Y-17375150D01*
X11418872Y-17375150D02*
X11447443Y-17375150D01*
X11447443Y-17375150D02*
X11466491Y-17384674D01*
X11466491Y-17384674D02*
X11476015Y-17403722D01*
X11476015Y-17403722D02*
X11476015Y-17508484D01*
X11866491Y-17298960D02*
X11695063Y-17556103D01*
X12123634Y-17308484D02*
X12142682Y-17308484D01*
X12142682Y-17308484D02*
X12161729Y-17318008D01*
X12161729Y-17318008D02*
X12171253Y-17327531D01*
X12171253Y-17327531D02*
X12180777Y-17346579D01*
X12180777Y-17346579D02*
X12190301Y-17384674D01*
X12190301Y-17384674D02*
X12190301Y-17432293D01*
X12190301Y-17432293D02*
X12180777Y-17470389D01*
X12180777Y-17470389D02*
X12171253Y-17489436D01*
X12171253Y-17489436D02*
X12161729Y-17498960D01*
X12161729Y-17498960D02*
X12142682Y-17508484D01*
X12142682Y-17508484D02*
X12123634Y-17508484D01*
X12123634Y-17508484D02*
X12104586Y-17498960D01*
X12104586Y-17498960D02*
X12095063Y-17489436D01*
X12095063Y-17489436D02*
X12085539Y-17470389D01*
X12085539Y-17470389D02*
X12076015Y-17432293D01*
X12076015Y-17432293D02*
X12076015Y-17384674D01*
X12076015Y-17384674D02*
X12085539Y-17346579D01*
X12085539Y-17346579D02*
X12095063Y-17327531D01*
X12095063Y-17327531D02*
X12104586Y-17318008D01*
X12104586Y-17318008D02*
X12123634Y-17308484D01*
X12276015Y-17489436D02*
X12285539Y-17498960D01*
X12285539Y-17498960D02*
X12276015Y-17508484D01*
X12276015Y-17508484D02*
X12266491Y-17498960D01*
X12266491Y-17498960D02*
X12276015Y-17489436D01*
X12276015Y-17489436D02*
X12276015Y-17508484D01*
X12409348Y-17308484D02*
X12428396Y-17308484D01*
X12428396Y-17308484D02*
X12447444Y-17318008D01*
X12447444Y-17318008D02*
X12456967Y-17327531D01*
X12456967Y-17327531D02*
X12466491Y-17346579D01*
X12466491Y-17346579D02*
X12476015Y-17384674D01*
X12476015Y-17384674D02*
X12476015Y-17432293D01*
X12476015Y-17432293D02*
X12466491Y-17470389D01*
X12466491Y-17470389D02*
X12456967Y-17489436D01*
X12456967Y-17489436D02*
X12447444Y-17498960D01*
X12447444Y-17498960D02*
X12428396Y-17508484D01*
X12428396Y-17508484D02*
X12409348Y-17508484D01*
X12409348Y-17508484D02*
X12390301Y-17498960D01*
X12390301Y-17498960D02*
X12380777Y-17489436D01*
X12380777Y-17489436D02*
X12371253Y-17470389D01*
X12371253Y-17470389D02*
X12361729Y-17432293D01*
X12361729Y-17432293D02*
X12361729Y-17384674D01*
X12361729Y-17384674D02*
X12371253Y-17346579D01*
X12371253Y-17346579D02*
X12380777Y-17327531D01*
X12380777Y-17327531D02*
X12390301Y-17318008D01*
X12390301Y-17318008D02*
X12409348Y-17308484D01*
X12542682Y-17308484D02*
X12666491Y-17308484D01*
X12666491Y-17308484D02*
X12599825Y-17384674D01*
X12599825Y-17384674D02*
X12628396Y-17384674D01*
X12628396Y-17384674D02*
X12647444Y-17394198D01*
X12647444Y-17394198D02*
X12656967Y-17403722D01*
X12656967Y-17403722D02*
X12666491Y-17422770D01*
X12666491Y-17422770D02*
X12666491Y-17470389D01*
X12666491Y-17470389D02*
X12656967Y-17489436D01*
X12656967Y-17489436D02*
X12647444Y-17498960D01*
X12647444Y-17498960D02*
X12628396Y-17508484D01*
X12628396Y-17508484D02*
X12571253Y-17508484D01*
X12571253Y-17508484D02*
X12552206Y-17498960D01*
X12552206Y-17498960D02*
X12542682Y-17489436D01*
X12761729Y-17508484D02*
X12799825Y-17508484D01*
X12799825Y-17508484D02*
X12818872Y-17498960D01*
X12818872Y-17498960D02*
X12828396Y-17489436D01*
X12828396Y-17489436D02*
X12847444Y-17460865D01*
X12847444Y-17460865D02*
X12856967Y-17422770D01*
X12856967Y-17422770D02*
X12856967Y-17346579D01*
X12856967Y-17346579D02*
X12847444Y-17327531D01*
X12847444Y-17327531D02*
X12837920Y-17318008D01*
X12837920Y-17318008D02*
X12818872Y-17308484D01*
X12818872Y-17308484D02*
X12780777Y-17308484D01*
X12780777Y-17308484D02*
X12761729Y-17318008D01*
X12761729Y-17318008D02*
X12752206Y-17327531D01*
X12752206Y-17327531D02*
X12742682Y-17346579D01*
X12742682Y-17346579D02*
X12742682Y-17394198D01*
X12742682Y-17394198D02*
X12752206Y-17413246D01*
X12752206Y-17413246D02*
X12761729Y-17422770D01*
X12761729Y-17422770D02*
X12780777Y-17432293D01*
X12780777Y-17432293D02*
X12818872Y-17432293D01*
X12818872Y-17432293D02*
X12837920Y-17422770D01*
X12837920Y-17422770D02*
X12847444Y-17413246D01*
X12847444Y-17413246D02*
X12856967Y-17394198D01*
X13028396Y-17375150D02*
X13028396Y-17508484D01*
X12980777Y-17298960D02*
X12933158Y-17441817D01*
X12933158Y-17441817D02*
X13056967Y-17441817D01*
X13123634Y-17308484D02*
X13123634Y-17346579D01*
X13199825Y-17308484D02*
X13199825Y-17346579D01*
X13495063Y-17584674D02*
X13485539Y-17575150D01*
X13485539Y-17575150D02*
X13466491Y-17546579D01*
X13466491Y-17546579D02*
X13456968Y-17527531D01*
X13456968Y-17527531D02*
X13447444Y-17498960D01*
X13447444Y-17498960D02*
X13437920Y-17451341D01*
X13437920Y-17451341D02*
X13437920Y-17413246D01*
X13437920Y-17413246D02*
X13447444Y-17365627D01*
X13447444Y-17365627D02*
X13456968Y-17337055D01*
X13456968Y-17337055D02*
X13466491Y-17318008D01*
X13466491Y-17318008D02*
X13485539Y-17289436D01*
X13485539Y-17289436D02*
X13495063Y-17279912D01*
X13561729Y-17327531D02*
X13571253Y-17318008D01*
X13571253Y-17318008D02*
X13590301Y-17308484D01*
X13590301Y-17308484D02*
X13637920Y-17308484D01*
X13637920Y-17308484D02*
X13656968Y-17318008D01*
X13656968Y-17318008D02*
X13666491Y-17327531D01*
X13666491Y-17327531D02*
X13676015Y-17346579D01*
X13676015Y-17346579D02*
X13676015Y-17365627D01*
X13676015Y-17365627D02*
X13666491Y-17394198D01*
X13666491Y-17394198D02*
X13552206Y-17508484D01*
X13552206Y-17508484D02*
X13676015Y-17508484D01*
X13914110Y-17508484D02*
X13914110Y-17308484D01*
X13999825Y-17508484D02*
X13999825Y-17403722D01*
X13999825Y-17403722D02*
X13990301Y-17384674D01*
X13990301Y-17384674D02*
X13971253Y-17375150D01*
X13971253Y-17375150D02*
X13942682Y-17375150D01*
X13942682Y-17375150D02*
X13923634Y-17384674D01*
X13923634Y-17384674D02*
X13914110Y-17394198D01*
X14123634Y-17508484D02*
X14104587Y-17498960D01*
X14104587Y-17498960D02*
X14095063Y-17489436D01*
X14095063Y-17489436D02*
X14085539Y-17470389D01*
X14085539Y-17470389D02*
X14085539Y-17413246D01*
X14085539Y-17413246D02*
X14095063Y-17394198D01*
X14095063Y-17394198D02*
X14104587Y-17384674D01*
X14104587Y-17384674D02*
X14123634Y-17375150D01*
X14123634Y-17375150D02*
X14152206Y-17375150D01*
X14152206Y-17375150D02*
X14171253Y-17384674D01*
X14171253Y-17384674D02*
X14180777Y-17394198D01*
X14180777Y-17394198D02*
X14190301Y-17413246D01*
X14190301Y-17413246D02*
X14190301Y-17470389D01*
X14190301Y-17470389D02*
X14180777Y-17489436D01*
X14180777Y-17489436D02*
X14171253Y-17498960D01*
X14171253Y-17498960D02*
X14152206Y-17508484D01*
X14152206Y-17508484D02*
X14123634Y-17508484D01*
X14304587Y-17508484D02*
X14285539Y-17498960D01*
X14285539Y-17498960D02*
X14276015Y-17479912D01*
X14276015Y-17479912D02*
X14276015Y-17308484D01*
X14456968Y-17498960D02*
X14437920Y-17508484D01*
X14437920Y-17508484D02*
X14399825Y-17508484D01*
X14399825Y-17508484D02*
X14380777Y-17498960D01*
X14380777Y-17498960D02*
X14371253Y-17479912D01*
X14371253Y-17479912D02*
X14371253Y-17403722D01*
X14371253Y-17403722D02*
X14380777Y-17384674D01*
X14380777Y-17384674D02*
X14399825Y-17375150D01*
X14399825Y-17375150D02*
X14437920Y-17375150D01*
X14437920Y-17375150D02*
X14456968Y-17384674D01*
X14456968Y-17384674D02*
X14466491Y-17403722D01*
X14466491Y-17403722D02*
X14466491Y-17422770D01*
X14466491Y-17422770D02*
X14371253Y-17441817D01*
X14542682Y-17498960D02*
X14561730Y-17508484D01*
X14561730Y-17508484D02*
X14599825Y-17508484D01*
X14599825Y-17508484D02*
X14618872Y-17498960D01*
X14618872Y-17498960D02*
X14628396Y-17479912D01*
X14628396Y-17479912D02*
X14628396Y-17470389D01*
X14628396Y-17470389D02*
X14618872Y-17451341D01*
X14618872Y-17451341D02*
X14599825Y-17441817D01*
X14599825Y-17441817D02*
X14571253Y-17441817D01*
X14571253Y-17441817D02*
X14552206Y-17432293D01*
X14552206Y-17432293D02*
X14542682Y-17413246D01*
X14542682Y-17413246D02*
X14542682Y-17403722D01*
X14542682Y-17403722D02*
X14552206Y-17384674D01*
X14552206Y-17384674D02*
X14571253Y-17375150D01*
X14571253Y-17375150D02*
X14599825Y-17375150D01*
X14599825Y-17375150D02*
X14618872Y-17384674D01*
X14695063Y-17584674D02*
X14704587Y-17575150D01*
X14704587Y-17575150D02*
X14723634Y-17546579D01*
X14723634Y-17546579D02*
X14733158Y-17527531D01*
X14733158Y-17527531D02*
X14742682Y-17498960D01*
X14742682Y-17498960D02*
X14752206Y-17451341D01*
X14752206Y-17451341D02*
X14752206Y-17413246D01*
X14752206Y-17413246D02*
X14742682Y-17365627D01*
X14742682Y-17365627D02*
X14733158Y-17337055D01*
X14733158Y-17337055D02*
X14723634Y-17318008D01*
X14723634Y-17318008D02*
X14704587Y-17289436D01*
X14704587Y-17289436D02*
X14695063Y-17279912D01*
X15056968Y-17584674D02*
X15047444Y-17575150D01*
X15047444Y-17575150D02*
X15028396Y-17546579D01*
X15028396Y-17546579D02*
X15018872Y-17527531D01*
X15018872Y-17527531D02*
X15009349Y-17498960D01*
X15009349Y-17498960D02*
X14999825Y-17451341D01*
X14999825Y-17451341D02*
X14999825Y-17413246D01*
X14999825Y-17413246D02*
X15009349Y-17365627D01*
X15009349Y-17365627D02*
X15018872Y-17337055D01*
X15018872Y-17337055D02*
X15028396Y-17318008D01*
X15028396Y-17318008D02*
X15047444Y-17289436D01*
X15047444Y-17289436D02*
X15056968Y-17279912D01*
X15133158Y-17375150D02*
X15133158Y-17508484D01*
X15133158Y-17394198D02*
X15142682Y-17384674D01*
X15142682Y-17384674D02*
X15161730Y-17375150D01*
X15161730Y-17375150D02*
X15190301Y-17375150D01*
X15190301Y-17375150D02*
X15209349Y-17384674D01*
X15209349Y-17384674D02*
X15218872Y-17403722D01*
X15218872Y-17403722D02*
X15218872Y-17508484D01*
X15342682Y-17508484D02*
X15323634Y-17498960D01*
X15323634Y-17498960D02*
X15314111Y-17489436D01*
X15314111Y-17489436D02*
X15304587Y-17470389D01*
X15304587Y-17470389D02*
X15304587Y-17413246D01*
X15304587Y-17413246D02*
X15314111Y-17394198D01*
X15314111Y-17394198D02*
X15323634Y-17384674D01*
X15323634Y-17384674D02*
X15342682Y-17375150D01*
X15342682Y-17375150D02*
X15371253Y-17375150D01*
X15371253Y-17375150D02*
X15390301Y-17384674D01*
X15390301Y-17384674D02*
X15399825Y-17394198D01*
X15399825Y-17394198D02*
X15409349Y-17413246D01*
X15409349Y-17413246D02*
X15409349Y-17470389D01*
X15409349Y-17470389D02*
X15399825Y-17489436D01*
X15399825Y-17489436D02*
X15390301Y-17498960D01*
X15390301Y-17498960D02*
X15371253Y-17508484D01*
X15371253Y-17508484D02*
X15342682Y-17508484D01*
X15466492Y-17375150D02*
X15542682Y-17375150D01*
X15495063Y-17308484D02*
X15495063Y-17479912D01*
X15495063Y-17479912D02*
X15504587Y-17498960D01*
X15504587Y-17498960D02*
X15523634Y-17508484D01*
X15523634Y-17508484D02*
X15542682Y-17508484D01*
X15761730Y-17375150D02*
X15761730Y-17575150D01*
X15761730Y-17384674D02*
X15780777Y-17375150D01*
X15780777Y-17375150D02*
X15818873Y-17375150D01*
X15818873Y-17375150D02*
X15837920Y-17384674D01*
X15837920Y-17384674D02*
X15847444Y-17394198D01*
X15847444Y-17394198D02*
X15856968Y-17413246D01*
X15856968Y-17413246D02*
X15856968Y-17470389D01*
X15856968Y-17470389D02*
X15847444Y-17489436D01*
X15847444Y-17489436D02*
X15837920Y-17498960D01*
X15837920Y-17498960D02*
X15818873Y-17508484D01*
X15818873Y-17508484D02*
X15780777Y-17508484D01*
X15780777Y-17508484D02*
X15761730Y-17498960D01*
X15971253Y-17508484D02*
X15952206Y-17498960D01*
X15952206Y-17498960D02*
X15942682Y-17479912D01*
X15942682Y-17479912D02*
X15942682Y-17308484D01*
X16133158Y-17508484D02*
X16133158Y-17403722D01*
X16133158Y-17403722D02*
X16123634Y-17384674D01*
X16123634Y-17384674D02*
X16104587Y-17375150D01*
X16104587Y-17375150D02*
X16066492Y-17375150D01*
X16066492Y-17375150D02*
X16047444Y-17384674D01*
X16133158Y-17498960D02*
X16114111Y-17508484D01*
X16114111Y-17508484D02*
X16066492Y-17508484D01*
X16066492Y-17508484D02*
X16047444Y-17498960D01*
X16047444Y-17498960D02*
X16037920Y-17479912D01*
X16037920Y-17479912D02*
X16037920Y-17460865D01*
X16037920Y-17460865D02*
X16047444Y-17441817D01*
X16047444Y-17441817D02*
X16066492Y-17432293D01*
X16066492Y-17432293D02*
X16114111Y-17432293D01*
X16114111Y-17432293D02*
X16133158Y-17422770D01*
X16199825Y-17375150D02*
X16276015Y-17375150D01*
X16228396Y-17308484D02*
X16228396Y-17479912D01*
X16228396Y-17479912D02*
X16237920Y-17498960D01*
X16237920Y-17498960D02*
X16256968Y-17508484D01*
X16256968Y-17508484D02*
X16276015Y-17508484D01*
X16418873Y-17498960D02*
X16399825Y-17508484D01*
X16399825Y-17508484D02*
X16361730Y-17508484D01*
X16361730Y-17508484D02*
X16342682Y-17498960D01*
X16342682Y-17498960D02*
X16333158Y-17479912D01*
X16333158Y-17479912D02*
X16333158Y-17403722D01*
X16333158Y-17403722D02*
X16342682Y-17384674D01*
X16342682Y-17384674D02*
X16361730Y-17375150D01*
X16361730Y-17375150D02*
X16399825Y-17375150D01*
X16399825Y-17375150D02*
X16418873Y-17384674D01*
X16418873Y-17384674D02*
X16428396Y-17403722D01*
X16428396Y-17403722D02*
X16428396Y-17422770D01*
X16428396Y-17422770D02*
X16333158Y-17441817D01*
X16599825Y-17508484D02*
X16599825Y-17308484D01*
X16599825Y-17498960D02*
X16580777Y-17508484D01*
X16580777Y-17508484D02*
X16542682Y-17508484D01*
X16542682Y-17508484D02*
X16523634Y-17498960D01*
X16523634Y-17498960D02*
X16514111Y-17489436D01*
X16514111Y-17489436D02*
X16504587Y-17470389D01*
X16504587Y-17470389D02*
X16504587Y-17413246D01*
X16504587Y-17413246D02*
X16514111Y-17394198D01*
X16514111Y-17394198D02*
X16523634Y-17384674D01*
X16523634Y-17384674D02*
X16542682Y-17375150D01*
X16542682Y-17375150D02*
X16580777Y-17375150D01*
X16580777Y-17375150D02*
X16599825Y-17384674D01*
X16676015Y-17584674D02*
X16685539Y-17575150D01*
X16685539Y-17575150D02*
X16704587Y-17546579D01*
X16704587Y-17546579D02*
X16714111Y-17527531D01*
X16714111Y-17527531D02*
X16723634Y-17498960D01*
X16723634Y-17498960D02*
X16733158Y-17451341D01*
X16733158Y-17451341D02*
X16733158Y-17413246D01*
X16733158Y-17413246D02*
X16723634Y-17365627D01*
X16723634Y-17365627D02*
X16714111Y-17337055D01*
X16714111Y-17337055D02*
X16704587Y-17318008D01*
X16704587Y-17318008D02*
X16685539Y-17289436D01*
X16685539Y-17289436D02*
X16676015Y-17279912D01*
M02*
