%TF.GenerationSoftware,KiCad,Pcbnew,9.0.8+dfsg-1*%
%TF.CreationDate,2026-09-25T19:28:36+01:00*%
%TF.ProjectId,NAVCORE-SoOP,4e415643-4f52-4452-9d53-6f4f502e6b69,rev?*%
%TF.SameCoordinates,Original*%
%TF.FileFunction,Paste,Top*%
%TF.FilePolarity,Positive*%
%FSLAX46Y46*%
G04 Gerber Fmt 4.6, Leading zero omitted, Abs format (unit mm)*
G04 Created by KiCad (PCBNEW 9.0.8+dfsg-1) date 2026-09-25 19:28:36*
%MOMM*%
%LPD*%
G01*
G04 APERTURE LIST*
G04 Aperture macros list*
%AMRoundRect*
0 Rectangle with rounded corners*
0 $1 Rounding radius*
0 $2 $3 $4 $5 $6 $7 $8 $9 X,Y pos of 4 corners*
0 Add a 4 corners polygon primitive as box body*
4,1,4,$2,$3,$4,$5,$6,$7,$8,$9,$2,$3,0*
0 Add four circle primitives for the rounded corners*
1,1,$1+$1,$2,$3*
1,1,$1+$1,$4,$5*
1,1,$1+$1,$6,$7*
1,1,$1+$1,$8,$9*
0 Add four rect primitives between the rounded corners*
20,1,$1+$1,$2,$3,$4,$5,0*
20,1,$1+$1,$4,$5,$6,$7,0*
20,1,$1+$1,$6,$7,$8,$9,0*
20,1,$1+$1,$8,$9,$2,$3,0*%
G04 Aperture macros list end*
%ADD10R,0.600000X1.700000*%
%ADD11R,1.000000X2.700000*%
%ADD12RoundRect,0.140000X-0.140000X-0.170000X0.140000X-0.170000X0.140000X0.170000X-0.140000X0.170000X0*%
%ADD13RoundRect,0.140000X0.140000X0.170000X-0.140000X0.170000X-0.140000X-0.170000X0.140000X-0.170000X0*%
%ADD14R,0.250000X0.600000*%
%ADD15R,0.600000X0.250000*%
%ADD16R,1.825000X0.250000*%
%ADD17R,1.550013X0.600000*%
%ADD18R,2.000000X1.500000*%
%ADD19RoundRect,0.135000X-0.135000X-0.185000X0.135000X-0.185000X0.135000X0.185000X-0.135000X0.185000X0*%
%ADD20RoundRect,0.218750X0.218750X0.381250X-0.218750X0.381250X-0.218750X-0.381250X0.218750X-0.381250X0*%
%ADD21R,1.104902X0.622301*%
%ADD22RoundRect,0.218750X-0.218750X-0.256250X0.218750X-0.256250X0.218750X0.256250X-0.218750X0.256250X0*%
%ADD23RoundRect,0.135000X0.185000X-0.135000X0.185000X0.135000X-0.185000X0.135000X-0.185000X-0.135000X0*%
%ADD24RoundRect,0.250000X0.250000X0.475000X-0.250000X0.475000X-0.250000X-0.475000X0.250000X-0.475000X0*%
%ADD25R,1.100000X1.000000*%
%ADD26R,1.100000X0.600000*%
%ADD27O,0.629997X2.250013*%
%ADD28O,0.300000X1.600000*%
%ADD29O,1.600000X0.300000*%
%ADD30R,0.700000X1.450013*%
%ADD31R,0.800000X2.000000*%
%ADD32R,1.000000X0.650013*%
%ADD33R,1.800000X1.200000*%
%ADD34RoundRect,0.250000X-0.300000X-1.600000X0.300000X-1.600000X0.300000X1.600000X-0.300000X1.600000X0*%
%ADD35R,0.900000X1.700000*%
%ADD36RoundRect,0.250000X0.275000X0.250000X-0.275000X0.250000X-0.275000X-0.250000X0.275000X-0.250000X0*%
%ADD37RoundRect,0.250000X0.850000X0.275000X-0.850000X0.275000X-0.850000X-0.275000X0.850000X-0.275000X0*%
%ADD38RoundRect,0.135000X0.135000X0.185000X-0.135000X0.185000X-0.135000X-0.185000X0.135000X-0.185000X0*%
%ADD39O,0.588011X1.800000*%
%ADD40R,0.550013X1.100000*%
%ADD41R,0.300000X1.100000*%
%ADD42R,0.600000X1.550013*%
%ADD43R,1.200000X1.800000*%
%ADD44R,1.300000X0.600000*%
%ADD45R,1.950013X0.800000*%
G04 APERTURE END LIST*
D10*
%TO.C,J3*%
X131605006Y-128920000D03*
X132854943Y-128920000D03*
X134105133Y-128920000D03*
X135355070Y-128920000D03*
X136605006Y-128920000D03*
X137854943Y-128920000D03*
D11*
X139704956Y-132120000D03*
X129755019Y-132119975D03*
%TD*%
D12*
%TO.C,C77*%
X107945000Y-104482500D03*
X108905000Y-104482500D03*
%TD*%
D13*
%TO.C,C28*%
X126680100Y-143751100D03*
X125720100Y-143751100D03*
%TD*%
D14*
%TO.C,U20*%
X129375000Y-122119900D03*
X130025000Y-122119900D03*
X130675200Y-122119900D03*
X131175100Y-122119900D03*
D15*
X131900000Y-121720100D03*
X131900000Y-121220000D03*
X131900000Y-120720100D03*
D14*
X131175100Y-120320100D03*
X130675200Y-120320100D03*
X130025000Y-120320100D03*
X129375000Y-120320100D03*
D16*
X129712500Y-121220000D03*
%TD*%
D17*
%TO.C,J2*%
X105727516Y-114600127D03*
X105727490Y-115598095D03*
X105727490Y-116598095D03*
X105727490Y-117598095D03*
X105727516Y-118600127D03*
X105727490Y-119598095D03*
X105727490Y-120598095D03*
X105727516Y-121599873D03*
D18*
X101852484Y-122900102D03*
X101852484Y-113299898D03*
%TD*%
D19*
%TO.C,R50*%
X102655000Y-111117500D03*
X103675000Y-111117500D03*
%TD*%
D12*
%TO.C,C84*%
X141020000Y-113900000D03*
X141980000Y-113900000D03*
%TD*%
D13*
%TO.C,C30*%
X119304700Y-142693500D03*
X118344700Y-142693500D03*
%TD*%
%TO.C,C46*%
X123740100Y-129208900D03*
X122780100Y-129208900D03*
%TD*%
D20*
%TO.C,L1*%
X126594500Y-127592600D03*
X124469500Y-127592600D03*
%TD*%
D13*
%TO.C,C13*%
X123101800Y-127412400D03*
X122141800Y-127412400D03*
%TD*%
D21*
%TO.C,U9*%
X139449975Y-126169733D03*
X139449975Y-125220533D03*
X139449975Y-124270318D03*
X136850025Y-124270318D03*
X136850025Y-126169733D03*
%TD*%
D22*
%TO.C,D2*%
X120762500Y-139860000D03*
X122337500Y-139860000D03*
%TD*%
D19*
%TO.C,R54*%
X100990000Y-138500000D03*
X102010000Y-138500000D03*
%TD*%
D23*
%TO.C,R17*%
X108695000Y-102265000D03*
X108695000Y-101245000D03*
%TD*%
D24*
%TO.C,C6*%
X118622700Y-127914600D03*
X116722700Y-127914600D03*
%TD*%
D25*
%TO.C,D4*%
X135536850Y-111643200D03*
X139006750Y-111643200D03*
%TD*%
D19*
%TO.C,R16*%
X134461500Y-104135000D03*
X135481500Y-104135000D03*
%TD*%
%TO.C,R20*%
X128440000Y-139950000D03*
X129460000Y-139950000D03*
%TD*%
D22*
%TO.C,D3*%
X116762500Y-129950000D03*
X118337500Y-129950000D03*
%TD*%
D12*
%TO.C,C81*%
X141770000Y-122650000D03*
X142730000Y-122650000D03*
%TD*%
D19*
%TO.C,R48*%
X104925000Y-110982500D03*
X105945000Y-110982500D03*
%TD*%
D13*
%TO.C,C29*%
X119332300Y-144250000D03*
X118372300Y-144250000D03*
%TD*%
D24*
%TO.C,C45*%
X124828200Y-131111000D03*
X122928200Y-131111000D03*
%TD*%
D19*
%TO.C,R1*%
X141145000Y-123915000D03*
X142165000Y-123915000D03*
%TD*%
D26*
%TO.C,U10*%
X123800102Y-143751062D03*
X123800102Y-142801100D03*
X123800102Y-141851138D03*
X121199898Y-141851138D03*
X121199898Y-143751062D03*
%TD*%
%TO.C,U17*%
X134150102Y-143149962D03*
X134150102Y-142200000D03*
X134150102Y-141250038D03*
X131549898Y-141250038D03*
X131549898Y-143149962D03*
%TD*%
D19*
%TO.C,R21*%
X133680100Y-139655000D03*
X134700100Y-139655000D03*
%TD*%
%TO.C,R14*%
X108040000Y-123950000D03*
X109060000Y-123950000D03*
%TD*%
%TO.C,R53*%
X102395000Y-104482500D03*
X103415000Y-104482500D03*
%TD*%
D27*
%TO.C,U5*%
X135134996Y-121630099D03*
X136404999Y-121630099D03*
X137675001Y-121630099D03*
X138945004Y-121630099D03*
X138945004Y-114569901D03*
X137675001Y-114569901D03*
X136404999Y-114569901D03*
X135134996Y-114569901D03*
%TD*%
D28*
%TO.C,U1*%
X112380000Y-125129911D03*
X112879873Y-125129911D03*
X113380000Y-125129911D03*
X113879873Y-125129911D03*
X114380000Y-125129911D03*
X114879873Y-125129911D03*
X115380000Y-125129911D03*
X115879873Y-125129911D03*
X116380000Y-125129911D03*
X116879873Y-125129911D03*
X117380000Y-125129911D03*
X117880127Y-125129911D03*
X118380000Y-125129911D03*
X118880127Y-125129911D03*
X119380000Y-125129911D03*
X119880127Y-125129911D03*
X120380000Y-125129911D03*
X120880127Y-125129911D03*
X121380000Y-125129911D03*
X121880127Y-125129911D03*
X122380000Y-125129911D03*
X122880127Y-125129911D03*
X123380000Y-125129911D03*
X123880127Y-125129911D03*
X124380000Y-125129911D03*
D29*
X125929911Y-123580000D03*
X125929911Y-123080127D03*
X125929911Y-122580000D03*
X125929911Y-122080127D03*
X125929911Y-121580000D03*
X125929911Y-121080127D03*
X125929911Y-120580000D03*
X125929911Y-120080127D03*
X125929911Y-119580000D03*
X125929911Y-119080127D03*
X125929911Y-118580000D03*
X125929911Y-118079873D03*
X125929911Y-117580000D03*
X125929911Y-117079873D03*
X125929911Y-116580000D03*
X125929911Y-116079873D03*
X125929911Y-115580000D03*
X125929911Y-115079873D03*
X125929911Y-114580000D03*
X125929911Y-114079873D03*
X125929911Y-113580000D03*
X125929911Y-113079873D03*
X125929911Y-112580000D03*
X125929911Y-112079873D03*
X125929911Y-111580000D03*
D28*
X124380000Y-110030089D03*
X123880127Y-110030089D03*
X123380000Y-110030089D03*
X122880127Y-110030089D03*
X122380000Y-110030089D03*
X121880127Y-110030089D03*
X121380000Y-110030089D03*
X120880127Y-110030089D03*
X120380000Y-110030089D03*
X119880127Y-110030089D03*
X119380000Y-110030089D03*
X118880127Y-110030089D03*
X118380000Y-110030089D03*
X117880127Y-110030089D03*
X117380000Y-110030089D03*
X116879873Y-110030089D03*
X116380000Y-110030089D03*
X115879873Y-110030089D03*
X115380000Y-110030089D03*
X114879873Y-110030089D03*
X114380000Y-110030089D03*
X113879873Y-110030089D03*
X113380000Y-110030089D03*
X112879873Y-110030089D03*
X112380000Y-110030089D03*
D29*
X110830089Y-111580000D03*
X110830089Y-112079873D03*
X110830089Y-112580000D03*
X110830089Y-113079873D03*
X110830089Y-113580000D03*
X110830089Y-114079873D03*
X110830089Y-114580000D03*
X110830089Y-115079873D03*
X110830089Y-115580000D03*
X110830089Y-116079873D03*
X110830089Y-116580000D03*
X110830089Y-117079873D03*
X110830089Y-117580000D03*
X110830089Y-118079873D03*
X110830089Y-118580000D03*
X110830089Y-119080127D03*
X110830089Y-119580000D03*
X110830089Y-120080127D03*
X110830089Y-120580000D03*
X110830089Y-121080127D03*
X110830089Y-121580000D03*
X110830089Y-122080127D03*
X110830089Y-122580000D03*
X110830089Y-123080127D03*
X110830089Y-123580000D03*
%TD*%
D12*
%TO.C,C68*%
X130020000Y-118800000D03*
X130980000Y-118800000D03*
%TD*%
D30*
%TO.C,J17*%
X110250127Y-140412484D03*
X111250127Y-140412484D03*
X112250127Y-140412484D03*
X113250127Y-140412484D03*
X114250127Y-140412484D03*
X115250127Y-140412484D03*
D31*
X116349949Y-144287516D03*
X109150051Y-144287516D03*
%TD*%
D32*
%TO.C,Q5*%
X103500000Y-136949962D03*
X103500000Y-135050038D03*
X101500000Y-136000000D03*
%TD*%
D17*
%TO.C,J9*%
X105563024Y-128280127D03*
X105563024Y-129280127D03*
X105562516Y-130280381D03*
X105562516Y-131280381D03*
D33*
X101686976Y-132580102D03*
X101687484Y-126979898D03*
%TD*%
D19*
%TO.C,R52*%
X103135000Y-106232500D03*
X104155000Y-106232500D03*
%TD*%
D34*
%TO.C,L2*%
X129290000Y-108550000D03*
X132290000Y-108550000D03*
%TD*%
D12*
%TO.C,C78*%
X131420000Y-115090000D03*
X132380000Y-115090000D03*
%TD*%
%TO.C,C79*%
X130420000Y-123600000D03*
X131380000Y-123600000D03*
%TD*%
D35*
%TO.C,SW2*%
X114755200Y-129362000D03*
X111355200Y-129362000D03*
%TD*%
D36*
%TO.C,J12*%
X132000000Y-103450000D03*
D37*
X130475000Y-104925000D03*
X130475000Y-101975000D03*
%TD*%
D19*
%TO.C,R15*%
X108040000Y-125450000D03*
X109060000Y-125450000D03*
%TD*%
%TO.C,R47*%
X126430000Y-108200000D03*
X127450000Y-108200000D03*
%TD*%
D17*
%TO.C,J19*%
X139761976Y-104749873D03*
X139761976Y-103749873D03*
X139762484Y-102749619D03*
X139762484Y-101749619D03*
D33*
X143638024Y-100449898D03*
X143637516Y-106050102D03*
%TD*%
D32*
%TO.C,Q1*%
X143380000Y-111719962D03*
X143380000Y-109820038D03*
X141380000Y-110770000D03*
%TD*%
D12*
%TO.C,C75*%
X101915000Y-103232500D03*
X102875000Y-103232500D03*
%TD*%
D19*
%TO.C,R40*%
X130855000Y-126113100D03*
X131875000Y-126113100D03*
%TD*%
%TO.C,R57*%
X142240000Y-121400000D03*
X143260000Y-121400000D03*
%TD*%
D38*
%TO.C,R36*%
X142110000Y-117917400D03*
X141090000Y-117917400D03*
%TD*%
D39*
%TO.C,U11*%
X111434996Y-107169949D03*
X112704999Y-107169949D03*
X113975001Y-107169949D03*
X115245004Y-107169949D03*
X115245004Y-101970051D03*
X113975001Y-101970051D03*
X112704999Y-101970051D03*
X111434996Y-101970051D03*
%TD*%
D40*
%TO.C,J1*%
X125700025Y-106200032D03*
X124899924Y-106200032D03*
D41*
X123749809Y-106200032D03*
X122750064Y-106200032D03*
X122249936Y-106200032D03*
X121249936Y-106200032D03*
D40*
X119299975Y-106200032D03*
X120099822Y-106200032D03*
D41*
X120749809Y-106200032D03*
X121750064Y-106200032D03*
X123249936Y-106200032D03*
X124249936Y-106200032D03*
%TD*%
D42*
%TO.C,J18*%
X102500000Y-140412484D03*
X103500000Y-140412484D03*
D43*
X104799975Y-144287516D03*
X101200025Y-144287516D03*
%TD*%
D44*
%TO.C,J15*%
X139512573Y-143250000D03*
X139512573Y-142250000D03*
X139512573Y-141250000D03*
D45*
X143487427Y-144350076D03*
X143487427Y-140149924D03*
%TD*%
D14*
%TO.C,U8*%
X129375000Y-113839900D03*
X130025000Y-113839900D03*
X130675200Y-113839900D03*
X131175100Y-113839900D03*
D15*
X131900000Y-113440100D03*
X131900000Y-112940000D03*
X131900000Y-112440100D03*
D14*
X131175100Y-112040100D03*
X130675200Y-112040100D03*
X130025000Y-112040100D03*
X129375000Y-112040100D03*
D16*
X129712500Y-112940000D03*
%TD*%
D19*
%TO.C,R55*%
X102990000Y-138500000D03*
X104010000Y-138500000D03*
%TD*%
%TO.C,R51*%
X103175000Y-109617500D03*
X104195000Y-109617500D03*
%TD*%
D12*
%TO.C,C86*%
X142520000Y-116400000D03*
X143480000Y-116400000D03*
%TD*%
M02*
