%TF.GenerationSoftware,KiCad,Pcbnew,9.0.8+dfsg-1*%
%TF.CreationDate,2026-09-21T19:56:41+01:00*%
%TF.ProjectId,NAVCORE-SoOP,4e415643-4f52-4452-9d53-6f4f502e6b69,rev?*%
%TF.SameCoordinates,Original*%
%TF.FileFunction,Legend,Top*%
%TF.FilePolarity,Positive*%
%FSLAX46Y46*%
G04 Gerber Fmt 4.6, Leading zero omitted, Abs format (unit mm)*
G04 Created by KiCad (PCBNEW 9.0.8+dfsg-1) date 2026-09-21 19:56:41*
%MOMM*%
%LPD*%
G01*
G04 APERTURE LIST*
%ADD10C,0.120000*%
%ADD11C,0.150000*%
%ADD12C,0.254001*%
%ADD13C,0.248920*%
%ADD14C,0.152400*%
%ADD15C,0.100000*%
%ADD16C,0.300000*%
%ADD17C,0.200000*%
%ADD18C,0.600000*%
%ADD19C,0.150013*%
G04 APERTURE END LIST*
D10*
X134463333Y-126483855D02*
X134463333Y-127055283D01*
X134463333Y-127055283D02*
X134425238Y-127169569D01*
X134425238Y-127169569D02*
X134349047Y-127245760D01*
X134349047Y-127245760D02*
X134234762Y-127283855D01*
X134234762Y-127283855D02*
X134158571Y-127283855D01*
X134768095Y-126483855D02*
X135263333Y-126483855D01*
X135263333Y-126483855D02*
X134996667Y-126788617D01*
X134996667Y-126788617D02*
X135110952Y-126788617D01*
X135110952Y-126788617D02*
X135187143Y-126826712D01*
X135187143Y-126826712D02*
X135225238Y-126864807D01*
X135225238Y-126864807D02*
X135263333Y-126940998D01*
X135263333Y-126940998D02*
X135263333Y-127131474D01*
X135263333Y-127131474D02*
X135225238Y-127207664D01*
X135225238Y-127207664D02*
X135187143Y-127245760D01*
X135187143Y-127245760D02*
X135110952Y-127283855D01*
X135110952Y-127283855D02*
X134882381Y-127283855D01*
X134882381Y-127283855D02*
X134806190Y-127245760D01*
X134806190Y-127245760D02*
X134768095Y-127207664D01*
D11*
X107782142Y-103682080D02*
X107734523Y-103729700D01*
X107734523Y-103729700D02*
X107591666Y-103777319D01*
X107591666Y-103777319D02*
X107496428Y-103777319D01*
X107496428Y-103777319D02*
X107353571Y-103729700D01*
X107353571Y-103729700D02*
X107258333Y-103634461D01*
X107258333Y-103634461D02*
X107210714Y-103539223D01*
X107210714Y-103539223D02*
X107163095Y-103348747D01*
X107163095Y-103348747D02*
X107163095Y-103205890D01*
X107163095Y-103205890D02*
X107210714Y-103015414D01*
X107210714Y-103015414D02*
X107258333Y-102920176D01*
X107258333Y-102920176D02*
X107353571Y-102824938D01*
X107353571Y-102824938D02*
X107496428Y-102777319D01*
X107496428Y-102777319D02*
X107591666Y-102777319D01*
X107591666Y-102777319D02*
X107734523Y-102824938D01*
X107734523Y-102824938D02*
X107782142Y-102872557D01*
X108115476Y-102777319D02*
X108782142Y-102777319D01*
X108782142Y-102777319D02*
X108353571Y-103777319D01*
X109067857Y-102777319D02*
X109734523Y-102777319D01*
X109734523Y-102777319D02*
X109305952Y-103777319D01*
X129261905Y-118824819D02*
X129261905Y-119634342D01*
X129261905Y-119634342D02*
X129309524Y-119729580D01*
X129309524Y-119729580D02*
X129357143Y-119777200D01*
X129357143Y-119777200D02*
X129452381Y-119824819D01*
X129452381Y-119824819D02*
X129642857Y-119824819D01*
X129642857Y-119824819D02*
X129738095Y-119777200D01*
X129738095Y-119777200D02*
X129785714Y-119729580D01*
X129785714Y-119729580D02*
X129833333Y-119634342D01*
X129833333Y-119634342D02*
X129833333Y-118824819D01*
X130261905Y-118920057D02*
X130309524Y-118872438D01*
X130309524Y-118872438D02*
X130404762Y-118824819D01*
X130404762Y-118824819D02*
X130642857Y-118824819D01*
X130642857Y-118824819D02*
X130738095Y-118872438D01*
X130738095Y-118872438D02*
X130785714Y-118920057D01*
X130785714Y-118920057D02*
X130833333Y-119015295D01*
X130833333Y-119015295D02*
X130833333Y-119110533D01*
X130833333Y-119110533D02*
X130785714Y-119253390D01*
X130785714Y-119253390D02*
X130214286Y-119824819D01*
X130214286Y-119824819D02*
X130833333Y-119824819D01*
X131452381Y-118824819D02*
X131547619Y-118824819D01*
X131547619Y-118824819D02*
X131642857Y-118872438D01*
X131642857Y-118872438D02*
X131690476Y-118920057D01*
X131690476Y-118920057D02*
X131738095Y-119015295D01*
X131738095Y-119015295D02*
X131785714Y-119205771D01*
X131785714Y-119205771D02*
X131785714Y-119443866D01*
X131785714Y-119443866D02*
X131738095Y-119634342D01*
X131738095Y-119634342D02*
X131690476Y-119729580D01*
X131690476Y-119729580D02*
X131642857Y-119777200D01*
X131642857Y-119777200D02*
X131547619Y-119824819D01*
X131547619Y-119824819D02*
X131452381Y-119824819D01*
X131452381Y-119824819D02*
X131357143Y-119777200D01*
X131357143Y-119777200D02*
X131309524Y-119729580D01*
X131309524Y-119729580D02*
X131261905Y-119634342D01*
X131261905Y-119634342D02*
X131214286Y-119443866D01*
X131214286Y-119443866D02*
X131214286Y-119205771D01*
X131214286Y-119205771D02*
X131261905Y-119015295D01*
X131261905Y-119015295D02*
X131309524Y-118920057D01*
X131309524Y-118920057D02*
X131357143Y-118872438D01*
X131357143Y-118872438D02*
X131452381Y-118824819D01*
D10*
X107291371Y-118346663D02*
X107862799Y-118346663D01*
X107862799Y-118346663D02*
X107977085Y-118384758D01*
X107977085Y-118384758D02*
X108053276Y-118460949D01*
X108053276Y-118460949D02*
X108091371Y-118575234D01*
X108091371Y-118575234D02*
X108091371Y-118651425D01*
X107367561Y-118003806D02*
X107329466Y-117965710D01*
X107329466Y-117965710D02*
X107291371Y-117889520D01*
X107291371Y-117889520D02*
X107291371Y-117699044D01*
X107291371Y-117699044D02*
X107329466Y-117622853D01*
X107329466Y-117622853D02*
X107367561Y-117584758D01*
X107367561Y-117584758D02*
X107443752Y-117546663D01*
X107443752Y-117546663D02*
X107519942Y-117546663D01*
X107519942Y-117546663D02*
X107634228Y-117584758D01*
X107634228Y-117584758D02*
X108091371Y-118041901D01*
X108091371Y-118041901D02*
X108091371Y-117546663D01*
X118978571Y-135461855D02*
X118978571Y-134661855D01*
X118978571Y-134661855D02*
X119283333Y-134661855D01*
X119283333Y-134661855D02*
X119359523Y-134699950D01*
X119359523Y-134699950D02*
X119397618Y-134738045D01*
X119397618Y-134738045D02*
X119435714Y-134814236D01*
X119435714Y-134814236D02*
X119435714Y-134928521D01*
X119435714Y-134928521D02*
X119397618Y-135004712D01*
X119397618Y-135004712D02*
X119359523Y-135042807D01*
X119359523Y-135042807D02*
X119283333Y-135080902D01*
X119283333Y-135080902D02*
X118978571Y-135080902D01*
X119702380Y-134661855D02*
X120235714Y-134661855D01*
X120235714Y-134661855D02*
X119702380Y-135461855D01*
X119702380Y-135461855D02*
X120235714Y-135461855D01*
X120502380Y-134738045D02*
X120540476Y-134699950D01*
X120540476Y-134699950D02*
X120616666Y-134661855D01*
X120616666Y-134661855D02*
X120807142Y-134661855D01*
X120807142Y-134661855D02*
X120883333Y-134699950D01*
X120883333Y-134699950D02*
X120921428Y-134738045D01*
X120921428Y-134738045D02*
X120959523Y-134814236D01*
X120959523Y-134814236D02*
X120959523Y-134890426D01*
X120959523Y-134890426D02*
X120921428Y-135004712D01*
X120921428Y-135004712D02*
X120464285Y-135461855D01*
X120464285Y-135461855D02*
X120959523Y-135461855D01*
D11*
X102522142Y-110402319D02*
X102188809Y-109926128D01*
X101950714Y-110402319D02*
X101950714Y-109402319D01*
X101950714Y-109402319D02*
X102331666Y-109402319D01*
X102331666Y-109402319D02*
X102426904Y-109449938D01*
X102426904Y-109449938D02*
X102474523Y-109497557D01*
X102474523Y-109497557D02*
X102522142Y-109592795D01*
X102522142Y-109592795D02*
X102522142Y-109735652D01*
X102522142Y-109735652D02*
X102474523Y-109830890D01*
X102474523Y-109830890D02*
X102426904Y-109878509D01*
X102426904Y-109878509D02*
X102331666Y-109926128D01*
X102331666Y-109926128D02*
X101950714Y-109926128D01*
X103426904Y-109402319D02*
X102950714Y-109402319D01*
X102950714Y-109402319D02*
X102903095Y-109878509D01*
X102903095Y-109878509D02*
X102950714Y-109830890D01*
X102950714Y-109830890D02*
X103045952Y-109783271D01*
X103045952Y-109783271D02*
X103284047Y-109783271D01*
X103284047Y-109783271D02*
X103379285Y-109830890D01*
X103379285Y-109830890D02*
X103426904Y-109878509D01*
X103426904Y-109878509D02*
X103474523Y-109973747D01*
X103474523Y-109973747D02*
X103474523Y-110211842D01*
X103474523Y-110211842D02*
X103426904Y-110307080D01*
X103426904Y-110307080D02*
X103379285Y-110354700D01*
X103379285Y-110354700D02*
X103284047Y-110402319D01*
X103284047Y-110402319D02*
X103045952Y-110402319D01*
X103045952Y-110402319D02*
X102950714Y-110354700D01*
X102950714Y-110354700D02*
X102903095Y-110307080D01*
X104093571Y-109402319D02*
X104188809Y-109402319D01*
X104188809Y-109402319D02*
X104284047Y-109449938D01*
X104284047Y-109449938D02*
X104331666Y-109497557D01*
X104331666Y-109497557D02*
X104379285Y-109592795D01*
X104379285Y-109592795D02*
X104426904Y-109783271D01*
X104426904Y-109783271D02*
X104426904Y-110021366D01*
X104426904Y-110021366D02*
X104379285Y-110211842D01*
X104379285Y-110211842D02*
X104331666Y-110307080D01*
X104331666Y-110307080D02*
X104284047Y-110354700D01*
X104284047Y-110354700D02*
X104188809Y-110402319D01*
X104188809Y-110402319D02*
X104093571Y-110402319D01*
X104093571Y-110402319D02*
X103998333Y-110354700D01*
X103998333Y-110354700D02*
X103950714Y-110307080D01*
X103950714Y-110307080D02*
X103903095Y-110211842D01*
X103903095Y-110211842D02*
X103855476Y-110021366D01*
X103855476Y-110021366D02*
X103855476Y-109783271D01*
X103855476Y-109783271D02*
X103903095Y-109592795D01*
X103903095Y-109592795D02*
X103950714Y-109497557D01*
X103950714Y-109497557D02*
X103998333Y-109449938D01*
X103998333Y-109449938D02*
X104093571Y-109402319D01*
D10*
X134413880Y-125817153D02*
X135061499Y-125817153D01*
X135061499Y-125817153D02*
X135137689Y-125779058D01*
X135137689Y-125779058D02*
X135175785Y-125740963D01*
X135175785Y-125740963D02*
X135213880Y-125664772D01*
X135213880Y-125664772D02*
X135213880Y-125512391D01*
X135213880Y-125512391D02*
X135175785Y-125436201D01*
X135175785Y-125436201D02*
X135137689Y-125398106D01*
X135137689Y-125398106D02*
X135061499Y-125360010D01*
X135061499Y-125360010D02*
X134413880Y-125360010D01*
X135213880Y-124940963D02*
X135213880Y-124788582D01*
X135213880Y-124788582D02*
X135175785Y-124712392D01*
X135175785Y-124712392D02*
X135137689Y-124674296D01*
X135137689Y-124674296D02*
X135023404Y-124598106D01*
X135023404Y-124598106D02*
X134871023Y-124560011D01*
X134871023Y-124560011D02*
X134566261Y-124560011D01*
X134566261Y-124560011D02*
X134490070Y-124598106D01*
X134490070Y-124598106D02*
X134451975Y-124636201D01*
X134451975Y-124636201D02*
X134413880Y-124712392D01*
X134413880Y-124712392D02*
X134413880Y-124864773D01*
X134413880Y-124864773D02*
X134451975Y-124940963D01*
X134451975Y-124940963D02*
X134490070Y-124979058D01*
X134490070Y-124979058D02*
X134566261Y-125017154D01*
X134566261Y-125017154D02*
X134756737Y-125017154D01*
X134756737Y-125017154D02*
X134832927Y-124979058D01*
X134832927Y-124979058D02*
X134871023Y-124940963D01*
X134871023Y-124940963D02*
X134909118Y-124864773D01*
X134909118Y-124864773D02*
X134909118Y-124712392D01*
X134909118Y-124712392D02*
X134871023Y-124636201D01*
X134871023Y-124636201D02*
X134832927Y-124598106D01*
X134832927Y-124598106D02*
X134756737Y-124560011D01*
X120959524Y-138793855D02*
X120959524Y-137993855D01*
X120959524Y-137993855D02*
X121150000Y-137993855D01*
X121150000Y-137993855D02*
X121264286Y-138031950D01*
X121264286Y-138031950D02*
X121340476Y-138108140D01*
X121340476Y-138108140D02*
X121378571Y-138184331D01*
X121378571Y-138184331D02*
X121416667Y-138336712D01*
X121416667Y-138336712D02*
X121416667Y-138450998D01*
X121416667Y-138450998D02*
X121378571Y-138603379D01*
X121378571Y-138603379D02*
X121340476Y-138679569D01*
X121340476Y-138679569D02*
X121264286Y-138755760D01*
X121264286Y-138755760D02*
X121150000Y-138793855D01*
X121150000Y-138793855D02*
X120959524Y-138793855D01*
X121721428Y-138070045D02*
X121759524Y-138031950D01*
X121759524Y-138031950D02*
X121835714Y-137993855D01*
X121835714Y-137993855D02*
X122026190Y-137993855D01*
X122026190Y-137993855D02*
X122102381Y-138031950D01*
X122102381Y-138031950D02*
X122140476Y-138070045D01*
X122140476Y-138070045D02*
X122178571Y-138146236D01*
X122178571Y-138146236D02*
X122178571Y-138222426D01*
X122178571Y-138222426D02*
X122140476Y-138336712D01*
X122140476Y-138336712D02*
X121683333Y-138793855D01*
X121683333Y-138793855D02*
X122178571Y-138793855D01*
D11*
X100857142Y-137784819D02*
X100523809Y-137308628D01*
X100285714Y-137784819D02*
X100285714Y-136784819D01*
X100285714Y-136784819D02*
X100666666Y-136784819D01*
X100666666Y-136784819D02*
X100761904Y-136832438D01*
X100761904Y-136832438D02*
X100809523Y-136880057D01*
X100809523Y-136880057D02*
X100857142Y-136975295D01*
X100857142Y-136975295D02*
X100857142Y-137118152D01*
X100857142Y-137118152D02*
X100809523Y-137213390D01*
X100809523Y-137213390D02*
X100761904Y-137261009D01*
X100761904Y-137261009D02*
X100666666Y-137308628D01*
X100666666Y-137308628D02*
X100285714Y-137308628D01*
X101761904Y-136784819D02*
X101285714Y-136784819D01*
X101285714Y-136784819D02*
X101238095Y-137261009D01*
X101238095Y-137261009D02*
X101285714Y-137213390D01*
X101285714Y-137213390D02*
X101380952Y-137165771D01*
X101380952Y-137165771D02*
X101619047Y-137165771D01*
X101619047Y-137165771D02*
X101714285Y-137213390D01*
X101714285Y-137213390D02*
X101761904Y-137261009D01*
X101761904Y-137261009D02*
X101809523Y-137356247D01*
X101809523Y-137356247D02*
X101809523Y-137594342D01*
X101809523Y-137594342D02*
X101761904Y-137689580D01*
X101761904Y-137689580D02*
X101714285Y-137737200D01*
X101714285Y-137737200D02*
X101619047Y-137784819D01*
X101619047Y-137784819D02*
X101380952Y-137784819D01*
X101380952Y-137784819D02*
X101285714Y-137737200D01*
X101285714Y-137737200D02*
X101238095Y-137689580D01*
X102666666Y-137118152D02*
X102666666Y-137784819D01*
X102428571Y-136737200D02*
X102190476Y-137451485D01*
X102190476Y-137451485D02*
X102809523Y-137451485D01*
D10*
X116959524Y-128883855D02*
X116959524Y-128083855D01*
X116959524Y-128083855D02*
X117150000Y-128083855D01*
X117150000Y-128083855D02*
X117264286Y-128121950D01*
X117264286Y-128121950D02*
X117340476Y-128198140D01*
X117340476Y-128198140D02*
X117378571Y-128274331D01*
X117378571Y-128274331D02*
X117416667Y-128426712D01*
X117416667Y-128426712D02*
X117416667Y-128540998D01*
X117416667Y-128540998D02*
X117378571Y-128693379D01*
X117378571Y-128693379D02*
X117340476Y-128769569D01*
X117340476Y-128769569D02*
X117264286Y-128845760D01*
X117264286Y-128845760D02*
X117150000Y-128883855D01*
X117150000Y-128883855D02*
X116959524Y-128883855D01*
X117683333Y-128083855D02*
X118178571Y-128083855D01*
X118178571Y-128083855D02*
X117911905Y-128388617D01*
X117911905Y-128388617D02*
X118026190Y-128388617D01*
X118026190Y-128388617D02*
X118102381Y-128426712D01*
X118102381Y-128426712D02*
X118140476Y-128464807D01*
X118140476Y-128464807D02*
X118178571Y-128540998D01*
X118178571Y-128540998D02*
X118178571Y-128731474D01*
X118178571Y-128731474D02*
X118140476Y-128807664D01*
X118140476Y-128807664D02*
X118102381Y-128845760D01*
X118102381Y-128845760D02*
X118026190Y-128883855D01*
X118026190Y-128883855D02*
X117797619Y-128883855D01*
X117797619Y-128883855D02*
X117721428Y-128845760D01*
X117721428Y-128845760D02*
X117683333Y-128807664D01*
D11*
X104792142Y-110267319D02*
X104458809Y-109791128D01*
X104220714Y-110267319D02*
X104220714Y-109267319D01*
X104220714Y-109267319D02*
X104601666Y-109267319D01*
X104601666Y-109267319D02*
X104696904Y-109314938D01*
X104696904Y-109314938D02*
X104744523Y-109362557D01*
X104744523Y-109362557D02*
X104792142Y-109457795D01*
X104792142Y-109457795D02*
X104792142Y-109600652D01*
X104792142Y-109600652D02*
X104744523Y-109695890D01*
X104744523Y-109695890D02*
X104696904Y-109743509D01*
X104696904Y-109743509D02*
X104601666Y-109791128D01*
X104601666Y-109791128D02*
X104220714Y-109791128D01*
X105649285Y-109600652D02*
X105649285Y-110267319D01*
X105411190Y-109219700D02*
X105173095Y-109933985D01*
X105173095Y-109933985D02*
X105792142Y-109933985D01*
X106315952Y-109695890D02*
X106220714Y-109648271D01*
X106220714Y-109648271D02*
X106173095Y-109600652D01*
X106173095Y-109600652D02*
X106125476Y-109505414D01*
X106125476Y-109505414D02*
X106125476Y-109457795D01*
X106125476Y-109457795D02*
X106173095Y-109362557D01*
X106173095Y-109362557D02*
X106220714Y-109314938D01*
X106220714Y-109314938D02*
X106315952Y-109267319D01*
X106315952Y-109267319D02*
X106506428Y-109267319D01*
X106506428Y-109267319D02*
X106601666Y-109314938D01*
X106601666Y-109314938D02*
X106649285Y-109362557D01*
X106649285Y-109362557D02*
X106696904Y-109457795D01*
X106696904Y-109457795D02*
X106696904Y-109505414D01*
X106696904Y-109505414D02*
X106649285Y-109600652D01*
X106649285Y-109600652D02*
X106601666Y-109648271D01*
X106601666Y-109648271D02*
X106506428Y-109695890D01*
X106506428Y-109695890D02*
X106315952Y-109695890D01*
X106315952Y-109695890D02*
X106220714Y-109743509D01*
X106220714Y-109743509D02*
X106173095Y-109791128D01*
X106173095Y-109791128D02*
X106125476Y-109886366D01*
X106125476Y-109886366D02*
X106125476Y-110076842D01*
X106125476Y-110076842D02*
X106173095Y-110172080D01*
X106173095Y-110172080D02*
X106220714Y-110219700D01*
X106220714Y-110219700D02*
X106315952Y-110267319D01*
X106315952Y-110267319D02*
X106506428Y-110267319D01*
X106506428Y-110267319D02*
X106601666Y-110219700D01*
X106601666Y-110219700D02*
X106649285Y-110172080D01*
X106649285Y-110172080D02*
X106696904Y-110076842D01*
X106696904Y-110076842D02*
X106696904Y-109886366D01*
X106696904Y-109886366D02*
X106649285Y-109791128D01*
X106649285Y-109791128D02*
X106601666Y-109743509D01*
X106601666Y-109743509D02*
X106506428Y-109695890D01*
D10*
X121509524Y-138814993D02*
X121509524Y-139462612D01*
X121509524Y-139462612D02*
X121547619Y-139538802D01*
X121547619Y-139538802D02*
X121585714Y-139576898D01*
X121585714Y-139576898D02*
X121661905Y-139614993D01*
X121661905Y-139614993D02*
X121814286Y-139614993D01*
X121814286Y-139614993D02*
X121890476Y-139576898D01*
X121890476Y-139576898D02*
X121928571Y-139538802D01*
X121928571Y-139538802D02*
X121966667Y-139462612D01*
X121966667Y-139462612D02*
X121966667Y-138814993D01*
X122766666Y-139614993D02*
X122309523Y-139614993D01*
X122538095Y-139614993D02*
X122538095Y-138814993D01*
X122538095Y-138814993D02*
X122461904Y-138929278D01*
X122461904Y-138929278D02*
X122385714Y-139005469D01*
X122385714Y-139005469D02*
X122309523Y-139043564D01*
X123261905Y-138814993D02*
X123338095Y-138814993D01*
X123338095Y-138814993D02*
X123414286Y-138853088D01*
X123414286Y-138853088D02*
X123452381Y-138891183D01*
X123452381Y-138891183D02*
X123490476Y-138967374D01*
X123490476Y-138967374D02*
X123528571Y-139119755D01*
X123528571Y-139119755D02*
X123528571Y-139310231D01*
X123528571Y-139310231D02*
X123490476Y-139462612D01*
X123490476Y-139462612D02*
X123452381Y-139538802D01*
X123452381Y-139538802D02*
X123414286Y-139576898D01*
X123414286Y-139576898D02*
X123338095Y-139614993D01*
X123338095Y-139614993D02*
X123261905Y-139614993D01*
X123261905Y-139614993D02*
X123185714Y-139576898D01*
X123185714Y-139576898D02*
X123147619Y-139538802D01*
X123147619Y-139538802D02*
X123109524Y-139462612D01*
X123109524Y-139462612D02*
X123071428Y-139310231D01*
X123071428Y-139310231D02*
X123071428Y-139119755D01*
X123071428Y-139119755D02*
X123109524Y-138967374D01*
X123109524Y-138967374D02*
X123147619Y-138891183D01*
X123147619Y-138891183D02*
X123185714Y-138853088D01*
X123185714Y-138853088D02*
X123261905Y-138814993D01*
X131859524Y-138213893D02*
X131859524Y-138861512D01*
X131859524Y-138861512D02*
X131897619Y-138937702D01*
X131897619Y-138937702D02*
X131935714Y-138975798D01*
X131935714Y-138975798D02*
X132011905Y-139013893D01*
X132011905Y-139013893D02*
X132164286Y-139013893D01*
X132164286Y-139013893D02*
X132240476Y-138975798D01*
X132240476Y-138975798D02*
X132278571Y-138937702D01*
X132278571Y-138937702D02*
X132316667Y-138861512D01*
X132316667Y-138861512D02*
X132316667Y-138213893D01*
X133116666Y-139013893D02*
X132659523Y-139013893D01*
X132888095Y-139013893D02*
X132888095Y-138213893D01*
X132888095Y-138213893D02*
X132811904Y-138328178D01*
X132811904Y-138328178D02*
X132735714Y-138404369D01*
X132735714Y-138404369D02*
X132659523Y-138442464D01*
X133383333Y-138213893D02*
X133916667Y-138213893D01*
X133916667Y-138213893D02*
X133573809Y-139013893D01*
D11*
X102262142Y-103767319D02*
X101928809Y-103291128D01*
X101690714Y-103767319D02*
X101690714Y-102767319D01*
X101690714Y-102767319D02*
X102071666Y-102767319D01*
X102071666Y-102767319D02*
X102166904Y-102814938D01*
X102166904Y-102814938D02*
X102214523Y-102862557D01*
X102214523Y-102862557D02*
X102262142Y-102957795D01*
X102262142Y-102957795D02*
X102262142Y-103100652D01*
X102262142Y-103100652D02*
X102214523Y-103195890D01*
X102214523Y-103195890D02*
X102166904Y-103243509D01*
X102166904Y-103243509D02*
X102071666Y-103291128D01*
X102071666Y-103291128D02*
X101690714Y-103291128D01*
X103166904Y-102767319D02*
X102690714Y-102767319D01*
X102690714Y-102767319D02*
X102643095Y-103243509D01*
X102643095Y-103243509D02*
X102690714Y-103195890D01*
X102690714Y-103195890D02*
X102785952Y-103148271D01*
X102785952Y-103148271D02*
X103024047Y-103148271D01*
X103024047Y-103148271D02*
X103119285Y-103195890D01*
X103119285Y-103195890D02*
X103166904Y-103243509D01*
X103166904Y-103243509D02*
X103214523Y-103338747D01*
X103214523Y-103338747D02*
X103214523Y-103576842D01*
X103214523Y-103576842D02*
X103166904Y-103672080D01*
X103166904Y-103672080D02*
X103119285Y-103719700D01*
X103119285Y-103719700D02*
X103024047Y-103767319D01*
X103024047Y-103767319D02*
X102785952Y-103767319D01*
X102785952Y-103767319D02*
X102690714Y-103719700D01*
X102690714Y-103719700D02*
X102643095Y-103672080D01*
X103547857Y-102767319D02*
X104166904Y-102767319D01*
X104166904Y-102767319D02*
X103833571Y-103148271D01*
X103833571Y-103148271D02*
X103976428Y-103148271D01*
X103976428Y-103148271D02*
X104071666Y-103195890D01*
X104071666Y-103195890D02*
X104119285Y-103243509D01*
X104119285Y-103243509D02*
X104166904Y-103338747D01*
X104166904Y-103338747D02*
X104166904Y-103576842D01*
X104166904Y-103576842D02*
X104119285Y-103672080D01*
X104119285Y-103672080D02*
X104071666Y-103719700D01*
X104071666Y-103719700D02*
X103976428Y-103767319D01*
X103976428Y-103767319D02*
X103690714Y-103767319D01*
X103690714Y-103767319D02*
X103595476Y-103719700D01*
X103595476Y-103719700D02*
X103547857Y-103672080D01*
D10*
X136430476Y-112133756D02*
X136430476Y-112781375D01*
X136430476Y-112781375D02*
X136468571Y-112857565D01*
X136468571Y-112857565D02*
X136506666Y-112895661D01*
X136506666Y-112895661D02*
X136582857Y-112933756D01*
X136582857Y-112933756D02*
X136735238Y-112933756D01*
X136735238Y-112933756D02*
X136811428Y-112895661D01*
X136811428Y-112895661D02*
X136849523Y-112857565D01*
X136849523Y-112857565D02*
X136887619Y-112781375D01*
X136887619Y-112781375D02*
X136887619Y-112133756D01*
X137649523Y-112133756D02*
X137268571Y-112133756D01*
X137268571Y-112133756D02*
X137230475Y-112514708D01*
X137230475Y-112514708D02*
X137268571Y-112476613D01*
X137268571Y-112476613D02*
X137344761Y-112438518D01*
X137344761Y-112438518D02*
X137535237Y-112438518D01*
X137535237Y-112438518D02*
X137611428Y-112476613D01*
X137611428Y-112476613D02*
X137649523Y-112514708D01*
X137649523Y-112514708D02*
X137687618Y-112590899D01*
X137687618Y-112590899D02*
X137687618Y-112781375D01*
X137687618Y-112781375D02*
X137649523Y-112857565D01*
X137649523Y-112857565D02*
X137611428Y-112895661D01*
X137611428Y-112895661D02*
X137535237Y-112933756D01*
X137535237Y-112933756D02*
X137344761Y-112933756D01*
X137344761Y-112933756D02*
X137268571Y-112895661D01*
X137268571Y-112895661D02*
X137230475Y-112857565D01*
X117770476Y-107593944D02*
X117770476Y-108241563D01*
X117770476Y-108241563D02*
X117808571Y-108317753D01*
X117808571Y-108317753D02*
X117846666Y-108355849D01*
X117846666Y-108355849D02*
X117922857Y-108393944D01*
X117922857Y-108393944D02*
X118075238Y-108393944D01*
X118075238Y-108393944D02*
X118151428Y-108355849D01*
X118151428Y-108355849D02*
X118189523Y-108317753D01*
X118189523Y-108317753D02*
X118227619Y-108241563D01*
X118227619Y-108241563D02*
X118227619Y-107593944D01*
X119027618Y-108393944D02*
X118570475Y-108393944D01*
X118799047Y-108393944D02*
X118799047Y-107593944D01*
X118799047Y-107593944D02*
X118722856Y-107708229D01*
X118722856Y-107708229D02*
X118646666Y-107784420D01*
X118646666Y-107784420D02*
X118570475Y-107822515D01*
D11*
X111940476Y-137867303D02*
X111940476Y-138581588D01*
X111940476Y-138581588D02*
X111892857Y-138724445D01*
X111892857Y-138724445D02*
X111797619Y-138819684D01*
X111797619Y-138819684D02*
X111654762Y-138867303D01*
X111654762Y-138867303D02*
X111559524Y-138867303D01*
X112940476Y-138867303D02*
X112369048Y-138867303D01*
X112654762Y-138867303D02*
X112654762Y-137867303D01*
X112654762Y-137867303D02*
X112559524Y-138010160D01*
X112559524Y-138010160D02*
X112464286Y-138105398D01*
X112464286Y-138105398D02*
X112369048Y-138153017D01*
X113273810Y-137867303D02*
X113940476Y-137867303D01*
X113940476Y-137867303D02*
X113511905Y-138867303D01*
X102404761Y-133023844D02*
X102309523Y-132976225D01*
X102309523Y-132976225D02*
X102214285Y-132880987D01*
X102214285Y-132880987D02*
X102071428Y-132738129D01*
X102071428Y-132738129D02*
X101976190Y-132690510D01*
X101976190Y-132690510D02*
X101880952Y-132690510D01*
X101928571Y-132928606D02*
X101833333Y-132880987D01*
X101833333Y-132880987D02*
X101738095Y-132785748D01*
X101738095Y-132785748D02*
X101690476Y-132595272D01*
X101690476Y-132595272D02*
X101690476Y-132261939D01*
X101690476Y-132261939D02*
X101738095Y-132071463D01*
X101738095Y-132071463D02*
X101833333Y-131976225D01*
X101833333Y-131976225D02*
X101928571Y-131928606D01*
X101928571Y-131928606D02*
X102119047Y-131928606D01*
X102119047Y-131928606D02*
X102214285Y-131976225D01*
X102214285Y-131976225D02*
X102309523Y-132071463D01*
X102309523Y-132071463D02*
X102357142Y-132261939D01*
X102357142Y-132261939D02*
X102357142Y-132595272D01*
X102357142Y-132595272D02*
X102309523Y-132785748D01*
X102309523Y-132785748D02*
X102214285Y-132880987D01*
X102214285Y-132880987D02*
X102119047Y-132928606D01*
X102119047Y-132928606D02*
X101928571Y-132928606D01*
X103261904Y-131928606D02*
X102785714Y-131928606D01*
X102785714Y-131928606D02*
X102738095Y-132404796D01*
X102738095Y-132404796D02*
X102785714Y-132357177D01*
X102785714Y-132357177D02*
X102880952Y-132309558D01*
X102880952Y-132309558D02*
X103119047Y-132309558D01*
X103119047Y-132309558D02*
X103214285Y-132357177D01*
X103214285Y-132357177D02*
X103261904Y-132404796D01*
X103261904Y-132404796D02*
X103309523Y-132500034D01*
X103309523Y-132500034D02*
X103309523Y-132738129D01*
X103309523Y-132738129D02*
X103261904Y-132833367D01*
X103261904Y-132833367D02*
X103214285Y-132880987D01*
X103214285Y-132880987D02*
X103119047Y-132928606D01*
X103119047Y-132928606D02*
X102880952Y-132928606D01*
X102880952Y-132928606D02*
X102785714Y-132880987D01*
X102785714Y-132880987D02*
X102738095Y-132833367D01*
D10*
X107126879Y-130016694D02*
X107698307Y-130016694D01*
X107698307Y-130016694D02*
X107812593Y-130054789D01*
X107812593Y-130054789D02*
X107888784Y-130130980D01*
X107888784Y-130130980D02*
X107926879Y-130245265D01*
X107926879Y-130245265D02*
X107926879Y-130321456D01*
X107926879Y-129597646D02*
X107926879Y-129445265D01*
X107926879Y-129445265D02*
X107888784Y-129369075D01*
X107888784Y-129369075D02*
X107850688Y-129330979D01*
X107850688Y-129330979D02*
X107736403Y-129254789D01*
X107736403Y-129254789D02*
X107584022Y-129216694D01*
X107584022Y-129216694D02*
X107279260Y-129216694D01*
X107279260Y-129216694D02*
X107203069Y-129254789D01*
X107203069Y-129254789D02*
X107164974Y-129292884D01*
X107164974Y-129292884D02*
X107126879Y-129369075D01*
X107126879Y-129369075D02*
X107126879Y-129521456D01*
X107126879Y-129521456D02*
X107164974Y-129597646D01*
X107164974Y-129597646D02*
X107203069Y-129635741D01*
X107203069Y-129635741D02*
X107279260Y-129673837D01*
X107279260Y-129673837D02*
X107469736Y-129673837D01*
X107469736Y-129673837D02*
X107545926Y-129635741D01*
X107545926Y-129635741D02*
X107584022Y-129597646D01*
X107584022Y-129597646D02*
X107622117Y-129521456D01*
X107622117Y-129521456D02*
X107622117Y-129369075D01*
X107622117Y-129369075D02*
X107584022Y-129292884D01*
X107584022Y-129292884D02*
X107545926Y-129254789D01*
X107545926Y-129254789D02*
X107469736Y-129216694D01*
D11*
X103002142Y-105517319D02*
X102668809Y-105041128D01*
X102430714Y-105517319D02*
X102430714Y-104517319D01*
X102430714Y-104517319D02*
X102811666Y-104517319D01*
X102811666Y-104517319D02*
X102906904Y-104564938D01*
X102906904Y-104564938D02*
X102954523Y-104612557D01*
X102954523Y-104612557D02*
X103002142Y-104707795D01*
X103002142Y-104707795D02*
X103002142Y-104850652D01*
X103002142Y-104850652D02*
X102954523Y-104945890D01*
X102954523Y-104945890D02*
X102906904Y-104993509D01*
X102906904Y-104993509D02*
X102811666Y-105041128D01*
X102811666Y-105041128D02*
X102430714Y-105041128D01*
X103906904Y-104517319D02*
X103430714Y-104517319D01*
X103430714Y-104517319D02*
X103383095Y-104993509D01*
X103383095Y-104993509D02*
X103430714Y-104945890D01*
X103430714Y-104945890D02*
X103525952Y-104898271D01*
X103525952Y-104898271D02*
X103764047Y-104898271D01*
X103764047Y-104898271D02*
X103859285Y-104945890D01*
X103859285Y-104945890D02*
X103906904Y-104993509D01*
X103906904Y-104993509D02*
X103954523Y-105088747D01*
X103954523Y-105088747D02*
X103954523Y-105326842D01*
X103954523Y-105326842D02*
X103906904Y-105422080D01*
X103906904Y-105422080D02*
X103859285Y-105469700D01*
X103859285Y-105469700D02*
X103764047Y-105517319D01*
X103764047Y-105517319D02*
X103525952Y-105517319D01*
X103525952Y-105517319D02*
X103430714Y-105469700D01*
X103430714Y-105469700D02*
X103383095Y-105422080D01*
X104335476Y-104612557D02*
X104383095Y-104564938D01*
X104383095Y-104564938D02*
X104478333Y-104517319D01*
X104478333Y-104517319D02*
X104716428Y-104517319D01*
X104716428Y-104517319D02*
X104811666Y-104564938D01*
X104811666Y-104564938D02*
X104859285Y-104612557D01*
X104859285Y-104612557D02*
X104906904Y-104707795D01*
X104906904Y-104707795D02*
X104906904Y-104803033D01*
X104906904Y-104803033D02*
X104859285Y-104945890D01*
X104859285Y-104945890D02*
X104287857Y-105517319D01*
X104287857Y-105517319D02*
X104906904Y-105517319D01*
X131257142Y-114289580D02*
X131209523Y-114337200D01*
X131209523Y-114337200D02*
X131066666Y-114384819D01*
X131066666Y-114384819D02*
X130971428Y-114384819D01*
X130971428Y-114384819D02*
X130828571Y-114337200D01*
X130828571Y-114337200D02*
X130733333Y-114241961D01*
X130733333Y-114241961D02*
X130685714Y-114146723D01*
X130685714Y-114146723D02*
X130638095Y-113956247D01*
X130638095Y-113956247D02*
X130638095Y-113813390D01*
X130638095Y-113813390D02*
X130685714Y-113622914D01*
X130685714Y-113622914D02*
X130733333Y-113527676D01*
X130733333Y-113527676D02*
X130828571Y-113432438D01*
X130828571Y-113432438D02*
X130971428Y-113384819D01*
X130971428Y-113384819D02*
X131066666Y-113384819D01*
X131066666Y-113384819D02*
X131209523Y-113432438D01*
X131209523Y-113432438D02*
X131257142Y-113480057D01*
X131590476Y-113384819D02*
X132257142Y-113384819D01*
X132257142Y-113384819D02*
X131828571Y-114384819D01*
X132780952Y-113813390D02*
X132685714Y-113765771D01*
X132685714Y-113765771D02*
X132638095Y-113718152D01*
X132638095Y-113718152D02*
X132590476Y-113622914D01*
X132590476Y-113622914D02*
X132590476Y-113575295D01*
X132590476Y-113575295D02*
X132638095Y-113480057D01*
X132638095Y-113480057D02*
X132685714Y-113432438D01*
X132685714Y-113432438D02*
X132780952Y-113384819D01*
X132780952Y-113384819D02*
X132971428Y-113384819D01*
X132971428Y-113384819D02*
X133066666Y-113432438D01*
X133066666Y-113432438D02*
X133114285Y-113480057D01*
X133114285Y-113480057D02*
X133161904Y-113575295D01*
X133161904Y-113575295D02*
X133161904Y-113622914D01*
X133161904Y-113622914D02*
X133114285Y-113718152D01*
X133114285Y-113718152D02*
X133066666Y-113765771D01*
X133066666Y-113765771D02*
X132971428Y-113813390D01*
X132971428Y-113813390D02*
X132780952Y-113813390D01*
X132780952Y-113813390D02*
X132685714Y-113861009D01*
X132685714Y-113861009D02*
X132638095Y-113908628D01*
X132638095Y-113908628D02*
X132590476Y-114003866D01*
X132590476Y-114003866D02*
X132590476Y-114194342D01*
X132590476Y-114194342D02*
X132638095Y-114289580D01*
X132638095Y-114289580D02*
X132685714Y-114337200D01*
X132685714Y-114337200D02*
X132780952Y-114384819D01*
X132780952Y-114384819D02*
X132971428Y-114384819D01*
X132971428Y-114384819D02*
X133066666Y-114337200D01*
X133066666Y-114337200D02*
X133114285Y-114289580D01*
X133114285Y-114289580D02*
X133161904Y-114194342D01*
X133161904Y-114194342D02*
X133161904Y-114003866D01*
X133161904Y-114003866D02*
X133114285Y-113908628D01*
X133114285Y-113908628D02*
X133066666Y-113861009D01*
X133066666Y-113861009D02*
X132971428Y-113813390D01*
X130257142Y-122799580D02*
X130209523Y-122847200D01*
X130209523Y-122847200D02*
X130066666Y-122894819D01*
X130066666Y-122894819D02*
X129971428Y-122894819D01*
X129971428Y-122894819D02*
X129828571Y-122847200D01*
X129828571Y-122847200D02*
X129733333Y-122751961D01*
X129733333Y-122751961D02*
X129685714Y-122656723D01*
X129685714Y-122656723D02*
X129638095Y-122466247D01*
X129638095Y-122466247D02*
X129638095Y-122323390D01*
X129638095Y-122323390D02*
X129685714Y-122132914D01*
X129685714Y-122132914D02*
X129733333Y-122037676D01*
X129733333Y-122037676D02*
X129828571Y-121942438D01*
X129828571Y-121942438D02*
X129971428Y-121894819D01*
X129971428Y-121894819D02*
X130066666Y-121894819D01*
X130066666Y-121894819D02*
X130209523Y-121942438D01*
X130209523Y-121942438D02*
X130257142Y-121990057D01*
X130590476Y-121894819D02*
X131257142Y-121894819D01*
X131257142Y-121894819D02*
X130828571Y-122894819D01*
X131685714Y-122894819D02*
X131876190Y-122894819D01*
X131876190Y-122894819D02*
X131971428Y-122847200D01*
X131971428Y-122847200D02*
X132019047Y-122799580D01*
X132019047Y-122799580D02*
X132114285Y-122656723D01*
X132114285Y-122656723D02*
X132161904Y-122466247D01*
X132161904Y-122466247D02*
X132161904Y-122085295D01*
X132161904Y-122085295D02*
X132114285Y-121990057D01*
X132114285Y-121990057D02*
X132066666Y-121942438D01*
X132066666Y-121942438D02*
X131971428Y-121894819D01*
X131971428Y-121894819D02*
X131780952Y-121894819D01*
X131780952Y-121894819D02*
X131685714Y-121942438D01*
X131685714Y-121942438D02*
X131638095Y-121990057D01*
X131638095Y-121990057D02*
X131590476Y-122085295D01*
X131590476Y-122085295D02*
X131590476Y-122323390D01*
X131590476Y-122323390D02*
X131638095Y-122418628D01*
X131638095Y-122418628D02*
X131685714Y-122466247D01*
X131685714Y-122466247D02*
X131780952Y-122513866D01*
X131780952Y-122513866D02*
X131971428Y-122513866D01*
X131971428Y-122513866D02*
X132066666Y-122466247D01*
X132066666Y-122466247D02*
X132114285Y-122418628D01*
X132114285Y-122418628D02*
X132161904Y-122323390D01*
D10*
X129827380Y-106213855D02*
X129827380Y-106785283D01*
X129827380Y-106785283D02*
X129789285Y-106899569D01*
X129789285Y-106899569D02*
X129713094Y-106975760D01*
X129713094Y-106975760D02*
X129598809Y-107013855D01*
X129598809Y-107013855D02*
X129522618Y-107013855D01*
X130627380Y-107013855D02*
X130170237Y-107013855D01*
X130398809Y-107013855D02*
X130398809Y-106213855D01*
X130398809Y-106213855D02*
X130322618Y-106328140D01*
X130322618Y-106328140D02*
X130246428Y-106404331D01*
X130246428Y-106404331D02*
X130170237Y-106442426D01*
X130932142Y-106290045D02*
X130970238Y-106251950D01*
X130970238Y-106251950D02*
X131046428Y-106213855D01*
X131046428Y-106213855D02*
X131236904Y-106213855D01*
X131236904Y-106213855D02*
X131313095Y-106251950D01*
X131313095Y-106251950D02*
X131351190Y-106290045D01*
X131351190Y-106290045D02*
X131389285Y-106366236D01*
X131389285Y-106366236D02*
X131389285Y-106442426D01*
X131389285Y-106442426D02*
X131351190Y-106556712D01*
X131351190Y-106556712D02*
X130894047Y-107013855D01*
X130894047Y-107013855D02*
X131389285Y-107013855D01*
D11*
X126297142Y-107484819D02*
X125963809Y-107008628D01*
X125725714Y-107484819D02*
X125725714Y-106484819D01*
X125725714Y-106484819D02*
X126106666Y-106484819D01*
X126106666Y-106484819D02*
X126201904Y-106532438D01*
X126201904Y-106532438D02*
X126249523Y-106580057D01*
X126249523Y-106580057D02*
X126297142Y-106675295D01*
X126297142Y-106675295D02*
X126297142Y-106818152D01*
X126297142Y-106818152D02*
X126249523Y-106913390D01*
X126249523Y-106913390D02*
X126201904Y-106961009D01*
X126201904Y-106961009D02*
X126106666Y-107008628D01*
X126106666Y-107008628D02*
X125725714Y-107008628D01*
X127154285Y-106818152D02*
X127154285Y-107484819D01*
X126916190Y-106437200D02*
X126678095Y-107151485D01*
X126678095Y-107151485D02*
X127297142Y-107151485D01*
X127582857Y-106484819D02*
X128249523Y-106484819D01*
X128249523Y-106484819D02*
X127820952Y-107484819D01*
X137216795Y-104839495D02*
X137931080Y-104839495D01*
X137931080Y-104839495D02*
X138073937Y-104887114D01*
X138073937Y-104887114D02*
X138169176Y-104982352D01*
X138169176Y-104982352D02*
X138216795Y-105125209D01*
X138216795Y-105125209D02*
X138216795Y-105220447D01*
X138216795Y-103839495D02*
X138216795Y-104410923D01*
X138216795Y-104125209D02*
X137216795Y-104125209D01*
X137216795Y-104125209D02*
X137359652Y-104220447D01*
X137359652Y-104220447D02*
X137454890Y-104315685D01*
X137454890Y-104315685D02*
X137502509Y-104410923D01*
X138216795Y-103363304D02*
X138216795Y-103172828D01*
X138216795Y-103172828D02*
X138169176Y-103077590D01*
X138169176Y-103077590D02*
X138121556Y-103029971D01*
X138121556Y-103029971D02*
X137978699Y-102934733D01*
X137978699Y-102934733D02*
X137788223Y-102887114D01*
X137788223Y-102887114D02*
X137407271Y-102887114D01*
X137407271Y-102887114D02*
X137312033Y-102934733D01*
X137312033Y-102934733D02*
X137264414Y-102982352D01*
X137264414Y-102982352D02*
X137216795Y-103077590D01*
X137216795Y-103077590D02*
X137216795Y-103268066D01*
X137216795Y-103268066D02*
X137264414Y-103363304D01*
X137264414Y-103363304D02*
X137312033Y-103410923D01*
X137312033Y-103410923D02*
X137407271Y-103458542D01*
X137407271Y-103458542D02*
X137645366Y-103458542D01*
X137645366Y-103458542D02*
X137740604Y-103410923D01*
X137740604Y-103410923D02*
X137788223Y-103363304D01*
X137788223Y-103363304D02*
X137835842Y-103268066D01*
X137835842Y-103268066D02*
X137835842Y-103077590D01*
X137835842Y-103077590D02*
X137788223Y-102982352D01*
X137788223Y-102982352D02*
X137740604Y-102934733D01*
X137740604Y-102934733D02*
X137645366Y-102887114D01*
D10*
X142303809Y-107683832D02*
X142227619Y-107645737D01*
X142227619Y-107645737D02*
X142151428Y-107569547D01*
X142151428Y-107569547D02*
X142037142Y-107455261D01*
X142037142Y-107455261D02*
X141960952Y-107417166D01*
X141960952Y-107417166D02*
X141884761Y-107417166D01*
X141922857Y-107607642D02*
X141846666Y-107569547D01*
X141846666Y-107569547D02*
X141770476Y-107493356D01*
X141770476Y-107493356D02*
X141732380Y-107340975D01*
X141732380Y-107340975D02*
X141732380Y-107074308D01*
X141732380Y-107074308D02*
X141770476Y-106921927D01*
X141770476Y-106921927D02*
X141846666Y-106845737D01*
X141846666Y-106845737D02*
X141922857Y-106807642D01*
X141922857Y-106807642D02*
X142075238Y-106807642D01*
X142075238Y-106807642D02*
X142151428Y-106845737D01*
X142151428Y-106845737D02*
X142227619Y-106921927D01*
X142227619Y-106921927D02*
X142265714Y-107074308D01*
X142265714Y-107074308D02*
X142265714Y-107340975D01*
X142265714Y-107340975D02*
X142227619Y-107493356D01*
X142227619Y-107493356D02*
X142151428Y-107569547D01*
X142151428Y-107569547D02*
X142075238Y-107607642D01*
X142075238Y-107607642D02*
X141922857Y-107607642D01*
X143027618Y-107607642D02*
X142570475Y-107607642D01*
X142799047Y-107607642D02*
X142799047Y-106807642D01*
X142799047Y-106807642D02*
X142722856Y-106921927D01*
X142722856Y-106921927D02*
X142646666Y-106998118D01*
X142646666Y-106998118D02*
X142570475Y-107036213D01*
D11*
X101752142Y-102432080D02*
X101704523Y-102479700D01*
X101704523Y-102479700D02*
X101561666Y-102527319D01*
X101561666Y-102527319D02*
X101466428Y-102527319D01*
X101466428Y-102527319D02*
X101323571Y-102479700D01*
X101323571Y-102479700D02*
X101228333Y-102384461D01*
X101228333Y-102384461D02*
X101180714Y-102289223D01*
X101180714Y-102289223D02*
X101133095Y-102098747D01*
X101133095Y-102098747D02*
X101133095Y-101955890D01*
X101133095Y-101955890D02*
X101180714Y-101765414D01*
X101180714Y-101765414D02*
X101228333Y-101670176D01*
X101228333Y-101670176D02*
X101323571Y-101574938D01*
X101323571Y-101574938D02*
X101466428Y-101527319D01*
X101466428Y-101527319D02*
X101561666Y-101527319D01*
X101561666Y-101527319D02*
X101704523Y-101574938D01*
X101704523Y-101574938D02*
X101752142Y-101622557D01*
X102085476Y-101527319D02*
X102752142Y-101527319D01*
X102752142Y-101527319D02*
X102323571Y-102527319D01*
X103609285Y-101527319D02*
X103133095Y-101527319D01*
X103133095Y-101527319D02*
X103085476Y-102003509D01*
X103085476Y-102003509D02*
X103133095Y-101955890D01*
X103133095Y-101955890D02*
X103228333Y-101908271D01*
X103228333Y-101908271D02*
X103466428Y-101908271D01*
X103466428Y-101908271D02*
X103561666Y-101955890D01*
X103561666Y-101955890D02*
X103609285Y-102003509D01*
X103609285Y-102003509D02*
X103656904Y-102098747D01*
X103656904Y-102098747D02*
X103656904Y-102336842D01*
X103656904Y-102336842D02*
X103609285Y-102432080D01*
X103609285Y-102432080D02*
X103561666Y-102479700D01*
X103561666Y-102479700D02*
X103466428Y-102527319D01*
X103466428Y-102527319D02*
X103228333Y-102527319D01*
X103228333Y-102527319D02*
X103133095Y-102479700D01*
X103133095Y-102479700D02*
X103085476Y-102432080D01*
D10*
X132978571Y-139461855D02*
X132978571Y-138661855D01*
X132978571Y-138661855D02*
X133283333Y-138661855D01*
X133283333Y-138661855D02*
X133359523Y-138699950D01*
X133359523Y-138699950D02*
X133397618Y-138738045D01*
X133397618Y-138738045D02*
X133435714Y-138814236D01*
X133435714Y-138814236D02*
X133435714Y-138928521D01*
X133435714Y-138928521D02*
X133397618Y-139004712D01*
X133397618Y-139004712D02*
X133359523Y-139042807D01*
X133359523Y-139042807D02*
X133283333Y-139080902D01*
X133283333Y-139080902D02*
X132978571Y-139080902D01*
X133702380Y-138661855D02*
X134235714Y-138661855D01*
X134235714Y-138661855D02*
X133702380Y-139461855D01*
X133702380Y-139461855D02*
X134235714Y-139461855D01*
X134959523Y-139461855D02*
X134502380Y-139461855D01*
X134730952Y-139461855D02*
X134730952Y-138661855D01*
X134730952Y-138661855D02*
X134654761Y-138776140D01*
X134654761Y-138776140D02*
X134578571Y-138852331D01*
X134578571Y-138852331D02*
X134502380Y-138890426D01*
X112349524Y-99533906D02*
X112349524Y-100181525D01*
X112349524Y-100181525D02*
X112387619Y-100257715D01*
X112387619Y-100257715D02*
X112425714Y-100295811D01*
X112425714Y-100295811D02*
X112501905Y-100333906D01*
X112501905Y-100333906D02*
X112654286Y-100333906D01*
X112654286Y-100333906D02*
X112730476Y-100295811D01*
X112730476Y-100295811D02*
X112768571Y-100257715D01*
X112768571Y-100257715D02*
X112806667Y-100181525D01*
X112806667Y-100181525D02*
X112806667Y-99533906D01*
X113606666Y-100333906D02*
X113149523Y-100333906D01*
X113378095Y-100333906D02*
X113378095Y-99533906D01*
X113378095Y-99533906D02*
X113301904Y-99648191D01*
X113301904Y-99648191D02*
X113225714Y-99724382D01*
X113225714Y-99724382D02*
X113149523Y-99762477D01*
X114368571Y-100333906D02*
X113911428Y-100333906D01*
X114140000Y-100333906D02*
X114140000Y-99533906D01*
X114140000Y-99533906D02*
X114063809Y-99648191D01*
X114063809Y-99648191D02*
X113987619Y-99724382D01*
X113987619Y-99724382D02*
X113911428Y-99762477D01*
X122197252Y-107763887D02*
X122197252Y-108335315D01*
X122197252Y-108335315D02*
X122159157Y-108449601D01*
X122159157Y-108449601D02*
X122082966Y-108525792D01*
X122082966Y-108525792D02*
X121968681Y-108563887D01*
X121968681Y-108563887D02*
X121892490Y-108563887D01*
X122997252Y-108563887D02*
X122540109Y-108563887D01*
X122768681Y-108563887D02*
X122768681Y-107763887D01*
X122768681Y-107763887D02*
X122692490Y-107878172D01*
X122692490Y-107878172D02*
X122616300Y-107954363D01*
X122616300Y-107954363D02*
X122540109Y-107992458D01*
D11*
X102190476Y-137867303D02*
X102190476Y-138581588D01*
X102190476Y-138581588D02*
X102142857Y-138724445D01*
X102142857Y-138724445D02*
X102047619Y-138819684D01*
X102047619Y-138819684D02*
X101904762Y-138867303D01*
X101904762Y-138867303D02*
X101809524Y-138867303D01*
X103190476Y-138867303D02*
X102619048Y-138867303D01*
X102904762Y-138867303D02*
X102904762Y-137867303D01*
X102904762Y-137867303D02*
X102809524Y-138010160D01*
X102809524Y-138010160D02*
X102714286Y-138105398D01*
X102714286Y-138105398D02*
X102619048Y-138153017D01*
X103761905Y-138295874D02*
X103666667Y-138248255D01*
X103666667Y-138248255D02*
X103619048Y-138200636D01*
X103619048Y-138200636D02*
X103571429Y-138105398D01*
X103571429Y-138105398D02*
X103571429Y-138057779D01*
X103571429Y-138057779D02*
X103619048Y-137962541D01*
X103619048Y-137962541D02*
X103666667Y-137914922D01*
X103666667Y-137914922D02*
X103761905Y-137867303D01*
X103761905Y-137867303D02*
X103952381Y-137867303D01*
X103952381Y-137867303D02*
X104047619Y-137914922D01*
X104047619Y-137914922D02*
X104095238Y-137962541D01*
X104095238Y-137962541D02*
X104142857Y-138057779D01*
X104142857Y-138057779D02*
X104142857Y-138105398D01*
X104142857Y-138105398D02*
X104095238Y-138200636D01*
X104095238Y-138200636D02*
X104047619Y-138248255D01*
X104047619Y-138248255D02*
X103952381Y-138295874D01*
X103952381Y-138295874D02*
X103761905Y-138295874D01*
X103761905Y-138295874D02*
X103666667Y-138343493D01*
X103666667Y-138343493D02*
X103619048Y-138391112D01*
X103619048Y-138391112D02*
X103571429Y-138486350D01*
X103571429Y-138486350D02*
X103571429Y-138676826D01*
X103571429Y-138676826D02*
X103619048Y-138772064D01*
X103619048Y-138772064D02*
X103666667Y-138819684D01*
X103666667Y-138819684D02*
X103761905Y-138867303D01*
X103761905Y-138867303D02*
X103952381Y-138867303D01*
X103952381Y-138867303D02*
X104047619Y-138819684D01*
X104047619Y-138819684D02*
X104095238Y-138772064D01*
X104095238Y-138772064D02*
X104142857Y-138676826D01*
X104142857Y-138676826D02*
X104142857Y-138486350D01*
X104142857Y-138486350D02*
X104095238Y-138391112D01*
X104095238Y-138391112D02*
X104047619Y-138343493D01*
X104047619Y-138343493D02*
X103952381Y-138295874D01*
X136967392Y-143059523D02*
X137681677Y-143059523D01*
X137681677Y-143059523D02*
X137824534Y-143107142D01*
X137824534Y-143107142D02*
X137919773Y-143202380D01*
X137919773Y-143202380D02*
X137967392Y-143345237D01*
X137967392Y-143345237D02*
X137967392Y-143440475D01*
X137967392Y-142059523D02*
X137967392Y-142630951D01*
X137967392Y-142345237D02*
X136967392Y-142345237D01*
X136967392Y-142345237D02*
X137110249Y-142440475D01*
X137110249Y-142440475D02*
X137205487Y-142535713D01*
X137205487Y-142535713D02*
X137253106Y-142630951D01*
X136967392Y-141154761D02*
X136967392Y-141630951D01*
X136967392Y-141630951D02*
X137443582Y-141678570D01*
X137443582Y-141678570D02*
X137395963Y-141630951D01*
X137395963Y-141630951D02*
X137348344Y-141535713D01*
X137348344Y-141535713D02*
X137348344Y-141297618D01*
X137348344Y-141297618D02*
X137395963Y-141202380D01*
X137395963Y-141202380D02*
X137443582Y-141154761D01*
X137443582Y-141154761D02*
X137538820Y-141107142D01*
X137538820Y-141107142D02*
X137776915Y-141107142D01*
X137776915Y-141107142D02*
X137872153Y-141154761D01*
X137872153Y-141154761D02*
X137919773Y-141202380D01*
X137919773Y-141202380D02*
X137967392Y-141297618D01*
X137967392Y-141297618D02*
X137967392Y-141535713D01*
X137967392Y-141535713D02*
X137919773Y-141630951D01*
X137919773Y-141630951D02*
X137872153Y-141678570D01*
X129738095Y-110544819D02*
X129738095Y-111354342D01*
X129738095Y-111354342D02*
X129785714Y-111449580D01*
X129785714Y-111449580D02*
X129833333Y-111497200D01*
X129833333Y-111497200D02*
X129928571Y-111544819D01*
X129928571Y-111544819D02*
X130119047Y-111544819D01*
X130119047Y-111544819D02*
X130214285Y-111497200D01*
X130214285Y-111497200D02*
X130261904Y-111449580D01*
X130261904Y-111449580D02*
X130309523Y-111354342D01*
X130309523Y-111354342D02*
X130309523Y-110544819D01*
X130928571Y-110973390D02*
X130833333Y-110925771D01*
X130833333Y-110925771D02*
X130785714Y-110878152D01*
X130785714Y-110878152D02*
X130738095Y-110782914D01*
X130738095Y-110782914D02*
X130738095Y-110735295D01*
X130738095Y-110735295D02*
X130785714Y-110640057D01*
X130785714Y-110640057D02*
X130833333Y-110592438D01*
X130833333Y-110592438D02*
X130928571Y-110544819D01*
X130928571Y-110544819D02*
X131119047Y-110544819D01*
X131119047Y-110544819D02*
X131214285Y-110592438D01*
X131214285Y-110592438D02*
X131261904Y-110640057D01*
X131261904Y-110640057D02*
X131309523Y-110735295D01*
X131309523Y-110735295D02*
X131309523Y-110782914D01*
X131309523Y-110782914D02*
X131261904Y-110878152D01*
X131261904Y-110878152D02*
X131214285Y-110925771D01*
X131214285Y-110925771D02*
X131119047Y-110973390D01*
X131119047Y-110973390D02*
X130928571Y-110973390D01*
X130928571Y-110973390D02*
X130833333Y-111021009D01*
X130833333Y-111021009D02*
X130785714Y-111068628D01*
X130785714Y-111068628D02*
X130738095Y-111163866D01*
X130738095Y-111163866D02*
X130738095Y-111354342D01*
X130738095Y-111354342D02*
X130785714Y-111449580D01*
X130785714Y-111449580D02*
X130833333Y-111497200D01*
X130833333Y-111497200D02*
X130928571Y-111544819D01*
X130928571Y-111544819D02*
X131119047Y-111544819D01*
X131119047Y-111544819D02*
X131214285Y-111497200D01*
X131214285Y-111497200D02*
X131261904Y-111449580D01*
X131261904Y-111449580D02*
X131309523Y-111354342D01*
X131309523Y-111354342D02*
X131309523Y-111163866D01*
X131309523Y-111163866D02*
X131261904Y-111068628D01*
X131261904Y-111068628D02*
X131214285Y-111021009D01*
X131214285Y-111021009D02*
X131119047Y-110973390D01*
X102857142Y-137784819D02*
X102523809Y-137308628D01*
X102285714Y-137784819D02*
X102285714Y-136784819D01*
X102285714Y-136784819D02*
X102666666Y-136784819D01*
X102666666Y-136784819D02*
X102761904Y-136832438D01*
X102761904Y-136832438D02*
X102809523Y-136880057D01*
X102809523Y-136880057D02*
X102857142Y-136975295D01*
X102857142Y-136975295D02*
X102857142Y-137118152D01*
X102857142Y-137118152D02*
X102809523Y-137213390D01*
X102809523Y-137213390D02*
X102761904Y-137261009D01*
X102761904Y-137261009D02*
X102666666Y-137308628D01*
X102666666Y-137308628D02*
X102285714Y-137308628D01*
X103761904Y-136784819D02*
X103285714Y-136784819D01*
X103285714Y-136784819D02*
X103238095Y-137261009D01*
X103238095Y-137261009D02*
X103285714Y-137213390D01*
X103285714Y-137213390D02*
X103380952Y-137165771D01*
X103380952Y-137165771D02*
X103619047Y-137165771D01*
X103619047Y-137165771D02*
X103714285Y-137213390D01*
X103714285Y-137213390D02*
X103761904Y-137261009D01*
X103761904Y-137261009D02*
X103809523Y-137356247D01*
X103809523Y-137356247D02*
X103809523Y-137594342D01*
X103809523Y-137594342D02*
X103761904Y-137689580D01*
X103761904Y-137689580D02*
X103714285Y-137737200D01*
X103714285Y-137737200D02*
X103619047Y-137784819D01*
X103619047Y-137784819D02*
X103380952Y-137784819D01*
X103380952Y-137784819D02*
X103285714Y-137737200D01*
X103285714Y-137737200D02*
X103238095Y-137689580D01*
X104714285Y-136784819D02*
X104238095Y-136784819D01*
X104238095Y-136784819D02*
X104190476Y-137261009D01*
X104190476Y-137261009D02*
X104238095Y-137213390D01*
X104238095Y-137213390D02*
X104333333Y-137165771D01*
X104333333Y-137165771D02*
X104571428Y-137165771D01*
X104571428Y-137165771D02*
X104666666Y-137213390D01*
X104666666Y-137213390D02*
X104714285Y-137261009D01*
X104714285Y-137261009D02*
X104761904Y-137356247D01*
X104761904Y-137356247D02*
X104761904Y-137594342D01*
X104761904Y-137594342D02*
X104714285Y-137689580D01*
X104714285Y-137689580D02*
X104666666Y-137737200D01*
X104666666Y-137737200D02*
X104571428Y-137784819D01*
X104571428Y-137784819D02*
X104333333Y-137784819D01*
X104333333Y-137784819D02*
X104238095Y-137737200D01*
X104238095Y-137737200D02*
X104190476Y-137689580D01*
X103042142Y-108902319D02*
X102708809Y-108426128D01*
X102470714Y-108902319D02*
X102470714Y-107902319D01*
X102470714Y-107902319D02*
X102851666Y-107902319D01*
X102851666Y-107902319D02*
X102946904Y-107949938D01*
X102946904Y-107949938D02*
X102994523Y-107997557D01*
X102994523Y-107997557D02*
X103042142Y-108092795D01*
X103042142Y-108092795D02*
X103042142Y-108235652D01*
X103042142Y-108235652D02*
X102994523Y-108330890D01*
X102994523Y-108330890D02*
X102946904Y-108378509D01*
X102946904Y-108378509D02*
X102851666Y-108426128D01*
X102851666Y-108426128D02*
X102470714Y-108426128D01*
X103946904Y-107902319D02*
X103470714Y-107902319D01*
X103470714Y-107902319D02*
X103423095Y-108378509D01*
X103423095Y-108378509D02*
X103470714Y-108330890D01*
X103470714Y-108330890D02*
X103565952Y-108283271D01*
X103565952Y-108283271D02*
X103804047Y-108283271D01*
X103804047Y-108283271D02*
X103899285Y-108330890D01*
X103899285Y-108330890D02*
X103946904Y-108378509D01*
X103946904Y-108378509D02*
X103994523Y-108473747D01*
X103994523Y-108473747D02*
X103994523Y-108711842D01*
X103994523Y-108711842D02*
X103946904Y-108807080D01*
X103946904Y-108807080D02*
X103899285Y-108854700D01*
X103899285Y-108854700D02*
X103804047Y-108902319D01*
X103804047Y-108902319D02*
X103565952Y-108902319D01*
X103565952Y-108902319D02*
X103470714Y-108854700D01*
X103470714Y-108854700D02*
X103423095Y-108807080D01*
X104946904Y-108902319D02*
X104375476Y-108902319D01*
X104661190Y-108902319D02*
X104661190Y-107902319D01*
X104661190Y-107902319D02*
X104565952Y-108045176D01*
X104565952Y-108045176D02*
X104470714Y-108140414D01*
X104470714Y-108140414D02*
X104375476Y-108188033D01*
D12*
%TO.C,J3*%
X129330000Y-129509992D02*
X129330000Y-130538847D01*
X130438255Y-133610018D02*
X139021720Y-133610018D01*
X131073866Y-129509992D02*
X129330000Y-129509992D01*
X132323802Y-129509992D02*
X132136147Y-129509992D01*
X133573993Y-129509992D02*
X133386083Y-129509992D01*
X134823929Y-129509992D02*
X134636274Y-129509992D01*
X136073866Y-129509992D02*
X135886210Y-129509992D01*
X137323802Y-129509992D02*
X137136147Y-129509992D01*
X140130000Y-129509992D02*
X138386083Y-129509992D01*
X140130000Y-129509992D02*
X140130000Y-130538847D01*
D10*
X130524410Y-128568284D02*
X130581927Y-128585732D01*
X130634935Y-128614065D01*
X130681397Y-128652195D01*
X130719527Y-128698657D01*
X130747860Y-128751664D01*
X130765308Y-128809181D01*
X130771199Y-128868997D01*
X130765308Y-128928812D01*
X130747860Y-128986329D01*
X130719527Y-129039337D01*
X130681397Y-129085798D01*
X130634935Y-129123929D01*
X130581927Y-129152262D01*
X130524410Y-129169709D01*
X130464595Y-129175601D01*
X130404779Y-129169709D01*
X130347263Y-129152262D01*
X130294255Y-129123929D01*
X130247793Y-129085798D01*
X130209663Y-129039337D01*
X130181330Y-128986329D01*
X130163882Y-128928812D01*
X130157991Y-128868997D01*
X130163882Y-128809181D01*
X130181330Y-128751664D01*
X130209663Y-128698657D01*
X130247793Y-128652195D01*
X130294255Y-128614065D01*
X130347263Y-128585732D01*
X130404779Y-128568284D01*
X130464595Y-128562393D01*
X130524410Y-128568284D01*
G36*
X130524410Y-128568284D02*
G01*
X130581927Y-128585732D01*
X130634935Y-128614065D01*
X130681397Y-128652195D01*
X130719527Y-128698657D01*
X130747860Y-128751664D01*
X130765308Y-128809181D01*
X130771199Y-128868997D01*
X130765308Y-128928812D01*
X130747860Y-128986329D01*
X130719527Y-129039337D01*
X130681397Y-129085798D01*
X130634935Y-129123929D01*
X130581927Y-129152262D01*
X130524410Y-129169709D01*
X130464595Y-129175601D01*
X130404779Y-129169709D01*
X130347263Y-129152262D01*
X130294255Y-129123929D01*
X130247793Y-129085798D01*
X130209663Y-129039337D01*
X130181330Y-128986329D01*
X130163882Y-128928812D01*
X130157991Y-128868997D01*
X130163882Y-128809181D01*
X130181330Y-128751664D01*
X130209663Y-128698657D01*
X130247793Y-128652195D01*
X130294255Y-128614065D01*
X130347263Y-128585732D01*
X130404779Y-128568284D01*
X130464595Y-128562393D01*
X130524410Y-128568284D01*
G37*
%TO.C,C77*%
X108317164Y-104122500D02*
X108532836Y-104122500D01*
X108317164Y-104842500D02*
X108532836Y-104842500D01*
%TO.C,C28*%
X126307936Y-143391100D02*
X126092264Y-143391100D01*
X126307936Y-144111100D02*
X126092264Y-144111100D01*
%TO.C,U20*%
X129050000Y-119920000D02*
G75*
G02*
X128850000Y-119920000I-100000J0D01*
G01*
X128850000Y-119920000D02*
G75*
G02*
X129050000Y-119920000I100000J0D01*
G01*
D12*
%TO.C,J2*%
X100930767Y-114219990D02*
X100930767Y-121900000D01*
X105610752Y-122080010D02*
X105610752Y-123319990D01*
X105610752Y-123319990D02*
X103070772Y-123319990D01*
X105650757Y-112840005D02*
X103110752Y-112840005D01*
X105650757Y-114040005D02*
X105650757Y-112840005D01*
D10*
%TO.C,PZ2*%
X119000000Y-132500000D02*
X120900000Y-132500000D01*
X119000000Y-134400000D02*
X119000000Y-132500000D01*
X120900000Y-132500000D02*
X120900000Y-134400000D01*
X120900000Y-134400000D02*
X119000000Y-134400000D01*
%TO.C,TP20*%
X139500000Y-134500000D02*
X141400000Y-134500000D01*
X139500000Y-136400000D02*
X139500000Y-134500000D01*
X141400000Y-134500000D02*
X141400000Y-136400000D01*
X141400000Y-136400000D02*
X139500000Y-136400000D01*
%TO.C,R50*%
X103011359Y-110737500D02*
X103318641Y-110737500D01*
X103011359Y-111497500D02*
X103318641Y-111497500D01*
%TO.C,C30*%
X118932536Y-142333500D02*
X118716864Y-142333500D01*
X118932536Y-143053500D02*
X118716864Y-143053500D01*
%TO.C,C46*%
X123367936Y-128848900D02*
X123152264Y-128848900D01*
X123367936Y-129568900D02*
X123152264Y-129568900D01*
%TO.C,L1*%
X125931622Y-127032600D02*
X125132378Y-127032600D01*
X125931622Y-128152600D02*
X125132378Y-128152600D01*
%TO.C,P73*%
X112600000Y-131500000D02*
X114500000Y-131500000D01*
X112600000Y-133400000D02*
X112600000Y-131500000D01*
X114500000Y-131500000D02*
X114500000Y-133400000D01*
X114500000Y-133400000D02*
X112600000Y-133400000D01*
%TO.C,TP1*%
X107400000Y-110600000D02*
X109300000Y-110600000D01*
X107400000Y-112500000D02*
X107400000Y-110600000D01*
X109300000Y-110600000D02*
X109300000Y-112500000D01*
X109300000Y-112500000D02*
X107400000Y-112500000D01*
%TO.C,C13*%
X122729636Y-127052400D02*
X122513964Y-127052400D01*
X122729636Y-127772400D02*
X122513964Y-127772400D01*
D12*
%TO.C,U9*%
X137649619Y-123808087D02*
X138650381Y-123808087D01*
X137649619Y-126607173D02*
X137649619Y-123808087D01*
X138650381Y-123808087D02*
X138650381Y-126607173D01*
X138650381Y-126607173D02*
X137649619Y-126607173D01*
D13*
X139671463Y-126997038D02*
G75*
G02*
X139671463Y-126999578I-134405J-1270D01*
G01*
D10*
%TO.C,D2*%
X120065000Y-139125000D02*
X120065000Y-140595000D01*
X120065000Y-140595000D02*
X122350000Y-140595000D01*
X122350000Y-139125000D02*
X120065000Y-139125000D01*
%TO.C,R54*%
X101346359Y-138120000D02*
X101653641Y-138120000D01*
X101346359Y-138880000D02*
X101653641Y-138880000D01*
%TO.C,R17*%
X108315000Y-101908641D02*
X108315000Y-101601359D01*
X109075000Y-101908641D02*
X109075000Y-101601359D01*
%TO.C,C6*%
X117933952Y-127179600D02*
X117411448Y-127179600D01*
X117933952Y-128649600D02*
X117411448Y-128649600D01*
D14*
%TO.C,D4*%
X135895625Y-110717063D02*
X138648076Y-110717063D01*
X135895625Y-112569540D02*
X138648076Y-112569540D01*
X136355061Y-110767076D02*
X136355061Y-112519527D01*
X138648076Y-110717063D02*
X138648076Y-110910104D01*
X138648076Y-112569540D02*
X138648076Y-112376499D01*
D10*
X135971851Y-110960878D02*
X135667050Y-110960878D01*
X135667050Y-110640889D01*
X135971851Y-110640889D01*
X135971851Y-110960878D01*
G36*
X135971851Y-110960878D02*
G01*
X135667050Y-110960878D01*
X135667050Y-110640889D01*
X135971851Y-110640889D01*
X135971851Y-110960878D01*
G37*
X135971851Y-112645715D02*
X135667050Y-112645715D01*
X135667050Y-112325725D01*
X135971851Y-112325725D01*
X135971851Y-112645715D01*
G36*
X135971851Y-112645715D02*
G01*
X135667050Y-112645715D01*
X135667050Y-112325725D01*
X135971851Y-112325725D01*
X135971851Y-112645715D01*
G37*
%TO.C,R16*%
X134817859Y-103755000D02*
X135125141Y-103755000D01*
X134817859Y-104515000D02*
X135125141Y-104515000D01*
%TO.C,R20*%
X128796359Y-139570000D02*
X129103641Y-139570000D01*
X128796359Y-140330000D02*
X129103641Y-140330000D01*
%TO.C,D3*%
X116065000Y-129215000D02*
X116065000Y-130685000D01*
X116065000Y-130685000D02*
X118350000Y-130685000D01*
X118350000Y-129215000D02*
X116065000Y-129215000D01*
%TO.C,R48*%
X105281359Y-110602500D02*
X105588641Y-110602500D01*
X105281359Y-111362500D02*
X105588641Y-111362500D01*
%TO.C,C29*%
X118960136Y-143890000D02*
X118744464Y-143890000D01*
X118960136Y-144610000D02*
X118744464Y-144610000D01*
%TO.C,C45*%
X124139452Y-130376000D02*
X123616948Y-130376000D01*
X124139452Y-131846000D02*
X123616948Y-131846000D01*
%TO.C,R1*%
X141501359Y-123535000D02*
X141808641Y-123535000D01*
X141501359Y-124295000D02*
X141808641Y-124295000D01*
D15*
%TO.C,U10*%
X121599949Y-141251138D02*
X121599949Y-141397011D01*
X121599949Y-141251138D02*
X123399975Y-141251138D01*
X121599949Y-142305291D02*
X121599949Y-143296934D01*
X121599949Y-144205215D02*
X121599949Y-144351164D01*
X121599949Y-144351164D02*
X123399975Y-144351164D01*
X123399975Y-141251138D02*
X123399975Y-141396985D01*
X123399975Y-142305291D02*
X123399975Y-142346947D01*
X123399975Y-143255228D02*
X123399975Y-143296909D01*
X123399975Y-144205215D02*
X123399975Y-144351164D01*
D10*
X122915807Y-143641422D02*
X122949243Y-143651647D01*
X122980017Y-143668244D01*
X123006928Y-143690567D01*
X123028926Y-143717743D01*
X123045154Y-143748714D01*
X123054978Y-143782270D01*
X123058014Y-143817102D01*
X123054978Y-143851934D01*
X123045154Y-143885490D01*
X123028926Y-143916461D01*
X123006928Y-143943638D01*
X122980017Y-143965960D01*
X122949243Y-143982557D01*
X122915807Y-143992782D01*
X122881013Y-143996235D01*
X122846220Y-143992782D01*
X122812784Y-143982557D01*
X122782010Y-143965960D01*
X122755099Y-143943638D01*
X122733100Y-143916461D01*
X122716873Y-143885490D01*
X122707049Y-143851934D01*
X122704013Y-143817102D01*
X122707049Y-143782270D01*
X122716873Y-143748714D01*
X122733100Y-143717743D01*
X122755099Y-143690567D01*
X122782010Y-143668244D01*
X122812784Y-143651647D01*
X122846220Y-143641422D01*
X122881013Y-143637969D01*
X122915807Y-143641422D01*
G36*
X122915807Y-143641422D02*
G01*
X122949243Y-143651647D01*
X122980017Y-143668244D01*
X123006928Y-143690567D01*
X123028926Y-143717743D01*
X123045154Y-143748714D01*
X123054978Y-143782270D01*
X123058014Y-143817102D01*
X123054978Y-143851934D01*
X123045154Y-143885490D01*
X123028926Y-143916461D01*
X123006928Y-143943638D01*
X122980017Y-143965960D01*
X122949243Y-143982557D01*
X122915807Y-143992782D01*
X122881013Y-143996235D01*
X122846220Y-143992782D01*
X122812784Y-143982557D01*
X122782010Y-143965960D01*
X122755099Y-143943638D01*
X122733100Y-143916461D01*
X122716873Y-143885490D01*
X122707049Y-143851934D01*
X122704013Y-143817102D01*
X122707049Y-143782270D01*
X122716873Y-143748714D01*
X122733100Y-143717743D01*
X122755099Y-143690567D01*
X122782010Y-143668244D01*
X122812784Y-143651647D01*
X122846220Y-143641422D01*
X122881013Y-143637969D01*
X122915807Y-143641422D01*
G37*
D15*
%TO.C,U17*%
X131949949Y-140650038D02*
X131949949Y-140795911D01*
X131949949Y-140650038D02*
X133749975Y-140650038D01*
X131949949Y-141704191D02*
X131949949Y-142695834D01*
X131949949Y-143604115D02*
X131949949Y-143750064D01*
X131949949Y-143750064D02*
X133749975Y-143750064D01*
X133749975Y-140650038D02*
X133749975Y-140795885D01*
X133749975Y-141704191D02*
X133749975Y-141745847D01*
X133749975Y-142654128D02*
X133749975Y-142695809D01*
X133749975Y-143604115D02*
X133749975Y-143750064D01*
D10*
X133265807Y-143040322D02*
X133299243Y-143050547D01*
X133330017Y-143067144D01*
X133356928Y-143089467D01*
X133378926Y-143116643D01*
X133395154Y-143147614D01*
X133404978Y-143181170D01*
X133408014Y-143216002D01*
X133404978Y-143250834D01*
X133395154Y-143284390D01*
X133378926Y-143315361D01*
X133356928Y-143342538D01*
X133330017Y-143364860D01*
X133299243Y-143381457D01*
X133265807Y-143391682D01*
X133231013Y-143395135D01*
X133196220Y-143391682D01*
X133162784Y-143381457D01*
X133132010Y-143364860D01*
X133105099Y-143342538D01*
X133083100Y-143315361D01*
X133066873Y-143284390D01*
X133057049Y-143250834D01*
X133054013Y-143216002D01*
X133057049Y-143181170D01*
X133066873Y-143147614D01*
X133083100Y-143116643D01*
X133105099Y-143089467D01*
X133132010Y-143067144D01*
X133162784Y-143050547D01*
X133196220Y-143040322D01*
X133231013Y-143036869D01*
X133265807Y-143040322D01*
G36*
X133265807Y-143040322D02*
G01*
X133299243Y-143050547D01*
X133330017Y-143067144D01*
X133356928Y-143089467D01*
X133378926Y-143116643D01*
X133395154Y-143147614D01*
X133404978Y-143181170D01*
X133408014Y-143216002D01*
X133404978Y-143250834D01*
X133395154Y-143284390D01*
X133378926Y-143315361D01*
X133356928Y-143342538D01*
X133330017Y-143364860D01*
X133299243Y-143381457D01*
X133265807Y-143391682D01*
X133231013Y-143395135D01*
X133196220Y-143391682D01*
X133162784Y-143381457D01*
X133132010Y-143364860D01*
X133105099Y-143342538D01*
X133083100Y-143315361D01*
X133066873Y-143284390D01*
X133057049Y-143250834D01*
X133054013Y-143216002D01*
X133057049Y-143181170D01*
X133066873Y-143147614D01*
X133083100Y-143116643D01*
X133105099Y-143089467D01*
X133132010Y-143067144D01*
X133162784Y-143050547D01*
X133196220Y-143040322D01*
X133231013Y-143036869D01*
X133265807Y-143040322D01*
G37*
%TO.C,R21*%
X134036459Y-139275000D02*
X134343741Y-139275000D01*
X134036459Y-140035000D02*
X134343741Y-140035000D01*
%TO.C,R14*%
X108396359Y-123570000D02*
X108703641Y-123570000D01*
X108396359Y-124330000D02*
X108703641Y-124330000D01*
%TO.C,P41*%
X127500000Y-124000000D02*
X129400000Y-124000000D01*
X127500000Y-125900000D02*
X127500000Y-124000000D01*
X129400000Y-124000000D02*
X129400000Y-125900000D01*
X129400000Y-125900000D02*
X127500000Y-125900000D01*
%TO.C,TP21*%
X125000000Y-133500000D02*
X126900000Y-133500000D01*
X125000000Y-135400000D02*
X125000000Y-133500000D01*
X126900000Y-133500000D02*
X126900000Y-135400000D01*
X126900000Y-135400000D02*
X125000000Y-135400000D01*
%TO.C,R53*%
X102751359Y-104102500D02*
X103058641Y-104102500D01*
X102751359Y-104862500D02*
X103058641Y-104862500D01*
D14*
%TO.C,U5*%
X134401290Y-115923597D02*
X139678710Y-115923597D01*
X134401290Y-120276403D02*
X134401290Y-115923597D01*
X139678710Y-115923597D02*
X139678710Y-120276403D01*
X139678710Y-120276403D02*
X134401290Y-120276403D01*
D16*
X134517775Y-121630099D02*
G75*
G02*
X134217547Y-121630099I-150114J0D01*
G01*
X134217547Y-121630099D02*
G75*
G02*
X134517775Y-121630099I150114J0D01*
G01*
X135285110Y-119523927D02*
G75*
G02*
X134984882Y-119523927I-150114J0D01*
G01*
X134984882Y-119523927D02*
G75*
G02*
X135285110Y-119523927I150114J0D01*
G01*
D17*
%TO.C,U1*%
X112129987Y-111329987D02*
X112129987Y-123830013D01*
X112129987Y-123830013D02*
X124630013Y-123830013D01*
X124630013Y-111329987D02*
X112129987Y-111329987D01*
X124630013Y-123830013D02*
X124630013Y-111329987D01*
D16*
X111496586Y-125276215D02*
G75*
G02*
X111499126Y-125276215I1270J-161288D01*
G01*
D18*
X113129810Y-122530470D02*
G75*
G02*
X113134890Y-122530470I2540J-293249D01*
G01*
D10*
%TO.C,C68*%
X130392164Y-118440000D02*
X130607836Y-118440000D01*
X130392164Y-119160000D02*
X130607836Y-119160000D01*
%TO.C,TP10*%
X110350000Y-135646000D02*
X112250000Y-135646000D01*
X110350000Y-137546000D02*
X110350000Y-135646000D01*
X112250000Y-135646000D02*
X112250000Y-137546000D01*
X112250000Y-137546000D02*
X110350000Y-137546000D01*
D12*
%TO.C,J17*%
X108550000Y-140549975D02*
X108550000Y-143174257D01*
X109668872Y-140549975D02*
X108550000Y-140549975D01*
X109781191Y-145049924D02*
X115718885Y-145049924D01*
X115831179Y-140549975D02*
X116950000Y-140549975D01*
X116950000Y-140549975D02*
X116950000Y-143174257D01*
D14*
%TO.C,Q5*%
X101773787Y-134473787D02*
X101773787Y-135505410D01*
X101773787Y-137526213D02*
X101773787Y-136494590D01*
X103226213Y-134473787D02*
X101773787Y-134473787D01*
X103226213Y-135544602D02*
X103226213Y-136455398D01*
X103226213Y-137526213D02*
X101773787Y-137526213D01*
D10*
%TO.C,TP8*%
X113100000Y-135000000D02*
X115000000Y-135000000D01*
X113100000Y-136900000D02*
X113100000Y-135000000D01*
X115000000Y-135000000D02*
X115000000Y-136900000D01*
X115000000Y-136900000D02*
X113100000Y-136900000D01*
%TO.C,P71*%
X128500000Y-134500000D02*
X130400000Y-134500000D01*
X128500000Y-136400000D02*
X128500000Y-134500000D01*
X130400000Y-134500000D02*
X130400000Y-136400000D01*
X130400000Y-136400000D02*
X128500000Y-136400000D01*
D12*
%TO.C,J9*%
X101165030Y-127760036D02*
X101165030Y-131660010D01*
X105424975Y-126760036D02*
X102825025Y-126760036D01*
X105424975Y-127839970D02*
X105424975Y-126760036D01*
X105424975Y-131820005D02*
X105424975Y-132740020D01*
X105424975Y-132740020D02*
X102818193Y-132740020D01*
X105062389Y-127280635D02*
G75*
G02*
X104812453Y-127280635I-124968J0D01*
G01*
X104812453Y-127280635D02*
G75*
G02*
X105062389Y-127280635I124968J0D01*
G01*
D10*
%TO.C,R52*%
X103491359Y-105852500D02*
X103798641Y-105852500D01*
X103491359Y-106612500D02*
X103798641Y-106612500D01*
%TO.C,P46*%
X123550000Y-137450000D02*
X125450000Y-137450000D01*
X123550000Y-139350000D02*
X123550000Y-137450000D01*
X125450000Y-137450000D02*
X125450000Y-139350000D01*
X125450000Y-139350000D02*
X123550000Y-139350000D01*
%TO.C,L2*%
X128680000Y-106440000D02*
X132900000Y-106440000D01*
X132900000Y-110660000D02*
X128680000Y-110660000D01*
%TO.C,C78*%
X131792164Y-114730000D02*
X132007836Y-114730000D01*
X131792164Y-115450000D02*
X132007836Y-115450000D01*
%TO.C,C79*%
X130792164Y-123240000D02*
X131007836Y-123240000D01*
X130792164Y-123960000D02*
X131007836Y-123960000D01*
%TO.C,SW2*%
X111405200Y-127962000D02*
X111405200Y-128262000D01*
X111405200Y-130762000D02*
X111405200Y-130462000D01*
X114705200Y-127962000D02*
X111405200Y-127962000D01*
X114705200Y-128262000D02*
X114705200Y-127962000D01*
X114705200Y-130462000D02*
X114705200Y-130762000D01*
X114705200Y-130762000D02*
X111405200Y-130762000D01*
%TO.C,J12*%
X129115000Y-104800000D02*
X129115000Y-102100000D01*
X131835000Y-102050000D02*
X131835000Y-102690000D01*
X131835000Y-104210000D02*
X132465000Y-104210000D01*
X131835000Y-104850000D02*
X131835000Y-104210000D01*
%TO.C,R15*%
X108396359Y-125070000D02*
X108703641Y-125070000D01*
X108396359Y-125830000D02*
X108703641Y-125830000D01*
%TO.C,R47*%
X126786359Y-107820000D02*
X127093641Y-107820000D01*
X126786359Y-108580000D02*
X127093641Y-108580000D01*
D12*
%TO.C,J19*%
X139900025Y-101039980D02*
X142506807Y-101039980D01*
X139900025Y-101959995D02*
X139900025Y-101039980D01*
X139900025Y-105940030D02*
X139900025Y-107019964D01*
X139900025Y-107019964D02*
X142499975Y-107019964D01*
X144159970Y-106019964D02*
X144159970Y-102119990D01*
X140512547Y-106499365D02*
G75*
G02*
X140262611Y-106499365I-124968J0D01*
G01*
X140262611Y-106499365D02*
G75*
G02*
X140512547Y-106499365I124968J0D01*
G01*
D14*
%TO.C,Q1*%
X141653787Y-109243787D02*
X141653787Y-110275410D01*
X141653787Y-112296213D02*
X141653787Y-111264590D01*
X143106213Y-109243787D02*
X141653787Y-109243787D01*
X143106213Y-110314602D02*
X143106213Y-111225398D01*
X143106213Y-112296213D02*
X141653787Y-112296213D01*
D10*
%TO.C,TP3*%
X122000000Y-133500000D02*
X123900000Y-133500000D01*
X122000000Y-135400000D02*
X122000000Y-133500000D01*
X123900000Y-133500000D02*
X123900000Y-135400000D01*
X123900000Y-135400000D02*
X122000000Y-135400000D01*
%TO.C,C75*%
X102287164Y-102872500D02*
X102502836Y-102872500D01*
X102287164Y-103592500D02*
X102502836Y-103592500D01*
%TO.C,R40*%
X131211359Y-125733100D02*
X131518641Y-125733100D01*
X131211359Y-126493100D02*
X131518641Y-126493100D01*
%TO.C,TP9*%
X119550000Y-136550000D02*
X121450000Y-136550000D01*
X119550000Y-138450000D02*
X119550000Y-136550000D01*
X121450000Y-136550000D02*
X121450000Y-138450000D01*
X121450000Y-138450000D02*
X119550000Y-138450000D01*
%TO.C,TP7*%
X107600000Y-127000000D02*
X109500000Y-127000000D01*
X107600000Y-128900000D02*
X107600000Y-127000000D01*
X109500000Y-127000000D02*
X109500000Y-128900000D01*
X109500000Y-128900000D02*
X107600000Y-128900000D01*
%TO.C,TP4*%
X141000000Y-125000000D02*
X142900000Y-125000000D01*
X141000000Y-126900000D02*
X141000000Y-125000000D01*
X142900000Y-125000000D02*
X142900000Y-126900000D01*
X142900000Y-126900000D02*
X141000000Y-126900000D01*
%TO.C,R36*%
X141753641Y-117537400D02*
X141446359Y-117537400D01*
X141753641Y-118297400D02*
X141446359Y-118297400D01*
%TO.C,PZ1*%
X133000000Y-136500000D02*
X134900000Y-136500000D01*
X133000000Y-138400000D02*
X133000000Y-136500000D01*
X134900000Y-136500000D02*
X134900000Y-138400000D01*
X134900000Y-138400000D02*
X133000000Y-138400000D01*
D19*
%TO.C,U11*%
X110813787Y-103048588D02*
X115866213Y-103048588D01*
X110813787Y-104121105D02*
X110813787Y-103048588D01*
X110813787Y-105005382D02*
X110813787Y-106091412D01*
X110813787Y-106091412D02*
X115866213Y-106091412D01*
X111272436Y-103048588D02*
X110813787Y-103048588D01*
X111272436Y-106091412D02*
X110813787Y-106091412D01*
X112542438Y-103048588D02*
X111597557Y-103048588D01*
X112542438Y-106091412D02*
X111597557Y-106091412D01*
X113812441Y-103048588D02*
X112867559Y-103048588D01*
X113812441Y-106091412D02*
X112867559Y-106091412D01*
X115082443Y-103048588D02*
X114137562Y-103048588D01*
X115082443Y-106091412D02*
X114137562Y-106091412D01*
X115866213Y-103048588D02*
X115407564Y-103048588D01*
X115866213Y-103048588D02*
X115866213Y-106091412D01*
X115866213Y-106091412D02*
X115407564Y-106091412D01*
X110813787Y-105005383D02*
G75*
G02*
X110813787Y-104121105I0J442139D01*
G01*
D16*
X111585110Y-105586002D02*
G75*
G02*
X111284882Y-105586002I-150114J0D01*
G01*
X111284882Y-105586002D02*
G75*
G02*
X111585110Y-105586002I150114J0D01*
G01*
D12*
%TO.C,J1*%
X117927915Y-98999016D02*
X117927915Y-100471990D01*
X117927915Y-102428048D02*
X117927915Y-104422003D01*
X117999924Y-98850019D02*
X126999924Y-98850019D01*
X126999924Y-98850019D02*
X126999924Y-100468866D01*
X126999924Y-102431172D02*
X126999924Y-104418904D01*
D10*
%TO.C,TP2*%
X107400000Y-113550000D02*
X109300000Y-113550000D01*
X107400000Y-115450000D02*
X107400000Y-113550000D01*
X109300000Y-113550000D02*
X109300000Y-115450000D01*
X109300000Y-115450000D02*
X107400000Y-115450000D01*
D12*
%TO.C,J18*%
X101000000Y-140699987D02*
X101968860Y-140699987D01*
X101000000Y-142550000D02*
X101000000Y-140699987D01*
X101000000Y-142550000D02*
X101000000Y-143156350D01*
X102031140Y-145000013D02*
X103968860Y-145000013D01*
X104031140Y-140699987D02*
X105000000Y-140699987D01*
X105000000Y-140699987D02*
X105000000Y-143156350D01*
%TO.C,J15*%
X140162052Y-139550000D02*
X140162052Y-140718860D01*
X140162052Y-143781140D02*
X140162052Y-144950000D01*
X140162052Y-144950000D02*
X144462052Y-144950000D01*
X144462052Y-139550000D02*
X140162052Y-139550000D01*
X144462052Y-140781140D02*
X144462052Y-143718860D01*
D16*
X139529591Y-144181928D02*
G75*
G02*
X139229363Y-144181928I-150114J0D01*
G01*
X139229363Y-144181928D02*
G75*
G02*
X139529591Y-144181928I150114J0D01*
G01*
D10*
%TO.C,U8*%
X129050000Y-111640000D02*
G75*
G02*
X128850000Y-111640000I-100000J0D01*
G01*
X128850000Y-111640000D02*
G75*
G02*
X129050000Y-111640000I100000J0D01*
G01*
%TO.C,R55*%
X103346359Y-138120000D02*
X103653641Y-138120000D01*
X103346359Y-138880000D02*
X103653641Y-138880000D01*
%TO.C,R51*%
X103531359Y-109237500D02*
X103838641Y-109237500D01*
X103531359Y-109997500D02*
X103838641Y-109997500D01*
%TO.C,P44*%
X115270000Y-131891100D02*
X117170000Y-131891100D01*
X115270000Y-133791100D02*
X115270000Y-131891100D01*
X117170000Y-131891100D02*
X117170000Y-133791100D01*
X117170000Y-133791100D02*
X115270000Y-133791100D01*
%TO.C,P72*%
X109600000Y-131500000D02*
X111500000Y-131500000D01*
X109600000Y-133400000D02*
X109600000Y-131500000D01*
X111500000Y-131500000D02*
X111500000Y-133400000D01*
X111500000Y-133400000D02*
X109600000Y-133400000D01*
%TO.C,TP22*%
X104000000Y-100850000D02*
X105900000Y-100850000D01*
X104000000Y-102750000D02*
X104000000Y-100850000D01*
X105900000Y-100850000D02*
X105900000Y-102750000D01*
X105900000Y-102750000D02*
X104000000Y-102750000D01*
%TD*%
M02*
