%TF.GenerationSoftware,KiCad,Pcbnew,9.0.8+dfsg-1*%
%TF.CreationDate,2026-09-30T16:01:07+01:00*%
%TF.ProjectId,NAVCORE-SoOP,4e415643-4f52-4452-9d53-6f4f502e6b69,rev?*%
%TF.SameCoordinates,Original*%
%TF.FileFunction,Legend,Top*%
%TF.FilePolarity,Positive*%
%FSLAX46Y46*%
G04 Gerber Fmt 4.6, Leading zero omitted, Abs format (unit mm)*
G04 Created by KiCad (PCBNEW 9.0.8+dfsg-1) date 2026-09-30 16:01:07*
%MOMM*%
%LPD*%
G01*
G04 APERTURE LIST*
%ADD10C,0.150000*%
%ADD11C,0.254001*%
%ADD12C,0.120000*%
%ADD13C,0.152400*%
%ADD14C,0.100000*%
%ADD15C,0.200000*%
%ADD16C,0.300000*%
%ADD17C,0.600000*%
%ADD18C,0.150013*%
G04 APERTURE END LIST*
D10*
X104214524Y-111686009D02*
X104547857Y-111686009D01*
X104690714Y-112209819D02*
X104214524Y-112209819D01*
X104214524Y-112209819D02*
X104214524Y-111209819D01*
X104214524Y-111209819D02*
X104690714Y-111209819D01*
X105071667Y-112162200D02*
X105214524Y-112209819D01*
X105214524Y-112209819D02*
X105452619Y-112209819D01*
X105452619Y-112209819D02*
X105547857Y-112162200D01*
X105547857Y-112162200D02*
X105595476Y-112114580D01*
X105595476Y-112114580D02*
X105643095Y-112019342D01*
X105643095Y-112019342D02*
X105643095Y-111924104D01*
X105643095Y-111924104D02*
X105595476Y-111828866D01*
X105595476Y-111828866D02*
X105547857Y-111781247D01*
X105547857Y-111781247D02*
X105452619Y-111733628D01*
X105452619Y-111733628D02*
X105262143Y-111686009D01*
X105262143Y-111686009D02*
X105166905Y-111638390D01*
X105166905Y-111638390D02*
X105119286Y-111590771D01*
X105119286Y-111590771D02*
X105071667Y-111495533D01*
X105071667Y-111495533D02*
X105071667Y-111400295D01*
X105071667Y-111400295D02*
X105119286Y-111305057D01*
X105119286Y-111305057D02*
X105166905Y-111257438D01*
X105166905Y-111257438D02*
X105262143Y-111209819D01*
X105262143Y-111209819D02*
X105500238Y-111209819D01*
X105500238Y-111209819D02*
X105643095Y-111257438D01*
X106643095Y-112114580D02*
X106595476Y-112162200D01*
X106595476Y-112162200D02*
X106452619Y-112209819D01*
X106452619Y-112209819D02*
X106357381Y-112209819D01*
X106357381Y-112209819D02*
X106214524Y-112162200D01*
X106214524Y-112162200D02*
X106119286Y-112066961D01*
X106119286Y-112066961D02*
X106071667Y-111971723D01*
X106071667Y-111971723D02*
X106024048Y-111781247D01*
X106024048Y-111781247D02*
X106024048Y-111638390D01*
X106024048Y-111638390D02*
X106071667Y-111447914D01*
X106071667Y-111447914D02*
X106119286Y-111352676D01*
X106119286Y-111352676D02*
X106214524Y-111257438D01*
X106214524Y-111257438D02*
X106357381Y-111209819D01*
X106357381Y-111209819D02*
X106452619Y-111209819D01*
X106452619Y-111209819D02*
X106595476Y-111257438D01*
X106595476Y-111257438D02*
X106643095Y-111305057D01*
X105385714Y-141639819D02*
X105385714Y-140639819D01*
X105385714Y-140639819D02*
X105766666Y-140639819D01*
X105766666Y-140639819D02*
X105861904Y-140687438D01*
X105861904Y-140687438D02*
X105909523Y-140735057D01*
X105909523Y-140735057D02*
X105957142Y-140830295D01*
X105957142Y-140830295D02*
X105957142Y-140973152D01*
X105957142Y-140973152D02*
X105909523Y-141068390D01*
X105909523Y-141068390D02*
X105861904Y-141116009D01*
X105861904Y-141116009D02*
X105766666Y-141163628D01*
X105766666Y-141163628D02*
X105385714Y-141163628D01*
X106576190Y-141163628D02*
X106576190Y-141639819D01*
X106242857Y-140639819D02*
X106576190Y-141163628D01*
X106576190Y-141163628D02*
X106909523Y-140639819D01*
X107814285Y-141639819D02*
X107480952Y-141163628D01*
X107242857Y-141639819D02*
X107242857Y-140639819D01*
X107242857Y-140639819D02*
X107623809Y-140639819D01*
X107623809Y-140639819D02*
X107719047Y-140687438D01*
X107719047Y-140687438D02*
X107766666Y-140735057D01*
X107766666Y-140735057D02*
X107814285Y-140830295D01*
X107814285Y-140830295D02*
X107814285Y-140973152D01*
X107814285Y-140973152D02*
X107766666Y-141068390D01*
X107766666Y-141068390D02*
X107719047Y-141116009D01*
X107719047Y-141116009D02*
X107623809Y-141163628D01*
X107623809Y-141163628D02*
X107242857Y-141163628D01*
X108433333Y-140639819D02*
X108623809Y-140639819D01*
X108623809Y-140639819D02*
X108719047Y-140687438D01*
X108719047Y-140687438D02*
X108814285Y-140782676D01*
X108814285Y-140782676D02*
X108861904Y-140973152D01*
X108861904Y-140973152D02*
X108861904Y-141306485D01*
X108861904Y-141306485D02*
X108814285Y-141496961D01*
X108814285Y-141496961D02*
X108719047Y-141592200D01*
X108719047Y-141592200D02*
X108623809Y-141639819D01*
X108623809Y-141639819D02*
X108433333Y-141639819D01*
X108433333Y-141639819D02*
X108338095Y-141592200D01*
X108338095Y-141592200D02*
X108242857Y-141496961D01*
X108242857Y-141496961D02*
X108195238Y-141306485D01*
X108195238Y-141306485D02*
X108195238Y-140973152D01*
X108195238Y-140973152D02*
X108242857Y-140782676D01*
X108242857Y-140782676D02*
X108338095Y-140687438D01*
X108338095Y-140687438D02*
X108433333Y-140639819D01*
X114009524Y-139922200D02*
X114152381Y-139969819D01*
X114152381Y-139969819D02*
X114390476Y-139969819D01*
X114390476Y-139969819D02*
X114485714Y-139922200D01*
X114485714Y-139922200D02*
X114533333Y-139874580D01*
X114533333Y-139874580D02*
X114580952Y-139779342D01*
X114580952Y-139779342D02*
X114580952Y-139684104D01*
X114580952Y-139684104D02*
X114533333Y-139588866D01*
X114533333Y-139588866D02*
X114485714Y-139541247D01*
X114485714Y-139541247D02*
X114390476Y-139493628D01*
X114390476Y-139493628D02*
X114200000Y-139446009D01*
X114200000Y-139446009D02*
X114104762Y-139398390D01*
X114104762Y-139398390D02*
X114057143Y-139350771D01*
X114057143Y-139350771D02*
X114009524Y-139255533D01*
X114009524Y-139255533D02*
X114009524Y-139160295D01*
X114009524Y-139160295D02*
X114057143Y-139065057D01*
X114057143Y-139065057D02*
X114104762Y-139017438D01*
X114104762Y-139017438D02*
X114200000Y-138969819D01*
X114200000Y-138969819D02*
X114438095Y-138969819D01*
X114438095Y-138969819D02*
X114580952Y-139017438D01*
X115009524Y-139446009D02*
X115342857Y-139446009D01*
X115485714Y-139969819D02*
X115009524Y-139969819D01*
X115009524Y-139969819D02*
X115009524Y-138969819D01*
X115009524Y-138969819D02*
X115485714Y-138969819D01*
X116485714Y-139969819D02*
X116152381Y-139493628D01*
X115914286Y-139969819D02*
X115914286Y-138969819D01*
X115914286Y-138969819D02*
X116295238Y-138969819D01*
X116295238Y-138969819D02*
X116390476Y-139017438D01*
X116390476Y-139017438D02*
X116438095Y-139065057D01*
X116438095Y-139065057D02*
X116485714Y-139160295D01*
X116485714Y-139160295D02*
X116485714Y-139303152D01*
X116485714Y-139303152D02*
X116438095Y-139398390D01*
X116438095Y-139398390D02*
X116390476Y-139446009D01*
X116390476Y-139446009D02*
X116295238Y-139493628D01*
X116295238Y-139493628D02*
X115914286Y-139493628D01*
X116771429Y-138969819D02*
X117104762Y-139969819D01*
X117104762Y-139969819D02*
X117438095Y-138969819D01*
X117961905Y-138969819D02*
X118152381Y-138969819D01*
X118152381Y-138969819D02*
X118247619Y-139017438D01*
X118247619Y-139017438D02*
X118342857Y-139112676D01*
X118342857Y-139112676D02*
X118390476Y-139303152D01*
X118390476Y-139303152D02*
X118390476Y-139636485D01*
X118390476Y-139636485D02*
X118342857Y-139826961D01*
X118342857Y-139826961D02*
X118247619Y-139922200D01*
X118247619Y-139922200D02*
X118152381Y-139969819D01*
X118152381Y-139969819D02*
X117961905Y-139969819D01*
X117961905Y-139969819D02*
X117866667Y-139922200D01*
X117866667Y-139922200D02*
X117771429Y-139826961D01*
X117771429Y-139826961D02*
X117723810Y-139636485D01*
X117723810Y-139636485D02*
X117723810Y-139303152D01*
X117723810Y-139303152D02*
X117771429Y-139112676D01*
X117771429Y-139112676D02*
X117866667Y-139017438D01*
X117866667Y-139017438D02*
X117961905Y-138969819D01*
X130482143Y-100574104D02*
X130958333Y-100574104D01*
X130386905Y-100859819D02*
X130720238Y-99859819D01*
X130720238Y-99859819D02*
X131053571Y-100859819D01*
X131386905Y-100859819D02*
X131386905Y-99859819D01*
X131386905Y-99859819D02*
X131958333Y-100859819D01*
X131958333Y-100859819D02*
X131958333Y-99859819D01*
X132291667Y-99859819D02*
X132863095Y-99859819D01*
X132577381Y-100859819D02*
X132577381Y-99859819D01*
X140294523Y-126504819D02*
X139961190Y-126028628D01*
X139723095Y-126504819D02*
X139723095Y-125504819D01*
X139723095Y-125504819D02*
X140104047Y-125504819D01*
X140104047Y-125504819D02*
X140199285Y-125552438D01*
X140199285Y-125552438D02*
X140246904Y-125600057D01*
X140246904Y-125600057D02*
X140294523Y-125695295D01*
X140294523Y-125695295D02*
X140294523Y-125838152D01*
X140294523Y-125838152D02*
X140246904Y-125933390D01*
X140246904Y-125933390D02*
X140199285Y-125981009D01*
X140199285Y-125981009D02*
X140104047Y-126028628D01*
X140104047Y-126028628D02*
X139723095Y-126028628D01*
X141294523Y-126409580D02*
X141246904Y-126457200D01*
X141246904Y-126457200D02*
X141104047Y-126504819D01*
X141104047Y-126504819D02*
X141008809Y-126504819D01*
X141008809Y-126504819D02*
X140865952Y-126457200D01*
X140865952Y-126457200D02*
X140770714Y-126361961D01*
X140770714Y-126361961D02*
X140723095Y-126266723D01*
X140723095Y-126266723D02*
X140675476Y-126076247D01*
X140675476Y-126076247D02*
X140675476Y-125933390D01*
X140675476Y-125933390D02*
X140723095Y-125742914D01*
X140723095Y-125742914D02*
X140770714Y-125647676D01*
X140770714Y-125647676D02*
X140865952Y-125552438D01*
X140865952Y-125552438D02*
X141008809Y-125504819D01*
X141008809Y-125504819D02*
X141104047Y-125504819D01*
X141104047Y-125504819D02*
X141246904Y-125552438D01*
X141246904Y-125552438D02*
X141294523Y-125600057D01*
X101424819Y-136576189D02*
X100424819Y-136576189D01*
X100520057Y-136147618D02*
X100472438Y-136099999D01*
X100472438Y-136099999D02*
X100424819Y-136004761D01*
X100424819Y-136004761D02*
X100424819Y-135766666D01*
X100424819Y-135766666D02*
X100472438Y-135671428D01*
X100472438Y-135671428D02*
X100520057Y-135623809D01*
X100520057Y-135623809D02*
X100615295Y-135576190D01*
X100615295Y-135576190D02*
X100710533Y-135576190D01*
X100710533Y-135576190D02*
X100853390Y-135623809D01*
X100853390Y-135623809D02*
X101424819Y-136195237D01*
X101424819Y-136195237D02*
X101424819Y-135576190D01*
X101329580Y-134576190D02*
X101377200Y-134623809D01*
X101377200Y-134623809D02*
X101424819Y-134766666D01*
X101424819Y-134766666D02*
X101424819Y-134861904D01*
X101424819Y-134861904D02*
X101377200Y-135004761D01*
X101377200Y-135004761D02*
X101281961Y-135099999D01*
X101281961Y-135099999D02*
X101186723Y-135147618D01*
X101186723Y-135147618D02*
X100996247Y-135195237D01*
X100996247Y-135195237D02*
X100853390Y-135195237D01*
X100853390Y-135195237D02*
X100662914Y-135147618D01*
X100662914Y-135147618D02*
X100567676Y-135099999D01*
X100567676Y-135099999D02*
X100472438Y-135004761D01*
X100472438Y-135004761D02*
X100424819Y-134861904D01*
X100424819Y-134861904D02*
X100424819Y-134766666D01*
X100424819Y-134766666D02*
X100472438Y-134623809D01*
X100472438Y-134623809D02*
X100520057Y-134576190D01*
X118989819Y-102731904D02*
X119799342Y-102731904D01*
X119799342Y-102731904D02*
X119894580Y-102684285D01*
X119894580Y-102684285D02*
X119942200Y-102636666D01*
X119942200Y-102636666D02*
X119989819Y-102541428D01*
X119989819Y-102541428D02*
X119989819Y-102350952D01*
X119989819Y-102350952D02*
X119942200Y-102255714D01*
X119942200Y-102255714D02*
X119894580Y-102208095D01*
X119894580Y-102208095D02*
X119799342Y-102160476D01*
X119799342Y-102160476D02*
X118989819Y-102160476D01*
X119942200Y-101731904D02*
X119989819Y-101589047D01*
X119989819Y-101589047D02*
X119989819Y-101350952D01*
X119989819Y-101350952D02*
X119942200Y-101255714D01*
X119942200Y-101255714D02*
X119894580Y-101208095D01*
X119894580Y-101208095D02*
X119799342Y-101160476D01*
X119799342Y-101160476D02*
X119704104Y-101160476D01*
X119704104Y-101160476D02*
X119608866Y-101208095D01*
X119608866Y-101208095D02*
X119561247Y-101255714D01*
X119561247Y-101255714D02*
X119513628Y-101350952D01*
X119513628Y-101350952D02*
X119466009Y-101541428D01*
X119466009Y-101541428D02*
X119418390Y-101636666D01*
X119418390Y-101636666D02*
X119370771Y-101684285D01*
X119370771Y-101684285D02*
X119275533Y-101731904D01*
X119275533Y-101731904D02*
X119180295Y-101731904D01*
X119180295Y-101731904D02*
X119085057Y-101684285D01*
X119085057Y-101684285D02*
X119037438Y-101636666D01*
X119037438Y-101636666D02*
X118989819Y-101541428D01*
X118989819Y-101541428D02*
X118989819Y-101303333D01*
X118989819Y-101303333D02*
X119037438Y-101160476D01*
X119466009Y-100398571D02*
X119513628Y-100255714D01*
X119513628Y-100255714D02*
X119561247Y-100208095D01*
X119561247Y-100208095D02*
X119656485Y-100160476D01*
X119656485Y-100160476D02*
X119799342Y-100160476D01*
X119799342Y-100160476D02*
X119894580Y-100208095D01*
X119894580Y-100208095D02*
X119942200Y-100255714D01*
X119942200Y-100255714D02*
X119989819Y-100350952D01*
X119989819Y-100350952D02*
X119989819Y-100731904D01*
X119989819Y-100731904D02*
X118989819Y-100731904D01*
X118989819Y-100731904D02*
X118989819Y-100398571D01*
X118989819Y-100398571D02*
X119037438Y-100303333D01*
X119037438Y-100303333D02*
X119085057Y-100255714D01*
X119085057Y-100255714D02*
X119180295Y-100208095D01*
X119180295Y-100208095D02*
X119275533Y-100208095D01*
X119275533Y-100208095D02*
X119370771Y-100255714D01*
X119370771Y-100255714D02*
X119418390Y-100303333D01*
X119418390Y-100303333D02*
X119466009Y-100398571D01*
X119466009Y-100398571D02*
X119466009Y-100731904D01*
X127527438Y-130639285D02*
X127479819Y-130734523D01*
X127479819Y-130734523D02*
X127479819Y-130877380D01*
X127479819Y-130877380D02*
X127527438Y-131020237D01*
X127527438Y-131020237D02*
X127622676Y-131115475D01*
X127622676Y-131115475D02*
X127717914Y-131163094D01*
X127717914Y-131163094D02*
X127908390Y-131210713D01*
X127908390Y-131210713D02*
X128051247Y-131210713D01*
X128051247Y-131210713D02*
X128241723Y-131163094D01*
X128241723Y-131163094D02*
X128336961Y-131115475D01*
X128336961Y-131115475D02*
X128432200Y-131020237D01*
X128432200Y-131020237D02*
X128479819Y-130877380D01*
X128479819Y-130877380D02*
X128479819Y-130782142D01*
X128479819Y-130782142D02*
X128432200Y-130639285D01*
X128432200Y-130639285D02*
X128384580Y-130591666D01*
X128384580Y-130591666D02*
X128051247Y-130591666D01*
X128051247Y-130591666D02*
X128051247Y-130782142D01*
X128479819Y-130163094D02*
X127479819Y-130163094D01*
X127479819Y-130163094D02*
X127479819Y-129782142D01*
X127479819Y-129782142D02*
X127527438Y-129686904D01*
X127527438Y-129686904D02*
X127575057Y-129639285D01*
X127575057Y-129639285D02*
X127670295Y-129591666D01*
X127670295Y-129591666D02*
X127813152Y-129591666D01*
X127813152Y-129591666D02*
X127908390Y-129639285D01*
X127908390Y-129639285D02*
X127956009Y-129686904D01*
X127956009Y-129686904D02*
X128003628Y-129782142D01*
X128003628Y-129782142D02*
X128003628Y-130163094D01*
X128432200Y-129210713D02*
X128479819Y-129067856D01*
X128479819Y-129067856D02*
X128479819Y-128829761D01*
X128479819Y-128829761D02*
X128432200Y-128734523D01*
X128432200Y-128734523D02*
X128384580Y-128686904D01*
X128384580Y-128686904D02*
X128289342Y-128639285D01*
X128289342Y-128639285D02*
X128194104Y-128639285D01*
X128194104Y-128639285D02*
X128098866Y-128686904D01*
X128098866Y-128686904D02*
X128051247Y-128734523D01*
X128051247Y-128734523D02*
X128003628Y-128829761D01*
X128003628Y-128829761D02*
X127956009Y-129020237D01*
X127956009Y-129020237D02*
X127908390Y-129115475D01*
X127908390Y-129115475D02*
X127860771Y-129163094D01*
X127860771Y-129163094D02*
X127765533Y-129210713D01*
X127765533Y-129210713D02*
X127670295Y-129210713D01*
X127670295Y-129210713D02*
X127575057Y-129163094D01*
X127575057Y-129163094D02*
X127527438Y-129115475D01*
X127527438Y-129115475D02*
X127479819Y-129020237D01*
X127479819Y-129020237D02*
X127479819Y-128782142D01*
X127479819Y-128782142D02*
X127527438Y-128639285D01*
X143637438Y-135246904D02*
X143589819Y-135342142D01*
X143589819Y-135342142D02*
X143589819Y-135484999D01*
X143589819Y-135484999D02*
X143637438Y-135627856D01*
X143637438Y-135627856D02*
X143732676Y-135723094D01*
X143732676Y-135723094D02*
X143827914Y-135770713D01*
X143827914Y-135770713D02*
X144018390Y-135818332D01*
X144018390Y-135818332D02*
X144161247Y-135818332D01*
X144161247Y-135818332D02*
X144351723Y-135770713D01*
X144351723Y-135770713D02*
X144446961Y-135723094D01*
X144446961Y-135723094D02*
X144542200Y-135627856D01*
X144542200Y-135627856D02*
X144589819Y-135484999D01*
X144589819Y-135484999D02*
X144589819Y-135389761D01*
X144589819Y-135389761D02*
X144542200Y-135246904D01*
X144542200Y-135246904D02*
X144494580Y-135199285D01*
X144494580Y-135199285D02*
X144161247Y-135199285D01*
X144161247Y-135199285D02*
X144161247Y-135389761D01*
X144589819Y-134770713D02*
X143589819Y-134770713D01*
X143589819Y-134770713D02*
X144589819Y-134199285D01*
X144589819Y-134199285D02*
X143589819Y-134199285D01*
X144589819Y-133723094D02*
X143589819Y-133723094D01*
X143589819Y-133723094D02*
X143589819Y-133484999D01*
X143589819Y-133484999D02*
X143637438Y-133342142D01*
X143637438Y-133342142D02*
X143732676Y-133246904D01*
X143732676Y-133246904D02*
X143827914Y-133199285D01*
X143827914Y-133199285D02*
X144018390Y-133151666D01*
X144018390Y-133151666D02*
X144161247Y-133151666D01*
X144161247Y-133151666D02*
X144351723Y-133199285D01*
X144351723Y-133199285D02*
X144446961Y-133246904D01*
X144446961Y-133246904D02*
X144542200Y-133342142D01*
X144542200Y-133342142D02*
X144589819Y-133484999D01*
X144589819Y-133484999D02*
X144589819Y-133723094D01*
X125115333Y-129447419D02*
X124639143Y-129447419D01*
X124639143Y-129447419D02*
X124639143Y-128447419D01*
X125972476Y-129447419D02*
X125401048Y-129447419D01*
X125686762Y-129447419D02*
X125686762Y-128447419D01*
X125686762Y-128447419D02*
X125591524Y-128590276D01*
X125591524Y-128590276D02*
X125496286Y-128685514D01*
X125496286Y-128685514D02*
X125401048Y-128733133D01*
X144139819Y-131227857D02*
X143663628Y-131561190D01*
X144139819Y-131799285D02*
X143139819Y-131799285D01*
X143139819Y-131799285D02*
X143139819Y-131418333D01*
X143139819Y-131418333D02*
X143187438Y-131323095D01*
X143187438Y-131323095D02*
X143235057Y-131275476D01*
X143235057Y-131275476D02*
X143330295Y-131227857D01*
X143330295Y-131227857D02*
X143473152Y-131227857D01*
X143473152Y-131227857D02*
X143568390Y-131275476D01*
X143568390Y-131275476D02*
X143616009Y-131323095D01*
X143616009Y-131323095D02*
X143663628Y-131418333D01*
X143663628Y-131418333D02*
X143663628Y-131799285D01*
X143139819Y-130894523D02*
X144139819Y-130227857D01*
X143139819Y-130227857D02*
X144139819Y-130894523D01*
X143139819Y-129418333D02*
X143139819Y-129608809D01*
X143139819Y-129608809D02*
X143187438Y-129704047D01*
X143187438Y-129704047D02*
X143235057Y-129751666D01*
X143235057Y-129751666D02*
X143377914Y-129846904D01*
X143377914Y-129846904D02*
X143568390Y-129894523D01*
X143568390Y-129894523D02*
X143949342Y-129894523D01*
X143949342Y-129894523D02*
X144044580Y-129846904D01*
X144044580Y-129846904D02*
X144092200Y-129799285D01*
X144092200Y-129799285D02*
X144139819Y-129704047D01*
X144139819Y-129704047D02*
X144139819Y-129513571D01*
X144139819Y-129513571D02*
X144092200Y-129418333D01*
X144092200Y-129418333D02*
X144044580Y-129370714D01*
X144044580Y-129370714D02*
X143949342Y-129323095D01*
X143949342Y-129323095D02*
X143711247Y-129323095D01*
X143711247Y-129323095D02*
X143616009Y-129370714D01*
X143616009Y-129370714D02*
X143568390Y-129418333D01*
X143568390Y-129418333D02*
X143520771Y-129513571D01*
X143520771Y-129513571D02*
X143520771Y-129704047D01*
X143520771Y-129704047D02*
X143568390Y-129799285D01*
X143568390Y-129799285D02*
X143616009Y-129846904D01*
X143616009Y-129846904D02*
X143711247Y-129894523D01*
X104561191Y-104989819D02*
X104561191Y-103989819D01*
X104561191Y-103989819D02*
X104799286Y-103989819D01*
X104799286Y-103989819D02*
X104942143Y-104037438D01*
X104942143Y-104037438D02*
X105037381Y-104132676D01*
X105037381Y-104132676D02*
X105085000Y-104227914D01*
X105085000Y-104227914D02*
X105132619Y-104418390D01*
X105132619Y-104418390D02*
X105132619Y-104561247D01*
X105132619Y-104561247D02*
X105085000Y-104751723D01*
X105085000Y-104751723D02*
X105037381Y-104846961D01*
X105037381Y-104846961D02*
X104942143Y-104942200D01*
X104942143Y-104942200D02*
X104799286Y-104989819D01*
X104799286Y-104989819D02*
X104561191Y-104989819D01*
X105561191Y-104989819D02*
X105561191Y-103989819D01*
X106227857Y-103989819D02*
X106418333Y-103989819D01*
X106418333Y-103989819D02*
X106513571Y-104037438D01*
X106513571Y-104037438D02*
X106608809Y-104132676D01*
X106608809Y-104132676D02*
X106656428Y-104323152D01*
X106656428Y-104323152D02*
X106656428Y-104656485D01*
X106656428Y-104656485D02*
X106608809Y-104846961D01*
X106608809Y-104846961D02*
X106513571Y-104942200D01*
X106513571Y-104942200D02*
X106418333Y-104989819D01*
X106418333Y-104989819D02*
X106227857Y-104989819D01*
X106227857Y-104989819D02*
X106132619Y-104942200D01*
X106132619Y-104942200D02*
X106037381Y-104846961D01*
X106037381Y-104846961D02*
X105989762Y-104656485D01*
X105989762Y-104656485D02*
X105989762Y-104323152D01*
X105989762Y-104323152D02*
X106037381Y-104132676D01*
X106037381Y-104132676D02*
X106132619Y-104037438D01*
X106132619Y-104037438D02*
X106227857Y-103989819D01*
X121471380Y-128495257D02*
X121519000Y-128542876D01*
X121519000Y-128542876D02*
X121566619Y-128685733D01*
X121566619Y-128685733D02*
X121566619Y-128780971D01*
X121566619Y-128780971D02*
X121519000Y-128923828D01*
X121519000Y-128923828D02*
X121423761Y-129019066D01*
X121423761Y-129019066D02*
X121328523Y-129066685D01*
X121328523Y-129066685D02*
X121138047Y-129114304D01*
X121138047Y-129114304D02*
X120995190Y-129114304D01*
X120995190Y-129114304D02*
X120804714Y-129066685D01*
X120804714Y-129066685D02*
X120709476Y-129019066D01*
X120709476Y-129019066D02*
X120614238Y-128923828D01*
X120614238Y-128923828D02*
X120566619Y-128780971D01*
X120566619Y-128780971D02*
X120566619Y-128685733D01*
X120566619Y-128685733D02*
X120614238Y-128542876D01*
X120614238Y-128542876D02*
X120661857Y-128495257D01*
X121566619Y-127542876D02*
X121566619Y-128114304D01*
X121566619Y-127828590D02*
X120566619Y-127828590D01*
X120566619Y-127828590D02*
X120709476Y-127923828D01*
X120709476Y-127923828D02*
X120804714Y-128019066D01*
X120804714Y-128019066D02*
X120852333Y-128114304D01*
X120566619Y-127209542D02*
X120566619Y-126590495D01*
X120566619Y-126590495D02*
X120947571Y-126923828D01*
X120947571Y-126923828D02*
X120947571Y-126780971D01*
X120947571Y-126780971D02*
X120995190Y-126685733D01*
X120995190Y-126685733D02*
X121042809Y-126638114D01*
X121042809Y-126638114D02*
X121138047Y-126590495D01*
X121138047Y-126590495D02*
X121376142Y-126590495D01*
X121376142Y-126590495D02*
X121471380Y-126638114D01*
X121471380Y-126638114D02*
X121519000Y-126685733D01*
X121519000Y-126685733D02*
X121566619Y-126780971D01*
X121566619Y-126780971D02*
X121566619Y-127066685D01*
X121566619Y-127066685D02*
X121519000Y-127161923D01*
X121519000Y-127161923D02*
X121471380Y-127209542D01*
X141852142Y-111504580D02*
X141804523Y-111552200D01*
X141804523Y-111552200D02*
X141661666Y-111599819D01*
X141661666Y-111599819D02*
X141566428Y-111599819D01*
X141566428Y-111599819D02*
X141423571Y-111552200D01*
X141423571Y-111552200D02*
X141328333Y-111456961D01*
X141328333Y-111456961D02*
X141280714Y-111361723D01*
X141280714Y-111361723D02*
X141233095Y-111171247D01*
X141233095Y-111171247D02*
X141233095Y-111028390D01*
X141233095Y-111028390D02*
X141280714Y-110837914D01*
X141280714Y-110837914D02*
X141328333Y-110742676D01*
X141328333Y-110742676D02*
X141423571Y-110647438D01*
X141423571Y-110647438D02*
X141566428Y-110599819D01*
X141566428Y-110599819D02*
X141661666Y-110599819D01*
X141661666Y-110599819D02*
X141804523Y-110647438D01*
X141804523Y-110647438D02*
X141852142Y-110695057D01*
X142423571Y-111028390D02*
X142328333Y-110980771D01*
X142328333Y-110980771D02*
X142280714Y-110933152D01*
X142280714Y-110933152D02*
X142233095Y-110837914D01*
X142233095Y-110837914D02*
X142233095Y-110790295D01*
X142233095Y-110790295D02*
X142280714Y-110695057D01*
X142280714Y-110695057D02*
X142328333Y-110647438D01*
X142328333Y-110647438D02*
X142423571Y-110599819D01*
X142423571Y-110599819D02*
X142614047Y-110599819D01*
X142614047Y-110599819D02*
X142709285Y-110647438D01*
X142709285Y-110647438D02*
X142756904Y-110695057D01*
X142756904Y-110695057D02*
X142804523Y-110790295D01*
X142804523Y-110790295D02*
X142804523Y-110837914D01*
X142804523Y-110837914D02*
X142756904Y-110933152D01*
X142756904Y-110933152D02*
X142709285Y-110980771D01*
X142709285Y-110980771D02*
X142614047Y-111028390D01*
X142614047Y-111028390D02*
X142423571Y-111028390D01*
X142423571Y-111028390D02*
X142328333Y-111076009D01*
X142328333Y-111076009D02*
X142280714Y-111123628D01*
X142280714Y-111123628D02*
X142233095Y-111218866D01*
X142233095Y-111218866D02*
X142233095Y-111409342D01*
X142233095Y-111409342D02*
X142280714Y-111504580D01*
X142280714Y-111504580D02*
X142328333Y-111552200D01*
X142328333Y-111552200D02*
X142423571Y-111599819D01*
X142423571Y-111599819D02*
X142614047Y-111599819D01*
X142614047Y-111599819D02*
X142709285Y-111552200D01*
X142709285Y-111552200D02*
X142756904Y-111504580D01*
X142756904Y-111504580D02*
X142804523Y-111409342D01*
X142804523Y-111409342D02*
X142804523Y-111218866D01*
X142804523Y-111218866D02*
X142756904Y-111123628D01*
X142756904Y-111123628D02*
X142709285Y-111076009D01*
X142709285Y-111076009D02*
X142614047Y-111028390D01*
X143423571Y-110599819D02*
X143518809Y-110599819D01*
X143518809Y-110599819D02*
X143614047Y-110647438D01*
X143614047Y-110647438D02*
X143661666Y-110695057D01*
X143661666Y-110695057D02*
X143709285Y-110790295D01*
X143709285Y-110790295D02*
X143756904Y-110980771D01*
X143756904Y-110980771D02*
X143756904Y-111218866D01*
X143756904Y-111218866D02*
X143709285Y-111409342D01*
X143709285Y-111409342D02*
X143661666Y-111504580D01*
X143661666Y-111504580D02*
X143614047Y-111552200D01*
X143614047Y-111552200D02*
X143518809Y-111599819D01*
X143518809Y-111599819D02*
X143423571Y-111599819D01*
X143423571Y-111599819D02*
X143328333Y-111552200D01*
X143328333Y-111552200D02*
X143280714Y-111504580D01*
X143280714Y-111504580D02*
X143233095Y-111409342D01*
X143233095Y-111409342D02*
X143185476Y-111218866D01*
X143185476Y-111218866D02*
X143185476Y-110980771D01*
X143185476Y-110980771D02*
X143233095Y-110790295D01*
X143233095Y-110790295D02*
X143280714Y-110695057D01*
X143280714Y-110695057D02*
X143328333Y-110647438D01*
X143328333Y-110647438D02*
X143423571Y-110599819D01*
X108078333Y-121099819D02*
X107745000Y-120623628D01*
X107506905Y-121099819D02*
X107506905Y-120099819D01*
X107506905Y-120099819D02*
X107887857Y-120099819D01*
X107887857Y-120099819D02*
X107983095Y-120147438D01*
X107983095Y-120147438D02*
X108030714Y-120195057D01*
X108030714Y-120195057D02*
X108078333Y-120290295D01*
X108078333Y-120290295D02*
X108078333Y-120433152D01*
X108078333Y-120433152D02*
X108030714Y-120528390D01*
X108030714Y-120528390D02*
X107983095Y-120576009D01*
X107983095Y-120576009D02*
X107887857Y-120623628D01*
X107887857Y-120623628D02*
X107506905Y-120623628D01*
X109030714Y-121099819D02*
X108459286Y-121099819D01*
X108745000Y-121099819D02*
X108745000Y-120099819D01*
X108745000Y-120099819D02*
X108649762Y-120242676D01*
X108649762Y-120242676D02*
X108554524Y-120337914D01*
X108554524Y-120337914D02*
X108459286Y-120385533D01*
X140239819Y-138925476D02*
X140239819Y-139401666D01*
X140239819Y-139401666D02*
X140716009Y-139449285D01*
X140716009Y-139449285D02*
X140668390Y-139401666D01*
X140668390Y-139401666D02*
X140620771Y-139306428D01*
X140620771Y-139306428D02*
X140620771Y-139068333D01*
X140620771Y-139068333D02*
X140668390Y-138973095D01*
X140668390Y-138973095D02*
X140716009Y-138925476D01*
X140716009Y-138925476D02*
X140811247Y-138877857D01*
X140811247Y-138877857D02*
X141049342Y-138877857D01*
X141049342Y-138877857D02*
X141144580Y-138925476D01*
X141144580Y-138925476D02*
X141192200Y-138973095D01*
X141192200Y-138973095D02*
X141239819Y-139068333D01*
X141239819Y-139068333D02*
X141239819Y-139306428D01*
X141239819Y-139306428D02*
X141192200Y-139401666D01*
X141192200Y-139401666D02*
X141144580Y-139449285D01*
X140239819Y-138592142D02*
X141239819Y-138258809D01*
X141239819Y-138258809D02*
X140239819Y-137925476D01*
X116338095Y-137149819D02*
X116338095Y-137959342D01*
X116338095Y-137959342D02*
X116385714Y-138054580D01*
X116385714Y-138054580D02*
X116433333Y-138102200D01*
X116433333Y-138102200D02*
X116528571Y-138149819D01*
X116528571Y-138149819D02*
X116719047Y-138149819D01*
X116719047Y-138149819D02*
X116814285Y-138102200D01*
X116814285Y-138102200D02*
X116861904Y-138054580D01*
X116861904Y-138054580D02*
X116909523Y-137959342D01*
X116909523Y-137959342D02*
X116909523Y-137149819D01*
X117861904Y-137149819D02*
X117385714Y-137149819D01*
X117385714Y-137149819D02*
X117338095Y-137626009D01*
X117338095Y-137626009D02*
X117385714Y-137578390D01*
X117385714Y-137578390D02*
X117480952Y-137530771D01*
X117480952Y-137530771D02*
X117719047Y-137530771D01*
X117719047Y-137530771D02*
X117814285Y-137578390D01*
X117814285Y-137578390D02*
X117861904Y-137626009D01*
X117861904Y-137626009D02*
X117909523Y-137721247D01*
X117909523Y-137721247D02*
X117909523Y-137959342D01*
X117909523Y-137959342D02*
X117861904Y-138054580D01*
X117861904Y-138054580D02*
X117814285Y-138102200D01*
X117814285Y-138102200D02*
X117719047Y-138149819D01*
X117719047Y-138149819D02*
X117480952Y-138149819D01*
X117480952Y-138149819D02*
X117385714Y-138102200D01*
X117385714Y-138102200D02*
X117338095Y-138054580D01*
X133239819Y-136623094D02*
X133239819Y-136004047D01*
X133239819Y-136004047D02*
X133620771Y-136337380D01*
X133620771Y-136337380D02*
X133620771Y-136194523D01*
X133620771Y-136194523D02*
X133668390Y-136099285D01*
X133668390Y-136099285D02*
X133716009Y-136051666D01*
X133716009Y-136051666D02*
X133811247Y-136004047D01*
X133811247Y-136004047D02*
X134049342Y-136004047D01*
X134049342Y-136004047D02*
X134144580Y-136051666D01*
X134144580Y-136051666D02*
X134192200Y-136099285D01*
X134192200Y-136099285D02*
X134239819Y-136194523D01*
X134239819Y-136194523D02*
X134239819Y-136480237D01*
X134239819Y-136480237D02*
X134192200Y-136575475D01*
X134192200Y-136575475D02*
X134144580Y-136623094D01*
X133239819Y-135718332D02*
X134239819Y-135384999D01*
X134239819Y-135384999D02*
X133239819Y-135051666D01*
X133239819Y-134813570D02*
X133239819Y-134194523D01*
X133239819Y-134194523D02*
X133620771Y-134527856D01*
X133620771Y-134527856D02*
X133620771Y-134384999D01*
X133620771Y-134384999D02*
X133668390Y-134289761D01*
X133668390Y-134289761D02*
X133716009Y-134242142D01*
X133716009Y-134242142D02*
X133811247Y-134194523D01*
X133811247Y-134194523D02*
X134049342Y-134194523D01*
X134049342Y-134194523D02*
X134144580Y-134242142D01*
X134144580Y-134242142D02*
X134192200Y-134289761D01*
X134192200Y-134289761D02*
X134239819Y-134384999D01*
X134239819Y-134384999D02*
X134239819Y-134670713D01*
X134239819Y-134670713D02*
X134192200Y-134765951D01*
X134192200Y-134765951D02*
X134144580Y-134813570D01*
X134352142Y-100849819D02*
X134018809Y-100373628D01*
X133780714Y-100849819D02*
X133780714Y-99849819D01*
X133780714Y-99849819D02*
X134161666Y-99849819D01*
X134161666Y-99849819D02*
X134256904Y-99897438D01*
X134256904Y-99897438D02*
X134304523Y-99945057D01*
X134304523Y-99945057D02*
X134352142Y-100040295D01*
X134352142Y-100040295D02*
X134352142Y-100183152D01*
X134352142Y-100183152D02*
X134304523Y-100278390D01*
X134304523Y-100278390D02*
X134256904Y-100326009D01*
X134256904Y-100326009D02*
X134161666Y-100373628D01*
X134161666Y-100373628D02*
X133780714Y-100373628D01*
X134685476Y-99849819D02*
X135304523Y-99849819D01*
X135304523Y-99849819D02*
X134971190Y-100230771D01*
X134971190Y-100230771D02*
X135114047Y-100230771D01*
X135114047Y-100230771D02*
X135209285Y-100278390D01*
X135209285Y-100278390D02*
X135256904Y-100326009D01*
X135256904Y-100326009D02*
X135304523Y-100421247D01*
X135304523Y-100421247D02*
X135304523Y-100659342D01*
X135304523Y-100659342D02*
X135256904Y-100754580D01*
X135256904Y-100754580D02*
X135209285Y-100802200D01*
X135209285Y-100802200D02*
X135114047Y-100849819D01*
X135114047Y-100849819D02*
X134828333Y-100849819D01*
X134828333Y-100849819D02*
X134733095Y-100802200D01*
X134733095Y-100802200D02*
X134685476Y-100754580D01*
X135875952Y-100278390D02*
X135780714Y-100230771D01*
X135780714Y-100230771D02*
X135733095Y-100183152D01*
X135733095Y-100183152D02*
X135685476Y-100087914D01*
X135685476Y-100087914D02*
X135685476Y-100040295D01*
X135685476Y-100040295D02*
X135733095Y-99945057D01*
X135733095Y-99945057D02*
X135780714Y-99897438D01*
X135780714Y-99897438D02*
X135875952Y-99849819D01*
X135875952Y-99849819D02*
X136066428Y-99849819D01*
X136066428Y-99849819D02*
X136161666Y-99897438D01*
X136161666Y-99897438D02*
X136209285Y-99945057D01*
X136209285Y-99945057D02*
X136256904Y-100040295D01*
X136256904Y-100040295D02*
X136256904Y-100087914D01*
X136256904Y-100087914D02*
X136209285Y-100183152D01*
X136209285Y-100183152D02*
X136161666Y-100230771D01*
X136161666Y-100230771D02*
X136066428Y-100278390D01*
X136066428Y-100278390D02*
X135875952Y-100278390D01*
X135875952Y-100278390D02*
X135780714Y-100326009D01*
X135780714Y-100326009D02*
X135733095Y-100373628D01*
X135733095Y-100373628D02*
X135685476Y-100468866D01*
X135685476Y-100468866D02*
X135685476Y-100659342D01*
X135685476Y-100659342D02*
X135733095Y-100754580D01*
X135733095Y-100754580D02*
X135780714Y-100802200D01*
X135780714Y-100802200D02*
X135875952Y-100849819D01*
X135875952Y-100849819D02*
X136066428Y-100849819D01*
X136066428Y-100849819D02*
X136161666Y-100802200D01*
X136161666Y-100802200D02*
X136209285Y-100754580D01*
X136209285Y-100754580D02*
X136256904Y-100659342D01*
X136256904Y-100659342D02*
X136256904Y-100468866D01*
X136256904Y-100468866D02*
X136209285Y-100373628D01*
X136209285Y-100373628D02*
X136161666Y-100326009D01*
X136161666Y-100326009D02*
X136066428Y-100278390D01*
X120018184Y-107934908D02*
X120018184Y-108744431D01*
X120018184Y-108744431D02*
X120065803Y-108839669D01*
X120065803Y-108839669D02*
X120113422Y-108887289D01*
X120113422Y-108887289D02*
X120208660Y-108934908D01*
X120208660Y-108934908D02*
X120399136Y-108934908D01*
X120399136Y-108934908D02*
X120494374Y-108887289D01*
X120494374Y-108887289D02*
X120541993Y-108839669D01*
X120541993Y-108839669D02*
X120589612Y-108744431D01*
X120589612Y-108744431D02*
X120589612Y-107934908D01*
X121589612Y-108934908D02*
X121018184Y-108934908D01*
X121303898Y-108934908D02*
X121303898Y-107934908D01*
X121303898Y-107934908D02*
X121208660Y-108077765D01*
X121208660Y-108077765D02*
X121113422Y-108173003D01*
X121113422Y-108173003D02*
X121018184Y-108220622D01*
X119115952Y-134085057D02*
X119020714Y-134037438D01*
X119020714Y-134037438D02*
X118925476Y-133942200D01*
X118925476Y-133942200D02*
X118782619Y-133799342D01*
X118782619Y-133799342D02*
X118687381Y-133751723D01*
X118687381Y-133751723D02*
X118592143Y-133751723D01*
X118639762Y-133989819D02*
X118544524Y-133942200D01*
X118544524Y-133942200D02*
X118449286Y-133846961D01*
X118449286Y-133846961D02*
X118401667Y-133656485D01*
X118401667Y-133656485D02*
X118401667Y-133323152D01*
X118401667Y-133323152D02*
X118449286Y-133132676D01*
X118449286Y-133132676D02*
X118544524Y-133037438D01*
X118544524Y-133037438D02*
X118639762Y-132989819D01*
X118639762Y-132989819D02*
X118830238Y-132989819D01*
X118830238Y-132989819D02*
X118925476Y-133037438D01*
X118925476Y-133037438D02*
X119020714Y-133132676D01*
X119020714Y-133132676D02*
X119068333Y-133323152D01*
X119068333Y-133323152D02*
X119068333Y-133656485D01*
X119068333Y-133656485D02*
X119020714Y-133846961D01*
X119020714Y-133846961D02*
X118925476Y-133942200D01*
X118925476Y-133942200D02*
X118830238Y-133989819D01*
X118830238Y-133989819D02*
X118639762Y-133989819D01*
X130089819Y-145125476D02*
X130089819Y-145601666D01*
X130089819Y-145601666D02*
X130566009Y-145649285D01*
X130566009Y-145649285D02*
X130518390Y-145601666D01*
X130518390Y-145601666D02*
X130470771Y-145506428D01*
X130470771Y-145506428D02*
X130470771Y-145268333D01*
X130470771Y-145268333D02*
X130518390Y-145173095D01*
X130518390Y-145173095D02*
X130566009Y-145125476D01*
X130566009Y-145125476D02*
X130661247Y-145077857D01*
X130661247Y-145077857D02*
X130899342Y-145077857D01*
X130899342Y-145077857D02*
X130994580Y-145125476D01*
X130994580Y-145125476D02*
X131042200Y-145173095D01*
X131042200Y-145173095D02*
X131089819Y-145268333D01*
X131089819Y-145268333D02*
X131089819Y-145506428D01*
X131089819Y-145506428D02*
X131042200Y-145601666D01*
X131042200Y-145601666D02*
X130994580Y-145649285D01*
X130089819Y-144792142D02*
X131089819Y-144458809D01*
X131089819Y-144458809D02*
X130089819Y-144125476D01*
X128423095Y-139937438D02*
X128327857Y-139889819D01*
X128327857Y-139889819D02*
X128185000Y-139889819D01*
X128185000Y-139889819D02*
X128042143Y-139937438D01*
X128042143Y-139937438D02*
X127946905Y-140032676D01*
X127946905Y-140032676D02*
X127899286Y-140127914D01*
X127899286Y-140127914D02*
X127851667Y-140318390D01*
X127851667Y-140318390D02*
X127851667Y-140461247D01*
X127851667Y-140461247D02*
X127899286Y-140651723D01*
X127899286Y-140651723D02*
X127946905Y-140746961D01*
X127946905Y-140746961D02*
X128042143Y-140842200D01*
X128042143Y-140842200D02*
X128185000Y-140889819D01*
X128185000Y-140889819D02*
X128280238Y-140889819D01*
X128280238Y-140889819D02*
X128423095Y-140842200D01*
X128423095Y-140842200D02*
X128470714Y-140794580D01*
X128470714Y-140794580D02*
X128470714Y-140461247D01*
X128470714Y-140461247D02*
X128280238Y-140461247D01*
X128899286Y-140889819D02*
X128899286Y-139889819D01*
X128899286Y-139889819D02*
X129470714Y-140889819D01*
X129470714Y-140889819D02*
X129470714Y-139889819D01*
X129946905Y-140889819D02*
X129946905Y-139889819D01*
X129946905Y-139889819D02*
X130185000Y-139889819D01*
X130185000Y-139889819D02*
X130327857Y-139937438D01*
X130327857Y-139937438D02*
X130423095Y-140032676D01*
X130423095Y-140032676D02*
X130470714Y-140127914D01*
X130470714Y-140127914D02*
X130518333Y-140318390D01*
X130518333Y-140318390D02*
X130518333Y-140461247D01*
X130518333Y-140461247D02*
X130470714Y-140651723D01*
X130470714Y-140651723D02*
X130423095Y-140746961D01*
X130423095Y-140746961D02*
X130327857Y-140842200D01*
X130327857Y-140842200D02*
X130185000Y-140889819D01*
X130185000Y-140889819D02*
X129946905Y-140889819D01*
X131885000Y-117689819D02*
X131885000Y-116689819D01*
X128102142Y-126004580D02*
X128054523Y-126052200D01*
X128054523Y-126052200D02*
X127911666Y-126099819D01*
X127911666Y-126099819D02*
X127816428Y-126099819D01*
X127816428Y-126099819D02*
X127673571Y-126052200D01*
X127673571Y-126052200D02*
X127578333Y-125956961D01*
X127578333Y-125956961D02*
X127530714Y-125861723D01*
X127530714Y-125861723D02*
X127483095Y-125671247D01*
X127483095Y-125671247D02*
X127483095Y-125528390D01*
X127483095Y-125528390D02*
X127530714Y-125337914D01*
X127530714Y-125337914D02*
X127578333Y-125242676D01*
X127578333Y-125242676D02*
X127673571Y-125147438D01*
X127673571Y-125147438D02*
X127816428Y-125099819D01*
X127816428Y-125099819D02*
X127911666Y-125099819D01*
X127911666Y-125099819D02*
X128054523Y-125147438D01*
X128054523Y-125147438D02*
X128102142Y-125195057D01*
X128959285Y-125099819D02*
X128768809Y-125099819D01*
X128768809Y-125099819D02*
X128673571Y-125147438D01*
X128673571Y-125147438D02*
X128625952Y-125195057D01*
X128625952Y-125195057D02*
X128530714Y-125337914D01*
X128530714Y-125337914D02*
X128483095Y-125528390D01*
X128483095Y-125528390D02*
X128483095Y-125909342D01*
X128483095Y-125909342D02*
X128530714Y-126004580D01*
X128530714Y-126004580D02*
X128578333Y-126052200D01*
X128578333Y-126052200D02*
X128673571Y-126099819D01*
X128673571Y-126099819D02*
X128864047Y-126099819D01*
X128864047Y-126099819D02*
X128959285Y-126052200D01*
X128959285Y-126052200D02*
X129006904Y-126004580D01*
X129006904Y-126004580D02*
X129054523Y-125909342D01*
X129054523Y-125909342D02*
X129054523Y-125671247D01*
X129054523Y-125671247D02*
X129006904Y-125576009D01*
X129006904Y-125576009D02*
X128959285Y-125528390D01*
X128959285Y-125528390D02*
X128864047Y-125480771D01*
X128864047Y-125480771D02*
X128673571Y-125480771D01*
X128673571Y-125480771D02*
X128578333Y-125528390D01*
X128578333Y-125528390D02*
X128530714Y-125576009D01*
X128530714Y-125576009D02*
X128483095Y-125671247D01*
X129911666Y-125099819D02*
X129721190Y-125099819D01*
X129721190Y-125099819D02*
X129625952Y-125147438D01*
X129625952Y-125147438D02*
X129578333Y-125195057D01*
X129578333Y-125195057D02*
X129483095Y-125337914D01*
X129483095Y-125337914D02*
X129435476Y-125528390D01*
X129435476Y-125528390D02*
X129435476Y-125909342D01*
X129435476Y-125909342D02*
X129483095Y-126004580D01*
X129483095Y-126004580D02*
X129530714Y-126052200D01*
X129530714Y-126052200D02*
X129625952Y-126099819D01*
X129625952Y-126099819D02*
X129816428Y-126099819D01*
X129816428Y-126099819D02*
X129911666Y-126052200D01*
X129911666Y-126052200D02*
X129959285Y-126004580D01*
X129959285Y-126004580D02*
X130006904Y-125909342D01*
X130006904Y-125909342D02*
X130006904Y-125671247D01*
X130006904Y-125671247D02*
X129959285Y-125576009D01*
X129959285Y-125576009D02*
X129911666Y-125528390D01*
X129911666Y-125528390D02*
X129816428Y-125480771D01*
X129816428Y-125480771D02*
X129625952Y-125480771D01*
X129625952Y-125480771D02*
X129530714Y-125528390D01*
X129530714Y-125528390D02*
X129483095Y-125576009D01*
X129483095Y-125576009D02*
X129435476Y-125671247D01*
X135089819Y-139177857D02*
X135089819Y-139654047D01*
X135089819Y-139654047D02*
X134089819Y-139654047D01*
X134566009Y-138844523D02*
X134566009Y-138511190D01*
X135089819Y-138368333D02*
X135089819Y-138844523D01*
X135089819Y-138844523D02*
X134089819Y-138844523D01*
X134089819Y-138844523D02*
X134089819Y-138368333D01*
X135089819Y-137939761D02*
X134089819Y-137939761D01*
X134089819Y-137939761D02*
X134089819Y-137701666D01*
X134089819Y-137701666D02*
X134137438Y-137558809D01*
X134137438Y-137558809D02*
X134232676Y-137463571D01*
X134232676Y-137463571D02*
X134327914Y-137415952D01*
X134327914Y-137415952D02*
X134518390Y-137368333D01*
X134518390Y-137368333D02*
X134661247Y-137368333D01*
X134661247Y-137368333D02*
X134851723Y-137415952D01*
X134851723Y-137415952D02*
X134946961Y-137463571D01*
X134946961Y-137463571D02*
X135042200Y-137558809D01*
X135042200Y-137558809D02*
X135089819Y-137701666D01*
X135089819Y-137701666D02*
X135089819Y-137939761D01*
X128792200Y-135496904D02*
X128839819Y-135354047D01*
X128839819Y-135354047D02*
X128839819Y-135115952D01*
X128839819Y-135115952D02*
X128792200Y-135020714D01*
X128792200Y-135020714D02*
X128744580Y-134973095D01*
X128744580Y-134973095D02*
X128649342Y-134925476D01*
X128649342Y-134925476D02*
X128554104Y-134925476D01*
X128554104Y-134925476D02*
X128458866Y-134973095D01*
X128458866Y-134973095D02*
X128411247Y-135020714D01*
X128411247Y-135020714D02*
X128363628Y-135115952D01*
X128363628Y-135115952D02*
X128316009Y-135306428D01*
X128316009Y-135306428D02*
X128268390Y-135401666D01*
X128268390Y-135401666D02*
X128220771Y-135449285D01*
X128220771Y-135449285D02*
X128125533Y-135496904D01*
X128125533Y-135496904D02*
X128030295Y-135496904D01*
X128030295Y-135496904D02*
X127935057Y-135449285D01*
X127935057Y-135449285D02*
X127887438Y-135401666D01*
X127887438Y-135401666D02*
X127839819Y-135306428D01*
X127839819Y-135306428D02*
X127839819Y-135068333D01*
X127839819Y-135068333D02*
X127887438Y-134925476D01*
X127839819Y-134068333D02*
X127839819Y-134258809D01*
X127839819Y-134258809D02*
X127887438Y-134354047D01*
X127887438Y-134354047D02*
X127935057Y-134401666D01*
X127935057Y-134401666D02*
X128077914Y-134496904D01*
X128077914Y-134496904D02*
X128268390Y-134544523D01*
X128268390Y-134544523D02*
X128649342Y-134544523D01*
X128649342Y-134544523D02*
X128744580Y-134496904D01*
X128744580Y-134496904D02*
X128792200Y-134449285D01*
X128792200Y-134449285D02*
X128839819Y-134354047D01*
X128839819Y-134354047D02*
X128839819Y-134163571D01*
X128839819Y-134163571D02*
X128792200Y-134068333D01*
X128792200Y-134068333D02*
X128744580Y-134020714D01*
X128744580Y-134020714D02*
X128649342Y-133973095D01*
X128649342Y-133973095D02*
X128411247Y-133973095D01*
X128411247Y-133973095D02*
X128316009Y-134020714D01*
X128316009Y-134020714D02*
X128268390Y-134068333D01*
X128268390Y-134068333D02*
X128220771Y-134163571D01*
X128220771Y-134163571D02*
X128220771Y-134354047D01*
X128220771Y-134354047D02*
X128268390Y-134449285D01*
X128268390Y-134449285D02*
X128316009Y-134496904D01*
X128316009Y-134496904D02*
X128411247Y-134544523D01*
X109896787Y-99774870D02*
X109896787Y-100584393D01*
X109896787Y-100584393D02*
X109944406Y-100679631D01*
X109944406Y-100679631D02*
X109992025Y-100727251D01*
X109992025Y-100727251D02*
X110087263Y-100774870D01*
X110087263Y-100774870D02*
X110277739Y-100774870D01*
X110277739Y-100774870D02*
X110372977Y-100727251D01*
X110372977Y-100727251D02*
X110420596Y-100679631D01*
X110420596Y-100679631D02*
X110468215Y-100584393D01*
X110468215Y-100584393D02*
X110468215Y-99774870D01*
X111468215Y-100774870D02*
X110896787Y-100774870D01*
X111182501Y-100774870D02*
X111182501Y-99774870D01*
X111182501Y-99774870D02*
X111087263Y-99917727D01*
X111087263Y-99917727D02*
X110992025Y-100012965D01*
X110992025Y-100012965D02*
X110896787Y-100060584D01*
X112420596Y-100774870D02*
X111849168Y-100774870D01*
X112134882Y-100774870D02*
X112134882Y-99774870D01*
X112134882Y-99774870D02*
X112039644Y-99917727D01*
X112039644Y-99917727D02*
X111944406Y-100012965D01*
X111944406Y-100012965D02*
X111849168Y-100060584D01*
X134346905Y-144489819D02*
X134918333Y-144489819D01*
X134632619Y-145489819D02*
X134632619Y-144489819D01*
X135156429Y-144489819D02*
X135823095Y-145489819D01*
X135823095Y-144489819D02*
X135156429Y-145489819D01*
X136632619Y-144489819D02*
X136442143Y-144489819D01*
X136442143Y-144489819D02*
X136346905Y-144537438D01*
X136346905Y-144537438D02*
X136299286Y-144585057D01*
X136299286Y-144585057D02*
X136204048Y-144727914D01*
X136204048Y-144727914D02*
X136156429Y-144918390D01*
X136156429Y-144918390D02*
X136156429Y-145299342D01*
X136156429Y-145299342D02*
X136204048Y-145394580D01*
X136204048Y-145394580D02*
X136251667Y-145442200D01*
X136251667Y-145442200D02*
X136346905Y-145489819D01*
X136346905Y-145489819D02*
X136537381Y-145489819D01*
X136537381Y-145489819D02*
X136632619Y-145442200D01*
X136632619Y-145442200D02*
X136680238Y-145394580D01*
X136680238Y-145394580D02*
X136727857Y-145299342D01*
X136727857Y-145299342D02*
X136727857Y-145061247D01*
X136727857Y-145061247D02*
X136680238Y-144966009D01*
X136680238Y-144966009D02*
X136632619Y-144918390D01*
X136632619Y-144918390D02*
X136537381Y-144870771D01*
X136537381Y-144870771D02*
X136346905Y-144870771D01*
X136346905Y-144870771D02*
X136251667Y-144918390D01*
X136251667Y-144918390D02*
X136204048Y-144966009D01*
X136204048Y-144966009D02*
X136156429Y-145061247D01*
D11*
%TO.C,J3*%
X129330000Y-129509992D02*
X129330000Y-130538847D01*
X130438255Y-133610018D02*
X139021720Y-133610018D01*
X131073866Y-129509992D02*
X129330000Y-129509992D01*
X132323802Y-129509992D02*
X132136147Y-129509992D01*
X133573993Y-129509992D02*
X133386083Y-129509992D01*
X134823929Y-129509992D02*
X134636274Y-129509992D01*
X136073866Y-129509992D02*
X135886210Y-129509992D01*
X137323802Y-129509992D02*
X137136147Y-129509992D01*
X140130000Y-129509992D02*
X138386083Y-129509992D01*
X140130000Y-129509992D02*
X140130000Y-130538847D01*
D12*
X130524410Y-128568284D02*
X130581927Y-128585732D01*
X130634935Y-128614065D01*
X130681397Y-128652195D01*
X130719527Y-128698657D01*
X130747860Y-128751664D01*
X130765308Y-128809181D01*
X130771199Y-128868997D01*
X130765308Y-128928812D01*
X130747860Y-128986329D01*
X130719527Y-129039337D01*
X130681397Y-129085798D01*
X130634935Y-129123929D01*
X130581927Y-129152262D01*
X130524410Y-129169709D01*
X130464595Y-129175601D01*
X130404779Y-129169709D01*
X130347263Y-129152262D01*
X130294255Y-129123929D01*
X130247793Y-129085798D01*
X130209663Y-129039337D01*
X130181330Y-128986329D01*
X130163882Y-128928812D01*
X130157991Y-128868997D01*
X130163882Y-128809181D01*
X130181330Y-128751664D01*
X130209663Y-128698657D01*
X130247793Y-128652195D01*
X130294255Y-128614065D01*
X130347263Y-128585732D01*
X130404779Y-128568284D01*
X130464595Y-128562393D01*
X130524410Y-128568284D01*
G36*
X130524410Y-128568284D02*
G01*
X130581927Y-128585732D01*
X130634935Y-128614065D01*
X130681397Y-128652195D01*
X130719527Y-128698657D01*
X130747860Y-128751664D01*
X130765308Y-128809181D01*
X130771199Y-128868997D01*
X130765308Y-128928812D01*
X130747860Y-128986329D01*
X130719527Y-129039337D01*
X130681397Y-129085798D01*
X130634935Y-129123929D01*
X130581927Y-129152262D01*
X130524410Y-129169709D01*
X130464595Y-129175601D01*
X130404779Y-129169709D01*
X130347263Y-129152262D01*
X130294255Y-129123929D01*
X130247793Y-129085798D01*
X130209663Y-129039337D01*
X130181330Y-128986329D01*
X130163882Y-128928812D01*
X130157991Y-128868997D01*
X130163882Y-128809181D01*
X130181330Y-128751664D01*
X130209663Y-128698657D01*
X130247793Y-128652195D01*
X130294255Y-128614065D01*
X130347263Y-128585732D01*
X130404779Y-128568284D01*
X130464595Y-128562393D01*
X130524410Y-128568284D01*
G37*
%TO.C,C77*%
X107195000Y-117012836D02*
X107195000Y-116797164D01*
X107915000Y-117012836D02*
X107915000Y-116797164D01*
%TO.C,C28*%
X126307936Y-143391100D02*
X126092264Y-143391100D01*
X126307936Y-144111100D02*
X126092264Y-144111100D01*
%TO.C,U20*%
X129050000Y-119920000D02*
G75*
G02*
X128850000Y-119920000I-100000J0D01*
G01*
X128850000Y-119920000D02*
G75*
G02*
X129050000Y-119920000I100000J0D01*
G01*
D11*
%TO.C,J2*%
X100930767Y-114219990D02*
X100930767Y-121900000D01*
X105610752Y-122080010D02*
X105610752Y-123319990D01*
X105610752Y-123319990D02*
X103070772Y-123319990D01*
X105650757Y-112840005D02*
X103110752Y-112840005D01*
X105650757Y-114040005D02*
X105650757Y-112840005D01*
D12*
%TO.C,TP20*%
X141395000Y-134545000D02*
X143295000Y-134545000D01*
X141395000Y-136445000D02*
X141395000Y-134545000D01*
X143295000Y-134545000D02*
X143295000Y-136445000D01*
X143295000Y-136445000D02*
X141395000Y-136445000D01*
%TO.C,R50*%
X103011359Y-110737500D02*
X103318641Y-110737500D01*
X103011359Y-111497500D02*
X103318641Y-111497500D01*
%TO.C,C84*%
X141397164Y-112845000D02*
X141612836Y-112845000D01*
X141397164Y-113565000D02*
X141612836Y-113565000D01*
%TO.C,C30*%
X122897164Y-145095000D02*
X123112836Y-145095000D01*
X122897164Y-145815000D02*
X123112836Y-145815000D01*
%TO.C,C46*%
X123367936Y-128848900D02*
X123152264Y-128848900D01*
X123367936Y-129568900D02*
X123152264Y-129568900D01*
%TO.C,L1*%
X125931622Y-127032600D02*
X125132378Y-127032600D01*
X125931622Y-128152600D02*
X125132378Y-128152600D01*
%TO.C,C88*%
X137945000Y-126047164D02*
X137945000Y-126262836D01*
X138665000Y-126047164D02*
X138665000Y-126262836D01*
%TO.C,P73*%
X142145000Y-127045000D02*
X144045000Y-127045000D01*
X142145000Y-128945000D02*
X142145000Y-127045000D01*
X144045000Y-127045000D02*
X144045000Y-128945000D01*
X144045000Y-128945000D02*
X142145000Y-128945000D01*
%TO.C,TP1*%
X105645000Y-101795000D02*
X107545000Y-101795000D01*
X105645000Y-103695000D02*
X105645000Y-101795000D01*
X107545000Y-101795000D02*
X107545000Y-103695000D01*
X107545000Y-103695000D02*
X105645000Y-103695000D01*
%TO.C,C13*%
X122729636Y-127052400D02*
X122513964Y-127052400D01*
X122729636Y-127772400D02*
X122513964Y-127772400D01*
%TO.C,C27*%
X124897164Y-135345000D02*
X125112836Y-135345000D01*
X124897164Y-136065000D02*
X125112836Y-136065000D01*
%TO.C,D2*%
X120065000Y-139125000D02*
X120065000Y-140595000D01*
X120065000Y-140595000D02*
X122350000Y-140595000D01*
X122350000Y-139125000D02*
X120065000Y-139125000D01*
%TO.C,C80*%
X141862836Y-109595000D02*
X141647164Y-109595000D01*
X141862836Y-110315000D02*
X141647164Y-110315000D01*
%TO.C,R54*%
X109428641Y-130335000D02*
X109121359Y-130335000D01*
X109428641Y-131095000D02*
X109121359Y-131095000D01*
%TO.C,R17*%
X108315000Y-101908641D02*
X108315000Y-101601359D01*
X109075000Y-101908641D02*
X109075000Y-101601359D01*
%TO.C,C6*%
X117933952Y-127179600D02*
X117411448Y-127179600D01*
X117933952Y-128649600D02*
X117411448Y-128649600D01*
D13*
%TO.C,D4*%
X141158660Y-104848825D02*
X141158660Y-107601276D01*
X141158660Y-107601276D02*
X141351701Y-107601276D01*
X142961124Y-105308261D02*
X141208673Y-105308261D01*
X143011137Y-104848825D02*
X143011137Y-107601276D01*
X143011137Y-107601276D02*
X142818096Y-107601276D01*
D12*
X141402475Y-104925051D02*
X141082485Y-104925051D01*
X141082485Y-104620250D01*
X141402475Y-104620250D01*
X141402475Y-104925051D01*
G36*
X141402475Y-104925051D02*
G01*
X141082485Y-104925051D01*
X141082485Y-104620250D01*
X141402475Y-104620250D01*
X141402475Y-104925051D01*
G37*
X143087311Y-104925051D02*
X142767322Y-104925051D01*
X142767322Y-104620250D01*
X143087311Y-104620250D01*
X143087311Y-104925051D01*
G36*
X143087311Y-104925051D02*
G01*
X142767322Y-104925051D01*
X142767322Y-104620250D01*
X143087311Y-104620250D01*
X143087311Y-104925051D01*
G37*
D11*
%TO.C,J9*%
X100628048Y-133005127D02*
X100628048Y-127123999D01*
X103681210Y-125980997D02*
X104819056Y-125980997D01*
X104819031Y-132511274D02*
X104819031Y-134229130D01*
X104819031Y-134229130D02*
X103681236Y-134229130D01*
X104819056Y-125980997D02*
X104819056Y-127698828D01*
X104819056Y-128761109D02*
X104819056Y-128948840D01*
X104819056Y-130011121D02*
X104819056Y-130198828D01*
X104819056Y-131261109D02*
X104819056Y-131448840D01*
X104819056Y-132511045D02*
X104819056Y-132698777D01*
X104819056Y-132511172D02*
X104819056Y-132698904D01*
X104819056Y-133761058D02*
X104819056Y-133948764D01*
D12*
X105581083Y-127631975D02*
X105581058Y-127631975D01*
X105327057Y-127250999D01*
X105962059Y-127250999D01*
X105581083Y-127631975D01*
G36*
X105581083Y-127631975D02*
G01*
X105581058Y-127631975D01*
X105327057Y-127250999D01*
X105962059Y-127250999D01*
X105581083Y-127631975D01*
G37*
%TO.C,R16*%
X124121359Y-107585000D02*
X124428641Y-107585000D01*
X124121359Y-108345000D02*
X124428641Y-108345000D01*
%TO.C,R20*%
X119935000Y-138078641D02*
X119935000Y-137771359D01*
X120695000Y-138078641D02*
X120695000Y-137771359D01*
%TO.C,D3*%
X116065000Y-129215000D02*
X116065000Y-130685000D01*
X116065000Y-130685000D02*
X118350000Y-130685000D01*
X118350000Y-129215000D02*
X116065000Y-129215000D01*
%TO.C,C81*%
X143195000Y-114262836D02*
X143195000Y-114047164D01*
X143915000Y-114262836D02*
X143915000Y-114047164D01*
%TO.C,R48*%
X108435000Y-116828641D02*
X108435000Y-116521359D01*
X109195000Y-116828641D02*
X109195000Y-116521359D01*
%TO.C,C29*%
X120862836Y-145095000D02*
X120647164Y-145095000D01*
X120862836Y-145815000D02*
X120647164Y-145815000D01*
%TO.C,C45*%
X124139452Y-130376000D02*
X123616948Y-130376000D01*
X124139452Y-131846000D02*
X123616948Y-131846000D01*
%TO.C,R1*%
X108435000Y-118771359D02*
X108435000Y-119078641D01*
X109195000Y-118771359D02*
X109195000Y-119078641D01*
D14*
%TO.C,U10*%
X121599949Y-141251138D02*
X121599949Y-141397011D01*
X121599949Y-141251138D02*
X123399975Y-141251138D01*
X121599949Y-142305291D02*
X121599949Y-143296934D01*
X121599949Y-144205215D02*
X121599949Y-144351164D01*
X121599949Y-144351164D02*
X123399975Y-144351164D01*
X123399975Y-141251138D02*
X123399975Y-141396985D01*
X123399975Y-142305291D02*
X123399975Y-142346947D01*
X123399975Y-143255228D02*
X123399975Y-143296909D01*
X123399975Y-144205215D02*
X123399975Y-144351164D01*
D12*
X122915807Y-143641422D02*
X122949243Y-143651647D01*
X122980017Y-143668244D01*
X123006928Y-143690567D01*
X123028926Y-143717743D01*
X123045154Y-143748714D01*
X123054978Y-143782270D01*
X123058014Y-143817102D01*
X123054978Y-143851934D01*
X123045154Y-143885490D01*
X123028926Y-143916461D01*
X123006928Y-143943638D01*
X122980017Y-143965960D01*
X122949243Y-143982557D01*
X122915807Y-143992782D01*
X122881013Y-143996235D01*
X122846220Y-143992782D01*
X122812784Y-143982557D01*
X122782010Y-143965960D01*
X122755099Y-143943638D01*
X122733100Y-143916461D01*
X122716873Y-143885490D01*
X122707049Y-143851934D01*
X122704013Y-143817102D01*
X122707049Y-143782270D01*
X122716873Y-143748714D01*
X122733100Y-143717743D01*
X122755099Y-143690567D01*
X122782010Y-143668244D01*
X122812784Y-143651647D01*
X122846220Y-143641422D01*
X122881013Y-143637969D01*
X122915807Y-143641422D01*
G36*
X122915807Y-143641422D02*
G01*
X122949243Y-143651647D01*
X122980017Y-143668244D01*
X123006928Y-143690567D01*
X123028926Y-143717743D01*
X123045154Y-143748714D01*
X123054978Y-143782270D01*
X123058014Y-143817102D01*
X123054978Y-143851934D01*
X123045154Y-143885490D01*
X123028926Y-143916461D01*
X123006928Y-143943638D01*
X122980017Y-143965960D01*
X122949243Y-143982557D01*
X122915807Y-143992782D01*
X122881013Y-143996235D01*
X122846220Y-143992782D01*
X122812784Y-143982557D01*
X122782010Y-143965960D01*
X122755099Y-143943638D01*
X122733100Y-143916461D01*
X122716873Y-143885490D01*
X122707049Y-143851934D01*
X122704013Y-143817102D01*
X122707049Y-143782270D01*
X122716873Y-143748714D01*
X122733100Y-143717743D01*
X122755099Y-143690567D01*
X122782010Y-143668244D01*
X122812784Y-143651647D01*
X122846220Y-143641422D01*
X122881013Y-143637969D01*
X122915807Y-143641422D01*
G37*
D14*
%TO.C,U17*%
X131949949Y-140650038D02*
X131949949Y-140795911D01*
X131949949Y-140650038D02*
X133749975Y-140650038D01*
X131949949Y-141704191D02*
X131949949Y-142695834D01*
X131949949Y-143604115D02*
X131949949Y-143750064D01*
X131949949Y-143750064D02*
X133749975Y-143750064D01*
X133749975Y-140650038D02*
X133749975Y-140795885D01*
X133749975Y-141704191D02*
X133749975Y-141745847D01*
X133749975Y-142654128D02*
X133749975Y-142695809D01*
X133749975Y-143604115D02*
X133749975Y-143750064D01*
D12*
X133265807Y-143040322D02*
X133299243Y-143050547D01*
X133330017Y-143067144D01*
X133356928Y-143089467D01*
X133378926Y-143116643D01*
X133395154Y-143147614D01*
X133404978Y-143181170D01*
X133408014Y-143216002D01*
X133404978Y-143250834D01*
X133395154Y-143284390D01*
X133378926Y-143315361D01*
X133356928Y-143342538D01*
X133330017Y-143364860D01*
X133299243Y-143381457D01*
X133265807Y-143391682D01*
X133231013Y-143395135D01*
X133196220Y-143391682D01*
X133162784Y-143381457D01*
X133132010Y-143364860D01*
X133105099Y-143342538D01*
X133083100Y-143315361D01*
X133066873Y-143284390D01*
X133057049Y-143250834D01*
X133054013Y-143216002D01*
X133057049Y-143181170D01*
X133066873Y-143147614D01*
X133083100Y-143116643D01*
X133105099Y-143089467D01*
X133132010Y-143067144D01*
X133162784Y-143050547D01*
X133196220Y-143040322D01*
X133231013Y-143036869D01*
X133265807Y-143040322D01*
G36*
X133265807Y-143040322D02*
G01*
X133299243Y-143050547D01*
X133330017Y-143067144D01*
X133356928Y-143089467D01*
X133378926Y-143116643D01*
X133395154Y-143147614D01*
X133404978Y-143181170D01*
X133408014Y-143216002D01*
X133404978Y-143250834D01*
X133395154Y-143284390D01*
X133378926Y-143315361D01*
X133356928Y-143342538D01*
X133330017Y-143364860D01*
X133299243Y-143381457D01*
X133265807Y-143391682D01*
X133231013Y-143395135D01*
X133196220Y-143391682D01*
X133162784Y-143381457D01*
X133132010Y-143364860D01*
X133105099Y-143342538D01*
X133083100Y-143315361D01*
X133066873Y-143284390D01*
X133057049Y-143250834D01*
X133054013Y-143216002D01*
X133057049Y-143181170D01*
X133066873Y-143147614D01*
X133083100Y-143116643D01*
X133105099Y-143089467D01*
X133132010Y-143067144D01*
X133162784Y-143050547D01*
X133196220Y-143040322D01*
X133231013Y-143036869D01*
X133265807Y-143040322D01*
G37*
%TO.C,C89*%
X132945000Y-122047164D02*
X132945000Y-122262836D01*
X133665000Y-122047164D02*
X133665000Y-122262836D01*
%TO.C,R21*%
X119435000Y-130328641D02*
X119435000Y-130021359D01*
X120195000Y-130328641D02*
X120195000Y-130021359D01*
%TO.C,R14*%
X108396359Y-123570000D02*
X108703641Y-123570000D01*
X108396359Y-124330000D02*
X108703641Y-124330000D01*
%TO.C,P41*%
X141645000Y-137795000D02*
X143545000Y-137795000D01*
X141645000Y-139695000D02*
X141645000Y-137795000D01*
X143545000Y-137795000D02*
X143545000Y-139695000D01*
X143545000Y-139695000D02*
X141645000Y-139695000D01*
%TO.C,U5*%
X111315000Y-131635000D02*
X117535000Y-131635000D01*
X111315000Y-131830000D02*
X111315000Y-131635000D01*
X111315000Y-136855000D02*
X111315000Y-136660000D01*
X117535000Y-131635000D02*
X117535000Y-131830000D01*
X117535000Y-136660000D02*
X117535000Y-136855000D01*
X117535000Y-136855000D02*
X111315000Y-136855000D01*
X118095000Y-136395000D02*
X117765000Y-136155000D01*
X118095000Y-135915000D01*
X118095000Y-136395000D01*
G36*
X118095000Y-136395000D02*
G01*
X117765000Y-136155000D01*
X118095000Y-135915000D01*
X118095000Y-136395000D01*
G37*
%TO.C,TP21*%
X130645000Y-135045000D02*
X132545000Y-135045000D01*
X130645000Y-136945000D02*
X130645000Y-135045000D01*
X132545000Y-135045000D02*
X132545000Y-136945000D01*
X132545000Y-136945000D02*
X130645000Y-136945000D01*
%TO.C,R53*%
X100435000Y-109271359D02*
X100435000Y-109578641D01*
X101195000Y-109271359D02*
X101195000Y-109578641D01*
%TO.C,R38*%
X135621359Y-101335000D02*
X135928641Y-101335000D01*
X135621359Y-102095000D02*
X135928641Y-102095000D01*
%TO.C,C87*%
X107195000Y-130262836D02*
X107195000Y-130047164D01*
X107915000Y-130262836D02*
X107915000Y-130047164D01*
%TO.C,C19*%
X129362836Y-114845000D02*
X129147164Y-114845000D01*
X129362836Y-115565000D02*
X129147164Y-115565000D01*
D15*
%TO.C,U1*%
X112129987Y-111329987D02*
X112129987Y-123830013D01*
X112129987Y-123830013D02*
X124630013Y-123830013D01*
X124630013Y-111329987D02*
X112129987Y-111329987D01*
X124630013Y-123830013D02*
X124630013Y-111329987D01*
D16*
X111496586Y-125276215D02*
G75*
G02*
X111499126Y-125276215I1270J-161288D01*
G01*
D17*
X113129810Y-122530470D02*
G75*
G02*
X113134890Y-122530470I2540J-293249D01*
G01*
D12*
%TO.C,C68*%
X131112836Y-124595000D02*
X130897164Y-124595000D01*
X131112836Y-125315000D02*
X130897164Y-125315000D01*
%TO.C,C52*%
X134147164Y-103095000D02*
X134362836Y-103095000D01*
X134147164Y-103815000D02*
X134362836Y-103815000D01*
%TO.C,TP10*%
X119395000Y-131795000D02*
X121295000Y-131795000D01*
X119395000Y-133695000D02*
X119395000Y-131795000D01*
X121295000Y-131795000D02*
X121295000Y-133695000D01*
X121295000Y-133695000D02*
X119395000Y-133695000D01*
%TO.C,R39*%
X138371359Y-99835000D02*
X138678641Y-99835000D01*
X138371359Y-100595000D02*
X138678641Y-100595000D01*
D11*
%TO.C,J17*%
X109975000Y-141049975D02*
X109975000Y-143674257D01*
X111093872Y-141049975D02*
X109975000Y-141049975D01*
X111206191Y-145549924D02*
X117143885Y-145549924D01*
X117256179Y-141049975D02*
X118375000Y-141049975D01*
X118375000Y-141049975D02*
X118375000Y-143674257D01*
D12*
%TO.C,C26*%
X122195000Y-138012836D02*
X122195000Y-137797164D01*
X122915000Y-138012836D02*
X122915000Y-137797164D01*
%TO.C,C67*%
X143445000Y-107262836D02*
X143445000Y-107047164D01*
X144165000Y-107262836D02*
X144165000Y-107047164D01*
D13*
%TO.C,U19*%
X128078787Y-138028800D02*
X129731187Y-138028800D01*
X128078787Y-139181200D02*
X128078787Y-138028800D01*
X129731187Y-138028800D02*
X129731187Y-139181200D01*
X129731187Y-139181200D02*
X128078787Y-139181200D01*
D14*
X129717041Y-137842998D02*
G75*
G02*
X129616963Y-137842998I-50039J0D01*
G01*
X129616963Y-137842998D02*
G75*
G02*
X129717041Y-137842998I50039J0D01*
G01*
D13*
%TO.C,Q5*%
X107118787Y-132618787D02*
X108150410Y-132618787D01*
X107118787Y-134071213D02*
X107118787Y-132618787D01*
X109100398Y-134071213D02*
X108189602Y-134071213D01*
X110171213Y-132618787D02*
X109139590Y-132618787D01*
X110171213Y-134071213D02*
X110171213Y-132618787D01*
D12*
%TO.C,TP8*%
X107145000Y-126545000D02*
X109045000Y-126545000D01*
X107145000Y-128445000D02*
X107145000Y-126545000D01*
X109045000Y-126545000D02*
X109045000Y-128445000D01*
X109045000Y-128445000D02*
X107145000Y-128445000D01*
%TO.C,P71*%
X127895000Y-143795000D02*
X129795000Y-143795000D01*
X127895000Y-145695000D02*
X127895000Y-143795000D01*
X129795000Y-143795000D02*
X129795000Y-145695000D01*
X129795000Y-145695000D02*
X127895000Y-145695000D01*
%TO.C,R52*%
X102935000Y-109578641D02*
X102935000Y-109271359D01*
X103695000Y-109578641D02*
X103695000Y-109271359D01*
%TO.C,P46*%
X127645000Y-141295000D02*
X129545000Y-141295000D01*
X127645000Y-143195000D02*
X127645000Y-141295000D01*
X129545000Y-141295000D02*
X129545000Y-143195000D01*
X129545000Y-143195000D02*
X127645000Y-143195000D01*
%TO.C,L2*%
X128735000Y-110905000D02*
X128735000Y-106685000D01*
X132955000Y-106685000D02*
X132955000Y-110905000D01*
%TO.C,C78*%
X131792164Y-114730000D02*
X132007836Y-114730000D01*
X131792164Y-115450000D02*
X132007836Y-115450000D01*
%TO.C,C79*%
X130792164Y-123240000D02*
X131007836Y-123240000D01*
X130792164Y-123960000D02*
X131007836Y-123960000D01*
%TO.C,SW2*%
X111405200Y-127962000D02*
X111405200Y-128262000D01*
X111405200Y-130762000D02*
X111405200Y-130462000D01*
X114705200Y-127962000D02*
X111405200Y-127962000D01*
X114705200Y-128262000D02*
X114705200Y-127962000D01*
X114705200Y-130462000D02*
X114705200Y-130762000D01*
X114705200Y-130762000D02*
X111405200Y-130762000D01*
%TO.C,R15*%
X108396359Y-125070000D02*
X108703641Y-125070000D01*
X108396359Y-125830000D02*
X108703641Y-125830000D01*
%TO.C,R47*%
X126786359Y-107820000D02*
X127093641Y-107820000D01*
X126786359Y-108580000D02*
X127093641Y-108580000D01*
D13*
%TO.C,Q1*%
X138218787Y-101268787D02*
X139671213Y-101268787D01*
X138218787Y-103250398D02*
X138218787Y-102339602D01*
X138218787Y-104321213D02*
X139671213Y-104321213D01*
X139671213Y-101268787D02*
X139671213Y-102300410D01*
X139671213Y-104321213D02*
X139671213Y-103289590D01*
D12*
%TO.C,TP3*%
X122145000Y-132795000D02*
X124045000Y-132795000D01*
X122145000Y-134695000D02*
X122145000Y-132795000D01*
X124045000Y-132795000D02*
X124045000Y-134695000D01*
X124045000Y-134695000D02*
X122145000Y-134695000D01*
%TO.C,C75*%
X101147164Y-104595000D02*
X101362836Y-104595000D01*
X101147164Y-105315000D02*
X101362836Y-105315000D01*
%TO.C,R40*%
X130121359Y-118585000D02*
X130428641Y-118585000D01*
X130121359Y-119345000D02*
X130428641Y-119345000D01*
%TO.C,TP9*%
X132145000Y-117295000D02*
X134045000Y-117295000D01*
X132145000Y-119195000D02*
X132145000Y-117295000D01*
X134045000Y-117295000D02*
X134045000Y-119195000D01*
X134045000Y-119195000D02*
X132145000Y-119195000D01*
D11*
%TO.C,J5*%
X140465944Y-117198942D02*
X140465944Y-117011236D01*
X140465944Y-118448828D02*
X140465944Y-118261096D01*
X140465944Y-118448955D02*
X140465944Y-118261223D01*
X140465944Y-119698891D02*
X140465944Y-119511160D01*
X140465944Y-120948879D02*
X140465944Y-120761172D01*
X140465944Y-122198891D02*
X140465944Y-122011160D01*
X140465944Y-124979003D02*
X140465944Y-123261172D01*
X140465969Y-116730870D02*
X141603764Y-116730870D01*
X140465969Y-118448726D02*
X140465969Y-116730870D01*
X141603790Y-124979003D02*
X140465944Y-124979003D01*
X144656952Y-117954873D02*
X144656952Y-123836001D01*
D12*
X139957943Y-123709001D02*
X139322941Y-123709001D01*
X139703917Y-123328025D01*
X139703942Y-123328025D01*
X139957943Y-123709001D01*
G36*
X139957943Y-123709001D02*
G01*
X139322941Y-123709001D01*
X139703917Y-123328025D01*
X139703942Y-123328025D01*
X139957943Y-123709001D01*
G37*
D11*
%TO.C,U9*%
X123600997Y-137826499D02*
X123600997Y-139223501D01*
X124743999Y-137635998D02*
X125506001Y-137635998D01*
X126522003Y-138102572D02*
X126522003Y-138947352D01*
D12*
%TO.C,C66*%
X128945000Y-123797164D02*
X128945000Y-124012836D01*
X129665000Y-123797164D02*
X129665000Y-124012836D01*
%TO.C,TP7*%
X131895000Y-137795000D02*
X133795000Y-137795000D01*
X131895000Y-139695000D02*
X131895000Y-137795000D01*
X133795000Y-137795000D02*
X133795000Y-139695000D01*
X133795000Y-139695000D02*
X131895000Y-139695000D01*
%TO.C,TP4*%
X125645000Y-132795000D02*
X127545000Y-132795000D01*
X125645000Y-134695000D02*
X125645000Y-132795000D01*
X127545000Y-132795000D02*
X127545000Y-134695000D01*
X127545000Y-134695000D02*
X125645000Y-134695000D01*
%TO.C,R57*%
X141928641Y-114085000D02*
X141621359Y-114085000D01*
X141928641Y-114845000D02*
X141621359Y-114845000D01*
%TO.C,R36*%
X137928641Y-118585000D02*
X137621359Y-118585000D01*
X137928641Y-119345000D02*
X137621359Y-119345000D01*
D11*
%TO.C,U22*%
X136225000Y-124024886D02*
X134424975Y-124024886D01*
X136225000Y-127124911D02*
X134424975Y-127124911D01*
X134054997Y-123923997D02*
G75*
G02*
X133800997Y-123923997I-127000J0D01*
G01*
X133800997Y-123923997D02*
G75*
G02*
X134054997Y-123923997I127000J0D01*
G01*
D18*
%TO.C,U11*%
X110813787Y-103048588D02*
X115866213Y-103048588D01*
X110813787Y-104121105D02*
X110813787Y-103048588D01*
X110813787Y-105005382D02*
X110813787Y-106091412D01*
X110813787Y-106091412D02*
X115866213Y-106091412D01*
X111272436Y-103048588D02*
X110813787Y-103048588D01*
X111272436Y-106091412D02*
X110813787Y-106091412D01*
X112542438Y-103048588D02*
X111597557Y-103048588D01*
X112542438Y-106091412D02*
X111597557Y-106091412D01*
X113812441Y-103048588D02*
X112867559Y-103048588D01*
X113812441Y-106091412D02*
X112867559Y-106091412D01*
X115082443Y-103048588D02*
X114137562Y-103048588D01*
X115082443Y-106091412D02*
X114137562Y-106091412D01*
X115866213Y-103048588D02*
X115407564Y-103048588D01*
X115866213Y-103048588D02*
X115866213Y-106091412D01*
X115866213Y-106091412D02*
X115407564Y-106091412D01*
X110813787Y-105005383D02*
G75*
G02*
X110813787Y-104121105I0J442139D01*
G01*
D16*
X111585110Y-105586002D02*
G75*
G02*
X111284882Y-105586002I-150114J0D01*
G01*
X111284882Y-105586002D02*
G75*
G02*
X111585110Y-105586002I150114J0D01*
G01*
D11*
%TO.C,J1*%
X117927915Y-99550000D02*
X117927915Y-100372968D01*
X117927915Y-103827401D02*
X117927915Y-104422003D01*
X126999924Y-99550000D02*
X126999924Y-100372968D01*
X126999924Y-102526968D02*
X126999924Y-102892400D01*
X126999924Y-103846401D02*
X126999924Y-104418904D01*
D12*
%TO.C,TP2*%
X101395000Y-106045000D02*
X103295000Y-106045000D01*
X101395000Y-107945000D02*
X101395000Y-106045000D01*
X103295000Y-106045000D02*
X103295000Y-107945000D01*
X103295000Y-107945000D02*
X101395000Y-107945000D01*
%TO.C,J12*%
X129115000Y-104800000D02*
X129115000Y-102100000D01*
X131835000Y-102050000D02*
X131835000Y-102690000D01*
X131835000Y-104210000D02*
X132465000Y-104210000D01*
X131835000Y-104850000D02*
X131835000Y-104210000D01*
D11*
%TO.C,U23*%
X135425000Y-120025089D02*
X137225025Y-120025089D01*
X135425000Y-123125114D02*
X137225025Y-123125114D01*
X137849003Y-123226003D02*
G75*
G02*
X137595003Y-123226003I-127000J0D01*
G01*
X137595003Y-123226003D02*
G75*
G02*
X137849003Y-123226003I127000J0D01*
G01*
%TO.C,J18*%
X100875000Y-141199987D02*
X101843860Y-141199987D01*
X100875000Y-143050000D02*
X100875000Y-141199987D01*
X100875000Y-143050000D02*
X100875000Y-143656350D01*
X101906140Y-145500013D02*
X103843860Y-145500013D01*
X103906140Y-141199987D02*
X104875000Y-141199987D01*
X104875000Y-141199987D02*
X104875000Y-143656350D01*
%TO.C,J15*%
X140162052Y-141842301D02*
X140162052Y-142263860D01*
X140162052Y-145326140D02*
X140162052Y-146450000D01*
X144462052Y-141095000D02*
X140299101Y-141095000D01*
X144462052Y-142326140D02*
X144462052Y-145263860D01*
D16*
X139529591Y-145726928D02*
G75*
G02*
X139229363Y-145726928I-150114J0D01*
G01*
X139229363Y-145726928D02*
G75*
G02*
X139529591Y-145726928I150114J0D01*
G01*
D12*
%TO.C,U8*%
X129050000Y-111640000D02*
G75*
G02*
X128850000Y-111640000I-100000J0D01*
G01*
X128850000Y-111640000D02*
G75*
G02*
X129050000Y-111640000I100000J0D01*
G01*
%TO.C,R55*%
X102935000Y-138578641D02*
X102935000Y-138271359D01*
X103695000Y-138578641D02*
X103695000Y-138271359D01*
%TO.C,R51*%
X101685000Y-109578641D02*
X101685000Y-109271359D01*
X102445000Y-109578641D02*
X102445000Y-109271359D01*
%TO.C,P44*%
X119395000Y-134545000D02*
X121295000Y-134545000D01*
X119395000Y-136445000D02*
X119395000Y-134545000D01*
X121295000Y-134545000D02*
X121295000Y-136445000D01*
X121295000Y-136445000D02*
X119395000Y-136445000D01*
%TO.C,P72*%
X135645000Y-142295000D02*
X137545000Y-142295000D01*
X135645000Y-144195000D02*
X135645000Y-142295000D01*
X137545000Y-142295000D02*
X137545000Y-144195000D01*
X137545000Y-144195000D02*
X135645000Y-144195000D01*
%TO.C,TP22*%
X133395000Y-114045000D02*
X135295000Y-114045000D01*
X133395000Y-115945000D02*
X133395000Y-114045000D01*
X135295000Y-114045000D02*
X135295000Y-115945000D01*
X135295000Y-115945000D02*
X133395000Y-115945000D01*
%TO.C,C86*%
X137147164Y-116595000D02*
X137362836Y-116595000D01*
X137147164Y-117315000D02*
X137362836Y-117315000D01*
%TD*%
M02*
