M48
; DRILL file {KiCad 9.0.8+dfsg-1} date 2026-09-15T15:34:16+0100
; FORMAT={-:-/ absolute / metric / decimal}
; #@! TF.CreationDate,2026-09-15T15:34:16+01:00
; #@! TF.GenerationSoftware,Kicad,Pcbnew,9.0.8+dfsg-1
; #@! TF.FileFunction,MixedPlating,1,6
FMAT,2
METRIC
; #@! TA.AperFunction,Plated,PTH,ViaDrill
T1C0.200
; #@! TA.AperFunction,Plated,PTH,ViaDrill
T2C0.300
; #@! TA.AperFunction,Plated,PTH,ComponentDrill
T3C0.600
; #@! TA.AperFunction,NonPlated,NPTH,ComponentDrill
T4C0.700
; #@! TA.AperFunction,NonPlated,NPTH,ComponentDrill
T5C1.000
%
G90
G05
T1
X103.52Y-102.214
X103.981Y-117.819
X104.553Y-115.274
X106.741Y-129.044
X106.841Y-117.7
X107.199Y-124.661
X108.537Y-118.192
X109.464Y-132.059
X109.664Y-117.415
X110.319Y-108.224
X110.395Y-127.215
X110.994Y-123.594
X112.089Y-108.735
X112.387Y-136.811
X112.515Y-128.366
X112.812Y-108.898
X112.868Y-110.133
X113.011Y-121.639
X113.374Y-131.37
X113.466Y-112.572
X115.041Y-122.564
X115.739Y-131.093
X116.789Y-112.718
X118.338Y-128.83
X118.869Y-122.186
X118.902Y-121.551
X119.79Y-123.146
X121.033Y-133.573
X121.394Y-140.492
X121.439Y-121.256
X121.576Y-127.958
X121.627Y-107.989
X122.081Y-113.897
X122.483Y-123.968
X122.588Y-108.734
X122.974Y-112.843
X123.044Y-123.993
X123.19Y-126.456
X123.441Y-111.254
X123.482Y-115.771
X123.75Y-104.68
X123.809Y-107.842
X123.847Y-112.69
X123.977Y-111.426
X124.09Y-123.186
X124.156Y-105.136
X124.227Y-117.296
X124.798Y-117.404
X126.551Y-123.671
X126.776Y-130.192
X127.247Y-113.474
X128.515Y-113.329
X128.628Y-112.74
X128.85Y-123.22
X129.55Y-115.39
X129.599Y-125.317
X129.671Y-124.621
X129.898Y-113.55
X130.785Y-119.028
X130.872Y-118.16
X131.244Y-127.316
X131.331Y-109.149
X131.817Y-121.49
X133.043Y-115.13
X134.255Y-121.372
X134.45Y-115.942
X134.46Y-117.1
X135.135Y-114.57
X135.193Y-118.153
X135.932Y-116.99
X135.942Y-117.973
X136.38Y-119.7
X136.457Y-111.911
X136.776Y-120.09
X137.034Y-126.869
X137.087Y-119.411
X137.212Y-113.291
X137.323Y-126.156
X137.6Y-111.068
X138.1Y-119.42
X138.11Y-111.593
X138.58Y-118.98
X138.903Y-112.652
X139.1Y-119.18
X140.498Y-120.28
X140.87Y-125.432
X141.469Y-113.779
X142.264Y-111.404
T2
X101.256Y-118.6
X101.852Y-115.001
X102.0Y-102.0
X102.0Y-105.6
X102.0Y-107.4
X102.0Y-109.2
X102.0Y-125.4
X102.0Y-129.0
X102.0Y-138.0
X102.0Y-139.8
X102.0Y-141.6
X102.0Y-143.4
X102.16Y-110.016
X102.293Y-124.544
X102.299Y-131.501
X102.299Y-137.101
X102.454Y-133.908
X102.454Y-128.308
X103.075Y-142.862
X103.47Y-134.341
X103.556Y-112.627
X103.8Y-107.4
X103.8Y-114.6
X103.8Y-141.6
X103.8Y-143.4
X103.929Y-118.583
X104.064Y-113.566
X104.324Y-128.612
X104.498Y-105.0
X104.519Y-141.019
X104.531Y-119.438
X104.634Y-127.577
X104.787Y-124.482
X104.798Y-122.306
X105.394Y-113.566
X105.455Y-126.361
X105.6Y-125.4
X105.6Y-141.6
X105.6Y-143.4
X106.221Y-104.4
X106.482Y-103.693
X106.746Y-126.689
X106.917Y-118.7
X106.969Y-132.045
X107.038Y-122.819
X107.061Y-134.32
X107.278Y-116.505
X107.4Y-114.6
X107.4Y-143.4
X107.43Y-101.15
X107.733Y-117.114
X108.41Y-135.574
X108.55Y-123.374
X108.985Y-130.091
X109.03Y-144.504
X109.2Y-141.6
X109.279Y-122.339
X109.342Y-118.58
X109.419Y-102.265
X109.44Y-140.711
X109.448Y-115.564
X109.565Y-101.245
X109.61Y-119.967
X109.623Y-114.08
X109.623Y-114.86
X109.645Y-110.263
X109.704Y-110.967
X109.71Y-127.813
X109.82Y-125.759
X109.956Y-131.244
X109.961Y-124.398
X110.136Y-135.868
X110.198Y-130.009
X110.309Y-134.6
X110.395Y-143.976
X110.437Y-127.845
X110.707Y-103.739
X111.0Y-138.0
X111.0Y-141.6
X111.117Y-125.796
X111.155Y-126.499
X111.189Y-109.771
X111.708Y-103.285
X112.03Y-113.824
X112.036Y-122.08
X112.047Y-118.93
X112.098Y-112.336
X112.129Y-104.194
X112.33Y-133.419
X112.337Y-114.916
X112.472Y-113.261
X112.613Y-107.487
X112.752Y-118.916
X112.8Y-139.8
X112.8Y-141.6
X113.125Y-114.421
X113.21Y-103.456
X113.344Y-115.892
X113.47Y-127.506
X113.483Y-119.117
X113.696Y-120.663
X113.866Y-113.532
X113.918Y-103.52
X114.05Y-134.155
X114.069Y-126.337
X114.204Y-115.421
X114.342Y-112.518
X114.528Y-105.031
X114.6Y-141.6
X115.63Y-141.927
X115.712Y-128.481
X115.785Y-112.591
X115.845Y-115.895
X116.293Y-106.895
X116.38Y-123.245
X116.4Y-102.0
X116.4Y-139.8
X116.4Y-141.6
X116.982Y-131.279
X117.308Y-135.234
X117.309Y-141.927
X117.457Y-132.016
X117.505Y-142.918
X117.684Y-122.691
X118.101Y-117.13
X118.112Y-103.381
X118.168Y-108.53
X118.2Y-141.6
X118.391Y-107.827
X118.442Y-104.713
X118.492Y-138.521
X118.492Y-119.489
X118.807Y-145.003
X118.989Y-112.439
X119.067Y-117.761
X119.305Y-143.472
X119.996Y-102.301
X120.0Y-138.0
X120.108Y-114.099
X120.144Y-142.918
X120.202Y-144.25
X120.348Y-131.8
X120.508Y-123.523
X120.65Y-107.629
X120.736Y-128.152
X120.812Y-141.011
X120.872Y-104.952
X121.31Y-104.286
X121.344Y-127.237
X121.346Y-134.57
X121.773Y-122.142
X121.962Y-144.513
X121.979Y-117.966
X122.006Y-130.732
X122.411Y-102.804
X122.482Y-108.106
X122.719Y-128.219
X122.759Y-143.08
X122.828Y-119.773
X123.247Y-117.37
X123.476Y-107.286
X123.6Y-132.6
X123.6Y-139.8
X123.831Y-115.213
X123.893Y-126.341
X124.023Y-120.367
X124.111Y-133.787
X124.353Y-115.765
X124.382Y-101.635
X124.521Y-107.645
X124.659Y-114.424
X124.713Y-122.007
X124.726Y-120.277
X124.878Y-141.851
X125.026Y-143.665
X125.035Y-124.29
X125.202Y-109.258
X125.225Y-107.636
X125.343Y-127.828
X125.4Y-102.0
X125.4Y-103.8
X125.4Y-138.0
X125.4Y-139.8
X125.524Y-126.254
X125.719Y-143.781
X126.055Y-130.407
X127.134Y-111.803
X127.141Y-115.563
X127.2Y-103.8
X127.2Y-132.6
X127.2Y-138.0
X127.2Y-141.6
X127.462Y-134.45
X127.527Y-120.268
X127.549Y-143.751
X127.6Y-123.277
X127.794Y-117.908
X127.804Y-112.55
X128.262Y-130.255
X128.294Y-115.645
X128.418Y-133.457
X128.44Y-139.091
X129.0Y-103.8
X129.0Y-105.6
X129.072Y-138.464
X129.401Y-115.591
X129.946Y-137.638
X130.238Y-116.842
X130.616Y-143.689
X130.648Y-127.963
X130.8Y-134.4
X130.8Y-136.2
X130.8Y-138.0
X130.96Y-123.31
X130.962Y-135.45
X131.109Y-131.799
X131.578Y-139.761
X131.8Y-141.958
X131.969Y-127.594
X131.973Y-118.606
X132.001Y-113.256
X132.145Y-101.975
X132.145Y-104.925
X132.245Y-107.95
X132.283Y-130.533
X132.6Y-134.4
X132.6Y-136.2
X132.6Y-138.0
X132.62Y-118.953
X132.664Y-123.721
X132.726Y-104.176
X132.838Y-120.902
X132.839Y-142.141
X132.964Y-115.816
X133.029Y-113.265
X133.041Y-127.656
X133.4Y-107.56
X133.481Y-106.487
X133.95Y-122.148
X133.953Y-104.709
X134.105Y-130.188
X134.19Y-109.83
X134.246Y-114.935
X134.34Y-125.771
X134.4Y-102.0
X134.4Y-105.6
X134.4Y-107.4
X134.4Y-112.8
X134.4Y-134.4
X134.4Y-136.2
X134.594Y-119.094
X134.706Y-138.76
X134.823Y-127.662
X134.841Y-126.336
X134.912Y-140.488
X134.967Y-123.441
X135.246Y-137.082
X135.381Y-119.65
X135.421Y-110.167
X135.677Y-126.168
X135.715Y-118.604
X135.861Y-116.024
X136.2Y-102.0
X136.2Y-134.4
X136.2Y-143.4
X136.352Y-104.135
X136.475Y-110.977
X136.628Y-125.453
X137.107Y-103.46
X137.21Y-130.469
X138.0Y-102.0
X138.0Y-134.4
X138.0Y-143.4
X138.111Y-125.897
X138.129Y-124.873
X138.151Y-123.732
X138.173Y-112.739
X138.479Y-126.875
X138.532Y-131.147
X139.209Y-126.89
X139.58Y-123.128
X139.719Y-103.2
X139.8Y-102.0
X139.8Y-105.6
X139.8Y-143.4
X139.989Y-127.57
X140.3Y-116.88
X140.565Y-126.93
X140.95Y-141.607
X140.961Y-132.752
X141.005Y-129.42
X141.531Y-116.594
X141.596Y-132.12
X141.6Y-102.0
X141.6Y-103.8
X141.6Y-105.6
X141.6Y-107.4
X141.6Y-114.6
X141.6Y-120.0
X141.6Y-127.2
X141.6Y-129.0
X141.6Y-130.8
X141.6Y-134.4
X141.6Y-138.0
X141.6Y-143.4
X141.87Y-112.703
X141.872Y-109.684
X141.962Y-135.45
X143.524Y-116.215
X143.994Y-129.601
X143.995Y-135.201
X144.012Y-115.14
X144.012Y-116.84
X144.012Y-120.34
X144.117Y-123.312
X144.121Y-110.561
X144.179Y-113.866
T4
X119.61Y-105.13
X125.39Y-105.13
T5
X119.15Y-140.051
X127.15Y-140.051
T3
X118.175Y-101.75G85X118.175Y-101.15
G05
X118.175Y-106.1G85X118.175Y-105.2
G05
X126.825Y-101.75G85X126.825Y-101.15
G05
X126.825Y-106.1G85X126.825Y-105.2
G05
M30
