%TF.GenerationSoftware,KiCad,Pcbnew,9.0.8+dfsg-1*%
%TF.CreationDate,2026-09-19T19:34:14+01:00*%
%TF.ProjectId,NAVCORE-SoOP,4e415643-4f52-4452-9d53-6f4f502e6b69,rev?*%
%TF.SameCoordinates,Original*%
%TF.FileFunction,Drillmap*%
%TF.FilePolarity,Positive*%
%FSLAX45Y45*%
G04 Gerber Fmt 4.5, Leading zero omitted, Abs format (unit mm)*
G04 Created by KiCad (PCBNEW 9.0.8+dfsg-1) date 2026-09-19 19:34:14*
%MOMM*%
%LPD*%
G01*
G04 APERTURE LIST*
%ADD10C,0.100000*%
%ADD11C,0.200000*%
G04 APERTURE END LIST*
D10*
X10000000Y-10400000D02*
G75*
G02*
X10400000Y-10000000I400000J0D01*
G01*
X10000000Y-14200000D02*
X10000000Y-10400000D01*
X10400000Y-10000000D02*
X14100000Y-10000000D01*
X10400000Y-14600000D02*
G75*
G02*
X10000000Y-14200000I0J400000D01*
G01*
X10925000Y-10775000D02*
G75*
G02*
X10525000Y-10775000I-200000J0D01*
G01*
X10525000Y-10775000D02*
G75*
G02*
X10925000Y-10775000I200000J0D01*
G01*
X10925000Y-13825000D02*
G75*
G02*
X10525000Y-13825000I-200000J0D01*
G01*
X10525000Y-13825000D02*
G75*
G02*
X10925000Y-13825000I200000J0D01*
G01*
X13975000Y-10775000D02*
G75*
G02*
X13575000Y-10775000I-200000J0D01*
G01*
X13575000Y-10775000D02*
G75*
G02*
X13975000Y-10775000I200000J0D01*
G01*
X13975000Y-13825000D02*
G75*
G02*
X13575000Y-13825000I-200000J0D01*
G01*
X13575000Y-13825000D02*
G75*
G02*
X13975000Y-13825000I200000J0D01*
G01*
X14100000Y-10000000D02*
G75*
G02*
X14500000Y-10400000I0J-400000D01*
G01*
X14100000Y-14600000D02*
X10400000Y-14600000D01*
X14500000Y-10400000D02*
X14500000Y-14200000D01*
X14500000Y-14200000D02*
G75*
G02*
X14100000Y-14600000I-400000J0D01*
G01*
D11*
D10*
X10240000Y-11168250D02*
X10260000Y-11188250D01*
X10260000Y-11168250D02*
X10240000Y-11188250D01*
X10240000Y-11560000D02*
X10260000Y-11580000D01*
X10260000Y-11560000D02*
X10240000Y-11580000D01*
X10252500Y-11040000D02*
X10272500Y-11060000D01*
X10272500Y-11040000D02*
X10252500Y-11060000D01*
X10322500Y-10647500D02*
X10342500Y-10667500D01*
X10342500Y-10647500D02*
X10322500Y-10667500D01*
X10350000Y-10890000D02*
X10370000Y-10910000D01*
X10370000Y-10890000D02*
X10350000Y-10910000D01*
X10360000Y-11007500D02*
X10380000Y-11027500D01*
X10380000Y-11007500D02*
X10360000Y-11027500D01*
X10385000Y-11235750D02*
X10405000Y-11255750D01*
X10405000Y-11235750D02*
X10385000Y-11255750D01*
X10445330Y-11517360D02*
X10465330Y-11537360D01*
X10465330Y-11517360D02*
X10445330Y-11537360D01*
X10522500Y-11275000D02*
X10542500Y-11295000D01*
X10542500Y-11275000D02*
X10522500Y-11295000D01*
X10647500Y-11132500D02*
X10667500Y-11152500D01*
X10667500Y-11132500D02*
X10647500Y-11152500D01*
X10647500Y-11192500D02*
X10667500Y-11212500D01*
X10667500Y-11192500D02*
X10647500Y-11212500D01*
X10664070Y-12894390D02*
X10684070Y-12914390D01*
X10684070Y-12894390D02*
X10664070Y-12914390D01*
X10667500Y-11500000D02*
X10687500Y-11520000D01*
X10687500Y-11500000D02*
X10667500Y-11520000D01*
X10674060Y-11759950D02*
X10694060Y-11779950D01*
X10694060Y-11759950D02*
X10674060Y-11779950D01*
X10675000Y-11417500D02*
X10695000Y-11437500D01*
X10695000Y-11417500D02*
X10675000Y-11437500D01*
X10690000Y-11275000D02*
X10710000Y-11295000D01*
X10710000Y-11275000D02*
X10690000Y-11295000D01*
X10709900Y-12456100D02*
X10729900Y-12476100D01*
X10729900Y-12456100D02*
X10709900Y-12476100D01*
X10715000Y-11175000D02*
X10735000Y-11195000D01*
X10735000Y-11175000D02*
X10715000Y-11195000D01*
X10725000Y-10507500D02*
X10745000Y-10527500D01*
X10745000Y-10507500D02*
X10725000Y-10527500D01*
X10775000Y-13280000D02*
X10795000Y-13300000D01*
X10795000Y-13280000D02*
X10775000Y-13300000D01*
X10820000Y-11275000D02*
X10840000Y-11295000D01*
X10840000Y-11275000D02*
X10820000Y-11295000D01*
X10843700Y-11809200D02*
X10863700Y-11829200D01*
X10863700Y-11809200D02*
X10843700Y-11829200D01*
X10880000Y-11035000D02*
X10900000Y-11055000D01*
X10900000Y-11035000D02*
X10880000Y-11055000D01*
X10936400Y-13195940D02*
X10956400Y-13215940D01*
X10956400Y-13195940D02*
X10936400Y-13215940D01*
X10956360Y-11731540D02*
X10976360Y-11751540D01*
X10976360Y-11731540D02*
X10956360Y-11751540D01*
X11017500Y-10715000D02*
X11037500Y-10735000D01*
X11037500Y-10715000D02*
X11017500Y-10735000D01*
X11021940Y-10812400D02*
X11041940Y-10832400D01*
X11041940Y-10812400D02*
X11021940Y-10832400D01*
X11029500Y-12711520D02*
X11049500Y-12731520D01*
X11049500Y-12711520D02*
X11029500Y-12731520D01*
X11089375Y-12349375D02*
X11109375Y-12369375D01*
X11109375Y-12349375D02*
X11089375Y-12369375D01*
X11100000Y-10575000D02*
X11120000Y-10595000D01*
X11120000Y-10575000D02*
X11100000Y-10595000D01*
X11152500Y-11102500D02*
X11172500Y-11122500D01*
X11172500Y-11102500D02*
X11152500Y-11122500D01*
X11198936Y-10863524D02*
X11218936Y-10883524D01*
X11218936Y-10863524D02*
X11198936Y-10883524D01*
X11241530Y-12826640D02*
X11261530Y-12846640D01*
X11261530Y-12826640D02*
X11241530Y-12846640D01*
X11271210Y-10879840D02*
X11291210Y-10899840D01*
X11291210Y-10879840D02*
X11271210Y-10899840D01*
X11276790Y-11003306D02*
X11296790Y-11023306D01*
X11296790Y-11003306D02*
X11276790Y-11023306D01*
X11291130Y-12153940D02*
X11311130Y-12173940D01*
X11311130Y-12153940D02*
X11291130Y-12173940D01*
X11315000Y-13770000D02*
X11335000Y-13790000D01*
X11335000Y-13770000D02*
X11315000Y-13790000D01*
X11327370Y-13126960D02*
X11347370Y-13146960D01*
X11347370Y-13126960D02*
X11327370Y-13146960D01*
X11336590Y-11247160D02*
X11356590Y-11267160D01*
X11356590Y-11247160D02*
X11336590Y-11267160D01*
X11450000Y-10765000D02*
X11470000Y-10785000D01*
X11470000Y-10765000D02*
X11450000Y-10785000D01*
X11494120Y-12246450D02*
X11514120Y-12266450D01*
X11514120Y-12246450D02*
X11494120Y-12266450D01*
X11563920Y-13099250D02*
X11583920Y-13119250D01*
X11583920Y-13099250D02*
X11563920Y-13119250D01*
X11668890Y-11261750D02*
X11688890Y-11281750D01*
X11688890Y-11261750D02*
X11668890Y-11281750D01*
X11710000Y-10725000D02*
X11730000Y-10745000D01*
X11730000Y-10725000D02*
X11710000Y-10745000D01*
X11823800Y-12873000D02*
X11843800Y-12893000D01*
X11843800Y-12873000D02*
X11823800Y-12893000D01*
X11876860Y-12208640D02*
X11896860Y-12228640D01*
X11896860Y-12208640D02*
X11876860Y-12228640D01*
X11880180Y-12145080D02*
X11900180Y-12165080D01*
X11900180Y-12145080D02*
X11880180Y-12165080D01*
X11969000Y-12304600D02*
X11989000Y-12324600D01*
X11989000Y-12304600D02*
X11969000Y-12324600D01*
X12093310Y-13347260D02*
X12113310Y-13367260D01*
X12113310Y-13347260D02*
X12093310Y-13367260D01*
X12129420Y-14039170D02*
X12149420Y-14059170D01*
X12149420Y-14039170D02*
X12129420Y-14059170D01*
X12133900Y-12115600D02*
X12153900Y-12135600D01*
X12153900Y-12115600D02*
X12133900Y-12135600D01*
X12152750Y-10788900D02*
X12172750Y-10808900D01*
X12172750Y-10788900D02*
X12152750Y-10808900D01*
X12195000Y-10750000D02*
X12215000Y-10770000D01*
X12215000Y-10750000D02*
X12195000Y-10770000D01*
X12198140Y-11379660D02*
X12218140Y-11399660D01*
X12218140Y-11379660D02*
X12198140Y-11399660D01*
X12238350Y-12386770D02*
X12258350Y-12406770D01*
X12258350Y-12386770D02*
X12238350Y-12406770D01*
X12248790Y-10863440D02*
X12268790Y-10883440D01*
X12268790Y-10863440D02*
X12248790Y-10883440D01*
X12287430Y-11274285D02*
X12307430Y-11294285D01*
X12307430Y-11274285D02*
X12287430Y-11294285D01*
X12294380Y-12389310D02*
X12314380Y-12409310D01*
X12314380Y-12389310D02*
X12294380Y-12409310D01*
X12305000Y-12335000D02*
X12325000Y-12355000D01*
X12325000Y-12335000D02*
X12305000Y-12355000D01*
X12309020Y-12635650D02*
X12329020Y-12655650D01*
X12329020Y-12635650D02*
X12309020Y-12655650D01*
X12334080Y-11115370D02*
X12354080Y-11135370D01*
X12354080Y-11115370D02*
X12334080Y-11135370D01*
X12338250Y-11567120D02*
X12358250Y-11587120D01*
X12358250Y-11567120D02*
X12338250Y-11587120D01*
X12364960Y-10457990D02*
X12384960Y-10477990D01*
X12384960Y-10457990D02*
X12364960Y-10477990D01*
X12370880Y-10774220D02*
X12390880Y-10794220D01*
X12390880Y-10774220D02*
X12370880Y-10794220D01*
X12374660Y-11258990D02*
X12394660Y-11278990D01*
X12394660Y-11258990D02*
X12374660Y-11278990D01*
X12387710Y-11132580D02*
X12407710Y-11152580D01*
X12407710Y-11132580D02*
X12387710Y-11152580D01*
X12399000Y-12308610D02*
X12419000Y-12328610D01*
X12419000Y-12308610D02*
X12399000Y-12328610D01*
X12405580Y-10503590D02*
X12425580Y-10523590D01*
X12425580Y-10503590D02*
X12405580Y-10523590D01*
X12412690Y-11719600D02*
X12432690Y-11739600D01*
X12432690Y-11719600D02*
X12412690Y-11739600D01*
X12469840Y-11730390D02*
X12489840Y-11750390D01*
X12489840Y-11730390D02*
X12469840Y-11750390D01*
X12580000Y-10750000D02*
X12600000Y-10770000D01*
X12600000Y-10750000D02*
X12580000Y-10770000D01*
X12645100Y-12357100D02*
X12665100Y-12377100D01*
X12665100Y-12357100D02*
X12645100Y-12377100D01*
X12667570Y-13009180D02*
X12687570Y-13029180D01*
X12687570Y-13009180D02*
X12667570Y-13029180D01*
X12680000Y-11020000D02*
X12700000Y-11040000D01*
X12700000Y-11020000D02*
X12680000Y-11040000D01*
X12714700Y-11337350D02*
X12734700Y-11357350D01*
X12734700Y-11337350D02*
X12714700Y-11357350D01*
X12778000Y-10910000D02*
X12798000Y-10930000D01*
X12798000Y-10910000D02*
X12778000Y-10930000D01*
X12841510Y-11322950D02*
X12861510Y-11342950D01*
X12861510Y-11322950D02*
X12841510Y-11342950D01*
X12850000Y-11265000D02*
X12870000Y-11285000D01*
X12870000Y-11265000D02*
X12850000Y-11285000D01*
X12875000Y-12312000D02*
X12895000Y-12332000D01*
X12895000Y-12312000D02*
X12875000Y-12332000D01*
X12885500Y-11432500D02*
X12905500Y-11452500D01*
X12905500Y-11432500D02*
X12885500Y-11452500D01*
X12945000Y-11529000D02*
X12965000Y-11549000D01*
X12965000Y-11529000D02*
X12945000Y-11549000D01*
X12949920Y-12521680D02*
X12969920Y-12541680D01*
X12969920Y-12521680D02*
X12949920Y-12541680D01*
X12957100Y-12452130D02*
X12977100Y-12472130D01*
X12977100Y-12452130D02*
X12957100Y-12472130D01*
X12979768Y-11345030D02*
X12999768Y-11365030D01*
X12999768Y-11345030D02*
X12979768Y-11365030D01*
X12990000Y-11570000D02*
X13010000Y-11590000D01*
X13010000Y-11570000D02*
X12990000Y-11590000D01*
X13020500Y-11805000D02*
X13040500Y-11825000D01*
X13040500Y-11805000D02*
X13020500Y-11825000D01*
X13040000Y-11685000D02*
X13060000Y-11705000D01*
X13060000Y-11685000D02*
X13040000Y-11705000D01*
X13068540Y-11892780D02*
X13088540Y-11912780D01*
X13088540Y-11892780D02*
X13068540Y-11912780D01*
X13077170Y-11806020D02*
X13097170Y-11826020D01*
X13097170Y-11806020D02*
X13077170Y-11826020D01*
X13114430Y-12721620D02*
X13134430Y-12741620D01*
X13134430Y-12721620D02*
X13114430Y-12741620D01*
X13123090Y-10904950D02*
X13143090Y-10924950D01*
X13143090Y-10904950D02*
X13123090Y-10924950D01*
X13171720Y-12138970D02*
X13191720Y-12158970D01*
X13191720Y-12138970D02*
X13171720Y-12158970D01*
X13280000Y-11255000D02*
X13300000Y-11275000D01*
X13300000Y-11255000D02*
X13280000Y-11275000D01*
X13415500Y-12127200D02*
X13435500Y-12147200D01*
X13435500Y-12127200D02*
X13415500Y-12147200D01*
X13436000Y-11700000D02*
X13456000Y-11720000D01*
X13456000Y-11700000D02*
X13436000Y-11720000D01*
X13490500Y-11955000D02*
X13510500Y-11975000D01*
X13510500Y-11955000D02*
X13490500Y-11975000D01*
X13503500Y-11447000D02*
X13523500Y-11467000D01*
X13523500Y-11447000D02*
X13503500Y-11467000D01*
X13570500Y-11070000D02*
X13590500Y-11090000D01*
X13590500Y-11070000D02*
X13570500Y-11090000D01*
X13583000Y-11700000D02*
X13603000Y-11720000D01*
X13603000Y-11700000D02*
X13583000Y-11720000D01*
X13584180Y-11787310D02*
X13604180Y-11807310D01*
X13604180Y-11787310D02*
X13584180Y-11807310D01*
X13585497Y-12814483D02*
X13605497Y-12834483D01*
X13605497Y-12814483D02*
X13585497Y-12834483D01*
X13640497Y-12969483D02*
X13660497Y-12989483D01*
X13660497Y-12969483D02*
X13640497Y-12989483D01*
X13683000Y-12035000D02*
X13703000Y-12055000D01*
X13703000Y-12035000D02*
X13683000Y-12055000D01*
X13693380Y-12676910D02*
X13713380Y-12696910D01*
X13713380Y-12676910D02*
X13693380Y-12696910D01*
X13698690Y-11931120D02*
X13718690Y-11951120D01*
X13718690Y-11931120D02*
X13698690Y-11951120D01*
X13711230Y-11319070D02*
X13731230Y-11339070D01*
X13731230Y-11319070D02*
X13711230Y-11339070D01*
X13715497Y-12816983D02*
X13735497Y-12836983D01*
X13735497Y-12816983D02*
X13715497Y-12836983D01*
X13722292Y-12605625D02*
X13742292Y-12625625D01*
X13742292Y-12605625D02*
X13722292Y-12625625D01*
X13750010Y-11096790D02*
X13770010Y-11116790D01*
X13770010Y-11096790D02*
X13750010Y-11116790D01*
X13800000Y-11932000D02*
X13820000Y-11952000D01*
X13820000Y-11932000D02*
X13800000Y-11952000D01*
X13801010Y-11149260D02*
X13821010Y-11169260D01*
X13821010Y-11149260D02*
X13801010Y-11169260D01*
X13855500Y-11997500D02*
X13875500Y-12017500D01*
X13875500Y-11997500D02*
X13855500Y-12017500D01*
X13880300Y-11255200D02*
X13900300Y-11275200D01*
X13900300Y-11255200D02*
X13880300Y-11275200D01*
X13988000Y-12135000D02*
X14008000Y-12155000D01*
X14008000Y-12135000D02*
X13988000Y-12155000D01*
X14039840Y-12018010D02*
X14059840Y-12038010D01*
X14059840Y-12018010D02*
X14039840Y-12038010D01*
X14076960Y-12533250D02*
X14096960Y-12553250D01*
X14096960Y-12533250D02*
X14076960Y-12553250D01*
X14098000Y-11947500D02*
X14118000Y-11967500D01*
X14118000Y-11947500D02*
X14098000Y-11967500D01*
X14108000Y-11890000D02*
X14128000Y-11910000D01*
X14128000Y-11890000D02*
X14108000Y-11910000D01*
X14136858Y-11367930D02*
X14156858Y-11387930D01*
X14156858Y-11367930D02*
X14136858Y-11387930D01*
X14210000Y-11670000D02*
X14230000Y-11690000D01*
X14230000Y-11670000D02*
X14210000Y-11690000D01*
X14216370Y-11130400D02*
X14236370Y-11150400D01*
X14236370Y-11130400D02*
X14216370Y-11150400D01*
X10140580Y-11860000D02*
G75*
G02*
X10110580Y-11860000I-15000J0D01*
G01*
X10110580Y-11860000D02*
G75*
G02*
X10140580Y-11860000I15000J0D01*
G01*
X10200248Y-11500150D02*
G75*
G02*
X10170248Y-11500150I-15000J0D01*
G01*
X10170248Y-11500150D02*
G75*
G02*
X10200248Y-11500150I15000J0D01*
G01*
X10215000Y-10200000D02*
G75*
G02*
X10185000Y-10200000I-15000J0D01*
G01*
X10185000Y-10200000D02*
G75*
G02*
X10215000Y-10200000I15000J0D01*
G01*
X10215000Y-10560000D02*
G75*
G02*
X10185000Y-10560000I-15000J0D01*
G01*
X10185000Y-10560000D02*
G75*
G02*
X10215000Y-10560000I15000J0D01*
G01*
X10215000Y-10740000D02*
G75*
G02*
X10185000Y-10740000I-15000J0D01*
G01*
X10185000Y-10740000D02*
G75*
G02*
X10215000Y-10740000I15000J0D01*
G01*
X10215000Y-10920000D02*
G75*
G02*
X10185000Y-10920000I-15000J0D01*
G01*
X10185000Y-10920000D02*
G75*
G02*
X10215000Y-10920000I15000J0D01*
G01*
X10215000Y-12540000D02*
G75*
G02*
X10185000Y-12540000I-15000J0D01*
G01*
X10185000Y-12540000D02*
G75*
G02*
X10215000Y-12540000I15000J0D01*
G01*
X10215000Y-12900000D02*
G75*
G02*
X10185000Y-12900000I-15000J0D01*
G01*
X10185000Y-12900000D02*
G75*
G02*
X10215000Y-12900000I15000J0D01*
G01*
X10215000Y-13800000D02*
G75*
G02*
X10185000Y-13800000I-15000J0D01*
G01*
X10185000Y-13800000D02*
G75*
G02*
X10215000Y-13800000I15000J0D01*
G01*
X10215000Y-13980000D02*
G75*
G02*
X10185000Y-13980000I-15000J0D01*
G01*
X10185000Y-13980000D02*
G75*
G02*
X10215000Y-13980000I15000J0D01*
G01*
X10215000Y-14160000D02*
G75*
G02*
X10185000Y-14160000I-15000J0D01*
G01*
X10185000Y-14160000D02*
G75*
G02*
X10215000Y-14160000I15000J0D01*
G01*
X10215000Y-14340000D02*
G75*
G02*
X10185000Y-14340000I-15000J0D01*
G01*
X10185000Y-14340000D02*
G75*
G02*
X10215000Y-14340000I15000J0D01*
G01*
X10244289Y-12454372D02*
G75*
G02*
X10214289Y-12454372I-15000J0D01*
G01*
X10214289Y-12454372D02*
G75*
G02*
X10244289Y-12454372I15000J0D01*
G01*
X10244881Y-13150092D02*
G75*
G02*
X10214881Y-13150092I-15000J0D01*
G01*
X10214881Y-13150092D02*
G75*
G02*
X10244881Y-13150092I15000J0D01*
G01*
X10244932Y-13710112D02*
G75*
G02*
X10214932Y-13710112I-15000J0D01*
G01*
X10214932Y-13710112D02*
G75*
G02*
X10244932Y-13710112I15000J0D01*
G01*
X10260361Y-13390795D02*
G75*
G02*
X10230361Y-13390795I-15000J0D01*
G01*
X10230361Y-13390795D02*
G75*
G02*
X10260361Y-13390795I15000J0D01*
G01*
X10260412Y-12830774D02*
G75*
G02*
X10230412Y-12830774I-15000J0D01*
G01*
X10230412Y-12830774D02*
G75*
G02*
X10260412Y-12830774I15000J0D01*
G01*
X10322544Y-14286206D02*
G75*
G02*
X10292544Y-14286206I-15000J0D01*
G01*
X10292544Y-14286206D02*
G75*
G02*
X10322544Y-14286206I15000J0D01*
G01*
X10361980Y-13434120D02*
G75*
G02*
X10331980Y-13434120I-15000J0D01*
G01*
X10331980Y-13434120D02*
G75*
G02*
X10361980Y-13434120I15000J0D01*
G01*
X10395000Y-10740000D02*
G75*
G02*
X10365000Y-10740000I-15000J0D01*
G01*
X10365000Y-10740000D02*
G75*
G02*
X10395000Y-10740000I15000J0D01*
G01*
X10395000Y-11460000D02*
G75*
G02*
X10365000Y-11460000I-15000J0D01*
G01*
X10365000Y-11460000D02*
G75*
G02*
X10395000Y-11460000I15000J0D01*
G01*
X10395000Y-14160000D02*
G75*
G02*
X10365000Y-14160000I-15000J0D01*
G01*
X10365000Y-14160000D02*
G75*
G02*
X10395000Y-14160000I15000J0D01*
G01*
X10395000Y-14340000D02*
G75*
G02*
X10365000Y-14340000I-15000J0D01*
G01*
X10365000Y-14340000D02*
G75*
G02*
X10395000Y-14340000I15000J0D01*
G01*
X10421379Y-11356629D02*
G75*
G02*
X10391379Y-11356629I-15000J0D01*
G01*
X10391379Y-11356629D02*
G75*
G02*
X10421379Y-11356629I15000J0D01*
G01*
X10447408Y-12861210D02*
G75*
G02*
X10417408Y-12861210I-15000J0D01*
G01*
X10417408Y-12861210D02*
G75*
G02*
X10447408Y-12861210I15000J0D01*
G01*
X10464795Y-10499996D02*
G75*
G02*
X10434795Y-10499996I-15000J0D01*
G01*
X10434795Y-10499996D02*
G75*
G02*
X10464795Y-10499996I15000J0D01*
G01*
X10466933Y-14101933D02*
G75*
G02*
X10436933Y-14101933I-15000J0D01*
G01*
X10436933Y-14101933D02*
G75*
G02*
X10466933Y-14101933I15000J0D01*
G01*
X10468100Y-11943850D02*
G75*
G02*
X10438100Y-11943850I-15000J0D01*
G01*
X10438100Y-11943850D02*
G75*
G02*
X10468100Y-11943850I15000J0D01*
G01*
X10478390Y-12757680D02*
G75*
G02*
X10448390Y-12757680I-15000J0D01*
G01*
X10448390Y-12757680D02*
G75*
G02*
X10478390Y-12757680I15000J0D01*
G01*
X10493746Y-12448248D02*
G75*
G02*
X10463746Y-12448248I-15000J0D01*
G01*
X10463746Y-12448248D02*
G75*
G02*
X10493746Y-12448248I15000J0D01*
G01*
X10494840Y-12230620D02*
G75*
G02*
X10464840Y-12230620I-15000J0D01*
G01*
X10464840Y-12230620D02*
G75*
G02*
X10494840Y-12230620I15000J0D01*
G01*
X10554378Y-11356629D02*
G75*
G02*
X10524378Y-11356629I-15000J0D01*
G01*
X10524378Y-11356629D02*
G75*
G02*
X10554378Y-11356629I15000J0D01*
G01*
X10560472Y-12636145D02*
G75*
G02*
X10530472Y-12636145I-15000J0D01*
G01*
X10530472Y-12636145D02*
G75*
G02*
X10560472Y-12636145I15000J0D01*
G01*
X10575000Y-12540000D02*
G75*
G02*
X10545000Y-12540000I-15000J0D01*
G01*
X10545000Y-12540000D02*
G75*
G02*
X10575000Y-12540000I15000J0D01*
G01*
X10575000Y-14160000D02*
G75*
G02*
X10545000Y-14160000I-15000J0D01*
G01*
X10545000Y-14160000D02*
G75*
G02*
X10575000Y-14160000I15000J0D01*
G01*
X10575000Y-14340000D02*
G75*
G02*
X10545000Y-14340000I-15000J0D01*
G01*
X10545000Y-14340000D02*
G75*
G02*
X10575000Y-14340000I15000J0D01*
G01*
X10637120Y-10440014D02*
G75*
G02*
X10607120Y-10440014I-15000J0D01*
G01*
X10607120Y-10440014D02*
G75*
G02*
X10637120Y-10440014I15000J0D01*
G01*
X10663200Y-10369330D02*
G75*
G02*
X10633200Y-10369330I-15000J0D01*
G01*
X10633200Y-10369330D02*
G75*
G02*
X10663200Y-10369330I15000J0D01*
G01*
X10689650Y-12668900D02*
G75*
G02*
X10659650Y-12668900I-15000J0D01*
G01*
X10659650Y-12668900D02*
G75*
G02*
X10689650Y-12668900I15000J0D01*
G01*
X10706680Y-11869980D02*
G75*
G02*
X10676680Y-11869980I-15000J0D01*
G01*
X10676680Y-11869980D02*
G75*
G02*
X10706680Y-11869980I15000J0D01*
G01*
X10711880Y-13204470D02*
G75*
G02*
X10681880Y-13204470I-15000J0D01*
G01*
X10681880Y-13204470D02*
G75*
G02*
X10711880Y-13204470I15000J0D01*
G01*
X10718790Y-12281940D02*
G75*
G02*
X10688790Y-12281940I-15000J0D01*
G01*
X10688790Y-12281940D02*
G75*
G02*
X10718790Y-12281940I15000J0D01*
G01*
X10721067Y-13431987D02*
G75*
G02*
X10691067Y-13431987I-15000J0D01*
G01*
X10691067Y-13431987D02*
G75*
G02*
X10721067Y-13431987I15000J0D01*
G01*
X10755000Y-11460000D02*
G75*
G02*
X10725000Y-11460000I-15000J0D01*
G01*
X10725000Y-11460000D02*
G75*
G02*
X10755000Y-11460000I15000J0D01*
G01*
X10755000Y-14340000D02*
G75*
G02*
X10725000Y-14340000I-15000J0D01*
G01*
X10725000Y-14340000D02*
G75*
G02*
X10755000Y-14340000I15000J0D01*
G01*
X10758029Y-10115000D02*
G75*
G02*
X10728029Y-10115000I-15000J0D01*
G01*
X10728029Y-10115000D02*
G75*
G02*
X10758029Y-10115000I15000J0D01*
G01*
X10788250Y-11711430D02*
G75*
G02*
X10758250Y-11711430I-15000J0D01*
G01*
X10758250Y-11711430D02*
G75*
G02*
X10788250Y-11711430I15000J0D01*
G01*
X10856040Y-13557380D02*
G75*
G02*
X10826040Y-13557380I-15000J0D01*
G01*
X10826040Y-13557380D02*
G75*
G02*
X10856040Y-13557380I15000J0D01*
G01*
X10870000Y-12337440D02*
G75*
G02*
X10840000Y-12337440I-15000J0D01*
G01*
X10840000Y-12337440D02*
G75*
G02*
X10870000Y-12337440I15000J0D01*
G01*
X10913525Y-13009063D02*
G75*
G02*
X10883525Y-13009063I-15000J0D01*
G01*
X10883525Y-13009063D02*
G75*
G02*
X10913525Y-13009063I15000J0D01*
G01*
X10917957Y-14450396D02*
G75*
G02*
X10887957Y-14450396I-15000J0D01*
G01*
X10887957Y-14450396D02*
G75*
G02*
X10917957Y-14450396I15000J0D01*
G01*
X10935000Y-14160000D02*
G75*
G02*
X10905000Y-14160000I-15000J0D01*
G01*
X10905000Y-14160000D02*
G75*
G02*
X10935000Y-14160000I15000J0D01*
G01*
X10942860Y-12233910D02*
G75*
G02*
X10912860Y-12233910I-15000J0D01*
G01*
X10912860Y-12233910D02*
G75*
G02*
X10942860Y-12233910I15000J0D01*
G01*
X10949230Y-11858010D02*
G75*
G02*
X10919230Y-11858010I-15000J0D01*
G01*
X10919230Y-11858010D02*
G75*
G02*
X10949230Y-11858010I15000J0D01*
G01*
X10956900Y-10226500D02*
G75*
G02*
X10926900Y-10226500I-15000J0D01*
G01*
X10926900Y-10226500D02*
G75*
G02*
X10956900Y-10226500I15000J0D01*
G01*
X10959020Y-14071080D02*
G75*
G02*
X10929020Y-14071080I-15000J0D01*
G01*
X10929020Y-14071080D02*
G75*
G02*
X10959020Y-14071080I15000J0D01*
G01*
X10959810Y-11556370D02*
G75*
G02*
X10929810Y-11556370I-15000J0D01*
G01*
X10929810Y-11556370D02*
G75*
G02*
X10959810Y-11556370I15000J0D01*
G01*
X10971529Y-10124500D02*
G75*
G02*
X10941529Y-10124500I-15000J0D01*
G01*
X10941529Y-10124500D02*
G75*
G02*
X10971529Y-10124500I15000J0D01*
G01*
X10976030Y-11996700D02*
G75*
G02*
X10946030Y-11996700I-15000J0D01*
G01*
X10946030Y-11996700D02*
G75*
G02*
X10976030Y-11996700I15000J0D01*
G01*
X10977320Y-11407990D02*
G75*
G02*
X10947320Y-11407990I-15000J0D01*
G01*
X10947320Y-11407990D02*
G75*
G02*
X10977320Y-11407990I15000J0D01*
G01*
X10977320Y-11486030D02*
G75*
G02*
X10947320Y-11486030I-15000J0D01*
G01*
X10947320Y-11486030D02*
G75*
G02*
X10977320Y-11486030I15000J0D01*
G01*
X10979490Y-11026350D02*
G75*
G02*
X10949490Y-11026350I-15000J0D01*
G01*
X10949490Y-11026350D02*
G75*
G02*
X10979490Y-11026350I15000J0D01*
G01*
X10985440Y-11096690D02*
G75*
G02*
X10955440Y-11096690I-15000J0D01*
G01*
X10955440Y-11096690D02*
G75*
G02*
X10985440Y-11096690I15000J0D01*
G01*
X10986030Y-12781290D02*
G75*
G02*
X10956030Y-12781290I-15000J0D01*
G01*
X10956030Y-12781290D02*
G75*
G02*
X10986030Y-12781290I15000J0D01*
G01*
X10997000Y-12575870D02*
G75*
G02*
X10967000Y-12575870I-15000J0D01*
G01*
X10967000Y-12575870D02*
G75*
G02*
X10997000Y-12575870I15000J0D01*
G01*
X11010620Y-13124450D02*
G75*
G02*
X10980620Y-13124450I-15000J0D01*
G01*
X10980620Y-13124450D02*
G75*
G02*
X11010620Y-13124450I15000J0D01*
G01*
X11011130Y-12439840D02*
G75*
G02*
X10981130Y-12439840I-15000J0D01*
G01*
X10981130Y-12439840D02*
G75*
G02*
X11011130Y-12439840I15000J0D01*
G01*
X11028610Y-13586750D02*
G75*
G02*
X10998610Y-13586750I-15000J0D01*
G01*
X10998610Y-13586750D02*
G75*
G02*
X11028610Y-13586750I15000J0D01*
G01*
X11034850Y-13000860D02*
G75*
G02*
X11004850Y-13000860I-15000J0D01*
G01*
X11004850Y-13000860D02*
G75*
G02*
X11034850Y-13000860I15000J0D01*
G01*
X11045940Y-13460030D02*
G75*
G02*
X11015940Y-13460030I-15000J0D01*
G01*
X11015940Y-13460030D02*
G75*
G02*
X11045940Y-13460030I15000J0D01*
G01*
X11054461Y-14397610D02*
G75*
G02*
X11024461Y-14397610I-15000J0D01*
G01*
X11024461Y-14397610D02*
G75*
G02*
X11054461Y-14397610I15000J0D01*
G01*
X11058670Y-12784520D02*
G75*
G02*
X11028670Y-12784520I-15000J0D01*
G01*
X11028670Y-12784520D02*
G75*
G02*
X11058670Y-12784520I15000J0D01*
G01*
X11085730Y-10373950D02*
G75*
G02*
X11055730Y-10373950I-15000J0D01*
G01*
X11055730Y-10373950D02*
G75*
G02*
X11085730Y-10373950I15000J0D01*
G01*
X11115000Y-13800000D02*
G75*
G02*
X11085000Y-13800000I-15000J0D01*
G01*
X11085000Y-13800000D02*
G75*
G02*
X11115000Y-13800000I15000J0D01*
G01*
X11115000Y-14160000D02*
G75*
G02*
X11085000Y-14160000I-15000J0D01*
G01*
X11085000Y-14160000D02*
G75*
G02*
X11115000Y-14160000I15000J0D01*
G01*
X11126740Y-12579560D02*
G75*
G02*
X11096740Y-12579560I-15000J0D01*
G01*
X11096740Y-12579560D02*
G75*
G02*
X11126740Y-12579560I15000J0D01*
G01*
X11130510Y-12649900D02*
G75*
G02*
X11100510Y-12649900I-15000J0D01*
G01*
X11100510Y-12649900D02*
G75*
G02*
X11130510Y-12649900I15000J0D01*
G01*
X11133880Y-10977072D02*
G75*
G02*
X11103880Y-10977072I-15000J0D01*
G01*
X11103880Y-10977072D02*
G75*
G02*
X11133880Y-10977072I15000J0D01*
G01*
X11185760Y-10328530D02*
G75*
G02*
X11155760Y-10328530I-15000J0D01*
G01*
X11155760Y-10328530D02*
G75*
G02*
X11185760Y-10328530I15000J0D01*
G01*
X11218040Y-11382380D02*
G75*
G02*
X11188040Y-11382380I-15000J0D01*
G01*
X11188040Y-11382380D02*
G75*
G02*
X11218040Y-11382380I15000J0D01*
G01*
X11218560Y-12208010D02*
G75*
G02*
X11188560Y-12208010I-15000J0D01*
G01*
X11188560Y-12208010D02*
G75*
G02*
X11218560Y-12208010I15000J0D01*
G01*
X11219660Y-11892960D02*
G75*
G02*
X11189660Y-11892960I-15000J0D01*
G01*
X11189660Y-11892960D02*
G75*
G02*
X11219660Y-11892960I15000J0D01*
G01*
X11224770Y-11233610D02*
G75*
G02*
X11194770Y-11233610I-15000J0D01*
G01*
X11194770Y-11233610D02*
G75*
G02*
X11224770Y-11233610I15000J0D01*
G01*
X11227900Y-10419390D02*
G75*
G02*
X11197900Y-10419390I-15000J0D01*
G01*
X11197900Y-10419390D02*
G75*
G02*
X11227900Y-10419390I15000J0D01*
G01*
X11248004Y-13341869D02*
G75*
G02*
X11218004Y-13341869I-15000J0D01*
G01*
X11218004Y-13341869D02*
G75*
G02*
X11248004Y-13341869I15000J0D01*
G01*
X11248730Y-11491630D02*
G75*
G02*
X11218730Y-11491630I-15000J0D01*
G01*
X11218730Y-11491630D02*
G75*
G02*
X11248730Y-11491630I15000J0D01*
G01*
X11262240Y-11326130D02*
G75*
G02*
X11232240Y-11326130I-15000J0D01*
G01*
X11232240Y-11326130D02*
G75*
G02*
X11262240Y-11326130I15000J0D01*
G01*
X11276259Y-10748741D02*
G75*
G02*
X11246259Y-10748741I-15000J0D01*
G01*
X11246259Y-10748741D02*
G75*
G02*
X11276259Y-10748741I15000J0D01*
G01*
X11290160Y-11891640D02*
G75*
G02*
X11260160Y-11891640I-15000J0D01*
G01*
X11260160Y-11891640D02*
G75*
G02*
X11290160Y-11891640I15000J0D01*
G01*
X11295000Y-13980000D02*
G75*
G02*
X11265000Y-13980000I-15000J0D01*
G01*
X11265000Y-13980000D02*
G75*
G02*
X11295000Y-13980000I15000J0D01*
G01*
X11295000Y-14160000D02*
G75*
G02*
X11265000Y-14160000I-15000J0D01*
G01*
X11265000Y-14160000D02*
G75*
G02*
X11295000Y-14160000I15000J0D01*
G01*
X11327530Y-11442060D02*
G75*
G02*
X11297530Y-11442060I-15000J0D01*
G01*
X11297530Y-11442060D02*
G75*
G02*
X11327530Y-11442060I15000J0D01*
G01*
X11336050Y-10345560D02*
G75*
G02*
X11306050Y-10345560I-15000J0D01*
G01*
X11306050Y-10345560D02*
G75*
G02*
X11336050Y-10345560I15000J0D01*
G01*
X11349360Y-11589160D02*
G75*
G02*
X11319360Y-11589160I-15000J0D01*
G01*
X11319360Y-11589160D02*
G75*
G02*
X11349360Y-11589160I15000J0D01*
G01*
X11362020Y-12750640D02*
G75*
G02*
X11332020Y-12750640I-15000J0D01*
G01*
X11332020Y-12750640D02*
G75*
G02*
X11362020Y-12750640I15000J0D01*
G01*
X11363330Y-11911720D02*
G75*
G02*
X11333330Y-11911720I-15000J0D01*
G01*
X11333330Y-11911720D02*
G75*
G02*
X11363330Y-11911720I15000J0D01*
G01*
X11384600Y-12066340D02*
G75*
G02*
X11354600Y-12066340I-15000J0D01*
G01*
X11354600Y-12066340D02*
G75*
G02*
X11384600Y-12066340I15000J0D01*
G01*
X11401640Y-11353240D02*
G75*
G02*
X11371640Y-11353240I-15000J0D01*
G01*
X11371640Y-11353240D02*
G75*
G02*
X11401640Y-11353240I15000J0D01*
G01*
X11406780Y-10351990D02*
G75*
G02*
X11376780Y-10351990I-15000J0D01*
G01*
X11376780Y-10351990D02*
G75*
G02*
X11406780Y-10351990I15000J0D01*
G01*
X11420000Y-13415500D02*
G75*
G02*
X11390000Y-13415500I-15000J0D01*
G01*
X11390000Y-13415500D02*
G75*
G02*
X11420000Y-13415500I15000J0D01*
G01*
X11421890Y-12633730D02*
G75*
G02*
X11391890Y-12633730I-15000J0D01*
G01*
X11391890Y-12633730D02*
G75*
G02*
X11421890Y-12633730I15000J0D01*
G01*
X11435450Y-11542080D02*
G75*
G02*
X11405450Y-11542080I-15000J0D01*
G01*
X11405450Y-11542080D02*
G75*
G02*
X11435450Y-11542080I15000J0D01*
G01*
X11449190Y-11251840D02*
G75*
G02*
X11419190Y-11251840I-15000J0D01*
G01*
X11419190Y-11251840D02*
G75*
G02*
X11449190Y-11251840I15000J0D01*
G01*
X11467827Y-10503109D02*
G75*
G02*
X11437827Y-10503109I-15000J0D01*
G01*
X11437827Y-10503109D02*
G75*
G02*
X11467827Y-10503109I15000J0D01*
G01*
X11475000Y-14160000D02*
G75*
G02*
X11445000Y-14160000I-15000J0D01*
G01*
X11445000Y-14160000D02*
G75*
G02*
X11475000Y-14160000I15000J0D01*
G01*
X11577959Y-14192683D02*
G75*
G02*
X11547959Y-14192683I-15000J0D01*
G01*
X11547959Y-14192683D02*
G75*
G02*
X11577959Y-14192683I15000J0D01*
G01*
X11586190Y-12848060D02*
G75*
G02*
X11556190Y-12848060I-15000J0D01*
G01*
X11556190Y-12848060D02*
G75*
G02*
X11586190Y-12848060I15000J0D01*
G01*
X11593530Y-11259150D02*
G75*
G02*
X11563530Y-11259150I-15000J0D01*
G01*
X11563530Y-11259150D02*
G75*
G02*
X11593530Y-11259150I15000J0D01*
G01*
X11599535Y-11589465D02*
G75*
G02*
X11569535Y-11589465I-15000J0D01*
G01*
X11569535Y-11589465D02*
G75*
G02*
X11599535Y-11589465I15000J0D01*
G01*
X11644300Y-10689550D02*
G75*
G02*
X11614300Y-10689550I-15000J0D01*
G01*
X11614300Y-10689550D02*
G75*
G02*
X11644300Y-10689550I15000J0D01*
G01*
X11653000Y-12324490D02*
G75*
G02*
X11623000Y-12324490I-15000J0D01*
G01*
X11623000Y-12324490D02*
G75*
G02*
X11653000Y-12324490I15000J0D01*
G01*
X11655000Y-10200000D02*
G75*
G02*
X11625000Y-10200000I-15000J0D01*
G01*
X11625000Y-10200000D02*
G75*
G02*
X11655000Y-10200000I15000J0D01*
G01*
X11655000Y-13980000D02*
G75*
G02*
X11625000Y-13980000I-15000J0D01*
G01*
X11625000Y-13980000D02*
G75*
G02*
X11655000Y-13980000I15000J0D01*
G01*
X11655000Y-14160000D02*
G75*
G02*
X11625000Y-14160000I-15000J0D01*
G01*
X11625000Y-14160000D02*
G75*
G02*
X11655000Y-14160000I15000J0D01*
G01*
X11713230Y-13127920D02*
G75*
G02*
X11683230Y-13127920I-15000J0D01*
G01*
X11683230Y-13127920D02*
G75*
G02*
X11713230Y-13127920I15000J0D01*
G01*
X11745791Y-13523417D02*
G75*
G02*
X11715791Y-13523417I-15000J0D01*
G01*
X11715791Y-13523417D02*
G75*
G02*
X11745791Y-13523417I15000J0D01*
G01*
X11745866Y-14192683D02*
G75*
G02*
X11715866Y-14192683I-15000J0D01*
G01*
X11715866Y-14192683D02*
G75*
G02*
X11745866Y-14192683I15000J0D01*
G01*
X11760730Y-13201640D02*
G75*
G02*
X11730730Y-13201640I-15000J0D01*
G01*
X11730730Y-13201640D02*
G75*
G02*
X11760730Y-13201640I15000J0D01*
G01*
X11765499Y-14291850D02*
G75*
G02*
X11735499Y-14291850I-15000J0D01*
G01*
X11735499Y-14291850D02*
G75*
G02*
X11765499Y-14291850I15000J0D01*
G01*
X11783440Y-12269090D02*
G75*
G02*
X11753440Y-12269090I-15000J0D01*
G01*
X11753440Y-12269090D02*
G75*
G02*
X11783440Y-12269090I15000J0D01*
G01*
X11825070Y-11712970D02*
G75*
G02*
X11795070Y-11712970I-15000J0D01*
G01*
X11795070Y-11712970D02*
G75*
G02*
X11825070Y-11712970I15000J0D01*
G01*
X11826210Y-10338100D02*
G75*
G02*
X11796210Y-10338100I-15000J0D01*
G01*
X11796210Y-10338100D02*
G75*
G02*
X11826210Y-10338100I15000J0D01*
G01*
X11831820Y-10853000D02*
G75*
G02*
X11801820Y-10853000I-15000J0D01*
G01*
X11801820Y-10853000D02*
G75*
G02*
X11831820Y-10853000I15000J0D01*
G01*
X11835000Y-14160000D02*
G75*
G02*
X11805000Y-14160000I-15000J0D01*
G01*
X11805000Y-14160000D02*
G75*
G02*
X11835000Y-14160000I15000J0D01*
G01*
X11854090Y-10782660D02*
G75*
G02*
X11824090Y-10782660I-15000J0D01*
G01*
X11824090Y-10782660D02*
G75*
G02*
X11854090Y-10782660I15000J0D01*
G01*
X11859171Y-10471348D02*
G75*
G02*
X11829171Y-10471348I-15000J0D01*
G01*
X11829171Y-10471348D02*
G75*
G02*
X11859171Y-10471348I15000J0D01*
G01*
X11864226Y-13852110D02*
G75*
G02*
X11834226Y-13852110I-15000J0D01*
G01*
X11834226Y-13852110D02*
G75*
G02*
X11864226Y-13852110I15000J0D01*
G01*
X11864250Y-11948920D02*
G75*
G02*
X11834250Y-11948920I-15000J0D01*
G01*
X11834250Y-11948920D02*
G75*
G02*
X11864250Y-11948920I15000J0D01*
G01*
X11895696Y-14500286D02*
G75*
G02*
X11865696Y-14500286I-15000J0D01*
G01*
X11865696Y-14500286D02*
G75*
G02*
X11895696Y-14500286I15000J0D01*
G01*
X11913910Y-11243880D02*
G75*
G02*
X11883910Y-11243880I-15000J0D01*
G01*
X11883910Y-11243880D02*
G75*
G02*
X11913910Y-11243880I15000J0D01*
G01*
X11921680Y-11776120D02*
G75*
G02*
X11891680Y-11776120I-15000J0D01*
G01*
X11891680Y-11776120D02*
G75*
G02*
X11921680Y-11776120I15000J0D01*
G01*
X11945470Y-14347170D02*
G75*
G02*
X11915470Y-14347170I-15000J0D01*
G01*
X11915470Y-14347170D02*
G75*
G02*
X11945470Y-14347170I15000J0D01*
G01*
X12014630Y-10230115D02*
G75*
G02*
X11984630Y-10230115I-15000J0D01*
G01*
X11984630Y-10230115D02*
G75*
G02*
X12014630Y-10230115I15000J0D01*
G01*
X12015000Y-13800000D02*
G75*
G02*
X11985000Y-13800000I-15000J0D01*
G01*
X11985000Y-13800000D02*
G75*
G02*
X12015000Y-13800000I15000J0D01*
G01*
X12025810Y-11409870D02*
G75*
G02*
X11995810Y-11409870I-15000J0D01*
G01*
X11995810Y-11409870D02*
G75*
G02*
X12025810Y-11409870I15000J0D01*
G01*
X12029441Y-14291850D02*
G75*
G02*
X11999441Y-14291850I-15000J0D01*
G01*
X11999441Y-14291850D02*
G75*
G02*
X12029441Y-14291850I15000J0D01*
G01*
X12035163Y-14425000D02*
G75*
G02*
X12005163Y-14425000I-15000J0D01*
G01*
X12005163Y-14425000D02*
G75*
G02*
X12035163Y-14425000I15000J0D01*
G01*
X12049780Y-13180000D02*
G75*
G02*
X12019780Y-13180000I-15000J0D01*
G01*
X12019780Y-13180000D02*
G75*
G02*
X12049780Y-13180000I15000J0D01*
G01*
X12065770Y-12352340D02*
G75*
G02*
X12035770Y-12352340I-15000J0D01*
G01*
X12035770Y-12352340D02*
G75*
G02*
X12065770Y-12352340I15000J0D01*
G01*
X12080010Y-10762900D02*
G75*
G02*
X12050010Y-10762900I-15000J0D01*
G01*
X12050010Y-10762900D02*
G75*
G02*
X12080010Y-10762900I15000J0D01*
G01*
X12088650Y-12815220D02*
G75*
G02*
X12058650Y-12815220I-15000J0D01*
G01*
X12058650Y-12815220D02*
G75*
G02*
X12088650Y-12815220I15000J0D01*
G01*
X12096240Y-14101140D02*
G75*
G02*
X12066240Y-14101140I-15000J0D01*
G01*
X12066240Y-14101140D02*
G75*
G02*
X12096240Y-14101140I15000J0D01*
G01*
X12102180Y-10495190D02*
G75*
G02*
X12072180Y-10495190I-15000J0D01*
G01*
X12072180Y-10495190D02*
G75*
G02*
X12102180Y-10495190I15000J0D01*
G01*
X12146050Y-10428580D02*
G75*
G02*
X12116050Y-10428580I-15000J0D01*
G01*
X12116050Y-10428580D02*
G75*
G02*
X12146050Y-10428580I15000J0D01*
G01*
X12149430Y-12723660D02*
G75*
G02*
X12119430Y-12723660I-15000J0D01*
G01*
X12119430Y-12723660D02*
G75*
G02*
X12149430Y-12723660I15000J0D01*
G01*
X12149590Y-13457012D02*
G75*
G02*
X12119590Y-13457012I-15000J0D01*
G01*
X12119590Y-13457012D02*
G75*
G02*
X12149590Y-13457012I15000J0D01*
G01*
X12211223Y-14451339D02*
G75*
G02*
X12181223Y-14451339I-15000J0D01*
G01*
X12181223Y-14451339D02*
G75*
G02*
X12211223Y-14451339I15000J0D01*
G01*
X12212930Y-11796610D02*
G75*
G02*
X12182930Y-11796610I-15000J0D01*
G01*
X12182930Y-11796610D02*
G75*
G02*
X12212930Y-11796610I15000J0D01*
G01*
X12215560Y-13073220D02*
G75*
G02*
X12185560Y-13073220I-15000J0D01*
G01*
X12185560Y-13073220D02*
G75*
G02*
X12215560Y-13073220I15000J0D01*
G01*
X12256101Y-10280449D02*
G75*
G02*
X12226101Y-10280449I-15000J0D01*
G01*
X12226101Y-10280449D02*
G75*
G02*
X12256101Y-10280449I15000J0D01*
G01*
X12263180Y-10810600D02*
G75*
G02*
X12233180Y-10810600I-15000J0D01*
G01*
X12233180Y-10810600D02*
G75*
G02*
X12263180Y-10810600I15000J0D01*
G01*
X12286875Y-12821875D02*
G75*
G02*
X12256875Y-12821875I-15000J0D01*
G01*
X12256875Y-12821875D02*
G75*
G02*
X12286875Y-12821875I15000J0D01*
G01*
X12290874Y-14308013D02*
G75*
G02*
X12260874Y-14308013I-15000J0D01*
G01*
X12260874Y-14308013D02*
G75*
G02*
X12290874Y-14308013I15000J0D01*
G01*
X12297800Y-11977270D02*
G75*
G02*
X12267800Y-11977270I-15000J0D01*
G01*
X12267800Y-11977270D02*
G75*
G02*
X12297800Y-11977270I15000J0D01*
G01*
X12339690Y-11737040D02*
G75*
G02*
X12309690Y-11737040I-15000J0D01*
G01*
X12309690Y-11737040D02*
G75*
G02*
X12339690Y-11737040I15000J0D01*
G01*
X12362610Y-10728620D02*
G75*
G02*
X12332610Y-10728620I-15000J0D01*
G01*
X12332610Y-10728620D02*
G75*
G02*
X12362610Y-10728620I15000J0D01*
G01*
X12375000Y-13260000D02*
G75*
G02*
X12345000Y-13260000I-15000J0D01*
G01*
X12345000Y-13260000D02*
G75*
G02*
X12375000Y-13260000I15000J0D01*
G01*
X12375000Y-13980000D02*
G75*
G02*
X12345000Y-13980000I-15000J0D01*
G01*
X12345000Y-13980000D02*
G75*
G02*
X12375000Y-13980000I15000J0D01*
G01*
X12398080Y-11521310D02*
G75*
G02*
X12368080Y-11521310I-15000J0D01*
G01*
X12368080Y-11521310D02*
G75*
G02*
X12398080Y-11521310I15000J0D01*
G01*
X12404340Y-12634070D02*
G75*
G02*
X12374340Y-12634070I-15000J0D01*
G01*
X12374340Y-12634070D02*
G75*
G02*
X12404340Y-12634070I15000J0D01*
G01*
X12417280Y-12036730D02*
G75*
G02*
X12387280Y-12036730I-15000J0D01*
G01*
X12387280Y-12036730D02*
G75*
G02*
X12417280Y-12036730I15000J0D01*
G01*
X12426150Y-13378720D02*
G75*
G02*
X12396150Y-13378720I-15000J0D01*
G01*
X12396150Y-13378720D02*
G75*
G02*
X12426150Y-13378720I15000J0D01*
G01*
X12450310Y-11576550D02*
G75*
G02*
X12420310Y-11576550I-15000J0D01*
G01*
X12420310Y-11576550D02*
G75*
G02*
X12450310Y-11576550I15000J0D01*
G01*
X12453239Y-10163500D02*
G75*
G02*
X12423239Y-10163500I-15000J0D01*
G01*
X12423239Y-10163500D02*
G75*
G02*
X12453239Y-10163500I15000J0D01*
G01*
X12467150Y-10764540D02*
G75*
G02*
X12437150Y-10764540I-15000J0D01*
G01*
X12437150Y-10764540D02*
G75*
G02*
X12467150Y-10764540I15000J0D01*
G01*
X12480910Y-11442390D02*
G75*
G02*
X12450910Y-11442390I-15000J0D01*
G01*
X12450910Y-11442390D02*
G75*
G02*
X12480910Y-11442390I15000J0D01*
G01*
X12486310Y-12200720D02*
G75*
G02*
X12456310Y-12200720I-15000J0D01*
G01*
X12456310Y-12200720D02*
G75*
G02*
X12486310Y-12200720I15000J0D01*
G01*
X12502820Y-14185114D02*
G75*
G02*
X12472820Y-14185114I-15000J0D01*
G01*
X12472820Y-14185114D02*
G75*
G02*
X12502820Y-14185114I15000J0D01*
G01*
X12517600Y-14366490D02*
G75*
G02*
X12487600Y-14366490I-15000J0D01*
G01*
X12487600Y-14366490D02*
G75*
G02*
X12517600Y-14366490I15000J0D01*
G01*
X12518500Y-12429019D02*
G75*
G02*
X12488500Y-12429019I-15000J0D01*
G01*
X12488500Y-12429019D02*
G75*
G02*
X12518500Y-12429019I15000J0D01*
G01*
X12535200Y-10925800D02*
G75*
G02*
X12505200Y-10925800I-15000J0D01*
G01*
X12505200Y-10925800D02*
G75*
G02*
X12535200Y-10925800I15000J0D01*
G01*
X12537490Y-10763620D02*
G75*
G02*
X12507490Y-10763620I-15000J0D01*
G01*
X12507490Y-10763620D02*
G75*
G02*
X12537490Y-10763620I15000J0D01*
G01*
X12549260Y-12782800D02*
G75*
G02*
X12519260Y-12782800I-15000J0D01*
G01*
X12519260Y-12782800D02*
G75*
G02*
X12549260Y-12782800I15000J0D01*
G01*
X12555000Y-10200000D02*
G75*
G02*
X12525000Y-10200000I-15000J0D01*
G01*
X12525000Y-10200000D02*
G75*
G02*
X12555000Y-10200000I15000J0D01*
G01*
X12555000Y-10380000D02*
G75*
G02*
X12525000Y-10380000I-15000J0D01*
G01*
X12525000Y-10380000D02*
G75*
G02*
X12555000Y-10380000I15000J0D01*
G01*
X12555000Y-13800000D02*
G75*
G02*
X12525000Y-13800000I-15000J0D01*
G01*
X12525000Y-13800000D02*
G75*
G02*
X12555000Y-13800000I15000J0D01*
G01*
X12555000Y-13980000D02*
G75*
G02*
X12525000Y-13980000I-15000J0D01*
G01*
X12525000Y-13980000D02*
G75*
G02*
X12555000Y-13980000I15000J0D01*
G01*
X12567370Y-12625390D02*
G75*
G02*
X12537370Y-12625390I-15000J0D01*
G01*
X12537370Y-12625390D02*
G75*
G02*
X12567370Y-12625390I15000J0D01*
G01*
X12586875Y-14378125D02*
G75*
G02*
X12556875Y-14378125I-15000J0D01*
G01*
X12556875Y-14378125D02*
G75*
G02*
X12586875Y-14378125I15000J0D01*
G01*
X12620550Y-13040750D02*
G75*
G02*
X12590550Y-13040750I-15000J0D01*
G01*
X12590550Y-13040750D02*
G75*
G02*
X12620550Y-13040750I15000J0D01*
G01*
X12728370Y-11180340D02*
G75*
G02*
X12698370Y-11180340I-15000J0D01*
G01*
X12698370Y-11180340D02*
G75*
G02*
X12728370Y-11180340I15000J0D01*
G01*
X12729060Y-11556340D02*
G75*
G02*
X12699060Y-11556340I-15000J0D01*
G01*
X12699060Y-11556340D02*
G75*
G02*
X12729060Y-11556340I15000J0D01*
G01*
X12735000Y-10380000D02*
G75*
G02*
X12705000Y-10380000I-15000J0D01*
G01*
X12705000Y-10380000D02*
G75*
G02*
X12735000Y-10380000I15000J0D01*
G01*
X12735000Y-13260000D02*
G75*
G02*
X12705000Y-13260000I-15000J0D01*
G01*
X12705000Y-13260000D02*
G75*
G02*
X12735000Y-13260000I15000J0D01*
G01*
X12735000Y-13800000D02*
G75*
G02*
X12705000Y-13800000I-15000J0D01*
G01*
X12705000Y-13800000D02*
G75*
G02*
X12735000Y-13800000I15000J0D01*
G01*
X12735000Y-14160000D02*
G75*
G02*
X12705000Y-14160000I-15000J0D01*
G01*
X12705000Y-14160000D02*
G75*
G02*
X12735000Y-14160000I15000J0D01*
G01*
X12761226Y-13445000D02*
G75*
G02*
X12731226Y-13445000I-15000J0D01*
G01*
X12731226Y-13445000D02*
G75*
G02*
X12761226Y-13445000I15000J0D01*
G01*
X12767670Y-12026850D02*
G75*
G02*
X12737670Y-12026850I-15000J0D01*
G01*
X12737670Y-12026850D02*
G75*
G02*
X12767670Y-12026850I15000J0D01*
G01*
X12769943Y-14375110D02*
G75*
G02*
X12739943Y-14375110I-15000J0D01*
G01*
X12739943Y-14375110D02*
G75*
G02*
X12769943Y-14375110I15000J0D01*
G01*
X12774990Y-12327740D02*
G75*
G02*
X12744990Y-12327740I-15000J0D01*
G01*
X12744990Y-12327740D02*
G75*
G02*
X12774990Y-12327740I15000J0D01*
G01*
X12794360Y-11790820D02*
G75*
G02*
X12764360Y-11790820I-15000J0D01*
G01*
X12764360Y-11790820D02*
G75*
G02*
X12794360Y-11790820I15000J0D01*
G01*
X12795450Y-11255030D02*
G75*
G02*
X12765450Y-11255030I-15000J0D01*
G01*
X12765450Y-11255030D02*
G75*
G02*
X12795450Y-11255030I15000J0D01*
G01*
X12841200Y-13025450D02*
G75*
G02*
X12811200Y-13025450I-15000J0D01*
G01*
X12811200Y-13025450D02*
G75*
G02*
X12841200Y-13025450I15000J0D01*
G01*
X12844390Y-11564539D02*
G75*
G02*
X12814390Y-11564539I-15000J0D01*
G01*
X12814390Y-11564539D02*
G75*
G02*
X12844390Y-11564539I15000J0D01*
G01*
X12856772Y-13345727D02*
G75*
G02*
X12826772Y-13345727I-15000J0D01*
G01*
X12826772Y-13345727D02*
G75*
G02*
X12856772Y-13345727I15000J0D01*
G01*
X12859000Y-13909080D02*
G75*
G02*
X12829000Y-13909080I-15000J0D01*
G01*
X12829000Y-13909080D02*
G75*
G02*
X12859000Y-13909080I15000J0D01*
G01*
X12915000Y-10380000D02*
G75*
G02*
X12885000Y-10380000I-15000J0D01*
G01*
X12885000Y-10380000D02*
G75*
G02*
X12915000Y-10380000I15000J0D01*
G01*
X12915000Y-10560000D02*
G75*
G02*
X12885000Y-10560000I-15000J0D01*
G01*
X12885000Y-10560000D02*
G75*
G02*
X12915000Y-10560000I15000J0D01*
G01*
X12922240Y-13846400D02*
G75*
G02*
X12892240Y-13846400I-15000J0D01*
G01*
X12892240Y-13846400D02*
G75*
G02*
X12922240Y-13846400I15000J0D01*
G01*
X12955130Y-11559100D02*
G75*
G02*
X12925130Y-11559100I-15000J0D01*
G01*
X12925130Y-11559100D02*
G75*
G02*
X12955130Y-11559100I15000J0D01*
G01*
X13009649Y-13763828D02*
G75*
G02*
X12979649Y-13763828I-15000J0D01*
G01*
X12979649Y-13763828D02*
G75*
G02*
X13009649Y-13763828I15000J0D01*
G01*
X13076624Y-14368901D02*
G75*
G02*
X13046624Y-14368901I-15000J0D01*
G01*
X13046624Y-14368901D02*
G75*
G02*
X13076624Y-14368901I15000J0D01*
G01*
X13079830Y-12796329D02*
G75*
G02*
X13049830Y-12796329I-15000J0D01*
G01*
X13049830Y-12796329D02*
G75*
G02*
X13079830Y-12796329I15000J0D01*
G01*
X13095000Y-13440000D02*
G75*
G02*
X13065000Y-13440000I-15000J0D01*
G01*
X13065000Y-13440000D02*
G75*
G02*
X13095000Y-13440000I15000J0D01*
G01*
X13095000Y-13620000D02*
G75*
G02*
X13065000Y-13620000I-15000J0D01*
G01*
X13065000Y-13620000D02*
G75*
G02*
X13095000Y-13620000I15000J0D01*
G01*
X13095000Y-13800000D02*
G75*
G02*
X13065000Y-13800000I-15000J0D01*
G01*
X13065000Y-13800000D02*
G75*
G02*
X13095000Y-13800000I15000J0D01*
G01*
X13110971Y-12331039D02*
G75*
G02*
X13080971Y-12331039I-15000J0D01*
G01*
X13080971Y-12331039D02*
G75*
G02*
X13110971Y-12331039I15000J0D01*
G01*
X13111226Y-13545000D02*
G75*
G02*
X13081226Y-13545000I-15000J0D01*
G01*
X13081226Y-13545000D02*
G75*
G02*
X13111226Y-13545000I15000J0D01*
G01*
X13125870Y-13179890D02*
G75*
G02*
X13095870Y-13179890I-15000J0D01*
G01*
X13095870Y-13179890D02*
G75*
G02*
X13125870Y-13179890I15000J0D01*
G01*
X13172778Y-13976110D02*
G75*
G02*
X13142778Y-13976110I-15000J0D01*
G01*
X13142778Y-13976110D02*
G75*
G02*
X13172778Y-13976110I15000J0D01*
G01*
X13195040Y-14195770D02*
G75*
G02*
X13165040Y-14195770I-15000J0D01*
G01*
X13165040Y-14195770D02*
G75*
G02*
X13195040Y-14195770I15000J0D01*
G01*
X13211875Y-12759375D02*
G75*
G02*
X13181875Y-12759375I-15000J0D01*
G01*
X13181875Y-12759375D02*
G75*
G02*
X13211875Y-12759375I15000J0D01*
G01*
X13212290Y-11860560D02*
G75*
G02*
X13182290Y-11860560I-15000J0D01*
G01*
X13182290Y-11860560D02*
G75*
G02*
X13212290Y-11860560I15000J0D01*
G01*
X13215130Y-11325610D02*
G75*
G02*
X13185130Y-11325610I-15000J0D01*
G01*
X13185130Y-11325610D02*
G75*
G02*
X13215130Y-11325610I15000J0D01*
G01*
X13229546Y-10197500D02*
G75*
G02*
X13199546Y-10197500I-15000J0D01*
G01*
X13199546Y-10197500D02*
G75*
G02*
X13229546Y-10197500I15000J0D01*
G01*
X13229546Y-10492500D02*
G75*
G02*
X13199546Y-10492500I-15000J0D01*
G01*
X13199546Y-10492500D02*
G75*
G02*
X13229546Y-10492500I15000J0D01*
G01*
X13239460Y-10795000D02*
G75*
G02*
X13209460Y-10795000I-15000J0D01*
G01*
X13209460Y-10795000D02*
G75*
G02*
X13239460Y-10795000I15000J0D01*
G01*
X13243296Y-13053332D02*
G75*
G02*
X13213296Y-13053332I-15000J0D01*
G01*
X13213296Y-13053332D02*
G75*
G02*
X13243296Y-13053332I15000J0D01*
G01*
X13275000Y-13440000D02*
G75*
G02*
X13245000Y-13440000I-15000J0D01*
G01*
X13245000Y-13440000D02*
G75*
G02*
X13275000Y-13440000I15000J0D01*
G01*
X13275000Y-13620000D02*
G75*
G02*
X13245000Y-13620000I-15000J0D01*
G01*
X13245000Y-13620000D02*
G75*
G02*
X13275000Y-13620000I15000J0D01*
G01*
X13275000Y-13800000D02*
G75*
G02*
X13245000Y-13800000I-15000J0D01*
G01*
X13245000Y-13800000D02*
G75*
G02*
X13275000Y-13800000I15000J0D01*
G01*
X13277050Y-11895280D02*
G75*
G02*
X13247050Y-11895280I-15000J0D01*
G01*
X13247050Y-11895280D02*
G75*
G02*
X13277050Y-11895280I15000J0D01*
G01*
X13281430Y-12372110D02*
G75*
G02*
X13251430Y-12372110I-15000J0D01*
G01*
X13251430Y-12372110D02*
G75*
G02*
X13281430Y-12372110I15000J0D01*
G01*
X13287650Y-10417650D02*
G75*
G02*
X13257650Y-10417650I-15000J0D01*
G01*
X13257650Y-10417650D02*
G75*
G02*
X13287650Y-10417650I15000J0D01*
G01*
X13298840Y-12090210D02*
G75*
G02*
X13268840Y-12090210I-15000J0D01*
G01*
X13268840Y-12090210D02*
G75*
G02*
X13298840Y-12090210I15000J0D01*
G01*
X13298940Y-14214070D02*
G75*
G02*
X13268940Y-14214070I-15000J0D01*
G01*
X13268940Y-14214070D02*
G75*
G02*
X13298940Y-14214070I15000J0D01*
G01*
X13311450Y-11581610D02*
G75*
G02*
X13281450Y-11581610I-15000J0D01*
G01*
X13281450Y-11581610D02*
G75*
G02*
X13311450Y-11581610I15000J0D01*
G01*
X13317891Y-11326495D02*
G75*
G02*
X13287891Y-11326495I-15000J0D01*
G01*
X13287891Y-11326495D02*
G75*
G02*
X13317891Y-11326495I15000J0D01*
G01*
X13319060Y-12765600D02*
G75*
G02*
X13289060Y-12765600I-15000J0D01*
G01*
X13289060Y-12765600D02*
G75*
G02*
X13319060Y-12765600I15000J0D01*
G01*
X13355000Y-10755971D02*
G75*
G02*
X13325000Y-10755971I-15000J0D01*
G01*
X13325000Y-10755971D02*
G75*
G02*
X13355000Y-10755971I15000J0D01*
G01*
X13363081Y-10648745D02*
G75*
G02*
X13333081Y-10648745I-15000J0D01*
G01*
X13333081Y-10648745D02*
G75*
G02*
X13363081Y-10648745I15000J0D01*
G01*
X13409966Y-12214786D02*
G75*
G02*
X13379966Y-12214786I-15000J0D01*
G01*
X13379966Y-12214786D02*
G75*
G02*
X13409966Y-12214786I15000J0D01*
G01*
X13410320Y-10470900D02*
G75*
G02*
X13380320Y-10470900I-15000J0D01*
G01*
X13380320Y-10470900D02*
G75*
G02*
X13410320Y-10470900I15000J0D01*
G01*
X13425510Y-13018790D02*
G75*
G02*
X13395510Y-13018790I-15000J0D01*
G01*
X13395510Y-13018790D02*
G75*
G02*
X13425510Y-13018790I15000J0D01*
G01*
X13434029Y-10983000D02*
G75*
G02*
X13404029Y-10983000I-15000J0D01*
G01*
X13404029Y-10983000D02*
G75*
G02*
X13434029Y-10983000I15000J0D01*
G01*
X13439605Y-11493490D02*
G75*
G02*
X13409605Y-11493490I-15000J0D01*
G01*
X13409605Y-11493490D02*
G75*
G02*
X13439605Y-11493490I15000J0D01*
G01*
X13449029Y-12577094D02*
G75*
G02*
X13419029Y-12577094I-15000J0D01*
G01*
X13419029Y-12577094D02*
G75*
G02*
X13449029Y-12577094I15000J0D01*
G01*
X13455000Y-10200000D02*
G75*
G02*
X13425000Y-10200000I-15000J0D01*
G01*
X13425000Y-10200000D02*
G75*
G02*
X13455000Y-10200000I15000J0D01*
G01*
X13455000Y-10560000D02*
G75*
G02*
X13425000Y-10560000I-15000J0D01*
G01*
X13425000Y-10560000D02*
G75*
G02*
X13455000Y-10560000I15000J0D01*
G01*
X13455000Y-10740000D02*
G75*
G02*
X13425000Y-10740000I-15000J0D01*
G01*
X13425000Y-10740000D02*
G75*
G02*
X13455000Y-10740000I15000J0D01*
G01*
X13455000Y-11280000D02*
G75*
G02*
X13425000Y-11280000I-15000J0D01*
G01*
X13425000Y-11280000D02*
G75*
G02*
X13455000Y-11280000I15000J0D01*
G01*
X13455000Y-13440000D02*
G75*
G02*
X13425000Y-13440000I-15000J0D01*
G01*
X13425000Y-13440000D02*
G75*
G02*
X13455000Y-13440000I15000J0D01*
G01*
X13455000Y-13620000D02*
G75*
G02*
X13425000Y-13620000I-15000J0D01*
G01*
X13425000Y-13620000D02*
G75*
G02*
X13455000Y-13620000I15000J0D01*
G01*
X13474375Y-11909375D02*
G75*
G02*
X13444375Y-11909375I-15000J0D01*
G01*
X13444375Y-11909375D02*
G75*
G02*
X13474375Y-11909375I15000J0D01*
G01*
X13485613Y-13875965D02*
G75*
G02*
X13455613Y-13875965I-15000J0D01*
G01*
X13455613Y-13875965D02*
G75*
G02*
X13485613Y-13875965I15000J0D01*
G01*
X13497300Y-12766180D02*
G75*
G02*
X13467300Y-12766180I-15000J0D01*
G01*
X13467300Y-12766180D02*
G75*
G02*
X13497300Y-12766180I15000J0D01*
G01*
X13499090Y-12633620D02*
G75*
G02*
X13469090Y-12633620I-15000J0D01*
G01*
X13469090Y-12633620D02*
G75*
G02*
X13499090Y-12633620I15000J0D01*
G01*
X13506243Y-14048771D02*
G75*
G02*
X13476243Y-14048771I-15000J0D01*
G01*
X13476243Y-14048771D02*
G75*
G02*
X13506243Y-14048771I15000J0D01*
G01*
X13511690Y-12344050D02*
G75*
G02*
X13481690Y-12344050I-15000J0D01*
G01*
X13481690Y-12344050D02*
G75*
G02*
X13511690Y-12344050I15000J0D01*
G01*
X13539590Y-13708180D02*
G75*
G02*
X13509590Y-13708180I-15000J0D01*
G01*
X13509590Y-13708180D02*
G75*
G02*
X13539590Y-13708180I15000J0D01*
G01*
X13557050Y-11016690D02*
G75*
G02*
X13527050Y-11016690I-15000J0D01*
G01*
X13527050Y-11016690D02*
G75*
G02*
X13557050Y-11016690I15000J0D01*
G01*
X13582680Y-12616840D02*
G75*
G02*
X13552680Y-12616840I-15000J0D01*
G01*
X13552680Y-12616840D02*
G75*
G02*
X13582680Y-12616840I15000J0D01*
G01*
X13601120Y-11602450D02*
G75*
G02*
X13571120Y-11602450I-15000J0D01*
G01*
X13571120Y-11602450D02*
G75*
G02*
X13601120Y-11602450I15000J0D01*
G01*
X13635000Y-10200000D02*
G75*
G02*
X13605000Y-10200000I-15000J0D01*
G01*
X13605000Y-10200000D02*
G75*
G02*
X13635000Y-10200000I15000J0D01*
G01*
X13635000Y-13440000D02*
G75*
G02*
X13605000Y-13440000I-15000J0D01*
G01*
X13605000Y-13440000D02*
G75*
G02*
X13635000Y-13440000I15000J0D01*
G01*
X13635000Y-14340000D02*
G75*
G02*
X13605000Y-14340000I-15000J0D01*
G01*
X13605000Y-14340000D02*
G75*
G02*
X13635000Y-14340000I15000J0D01*
G01*
X13650179Y-10413500D02*
G75*
G02*
X13620179Y-10413500I-15000J0D01*
G01*
X13620179Y-10413500D02*
G75*
G02*
X13650179Y-10413500I15000J0D01*
G01*
X13662471Y-11097721D02*
G75*
G02*
X13632471Y-11097721I-15000J0D01*
G01*
X13632471Y-11097721D02*
G75*
G02*
X13662471Y-11097721I15000J0D01*
G01*
X13677782Y-12545341D02*
G75*
G02*
X13647782Y-12545341I-15000J0D01*
G01*
X13647782Y-12545341D02*
G75*
G02*
X13677782Y-12545341I15000J0D01*
G01*
X13725740Y-10346020D02*
G75*
G02*
X13695740Y-10346020I-15000J0D01*
G01*
X13695740Y-10346020D02*
G75*
G02*
X13725740Y-10346020I15000J0D01*
G01*
X13736020Y-13046910D02*
G75*
G02*
X13706020Y-13046910I-15000J0D01*
G01*
X13706020Y-13046910D02*
G75*
G02*
X13736020Y-13046910I15000J0D01*
G01*
X13815000Y-10200000D02*
G75*
G02*
X13785000Y-10200000I-15000J0D01*
G01*
X13785000Y-10200000D02*
G75*
G02*
X13815000Y-10200000I15000J0D01*
G01*
X13815000Y-13440000D02*
G75*
G02*
X13785000Y-13440000I-15000J0D01*
G01*
X13785000Y-13440000D02*
G75*
G02*
X13815000Y-13440000I15000J0D01*
G01*
X13815000Y-14340000D02*
G75*
G02*
X13785000Y-14340000I-15000J0D01*
G01*
X13785000Y-14340000D02*
G75*
G02*
X13815000Y-14340000I15000J0D01*
G01*
X13826120Y-12589705D02*
G75*
G02*
X13796120Y-12589705I-15000J0D01*
G01*
X13796120Y-12589705D02*
G75*
G02*
X13826120Y-12589705I15000J0D01*
G01*
X13827945Y-12487292D02*
G75*
G02*
X13797945Y-12487292I-15000J0D01*
G01*
X13797945Y-12487292D02*
G75*
G02*
X13827945Y-12487292I15000J0D01*
G01*
X13830070Y-12373210D02*
G75*
G02*
X13800070Y-12373210I-15000J0D01*
G01*
X13800070Y-12373210D02*
G75*
G02*
X13830070Y-12373210I15000J0D01*
G01*
X13832330Y-11273860D02*
G75*
G02*
X13802330Y-11273860I-15000J0D01*
G01*
X13802330Y-11273860D02*
G75*
G02*
X13832330Y-11273860I15000J0D01*
G01*
X13862915Y-12687507D02*
G75*
G02*
X13832915Y-12687507I-15000J0D01*
G01*
X13832915Y-12687507D02*
G75*
G02*
X13862915Y-12687507I15000J0D01*
G01*
X13868230Y-13114660D02*
G75*
G02*
X13838230Y-13114660I-15000J0D01*
G01*
X13838230Y-13114660D02*
G75*
G02*
X13868230Y-13114660I15000J0D01*
G01*
X13935922Y-12689048D02*
G75*
G02*
X13905922Y-12689048I-15000J0D01*
G01*
X13905922Y-12689048D02*
G75*
G02*
X13935922Y-12689048I15000J0D01*
G01*
X13973020Y-12312840D02*
G75*
G02*
X13943020Y-12312840I-15000J0D01*
G01*
X13943020Y-12312840D02*
G75*
G02*
X13973020Y-12312840I15000J0D01*
G01*
X13986940Y-10320000D02*
G75*
G02*
X13956940Y-10320000I-15000J0D01*
G01*
X13956940Y-10320000D02*
G75*
G02*
X13986940Y-10320000I15000J0D01*
G01*
X13995000Y-10200000D02*
G75*
G02*
X13965000Y-10200000I-15000J0D01*
G01*
X13965000Y-10200000D02*
G75*
G02*
X13995000Y-10200000I15000J0D01*
G01*
X13995000Y-10560000D02*
G75*
G02*
X13965000Y-10560000I-15000J0D01*
G01*
X13965000Y-10560000D02*
G75*
G02*
X13995000Y-10560000I15000J0D01*
G01*
X13995000Y-14340000D02*
G75*
G02*
X13965000Y-14340000I-15000J0D01*
G01*
X13965000Y-14340000D02*
G75*
G02*
X13995000Y-14340000I15000J0D01*
G01*
X14013909Y-12756950D02*
G75*
G02*
X13983909Y-12756950I-15000J0D01*
G01*
X13983909Y-12756950D02*
G75*
G02*
X14013909Y-12756950I15000J0D01*
G01*
X14044975Y-11688000D02*
G75*
G02*
X14014975Y-11688000I-15000J0D01*
G01*
X14014975Y-11688000D02*
G75*
G02*
X14044975Y-11688000I15000J0D01*
G01*
X14071540Y-12693021D02*
G75*
G02*
X14041540Y-12693021I-15000J0D01*
G01*
X14041540Y-12693021D02*
G75*
G02*
X14071540Y-12693021I15000J0D01*
G01*
X14110000Y-14160720D02*
G75*
G02*
X14080000Y-14160720I-15000J0D01*
G01*
X14080000Y-14160720D02*
G75*
G02*
X14110000Y-14160720I15000J0D01*
G01*
X14111142Y-13275235D02*
G75*
G02*
X14081142Y-13275235I-15000J0D01*
G01*
X14081142Y-13275235D02*
G75*
G02*
X14111142Y-13275235I15000J0D01*
G01*
X14115462Y-12942013D02*
G75*
G02*
X14085462Y-12942013I-15000J0D01*
G01*
X14085462Y-12942013D02*
G75*
G02*
X14115462Y-12942013I15000J0D01*
G01*
X14168125Y-11659375D02*
G75*
G02*
X14138125Y-11659375I-15000J0D01*
G01*
X14138125Y-11659375D02*
G75*
G02*
X14168125Y-11659375I15000J0D01*
G01*
X14174617Y-13212000D02*
G75*
G02*
X14144617Y-13212000I-15000J0D01*
G01*
X14144617Y-13212000D02*
G75*
G02*
X14174617Y-13212000I15000J0D01*
G01*
X14175000Y-10200000D02*
G75*
G02*
X14145000Y-10200000I-15000J0D01*
G01*
X14145000Y-10200000D02*
G75*
G02*
X14175000Y-10200000I15000J0D01*
G01*
X14175000Y-10380000D02*
G75*
G02*
X14145000Y-10380000I-15000J0D01*
G01*
X14145000Y-10380000D02*
G75*
G02*
X14175000Y-10380000I15000J0D01*
G01*
X14175000Y-10560000D02*
G75*
G02*
X14145000Y-10560000I-15000J0D01*
G01*
X14145000Y-10560000D02*
G75*
G02*
X14175000Y-10560000I15000J0D01*
G01*
X14175000Y-10740000D02*
G75*
G02*
X14145000Y-10740000I-15000J0D01*
G01*
X14145000Y-10740000D02*
G75*
G02*
X14175000Y-10740000I15000J0D01*
G01*
X14175000Y-11460000D02*
G75*
G02*
X14145000Y-11460000I-15000J0D01*
G01*
X14145000Y-11460000D02*
G75*
G02*
X14175000Y-11460000I15000J0D01*
G01*
X14175000Y-12000000D02*
G75*
G02*
X14145000Y-12000000I-15000J0D01*
G01*
X14145000Y-12000000D02*
G75*
G02*
X14175000Y-12000000I15000J0D01*
G01*
X14175000Y-12720000D02*
G75*
G02*
X14145000Y-12720000I-15000J0D01*
G01*
X14145000Y-12720000D02*
G75*
G02*
X14175000Y-12720000I15000J0D01*
G01*
X14175000Y-12900000D02*
G75*
G02*
X14145000Y-12900000I-15000J0D01*
G01*
X14145000Y-12900000D02*
G75*
G02*
X14175000Y-12900000I15000J0D01*
G01*
X14175000Y-13080000D02*
G75*
G02*
X14145000Y-13080000I-15000J0D01*
G01*
X14145000Y-13080000D02*
G75*
G02*
X14175000Y-13080000I15000J0D01*
G01*
X14175000Y-13440000D02*
G75*
G02*
X14145000Y-13440000I-15000J0D01*
G01*
X14145000Y-13440000D02*
G75*
G02*
X14175000Y-13440000I15000J0D01*
G01*
X14175000Y-13800000D02*
G75*
G02*
X14145000Y-13800000I-15000J0D01*
G01*
X14145000Y-13800000D02*
G75*
G02*
X14175000Y-13800000I15000J0D01*
G01*
X14175000Y-14340000D02*
G75*
G02*
X14145000Y-14340000I-15000J0D01*
G01*
X14145000Y-14340000D02*
G75*
G02*
X14175000Y-14340000I15000J0D01*
G01*
X14202039Y-11270260D02*
G75*
G02*
X14172039Y-11270260I-15000J0D01*
G01*
X14172039Y-11270260D02*
G75*
G02*
X14202039Y-11270260I15000J0D01*
G01*
X14202180Y-10968420D02*
G75*
G02*
X14172180Y-10968420I-15000J0D01*
G01*
X14172180Y-10968420D02*
G75*
G02*
X14202180Y-10968420I15000J0D01*
G01*
X14211226Y-13545000D02*
G75*
G02*
X14181226Y-13545000I-15000J0D01*
G01*
X14181226Y-13545000D02*
G75*
G02*
X14211226Y-13545000I15000J0D01*
G01*
X14367358Y-11621540D02*
G75*
G02*
X14337358Y-11621540I-15000J0D01*
G01*
X14337358Y-11621540D02*
G75*
G02*
X14367358Y-11621540I15000J0D01*
G01*
X14414435Y-12960092D02*
G75*
G02*
X14384435Y-12960092I-15000J0D01*
G01*
X14384435Y-12960092D02*
G75*
G02*
X14414435Y-12960092I15000J0D01*
G01*
X14414486Y-13520112D02*
G75*
G02*
X14384486Y-13520112I-15000J0D01*
G01*
X14384486Y-13520112D02*
G75*
G02*
X14414486Y-13520112I15000J0D01*
G01*
X14416240Y-11513981D02*
G75*
G02*
X14386240Y-11513981I-15000J0D01*
G01*
X14386240Y-11513981D02*
G75*
G02*
X14416240Y-11513981I15000J0D01*
G01*
X14416240Y-11683971D02*
G75*
G02*
X14386240Y-11683971I-15000J0D01*
G01*
X14386240Y-11683971D02*
G75*
G02*
X14416240Y-11683971I15000J0D01*
G01*
X14416240Y-12033981D02*
G75*
G02*
X14386240Y-12033981I-15000J0D01*
G01*
X14386240Y-12033981D02*
G75*
G02*
X14416240Y-12033981I15000J0D01*
G01*
X14426701Y-12331184D02*
G75*
G02*
X14396701Y-12331184I-15000J0D01*
G01*
X14396701Y-12331184D02*
G75*
G02*
X14426701Y-12331184I15000J0D01*
G01*
X14427101Y-11056105D02*
G75*
G02*
X14397101Y-11056105I-15000J0D01*
G01*
X14397101Y-11056105D02*
G75*
G02*
X14427101Y-11056105I15000J0D01*
G01*
X14432884Y-11386599D02*
G75*
G02*
X14402884Y-11386599I-15000J0D01*
G01*
X14402884Y-11386599D02*
G75*
G02*
X14432884Y-11386599I15000J0D01*
G01*
X11817501Y-10114997D02*
X11817501Y-10174997D01*
X11787501Y-10144997D02*
X11847501Y-10144997D01*
X11847501Y-10174997D02*
X11847501Y-10114997D01*
X11787501Y-10114997D02*
G75*
G02*
X11847501Y-10114997I30000J0D01*
G01*
X11787501Y-10114997D02*
X11787501Y-10174997D01*
X11787501Y-10174997D02*
G75*
G03*
X11847501Y-10174997I30000J0D01*
G01*
X11817501Y-10535012D02*
X11817501Y-10595012D01*
X11787501Y-10565012D02*
X11847501Y-10565012D01*
X11847501Y-10610013D02*
X11847501Y-10520011D01*
X11787501Y-10520011D02*
G75*
G02*
X11847501Y-10520011I30000J0D01*
G01*
X11787501Y-10520011D02*
X11787501Y-10610013D01*
X11787501Y-10610013D02*
G75*
G03*
X11847501Y-10610013I30000J0D01*
G01*
X12682499Y-10114997D02*
X12682499Y-10174997D01*
X12652499Y-10144997D02*
X12712499Y-10144997D01*
X12712499Y-10174997D02*
X12712499Y-10114997D01*
X12652499Y-10114997D02*
G75*
G02*
X12712499Y-10114997I30000J0D01*
G01*
X12652499Y-10114997D02*
X12652499Y-10174997D01*
X12652499Y-10174997D02*
G75*
G03*
X12712499Y-10174997I30000J0D01*
G01*
X12682499Y-10535012D02*
X12682499Y-10595012D01*
X12652499Y-10565012D02*
X12712499Y-10565012D01*
X12712499Y-10610012D02*
X12712499Y-10520012D01*
X12652499Y-10520012D02*
G75*
G02*
X12712499Y-10520012I30000J0D01*
G01*
X12652499Y-10520012D02*
X12652499Y-10610012D01*
X12652499Y-10610012D02*
G75*
G03*
X12712499Y-10610012I30000J0D01*
G01*
X11985735Y-10537743D02*
X11985735Y-10488243D01*
X11936236Y-10488243D01*
X11936236Y-10537743D01*
X11985735Y-10537743D01*
X12563739Y-10537743D02*
X12563739Y-10488243D01*
X12514239Y-10488243D01*
X12514239Y-10537743D01*
X12563739Y-10537743D01*
X11914996Y-14055109D02*
X11964996Y-14005109D01*
X11914996Y-13955109D01*
X11864996Y-14005109D01*
X11914996Y-14055109D01*
X12714996Y-14055109D02*
X12764996Y-14005109D01*
X12714996Y-13955109D01*
X12664996Y-14005109D01*
X12714996Y-14055109D01*
D11*
X10255777Y-14916484D02*
X10255777Y-14716484D01*
X10255777Y-14716484D02*
X10303396Y-14716484D01*
X10303396Y-14716484D02*
X10331967Y-14726008D01*
X10331967Y-14726008D02*
X10351015Y-14745055D01*
X10351015Y-14745055D02*
X10360539Y-14764103D01*
X10360539Y-14764103D02*
X10370063Y-14802198D01*
X10370063Y-14802198D02*
X10370063Y-14830769D01*
X10370063Y-14830769D02*
X10360539Y-14868865D01*
X10360539Y-14868865D02*
X10351015Y-14887912D01*
X10351015Y-14887912D02*
X10331967Y-14906960D01*
X10331967Y-14906960D02*
X10303396Y-14916484D01*
X10303396Y-14916484D02*
X10255777Y-14916484D01*
X10455777Y-14916484D02*
X10455777Y-14783150D01*
X10455777Y-14821246D02*
X10465301Y-14802198D01*
X10465301Y-14802198D02*
X10474824Y-14792674D01*
X10474824Y-14792674D02*
X10493872Y-14783150D01*
X10493872Y-14783150D02*
X10512920Y-14783150D01*
X10579586Y-14916484D02*
X10579586Y-14783150D01*
X10579586Y-14716484D02*
X10570063Y-14726008D01*
X10570063Y-14726008D02*
X10579586Y-14735531D01*
X10579586Y-14735531D02*
X10589110Y-14726008D01*
X10589110Y-14726008D02*
X10579586Y-14716484D01*
X10579586Y-14716484D02*
X10579586Y-14735531D01*
X10703396Y-14916484D02*
X10684348Y-14906960D01*
X10684348Y-14906960D02*
X10674824Y-14887912D01*
X10674824Y-14887912D02*
X10674824Y-14716484D01*
X10808158Y-14916484D02*
X10789110Y-14906960D01*
X10789110Y-14906960D02*
X10779586Y-14887912D01*
X10779586Y-14887912D02*
X10779586Y-14716484D01*
X11036729Y-14916484D02*
X11036729Y-14716484D01*
X11036729Y-14716484D02*
X11103396Y-14859341D01*
X11103396Y-14859341D02*
X11170063Y-14716484D01*
X11170063Y-14716484D02*
X11170063Y-14916484D01*
X11351015Y-14916484D02*
X11351015Y-14811722D01*
X11351015Y-14811722D02*
X11341491Y-14792674D01*
X11341491Y-14792674D02*
X11322443Y-14783150D01*
X11322443Y-14783150D02*
X11284348Y-14783150D01*
X11284348Y-14783150D02*
X11265301Y-14792674D01*
X11351015Y-14906960D02*
X11331967Y-14916484D01*
X11331967Y-14916484D02*
X11284348Y-14916484D01*
X11284348Y-14916484D02*
X11265301Y-14906960D01*
X11265301Y-14906960D02*
X11255777Y-14887912D01*
X11255777Y-14887912D02*
X11255777Y-14868865D01*
X11255777Y-14868865D02*
X11265301Y-14849817D01*
X11265301Y-14849817D02*
X11284348Y-14840293D01*
X11284348Y-14840293D02*
X11331967Y-14840293D01*
X11331967Y-14840293D02*
X11351015Y-14830769D01*
X11446253Y-14783150D02*
X11446253Y-14983150D01*
X11446253Y-14792674D02*
X11465301Y-14783150D01*
X11465301Y-14783150D02*
X11503396Y-14783150D01*
X11503396Y-14783150D02*
X11522443Y-14792674D01*
X11522443Y-14792674D02*
X11531967Y-14802198D01*
X11531967Y-14802198D02*
X11541491Y-14821246D01*
X11541491Y-14821246D02*
X11541491Y-14878388D01*
X11541491Y-14878388D02*
X11531967Y-14897436D01*
X11531967Y-14897436D02*
X11522443Y-14906960D01*
X11522443Y-14906960D02*
X11503396Y-14916484D01*
X11503396Y-14916484D02*
X11465301Y-14916484D01*
X11465301Y-14916484D02*
X11446253Y-14906960D01*
X11627205Y-14897436D02*
X11636729Y-14906960D01*
X11636729Y-14906960D02*
X11627205Y-14916484D01*
X11627205Y-14916484D02*
X11617682Y-14906960D01*
X11617682Y-14906960D02*
X11627205Y-14897436D01*
X11627205Y-14897436D02*
X11627205Y-14916484D01*
X11627205Y-14792674D02*
X11636729Y-14802198D01*
X11636729Y-14802198D02*
X11627205Y-14811722D01*
X11627205Y-14811722D02*
X11617682Y-14802198D01*
X11617682Y-14802198D02*
X11627205Y-14792674D01*
X11627205Y-14792674D02*
X11627205Y-14811722D01*
D10*
X9975000Y-15235000D02*
X9995000Y-15255000D01*
X9995000Y-15235000D02*
X9975000Y-15255000D01*
D11*
X10293872Y-15136484D02*
X10312920Y-15136484D01*
X10312920Y-15136484D02*
X10331967Y-15146008D01*
X10331967Y-15146008D02*
X10341491Y-15155531D01*
X10341491Y-15155531D02*
X10351015Y-15174579D01*
X10351015Y-15174579D02*
X10360539Y-15212674D01*
X10360539Y-15212674D02*
X10360539Y-15260293D01*
X10360539Y-15260293D02*
X10351015Y-15298388D01*
X10351015Y-15298388D02*
X10341491Y-15317436D01*
X10341491Y-15317436D02*
X10331967Y-15326960D01*
X10331967Y-15326960D02*
X10312920Y-15336484D01*
X10312920Y-15336484D02*
X10293872Y-15336484D01*
X10293872Y-15336484D02*
X10274824Y-15326960D01*
X10274824Y-15326960D02*
X10265301Y-15317436D01*
X10265301Y-15317436D02*
X10255777Y-15298388D01*
X10255777Y-15298388D02*
X10246253Y-15260293D01*
X10246253Y-15260293D02*
X10246253Y-15212674D01*
X10246253Y-15212674D02*
X10255777Y-15174579D01*
X10255777Y-15174579D02*
X10265301Y-15155531D01*
X10265301Y-15155531D02*
X10274824Y-15146008D01*
X10274824Y-15146008D02*
X10293872Y-15136484D01*
X10446253Y-15317436D02*
X10455777Y-15326960D01*
X10455777Y-15326960D02*
X10446253Y-15336484D01*
X10446253Y-15336484D02*
X10436729Y-15326960D01*
X10436729Y-15326960D02*
X10446253Y-15317436D01*
X10446253Y-15317436D02*
X10446253Y-15336484D01*
X10531967Y-15155531D02*
X10541491Y-15146008D01*
X10541491Y-15146008D02*
X10560539Y-15136484D01*
X10560539Y-15136484D02*
X10608158Y-15136484D01*
X10608158Y-15136484D02*
X10627205Y-15146008D01*
X10627205Y-15146008D02*
X10636729Y-15155531D01*
X10636729Y-15155531D02*
X10646253Y-15174579D01*
X10646253Y-15174579D02*
X10646253Y-15193627D01*
X10646253Y-15193627D02*
X10636729Y-15222198D01*
X10636729Y-15222198D02*
X10522444Y-15336484D01*
X10522444Y-15336484D02*
X10646253Y-15336484D01*
X10770063Y-15136484D02*
X10789110Y-15136484D01*
X10789110Y-15136484D02*
X10808158Y-15146008D01*
X10808158Y-15146008D02*
X10817682Y-15155531D01*
X10817682Y-15155531D02*
X10827205Y-15174579D01*
X10827205Y-15174579D02*
X10836729Y-15212674D01*
X10836729Y-15212674D02*
X10836729Y-15260293D01*
X10836729Y-15260293D02*
X10827205Y-15298388D01*
X10827205Y-15298388D02*
X10817682Y-15317436D01*
X10817682Y-15317436D02*
X10808158Y-15326960D01*
X10808158Y-15326960D02*
X10789110Y-15336484D01*
X10789110Y-15336484D02*
X10770063Y-15336484D01*
X10770063Y-15336484D02*
X10751015Y-15326960D01*
X10751015Y-15326960D02*
X10741491Y-15317436D01*
X10741491Y-15317436D02*
X10731967Y-15298388D01*
X10731967Y-15298388D02*
X10722444Y-15260293D01*
X10722444Y-15260293D02*
X10722444Y-15212674D01*
X10722444Y-15212674D02*
X10731967Y-15174579D01*
X10731967Y-15174579D02*
X10741491Y-15155531D01*
X10741491Y-15155531D02*
X10751015Y-15146008D01*
X10751015Y-15146008D02*
X10770063Y-15136484D01*
X10960539Y-15136484D02*
X10979586Y-15136484D01*
X10979586Y-15136484D02*
X10998634Y-15146008D01*
X10998634Y-15146008D02*
X11008158Y-15155531D01*
X11008158Y-15155531D02*
X11017682Y-15174579D01*
X11017682Y-15174579D02*
X11027205Y-15212674D01*
X11027205Y-15212674D02*
X11027205Y-15260293D01*
X11027205Y-15260293D02*
X11017682Y-15298388D01*
X11017682Y-15298388D02*
X11008158Y-15317436D01*
X11008158Y-15317436D02*
X10998634Y-15326960D01*
X10998634Y-15326960D02*
X10979586Y-15336484D01*
X10979586Y-15336484D02*
X10960539Y-15336484D01*
X10960539Y-15336484D02*
X10941491Y-15326960D01*
X10941491Y-15326960D02*
X10931967Y-15317436D01*
X10931967Y-15317436D02*
X10922444Y-15298388D01*
X10922444Y-15298388D02*
X10912920Y-15260293D01*
X10912920Y-15260293D02*
X10912920Y-15212674D01*
X10912920Y-15212674D02*
X10922444Y-15174579D01*
X10922444Y-15174579D02*
X10931967Y-15155531D01*
X10931967Y-15155531D02*
X10941491Y-15146008D01*
X10941491Y-15146008D02*
X10960539Y-15136484D01*
X11112920Y-15336484D02*
X11112920Y-15203150D01*
X11112920Y-15222198D02*
X11122444Y-15212674D01*
X11122444Y-15212674D02*
X11141491Y-15203150D01*
X11141491Y-15203150D02*
X11170063Y-15203150D01*
X11170063Y-15203150D02*
X11189110Y-15212674D01*
X11189110Y-15212674D02*
X11198634Y-15231722D01*
X11198634Y-15231722D02*
X11198634Y-15336484D01*
X11198634Y-15231722D02*
X11208158Y-15212674D01*
X11208158Y-15212674D02*
X11227205Y-15203150D01*
X11227205Y-15203150D02*
X11255777Y-15203150D01*
X11255777Y-15203150D02*
X11274824Y-15212674D01*
X11274824Y-15212674D02*
X11284348Y-15231722D01*
X11284348Y-15231722D02*
X11284348Y-15336484D01*
X11379586Y-15336484D02*
X11379586Y-15203150D01*
X11379586Y-15222198D02*
X11389110Y-15212674D01*
X11389110Y-15212674D02*
X11408158Y-15203150D01*
X11408158Y-15203150D02*
X11436729Y-15203150D01*
X11436729Y-15203150D02*
X11455777Y-15212674D01*
X11455777Y-15212674D02*
X11465301Y-15231722D01*
X11465301Y-15231722D02*
X11465301Y-15336484D01*
X11465301Y-15231722D02*
X11474824Y-15212674D01*
X11474824Y-15212674D02*
X11493872Y-15203150D01*
X11493872Y-15203150D02*
X11522443Y-15203150D01*
X11522443Y-15203150D02*
X11541491Y-15212674D01*
X11541491Y-15212674D02*
X11551015Y-15231722D01*
X11551015Y-15231722D02*
X11551015Y-15336484D01*
X11941491Y-15126960D02*
X11770063Y-15384103D01*
X12198634Y-15136484D02*
X12217682Y-15136484D01*
X12217682Y-15136484D02*
X12236729Y-15146008D01*
X12236729Y-15146008D02*
X12246253Y-15155531D01*
X12246253Y-15155531D02*
X12255777Y-15174579D01*
X12255777Y-15174579D02*
X12265301Y-15212674D01*
X12265301Y-15212674D02*
X12265301Y-15260293D01*
X12265301Y-15260293D02*
X12255777Y-15298388D01*
X12255777Y-15298388D02*
X12246253Y-15317436D01*
X12246253Y-15317436D02*
X12236729Y-15326960D01*
X12236729Y-15326960D02*
X12217682Y-15336484D01*
X12217682Y-15336484D02*
X12198634Y-15336484D01*
X12198634Y-15336484D02*
X12179586Y-15326960D01*
X12179586Y-15326960D02*
X12170063Y-15317436D01*
X12170063Y-15317436D02*
X12160539Y-15298388D01*
X12160539Y-15298388D02*
X12151015Y-15260293D01*
X12151015Y-15260293D02*
X12151015Y-15212674D01*
X12151015Y-15212674D02*
X12160539Y-15174579D01*
X12160539Y-15174579D02*
X12170063Y-15155531D01*
X12170063Y-15155531D02*
X12179586Y-15146008D01*
X12179586Y-15146008D02*
X12198634Y-15136484D01*
X12351015Y-15317436D02*
X12360539Y-15326960D01*
X12360539Y-15326960D02*
X12351015Y-15336484D01*
X12351015Y-15336484D02*
X12341491Y-15326960D01*
X12341491Y-15326960D02*
X12351015Y-15317436D01*
X12351015Y-15317436D02*
X12351015Y-15336484D01*
X12484348Y-15136484D02*
X12503396Y-15136484D01*
X12503396Y-15136484D02*
X12522444Y-15146008D01*
X12522444Y-15146008D02*
X12531967Y-15155531D01*
X12531967Y-15155531D02*
X12541491Y-15174579D01*
X12541491Y-15174579D02*
X12551015Y-15212674D01*
X12551015Y-15212674D02*
X12551015Y-15260293D01*
X12551015Y-15260293D02*
X12541491Y-15298388D01*
X12541491Y-15298388D02*
X12531967Y-15317436D01*
X12531967Y-15317436D02*
X12522444Y-15326960D01*
X12522444Y-15326960D02*
X12503396Y-15336484D01*
X12503396Y-15336484D02*
X12484348Y-15336484D01*
X12484348Y-15336484D02*
X12465301Y-15326960D01*
X12465301Y-15326960D02*
X12455777Y-15317436D01*
X12455777Y-15317436D02*
X12446253Y-15298388D01*
X12446253Y-15298388D02*
X12436729Y-15260293D01*
X12436729Y-15260293D02*
X12436729Y-15212674D01*
X12436729Y-15212674D02*
X12446253Y-15174579D01*
X12446253Y-15174579D02*
X12455777Y-15155531D01*
X12455777Y-15155531D02*
X12465301Y-15146008D01*
X12465301Y-15146008D02*
X12484348Y-15136484D01*
X12674825Y-15136484D02*
X12693872Y-15136484D01*
X12693872Y-15136484D02*
X12712920Y-15146008D01*
X12712920Y-15146008D02*
X12722444Y-15155531D01*
X12722444Y-15155531D02*
X12731967Y-15174579D01*
X12731967Y-15174579D02*
X12741491Y-15212674D01*
X12741491Y-15212674D02*
X12741491Y-15260293D01*
X12741491Y-15260293D02*
X12731967Y-15298388D01*
X12731967Y-15298388D02*
X12722444Y-15317436D01*
X12722444Y-15317436D02*
X12712920Y-15326960D01*
X12712920Y-15326960D02*
X12693872Y-15336484D01*
X12693872Y-15336484D02*
X12674825Y-15336484D01*
X12674825Y-15336484D02*
X12655777Y-15326960D01*
X12655777Y-15326960D02*
X12646253Y-15317436D01*
X12646253Y-15317436D02*
X12636729Y-15298388D01*
X12636729Y-15298388D02*
X12627206Y-15260293D01*
X12627206Y-15260293D02*
X12627206Y-15212674D01*
X12627206Y-15212674D02*
X12636729Y-15174579D01*
X12636729Y-15174579D02*
X12646253Y-15155531D01*
X12646253Y-15155531D02*
X12655777Y-15146008D01*
X12655777Y-15146008D02*
X12674825Y-15136484D01*
X12808158Y-15136484D02*
X12941491Y-15136484D01*
X12941491Y-15136484D02*
X12855777Y-15336484D01*
X13027206Y-15336484D02*
X13065301Y-15336484D01*
X13065301Y-15336484D02*
X13084348Y-15326960D01*
X13084348Y-15326960D02*
X13093872Y-15317436D01*
X13093872Y-15317436D02*
X13112920Y-15288865D01*
X13112920Y-15288865D02*
X13122444Y-15250769D01*
X13122444Y-15250769D02*
X13122444Y-15174579D01*
X13122444Y-15174579D02*
X13112920Y-15155531D01*
X13112920Y-15155531D02*
X13103396Y-15146008D01*
X13103396Y-15146008D02*
X13084348Y-15136484D01*
X13084348Y-15136484D02*
X13046253Y-15136484D01*
X13046253Y-15136484D02*
X13027206Y-15146008D01*
X13027206Y-15146008D02*
X13017682Y-15155531D01*
X13017682Y-15155531D02*
X13008158Y-15174579D01*
X13008158Y-15174579D02*
X13008158Y-15222198D01*
X13008158Y-15222198D02*
X13017682Y-15241246D01*
X13017682Y-15241246D02*
X13027206Y-15250769D01*
X13027206Y-15250769D02*
X13046253Y-15260293D01*
X13046253Y-15260293D02*
X13084348Y-15260293D01*
X13084348Y-15260293D02*
X13103396Y-15250769D01*
X13103396Y-15250769D02*
X13112920Y-15241246D01*
X13112920Y-15241246D02*
X13122444Y-15222198D01*
X13198634Y-15136484D02*
X13198634Y-15174579D01*
X13274825Y-15136484D02*
X13274825Y-15174579D01*
X13570063Y-15412674D02*
X13560539Y-15403150D01*
X13560539Y-15403150D02*
X13541491Y-15374579D01*
X13541491Y-15374579D02*
X13531968Y-15355531D01*
X13531968Y-15355531D02*
X13522444Y-15326960D01*
X13522444Y-15326960D02*
X13512920Y-15279341D01*
X13512920Y-15279341D02*
X13512920Y-15241246D01*
X13512920Y-15241246D02*
X13522444Y-15193627D01*
X13522444Y-15193627D02*
X13531968Y-15165055D01*
X13531968Y-15165055D02*
X13541491Y-15146008D01*
X13541491Y-15146008D02*
X13560539Y-15117436D01*
X13560539Y-15117436D02*
X13570063Y-15107912D01*
X13751015Y-15336484D02*
X13636729Y-15336484D01*
X13693872Y-15336484D02*
X13693872Y-15136484D01*
X13693872Y-15136484D02*
X13674825Y-15165055D01*
X13674825Y-15165055D02*
X13655777Y-15184103D01*
X13655777Y-15184103D02*
X13636729Y-15193627D01*
X13827206Y-15155531D02*
X13836729Y-15146008D01*
X13836729Y-15146008D02*
X13855777Y-15136484D01*
X13855777Y-15136484D02*
X13903396Y-15136484D01*
X13903396Y-15136484D02*
X13922444Y-15146008D01*
X13922444Y-15146008D02*
X13931968Y-15155531D01*
X13931968Y-15155531D02*
X13941491Y-15174579D01*
X13941491Y-15174579D02*
X13941491Y-15193627D01*
X13941491Y-15193627D02*
X13931968Y-15222198D01*
X13931968Y-15222198D02*
X13817682Y-15336484D01*
X13817682Y-15336484D02*
X13941491Y-15336484D01*
X14131968Y-15336484D02*
X14017682Y-15336484D01*
X14074825Y-15336484D02*
X14074825Y-15136484D01*
X14074825Y-15136484D02*
X14055777Y-15165055D01*
X14055777Y-15165055D02*
X14036729Y-15184103D01*
X14036729Y-15184103D02*
X14017682Y-15193627D01*
X14370063Y-15336484D02*
X14370063Y-15136484D01*
X14455777Y-15336484D02*
X14455777Y-15231722D01*
X14455777Y-15231722D02*
X14446253Y-15212674D01*
X14446253Y-15212674D02*
X14427206Y-15203150D01*
X14427206Y-15203150D02*
X14398634Y-15203150D01*
X14398634Y-15203150D02*
X14379587Y-15212674D01*
X14379587Y-15212674D02*
X14370063Y-15222198D01*
X14579587Y-15336484D02*
X14560539Y-15326960D01*
X14560539Y-15326960D02*
X14551015Y-15317436D01*
X14551015Y-15317436D02*
X14541491Y-15298388D01*
X14541491Y-15298388D02*
X14541491Y-15241246D01*
X14541491Y-15241246D02*
X14551015Y-15222198D01*
X14551015Y-15222198D02*
X14560539Y-15212674D01*
X14560539Y-15212674D02*
X14579587Y-15203150D01*
X14579587Y-15203150D02*
X14608158Y-15203150D01*
X14608158Y-15203150D02*
X14627206Y-15212674D01*
X14627206Y-15212674D02*
X14636730Y-15222198D01*
X14636730Y-15222198D02*
X14646253Y-15241246D01*
X14646253Y-15241246D02*
X14646253Y-15298388D01*
X14646253Y-15298388D02*
X14636730Y-15317436D01*
X14636730Y-15317436D02*
X14627206Y-15326960D01*
X14627206Y-15326960D02*
X14608158Y-15336484D01*
X14608158Y-15336484D02*
X14579587Y-15336484D01*
X14760539Y-15336484D02*
X14741491Y-15326960D01*
X14741491Y-15326960D02*
X14731968Y-15307912D01*
X14731968Y-15307912D02*
X14731968Y-15136484D01*
X14912920Y-15326960D02*
X14893872Y-15336484D01*
X14893872Y-15336484D02*
X14855777Y-15336484D01*
X14855777Y-15336484D02*
X14836730Y-15326960D01*
X14836730Y-15326960D02*
X14827206Y-15307912D01*
X14827206Y-15307912D02*
X14827206Y-15231722D01*
X14827206Y-15231722D02*
X14836730Y-15212674D01*
X14836730Y-15212674D02*
X14855777Y-15203150D01*
X14855777Y-15203150D02*
X14893872Y-15203150D01*
X14893872Y-15203150D02*
X14912920Y-15212674D01*
X14912920Y-15212674D02*
X14922444Y-15231722D01*
X14922444Y-15231722D02*
X14922444Y-15250769D01*
X14922444Y-15250769D02*
X14827206Y-15269817D01*
X14998634Y-15326960D02*
X15017682Y-15336484D01*
X15017682Y-15336484D02*
X15055777Y-15336484D01*
X15055777Y-15336484D02*
X15074825Y-15326960D01*
X15074825Y-15326960D02*
X15084349Y-15307912D01*
X15084349Y-15307912D02*
X15084349Y-15298388D01*
X15084349Y-15298388D02*
X15074825Y-15279341D01*
X15074825Y-15279341D02*
X15055777Y-15269817D01*
X15055777Y-15269817D02*
X15027206Y-15269817D01*
X15027206Y-15269817D02*
X15008158Y-15260293D01*
X15008158Y-15260293D02*
X14998634Y-15241246D01*
X14998634Y-15241246D02*
X14998634Y-15231722D01*
X14998634Y-15231722D02*
X15008158Y-15212674D01*
X15008158Y-15212674D02*
X15027206Y-15203150D01*
X15027206Y-15203150D02*
X15055777Y-15203150D01*
X15055777Y-15203150D02*
X15074825Y-15212674D01*
X15151015Y-15412674D02*
X15160539Y-15403150D01*
X15160539Y-15403150D02*
X15179587Y-15374579D01*
X15179587Y-15374579D02*
X15189111Y-15355531D01*
X15189111Y-15355531D02*
X15198634Y-15326960D01*
X15198634Y-15326960D02*
X15208158Y-15279341D01*
X15208158Y-15279341D02*
X15208158Y-15241246D01*
X15208158Y-15241246D02*
X15198634Y-15193627D01*
X15198634Y-15193627D02*
X15189111Y-15165055D01*
X15189111Y-15165055D02*
X15179587Y-15146008D01*
X15179587Y-15146008D02*
X15160539Y-15117436D01*
X15160539Y-15117436D02*
X15151015Y-15107912D01*
D10*
X9995000Y-15509000D02*
G75*
G02*
X9965000Y-15509000I-15000J0D01*
G01*
X9965000Y-15509000D02*
G75*
G02*
X9995000Y-15509000I15000J0D01*
G01*
D11*
X10293872Y-15400484D02*
X10312920Y-15400484D01*
X10312920Y-15400484D02*
X10331967Y-15410008D01*
X10331967Y-15410008D02*
X10341491Y-15419531D01*
X10341491Y-15419531D02*
X10351015Y-15438579D01*
X10351015Y-15438579D02*
X10360539Y-15476674D01*
X10360539Y-15476674D02*
X10360539Y-15524293D01*
X10360539Y-15524293D02*
X10351015Y-15562388D01*
X10351015Y-15562388D02*
X10341491Y-15581436D01*
X10341491Y-15581436D02*
X10331967Y-15590960D01*
X10331967Y-15590960D02*
X10312920Y-15600484D01*
X10312920Y-15600484D02*
X10293872Y-15600484D01*
X10293872Y-15600484D02*
X10274824Y-15590960D01*
X10274824Y-15590960D02*
X10265301Y-15581436D01*
X10265301Y-15581436D02*
X10255777Y-15562388D01*
X10255777Y-15562388D02*
X10246253Y-15524293D01*
X10246253Y-15524293D02*
X10246253Y-15476674D01*
X10246253Y-15476674D02*
X10255777Y-15438579D01*
X10255777Y-15438579D02*
X10265301Y-15419531D01*
X10265301Y-15419531D02*
X10274824Y-15410008D01*
X10274824Y-15410008D02*
X10293872Y-15400484D01*
X10446253Y-15581436D02*
X10455777Y-15590960D01*
X10455777Y-15590960D02*
X10446253Y-15600484D01*
X10446253Y-15600484D02*
X10436729Y-15590960D01*
X10436729Y-15590960D02*
X10446253Y-15581436D01*
X10446253Y-15581436D02*
X10446253Y-15600484D01*
X10522444Y-15400484D02*
X10646253Y-15400484D01*
X10646253Y-15400484D02*
X10579586Y-15476674D01*
X10579586Y-15476674D02*
X10608158Y-15476674D01*
X10608158Y-15476674D02*
X10627205Y-15486198D01*
X10627205Y-15486198D02*
X10636729Y-15495722D01*
X10636729Y-15495722D02*
X10646253Y-15514769D01*
X10646253Y-15514769D02*
X10646253Y-15562388D01*
X10646253Y-15562388D02*
X10636729Y-15581436D01*
X10636729Y-15581436D02*
X10627205Y-15590960D01*
X10627205Y-15590960D02*
X10608158Y-15600484D01*
X10608158Y-15600484D02*
X10551015Y-15600484D01*
X10551015Y-15600484D02*
X10531967Y-15590960D01*
X10531967Y-15590960D02*
X10522444Y-15581436D01*
X10770063Y-15400484D02*
X10789110Y-15400484D01*
X10789110Y-15400484D02*
X10808158Y-15410008D01*
X10808158Y-15410008D02*
X10817682Y-15419531D01*
X10817682Y-15419531D02*
X10827205Y-15438579D01*
X10827205Y-15438579D02*
X10836729Y-15476674D01*
X10836729Y-15476674D02*
X10836729Y-15524293D01*
X10836729Y-15524293D02*
X10827205Y-15562388D01*
X10827205Y-15562388D02*
X10817682Y-15581436D01*
X10817682Y-15581436D02*
X10808158Y-15590960D01*
X10808158Y-15590960D02*
X10789110Y-15600484D01*
X10789110Y-15600484D02*
X10770063Y-15600484D01*
X10770063Y-15600484D02*
X10751015Y-15590960D01*
X10751015Y-15590960D02*
X10741491Y-15581436D01*
X10741491Y-15581436D02*
X10731967Y-15562388D01*
X10731967Y-15562388D02*
X10722444Y-15524293D01*
X10722444Y-15524293D02*
X10722444Y-15476674D01*
X10722444Y-15476674D02*
X10731967Y-15438579D01*
X10731967Y-15438579D02*
X10741491Y-15419531D01*
X10741491Y-15419531D02*
X10751015Y-15410008D01*
X10751015Y-15410008D02*
X10770063Y-15400484D01*
X10960539Y-15400484D02*
X10979586Y-15400484D01*
X10979586Y-15400484D02*
X10998634Y-15410008D01*
X10998634Y-15410008D02*
X11008158Y-15419531D01*
X11008158Y-15419531D02*
X11017682Y-15438579D01*
X11017682Y-15438579D02*
X11027205Y-15476674D01*
X11027205Y-15476674D02*
X11027205Y-15524293D01*
X11027205Y-15524293D02*
X11017682Y-15562388D01*
X11017682Y-15562388D02*
X11008158Y-15581436D01*
X11008158Y-15581436D02*
X10998634Y-15590960D01*
X10998634Y-15590960D02*
X10979586Y-15600484D01*
X10979586Y-15600484D02*
X10960539Y-15600484D01*
X10960539Y-15600484D02*
X10941491Y-15590960D01*
X10941491Y-15590960D02*
X10931967Y-15581436D01*
X10931967Y-15581436D02*
X10922444Y-15562388D01*
X10922444Y-15562388D02*
X10912920Y-15524293D01*
X10912920Y-15524293D02*
X10912920Y-15476674D01*
X10912920Y-15476674D02*
X10922444Y-15438579D01*
X10922444Y-15438579D02*
X10931967Y-15419531D01*
X10931967Y-15419531D02*
X10941491Y-15410008D01*
X10941491Y-15410008D02*
X10960539Y-15400484D01*
X11112920Y-15600484D02*
X11112920Y-15467150D01*
X11112920Y-15486198D02*
X11122444Y-15476674D01*
X11122444Y-15476674D02*
X11141491Y-15467150D01*
X11141491Y-15467150D02*
X11170063Y-15467150D01*
X11170063Y-15467150D02*
X11189110Y-15476674D01*
X11189110Y-15476674D02*
X11198634Y-15495722D01*
X11198634Y-15495722D02*
X11198634Y-15600484D01*
X11198634Y-15495722D02*
X11208158Y-15476674D01*
X11208158Y-15476674D02*
X11227205Y-15467150D01*
X11227205Y-15467150D02*
X11255777Y-15467150D01*
X11255777Y-15467150D02*
X11274824Y-15476674D01*
X11274824Y-15476674D02*
X11284348Y-15495722D01*
X11284348Y-15495722D02*
X11284348Y-15600484D01*
X11379586Y-15600484D02*
X11379586Y-15467150D01*
X11379586Y-15486198D02*
X11389110Y-15476674D01*
X11389110Y-15476674D02*
X11408158Y-15467150D01*
X11408158Y-15467150D02*
X11436729Y-15467150D01*
X11436729Y-15467150D02*
X11455777Y-15476674D01*
X11455777Y-15476674D02*
X11465301Y-15495722D01*
X11465301Y-15495722D02*
X11465301Y-15600484D01*
X11465301Y-15495722D02*
X11474824Y-15476674D01*
X11474824Y-15476674D02*
X11493872Y-15467150D01*
X11493872Y-15467150D02*
X11522443Y-15467150D01*
X11522443Y-15467150D02*
X11541491Y-15476674D01*
X11541491Y-15476674D02*
X11551015Y-15495722D01*
X11551015Y-15495722D02*
X11551015Y-15600484D01*
X11941491Y-15390960D02*
X11770063Y-15648103D01*
X12198634Y-15400484D02*
X12217682Y-15400484D01*
X12217682Y-15400484D02*
X12236729Y-15410008D01*
X12236729Y-15410008D02*
X12246253Y-15419531D01*
X12246253Y-15419531D02*
X12255777Y-15438579D01*
X12255777Y-15438579D02*
X12265301Y-15476674D01*
X12265301Y-15476674D02*
X12265301Y-15524293D01*
X12265301Y-15524293D02*
X12255777Y-15562388D01*
X12255777Y-15562388D02*
X12246253Y-15581436D01*
X12246253Y-15581436D02*
X12236729Y-15590960D01*
X12236729Y-15590960D02*
X12217682Y-15600484D01*
X12217682Y-15600484D02*
X12198634Y-15600484D01*
X12198634Y-15600484D02*
X12179586Y-15590960D01*
X12179586Y-15590960D02*
X12170063Y-15581436D01*
X12170063Y-15581436D02*
X12160539Y-15562388D01*
X12160539Y-15562388D02*
X12151015Y-15524293D01*
X12151015Y-15524293D02*
X12151015Y-15476674D01*
X12151015Y-15476674D02*
X12160539Y-15438579D01*
X12160539Y-15438579D02*
X12170063Y-15419531D01*
X12170063Y-15419531D02*
X12179586Y-15410008D01*
X12179586Y-15410008D02*
X12198634Y-15400484D01*
X12351015Y-15581436D02*
X12360539Y-15590960D01*
X12360539Y-15590960D02*
X12351015Y-15600484D01*
X12351015Y-15600484D02*
X12341491Y-15590960D01*
X12341491Y-15590960D02*
X12351015Y-15581436D01*
X12351015Y-15581436D02*
X12351015Y-15600484D01*
X12484348Y-15400484D02*
X12503396Y-15400484D01*
X12503396Y-15400484D02*
X12522444Y-15410008D01*
X12522444Y-15410008D02*
X12531967Y-15419531D01*
X12531967Y-15419531D02*
X12541491Y-15438579D01*
X12541491Y-15438579D02*
X12551015Y-15476674D01*
X12551015Y-15476674D02*
X12551015Y-15524293D01*
X12551015Y-15524293D02*
X12541491Y-15562388D01*
X12541491Y-15562388D02*
X12531967Y-15581436D01*
X12531967Y-15581436D02*
X12522444Y-15590960D01*
X12522444Y-15590960D02*
X12503396Y-15600484D01*
X12503396Y-15600484D02*
X12484348Y-15600484D01*
X12484348Y-15600484D02*
X12465301Y-15590960D01*
X12465301Y-15590960D02*
X12455777Y-15581436D01*
X12455777Y-15581436D02*
X12446253Y-15562388D01*
X12446253Y-15562388D02*
X12436729Y-15524293D01*
X12436729Y-15524293D02*
X12436729Y-15476674D01*
X12436729Y-15476674D02*
X12446253Y-15438579D01*
X12446253Y-15438579D02*
X12455777Y-15419531D01*
X12455777Y-15419531D02*
X12465301Y-15410008D01*
X12465301Y-15410008D02*
X12484348Y-15400484D01*
X12741491Y-15600484D02*
X12627206Y-15600484D01*
X12684348Y-15600484D02*
X12684348Y-15400484D01*
X12684348Y-15400484D02*
X12665301Y-15429055D01*
X12665301Y-15429055D02*
X12646253Y-15448103D01*
X12646253Y-15448103D02*
X12627206Y-15457627D01*
X12931967Y-15600484D02*
X12817682Y-15600484D01*
X12874825Y-15600484D02*
X12874825Y-15400484D01*
X12874825Y-15400484D02*
X12855777Y-15429055D01*
X12855777Y-15429055D02*
X12836729Y-15448103D01*
X12836729Y-15448103D02*
X12817682Y-15457627D01*
X13046253Y-15486198D02*
X13027206Y-15476674D01*
X13027206Y-15476674D02*
X13017682Y-15467150D01*
X13017682Y-15467150D02*
X13008158Y-15448103D01*
X13008158Y-15448103D02*
X13008158Y-15438579D01*
X13008158Y-15438579D02*
X13017682Y-15419531D01*
X13017682Y-15419531D02*
X13027206Y-15410008D01*
X13027206Y-15410008D02*
X13046253Y-15400484D01*
X13046253Y-15400484D02*
X13084348Y-15400484D01*
X13084348Y-15400484D02*
X13103396Y-15410008D01*
X13103396Y-15410008D02*
X13112920Y-15419531D01*
X13112920Y-15419531D02*
X13122444Y-15438579D01*
X13122444Y-15438579D02*
X13122444Y-15448103D01*
X13122444Y-15448103D02*
X13112920Y-15467150D01*
X13112920Y-15467150D02*
X13103396Y-15476674D01*
X13103396Y-15476674D02*
X13084348Y-15486198D01*
X13084348Y-15486198D02*
X13046253Y-15486198D01*
X13046253Y-15486198D02*
X13027206Y-15495722D01*
X13027206Y-15495722D02*
X13017682Y-15505246D01*
X13017682Y-15505246D02*
X13008158Y-15524293D01*
X13008158Y-15524293D02*
X13008158Y-15562388D01*
X13008158Y-15562388D02*
X13017682Y-15581436D01*
X13017682Y-15581436D02*
X13027206Y-15590960D01*
X13027206Y-15590960D02*
X13046253Y-15600484D01*
X13046253Y-15600484D02*
X13084348Y-15600484D01*
X13084348Y-15600484D02*
X13103396Y-15590960D01*
X13103396Y-15590960D02*
X13112920Y-15581436D01*
X13112920Y-15581436D02*
X13122444Y-15562388D01*
X13122444Y-15562388D02*
X13122444Y-15524293D01*
X13122444Y-15524293D02*
X13112920Y-15505246D01*
X13112920Y-15505246D02*
X13103396Y-15495722D01*
X13103396Y-15495722D02*
X13084348Y-15486198D01*
X13198634Y-15400484D02*
X13198634Y-15438579D01*
X13274825Y-15400484D02*
X13274825Y-15438579D01*
X13570063Y-15676674D02*
X13560539Y-15667150D01*
X13560539Y-15667150D02*
X13541491Y-15638579D01*
X13541491Y-15638579D02*
X13531968Y-15619531D01*
X13531968Y-15619531D02*
X13522444Y-15590960D01*
X13522444Y-15590960D02*
X13512920Y-15543341D01*
X13512920Y-15543341D02*
X13512920Y-15505246D01*
X13512920Y-15505246D02*
X13522444Y-15457627D01*
X13522444Y-15457627D02*
X13531968Y-15429055D01*
X13531968Y-15429055D02*
X13541491Y-15410008D01*
X13541491Y-15410008D02*
X13560539Y-15381436D01*
X13560539Y-15381436D02*
X13570063Y-15371912D01*
X13627206Y-15400484D02*
X13751015Y-15400484D01*
X13751015Y-15400484D02*
X13684348Y-15476674D01*
X13684348Y-15476674D02*
X13712920Y-15476674D01*
X13712920Y-15476674D02*
X13731968Y-15486198D01*
X13731968Y-15486198D02*
X13741491Y-15495722D01*
X13741491Y-15495722D02*
X13751015Y-15514769D01*
X13751015Y-15514769D02*
X13751015Y-15562388D01*
X13751015Y-15562388D02*
X13741491Y-15581436D01*
X13741491Y-15581436D02*
X13731968Y-15590960D01*
X13731968Y-15590960D02*
X13712920Y-15600484D01*
X13712920Y-15600484D02*
X13655777Y-15600484D01*
X13655777Y-15600484D02*
X13636729Y-15590960D01*
X13636729Y-15590960D02*
X13627206Y-15581436D01*
X13874825Y-15400484D02*
X13893872Y-15400484D01*
X13893872Y-15400484D02*
X13912920Y-15410008D01*
X13912920Y-15410008D02*
X13922444Y-15419531D01*
X13922444Y-15419531D02*
X13931968Y-15438579D01*
X13931968Y-15438579D02*
X13941491Y-15476674D01*
X13941491Y-15476674D02*
X13941491Y-15524293D01*
X13941491Y-15524293D02*
X13931968Y-15562388D01*
X13931968Y-15562388D02*
X13922444Y-15581436D01*
X13922444Y-15581436D02*
X13912920Y-15590960D01*
X13912920Y-15590960D02*
X13893872Y-15600484D01*
X13893872Y-15600484D02*
X13874825Y-15600484D01*
X13874825Y-15600484D02*
X13855777Y-15590960D01*
X13855777Y-15590960D02*
X13846253Y-15581436D01*
X13846253Y-15581436D02*
X13836729Y-15562388D01*
X13836729Y-15562388D02*
X13827206Y-15524293D01*
X13827206Y-15524293D02*
X13827206Y-15476674D01*
X13827206Y-15476674D02*
X13836729Y-15438579D01*
X13836729Y-15438579D02*
X13846253Y-15419531D01*
X13846253Y-15419531D02*
X13855777Y-15410008D01*
X13855777Y-15410008D02*
X13874825Y-15400484D01*
X14055777Y-15486198D02*
X14036729Y-15476674D01*
X14036729Y-15476674D02*
X14027206Y-15467150D01*
X14027206Y-15467150D02*
X14017682Y-15448103D01*
X14017682Y-15448103D02*
X14017682Y-15438579D01*
X14017682Y-15438579D02*
X14027206Y-15419531D01*
X14027206Y-15419531D02*
X14036729Y-15410008D01*
X14036729Y-15410008D02*
X14055777Y-15400484D01*
X14055777Y-15400484D02*
X14093872Y-15400484D01*
X14093872Y-15400484D02*
X14112920Y-15410008D01*
X14112920Y-15410008D02*
X14122444Y-15419531D01*
X14122444Y-15419531D02*
X14131968Y-15438579D01*
X14131968Y-15438579D02*
X14131968Y-15448103D01*
X14131968Y-15448103D02*
X14122444Y-15467150D01*
X14122444Y-15467150D02*
X14112920Y-15476674D01*
X14112920Y-15476674D02*
X14093872Y-15486198D01*
X14093872Y-15486198D02*
X14055777Y-15486198D01*
X14055777Y-15486198D02*
X14036729Y-15495722D01*
X14036729Y-15495722D02*
X14027206Y-15505246D01*
X14027206Y-15505246D02*
X14017682Y-15524293D01*
X14017682Y-15524293D02*
X14017682Y-15562388D01*
X14017682Y-15562388D02*
X14027206Y-15581436D01*
X14027206Y-15581436D02*
X14036729Y-15590960D01*
X14036729Y-15590960D02*
X14055777Y-15600484D01*
X14055777Y-15600484D02*
X14093872Y-15600484D01*
X14093872Y-15600484D02*
X14112920Y-15590960D01*
X14112920Y-15590960D02*
X14122444Y-15581436D01*
X14122444Y-15581436D02*
X14131968Y-15562388D01*
X14131968Y-15562388D02*
X14131968Y-15524293D01*
X14131968Y-15524293D02*
X14122444Y-15505246D01*
X14122444Y-15505246D02*
X14112920Y-15495722D01*
X14112920Y-15495722D02*
X14093872Y-15486198D01*
X14370063Y-15600484D02*
X14370063Y-15400484D01*
X14455777Y-15600484D02*
X14455777Y-15495722D01*
X14455777Y-15495722D02*
X14446253Y-15476674D01*
X14446253Y-15476674D02*
X14427206Y-15467150D01*
X14427206Y-15467150D02*
X14398634Y-15467150D01*
X14398634Y-15467150D02*
X14379587Y-15476674D01*
X14379587Y-15476674D02*
X14370063Y-15486198D01*
X14579587Y-15600484D02*
X14560539Y-15590960D01*
X14560539Y-15590960D02*
X14551015Y-15581436D01*
X14551015Y-15581436D02*
X14541491Y-15562388D01*
X14541491Y-15562388D02*
X14541491Y-15505246D01*
X14541491Y-15505246D02*
X14551015Y-15486198D01*
X14551015Y-15486198D02*
X14560539Y-15476674D01*
X14560539Y-15476674D02*
X14579587Y-15467150D01*
X14579587Y-15467150D02*
X14608158Y-15467150D01*
X14608158Y-15467150D02*
X14627206Y-15476674D01*
X14627206Y-15476674D02*
X14636730Y-15486198D01*
X14636730Y-15486198D02*
X14646253Y-15505246D01*
X14646253Y-15505246D02*
X14646253Y-15562388D01*
X14646253Y-15562388D02*
X14636730Y-15581436D01*
X14636730Y-15581436D02*
X14627206Y-15590960D01*
X14627206Y-15590960D02*
X14608158Y-15600484D01*
X14608158Y-15600484D02*
X14579587Y-15600484D01*
X14760539Y-15600484D02*
X14741491Y-15590960D01*
X14741491Y-15590960D02*
X14731968Y-15571912D01*
X14731968Y-15571912D02*
X14731968Y-15400484D01*
X14912920Y-15590960D02*
X14893872Y-15600484D01*
X14893872Y-15600484D02*
X14855777Y-15600484D01*
X14855777Y-15600484D02*
X14836730Y-15590960D01*
X14836730Y-15590960D02*
X14827206Y-15571912D01*
X14827206Y-15571912D02*
X14827206Y-15495722D01*
X14827206Y-15495722D02*
X14836730Y-15476674D01*
X14836730Y-15476674D02*
X14855777Y-15467150D01*
X14855777Y-15467150D02*
X14893872Y-15467150D01*
X14893872Y-15467150D02*
X14912920Y-15476674D01*
X14912920Y-15476674D02*
X14922444Y-15495722D01*
X14922444Y-15495722D02*
X14922444Y-15514769D01*
X14922444Y-15514769D02*
X14827206Y-15533817D01*
X14998634Y-15590960D02*
X15017682Y-15600484D01*
X15017682Y-15600484D02*
X15055777Y-15600484D01*
X15055777Y-15600484D02*
X15074825Y-15590960D01*
X15074825Y-15590960D02*
X15084349Y-15571912D01*
X15084349Y-15571912D02*
X15084349Y-15562388D01*
X15084349Y-15562388D02*
X15074825Y-15543341D01*
X15074825Y-15543341D02*
X15055777Y-15533817D01*
X15055777Y-15533817D02*
X15027206Y-15533817D01*
X15027206Y-15533817D02*
X15008158Y-15524293D01*
X15008158Y-15524293D02*
X14998634Y-15505246D01*
X14998634Y-15505246D02*
X14998634Y-15495722D01*
X14998634Y-15495722D02*
X15008158Y-15476674D01*
X15008158Y-15476674D02*
X15027206Y-15467150D01*
X15027206Y-15467150D02*
X15055777Y-15467150D01*
X15055777Y-15467150D02*
X15074825Y-15476674D01*
X15151015Y-15676674D02*
X15160539Y-15667150D01*
X15160539Y-15667150D02*
X15179587Y-15638579D01*
X15179587Y-15638579D02*
X15189111Y-15619531D01*
X15189111Y-15619531D02*
X15198634Y-15590960D01*
X15198634Y-15590960D02*
X15208158Y-15543341D01*
X15208158Y-15543341D02*
X15208158Y-15505246D01*
X15208158Y-15505246D02*
X15198634Y-15457627D01*
X15198634Y-15457627D02*
X15189111Y-15429055D01*
X15189111Y-15429055D02*
X15179587Y-15410008D01*
X15179587Y-15410008D02*
X15160539Y-15381436D01*
X15160539Y-15381436D02*
X15151015Y-15371912D01*
D10*
X9965000Y-15743000D02*
X9965000Y-15803000D01*
X9935000Y-15773000D02*
X9995000Y-15773000D01*
D11*
X10293872Y-15664484D02*
X10312920Y-15664484D01*
X10312920Y-15664484D02*
X10331967Y-15674008D01*
X10331967Y-15674008D02*
X10341491Y-15683531D01*
X10341491Y-15683531D02*
X10351015Y-15702579D01*
X10351015Y-15702579D02*
X10360539Y-15740674D01*
X10360539Y-15740674D02*
X10360539Y-15788293D01*
X10360539Y-15788293D02*
X10351015Y-15826388D01*
X10351015Y-15826388D02*
X10341491Y-15845436D01*
X10341491Y-15845436D02*
X10331967Y-15854960D01*
X10331967Y-15854960D02*
X10312920Y-15864484D01*
X10312920Y-15864484D02*
X10293872Y-15864484D01*
X10293872Y-15864484D02*
X10274824Y-15854960D01*
X10274824Y-15854960D02*
X10265301Y-15845436D01*
X10265301Y-15845436D02*
X10255777Y-15826388D01*
X10255777Y-15826388D02*
X10246253Y-15788293D01*
X10246253Y-15788293D02*
X10246253Y-15740674D01*
X10246253Y-15740674D02*
X10255777Y-15702579D01*
X10255777Y-15702579D02*
X10265301Y-15683531D01*
X10265301Y-15683531D02*
X10274824Y-15674008D01*
X10274824Y-15674008D02*
X10293872Y-15664484D01*
X10446253Y-15845436D02*
X10455777Y-15854960D01*
X10455777Y-15854960D02*
X10446253Y-15864484D01*
X10446253Y-15864484D02*
X10436729Y-15854960D01*
X10436729Y-15854960D02*
X10446253Y-15845436D01*
X10446253Y-15845436D02*
X10446253Y-15864484D01*
X10627205Y-15664484D02*
X10589110Y-15664484D01*
X10589110Y-15664484D02*
X10570063Y-15674008D01*
X10570063Y-15674008D02*
X10560539Y-15683531D01*
X10560539Y-15683531D02*
X10541491Y-15712103D01*
X10541491Y-15712103D02*
X10531967Y-15750198D01*
X10531967Y-15750198D02*
X10531967Y-15826388D01*
X10531967Y-15826388D02*
X10541491Y-15845436D01*
X10541491Y-15845436D02*
X10551015Y-15854960D01*
X10551015Y-15854960D02*
X10570063Y-15864484D01*
X10570063Y-15864484D02*
X10608158Y-15864484D01*
X10608158Y-15864484D02*
X10627205Y-15854960D01*
X10627205Y-15854960D02*
X10636729Y-15845436D01*
X10636729Y-15845436D02*
X10646253Y-15826388D01*
X10646253Y-15826388D02*
X10646253Y-15778769D01*
X10646253Y-15778769D02*
X10636729Y-15759722D01*
X10636729Y-15759722D02*
X10627205Y-15750198D01*
X10627205Y-15750198D02*
X10608158Y-15740674D01*
X10608158Y-15740674D02*
X10570063Y-15740674D01*
X10570063Y-15740674D02*
X10551015Y-15750198D01*
X10551015Y-15750198D02*
X10541491Y-15759722D01*
X10541491Y-15759722D02*
X10531967Y-15778769D01*
X10770063Y-15664484D02*
X10789110Y-15664484D01*
X10789110Y-15664484D02*
X10808158Y-15674008D01*
X10808158Y-15674008D02*
X10817682Y-15683531D01*
X10817682Y-15683531D02*
X10827205Y-15702579D01*
X10827205Y-15702579D02*
X10836729Y-15740674D01*
X10836729Y-15740674D02*
X10836729Y-15788293D01*
X10836729Y-15788293D02*
X10827205Y-15826388D01*
X10827205Y-15826388D02*
X10817682Y-15845436D01*
X10817682Y-15845436D02*
X10808158Y-15854960D01*
X10808158Y-15854960D02*
X10789110Y-15864484D01*
X10789110Y-15864484D02*
X10770063Y-15864484D01*
X10770063Y-15864484D02*
X10751015Y-15854960D01*
X10751015Y-15854960D02*
X10741491Y-15845436D01*
X10741491Y-15845436D02*
X10731967Y-15826388D01*
X10731967Y-15826388D02*
X10722444Y-15788293D01*
X10722444Y-15788293D02*
X10722444Y-15740674D01*
X10722444Y-15740674D02*
X10731967Y-15702579D01*
X10731967Y-15702579D02*
X10741491Y-15683531D01*
X10741491Y-15683531D02*
X10751015Y-15674008D01*
X10751015Y-15674008D02*
X10770063Y-15664484D01*
X10960539Y-15664484D02*
X10979586Y-15664484D01*
X10979586Y-15664484D02*
X10998634Y-15674008D01*
X10998634Y-15674008D02*
X11008158Y-15683531D01*
X11008158Y-15683531D02*
X11017682Y-15702579D01*
X11017682Y-15702579D02*
X11027205Y-15740674D01*
X11027205Y-15740674D02*
X11027205Y-15788293D01*
X11027205Y-15788293D02*
X11017682Y-15826388D01*
X11017682Y-15826388D02*
X11008158Y-15845436D01*
X11008158Y-15845436D02*
X10998634Y-15854960D01*
X10998634Y-15854960D02*
X10979586Y-15864484D01*
X10979586Y-15864484D02*
X10960539Y-15864484D01*
X10960539Y-15864484D02*
X10941491Y-15854960D01*
X10941491Y-15854960D02*
X10931967Y-15845436D01*
X10931967Y-15845436D02*
X10922444Y-15826388D01*
X10922444Y-15826388D02*
X10912920Y-15788293D01*
X10912920Y-15788293D02*
X10912920Y-15740674D01*
X10912920Y-15740674D02*
X10922444Y-15702579D01*
X10922444Y-15702579D02*
X10931967Y-15683531D01*
X10931967Y-15683531D02*
X10941491Y-15674008D01*
X10941491Y-15674008D02*
X10960539Y-15664484D01*
X11112920Y-15864484D02*
X11112920Y-15731150D01*
X11112920Y-15750198D02*
X11122444Y-15740674D01*
X11122444Y-15740674D02*
X11141491Y-15731150D01*
X11141491Y-15731150D02*
X11170063Y-15731150D01*
X11170063Y-15731150D02*
X11189110Y-15740674D01*
X11189110Y-15740674D02*
X11198634Y-15759722D01*
X11198634Y-15759722D02*
X11198634Y-15864484D01*
X11198634Y-15759722D02*
X11208158Y-15740674D01*
X11208158Y-15740674D02*
X11227205Y-15731150D01*
X11227205Y-15731150D02*
X11255777Y-15731150D01*
X11255777Y-15731150D02*
X11274824Y-15740674D01*
X11274824Y-15740674D02*
X11284348Y-15759722D01*
X11284348Y-15759722D02*
X11284348Y-15864484D01*
X11379586Y-15864484D02*
X11379586Y-15731150D01*
X11379586Y-15750198D02*
X11389110Y-15740674D01*
X11389110Y-15740674D02*
X11408158Y-15731150D01*
X11408158Y-15731150D02*
X11436729Y-15731150D01*
X11436729Y-15731150D02*
X11455777Y-15740674D01*
X11455777Y-15740674D02*
X11465301Y-15759722D01*
X11465301Y-15759722D02*
X11465301Y-15864484D01*
X11465301Y-15759722D02*
X11474824Y-15740674D01*
X11474824Y-15740674D02*
X11493872Y-15731150D01*
X11493872Y-15731150D02*
X11522443Y-15731150D01*
X11522443Y-15731150D02*
X11541491Y-15740674D01*
X11541491Y-15740674D02*
X11551015Y-15759722D01*
X11551015Y-15759722D02*
X11551015Y-15864484D01*
X11941491Y-15654960D02*
X11770063Y-15912103D01*
X12198634Y-15664484D02*
X12217682Y-15664484D01*
X12217682Y-15664484D02*
X12236729Y-15674008D01*
X12236729Y-15674008D02*
X12246253Y-15683531D01*
X12246253Y-15683531D02*
X12255777Y-15702579D01*
X12255777Y-15702579D02*
X12265301Y-15740674D01*
X12265301Y-15740674D02*
X12265301Y-15788293D01*
X12265301Y-15788293D02*
X12255777Y-15826388D01*
X12255777Y-15826388D02*
X12246253Y-15845436D01*
X12246253Y-15845436D02*
X12236729Y-15854960D01*
X12236729Y-15854960D02*
X12217682Y-15864484D01*
X12217682Y-15864484D02*
X12198634Y-15864484D01*
X12198634Y-15864484D02*
X12179586Y-15854960D01*
X12179586Y-15854960D02*
X12170063Y-15845436D01*
X12170063Y-15845436D02*
X12160539Y-15826388D01*
X12160539Y-15826388D02*
X12151015Y-15788293D01*
X12151015Y-15788293D02*
X12151015Y-15740674D01*
X12151015Y-15740674D02*
X12160539Y-15702579D01*
X12160539Y-15702579D02*
X12170063Y-15683531D01*
X12170063Y-15683531D02*
X12179586Y-15674008D01*
X12179586Y-15674008D02*
X12198634Y-15664484D01*
X12351015Y-15845436D02*
X12360539Y-15854960D01*
X12360539Y-15854960D02*
X12351015Y-15864484D01*
X12351015Y-15864484D02*
X12341491Y-15854960D01*
X12341491Y-15854960D02*
X12351015Y-15845436D01*
X12351015Y-15845436D02*
X12351015Y-15864484D01*
X12484348Y-15664484D02*
X12503396Y-15664484D01*
X12503396Y-15664484D02*
X12522444Y-15674008D01*
X12522444Y-15674008D02*
X12531967Y-15683531D01*
X12531967Y-15683531D02*
X12541491Y-15702579D01*
X12541491Y-15702579D02*
X12551015Y-15740674D01*
X12551015Y-15740674D02*
X12551015Y-15788293D01*
X12551015Y-15788293D02*
X12541491Y-15826388D01*
X12541491Y-15826388D02*
X12531967Y-15845436D01*
X12531967Y-15845436D02*
X12522444Y-15854960D01*
X12522444Y-15854960D02*
X12503396Y-15864484D01*
X12503396Y-15864484D02*
X12484348Y-15864484D01*
X12484348Y-15864484D02*
X12465301Y-15854960D01*
X12465301Y-15854960D02*
X12455777Y-15845436D01*
X12455777Y-15845436D02*
X12446253Y-15826388D01*
X12446253Y-15826388D02*
X12436729Y-15788293D01*
X12436729Y-15788293D02*
X12436729Y-15740674D01*
X12436729Y-15740674D02*
X12446253Y-15702579D01*
X12446253Y-15702579D02*
X12455777Y-15683531D01*
X12455777Y-15683531D02*
X12465301Y-15674008D01*
X12465301Y-15674008D02*
X12484348Y-15664484D01*
X12627206Y-15683531D02*
X12636729Y-15674008D01*
X12636729Y-15674008D02*
X12655777Y-15664484D01*
X12655777Y-15664484D02*
X12703396Y-15664484D01*
X12703396Y-15664484D02*
X12722444Y-15674008D01*
X12722444Y-15674008D02*
X12731967Y-15683531D01*
X12731967Y-15683531D02*
X12741491Y-15702579D01*
X12741491Y-15702579D02*
X12741491Y-15721627D01*
X12741491Y-15721627D02*
X12731967Y-15750198D01*
X12731967Y-15750198D02*
X12617682Y-15864484D01*
X12617682Y-15864484D02*
X12741491Y-15864484D01*
X12808158Y-15664484D02*
X12931967Y-15664484D01*
X12931967Y-15664484D02*
X12865301Y-15740674D01*
X12865301Y-15740674D02*
X12893872Y-15740674D01*
X12893872Y-15740674D02*
X12912920Y-15750198D01*
X12912920Y-15750198D02*
X12922444Y-15759722D01*
X12922444Y-15759722D02*
X12931967Y-15778769D01*
X12931967Y-15778769D02*
X12931967Y-15826388D01*
X12931967Y-15826388D02*
X12922444Y-15845436D01*
X12922444Y-15845436D02*
X12912920Y-15854960D01*
X12912920Y-15854960D02*
X12893872Y-15864484D01*
X12893872Y-15864484D02*
X12836729Y-15864484D01*
X12836729Y-15864484D02*
X12817682Y-15854960D01*
X12817682Y-15854960D02*
X12808158Y-15845436D01*
X13103396Y-15664484D02*
X13065301Y-15664484D01*
X13065301Y-15664484D02*
X13046253Y-15674008D01*
X13046253Y-15674008D02*
X13036729Y-15683531D01*
X13036729Y-15683531D02*
X13017682Y-15712103D01*
X13017682Y-15712103D02*
X13008158Y-15750198D01*
X13008158Y-15750198D02*
X13008158Y-15826388D01*
X13008158Y-15826388D02*
X13017682Y-15845436D01*
X13017682Y-15845436D02*
X13027206Y-15854960D01*
X13027206Y-15854960D02*
X13046253Y-15864484D01*
X13046253Y-15864484D02*
X13084348Y-15864484D01*
X13084348Y-15864484D02*
X13103396Y-15854960D01*
X13103396Y-15854960D02*
X13112920Y-15845436D01*
X13112920Y-15845436D02*
X13122444Y-15826388D01*
X13122444Y-15826388D02*
X13122444Y-15778769D01*
X13122444Y-15778769D02*
X13112920Y-15759722D01*
X13112920Y-15759722D02*
X13103396Y-15750198D01*
X13103396Y-15750198D02*
X13084348Y-15740674D01*
X13084348Y-15740674D02*
X13046253Y-15740674D01*
X13046253Y-15740674D02*
X13027206Y-15750198D01*
X13027206Y-15750198D02*
X13017682Y-15759722D01*
X13017682Y-15759722D02*
X13008158Y-15778769D01*
X13198634Y-15664484D02*
X13198634Y-15702579D01*
X13274825Y-15664484D02*
X13274825Y-15702579D01*
X13570063Y-15940674D02*
X13560539Y-15931150D01*
X13560539Y-15931150D02*
X13541491Y-15902579D01*
X13541491Y-15902579D02*
X13531968Y-15883531D01*
X13531968Y-15883531D02*
X13522444Y-15854960D01*
X13522444Y-15854960D02*
X13512920Y-15807341D01*
X13512920Y-15807341D02*
X13512920Y-15769246D01*
X13512920Y-15769246D02*
X13522444Y-15721627D01*
X13522444Y-15721627D02*
X13531968Y-15693055D01*
X13531968Y-15693055D02*
X13541491Y-15674008D01*
X13541491Y-15674008D02*
X13560539Y-15645436D01*
X13560539Y-15645436D02*
X13570063Y-15635912D01*
X13684348Y-15664484D02*
X13703396Y-15664484D01*
X13703396Y-15664484D02*
X13722444Y-15674008D01*
X13722444Y-15674008D02*
X13731968Y-15683531D01*
X13731968Y-15683531D02*
X13741491Y-15702579D01*
X13741491Y-15702579D02*
X13751015Y-15740674D01*
X13751015Y-15740674D02*
X13751015Y-15788293D01*
X13751015Y-15788293D02*
X13741491Y-15826388D01*
X13741491Y-15826388D02*
X13731968Y-15845436D01*
X13731968Y-15845436D02*
X13722444Y-15854960D01*
X13722444Y-15854960D02*
X13703396Y-15864484D01*
X13703396Y-15864484D02*
X13684348Y-15864484D01*
X13684348Y-15864484D02*
X13665301Y-15854960D01*
X13665301Y-15854960D02*
X13655777Y-15845436D01*
X13655777Y-15845436D02*
X13646253Y-15826388D01*
X13646253Y-15826388D02*
X13636729Y-15788293D01*
X13636729Y-15788293D02*
X13636729Y-15740674D01*
X13636729Y-15740674D02*
X13646253Y-15702579D01*
X13646253Y-15702579D02*
X13655777Y-15683531D01*
X13655777Y-15683531D02*
X13665301Y-15674008D01*
X13665301Y-15674008D02*
X13684348Y-15664484D01*
X13989110Y-15864484D02*
X13989110Y-15664484D01*
X14074825Y-15864484D02*
X14074825Y-15759722D01*
X14074825Y-15759722D02*
X14065301Y-15740674D01*
X14065301Y-15740674D02*
X14046253Y-15731150D01*
X14046253Y-15731150D02*
X14017682Y-15731150D01*
X14017682Y-15731150D02*
X13998634Y-15740674D01*
X13998634Y-15740674D02*
X13989110Y-15750198D01*
X14198634Y-15864484D02*
X14179587Y-15854960D01*
X14179587Y-15854960D02*
X14170063Y-15845436D01*
X14170063Y-15845436D02*
X14160539Y-15826388D01*
X14160539Y-15826388D02*
X14160539Y-15769246D01*
X14160539Y-15769246D02*
X14170063Y-15750198D01*
X14170063Y-15750198D02*
X14179587Y-15740674D01*
X14179587Y-15740674D02*
X14198634Y-15731150D01*
X14198634Y-15731150D02*
X14227206Y-15731150D01*
X14227206Y-15731150D02*
X14246253Y-15740674D01*
X14246253Y-15740674D02*
X14255777Y-15750198D01*
X14255777Y-15750198D02*
X14265301Y-15769246D01*
X14265301Y-15769246D02*
X14265301Y-15826388D01*
X14265301Y-15826388D02*
X14255777Y-15845436D01*
X14255777Y-15845436D02*
X14246253Y-15854960D01*
X14246253Y-15854960D02*
X14227206Y-15864484D01*
X14227206Y-15864484D02*
X14198634Y-15864484D01*
X14379587Y-15864484D02*
X14360539Y-15854960D01*
X14360539Y-15854960D02*
X14351015Y-15835912D01*
X14351015Y-15835912D02*
X14351015Y-15664484D01*
X14531968Y-15854960D02*
X14512920Y-15864484D01*
X14512920Y-15864484D02*
X14474825Y-15864484D01*
X14474825Y-15864484D02*
X14455777Y-15854960D01*
X14455777Y-15854960D02*
X14446253Y-15835912D01*
X14446253Y-15835912D02*
X14446253Y-15759722D01*
X14446253Y-15759722D02*
X14455777Y-15740674D01*
X14455777Y-15740674D02*
X14474825Y-15731150D01*
X14474825Y-15731150D02*
X14512920Y-15731150D01*
X14512920Y-15731150D02*
X14531968Y-15740674D01*
X14531968Y-15740674D02*
X14541491Y-15759722D01*
X14541491Y-15759722D02*
X14541491Y-15778769D01*
X14541491Y-15778769D02*
X14446253Y-15797817D01*
X14617682Y-15854960D02*
X14636730Y-15864484D01*
X14636730Y-15864484D02*
X14674825Y-15864484D01*
X14674825Y-15864484D02*
X14693872Y-15854960D01*
X14693872Y-15854960D02*
X14703396Y-15835912D01*
X14703396Y-15835912D02*
X14703396Y-15826388D01*
X14703396Y-15826388D02*
X14693872Y-15807341D01*
X14693872Y-15807341D02*
X14674825Y-15797817D01*
X14674825Y-15797817D02*
X14646253Y-15797817D01*
X14646253Y-15797817D02*
X14627206Y-15788293D01*
X14627206Y-15788293D02*
X14617682Y-15769246D01*
X14617682Y-15769246D02*
X14617682Y-15759722D01*
X14617682Y-15759722D02*
X14627206Y-15740674D01*
X14627206Y-15740674D02*
X14646253Y-15731150D01*
X14646253Y-15731150D02*
X14674825Y-15731150D01*
X14674825Y-15731150D02*
X14693872Y-15740674D01*
X14941492Y-15788293D02*
X15093873Y-15788293D01*
X15017682Y-15864484D02*
X15017682Y-15712103D01*
X15427206Y-15731150D02*
X15427206Y-15864484D01*
X15379587Y-15654960D02*
X15331968Y-15797817D01*
X15331968Y-15797817D02*
X15455777Y-15797817D01*
X15674825Y-15854960D02*
X15693873Y-15864484D01*
X15693873Y-15864484D02*
X15731968Y-15864484D01*
X15731968Y-15864484D02*
X15751015Y-15854960D01*
X15751015Y-15854960D02*
X15760539Y-15835912D01*
X15760539Y-15835912D02*
X15760539Y-15826388D01*
X15760539Y-15826388D02*
X15751015Y-15807341D01*
X15751015Y-15807341D02*
X15731968Y-15797817D01*
X15731968Y-15797817D02*
X15703396Y-15797817D01*
X15703396Y-15797817D02*
X15684349Y-15788293D01*
X15684349Y-15788293D02*
X15674825Y-15769246D01*
X15674825Y-15769246D02*
X15674825Y-15759722D01*
X15674825Y-15759722D02*
X15684349Y-15740674D01*
X15684349Y-15740674D02*
X15703396Y-15731150D01*
X15703396Y-15731150D02*
X15731968Y-15731150D01*
X15731968Y-15731150D02*
X15751015Y-15740674D01*
X15874825Y-15864484D02*
X15855777Y-15854960D01*
X15855777Y-15854960D02*
X15846254Y-15835912D01*
X15846254Y-15835912D02*
X15846254Y-15664484D01*
X15979587Y-15864484D02*
X15960539Y-15854960D01*
X15960539Y-15854960D02*
X15951015Y-15845436D01*
X15951015Y-15845436D02*
X15941492Y-15826388D01*
X15941492Y-15826388D02*
X15941492Y-15769246D01*
X15941492Y-15769246D02*
X15951015Y-15750198D01*
X15951015Y-15750198D02*
X15960539Y-15740674D01*
X15960539Y-15740674D02*
X15979587Y-15731150D01*
X15979587Y-15731150D02*
X16008158Y-15731150D01*
X16008158Y-15731150D02*
X16027206Y-15740674D01*
X16027206Y-15740674D02*
X16036730Y-15750198D01*
X16036730Y-15750198D02*
X16046254Y-15769246D01*
X16046254Y-15769246D02*
X16046254Y-15826388D01*
X16046254Y-15826388D02*
X16036730Y-15845436D01*
X16036730Y-15845436D02*
X16027206Y-15854960D01*
X16027206Y-15854960D02*
X16008158Y-15864484D01*
X16008158Y-15864484D02*
X15979587Y-15864484D01*
X16103396Y-15731150D02*
X16179587Y-15731150D01*
X16131968Y-15664484D02*
X16131968Y-15835912D01*
X16131968Y-15835912D02*
X16141492Y-15854960D01*
X16141492Y-15854960D02*
X16160539Y-15864484D01*
X16160539Y-15864484D02*
X16179587Y-15864484D01*
X16236730Y-15854960D02*
X16255777Y-15864484D01*
X16255777Y-15864484D02*
X16293873Y-15864484D01*
X16293873Y-15864484D02*
X16312920Y-15854960D01*
X16312920Y-15854960D02*
X16322444Y-15835912D01*
X16322444Y-15835912D02*
X16322444Y-15826388D01*
X16322444Y-15826388D02*
X16312920Y-15807341D01*
X16312920Y-15807341D02*
X16293873Y-15797817D01*
X16293873Y-15797817D02*
X16265301Y-15797817D01*
X16265301Y-15797817D02*
X16246254Y-15788293D01*
X16246254Y-15788293D02*
X16236730Y-15769246D01*
X16236730Y-15769246D02*
X16236730Y-15759722D01*
X16236730Y-15759722D02*
X16246254Y-15740674D01*
X16246254Y-15740674D02*
X16265301Y-15731150D01*
X16265301Y-15731150D02*
X16293873Y-15731150D01*
X16293873Y-15731150D02*
X16312920Y-15740674D01*
X16389111Y-15940674D02*
X16398635Y-15931150D01*
X16398635Y-15931150D02*
X16417682Y-15902579D01*
X16417682Y-15902579D02*
X16427206Y-15883531D01*
X16427206Y-15883531D02*
X16436730Y-15854960D01*
X16436730Y-15854960D02*
X16446254Y-15807341D01*
X16446254Y-15807341D02*
X16446254Y-15769246D01*
X16446254Y-15769246D02*
X16436730Y-15721627D01*
X16436730Y-15721627D02*
X16427206Y-15693055D01*
X16427206Y-15693055D02*
X16417682Y-15674008D01*
X16417682Y-15674008D02*
X16398635Y-15645436D01*
X16398635Y-15645436D02*
X16389111Y-15635912D01*
D10*
X9984749Y-16061750D02*
X9984749Y-16012250D01*
X9935249Y-16012250D01*
X9935249Y-16061750D01*
X9984749Y-16061750D01*
D11*
X10293872Y-15928484D02*
X10312920Y-15928484D01*
X10312920Y-15928484D02*
X10331967Y-15938008D01*
X10331967Y-15938008D02*
X10341491Y-15947531D01*
X10341491Y-15947531D02*
X10351015Y-15966579D01*
X10351015Y-15966579D02*
X10360539Y-16004674D01*
X10360539Y-16004674D02*
X10360539Y-16052293D01*
X10360539Y-16052293D02*
X10351015Y-16090388D01*
X10351015Y-16090388D02*
X10341491Y-16109436D01*
X10341491Y-16109436D02*
X10331967Y-16118960D01*
X10331967Y-16118960D02*
X10312920Y-16128484D01*
X10312920Y-16128484D02*
X10293872Y-16128484D01*
X10293872Y-16128484D02*
X10274824Y-16118960D01*
X10274824Y-16118960D02*
X10265301Y-16109436D01*
X10265301Y-16109436D02*
X10255777Y-16090388D01*
X10255777Y-16090388D02*
X10246253Y-16052293D01*
X10246253Y-16052293D02*
X10246253Y-16004674D01*
X10246253Y-16004674D02*
X10255777Y-15966579D01*
X10255777Y-15966579D02*
X10265301Y-15947531D01*
X10265301Y-15947531D02*
X10274824Y-15938008D01*
X10274824Y-15938008D02*
X10293872Y-15928484D01*
X10446253Y-16109436D02*
X10455777Y-16118960D01*
X10455777Y-16118960D02*
X10446253Y-16128484D01*
X10446253Y-16128484D02*
X10436729Y-16118960D01*
X10436729Y-16118960D02*
X10446253Y-16109436D01*
X10446253Y-16109436D02*
X10446253Y-16128484D01*
X10522444Y-15928484D02*
X10655777Y-15928484D01*
X10655777Y-15928484D02*
X10570063Y-16128484D01*
X10770063Y-15928484D02*
X10789110Y-15928484D01*
X10789110Y-15928484D02*
X10808158Y-15938008D01*
X10808158Y-15938008D02*
X10817682Y-15947531D01*
X10817682Y-15947531D02*
X10827205Y-15966579D01*
X10827205Y-15966579D02*
X10836729Y-16004674D01*
X10836729Y-16004674D02*
X10836729Y-16052293D01*
X10836729Y-16052293D02*
X10827205Y-16090388D01*
X10827205Y-16090388D02*
X10817682Y-16109436D01*
X10817682Y-16109436D02*
X10808158Y-16118960D01*
X10808158Y-16118960D02*
X10789110Y-16128484D01*
X10789110Y-16128484D02*
X10770063Y-16128484D01*
X10770063Y-16128484D02*
X10751015Y-16118960D01*
X10751015Y-16118960D02*
X10741491Y-16109436D01*
X10741491Y-16109436D02*
X10731967Y-16090388D01*
X10731967Y-16090388D02*
X10722444Y-16052293D01*
X10722444Y-16052293D02*
X10722444Y-16004674D01*
X10722444Y-16004674D02*
X10731967Y-15966579D01*
X10731967Y-15966579D02*
X10741491Y-15947531D01*
X10741491Y-15947531D02*
X10751015Y-15938008D01*
X10751015Y-15938008D02*
X10770063Y-15928484D01*
X10960539Y-15928484D02*
X10979586Y-15928484D01*
X10979586Y-15928484D02*
X10998634Y-15938008D01*
X10998634Y-15938008D02*
X11008158Y-15947531D01*
X11008158Y-15947531D02*
X11017682Y-15966579D01*
X11017682Y-15966579D02*
X11027205Y-16004674D01*
X11027205Y-16004674D02*
X11027205Y-16052293D01*
X11027205Y-16052293D02*
X11017682Y-16090388D01*
X11017682Y-16090388D02*
X11008158Y-16109436D01*
X11008158Y-16109436D02*
X10998634Y-16118960D01*
X10998634Y-16118960D02*
X10979586Y-16128484D01*
X10979586Y-16128484D02*
X10960539Y-16128484D01*
X10960539Y-16128484D02*
X10941491Y-16118960D01*
X10941491Y-16118960D02*
X10931967Y-16109436D01*
X10931967Y-16109436D02*
X10922444Y-16090388D01*
X10922444Y-16090388D02*
X10912920Y-16052293D01*
X10912920Y-16052293D02*
X10912920Y-16004674D01*
X10912920Y-16004674D02*
X10922444Y-15966579D01*
X10922444Y-15966579D02*
X10931967Y-15947531D01*
X10931967Y-15947531D02*
X10941491Y-15938008D01*
X10941491Y-15938008D02*
X10960539Y-15928484D01*
X11112920Y-16128484D02*
X11112920Y-15995150D01*
X11112920Y-16014198D02*
X11122444Y-16004674D01*
X11122444Y-16004674D02*
X11141491Y-15995150D01*
X11141491Y-15995150D02*
X11170063Y-15995150D01*
X11170063Y-15995150D02*
X11189110Y-16004674D01*
X11189110Y-16004674D02*
X11198634Y-16023722D01*
X11198634Y-16023722D02*
X11198634Y-16128484D01*
X11198634Y-16023722D02*
X11208158Y-16004674D01*
X11208158Y-16004674D02*
X11227205Y-15995150D01*
X11227205Y-15995150D02*
X11255777Y-15995150D01*
X11255777Y-15995150D02*
X11274824Y-16004674D01*
X11274824Y-16004674D02*
X11284348Y-16023722D01*
X11284348Y-16023722D02*
X11284348Y-16128484D01*
X11379586Y-16128484D02*
X11379586Y-15995150D01*
X11379586Y-16014198D02*
X11389110Y-16004674D01*
X11389110Y-16004674D02*
X11408158Y-15995150D01*
X11408158Y-15995150D02*
X11436729Y-15995150D01*
X11436729Y-15995150D02*
X11455777Y-16004674D01*
X11455777Y-16004674D02*
X11465301Y-16023722D01*
X11465301Y-16023722D02*
X11465301Y-16128484D01*
X11465301Y-16023722D02*
X11474824Y-16004674D01*
X11474824Y-16004674D02*
X11493872Y-15995150D01*
X11493872Y-15995150D02*
X11522443Y-15995150D01*
X11522443Y-15995150D02*
X11541491Y-16004674D01*
X11541491Y-16004674D02*
X11551015Y-16023722D01*
X11551015Y-16023722D02*
X11551015Y-16128484D01*
X11941491Y-15918960D02*
X11770063Y-16176103D01*
X12198634Y-15928484D02*
X12217682Y-15928484D01*
X12217682Y-15928484D02*
X12236729Y-15938008D01*
X12236729Y-15938008D02*
X12246253Y-15947531D01*
X12246253Y-15947531D02*
X12255777Y-15966579D01*
X12255777Y-15966579D02*
X12265301Y-16004674D01*
X12265301Y-16004674D02*
X12265301Y-16052293D01*
X12265301Y-16052293D02*
X12255777Y-16090388D01*
X12255777Y-16090388D02*
X12246253Y-16109436D01*
X12246253Y-16109436D02*
X12236729Y-16118960D01*
X12236729Y-16118960D02*
X12217682Y-16128484D01*
X12217682Y-16128484D02*
X12198634Y-16128484D01*
X12198634Y-16128484D02*
X12179586Y-16118960D01*
X12179586Y-16118960D02*
X12170063Y-16109436D01*
X12170063Y-16109436D02*
X12160539Y-16090388D01*
X12160539Y-16090388D02*
X12151015Y-16052293D01*
X12151015Y-16052293D02*
X12151015Y-16004674D01*
X12151015Y-16004674D02*
X12160539Y-15966579D01*
X12160539Y-15966579D02*
X12170063Y-15947531D01*
X12170063Y-15947531D02*
X12179586Y-15938008D01*
X12179586Y-15938008D02*
X12198634Y-15928484D01*
X12351015Y-16109436D02*
X12360539Y-16118960D01*
X12360539Y-16118960D02*
X12351015Y-16128484D01*
X12351015Y-16128484D02*
X12341491Y-16118960D01*
X12341491Y-16118960D02*
X12351015Y-16109436D01*
X12351015Y-16109436D02*
X12351015Y-16128484D01*
X12484348Y-15928484D02*
X12503396Y-15928484D01*
X12503396Y-15928484D02*
X12522444Y-15938008D01*
X12522444Y-15938008D02*
X12531967Y-15947531D01*
X12531967Y-15947531D02*
X12541491Y-15966579D01*
X12541491Y-15966579D02*
X12551015Y-16004674D01*
X12551015Y-16004674D02*
X12551015Y-16052293D01*
X12551015Y-16052293D02*
X12541491Y-16090388D01*
X12541491Y-16090388D02*
X12531967Y-16109436D01*
X12531967Y-16109436D02*
X12522444Y-16118960D01*
X12522444Y-16118960D02*
X12503396Y-16128484D01*
X12503396Y-16128484D02*
X12484348Y-16128484D01*
X12484348Y-16128484D02*
X12465301Y-16118960D01*
X12465301Y-16118960D02*
X12455777Y-16109436D01*
X12455777Y-16109436D02*
X12446253Y-16090388D01*
X12446253Y-16090388D02*
X12436729Y-16052293D01*
X12436729Y-16052293D02*
X12436729Y-16004674D01*
X12436729Y-16004674D02*
X12446253Y-15966579D01*
X12446253Y-15966579D02*
X12455777Y-15947531D01*
X12455777Y-15947531D02*
X12465301Y-15938008D01*
X12465301Y-15938008D02*
X12484348Y-15928484D01*
X12627206Y-15947531D02*
X12636729Y-15938008D01*
X12636729Y-15938008D02*
X12655777Y-15928484D01*
X12655777Y-15928484D02*
X12703396Y-15928484D01*
X12703396Y-15928484D02*
X12722444Y-15938008D01*
X12722444Y-15938008D02*
X12731967Y-15947531D01*
X12731967Y-15947531D02*
X12741491Y-15966579D01*
X12741491Y-15966579D02*
X12741491Y-15985627D01*
X12741491Y-15985627D02*
X12731967Y-16014198D01*
X12731967Y-16014198D02*
X12617682Y-16128484D01*
X12617682Y-16128484D02*
X12741491Y-16128484D01*
X12808158Y-15928484D02*
X12941491Y-15928484D01*
X12941491Y-15928484D02*
X12855777Y-16128484D01*
X13103396Y-15928484D02*
X13065301Y-15928484D01*
X13065301Y-15928484D02*
X13046253Y-15938008D01*
X13046253Y-15938008D02*
X13036729Y-15947531D01*
X13036729Y-15947531D02*
X13017682Y-15976103D01*
X13017682Y-15976103D02*
X13008158Y-16014198D01*
X13008158Y-16014198D02*
X13008158Y-16090388D01*
X13008158Y-16090388D02*
X13017682Y-16109436D01*
X13017682Y-16109436D02*
X13027206Y-16118960D01*
X13027206Y-16118960D02*
X13046253Y-16128484D01*
X13046253Y-16128484D02*
X13084348Y-16128484D01*
X13084348Y-16128484D02*
X13103396Y-16118960D01*
X13103396Y-16118960D02*
X13112920Y-16109436D01*
X13112920Y-16109436D02*
X13122444Y-16090388D01*
X13122444Y-16090388D02*
X13122444Y-16042769D01*
X13122444Y-16042769D02*
X13112920Y-16023722D01*
X13112920Y-16023722D02*
X13103396Y-16014198D01*
X13103396Y-16014198D02*
X13084348Y-16004674D01*
X13084348Y-16004674D02*
X13046253Y-16004674D01*
X13046253Y-16004674D02*
X13027206Y-16014198D01*
X13027206Y-16014198D02*
X13017682Y-16023722D01*
X13017682Y-16023722D02*
X13008158Y-16042769D01*
X13198634Y-15928484D02*
X13198634Y-15966579D01*
X13274825Y-15928484D02*
X13274825Y-15966579D01*
X13570063Y-16204674D02*
X13560539Y-16195150D01*
X13560539Y-16195150D02*
X13541491Y-16166579D01*
X13541491Y-16166579D02*
X13531968Y-16147531D01*
X13531968Y-16147531D02*
X13522444Y-16118960D01*
X13522444Y-16118960D02*
X13512920Y-16071341D01*
X13512920Y-16071341D02*
X13512920Y-16033246D01*
X13512920Y-16033246D02*
X13522444Y-15985627D01*
X13522444Y-15985627D02*
X13531968Y-15957055D01*
X13531968Y-15957055D02*
X13541491Y-15938008D01*
X13541491Y-15938008D02*
X13560539Y-15909436D01*
X13560539Y-15909436D02*
X13570063Y-15899912D01*
X13636729Y-15947531D02*
X13646253Y-15938008D01*
X13646253Y-15938008D02*
X13665301Y-15928484D01*
X13665301Y-15928484D02*
X13712920Y-15928484D01*
X13712920Y-15928484D02*
X13731968Y-15938008D01*
X13731968Y-15938008D02*
X13741491Y-15947531D01*
X13741491Y-15947531D02*
X13751015Y-15966579D01*
X13751015Y-15966579D02*
X13751015Y-15985627D01*
X13751015Y-15985627D02*
X13741491Y-16014198D01*
X13741491Y-16014198D02*
X13627206Y-16128484D01*
X13627206Y-16128484D02*
X13751015Y-16128484D01*
X13989110Y-16128484D02*
X13989110Y-15928484D01*
X14074825Y-16128484D02*
X14074825Y-16023722D01*
X14074825Y-16023722D02*
X14065301Y-16004674D01*
X14065301Y-16004674D02*
X14046253Y-15995150D01*
X14046253Y-15995150D02*
X14017682Y-15995150D01*
X14017682Y-15995150D02*
X13998634Y-16004674D01*
X13998634Y-16004674D02*
X13989110Y-16014198D01*
X14198634Y-16128484D02*
X14179587Y-16118960D01*
X14179587Y-16118960D02*
X14170063Y-16109436D01*
X14170063Y-16109436D02*
X14160539Y-16090388D01*
X14160539Y-16090388D02*
X14160539Y-16033246D01*
X14160539Y-16033246D02*
X14170063Y-16014198D01*
X14170063Y-16014198D02*
X14179587Y-16004674D01*
X14179587Y-16004674D02*
X14198634Y-15995150D01*
X14198634Y-15995150D02*
X14227206Y-15995150D01*
X14227206Y-15995150D02*
X14246253Y-16004674D01*
X14246253Y-16004674D02*
X14255777Y-16014198D01*
X14255777Y-16014198D02*
X14265301Y-16033246D01*
X14265301Y-16033246D02*
X14265301Y-16090388D01*
X14265301Y-16090388D02*
X14255777Y-16109436D01*
X14255777Y-16109436D02*
X14246253Y-16118960D01*
X14246253Y-16118960D02*
X14227206Y-16128484D01*
X14227206Y-16128484D02*
X14198634Y-16128484D01*
X14379587Y-16128484D02*
X14360539Y-16118960D01*
X14360539Y-16118960D02*
X14351015Y-16099912D01*
X14351015Y-16099912D02*
X14351015Y-15928484D01*
X14531968Y-16118960D02*
X14512920Y-16128484D01*
X14512920Y-16128484D02*
X14474825Y-16128484D01*
X14474825Y-16128484D02*
X14455777Y-16118960D01*
X14455777Y-16118960D02*
X14446253Y-16099912D01*
X14446253Y-16099912D02*
X14446253Y-16023722D01*
X14446253Y-16023722D02*
X14455777Y-16004674D01*
X14455777Y-16004674D02*
X14474825Y-15995150D01*
X14474825Y-15995150D02*
X14512920Y-15995150D01*
X14512920Y-15995150D02*
X14531968Y-16004674D01*
X14531968Y-16004674D02*
X14541491Y-16023722D01*
X14541491Y-16023722D02*
X14541491Y-16042769D01*
X14541491Y-16042769D02*
X14446253Y-16061817D01*
X14617682Y-16118960D02*
X14636730Y-16128484D01*
X14636730Y-16128484D02*
X14674825Y-16128484D01*
X14674825Y-16128484D02*
X14693872Y-16118960D01*
X14693872Y-16118960D02*
X14703396Y-16099912D01*
X14703396Y-16099912D02*
X14703396Y-16090388D01*
X14703396Y-16090388D02*
X14693872Y-16071341D01*
X14693872Y-16071341D02*
X14674825Y-16061817D01*
X14674825Y-16061817D02*
X14646253Y-16061817D01*
X14646253Y-16061817D02*
X14627206Y-16052293D01*
X14627206Y-16052293D02*
X14617682Y-16033246D01*
X14617682Y-16033246D02*
X14617682Y-16023722D01*
X14617682Y-16023722D02*
X14627206Y-16004674D01*
X14627206Y-16004674D02*
X14646253Y-15995150D01*
X14646253Y-15995150D02*
X14674825Y-15995150D01*
X14674825Y-15995150D02*
X14693872Y-16004674D01*
X14770063Y-16204674D02*
X14779587Y-16195150D01*
X14779587Y-16195150D02*
X14798634Y-16166579D01*
X14798634Y-16166579D02*
X14808158Y-16147531D01*
X14808158Y-16147531D02*
X14817682Y-16118960D01*
X14817682Y-16118960D02*
X14827206Y-16071341D01*
X14827206Y-16071341D02*
X14827206Y-16033246D01*
X14827206Y-16033246D02*
X14817682Y-15985627D01*
X14817682Y-15985627D02*
X14808158Y-15957055D01*
X14808158Y-15957055D02*
X14798634Y-15938008D01*
X14798634Y-15938008D02*
X14779587Y-15909436D01*
X14779587Y-15909436D02*
X14770063Y-15899912D01*
X15131968Y-16204674D02*
X15122444Y-16195150D01*
X15122444Y-16195150D02*
X15103396Y-16166579D01*
X15103396Y-16166579D02*
X15093872Y-16147531D01*
X15093872Y-16147531D02*
X15084349Y-16118960D01*
X15084349Y-16118960D02*
X15074825Y-16071341D01*
X15074825Y-16071341D02*
X15074825Y-16033246D01*
X15074825Y-16033246D02*
X15084349Y-15985627D01*
X15084349Y-15985627D02*
X15093872Y-15957055D01*
X15093872Y-15957055D02*
X15103396Y-15938008D01*
X15103396Y-15938008D02*
X15122444Y-15909436D01*
X15122444Y-15909436D02*
X15131968Y-15899912D01*
X15208158Y-15995150D02*
X15208158Y-16128484D01*
X15208158Y-16014198D02*
X15217682Y-16004674D01*
X15217682Y-16004674D02*
X15236730Y-15995150D01*
X15236730Y-15995150D02*
X15265301Y-15995150D01*
X15265301Y-15995150D02*
X15284349Y-16004674D01*
X15284349Y-16004674D02*
X15293872Y-16023722D01*
X15293872Y-16023722D02*
X15293872Y-16128484D01*
X15417682Y-16128484D02*
X15398634Y-16118960D01*
X15398634Y-16118960D02*
X15389111Y-16109436D01*
X15389111Y-16109436D02*
X15379587Y-16090388D01*
X15379587Y-16090388D02*
X15379587Y-16033246D01*
X15379587Y-16033246D02*
X15389111Y-16014198D01*
X15389111Y-16014198D02*
X15398634Y-16004674D01*
X15398634Y-16004674D02*
X15417682Y-15995150D01*
X15417682Y-15995150D02*
X15446253Y-15995150D01*
X15446253Y-15995150D02*
X15465301Y-16004674D01*
X15465301Y-16004674D02*
X15474825Y-16014198D01*
X15474825Y-16014198D02*
X15484349Y-16033246D01*
X15484349Y-16033246D02*
X15484349Y-16090388D01*
X15484349Y-16090388D02*
X15474825Y-16109436D01*
X15474825Y-16109436D02*
X15465301Y-16118960D01*
X15465301Y-16118960D02*
X15446253Y-16128484D01*
X15446253Y-16128484D02*
X15417682Y-16128484D01*
X15541492Y-15995150D02*
X15617682Y-15995150D01*
X15570063Y-15928484D02*
X15570063Y-16099912D01*
X15570063Y-16099912D02*
X15579587Y-16118960D01*
X15579587Y-16118960D02*
X15598634Y-16128484D01*
X15598634Y-16128484D02*
X15617682Y-16128484D01*
X15836730Y-15995150D02*
X15836730Y-16195150D01*
X15836730Y-16004674D02*
X15855777Y-15995150D01*
X15855777Y-15995150D02*
X15893873Y-15995150D01*
X15893873Y-15995150D02*
X15912920Y-16004674D01*
X15912920Y-16004674D02*
X15922444Y-16014198D01*
X15922444Y-16014198D02*
X15931968Y-16033246D01*
X15931968Y-16033246D02*
X15931968Y-16090388D01*
X15931968Y-16090388D02*
X15922444Y-16109436D01*
X15922444Y-16109436D02*
X15912920Y-16118960D01*
X15912920Y-16118960D02*
X15893873Y-16128484D01*
X15893873Y-16128484D02*
X15855777Y-16128484D01*
X15855777Y-16128484D02*
X15836730Y-16118960D01*
X16046253Y-16128484D02*
X16027206Y-16118960D01*
X16027206Y-16118960D02*
X16017682Y-16099912D01*
X16017682Y-16099912D02*
X16017682Y-15928484D01*
X16208158Y-16128484D02*
X16208158Y-16023722D01*
X16208158Y-16023722D02*
X16198634Y-16004674D01*
X16198634Y-16004674D02*
X16179587Y-15995150D01*
X16179587Y-15995150D02*
X16141492Y-15995150D01*
X16141492Y-15995150D02*
X16122444Y-16004674D01*
X16208158Y-16118960D02*
X16189111Y-16128484D01*
X16189111Y-16128484D02*
X16141492Y-16128484D01*
X16141492Y-16128484D02*
X16122444Y-16118960D01*
X16122444Y-16118960D02*
X16112920Y-16099912D01*
X16112920Y-16099912D02*
X16112920Y-16080865D01*
X16112920Y-16080865D02*
X16122444Y-16061817D01*
X16122444Y-16061817D02*
X16141492Y-16052293D01*
X16141492Y-16052293D02*
X16189111Y-16052293D01*
X16189111Y-16052293D02*
X16208158Y-16042769D01*
X16274825Y-15995150D02*
X16351015Y-15995150D01*
X16303396Y-15928484D02*
X16303396Y-16099912D01*
X16303396Y-16099912D02*
X16312920Y-16118960D01*
X16312920Y-16118960D02*
X16331968Y-16128484D01*
X16331968Y-16128484D02*
X16351015Y-16128484D01*
X16493873Y-16118960D02*
X16474825Y-16128484D01*
X16474825Y-16128484D02*
X16436730Y-16128484D01*
X16436730Y-16128484D02*
X16417682Y-16118960D01*
X16417682Y-16118960D02*
X16408158Y-16099912D01*
X16408158Y-16099912D02*
X16408158Y-16023722D01*
X16408158Y-16023722D02*
X16417682Y-16004674D01*
X16417682Y-16004674D02*
X16436730Y-15995150D01*
X16436730Y-15995150D02*
X16474825Y-15995150D01*
X16474825Y-15995150D02*
X16493873Y-16004674D01*
X16493873Y-16004674D02*
X16503396Y-16023722D01*
X16503396Y-16023722D02*
X16503396Y-16042769D01*
X16503396Y-16042769D02*
X16408158Y-16061817D01*
X16674825Y-16128484D02*
X16674825Y-15928484D01*
X16674825Y-16118960D02*
X16655777Y-16128484D01*
X16655777Y-16128484D02*
X16617682Y-16128484D01*
X16617682Y-16128484D02*
X16598634Y-16118960D01*
X16598634Y-16118960D02*
X16589111Y-16109436D01*
X16589111Y-16109436D02*
X16579587Y-16090388D01*
X16579587Y-16090388D02*
X16579587Y-16033246D01*
X16579587Y-16033246D02*
X16589111Y-16014198D01*
X16589111Y-16014198D02*
X16598634Y-16004674D01*
X16598634Y-16004674D02*
X16617682Y-15995150D01*
X16617682Y-15995150D02*
X16655777Y-15995150D01*
X16655777Y-15995150D02*
X16674825Y-16004674D01*
X16751015Y-16204674D02*
X16760539Y-16195150D01*
X16760539Y-16195150D02*
X16779587Y-16166579D01*
X16779587Y-16166579D02*
X16789111Y-16147531D01*
X16789111Y-16147531D02*
X16798635Y-16118960D01*
X16798635Y-16118960D02*
X16808158Y-16071341D01*
X16808158Y-16071341D02*
X16808158Y-16033246D01*
X16808158Y-16033246D02*
X16798635Y-15985627D01*
X16798635Y-15985627D02*
X16789111Y-15957055D01*
X16789111Y-15957055D02*
X16779587Y-15938008D01*
X16779587Y-15938008D02*
X16760539Y-15909436D01*
X16760539Y-15909436D02*
X16751015Y-15899912D01*
D10*
X9945000Y-16351000D02*
X9995000Y-16301000D01*
X9945000Y-16251000D01*
X9895000Y-16301000D01*
X9945000Y-16351000D01*
D11*
X10360539Y-16392484D02*
X10246253Y-16392484D01*
X10303396Y-16392484D02*
X10303396Y-16192484D01*
X10303396Y-16192484D02*
X10284348Y-16221055D01*
X10284348Y-16221055D02*
X10265301Y-16240103D01*
X10265301Y-16240103D02*
X10246253Y-16249627D01*
X10446253Y-16373436D02*
X10455777Y-16382960D01*
X10455777Y-16382960D02*
X10446253Y-16392484D01*
X10446253Y-16392484D02*
X10436729Y-16382960D01*
X10436729Y-16382960D02*
X10446253Y-16373436D01*
X10446253Y-16373436D02*
X10446253Y-16392484D01*
X10579586Y-16192484D02*
X10598634Y-16192484D01*
X10598634Y-16192484D02*
X10617682Y-16202008D01*
X10617682Y-16202008D02*
X10627205Y-16211531D01*
X10627205Y-16211531D02*
X10636729Y-16230579D01*
X10636729Y-16230579D02*
X10646253Y-16268674D01*
X10646253Y-16268674D02*
X10646253Y-16316293D01*
X10646253Y-16316293D02*
X10636729Y-16354388D01*
X10636729Y-16354388D02*
X10627205Y-16373436D01*
X10627205Y-16373436D02*
X10617682Y-16382960D01*
X10617682Y-16382960D02*
X10598634Y-16392484D01*
X10598634Y-16392484D02*
X10579586Y-16392484D01*
X10579586Y-16392484D02*
X10560539Y-16382960D01*
X10560539Y-16382960D02*
X10551015Y-16373436D01*
X10551015Y-16373436D02*
X10541491Y-16354388D01*
X10541491Y-16354388D02*
X10531967Y-16316293D01*
X10531967Y-16316293D02*
X10531967Y-16268674D01*
X10531967Y-16268674D02*
X10541491Y-16230579D01*
X10541491Y-16230579D02*
X10551015Y-16211531D01*
X10551015Y-16211531D02*
X10560539Y-16202008D01*
X10560539Y-16202008D02*
X10579586Y-16192484D01*
X10770063Y-16192484D02*
X10789110Y-16192484D01*
X10789110Y-16192484D02*
X10808158Y-16202008D01*
X10808158Y-16202008D02*
X10817682Y-16211531D01*
X10817682Y-16211531D02*
X10827205Y-16230579D01*
X10827205Y-16230579D02*
X10836729Y-16268674D01*
X10836729Y-16268674D02*
X10836729Y-16316293D01*
X10836729Y-16316293D02*
X10827205Y-16354388D01*
X10827205Y-16354388D02*
X10817682Y-16373436D01*
X10817682Y-16373436D02*
X10808158Y-16382960D01*
X10808158Y-16382960D02*
X10789110Y-16392484D01*
X10789110Y-16392484D02*
X10770063Y-16392484D01*
X10770063Y-16392484D02*
X10751015Y-16382960D01*
X10751015Y-16382960D02*
X10741491Y-16373436D01*
X10741491Y-16373436D02*
X10731967Y-16354388D01*
X10731967Y-16354388D02*
X10722444Y-16316293D01*
X10722444Y-16316293D02*
X10722444Y-16268674D01*
X10722444Y-16268674D02*
X10731967Y-16230579D01*
X10731967Y-16230579D02*
X10741491Y-16211531D01*
X10741491Y-16211531D02*
X10751015Y-16202008D01*
X10751015Y-16202008D02*
X10770063Y-16192484D01*
X10960539Y-16192484D02*
X10979586Y-16192484D01*
X10979586Y-16192484D02*
X10998634Y-16202008D01*
X10998634Y-16202008D02*
X11008158Y-16211531D01*
X11008158Y-16211531D02*
X11017682Y-16230579D01*
X11017682Y-16230579D02*
X11027205Y-16268674D01*
X11027205Y-16268674D02*
X11027205Y-16316293D01*
X11027205Y-16316293D02*
X11017682Y-16354388D01*
X11017682Y-16354388D02*
X11008158Y-16373436D01*
X11008158Y-16373436D02*
X10998634Y-16382960D01*
X10998634Y-16382960D02*
X10979586Y-16392484D01*
X10979586Y-16392484D02*
X10960539Y-16392484D01*
X10960539Y-16392484D02*
X10941491Y-16382960D01*
X10941491Y-16382960D02*
X10931967Y-16373436D01*
X10931967Y-16373436D02*
X10922444Y-16354388D01*
X10922444Y-16354388D02*
X10912920Y-16316293D01*
X10912920Y-16316293D02*
X10912920Y-16268674D01*
X10912920Y-16268674D02*
X10922444Y-16230579D01*
X10922444Y-16230579D02*
X10931967Y-16211531D01*
X10931967Y-16211531D02*
X10941491Y-16202008D01*
X10941491Y-16202008D02*
X10960539Y-16192484D01*
X11112920Y-16392484D02*
X11112920Y-16259150D01*
X11112920Y-16278198D02*
X11122444Y-16268674D01*
X11122444Y-16268674D02*
X11141491Y-16259150D01*
X11141491Y-16259150D02*
X11170063Y-16259150D01*
X11170063Y-16259150D02*
X11189110Y-16268674D01*
X11189110Y-16268674D02*
X11198634Y-16287722D01*
X11198634Y-16287722D02*
X11198634Y-16392484D01*
X11198634Y-16287722D02*
X11208158Y-16268674D01*
X11208158Y-16268674D02*
X11227205Y-16259150D01*
X11227205Y-16259150D02*
X11255777Y-16259150D01*
X11255777Y-16259150D02*
X11274824Y-16268674D01*
X11274824Y-16268674D02*
X11284348Y-16287722D01*
X11284348Y-16287722D02*
X11284348Y-16392484D01*
X11379586Y-16392484D02*
X11379586Y-16259150D01*
X11379586Y-16278198D02*
X11389110Y-16268674D01*
X11389110Y-16268674D02*
X11408158Y-16259150D01*
X11408158Y-16259150D02*
X11436729Y-16259150D01*
X11436729Y-16259150D02*
X11455777Y-16268674D01*
X11455777Y-16268674D02*
X11465301Y-16287722D01*
X11465301Y-16287722D02*
X11465301Y-16392484D01*
X11465301Y-16287722D02*
X11474824Y-16268674D01*
X11474824Y-16268674D02*
X11493872Y-16259150D01*
X11493872Y-16259150D02*
X11522443Y-16259150D01*
X11522443Y-16259150D02*
X11541491Y-16268674D01*
X11541491Y-16268674D02*
X11551015Y-16287722D01*
X11551015Y-16287722D02*
X11551015Y-16392484D01*
X11941491Y-16182960D02*
X11770063Y-16440103D01*
X12198634Y-16192484D02*
X12217682Y-16192484D01*
X12217682Y-16192484D02*
X12236729Y-16202008D01*
X12236729Y-16202008D02*
X12246253Y-16211531D01*
X12246253Y-16211531D02*
X12255777Y-16230579D01*
X12255777Y-16230579D02*
X12265301Y-16268674D01*
X12265301Y-16268674D02*
X12265301Y-16316293D01*
X12265301Y-16316293D02*
X12255777Y-16354388D01*
X12255777Y-16354388D02*
X12246253Y-16373436D01*
X12246253Y-16373436D02*
X12236729Y-16382960D01*
X12236729Y-16382960D02*
X12217682Y-16392484D01*
X12217682Y-16392484D02*
X12198634Y-16392484D01*
X12198634Y-16392484D02*
X12179586Y-16382960D01*
X12179586Y-16382960D02*
X12170063Y-16373436D01*
X12170063Y-16373436D02*
X12160539Y-16354388D01*
X12160539Y-16354388D02*
X12151015Y-16316293D01*
X12151015Y-16316293D02*
X12151015Y-16268674D01*
X12151015Y-16268674D02*
X12160539Y-16230579D01*
X12160539Y-16230579D02*
X12170063Y-16211531D01*
X12170063Y-16211531D02*
X12179586Y-16202008D01*
X12179586Y-16202008D02*
X12198634Y-16192484D01*
X12351015Y-16373436D02*
X12360539Y-16382960D01*
X12360539Y-16382960D02*
X12351015Y-16392484D01*
X12351015Y-16392484D02*
X12341491Y-16382960D01*
X12341491Y-16382960D02*
X12351015Y-16373436D01*
X12351015Y-16373436D02*
X12351015Y-16392484D01*
X12484348Y-16192484D02*
X12503396Y-16192484D01*
X12503396Y-16192484D02*
X12522444Y-16202008D01*
X12522444Y-16202008D02*
X12531967Y-16211531D01*
X12531967Y-16211531D02*
X12541491Y-16230579D01*
X12541491Y-16230579D02*
X12551015Y-16268674D01*
X12551015Y-16268674D02*
X12551015Y-16316293D01*
X12551015Y-16316293D02*
X12541491Y-16354388D01*
X12541491Y-16354388D02*
X12531967Y-16373436D01*
X12531967Y-16373436D02*
X12522444Y-16382960D01*
X12522444Y-16382960D02*
X12503396Y-16392484D01*
X12503396Y-16392484D02*
X12484348Y-16392484D01*
X12484348Y-16392484D02*
X12465301Y-16382960D01*
X12465301Y-16382960D02*
X12455777Y-16373436D01*
X12455777Y-16373436D02*
X12446253Y-16354388D01*
X12446253Y-16354388D02*
X12436729Y-16316293D01*
X12436729Y-16316293D02*
X12436729Y-16268674D01*
X12436729Y-16268674D02*
X12446253Y-16230579D01*
X12446253Y-16230579D02*
X12455777Y-16211531D01*
X12455777Y-16211531D02*
X12465301Y-16202008D01*
X12465301Y-16202008D02*
X12484348Y-16192484D01*
X12617682Y-16192484D02*
X12741491Y-16192484D01*
X12741491Y-16192484D02*
X12674825Y-16268674D01*
X12674825Y-16268674D02*
X12703396Y-16268674D01*
X12703396Y-16268674D02*
X12722444Y-16278198D01*
X12722444Y-16278198D02*
X12731967Y-16287722D01*
X12731967Y-16287722D02*
X12741491Y-16306769D01*
X12741491Y-16306769D02*
X12741491Y-16354388D01*
X12741491Y-16354388D02*
X12731967Y-16373436D01*
X12731967Y-16373436D02*
X12722444Y-16382960D01*
X12722444Y-16382960D02*
X12703396Y-16392484D01*
X12703396Y-16392484D02*
X12646253Y-16392484D01*
X12646253Y-16392484D02*
X12627206Y-16382960D01*
X12627206Y-16382960D02*
X12617682Y-16373436D01*
X12836729Y-16392484D02*
X12874825Y-16392484D01*
X12874825Y-16392484D02*
X12893872Y-16382960D01*
X12893872Y-16382960D02*
X12903396Y-16373436D01*
X12903396Y-16373436D02*
X12922444Y-16344865D01*
X12922444Y-16344865D02*
X12931967Y-16306769D01*
X12931967Y-16306769D02*
X12931967Y-16230579D01*
X12931967Y-16230579D02*
X12922444Y-16211531D01*
X12922444Y-16211531D02*
X12912920Y-16202008D01*
X12912920Y-16202008D02*
X12893872Y-16192484D01*
X12893872Y-16192484D02*
X12855777Y-16192484D01*
X12855777Y-16192484D02*
X12836729Y-16202008D01*
X12836729Y-16202008D02*
X12827206Y-16211531D01*
X12827206Y-16211531D02*
X12817682Y-16230579D01*
X12817682Y-16230579D02*
X12817682Y-16278198D01*
X12817682Y-16278198D02*
X12827206Y-16297246D01*
X12827206Y-16297246D02*
X12836729Y-16306769D01*
X12836729Y-16306769D02*
X12855777Y-16316293D01*
X12855777Y-16316293D02*
X12893872Y-16316293D01*
X12893872Y-16316293D02*
X12912920Y-16306769D01*
X12912920Y-16306769D02*
X12922444Y-16297246D01*
X12922444Y-16297246D02*
X12931967Y-16278198D01*
X13103396Y-16259150D02*
X13103396Y-16392484D01*
X13055777Y-16182960D02*
X13008158Y-16325817D01*
X13008158Y-16325817D02*
X13131967Y-16325817D01*
X13198634Y-16192484D02*
X13198634Y-16230579D01*
X13274825Y-16192484D02*
X13274825Y-16230579D01*
X13570063Y-16468674D02*
X13560539Y-16459150D01*
X13560539Y-16459150D02*
X13541491Y-16430579D01*
X13541491Y-16430579D02*
X13531968Y-16411531D01*
X13531968Y-16411531D02*
X13522444Y-16382960D01*
X13522444Y-16382960D02*
X13512920Y-16335341D01*
X13512920Y-16335341D02*
X13512920Y-16297246D01*
X13512920Y-16297246D02*
X13522444Y-16249627D01*
X13522444Y-16249627D02*
X13531968Y-16221055D01*
X13531968Y-16221055D02*
X13541491Y-16202008D01*
X13541491Y-16202008D02*
X13560539Y-16173436D01*
X13560539Y-16173436D02*
X13570063Y-16163912D01*
X13636729Y-16211531D02*
X13646253Y-16202008D01*
X13646253Y-16202008D02*
X13665301Y-16192484D01*
X13665301Y-16192484D02*
X13712920Y-16192484D01*
X13712920Y-16192484D02*
X13731968Y-16202008D01*
X13731968Y-16202008D02*
X13741491Y-16211531D01*
X13741491Y-16211531D02*
X13751015Y-16230579D01*
X13751015Y-16230579D02*
X13751015Y-16249627D01*
X13751015Y-16249627D02*
X13741491Y-16278198D01*
X13741491Y-16278198D02*
X13627206Y-16392484D01*
X13627206Y-16392484D02*
X13751015Y-16392484D01*
X13989110Y-16392484D02*
X13989110Y-16192484D01*
X14074825Y-16392484D02*
X14074825Y-16287722D01*
X14074825Y-16287722D02*
X14065301Y-16268674D01*
X14065301Y-16268674D02*
X14046253Y-16259150D01*
X14046253Y-16259150D02*
X14017682Y-16259150D01*
X14017682Y-16259150D02*
X13998634Y-16268674D01*
X13998634Y-16268674D02*
X13989110Y-16278198D01*
X14198634Y-16392484D02*
X14179587Y-16382960D01*
X14179587Y-16382960D02*
X14170063Y-16373436D01*
X14170063Y-16373436D02*
X14160539Y-16354388D01*
X14160539Y-16354388D02*
X14160539Y-16297246D01*
X14160539Y-16297246D02*
X14170063Y-16278198D01*
X14170063Y-16278198D02*
X14179587Y-16268674D01*
X14179587Y-16268674D02*
X14198634Y-16259150D01*
X14198634Y-16259150D02*
X14227206Y-16259150D01*
X14227206Y-16259150D02*
X14246253Y-16268674D01*
X14246253Y-16268674D02*
X14255777Y-16278198D01*
X14255777Y-16278198D02*
X14265301Y-16297246D01*
X14265301Y-16297246D02*
X14265301Y-16354388D01*
X14265301Y-16354388D02*
X14255777Y-16373436D01*
X14255777Y-16373436D02*
X14246253Y-16382960D01*
X14246253Y-16382960D02*
X14227206Y-16392484D01*
X14227206Y-16392484D02*
X14198634Y-16392484D01*
X14379587Y-16392484D02*
X14360539Y-16382960D01*
X14360539Y-16382960D02*
X14351015Y-16363912D01*
X14351015Y-16363912D02*
X14351015Y-16192484D01*
X14531968Y-16382960D02*
X14512920Y-16392484D01*
X14512920Y-16392484D02*
X14474825Y-16392484D01*
X14474825Y-16392484D02*
X14455777Y-16382960D01*
X14455777Y-16382960D02*
X14446253Y-16363912D01*
X14446253Y-16363912D02*
X14446253Y-16287722D01*
X14446253Y-16287722D02*
X14455777Y-16268674D01*
X14455777Y-16268674D02*
X14474825Y-16259150D01*
X14474825Y-16259150D02*
X14512920Y-16259150D01*
X14512920Y-16259150D02*
X14531968Y-16268674D01*
X14531968Y-16268674D02*
X14541491Y-16287722D01*
X14541491Y-16287722D02*
X14541491Y-16306769D01*
X14541491Y-16306769D02*
X14446253Y-16325817D01*
X14617682Y-16382960D02*
X14636730Y-16392484D01*
X14636730Y-16392484D02*
X14674825Y-16392484D01*
X14674825Y-16392484D02*
X14693872Y-16382960D01*
X14693872Y-16382960D02*
X14703396Y-16363912D01*
X14703396Y-16363912D02*
X14703396Y-16354388D01*
X14703396Y-16354388D02*
X14693872Y-16335341D01*
X14693872Y-16335341D02*
X14674825Y-16325817D01*
X14674825Y-16325817D02*
X14646253Y-16325817D01*
X14646253Y-16325817D02*
X14627206Y-16316293D01*
X14627206Y-16316293D02*
X14617682Y-16297246D01*
X14617682Y-16297246D02*
X14617682Y-16287722D01*
X14617682Y-16287722D02*
X14627206Y-16268674D01*
X14627206Y-16268674D02*
X14646253Y-16259150D01*
X14646253Y-16259150D02*
X14674825Y-16259150D01*
X14674825Y-16259150D02*
X14693872Y-16268674D01*
X14770063Y-16468674D02*
X14779587Y-16459150D01*
X14779587Y-16459150D02*
X14798634Y-16430579D01*
X14798634Y-16430579D02*
X14808158Y-16411531D01*
X14808158Y-16411531D02*
X14817682Y-16382960D01*
X14817682Y-16382960D02*
X14827206Y-16335341D01*
X14827206Y-16335341D02*
X14827206Y-16297246D01*
X14827206Y-16297246D02*
X14817682Y-16249627D01*
X14817682Y-16249627D02*
X14808158Y-16221055D01*
X14808158Y-16221055D02*
X14798634Y-16202008D01*
X14798634Y-16202008D02*
X14779587Y-16173436D01*
X14779587Y-16173436D02*
X14770063Y-16163912D01*
X15131968Y-16468674D02*
X15122444Y-16459150D01*
X15122444Y-16459150D02*
X15103396Y-16430579D01*
X15103396Y-16430579D02*
X15093872Y-16411531D01*
X15093872Y-16411531D02*
X15084349Y-16382960D01*
X15084349Y-16382960D02*
X15074825Y-16335341D01*
X15074825Y-16335341D02*
X15074825Y-16297246D01*
X15074825Y-16297246D02*
X15084349Y-16249627D01*
X15084349Y-16249627D02*
X15093872Y-16221055D01*
X15093872Y-16221055D02*
X15103396Y-16202008D01*
X15103396Y-16202008D02*
X15122444Y-16173436D01*
X15122444Y-16173436D02*
X15131968Y-16163912D01*
X15208158Y-16259150D02*
X15208158Y-16392484D01*
X15208158Y-16278198D02*
X15217682Y-16268674D01*
X15217682Y-16268674D02*
X15236730Y-16259150D01*
X15236730Y-16259150D02*
X15265301Y-16259150D01*
X15265301Y-16259150D02*
X15284349Y-16268674D01*
X15284349Y-16268674D02*
X15293872Y-16287722D01*
X15293872Y-16287722D02*
X15293872Y-16392484D01*
X15417682Y-16392484D02*
X15398634Y-16382960D01*
X15398634Y-16382960D02*
X15389111Y-16373436D01*
X15389111Y-16373436D02*
X15379587Y-16354388D01*
X15379587Y-16354388D02*
X15379587Y-16297246D01*
X15379587Y-16297246D02*
X15389111Y-16278198D01*
X15389111Y-16278198D02*
X15398634Y-16268674D01*
X15398634Y-16268674D02*
X15417682Y-16259150D01*
X15417682Y-16259150D02*
X15446253Y-16259150D01*
X15446253Y-16259150D02*
X15465301Y-16268674D01*
X15465301Y-16268674D02*
X15474825Y-16278198D01*
X15474825Y-16278198D02*
X15484349Y-16297246D01*
X15484349Y-16297246D02*
X15484349Y-16354388D01*
X15484349Y-16354388D02*
X15474825Y-16373436D01*
X15474825Y-16373436D02*
X15465301Y-16382960D01*
X15465301Y-16382960D02*
X15446253Y-16392484D01*
X15446253Y-16392484D02*
X15417682Y-16392484D01*
X15541492Y-16259150D02*
X15617682Y-16259150D01*
X15570063Y-16192484D02*
X15570063Y-16363912D01*
X15570063Y-16363912D02*
X15579587Y-16382960D01*
X15579587Y-16382960D02*
X15598634Y-16392484D01*
X15598634Y-16392484D02*
X15617682Y-16392484D01*
X15836730Y-16259150D02*
X15836730Y-16459150D01*
X15836730Y-16268674D02*
X15855777Y-16259150D01*
X15855777Y-16259150D02*
X15893873Y-16259150D01*
X15893873Y-16259150D02*
X15912920Y-16268674D01*
X15912920Y-16268674D02*
X15922444Y-16278198D01*
X15922444Y-16278198D02*
X15931968Y-16297246D01*
X15931968Y-16297246D02*
X15931968Y-16354388D01*
X15931968Y-16354388D02*
X15922444Y-16373436D01*
X15922444Y-16373436D02*
X15912920Y-16382960D01*
X15912920Y-16382960D02*
X15893873Y-16392484D01*
X15893873Y-16392484D02*
X15855777Y-16392484D01*
X15855777Y-16392484D02*
X15836730Y-16382960D01*
X16046253Y-16392484D02*
X16027206Y-16382960D01*
X16027206Y-16382960D02*
X16017682Y-16363912D01*
X16017682Y-16363912D02*
X16017682Y-16192484D01*
X16208158Y-16392484D02*
X16208158Y-16287722D01*
X16208158Y-16287722D02*
X16198634Y-16268674D01*
X16198634Y-16268674D02*
X16179587Y-16259150D01*
X16179587Y-16259150D02*
X16141492Y-16259150D01*
X16141492Y-16259150D02*
X16122444Y-16268674D01*
X16208158Y-16382960D02*
X16189111Y-16392484D01*
X16189111Y-16392484D02*
X16141492Y-16392484D01*
X16141492Y-16392484D02*
X16122444Y-16382960D01*
X16122444Y-16382960D02*
X16112920Y-16363912D01*
X16112920Y-16363912D02*
X16112920Y-16344865D01*
X16112920Y-16344865D02*
X16122444Y-16325817D01*
X16122444Y-16325817D02*
X16141492Y-16316293D01*
X16141492Y-16316293D02*
X16189111Y-16316293D01*
X16189111Y-16316293D02*
X16208158Y-16306769D01*
X16274825Y-16259150D02*
X16351015Y-16259150D01*
X16303396Y-16192484D02*
X16303396Y-16363912D01*
X16303396Y-16363912D02*
X16312920Y-16382960D01*
X16312920Y-16382960D02*
X16331968Y-16392484D01*
X16331968Y-16392484D02*
X16351015Y-16392484D01*
X16493873Y-16382960D02*
X16474825Y-16392484D01*
X16474825Y-16392484D02*
X16436730Y-16392484D01*
X16436730Y-16392484D02*
X16417682Y-16382960D01*
X16417682Y-16382960D02*
X16408158Y-16363912D01*
X16408158Y-16363912D02*
X16408158Y-16287722D01*
X16408158Y-16287722D02*
X16417682Y-16268674D01*
X16417682Y-16268674D02*
X16436730Y-16259150D01*
X16436730Y-16259150D02*
X16474825Y-16259150D01*
X16474825Y-16259150D02*
X16493873Y-16268674D01*
X16493873Y-16268674D02*
X16503396Y-16287722D01*
X16503396Y-16287722D02*
X16503396Y-16306769D01*
X16503396Y-16306769D02*
X16408158Y-16325817D01*
X16674825Y-16392484D02*
X16674825Y-16192484D01*
X16674825Y-16382960D02*
X16655777Y-16392484D01*
X16655777Y-16392484D02*
X16617682Y-16392484D01*
X16617682Y-16392484D02*
X16598634Y-16382960D01*
X16598634Y-16382960D02*
X16589111Y-16373436D01*
X16589111Y-16373436D02*
X16579587Y-16354388D01*
X16579587Y-16354388D02*
X16579587Y-16297246D01*
X16579587Y-16297246D02*
X16589111Y-16278198D01*
X16589111Y-16278198D02*
X16598634Y-16268674D01*
X16598634Y-16268674D02*
X16617682Y-16259150D01*
X16617682Y-16259150D02*
X16655777Y-16259150D01*
X16655777Y-16259150D02*
X16674825Y-16268674D01*
X16751015Y-16468674D02*
X16760539Y-16459150D01*
X16760539Y-16459150D02*
X16779587Y-16430579D01*
X16779587Y-16430579D02*
X16789111Y-16411531D01*
X16789111Y-16411531D02*
X16798635Y-16382960D01*
X16798635Y-16382960D02*
X16808158Y-16335341D01*
X16808158Y-16335341D02*
X16808158Y-16297246D01*
X16808158Y-16297246D02*
X16798635Y-16249627D01*
X16798635Y-16249627D02*
X16789111Y-16221055D01*
X16789111Y-16221055D02*
X16779587Y-16202008D01*
X16779587Y-16202008D02*
X16760539Y-16173436D01*
X16760539Y-16173436D02*
X16751015Y-16163912D01*
M02*
