%TF.GenerationSoftware,KiCad,Pcbnew,9.0.8+dfsg-1*%
%TF.CreationDate,2026-09-23T13:40:47+01:00*%
%TF.ProjectId,NAVCORE-SoOP,4e415643-4f52-4452-9d53-6f4f502e6b69,rev?*%
%TF.SameCoordinates,Original*%
%TF.FileFunction,Legend,Top*%
%TF.FilePolarity,Positive*%
%FSLAX46Y46*%
G04 Gerber Fmt 4.6, Leading zero omitted, Abs format (unit mm)*
G04 Created by KiCad (PCBNEW 9.0.8+dfsg-1) date 2026-09-23 13:40:47*
%MOMM*%
%LPD*%
G01*
G04 APERTURE LIST*
%ADD10C,0.120000*%
%ADD11C,0.150000*%
%ADD12C,0.254001*%
%ADD13C,0.248920*%
%ADD14C,0.152400*%
%ADD15C,0.100000*%
%ADD16C,0.300000*%
%ADD17C,0.200000*%
%ADD18C,0.600000*%
%ADD19C,0.150013*%
G04 APERTURE END LIST*
D10*
X123225476Y-107883855D02*
X123225476Y-108531474D01*
X123225476Y-108531474D02*
X123263571Y-108607664D01*
X123263571Y-108607664D02*
X123301666Y-108645760D01*
X123301666Y-108645760D02*
X123377857Y-108683855D01*
X123377857Y-108683855D02*
X123530238Y-108683855D01*
X123530238Y-108683855D02*
X123606428Y-108645760D01*
X123606428Y-108645760D02*
X123644523Y-108607664D01*
X123644523Y-108607664D02*
X123682619Y-108531474D01*
X123682619Y-108531474D02*
X123682619Y-107883855D01*
X124025475Y-108645760D02*
X124139761Y-108683855D01*
X124139761Y-108683855D02*
X124330237Y-108683855D01*
X124330237Y-108683855D02*
X124406428Y-108645760D01*
X124406428Y-108645760D02*
X124444523Y-108607664D01*
X124444523Y-108607664D02*
X124482618Y-108531474D01*
X124482618Y-108531474D02*
X124482618Y-108455283D01*
X124482618Y-108455283D02*
X124444523Y-108379093D01*
X124444523Y-108379093D02*
X124406428Y-108340998D01*
X124406428Y-108340998D02*
X124330237Y-108302902D01*
X124330237Y-108302902D02*
X124177856Y-108264807D01*
X124177856Y-108264807D02*
X124101666Y-108226712D01*
X124101666Y-108226712D02*
X124063571Y-108188617D01*
X124063571Y-108188617D02*
X124025475Y-108112426D01*
X124025475Y-108112426D02*
X124025475Y-108036236D01*
X124025475Y-108036236D02*
X124063571Y-107960045D01*
X124063571Y-107960045D02*
X124101666Y-107921950D01*
X124101666Y-107921950D02*
X124177856Y-107883855D01*
X124177856Y-107883855D02*
X124368333Y-107883855D01*
X124368333Y-107883855D02*
X124482618Y-107921950D01*
X125092142Y-108264807D02*
X125206428Y-108302902D01*
X125206428Y-108302902D02*
X125244523Y-108340998D01*
X125244523Y-108340998D02*
X125282619Y-108417188D01*
X125282619Y-108417188D02*
X125282619Y-108531474D01*
X125282619Y-108531474D02*
X125244523Y-108607664D01*
X125244523Y-108607664D02*
X125206428Y-108645760D01*
X125206428Y-108645760D02*
X125130238Y-108683855D01*
X125130238Y-108683855D02*
X124825476Y-108683855D01*
X124825476Y-108683855D02*
X124825476Y-107883855D01*
X124825476Y-107883855D02*
X125092142Y-107883855D01*
X125092142Y-107883855D02*
X125168333Y-107921950D01*
X125168333Y-107921950D02*
X125206428Y-107960045D01*
X125206428Y-107960045D02*
X125244523Y-108036236D01*
X125244523Y-108036236D02*
X125244523Y-108112426D01*
X125244523Y-108112426D02*
X125206428Y-108188617D01*
X125206428Y-108188617D02*
X125168333Y-108226712D01*
X125168333Y-108226712D02*
X125092142Y-108264807D01*
X125092142Y-108264807D02*
X124825476Y-108264807D01*
X129460714Y-100540283D02*
X129841667Y-100540283D01*
X129384524Y-100768855D02*
X129651191Y-99968855D01*
X129651191Y-99968855D02*
X129917857Y-100768855D01*
X130184524Y-100768855D02*
X130184524Y-99968855D01*
X130184524Y-99968855D02*
X130641667Y-100768855D01*
X130641667Y-100768855D02*
X130641667Y-99968855D01*
X130908333Y-99968855D02*
X131365476Y-99968855D01*
X131136904Y-100768855D02*
X131136904Y-99968855D01*
X136299285Y-100650760D02*
X136413571Y-100688855D01*
X136413571Y-100688855D02*
X136604047Y-100688855D01*
X136604047Y-100688855D02*
X136680238Y-100650760D01*
X136680238Y-100650760D02*
X136718333Y-100612664D01*
X136718333Y-100612664D02*
X136756428Y-100536474D01*
X136756428Y-100536474D02*
X136756428Y-100460283D01*
X136756428Y-100460283D02*
X136718333Y-100384093D01*
X136718333Y-100384093D02*
X136680238Y-100345998D01*
X136680238Y-100345998D02*
X136604047Y-100307902D01*
X136604047Y-100307902D02*
X136451666Y-100269807D01*
X136451666Y-100269807D02*
X136375476Y-100231712D01*
X136375476Y-100231712D02*
X136337381Y-100193617D01*
X136337381Y-100193617D02*
X136299285Y-100117426D01*
X136299285Y-100117426D02*
X136299285Y-100041236D01*
X136299285Y-100041236D02*
X136337381Y-99965045D01*
X136337381Y-99965045D02*
X136375476Y-99926950D01*
X136375476Y-99926950D02*
X136451666Y-99888855D01*
X136451666Y-99888855D02*
X136642143Y-99888855D01*
X136642143Y-99888855D02*
X136756428Y-99926950D01*
X137023095Y-99888855D02*
X137213571Y-100688855D01*
X137213571Y-100688855D02*
X137365952Y-100117426D01*
X137365952Y-100117426D02*
X137518333Y-100688855D01*
X137518333Y-100688855D02*
X137708810Y-99888855D01*
X138013572Y-100688855D02*
X138013572Y-99888855D01*
X138013572Y-99888855D02*
X138204048Y-99888855D01*
X138204048Y-99888855D02*
X138318334Y-99926950D01*
X138318334Y-99926950D02*
X138394524Y-100003140D01*
X138394524Y-100003140D02*
X138432619Y-100079331D01*
X138432619Y-100079331D02*
X138470715Y-100231712D01*
X138470715Y-100231712D02*
X138470715Y-100345998D01*
X138470715Y-100345998D02*
X138432619Y-100498379D01*
X138432619Y-100498379D02*
X138394524Y-100574569D01*
X138394524Y-100574569D02*
X138318334Y-100650760D01*
X138318334Y-100650760D02*
X138204048Y-100688855D01*
X138204048Y-100688855D02*
X138013572Y-100688855D01*
X107188855Y-143406427D02*
X106388855Y-143406427D01*
X106388855Y-143406427D02*
X106388855Y-143101665D01*
X106388855Y-143101665D02*
X106426950Y-143025475D01*
X106426950Y-143025475D02*
X106465045Y-142987380D01*
X106465045Y-142987380D02*
X106541236Y-142949284D01*
X106541236Y-142949284D02*
X106655521Y-142949284D01*
X106655521Y-142949284D02*
X106731712Y-142987380D01*
X106731712Y-142987380D02*
X106769807Y-143025475D01*
X106769807Y-143025475D02*
X106807902Y-143101665D01*
X106807902Y-143101665D02*
X106807902Y-143406427D01*
X106807902Y-142454046D02*
X107188855Y-142454046D01*
X106388855Y-142720713D02*
X106807902Y-142454046D01*
X106807902Y-142454046D02*
X106388855Y-142187380D01*
X107188855Y-141463570D02*
X106807902Y-141730237D01*
X107188855Y-141920713D02*
X106388855Y-141920713D01*
X106388855Y-141920713D02*
X106388855Y-141615951D01*
X106388855Y-141615951D02*
X106426950Y-141539761D01*
X106426950Y-141539761D02*
X106465045Y-141501666D01*
X106465045Y-141501666D02*
X106541236Y-141463570D01*
X106541236Y-141463570D02*
X106655521Y-141463570D01*
X106655521Y-141463570D02*
X106731712Y-141501666D01*
X106731712Y-141501666D02*
X106769807Y-141539761D01*
X106769807Y-141539761D02*
X106807902Y-141615951D01*
X106807902Y-141615951D02*
X106807902Y-141920713D01*
X106388855Y-140968332D02*
X106388855Y-140815951D01*
X106388855Y-140815951D02*
X106426950Y-140739761D01*
X106426950Y-140739761D02*
X106503140Y-140663570D01*
X106503140Y-140663570D02*
X106655521Y-140625475D01*
X106655521Y-140625475D02*
X106922188Y-140625475D01*
X106922188Y-140625475D02*
X107074569Y-140663570D01*
X107074569Y-140663570D02*
X107150760Y-140739761D01*
X107150760Y-140739761D02*
X107188855Y-140815951D01*
X107188855Y-140815951D02*
X107188855Y-140968332D01*
X107188855Y-140968332D02*
X107150760Y-141044523D01*
X107150760Y-141044523D02*
X107074569Y-141120713D01*
X107074569Y-141120713D02*
X106922188Y-141158809D01*
X106922188Y-141158809D02*
X106655521Y-141158809D01*
X106655521Y-141158809D02*
X106503140Y-141120713D01*
X106503140Y-141120713D02*
X106426950Y-141044523D01*
X106426950Y-141044523D02*
X106388855Y-140968332D01*
X107673855Y-132885951D02*
X106873855Y-132885951D01*
X106950045Y-132543095D02*
X106911950Y-132504999D01*
X106911950Y-132504999D02*
X106873855Y-132428809D01*
X106873855Y-132428809D02*
X106873855Y-132238333D01*
X106873855Y-132238333D02*
X106911950Y-132162142D01*
X106911950Y-132162142D02*
X106950045Y-132124047D01*
X106950045Y-132124047D02*
X107026236Y-132085952D01*
X107026236Y-132085952D02*
X107102426Y-132085952D01*
X107102426Y-132085952D02*
X107216712Y-132124047D01*
X107216712Y-132124047D02*
X107673855Y-132581190D01*
X107673855Y-132581190D02*
X107673855Y-132085952D01*
X107597664Y-131285951D02*
X107635760Y-131324047D01*
X107635760Y-131324047D02*
X107673855Y-131438332D01*
X107673855Y-131438332D02*
X107673855Y-131514523D01*
X107673855Y-131514523D02*
X107635760Y-131628809D01*
X107635760Y-131628809D02*
X107559569Y-131704999D01*
X107559569Y-131704999D02*
X107483379Y-131743094D01*
X107483379Y-131743094D02*
X107330998Y-131781190D01*
X107330998Y-131781190D02*
X107216712Y-131781190D01*
X107216712Y-131781190D02*
X107064331Y-131743094D01*
X107064331Y-131743094D02*
X106988140Y-131704999D01*
X106988140Y-131704999D02*
X106911950Y-131628809D01*
X106911950Y-131628809D02*
X106873855Y-131514523D01*
X106873855Y-131514523D02*
X106873855Y-131438332D01*
X106873855Y-131438332D02*
X106911950Y-131324047D01*
X106911950Y-131324047D02*
X106950045Y-131285951D01*
X107499807Y-121207380D02*
X107499807Y-120940714D01*
X107918855Y-120826428D02*
X107918855Y-121207380D01*
X107918855Y-121207380D02*
X107118855Y-121207380D01*
X107118855Y-121207380D02*
X107118855Y-120826428D01*
X107880760Y-120521666D02*
X107918855Y-120407380D01*
X107918855Y-120407380D02*
X107918855Y-120216904D01*
X107918855Y-120216904D02*
X107880760Y-120140713D01*
X107880760Y-120140713D02*
X107842664Y-120102618D01*
X107842664Y-120102618D02*
X107766474Y-120064523D01*
X107766474Y-120064523D02*
X107690283Y-120064523D01*
X107690283Y-120064523D02*
X107614093Y-120102618D01*
X107614093Y-120102618D02*
X107575998Y-120140713D01*
X107575998Y-120140713D02*
X107537902Y-120216904D01*
X107537902Y-120216904D02*
X107499807Y-120369285D01*
X107499807Y-120369285D02*
X107461712Y-120445475D01*
X107461712Y-120445475D02*
X107423617Y-120483570D01*
X107423617Y-120483570D02*
X107347426Y-120521666D01*
X107347426Y-120521666D02*
X107271236Y-120521666D01*
X107271236Y-120521666D02*
X107195045Y-120483570D01*
X107195045Y-120483570D02*
X107156950Y-120445475D01*
X107156950Y-120445475D02*
X107118855Y-120369285D01*
X107118855Y-120369285D02*
X107118855Y-120178808D01*
X107118855Y-120178808D02*
X107156950Y-120064523D01*
X107842664Y-119264522D02*
X107880760Y-119302618D01*
X107880760Y-119302618D02*
X107918855Y-119416903D01*
X107918855Y-119416903D02*
X107918855Y-119493094D01*
X107918855Y-119493094D02*
X107880760Y-119607380D01*
X107880760Y-119607380D02*
X107804569Y-119683570D01*
X107804569Y-119683570D02*
X107728379Y-119721665D01*
X107728379Y-119721665D02*
X107575998Y-119759761D01*
X107575998Y-119759761D02*
X107461712Y-119759761D01*
X107461712Y-119759761D02*
X107309331Y-119721665D01*
X107309331Y-119721665D02*
X107233140Y-119683570D01*
X107233140Y-119683570D02*
X107156950Y-119607380D01*
X107156950Y-119607380D02*
X107118855Y-119493094D01*
X107118855Y-119493094D02*
X107118855Y-119416903D01*
X107118855Y-119416903D02*
X107156950Y-119302618D01*
X107156950Y-119302618D02*
X107195045Y-119264522D01*
X118600760Y-139317381D02*
X118638855Y-139203095D01*
X118638855Y-139203095D02*
X118638855Y-139012619D01*
X118638855Y-139012619D02*
X118600760Y-138936428D01*
X118600760Y-138936428D02*
X118562664Y-138898333D01*
X118562664Y-138898333D02*
X118486474Y-138860238D01*
X118486474Y-138860238D02*
X118410283Y-138860238D01*
X118410283Y-138860238D02*
X118334093Y-138898333D01*
X118334093Y-138898333D02*
X118295998Y-138936428D01*
X118295998Y-138936428D02*
X118257902Y-139012619D01*
X118257902Y-139012619D02*
X118219807Y-139165000D01*
X118219807Y-139165000D02*
X118181712Y-139241190D01*
X118181712Y-139241190D02*
X118143617Y-139279285D01*
X118143617Y-139279285D02*
X118067426Y-139317381D01*
X118067426Y-139317381D02*
X117991236Y-139317381D01*
X117991236Y-139317381D02*
X117915045Y-139279285D01*
X117915045Y-139279285D02*
X117876950Y-139241190D01*
X117876950Y-139241190D02*
X117838855Y-139165000D01*
X117838855Y-139165000D02*
X117838855Y-138974523D01*
X117838855Y-138974523D02*
X117876950Y-138860238D01*
X118219807Y-138517380D02*
X118219807Y-138250714D01*
X118638855Y-138136428D02*
X118638855Y-138517380D01*
X118638855Y-138517380D02*
X117838855Y-138517380D01*
X117838855Y-138517380D02*
X117838855Y-138136428D01*
X118638855Y-137336427D02*
X118257902Y-137603094D01*
X118638855Y-137793570D02*
X117838855Y-137793570D01*
X117838855Y-137793570D02*
X117838855Y-137488808D01*
X117838855Y-137488808D02*
X117876950Y-137412618D01*
X117876950Y-137412618D02*
X117915045Y-137374523D01*
X117915045Y-137374523D02*
X117991236Y-137336427D01*
X117991236Y-137336427D02*
X118105521Y-137336427D01*
X118105521Y-137336427D02*
X118181712Y-137374523D01*
X118181712Y-137374523D02*
X118219807Y-137412618D01*
X118219807Y-137412618D02*
X118257902Y-137488808D01*
X118257902Y-137488808D02*
X118257902Y-137793570D01*
X117838855Y-137107856D02*
X118638855Y-136841189D01*
X118638855Y-136841189D02*
X117838855Y-136574523D01*
X117838855Y-136155475D02*
X117838855Y-136003094D01*
X117838855Y-136003094D02*
X117876950Y-135926904D01*
X117876950Y-135926904D02*
X117953140Y-135850713D01*
X117953140Y-135850713D02*
X118105521Y-135812618D01*
X118105521Y-135812618D02*
X118372188Y-135812618D01*
X118372188Y-135812618D02*
X118524569Y-135850713D01*
X118524569Y-135850713D02*
X118600760Y-135926904D01*
X118600760Y-135926904D02*
X118638855Y-136003094D01*
X118638855Y-136003094D02*
X118638855Y-136155475D01*
X118638855Y-136155475D02*
X118600760Y-136231666D01*
X118600760Y-136231666D02*
X118524569Y-136307856D01*
X118524569Y-136307856D02*
X118372188Y-136345952D01*
X118372188Y-136345952D02*
X118105521Y-136345952D01*
X118105521Y-136345952D02*
X117953140Y-136307856D01*
X117953140Y-136307856D02*
X117876950Y-136231666D01*
X117876950Y-136231666D02*
X117838855Y-136155475D01*
X127126950Y-130296428D02*
X127088855Y-130372618D01*
X127088855Y-130372618D02*
X127088855Y-130486904D01*
X127088855Y-130486904D02*
X127126950Y-130601190D01*
X127126950Y-130601190D02*
X127203140Y-130677380D01*
X127203140Y-130677380D02*
X127279331Y-130715475D01*
X127279331Y-130715475D02*
X127431712Y-130753571D01*
X127431712Y-130753571D02*
X127545998Y-130753571D01*
X127545998Y-130753571D02*
X127698379Y-130715475D01*
X127698379Y-130715475D02*
X127774569Y-130677380D01*
X127774569Y-130677380D02*
X127850760Y-130601190D01*
X127850760Y-130601190D02*
X127888855Y-130486904D01*
X127888855Y-130486904D02*
X127888855Y-130410713D01*
X127888855Y-130410713D02*
X127850760Y-130296428D01*
X127850760Y-130296428D02*
X127812664Y-130258332D01*
X127812664Y-130258332D02*
X127545998Y-130258332D01*
X127545998Y-130258332D02*
X127545998Y-130410713D01*
X127888855Y-129915475D02*
X127088855Y-129915475D01*
X127088855Y-129915475D02*
X127088855Y-129610713D01*
X127088855Y-129610713D02*
X127126950Y-129534523D01*
X127126950Y-129534523D02*
X127165045Y-129496428D01*
X127165045Y-129496428D02*
X127241236Y-129458332D01*
X127241236Y-129458332D02*
X127355521Y-129458332D01*
X127355521Y-129458332D02*
X127431712Y-129496428D01*
X127431712Y-129496428D02*
X127469807Y-129534523D01*
X127469807Y-129534523D02*
X127507902Y-129610713D01*
X127507902Y-129610713D02*
X127507902Y-129915475D01*
X127850760Y-129153571D02*
X127888855Y-129039285D01*
X127888855Y-129039285D02*
X127888855Y-128848809D01*
X127888855Y-128848809D02*
X127850760Y-128772618D01*
X127850760Y-128772618D02*
X127812664Y-128734523D01*
X127812664Y-128734523D02*
X127736474Y-128696428D01*
X127736474Y-128696428D02*
X127660283Y-128696428D01*
X127660283Y-128696428D02*
X127584093Y-128734523D01*
X127584093Y-128734523D02*
X127545998Y-128772618D01*
X127545998Y-128772618D02*
X127507902Y-128848809D01*
X127507902Y-128848809D02*
X127469807Y-129001190D01*
X127469807Y-129001190D02*
X127431712Y-129077380D01*
X127431712Y-129077380D02*
X127393617Y-129115475D01*
X127393617Y-129115475D02*
X127317426Y-129153571D01*
X127317426Y-129153571D02*
X127241236Y-129153571D01*
X127241236Y-129153571D02*
X127165045Y-129115475D01*
X127165045Y-129115475D02*
X127126950Y-129077380D01*
X127126950Y-129077380D02*
X127088855Y-129001190D01*
X127088855Y-129001190D02*
X127088855Y-128810713D01*
X127088855Y-128810713D02*
X127126950Y-128696428D01*
X138368855Y-142069285D02*
X138368855Y-142450237D01*
X138368855Y-142450237D02*
X137568855Y-142450237D01*
X137949807Y-141802618D02*
X137949807Y-141535952D01*
X138368855Y-141421666D02*
X138368855Y-141802618D01*
X138368855Y-141802618D02*
X137568855Y-141802618D01*
X137568855Y-141802618D02*
X137568855Y-141421666D01*
X138368855Y-141078808D02*
X137568855Y-141078808D01*
X137568855Y-141078808D02*
X137568855Y-140888332D01*
X137568855Y-140888332D02*
X137606950Y-140774046D01*
X137606950Y-140774046D02*
X137683140Y-140697856D01*
X137683140Y-140697856D02*
X137759331Y-140659761D01*
X137759331Y-140659761D02*
X137911712Y-140621665D01*
X137911712Y-140621665D02*
X138025998Y-140621665D01*
X138025998Y-140621665D02*
X138178379Y-140659761D01*
X138178379Y-140659761D02*
X138254569Y-140697856D01*
X138254569Y-140697856D02*
X138330760Y-140774046D01*
X138330760Y-140774046D02*
X138368855Y-140888332D01*
X138368855Y-140888332D02*
X138368855Y-141078808D01*
D11*
X118569048Y-146054819D02*
X118569048Y-145054819D01*
X119140476Y-146054819D02*
X118711905Y-145483390D01*
X119140476Y-145054819D02*
X118569048Y-145626247D01*
X120140476Y-146054819D02*
X119807143Y-145578628D01*
X119569048Y-146054819D02*
X119569048Y-145054819D01*
X119569048Y-145054819D02*
X119950000Y-145054819D01*
X119950000Y-145054819D02*
X120045238Y-145102438D01*
X120045238Y-145102438D02*
X120092857Y-145150057D01*
X120092857Y-145150057D02*
X120140476Y-145245295D01*
X120140476Y-145245295D02*
X120140476Y-145388152D01*
X120140476Y-145388152D02*
X120092857Y-145483390D01*
X120092857Y-145483390D02*
X120045238Y-145531009D01*
X120045238Y-145531009D02*
X119950000Y-145578628D01*
X119950000Y-145578628D02*
X119569048Y-145578628D01*
X120759524Y-145578628D02*
X120759524Y-146054819D01*
X120426191Y-145054819D02*
X120759524Y-145578628D01*
X120759524Y-145578628D02*
X121092857Y-145054819D01*
X121378572Y-146007200D02*
X121521429Y-146054819D01*
X121521429Y-146054819D02*
X121759524Y-146054819D01*
X121759524Y-146054819D02*
X121854762Y-146007200D01*
X121854762Y-146007200D02*
X121902381Y-145959580D01*
X121902381Y-145959580D02*
X121950000Y-145864342D01*
X121950000Y-145864342D02*
X121950000Y-145769104D01*
X121950000Y-145769104D02*
X121902381Y-145673866D01*
X121902381Y-145673866D02*
X121854762Y-145626247D01*
X121854762Y-145626247D02*
X121759524Y-145578628D01*
X121759524Y-145578628D02*
X121569048Y-145531009D01*
X121569048Y-145531009D02*
X121473810Y-145483390D01*
X121473810Y-145483390D02*
X121426191Y-145435771D01*
X121426191Y-145435771D02*
X121378572Y-145340533D01*
X121378572Y-145340533D02*
X121378572Y-145245295D01*
X121378572Y-145245295D02*
X121426191Y-145150057D01*
X121426191Y-145150057D02*
X121473810Y-145102438D01*
X121473810Y-145102438D02*
X121569048Y-145054819D01*
X121569048Y-145054819D02*
X121807143Y-145054819D01*
X121807143Y-145054819D02*
X121950000Y-145102438D01*
X122235715Y-145054819D02*
X122807143Y-145054819D01*
X122521429Y-146054819D02*
X122521429Y-145054819D01*
X123140477Y-146054819D02*
X123140477Y-145054819D01*
X123569048Y-145769104D02*
X124045238Y-145769104D01*
X123473810Y-146054819D02*
X123807143Y-145054819D01*
X123807143Y-145054819D02*
X124140476Y-146054819D01*
X124473810Y-146054819D02*
X124473810Y-145054819D01*
X124473810Y-145054819D02*
X125045238Y-146054819D01*
X125045238Y-146054819D02*
X125045238Y-145054819D01*
X126616667Y-145531009D02*
X126283334Y-145531009D01*
X126283334Y-146054819D02*
X126283334Y-145054819D01*
X126283334Y-145054819D02*
X126759524Y-145054819D01*
X127140477Y-146054819D02*
X127140477Y-145054819D01*
X128092857Y-146054819D02*
X127616667Y-146054819D01*
X127616667Y-146054819D02*
X127616667Y-145054819D01*
X128426191Y-146054819D02*
X128426191Y-145054819D01*
X128902381Y-146054819D02*
X128902381Y-145054819D01*
X128902381Y-145054819D02*
X129283333Y-145054819D01*
X129283333Y-145054819D02*
X129378571Y-145102438D01*
X129378571Y-145102438D02*
X129426190Y-145150057D01*
X129426190Y-145150057D02*
X129473809Y-145245295D01*
X129473809Y-145245295D02*
X129473809Y-145388152D01*
X129473809Y-145388152D02*
X129426190Y-145483390D01*
X129426190Y-145483390D02*
X129378571Y-145531009D01*
X129378571Y-145531009D02*
X129283333Y-145578628D01*
X129283333Y-145578628D02*
X128902381Y-145578628D01*
X129902381Y-145531009D02*
X130235714Y-145531009D01*
X130378571Y-146054819D02*
X129902381Y-146054819D01*
X129902381Y-146054819D02*
X129902381Y-145054819D01*
X129902381Y-145054819D02*
X130378571Y-145054819D01*
X130807143Y-146054819D02*
X130807143Y-145054819D01*
X131378571Y-146054819D02*
X130950000Y-145483390D01*
X131378571Y-145054819D02*
X130807143Y-145626247D01*
X107782142Y-103682080D02*
X107734523Y-103729700D01*
X107734523Y-103729700D02*
X107591666Y-103777319D01*
X107591666Y-103777319D02*
X107496428Y-103777319D01*
X107496428Y-103777319D02*
X107353571Y-103729700D01*
X107353571Y-103729700D02*
X107258333Y-103634461D01*
X107258333Y-103634461D02*
X107210714Y-103539223D01*
X107210714Y-103539223D02*
X107163095Y-103348747D01*
X107163095Y-103348747D02*
X107163095Y-103205890D01*
X107163095Y-103205890D02*
X107210714Y-103015414D01*
X107210714Y-103015414D02*
X107258333Y-102920176D01*
X107258333Y-102920176D02*
X107353571Y-102824938D01*
X107353571Y-102824938D02*
X107496428Y-102777319D01*
X107496428Y-102777319D02*
X107591666Y-102777319D01*
X107591666Y-102777319D02*
X107734523Y-102824938D01*
X107734523Y-102824938D02*
X107782142Y-102872557D01*
X108115476Y-102777319D02*
X108782142Y-102777319D01*
X108782142Y-102777319D02*
X108353571Y-103777319D01*
X109067857Y-102777319D02*
X109734523Y-102777319D01*
X109734523Y-102777319D02*
X109305952Y-103777319D01*
D10*
X118978571Y-135461855D02*
X118978571Y-134661855D01*
X118978571Y-134661855D02*
X119283333Y-134661855D01*
X119283333Y-134661855D02*
X119359523Y-134699950D01*
X119359523Y-134699950D02*
X119397618Y-134738045D01*
X119397618Y-134738045D02*
X119435714Y-134814236D01*
X119435714Y-134814236D02*
X119435714Y-134928521D01*
X119435714Y-134928521D02*
X119397618Y-135004712D01*
X119397618Y-135004712D02*
X119359523Y-135042807D01*
X119359523Y-135042807D02*
X119283333Y-135080902D01*
X119283333Y-135080902D02*
X118978571Y-135080902D01*
X119702380Y-134661855D02*
X120235714Y-134661855D01*
X120235714Y-134661855D02*
X119702380Y-135461855D01*
X119702380Y-135461855D02*
X120235714Y-135461855D01*
X120502380Y-134738045D02*
X120540476Y-134699950D01*
X120540476Y-134699950D02*
X120616666Y-134661855D01*
X120616666Y-134661855D02*
X120807142Y-134661855D01*
X120807142Y-134661855D02*
X120883333Y-134699950D01*
X120883333Y-134699950D02*
X120921428Y-134738045D01*
X120921428Y-134738045D02*
X120959523Y-134814236D01*
X120959523Y-134814236D02*
X120959523Y-134890426D01*
X120959523Y-134890426D02*
X120921428Y-135004712D01*
X120921428Y-135004712D02*
X120464285Y-135461855D01*
X120464285Y-135461855D02*
X120959523Y-135461855D01*
X134413880Y-125817153D02*
X135061499Y-125817153D01*
X135061499Y-125817153D02*
X135137689Y-125779058D01*
X135137689Y-125779058D02*
X135175785Y-125740963D01*
X135175785Y-125740963D02*
X135213880Y-125664772D01*
X135213880Y-125664772D02*
X135213880Y-125512391D01*
X135213880Y-125512391D02*
X135175785Y-125436201D01*
X135175785Y-125436201D02*
X135137689Y-125398106D01*
X135137689Y-125398106D02*
X135061499Y-125360010D01*
X135061499Y-125360010D02*
X134413880Y-125360010D01*
X135213880Y-124940963D02*
X135213880Y-124788582D01*
X135213880Y-124788582D02*
X135175785Y-124712392D01*
X135175785Y-124712392D02*
X135137689Y-124674296D01*
X135137689Y-124674296D02*
X135023404Y-124598106D01*
X135023404Y-124598106D02*
X134871023Y-124560011D01*
X134871023Y-124560011D02*
X134566261Y-124560011D01*
X134566261Y-124560011D02*
X134490070Y-124598106D01*
X134490070Y-124598106D02*
X134451975Y-124636201D01*
X134451975Y-124636201D02*
X134413880Y-124712392D01*
X134413880Y-124712392D02*
X134413880Y-124864773D01*
X134413880Y-124864773D02*
X134451975Y-124940963D01*
X134451975Y-124940963D02*
X134490070Y-124979058D01*
X134490070Y-124979058D02*
X134566261Y-125017154D01*
X134566261Y-125017154D02*
X134756737Y-125017154D01*
X134756737Y-125017154D02*
X134832927Y-124979058D01*
X134832927Y-124979058D02*
X134871023Y-124940963D01*
X134871023Y-124940963D02*
X134909118Y-124864773D01*
X134909118Y-124864773D02*
X134909118Y-124712392D01*
X134909118Y-124712392D02*
X134871023Y-124636201D01*
X134871023Y-124636201D02*
X134832927Y-124598106D01*
X134832927Y-124598106D02*
X134756737Y-124560011D01*
X131951916Y-139449172D02*
X132599535Y-139449172D01*
X132599535Y-139449172D02*
X132675725Y-139411077D01*
X132675725Y-139411077D02*
X132713821Y-139372982D01*
X132713821Y-139372982D02*
X132751916Y-139296791D01*
X132751916Y-139296791D02*
X132751916Y-139144410D01*
X132751916Y-139144410D02*
X132713821Y-139068220D01*
X132713821Y-139068220D02*
X132675725Y-139030125D01*
X132675725Y-139030125D02*
X132599535Y-138992029D01*
X132599535Y-138992029D02*
X131951916Y-138992029D01*
X132751916Y-138192030D02*
X132751916Y-138649173D01*
X132751916Y-138420601D02*
X131951916Y-138420601D01*
X131951916Y-138420601D02*
X132066201Y-138496792D01*
X132066201Y-138496792D02*
X132142392Y-138572982D01*
X132142392Y-138572982D02*
X132180487Y-138649173D01*
X131951916Y-137925363D02*
X131951916Y-137392029D01*
X131951916Y-137392029D02*
X132751916Y-137734887D01*
X136908830Y-110978907D02*
X136908830Y-111626526D01*
X136908830Y-111626526D02*
X136946925Y-111702716D01*
X136946925Y-111702716D02*
X136985020Y-111740812D01*
X136985020Y-111740812D02*
X137061211Y-111778907D01*
X137061211Y-111778907D02*
X137213592Y-111778907D01*
X137213592Y-111778907D02*
X137289782Y-111740812D01*
X137289782Y-111740812D02*
X137327877Y-111702716D01*
X137327877Y-111702716D02*
X137365973Y-111626526D01*
X137365973Y-111626526D02*
X137365973Y-110978907D01*
X138127877Y-110978907D02*
X137746925Y-110978907D01*
X137746925Y-110978907D02*
X137708829Y-111359859D01*
X137708829Y-111359859D02*
X137746925Y-111321764D01*
X137746925Y-111321764D02*
X137823115Y-111283669D01*
X137823115Y-111283669D02*
X138013591Y-111283669D01*
X138013591Y-111283669D02*
X138089782Y-111321764D01*
X138089782Y-111321764D02*
X138127877Y-111359859D01*
X138127877Y-111359859D02*
X138165972Y-111436050D01*
X138165972Y-111436050D02*
X138165972Y-111626526D01*
X138165972Y-111626526D02*
X138127877Y-111702716D01*
X138127877Y-111702716D02*
X138089782Y-111740812D01*
X138089782Y-111740812D02*
X138013591Y-111778907D01*
X138013591Y-111778907D02*
X137823115Y-111778907D01*
X137823115Y-111778907D02*
X137746925Y-111740812D01*
X137746925Y-111740812D02*
X137708829Y-111702716D01*
X117770476Y-107593944D02*
X117770476Y-108241563D01*
X117770476Y-108241563D02*
X117808571Y-108317753D01*
X117808571Y-108317753D02*
X117846666Y-108355849D01*
X117846666Y-108355849D02*
X117922857Y-108393944D01*
X117922857Y-108393944D02*
X118075238Y-108393944D01*
X118075238Y-108393944D02*
X118151428Y-108355849D01*
X118151428Y-108355849D02*
X118189523Y-108317753D01*
X118189523Y-108317753D02*
X118227619Y-108241563D01*
X118227619Y-108241563D02*
X118227619Y-107593944D01*
X119027618Y-108393944D02*
X118570475Y-108393944D01*
X118799047Y-108393944D02*
X118799047Y-107593944D01*
X118799047Y-107593944D02*
X118722856Y-107708229D01*
X118722856Y-107708229D02*
X118646666Y-107784420D01*
X118646666Y-107784420D02*
X118570475Y-107822515D01*
X142303809Y-107683832D02*
X142227619Y-107645737D01*
X142227619Y-107645737D02*
X142151428Y-107569547D01*
X142151428Y-107569547D02*
X142037142Y-107455261D01*
X142037142Y-107455261D02*
X141960952Y-107417166D01*
X141960952Y-107417166D02*
X141884761Y-107417166D01*
X141922857Y-107607642D02*
X141846666Y-107569547D01*
X141846666Y-107569547D02*
X141770476Y-107493356D01*
X141770476Y-107493356D02*
X141732380Y-107340975D01*
X141732380Y-107340975D02*
X141732380Y-107074308D01*
X141732380Y-107074308D02*
X141770476Y-106921927D01*
X141770476Y-106921927D02*
X141846666Y-106845737D01*
X141846666Y-106845737D02*
X141922857Y-106807642D01*
X141922857Y-106807642D02*
X142075238Y-106807642D01*
X142075238Y-106807642D02*
X142151428Y-106845737D01*
X142151428Y-106845737D02*
X142227619Y-106921927D01*
X142227619Y-106921927D02*
X142265714Y-107074308D01*
X142265714Y-107074308D02*
X142265714Y-107340975D01*
X142265714Y-107340975D02*
X142227619Y-107493356D01*
X142227619Y-107493356D02*
X142151428Y-107569547D01*
X142151428Y-107569547D02*
X142075238Y-107607642D01*
X142075238Y-107607642D02*
X141922857Y-107607642D01*
X143027618Y-107607642D02*
X142570475Y-107607642D01*
X142799047Y-107607642D02*
X142799047Y-106807642D01*
X142799047Y-106807642D02*
X142722856Y-106921927D01*
X142722856Y-106921927D02*
X142646666Y-106998118D01*
X142646666Y-106998118D02*
X142570475Y-107036213D01*
D11*
X101752142Y-102432080D02*
X101704523Y-102479700D01*
X101704523Y-102479700D02*
X101561666Y-102527319D01*
X101561666Y-102527319D02*
X101466428Y-102527319D01*
X101466428Y-102527319D02*
X101323571Y-102479700D01*
X101323571Y-102479700D02*
X101228333Y-102384461D01*
X101228333Y-102384461D02*
X101180714Y-102289223D01*
X101180714Y-102289223D02*
X101133095Y-102098747D01*
X101133095Y-102098747D02*
X101133095Y-101955890D01*
X101133095Y-101955890D02*
X101180714Y-101765414D01*
X101180714Y-101765414D02*
X101228333Y-101670176D01*
X101228333Y-101670176D02*
X101323571Y-101574938D01*
X101323571Y-101574938D02*
X101466428Y-101527319D01*
X101466428Y-101527319D02*
X101561666Y-101527319D01*
X101561666Y-101527319D02*
X101704523Y-101574938D01*
X101704523Y-101574938D02*
X101752142Y-101622557D01*
X102085476Y-101527319D02*
X102752142Y-101527319D01*
X102752142Y-101527319D02*
X102323571Y-102527319D01*
X103609285Y-101527319D02*
X103133095Y-101527319D01*
X103133095Y-101527319D02*
X103085476Y-102003509D01*
X103085476Y-102003509D02*
X103133095Y-101955890D01*
X103133095Y-101955890D02*
X103228333Y-101908271D01*
X103228333Y-101908271D02*
X103466428Y-101908271D01*
X103466428Y-101908271D02*
X103561666Y-101955890D01*
X103561666Y-101955890D02*
X103609285Y-102003509D01*
X103609285Y-102003509D02*
X103656904Y-102098747D01*
X103656904Y-102098747D02*
X103656904Y-102336842D01*
X103656904Y-102336842D02*
X103609285Y-102432080D01*
X103609285Y-102432080D02*
X103561666Y-102479700D01*
X103561666Y-102479700D02*
X103466428Y-102527319D01*
X103466428Y-102527319D02*
X103228333Y-102527319D01*
X103228333Y-102527319D02*
X103133095Y-102479700D01*
X103133095Y-102479700D02*
X103085476Y-102432080D01*
D10*
X112349524Y-99533906D02*
X112349524Y-100181525D01*
X112349524Y-100181525D02*
X112387619Y-100257715D01*
X112387619Y-100257715D02*
X112425714Y-100295811D01*
X112425714Y-100295811D02*
X112501905Y-100333906D01*
X112501905Y-100333906D02*
X112654286Y-100333906D01*
X112654286Y-100333906D02*
X112730476Y-100295811D01*
X112730476Y-100295811D02*
X112768571Y-100257715D01*
X112768571Y-100257715D02*
X112806667Y-100181525D01*
X112806667Y-100181525D02*
X112806667Y-99533906D01*
X113606666Y-100333906D02*
X113149523Y-100333906D01*
X113378095Y-100333906D02*
X113378095Y-99533906D01*
X113378095Y-99533906D02*
X113301904Y-99648191D01*
X113301904Y-99648191D02*
X113225714Y-99724382D01*
X113225714Y-99724382D02*
X113149523Y-99762477D01*
X114368571Y-100333906D02*
X113911428Y-100333906D01*
X114140000Y-100333906D02*
X114140000Y-99533906D01*
X114140000Y-99533906D02*
X114063809Y-99648191D01*
X114063809Y-99648191D02*
X113987619Y-99724382D01*
X113987619Y-99724382D02*
X113911428Y-99762477D01*
D11*
X103042142Y-108902319D02*
X102708809Y-108426128D01*
X102470714Y-108902319D02*
X102470714Y-107902319D01*
X102470714Y-107902319D02*
X102851666Y-107902319D01*
X102851666Y-107902319D02*
X102946904Y-107949938D01*
X102946904Y-107949938D02*
X102994523Y-107997557D01*
X102994523Y-107997557D02*
X103042142Y-108092795D01*
X103042142Y-108092795D02*
X103042142Y-108235652D01*
X103042142Y-108235652D02*
X102994523Y-108330890D01*
X102994523Y-108330890D02*
X102946904Y-108378509D01*
X102946904Y-108378509D02*
X102851666Y-108426128D01*
X102851666Y-108426128D02*
X102470714Y-108426128D01*
X103946904Y-107902319D02*
X103470714Y-107902319D01*
X103470714Y-107902319D02*
X103423095Y-108378509D01*
X103423095Y-108378509D02*
X103470714Y-108330890D01*
X103470714Y-108330890D02*
X103565952Y-108283271D01*
X103565952Y-108283271D02*
X103804047Y-108283271D01*
X103804047Y-108283271D02*
X103899285Y-108330890D01*
X103899285Y-108330890D02*
X103946904Y-108378509D01*
X103946904Y-108378509D02*
X103994523Y-108473747D01*
X103994523Y-108473747D02*
X103994523Y-108711842D01*
X103994523Y-108711842D02*
X103946904Y-108807080D01*
X103946904Y-108807080D02*
X103899285Y-108854700D01*
X103899285Y-108854700D02*
X103804047Y-108902319D01*
X103804047Y-108902319D02*
X103565952Y-108902319D01*
X103565952Y-108902319D02*
X103470714Y-108854700D01*
X103470714Y-108854700D02*
X103423095Y-108807080D01*
X104946904Y-108902319D02*
X104375476Y-108902319D01*
X104661190Y-108902319D02*
X104661190Y-107902319D01*
X104661190Y-107902319D02*
X104565952Y-108045176D01*
X104565952Y-108045176D02*
X104470714Y-108140414D01*
X104470714Y-108140414D02*
X104375476Y-108188033D01*
D12*
%TO.C,J3*%
X129330000Y-129509992D02*
X129330000Y-130538847D01*
X130438255Y-133610018D02*
X139021720Y-133610018D01*
X131073866Y-129509992D02*
X129330000Y-129509992D01*
X132323802Y-129509992D02*
X132136147Y-129509992D01*
X133573993Y-129509992D02*
X133386083Y-129509992D01*
X134823929Y-129509992D02*
X134636274Y-129509992D01*
X136073866Y-129509992D02*
X135886210Y-129509992D01*
X137323802Y-129509992D02*
X137136147Y-129509992D01*
X140130000Y-129509992D02*
X138386083Y-129509992D01*
X140130000Y-129509992D02*
X140130000Y-130538847D01*
D10*
X130524410Y-128568284D02*
X130581927Y-128585732D01*
X130634935Y-128614065D01*
X130681397Y-128652195D01*
X130719527Y-128698657D01*
X130747860Y-128751664D01*
X130765308Y-128809181D01*
X130771199Y-128868997D01*
X130765308Y-128928812D01*
X130747860Y-128986329D01*
X130719527Y-129039337D01*
X130681397Y-129085798D01*
X130634935Y-129123929D01*
X130581927Y-129152262D01*
X130524410Y-129169709D01*
X130464595Y-129175601D01*
X130404779Y-129169709D01*
X130347263Y-129152262D01*
X130294255Y-129123929D01*
X130247793Y-129085798D01*
X130209663Y-129039337D01*
X130181330Y-128986329D01*
X130163882Y-128928812D01*
X130157991Y-128868997D01*
X130163882Y-128809181D01*
X130181330Y-128751664D01*
X130209663Y-128698657D01*
X130247793Y-128652195D01*
X130294255Y-128614065D01*
X130347263Y-128585732D01*
X130404779Y-128568284D01*
X130464595Y-128562393D01*
X130524410Y-128568284D01*
G36*
X130524410Y-128568284D02*
G01*
X130581927Y-128585732D01*
X130634935Y-128614065D01*
X130681397Y-128652195D01*
X130719527Y-128698657D01*
X130747860Y-128751664D01*
X130765308Y-128809181D01*
X130771199Y-128868997D01*
X130765308Y-128928812D01*
X130747860Y-128986329D01*
X130719527Y-129039337D01*
X130681397Y-129085798D01*
X130634935Y-129123929D01*
X130581927Y-129152262D01*
X130524410Y-129169709D01*
X130464595Y-129175601D01*
X130404779Y-129169709D01*
X130347263Y-129152262D01*
X130294255Y-129123929D01*
X130247793Y-129085798D01*
X130209663Y-129039337D01*
X130181330Y-128986329D01*
X130163882Y-128928812D01*
X130157991Y-128868997D01*
X130163882Y-128809181D01*
X130181330Y-128751664D01*
X130209663Y-128698657D01*
X130247793Y-128652195D01*
X130294255Y-128614065D01*
X130347263Y-128585732D01*
X130404779Y-128568284D01*
X130464595Y-128562393D01*
X130524410Y-128568284D01*
G37*
%TO.C,C77*%
X108317164Y-104122500D02*
X108532836Y-104122500D01*
X108317164Y-104842500D02*
X108532836Y-104842500D01*
%TO.C,C28*%
X126307936Y-143391100D02*
X126092264Y-143391100D01*
X126307936Y-144111100D02*
X126092264Y-144111100D01*
%TO.C,U20*%
X129050000Y-119920000D02*
G75*
G02*
X128850000Y-119920000I-100000J0D01*
G01*
X128850000Y-119920000D02*
G75*
G02*
X129050000Y-119920000I100000J0D01*
G01*
D12*
%TO.C,J2*%
X100930767Y-114219990D02*
X100930767Y-121900000D01*
X105610752Y-122080010D02*
X105610752Y-123319990D01*
X105610752Y-123319990D02*
X103070772Y-123319990D01*
X105650757Y-112840005D02*
X103110752Y-112840005D01*
X105650757Y-114040005D02*
X105650757Y-112840005D01*
D10*
%TO.C,PZ2*%
X119000000Y-132500000D02*
X120900000Y-132500000D01*
X119000000Y-134400000D02*
X119000000Y-132500000D01*
X120900000Y-132500000D02*
X120900000Y-134400000D01*
X120900000Y-134400000D02*
X119000000Y-134400000D01*
%TO.C,TP20*%
X139500000Y-134500000D02*
X141400000Y-134500000D01*
X139500000Y-136400000D02*
X139500000Y-134500000D01*
X141400000Y-134500000D02*
X141400000Y-136400000D01*
X141400000Y-136400000D02*
X139500000Y-136400000D01*
%TO.C,R50*%
X103011359Y-110737500D02*
X103318641Y-110737500D01*
X103011359Y-111497500D02*
X103318641Y-111497500D01*
%TO.C,C30*%
X118932536Y-142333500D02*
X118716864Y-142333500D01*
X118932536Y-143053500D02*
X118716864Y-143053500D01*
%TO.C,C46*%
X123367936Y-128848900D02*
X123152264Y-128848900D01*
X123367936Y-129568900D02*
X123152264Y-129568900D01*
%TO.C,L1*%
X125931622Y-127032600D02*
X125132378Y-127032600D01*
X125931622Y-128152600D02*
X125132378Y-128152600D01*
%TO.C,P73*%
X112600000Y-131500000D02*
X114500000Y-131500000D01*
X112600000Y-133400000D02*
X112600000Y-131500000D01*
X114500000Y-131500000D02*
X114500000Y-133400000D01*
X114500000Y-133400000D02*
X112600000Y-133400000D01*
%TO.C,TP1*%
X107400000Y-110600000D02*
X109300000Y-110600000D01*
X107400000Y-112500000D02*
X107400000Y-110600000D01*
X109300000Y-110600000D02*
X109300000Y-112500000D01*
X109300000Y-112500000D02*
X107400000Y-112500000D01*
%TO.C,C13*%
X122729636Y-127052400D02*
X122513964Y-127052400D01*
X122729636Y-127772400D02*
X122513964Y-127772400D01*
D12*
%TO.C,U9*%
X137649619Y-123808087D02*
X138650381Y-123808087D01*
X137649619Y-126607173D02*
X137649619Y-123808087D01*
X138650381Y-123808087D02*
X138650381Y-126607173D01*
X138650381Y-126607173D02*
X137649619Y-126607173D01*
D13*
X139671463Y-126997038D02*
G75*
G02*
X139671463Y-126999578I-134405J-1270D01*
G01*
D10*
%TO.C,D2*%
X120065000Y-139125000D02*
X120065000Y-140595000D01*
X120065000Y-140595000D02*
X122350000Y-140595000D01*
X122350000Y-139125000D02*
X120065000Y-139125000D01*
%TO.C,R54*%
X101346359Y-138120000D02*
X101653641Y-138120000D01*
X101346359Y-138880000D02*
X101653641Y-138880000D01*
%TO.C,R17*%
X108315000Y-101908641D02*
X108315000Y-101601359D01*
X109075000Y-101908641D02*
X109075000Y-101601359D01*
%TO.C,C6*%
X117933952Y-127179600D02*
X117411448Y-127179600D01*
X117933952Y-128649600D02*
X117411448Y-128649600D01*
D14*
%TO.C,D4*%
X135895625Y-110717063D02*
X138648076Y-110717063D01*
X135895625Y-112569540D02*
X138648076Y-112569540D01*
X136355061Y-110767076D02*
X136355061Y-112519527D01*
X138648076Y-110717063D02*
X138648076Y-110910104D01*
X138648076Y-112569540D02*
X138648076Y-112376499D01*
D10*
X135971851Y-110960878D02*
X135667050Y-110960878D01*
X135667050Y-110640889D01*
X135971851Y-110640889D01*
X135971851Y-110960878D01*
G36*
X135971851Y-110960878D02*
G01*
X135667050Y-110960878D01*
X135667050Y-110640889D01*
X135971851Y-110640889D01*
X135971851Y-110960878D01*
G37*
X135971851Y-112645715D02*
X135667050Y-112645715D01*
X135667050Y-112325725D01*
X135971851Y-112325725D01*
X135971851Y-112645715D01*
G36*
X135971851Y-112645715D02*
G01*
X135667050Y-112645715D01*
X135667050Y-112325725D01*
X135971851Y-112325725D01*
X135971851Y-112645715D01*
G37*
%TO.C,R16*%
X134817859Y-103755000D02*
X135125141Y-103755000D01*
X134817859Y-104515000D02*
X135125141Y-104515000D01*
%TO.C,R20*%
X128796359Y-139570000D02*
X129103641Y-139570000D01*
X128796359Y-140330000D02*
X129103641Y-140330000D01*
%TO.C,D3*%
X116065000Y-129215000D02*
X116065000Y-130685000D01*
X116065000Y-130685000D02*
X118350000Y-130685000D01*
X118350000Y-129215000D02*
X116065000Y-129215000D01*
%TO.C,R48*%
X105281359Y-110602500D02*
X105588641Y-110602500D01*
X105281359Y-111362500D02*
X105588641Y-111362500D01*
%TO.C,C29*%
X118960136Y-143890000D02*
X118744464Y-143890000D01*
X118960136Y-144610000D02*
X118744464Y-144610000D01*
%TO.C,C45*%
X124139452Y-130376000D02*
X123616948Y-130376000D01*
X124139452Y-131846000D02*
X123616948Y-131846000D01*
%TO.C,R1*%
X141501359Y-123535000D02*
X141808641Y-123535000D01*
X141501359Y-124295000D02*
X141808641Y-124295000D01*
D15*
%TO.C,U10*%
X121599949Y-141251138D02*
X121599949Y-141397011D01*
X121599949Y-141251138D02*
X123399975Y-141251138D01*
X121599949Y-142305291D02*
X121599949Y-143296934D01*
X121599949Y-144205215D02*
X121599949Y-144351164D01*
X121599949Y-144351164D02*
X123399975Y-144351164D01*
X123399975Y-141251138D02*
X123399975Y-141396985D01*
X123399975Y-142305291D02*
X123399975Y-142346947D01*
X123399975Y-143255228D02*
X123399975Y-143296909D01*
X123399975Y-144205215D02*
X123399975Y-144351164D01*
D10*
X122915807Y-143641422D02*
X122949243Y-143651647D01*
X122980017Y-143668244D01*
X123006928Y-143690567D01*
X123028926Y-143717743D01*
X123045154Y-143748714D01*
X123054978Y-143782270D01*
X123058014Y-143817102D01*
X123054978Y-143851934D01*
X123045154Y-143885490D01*
X123028926Y-143916461D01*
X123006928Y-143943638D01*
X122980017Y-143965960D01*
X122949243Y-143982557D01*
X122915807Y-143992782D01*
X122881013Y-143996235D01*
X122846220Y-143992782D01*
X122812784Y-143982557D01*
X122782010Y-143965960D01*
X122755099Y-143943638D01*
X122733100Y-143916461D01*
X122716873Y-143885490D01*
X122707049Y-143851934D01*
X122704013Y-143817102D01*
X122707049Y-143782270D01*
X122716873Y-143748714D01*
X122733100Y-143717743D01*
X122755099Y-143690567D01*
X122782010Y-143668244D01*
X122812784Y-143651647D01*
X122846220Y-143641422D01*
X122881013Y-143637969D01*
X122915807Y-143641422D01*
G36*
X122915807Y-143641422D02*
G01*
X122949243Y-143651647D01*
X122980017Y-143668244D01*
X123006928Y-143690567D01*
X123028926Y-143717743D01*
X123045154Y-143748714D01*
X123054978Y-143782270D01*
X123058014Y-143817102D01*
X123054978Y-143851934D01*
X123045154Y-143885490D01*
X123028926Y-143916461D01*
X123006928Y-143943638D01*
X122980017Y-143965960D01*
X122949243Y-143982557D01*
X122915807Y-143992782D01*
X122881013Y-143996235D01*
X122846220Y-143992782D01*
X122812784Y-143982557D01*
X122782010Y-143965960D01*
X122755099Y-143943638D01*
X122733100Y-143916461D01*
X122716873Y-143885490D01*
X122707049Y-143851934D01*
X122704013Y-143817102D01*
X122707049Y-143782270D01*
X122716873Y-143748714D01*
X122733100Y-143717743D01*
X122755099Y-143690567D01*
X122782010Y-143668244D01*
X122812784Y-143651647D01*
X122846220Y-143641422D01*
X122881013Y-143637969D01*
X122915807Y-143641422D01*
G37*
D15*
%TO.C,U17*%
X131949949Y-140650038D02*
X131949949Y-140795911D01*
X131949949Y-140650038D02*
X133749975Y-140650038D01*
X131949949Y-141704191D02*
X131949949Y-142695834D01*
X131949949Y-143604115D02*
X131949949Y-143750064D01*
X131949949Y-143750064D02*
X133749975Y-143750064D01*
X133749975Y-140650038D02*
X133749975Y-140795885D01*
X133749975Y-141704191D02*
X133749975Y-141745847D01*
X133749975Y-142654128D02*
X133749975Y-142695809D01*
X133749975Y-143604115D02*
X133749975Y-143750064D01*
D10*
X133265807Y-143040322D02*
X133299243Y-143050547D01*
X133330017Y-143067144D01*
X133356928Y-143089467D01*
X133378926Y-143116643D01*
X133395154Y-143147614D01*
X133404978Y-143181170D01*
X133408014Y-143216002D01*
X133404978Y-143250834D01*
X133395154Y-143284390D01*
X133378926Y-143315361D01*
X133356928Y-143342538D01*
X133330017Y-143364860D01*
X133299243Y-143381457D01*
X133265807Y-143391682D01*
X133231013Y-143395135D01*
X133196220Y-143391682D01*
X133162784Y-143381457D01*
X133132010Y-143364860D01*
X133105099Y-143342538D01*
X133083100Y-143315361D01*
X133066873Y-143284390D01*
X133057049Y-143250834D01*
X133054013Y-143216002D01*
X133057049Y-143181170D01*
X133066873Y-143147614D01*
X133083100Y-143116643D01*
X133105099Y-143089467D01*
X133132010Y-143067144D01*
X133162784Y-143050547D01*
X133196220Y-143040322D01*
X133231013Y-143036869D01*
X133265807Y-143040322D01*
G36*
X133265807Y-143040322D02*
G01*
X133299243Y-143050547D01*
X133330017Y-143067144D01*
X133356928Y-143089467D01*
X133378926Y-143116643D01*
X133395154Y-143147614D01*
X133404978Y-143181170D01*
X133408014Y-143216002D01*
X133404978Y-143250834D01*
X133395154Y-143284390D01*
X133378926Y-143315361D01*
X133356928Y-143342538D01*
X133330017Y-143364860D01*
X133299243Y-143381457D01*
X133265807Y-143391682D01*
X133231013Y-143395135D01*
X133196220Y-143391682D01*
X133162784Y-143381457D01*
X133132010Y-143364860D01*
X133105099Y-143342538D01*
X133083100Y-143315361D01*
X133066873Y-143284390D01*
X133057049Y-143250834D01*
X133054013Y-143216002D01*
X133057049Y-143181170D01*
X133066873Y-143147614D01*
X133083100Y-143116643D01*
X133105099Y-143089467D01*
X133132010Y-143067144D01*
X133162784Y-143050547D01*
X133196220Y-143040322D01*
X133231013Y-143036869D01*
X133265807Y-143040322D01*
G37*
%TO.C,R21*%
X134036459Y-139275000D02*
X134343741Y-139275000D01*
X134036459Y-140035000D02*
X134343741Y-140035000D01*
%TO.C,R14*%
X108396359Y-123570000D02*
X108703641Y-123570000D01*
X108396359Y-124330000D02*
X108703641Y-124330000D01*
%TO.C,P41*%
X127500000Y-124000000D02*
X129400000Y-124000000D01*
X127500000Y-125900000D02*
X127500000Y-124000000D01*
X129400000Y-124000000D02*
X129400000Y-125900000D01*
X129400000Y-125900000D02*
X127500000Y-125900000D01*
%TO.C,TP21*%
X125000000Y-133500000D02*
X126900000Y-133500000D01*
X125000000Y-135400000D02*
X125000000Y-133500000D01*
X126900000Y-133500000D02*
X126900000Y-135400000D01*
X126900000Y-135400000D02*
X125000000Y-135400000D01*
%TO.C,R53*%
X102751359Y-104102500D02*
X103058641Y-104102500D01*
X102751359Y-104862500D02*
X103058641Y-104862500D01*
D14*
%TO.C,U5*%
X134401290Y-115923597D02*
X139678710Y-115923597D01*
X134401290Y-120276403D02*
X134401290Y-115923597D01*
X139678710Y-115923597D02*
X139678710Y-120276403D01*
X139678710Y-120276403D02*
X134401290Y-120276403D01*
D16*
X134517775Y-121630099D02*
G75*
G02*
X134217547Y-121630099I-150114J0D01*
G01*
X134217547Y-121630099D02*
G75*
G02*
X134517775Y-121630099I150114J0D01*
G01*
X135285110Y-119523927D02*
G75*
G02*
X134984882Y-119523927I-150114J0D01*
G01*
X134984882Y-119523927D02*
G75*
G02*
X135285110Y-119523927I150114J0D01*
G01*
D17*
%TO.C,U1*%
X112129987Y-111329987D02*
X112129987Y-123830013D01*
X112129987Y-123830013D02*
X124630013Y-123830013D01*
X124630013Y-111329987D02*
X112129987Y-111329987D01*
X124630013Y-123830013D02*
X124630013Y-111329987D01*
D16*
X111496586Y-125276215D02*
G75*
G02*
X111499126Y-125276215I1270J-161288D01*
G01*
D18*
X113129810Y-122530470D02*
G75*
G02*
X113134890Y-122530470I2540J-293249D01*
G01*
D10*
%TO.C,C68*%
X130392164Y-118440000D02*
X130607836Y-118440000D01*
X130392164Y-119160000D02*
X130607836Y-119160000D01*
%TO.C,TP10*%
X110350000Y-135646000D02*
X112250000Y-135646000D01*
X110350000Y-137546000D02*
X110350000Y-135646000D01*
X112250000Y-135646000D02*
X112250000Y-137546000D01*
X112250000Y-137546000D02*
X110350000Y-137546000D01*
D12*
%TO.C,J17*%
X108550000Y-140549975D02*
X108550000Y-143174257D01*
X109668872Y-140549975D02*
X108550000Y-140549975D01*
X109781191Y-145049924D02*
X115718885Y-145049924D01*
X115831179Y-140549975D02*
X116950000Y-140549975D01*
X116950000Y-140549975D02*
X116950000Y-143174257D01*
D14*
%TO.C,Q5*%
X101773787Y-134473787D02*
X101773787Y-135505410D01*
X101773787Y-137526213D02*
X101773787Y-136494590D01*
X103226213Y-134473787D02*
X101773787Y-134473787D01*
X103226213Y-135544602D02*
X103226213Y-136455398D01*
X103226213Y-137526213D02*
X101773787Y-137526213D01*
D10*
%TO.C,TP8*%
X113100000Y-135000000D02*
X115000000Y-135000000D01*
X113100000Y-136900000D02*
X113100000Y-135000000D01*
X115000000Y-135000000D02*
X115000000Y-136900000D01*
X115000000Y-136900000D02*
X113100000Y-136900000D01*
%TO.C,P71*%
X128500000Y-134500000D02*
X130400000Y-134500000D01*
X128500000Y-136400000D02*
X128500000Y-134500000D01*
X130400000Y-134500000D02*
X130400000Y-136400000D01*
X130400000Y-136400000D02*
X128500000Y-136400000D01*
D12*
%TO.C,J9*%
X101165030Y-127760036D02*
X101165030Y-131660010D01*
X105424975Y-126760036D02*
X102825025Y-126760036D01*
X105424975Y-127839970D02*
X105424975Y-126760036D01*
X105424975Y-131820005D02*
X105424975Y-132740020D01*
X105424975Y-132740020D02*
X102818193Y-132740020D01*
X105062389Y-127280635D02*
G75*
G02*
X104812453Y-127280635I-124968J0D01*
G01*
X104812453Y-127280635D02*
G75*
G02*
X105062389Y-127280635I124968J0D01*
G01*
D10*
%TO.C,R52*%
X103491359Y-105852500D02*
X103798641Y-105852500D01*
X103491359Y-106612500D02*
X103798641Y-106612500D01*
%TO.C,P46*%
X123550000Y-137450000D02*
X125450000Y-137450000D01*
X123550000Y-139350000D02*
X123550000Y-137450000D01*
X125450000Y-137450000D02*
X125450000Y-139350000D01*
X125450000Y-139350000D02*
X123550000Y-139350000D01*
%TO.C,L2*%
X128680000Y-106440000D02*
X132900000Y-106440000D01*
X132900000Y-110660000D02*
X128680000Y-110660000D01*
%TO.C,C78*%
X131792164Y-114730000D02*
X132007836Y-114730000D01*
X131792164Y-115450000D02*
X132007836Y-115450000D01*
%TO.C,C79*%
X130792164Y-123240000D02*
X131007836Y-123240000D01*
X130792164Y-123960000D02*
X131007836Y-123960000D01*
%TO.C,SW2*%
X111405200Y-127962000D02*
X111405200Y-128262000D01*
X111405200Y-130762000D02*
X111405200Y-130462000D01*
X114705200Y-127962000D02*
X111405200Y-127962000D01*
X114705200Y-128262000D02*
X114705200Y-127962000D01*
X114705200Y-130462000D02*
X114705200Y-130762000D01*
X114705200Y-130762000D02*
X111405200Y-130762000D01*
%TO.C,J12*%
X129115000Y-104800000D02*
X129115000Y-102100000D01*
X131835000Y-102050000D02*
X131835000Y-102690000D01*
X131835000Y-104210000D02*
X132465000Y-104210000D01*
X131835000Y-104850000D02*
X131835000Y-104210000D01*
%TO.C,R15*%
X108396359Y-125070000D02*
X108703641Y-125070000D01*
X108396359Y-125830000D02*
X108703641Y-125830000D01*
%TO.C,R47*%
X126786359Y-107820000D02*
X127093641Y-107820000D01*
X126786359Y-108580000D02*
X127093641Y-108580000D01*
D12*
%TO.C,J19*%
X139900025Y-100289980D02*
X142506807Y-100289980D01*
X139900025Y-101209995D02*
X139900025Y-100289980D01*
X139900025Y-105190030D02*
X139900025Y-106269964D01*
X139900025Y-106269964D02*
X142499975Y-106269964D01*
X144159970Y-105269964D02*
X144159970Y-101369990D01*
X140512547Y-105749365D02*
G75*
G02*
X140262611Y-105749365I-124968J0D01*
G01*
X140262611Y-105749365D02*
G75*
G02*
X140512547Y-105749365I124968J0D01*
G01*
D14*
%TO.C,Q1*%
X141653787Y-109243787D02*
X141653787Y-110275410D01*
X141653787Y-112296213D02*
X141653787Y-111264590D01*
X143106213Y-109243787D02*
X141653787Y-109243787D01*
X143106213Y-110314602D02*
X143106213Y-111225398D01*
X143106213Y-112296213D02*
X141653787Y-112296213D01*
D10*
%TO.C,TP3*%
X122000000Y-133500000D02*
X123900000Y-133500000D01*
X122000000Y-135400000D02*
X122000000Y-133500000D01*
X123900000Y-133500000D02*
X123900000Y-135400000D01*
X123900000Y-135400000D02*
X122000000Y-135400000D01*
%TO.C,C75*%
X102287164Y-102872500D02*
X102502836Y-102872500D01*
X102287164Y-103592500D02*
X102502836Y-103592500D01*
%TO.C,R40*%
X131211359Y-125733100D02*
X131518641Y-125733100D01*
X131211359Y-126493100D02*
X131518641Y-126493100D01*
%TO.C,TP9*%
X119550000Y-136550000D02*
X121450000Y-136550000D01*
X119550000Y-138450000D02*
X119550000Y-136550000D01*
X121450000Y-136550000D02*
X121450000Y-138450000D01*
X121450000Y-138450000D02*
X119550000Y-138450000D01*
%TO.C,TP7*%
X107600000Y-127000000D02*
X109500000Y-127000000D01*
X107600000Y-128900000D02*
X107600000Y-127000000D01*
X109500000Y-127000000D02*
X109500000Y-128900000D01*
X109500000Y-128900000D02*
X107600000Y-128900000D01*
%TO.C,TP4*%
X141000000Y-125000000D02*
X142900000Y-125000000D01*
X141000000Y-126900000D02*
X141000000Y-125000000D01*
X142900000Y-125000000D02*
X142900000Y-126900000D01*
X142900000Y-126900000D02*
X141000000Y-126900000D01*
%TO.C,R36*%
X141753641Y-117537400D02*
X141446359Y-117537400D01*
X141753641Y-118297400D02*
X141446359Y-118297400D01*
%TO.C,PZ1*%
X133000000Y-136500000D02*
X134900000Y-136500000D01*
X133000000Y-138400000D02*
X133000000Y-136500000D01*
X134900000Y-136500000D02*
X134900000Y-138400000D01*
X134900000Y-138400000D02*
X133000000Y-138400000D01*
D19*
%TO.C,U11*%
X110813787Y-103048588D02*
X115866213Y-103048588D01*
X110813787Y-104121105D02*
X110813787Y-103048588D01*
X110813787Y-105005382D02*
X110813787Y-106091412D01*
X110813787Y-106091412D02*
X115866213Y-106091412D01*
X111272436Y-103048588D02*
X110813787Y-103048588D01*
X111272436Y-106091412D02*
X110813787Y-106091412D01*
X112542438Y-103048588D02*
X111597557Y-103048588D01*
X112542438Y-106091412D02*
X111597557Y-106091412D01*
X113812441Y-103048588D02*
X112867559Y-103048588D01*
X113812441Y-106091412D02*
X112867559Y-106091412D01*
X115082443Y-103048588D02*
X114137562Y-103048588D01*
X115082443Y-106091412D02*
X114137562Y-106091412D01*
X115866213Y-103048588D02*
X115407564Y-103048588D01*
X115866213Y-103048588D02*
X115866213Y-106091412D01*
X115866213Y-106091412D02*
X115407564Y-106091412D01*
X110813787Y-105005383D02*
G75*
G02*
X110813787Y-104121105I0J442139D01*
G01*
D16*
X111585110Y-105586002D02*
G75*
G02*
X111284882Y-105586002I-150114J0D01*
G01*
X111284882Y-105586002D02*
G75*
G02*
X111585110Y-105586002I150114J0D01*
G01*
D12*
%TO.C,J1*%
X117927915Y-98999016D02*
X117927915Y-100471990D01*
X117927915Y-102428048D02*
X117927915Y-104422003D01*
X117999924Y-98850019D02*
X126999924Y-98850019D01*
X126999924Y-98850019D02*
X126999924Y-100468866D01*
X126999924Y-102431172D02*
X126999924Y-104418904D01*
D10*
%TO.C,TP2*%
X107400000Y-113550000D02*
X109300000Y-113550000D01*
X107400000Y-115450000D02*
X107400000Y-113550000D01*
X109300000Y-113550000D02*
X109300000Y-115450000D01*
X109300000Y-115450000D02*
X107400000Y-115450000D01*
D12*
%TO.C,J18*%
X101000000Y-140699987D02*
X101968860Y-140699987D01*
X101000000Y-142550000D02*
X101000000Y-140699987D01*
X101000000Y-142550000D02*
X101000000Y-143156350D01*
X102031140Y-145000013D02*
X103968860Y-145000013D01*
X104031140Y-140699987D02*
X105000000Y-140699987D01*
X105000000Y-140699987D02*
X105000000Y-143156350D01*
%TO.C,J15*%
X140162052Y-139550000D02*
X140162052Y-140718860D01*
X140162052Y-143781140D02*
X140162052Y-144950000D01*
X140162052Y-144950000D02*
X144462052Y-144950000D01*
X144462052Y-139550000D02*
X140162052Y-139550000D01*
X144462052Y-140781140D02*
X144462052Y-143718860D01*
D16*
X139529591Y-144181928D02*
G75*
G02*
X139229363Y-144181928I-150114J0D01*
G01*
X139229363Y-144181928D02*
G75*
G02*
X139529591Y-144181928I150114J0D01*
G01*
D10*
%TO.C,U8*%
X129050000Y-111640000D02*
G75*
G02*
X128850000Y-111640000I-100000J0D01*
G01*
X128850000Y-111640000D02*
G75*
G02*
X129050000Y-111640000I100000J0D01*
G01*
%TO.C,R55*%
X103346359Y-138120000D02*
X103653641Y-138120000D01*
X103346359Y-138880000D02*
X103653641Y-138880000D01*
%TO.C,R51*%
X103531359Y-109237500D02*
X103838641Y-109237500D01*
X103531359Y-109997500D02*
X103838641Y-109997500D01*
%TO.C,P44*%
X115270000Y-131891100D02*
X117170000Y-131891100D01*
X115270000Y-133791100D02*
X115270000Y-131891100D01*
X117170000Y-131891100D02*
X117170000Y-133791100D01*
X117170000Y-133791100D02*
X115270000Y-133791100D01*
%TO.C,P72*%
X109600000Y-131500000D02*
X111500000Y-131500000D01*
X109600000Y-133400000D02*
X109600000Y-131500000D01*
X111500000Y-131500000D02*
X111500000Y-133400000D01*
X111500000Y-133400000D02*
X109600000Y-133400000D01*
%TO.C,TP22*%
X104000000Y-100850000D02*
X105900000Y-100850000D01*
X104000000Y-102750000D02*
X104000000Y-100850000D01*
X105900000Y-100850000D02*
X105900000Y-102750000D01*
X105900000Y-102750000D02*
X104000000Y-102750000D01*
%TD*%
M02*
