%TF.GenerationSoftware,KiCad,Pcbnew,9.0.8+dfsg-1*%
%TF.CreationDate,2026-09-26T16:33:46+01:00*%
%TF.ProjectId,NAVCORE-SoOP,4e415643-4f52-4452-9d53-6f4f502e6b69,rev?*%
%TF.SameCoordinates,Original*%
%TF.FileFunction,Legend,Top*%
%TF.FilePolarity,Positive*%
%FSLAX46Y46*%
G04 Gerber Fmt 4.6, Leading zero omitted, Abs format (unit mm)*
G04 Created by KiCad (PCBNEW 9.0.8+dfsg-1) date 2026-09-26 16:33:46*
%MOMM*%
%LPD*%
G01*
G04 APERTURE LIST*
%ADD10C,0.150000*%
%ADD11C,0.120000*%
%ADD12C,0.254001*%
%ADD13C,0.248920*%
%ADD14C,0.152400*%
%ADD15C,0.100000*%
%ADD16C,0.300000*%
%ADD17C,0.200000*%
%ADD18C,0.600000*%
%ADD19C,0.150013*%
G04 APERTURE END LIST*
D10*
X133200000Y-118350000D02*
X132400000Y-119150000D01*
X133200000Y-118350000D02*
X134000000Y-119150000D01*
X133200000Y-120850000D02*
X133200000Y-118350000D01*
D11*
X100329048Y-126068855D02*
X100329048Y-125268855D01*
X100671904Y-125345045D02*
X100710000Y-125306950D01*
X100710000Y-125306950D02*
X100786190Y-125268855D01*
X100786190Y-125268855D02*
X100976666Y-125268855D01*
X100976666Y-125268855D02*
X101052857Y-125306950D01*
X101052857Y-125306950D02*
X101090952Y-125345045D01*
X101090952Y-125345045D02*
X101129047Y-125421236D01*
X101129047Y-125421236D02*
X101129047Y-125497426D01*
X101129047Y-125497426D02*
X101090952Y-125611712D01*
X101090952Y-125611712D02*
X100633809Y-126068855D01*
X100633809Y-126068855D02*
X101129047Y-126068855D01*
X101929048Y-125992664D02*
X101890952Y-126030760D01*
X101890952Y-126030760D02*
X101776667Y-126068855D01*
X101776667Y-126068855D02*
X101700476Y-126068855D01*
X101700476Y-126068855D02*
X101586190Y-126030760D01*
X101586190Y-126030760D02*
X101510000Y-125954569D01*
X101510000Y-125954569D02*
X101471905Y-125878379D01*
X101471905Y-125878379D02*
X101433809Y-125725998D01*
X101433809Y-125725998D02*
X101433809Y-125611712D01*
X101433809Y-125611712D02*
X101471905Y-125459331D01*
X101471905Y-125459331D02*
X101510000Y-125383140D01*
X101510000Y-125383140D02*
X101586190Y-125306950D01*
X101586190Y-125306950D02*
X101700476Y-125268855D01*
X101700476Y-125268855D02*
X101776667Y-125268855D01*
X101776667Y-125268855D02*
X101890952Y-125306950D01*
X101890952Y-125306950D02*
X101929048Y-125345045D01*
X100352619Y-124299807D02*
X100619285Y-124299807D01*
X100733571Y-124718855D02*
X100352619Y-124718855D01*
X100352619Y-124718855D02*
X100352619Y-123918855D01*
X100352619Y-123918855D02*
X100733571Y-123918855D01*
X101038333Y-124680760D02*
X101152619Y-124718855D01*
X101152619Y-124718855D02*
X101343095Y-124718855D01*
X101343095Y-124718855D02*
X101419286Y-124680760D01*
X101419286Y-124680760D02*
X101457381Y-124642664D01*
X101457381Y-124642664D02*
X101495476Y-124566474D01*
X101495476Y-124566474D02*
X101495476Y-124490283D01*
X101495476Y-124490283D02*
X101457381Y-124414093D01*
X101457381Y-124414093D02*
X101419286Y-124375998D01*
X101419286Y-124375998D02*
X101343095Y-124337902D01*
X101343095Y-124337902D02*
X101190714Y-124299807D01*
X101190714Y-124299807D02*
X101114524Y-124261712D01*
X101114524Y-124261712D02*
X101076429Y-124223617D01*
X101076429Y-124223617D02*
X101038333Y-124147426D01*
X101038333Y-124147426D02*
X101038333Y-124071236D01*
X101038333Y-124071236D02*
X101076429Y-123995045D01*
X101076429Y-123995045D02*
X101114524Y-123956950D01*
X101114524Y-123956950D02*
X101190714Y-123918855D01*
X101190714Y-123918855D02*
X101381191Y-123918855D01*
X101381191Y-123918855D02*
X101495476Y-123956950D01*
X102295477Y-124642664D02*
X102257381Y-124680760D01*
X102257381Y-124680760D02*
X102143096Y-124718855D01*
X102143096Y-124718855D02*
X102066905Y-124718855D01*
X102066905Y-124718855D02*
X101952619Y-124680760D01*
X101952619Y-124680760D02*
X101876429Y-124604569D01*
X101876429Y-124604569D02*
X101838334Y-124528379D01*
X101838334Y-124528379D02*
X101800238Y-124375998D01*
X101800238Y-124375998D02*
X101800238Y-124261712D01*
X101800238Y-124261712D02*
X101838334Y-124109331D01*
X101838334Y-124109331D02*
X101876429Y-124033140D01*
X101876429Y-124033140D02*
X101952619Y-123956950D01*
X101952619Y-123956950D02*
X102066905Y-123918855D01*
X102066905Y-123918855D02*
X102143096Y-123918855D01*
X102143096Y-123918855D02*
X102257381Y-123956950D01*
X102257381Y-123956950D02*
X102295477Y-123995045D01*
X103953572Y-146248855D02*
X103953572Y-145448855D01*
X103953572Y-145448855D02*
X104258334Y-145448855D01*
X104258334Y-145448855D02*
X104334524Y-145486950D01*
X104334524Y-145486950D02*
X104372619Y-145525045D01*
X104372619Y-145525045D02*
X104410715Y-145601236D01*
X104410715Y-145601236D02*
X104410715Y-145715521D01*
X104410715Y-145715521D02*
X104372619Y-145791712D01*
X104372619Y-145791712D02*
X104334524Y-145829807D01*
X104334524Y-145829807D02*
X104258334Y-145867902D01*
X104258334Y-145867902D02*
X103953572Y-145867902D01*
X104905953Y-145867902D02*
X104905953Y-146248855D01*
X104639286Y-145448855D02*
X104905953Y-145867902D01*
X104905953Y-145867902D02*
X105172619Y-145448855D01*
X105896429Y-146248855D02*
X105629762Y-145867902D01*
X105439286Y-146248855D02*
X105439286Y-145448855D01*
X105439286Y-145448855D02*
X105744048Y-145448855D01*
X105744048Y-145448855D02*
X105820238Y-145486950D01*
X105820238Y-145486950D02*
X105858333Y-145525045D01*
X105858333Y-145525045D02*
X105896429Y-145601236D01*
X105896429Y-145601236D02*
X105896429Y-145715521D01*
X105896429Y-145715521D02*
X105858333Y-145791712D01*
X105858333Y-145791712D02*
X105820238Y-145829807D01*
X105820238Y-145829807D02*
X105744048Y-145867902D01*
X105744048Y-145867902D02*
X105439286Y-145867902D01*
X106391667Y-145448855D02*
X106544048Y-145448855D01*
X106544048Y-145448855D02*
X106620238Y-145486950D01*
X106620238Y-145486950D02*
X106696429Y-145563140D01*
X106696429Y-145563140D02*
X106734524Y-145715521D01*
X106734524Y-145715521D02*
X106734524Y-145982188D01*
X106734524Y-145982188D02*
X106696429Y-146134569D01*
X106696429Y-146134569D02*
X106620238Y-146210760D01*
X106620238Y-146210760D02*
X106544048Y-146248855D01*
X106544048Y-146248855D02*
X106391667Y-146248855D01*
X106391667Y-146248855D02*
X106315476Y-146210760D01*
X106315476Y-146210760D02*
X106239286Y-146134569D01*
X106239286Y-146134569D02*
X106201190Y-145982188D01*
X106201190Y-145982188D02*
X106201190Y-145715521D01*
X106201190Y-145715521D02*
X106239286Y-145563140D01*
X106239286Y-145563140D02*
X106315476Y-145486950D01*
X106315476Y-145486950D02*
X106391667Y-145448855D01*
X129510714Y-101040283D02*
X129891667Y-101040283D01*
X129434524Y-101268855D02*
X129701191Y-100468855D01*
X129701191Y-100468855D02*
X129967857Y-101268855D01*
X130234524Y-101268855D02*
X130234524Y-100468855D01*
X130234524Y-100468855D02*
X130691667Y-101268855D01*
X130691667Y-101268855D02*
X130691667Y-100468855D01*
X130958333Y-100468855D02*
X131415476Y-100468855D01*
X131186904Y-101268855D02*
X131186904Y-100468855D01*
X137990714Y-145668855D02*
X137609762Y-145668855D01*
X137609762Y-145668855D02*
X137609762Y-144868855D01*
X138257381Y-145249807D02*
X138524047Y-145249807D01*
X138638333Y-145668855D02*
X138257381Y-145668855D01*
X138257381Y-145668855D02*
X138257381Y-144868855D01*
X138257381Y-144868855D02*
X138638333Y-144868855D01*
X138981191Y-145668855D02*
X138981191Y-144868855D01*
X138981191Y-144868855D02*
X139171667Y-144868855D01*
X139171667Y-144868855D02*
X139285953Y-144906950D01*
X139285953Y-144906950D02*
X139362143Y-144983140D01*
X139362143Y-144983140D02*
X139400238Y-145059331D01*
X139400238Y-145059331D02*
X139438334Y-145211712D01*
X139438334Y-145211712D02*
X139438334Y-145325998D01*
X139438334Y-145325998D02*
X139400238Y-145478379D01*
X139400238Y-145478379D02*
X139362143Y-145554569D01*
X139362143Y-145554569D02*
X139285953Y-145630760D01*
X139285953Y-145630760D02*
X139171667Y-145668855D01*
X139171667Y-145668855D02*
X138981191Y-145668855D01*
X141949285Y-107600760D02*
X142063571Y-107638855D01*
X142063571Y-107638855D02*
X142254047Y-107638855D01*
X142254047Y-107638855D02*
X142330238Y-107600760D01*
X142330238Y-107600760D02*
X142368333Y-107562664D01*
X142368333Y-107562664D02*
X142406428Y-107486474D01*
X142406428Y-107486474D02*
X142406428Y-107410283D01*
X142406428Y-107410283D02*
X142368333Y-107334093D01*
X142368333Y-107334093D02*
X142330238Y-107295998D01*
X142330238Y-107295998D02*
X142254047Y-107257902D01*
X142254047Y-107257902D02*
X142101666Y-107219807D01*
X142101666Y-107219807D02*
X142025476Y-107181712D01*
X142025476Y-107181712D02*
X141987381Y-107143617D01*
X141987381Y-107143617D02*
X141949285Y-107067426D01*
X141949285Y-107067426D02*
X141949285Y-106991236D01*
X141949285Y-106991236D02*
X141987381Y-106915045D01*
X141987381Y-106915045D02*
X142025476Y-106876950D01*
X142025476Y-106876950D02*
X142101666Y-106838855D01*
X142101666Y-106838855D02*
X142292143Y-106838855D01*
X142292143Y-106838855D02*
X142406428Y-106876950D01*
X142673095Y-106838855D02*
X142863571Y-107638855D01*
X142863571Y-107638855D02*
X143015952Y-107067426D01*
X143015952Y-107067426D02*
X143168333Y-107638855D01*
X143168333Y-107638855D02*
X143358810Y-106838855D01*
X143663572Y-107638855D02*
X143663572Y-106838855D01*
X143663572Y-106838855D02*
X143854048Y-106838855D01*
X143854048Y-106838855D02*
X143968334Y-106876950D01*
X143968334Y-106876950D02*
X144044524Y-106953140D01*
X144044524Y-106953140D02*
X144082619Y-107029331D01*
X144082619Y-107029331D02*
X144120715Y-107181712D01*
X144120715Y-107181712D02*
X144120715Y-107295998D01*
X144120715Y-107295998D02*
X144082619Y-107448379D01*
X144082619Y-107448379D02*
X144044524Y-107524569D01*
X144044524Y-107524569D02*
X143968334Y-107600760D01*
X143968334Y-107600760D02*
X143854048Y-107638855D01*
X143854048Y-107638855D02*
X143663572Y-107638855D01*
X108100760Y-144067381D02*
X108138855Y-143953095D01*
X108138855Y-143953095D02*
X108138855Y-143762619D01*
X108138855Y-143762619D02*
X108100760Y-143686428D01*
X108100760Y-143686428D02*
X108062664Y-143648333D01*
X108062664Y-143648333D02*
X107986474Y-143610238D01*
X107986474Y-143610238D02*
X107910283Y-143610238D01*
X107910283Y-143610238D02*
X107834093Y-143648333D01*
X107834093Y-143648333D02*
X107795998Y-143686428D01*
X107795998Y-143686428D02*
X107757902Y-143762619D01*
X107757902Y-143762619D02*
X107719807Y-143915000D01*
X107719807Y-143915000D02*
X107681712Y-143991190D01*
X107681712Y-143991190D02*
X107643617Y-144029285D01*
X107643617Y-144029285D02*
X107567426Y-144067381D01*
X107567426Y-144067381D02*
X107491236Y-144067381D01*
X107491236Y-144067381D02*
X107415045Y-144029285D01*
X107415045Y-144029285D02*
X107376950Y-143991190D01*
X107376950Y-143991190D02*
X107338855Y-143915000D01*
X107338855Y-143915000D02*
X107338855Y-143724523D01*
X107338855Y-143724523D02*
X107376950Y-143610238D01*
X107719807Y-143267380D02*
X107719807Y-143000714D01*
X108138855Y-142886428D02*
X108138855Y-143267380D01*
X108138855Y-143267380D02*
X107338855Y-143267380D01*
X107338855Y-143267380D02*
X107338855Y-142886428D01*
X108138855Y-142086427D02*
X107757902Y-142353094D01*
X108138855Y-142543570D02*
X107338855Y-142543570D01*
X107338855Y-142543570D02*
X107338855Y-142238808D01*
X107338855Y-142238808D02*
X107376950Y-142162618D01*
X107376950Y-142162618D02*
X107415045Y-142124523D01*
X107415045Y-142124523D02*
X107491236Y-142086427D01*
X107491236Y-142086427D02*
X107605521Y-142086427D01*
X107605521Y-142086427D02*
X107681712Y-142124523D01*
X107681712Y-142124523D02*
X107719807Y-142162618D01*
X107719807Y-142162618D02*
X107757902Y-142238808D01*
X107757902Y-142238808D02*
X107757902Y-142543570D01*
X107338855Y-141857856D02*
X108138855Y-141591189D01*
X108138855Y-141591189D02*
X107338855Y-141324523D01*
X107338855Y-140905475D02*
X107338855Y-140753094D01*
X107338855Y-140753094D02*
X107376950Y-140676904D01*
X107376950Y-140676904D02*
X107453140Y-140600713D01*
X107453140Y-140600713D02*
X107605521Y-140562618D01*
X107605521Y-140562618D02*
X107872188Y-140562618D01*
X107872188Y-140562618D02*
X108024569Y-140600713D01*
X108024569Y-140600713D02*
X108100760Y-140676904D01*
X108100760Y-140676904D02*
X108138855Y-140753094D01*
X108138855Y-140753094D02*
X108138855Y-140905475D01*
X108138855Y-140905475D02*
X108100760Y-140981666D01*
X108100760Y-140981666D02*
X108024569Y-141057856D01*
X108024569Y-141057856D02*
X107872188Y-141095952D01*
X107872188Y-141095952D02*
X107605521Y-141095952D01*
X107605521Y-141095952D02*
X107453140Y-141057856D01*
X107453140Y-141057856D02*
X107376950Y-140981666D01*
X107376950Y-140981666D02*
X107338855Y-140905475D01*
X118998855Y-102279523D02*
X119646474Y-102279523D01*
X119646474Y-102279523D02*
X119722664Y-102241428D01*
X119722664Y-102241428D02*
X119760760Y-102203333D01*
X119760760Y-102203333D02*
X119798855Y-102127142D01*
X119798855Y-102127142D02*
X119798855Y-101974761D01*
X119798855Y-101974761D02*
X119760760Y-101898571D01*
X119760760Y-101898571D02*
X119722664Y-101860476D01*
X119722664Y-101860476D02*
X119646474Y-101822380D01*
X119646474Y-101822380D02*
X118998855Y-101822380D01*
X119760760Y-101479524D02*
X119798855Y-101365238D01*
X119798855Y-101365238D02*
X119798855Y-101174762D01*
X119798855Y-101174762D02*
X119760760Y-101098571D01*
X119760760Y-101098571D02*
X119722664Y-101060476D01*
X119722664Y-101060476D02*
X119646474Y-101022381D01*
X119646474Y-101022381D02*
X119570283Y-101022381D01*
X119570283Y-101022381D02*
X119494093Y-101060476D01*
X119494093Y-101060476D02*
X119455998Y-101098571D01*
X119455998Y-101098571D02*
X119417902Y-101174762D01*
X119417902Y-101174762D02*
X119379807Y-101327143D01*
X119379807Y-101327143D02*
X119341712Y-101403333D01*
X119341712Y-101403333D02*
X119303617Y-101441428D01*
X119303617Y-101441428D02*
X119227426Y-101479524D01*
X119227426Y-101479524D02*
X119151236Y-101479524D01*
X119151236Y-101479524D02*
X119075045Y-101441428D01*
X119075045Y-101441428D02*
X119036950Y-101403333D01*
X119036950Y-101403333D02*
X118998855Y-101327143D01*
X118998855Y-101327143D02*
X118998855Y-101136666D01*
X118998855Y-101136666D02*
X119036950Y-101022381D01*
X119379807Y-100412857D02*
X119417902Y-100298571D01*
X119417902Y-100298571D02*
X119455998Y-100260476D01*
X119455998Y-100260476D02*
X119532188Y-100222380D01*
X119532188Y-100222380D02*
X119646474Y-100222380D01*
X119646474Y-100222380D02*
X119722664Y-100260476D01*
X119722664Y-100260476D02*
X119760760Y-100298571D01*
X119760760Y-100298571D02*
X119798855Y-100374761D01*
X119798855Y-100374761D02*
X119798855Y-100679523D01*
X119798855Y-100679523D02*
X118998855Y-100679523D01*
X118998855Y-100679523D02*
X118998855Y-100412857D01*
X118998855Y-100412857D02*
X119036950Y-100336666D01*
X119036950Y-100336666D02*
X119075045Y-100298571D01*
X119075045Y-100298571D02*
X119151236Y-100260476D01*
X119151236Y-100260476D02*
X119227426Y-100260476D01*
X119227426Y-100260476D02*
X119303617Y-100298571D01*
X119303617Y-100298571D02*
X119341712Y-100336666D01*
X119341712Y-100336666D02*
X119379807Y-100412857D01*
X119379807Y-100412857D02*
X119379807Y-100679523D01*
X127626950Y-129796428D02*
X127588855Y-129872618D01*
X127588855Y-129872618D02*
X127588855Y-129986904D01*
X127588855Y-129986904D02*
X127626950Y-130101190D01*
X127626950Y-130101190D02*
X127703140Y-130177380D01*
X127703140Y-130177380D02*
X127779331Y-130215475D01*
X127779331Y-130215475D02*
X127931712Y-130253571D01*
X127931712Y-130253571D02*
X128045998Y-130253571D01*
X128045998Y-130253571D02*
X128198379Y-130215475D01*
X128198379Y-130215475D02*
X128274569Y-130177380D01*
X128274569Y-130177380D02*
X128350760Y-130101190D01*
X128350760Y-130101190D02*
X128388855Y-129986904D01*
X128388855Y-129986904D02*
X128388855Y-129910713D01*
X128388855Y-129910713D02*
X128350760Y-129796428D01*
X128350760Y-129796428D02*
X128312664Y-129758332D01*
X128312664Y-129758332D02*
X128045998Y-129758332D01*
X128045998Y-129758332D02*
X128045998Y-129910713D01*
X128388855Y-129415475D02*
X127588855Y-129415475D01*
X127588855Y-129415475D02*
X127588855Y-129110713D01*
X127588855Y-129110713D02*
X127626950Y-129034523D01*
X127626950Y-129034523D02*
X127665045Y-128996428D01*
X127665045Y-128996428D02*
X127741236Y-128958332D01*
X127741236Y-128958332D02*
X127855521Y-128958332D01*
X127855521Y-128958332D02*
X127931712Y-128996428D01*
X127931712Y-128996428D02*
X127969807Y-129034523D01*
X127969807Y-129034523D02*
X128007902Y-129110713D01*
X128007902Y-129110713D02*
X128007902Y-129415475D01*
X128350760Y-128653571D02*
X128388855Y-128539285D01*
X128388855Y-128539285D02*
X128388855Y-128348809D01*
X128388855Y-128348809D02*
X128350760Y-128272618D01*
X128350760Y-128272618D02*
X128312664Y-128234523D01*
X128312664Y-128234523D02*
X128236474Y-128196428D01*
X128236474Y-128196428D02*
X128160283Y-128196428D01*
X128160283Y-128196428D02*
X128084093Y-128234523D01*
X128084093Y-128234523D02*
X128045998Y-128272618D01*
X128045998Y-128272618D02*
X128007902Y-128348809D01*
X128007902Y-128348809D02*
X127969807Y-128501190D01*
X127969807Y-128501190D02*
X127931712Y-128577380D01*
X127931712Y-128577380D02*
X127893617Y-128615475D01*
X127893617Y-128615475D02*
X127817426Y-128653571D01*
X127817426Y-128653571D02*
X127741236Y-128653571D01*
X127741236Y-128653571D02*
X127665045Y-128615475D01*
X127665045Y-128615475D02*
X127626950Y-128577380D01*
X127626950Y-128577380D02*
X127588855Y-128501190D01*
X127588855Y-128501190D02*
X127588855Y-128310713D01*
X127588855Y-128310713D02*
X127626950Y-128196428D01*
D10*
X118569048Y-146054819D02*
X118569048Y-145054819D01*
X119140476Y-146054819D02*
X118711905Y-145483390D01*
X119140476Y-145054819D02*
X118569048Y-145626247D01*
X120140476Y-146054819D02*
X119807143Y-145578628D01*
X119569048Y-146054819D02*
X119569048Y-145054819D01*
X119569048Y-145054819D02*
X119950000Y-145054819D01*
X119950000Y-145054819D02*
X120045238Y-145102438D01*
X120045238Y-145102438D02*
X120092857Y-145150057D01*
X120092857Y-145150057D02*
X120140476Y-145245295D01*
X120140476Y-145245295D02*
X120140476Y-145388152D01*
X120140476Y-145388152D02*
X120092857Y-145483390D01*
X120092857Y-145483390D02*
X120045238Y-145531009D01*
X120045238Y-145531009D02*
X119950000Y-145578628D01*
X119950000Y-145578628D02*
X119569048Y-145578628D01*
X120759524Y-145578628D02*
X120759524Y-146054819D01*
X120426191Y-145054819D02*
X120759524Y-145578628D01*
X120759524Y-145578628D02*
X121092857Y-145054819D01*
X121378572Y-146007200D02*
X121521429Y-146054819D01*
X121521429Y-146054819D02*
X121759524Y-146054819D01*
X121759524Y-146054819D02*
X121854762Y-146007200D01*
X121854762Y-146007200D02*
X121902381Y-145959580D01*
X121902381Y-145959580D02*
X121950000Y-145864342D01*
X121950000Y-145864342D02*
X121950000Y-145769104D01*
X121950000Y-145769104D02*
X121902381Y-145673866D01*
X121902381Y-145673866D02*
X121854762Y-145626247D01*
X121854762Y-145626247D02*
X121759524Y-145578628D01*
X121759524Y-145578628D02*
X121569048Y-145531009D01*
X121569048Y-145531009D02*
X121473810Y-145483390D01*
X121473810Y-145483390D02*
X121426191Y-145435771D01*
X121426191Y-145435771D02*
X121378572Y-145340533D01*
X121378572Y-145340533D02*
X121378572Y-145245295D01*
X121378572Y-145245295D02*
X121426191Y-145150057D01*
X121426191Y-145150057D02*
X121473810Y-145102438D01*
X121473810Y-145102438D02*
X121569048Y-145054819D01*
X121569048Y-145054819D02*
X121807143Y-145054819D01*
X121807143Y-145054819D02*
X121950000Y-145102438D01*
X122235715Y-145054819D02*
X122807143Y-145054819D01*
X122521429Y-146054819D02*
X122521429Y-145054819D01*
X123140477Y-146054819D02*
X123140477Y-145054819D01*
X123569048Y-145769104D02*
X124045238Y-145769104D01*
X123473810Y-146054819D02*
X123807143Y-145054819D01*
X123807143Y-145054819D02*
X124140476Y-146054819D01*
X124473810Y-146054819D02*
X124473810Y-145054819D01*
X124473810Y-145054819D02*
X125045238Y-146054819D01*
X125045238Y-146054819D02*
X125045238Y-145054819D01*
X126616667Y-145531009D02*
X126283334Y-145531009D01*
X126283334Y-146054819D02*
X126283334Y-145054819D01*
X126283334Y-145054819D02*
X126759524Y-145054819D01*
X127140477Y-146054819D02*
X127140477Y-145054819D01*
X128092857Y-146054819D02*
X127616667Y-146054819D01*
X127616667Y-146054819D02*
X127616667Y-145054819D01*
X128426191Y-146054819D02*
X128426191Y-145054819D01*
X128902381Y-146054819D02*
X128902381Y-145054819D01*
X128902381Y-145054819D02*
X129283333Y-145054819D01*
X129283333Y-145054819D02*
X129378571Y-145102438D01*
X129378571Y-145102438D02*
X129426190Y-145150057D01*
X129426190Y-145150057D02*
X129473809Y-145245295D01*
X129473809Y-145245295D02*
X129473809Y-145388152D01*
X129473809Y-145388152D02*
X129426190Y-145483390D01*
X129426190Y-145483390D02*
X129378571Y-145531009D01*
X129378571Y-145531009D02*
X129283333Y-145578628D01*
X129283333Y-145578628D02*
X128902381Y-145578628D01*
X129902381Y-145531009D02*
X130235714Y-145531009D01*
X130378571Y-146054819D02*
X129902381Y-146054819D01*
X129902381Y-146054819D02*
X129902381Y-145054819D01*
X129902381Y-145054819D02*
X130378571Y-145054819D01*
X130807143Y-146054819D02*
X130807143Y-145054819D01*
X131378571Y-146054819D02*
X130950000Y-145483390D01*
X131378571Y-145054819D02*
X130807143Y-145626247D01*
D11*
X117968571Y-135553855D02*
X117968571Y-134753855D01*
X117968571Y-134753855D02*
X118273333Y-134753855D01*
X118273333Y-134753855D02*
X118349523Y-134791950D01*
X118349523Y-134791950D02*
X118387618Y-134830045D01*
X118387618Y-134830045D02*
X118425714Y-134906236D01*
X118425714Y-134906236D02*
X118425714Y-135020521D01*
X118425714Y-135020521D02*
X118387618Y-135096712D01*
X118387618Y-135096712D02*
X118349523Y-135134807D01*
X118349523Y-135134807D02*
X118273333Y-135172902D01*
X118273333Y-135172902D02*
X117968571Y-135172902D01*
X118692380Y-134753855D02*
X119225714Y-134753855D01*
X119225714Y-134753855D02*
X118692380Y-135553855D01*
X118692380Y-135553855D02*
X119225714Y-135553855D01*
X119492380Y-134830045D02*
X119530476Y-134791950D01*
X119530476Y-134791950D02*
X119606666Y-134753855D01*
X119606666Y-134753855D02*
X119797142Y-134753855D01*
X119797142Y-134753855D02*
X119873333Y-134791950D01*
X119873333Y-134791950D02*
X119911428Y-134830045D01*
X119911428Y-134830045D02*
X119949523Y-134906236D01*
X119949523Y-134906236D02*
X119949523Y-134982426D01*
X119949523Y-134982426D02*
X119911428Y-135096712D01*
X119911428Y-135096712D02*
X119454285Y-135553855D01*
X119454285Y-135553855D02*
X119949523Y-135553855D01*
X142503855Y-135830476D02*
X142503855Y-135373333D01*
X143303855Y-135601905D02*
X142503855Y-135601905D01*
X143303855Y-135106666D02*
X142503855Y-135106666D01*
X142503855Y-135106666D02*
X142503855Y-134801904D01*
X142503855Y-134801904D02*
X142541950Y-134725714D01*
X142541950Y-134725714D02*
X142580045Y-134687619D01*
X142580045Y-134687619D02*
X142656236Y-134649523D01*
X142656236Y-134649523D02*
X142770521Y-134649523D01*
X142770521Y-134649523D02*
X142846712Y-134687619D01*
X142846712Y-134687619D02*
X142884807Y-134725714D01*
X142884807Y-134725714D02*
X142922902Y-134801904D01*
X142922902Y-134801904D02*
X142922902Y-135106666D01*
X142580045Y-134344762D02*
X142541950Y-134306666D01*
X142541950Y-134306666D02*
X142503855Y-134230476D01*
X142503855Y-134230476D02*
X142503855Y-134040000D01*
X142503855Y-134040000D02*
X142541950Y-133963809D01*
X142541950Y-133963809D02*
X142580045Y-133925714D01*
X142580045Y-133925714D02*
X142656236Y-133887619D01*
X142656236Y-133887619D02*
X142732426Y-133887619D01*
X142732426Y-133887619D02*
X142846712Y-133925714D01*
X142846712Y-133925714D02*
X143303855Y-134382857D01*
X143303855Y-134382857D02*
X143303855Y-133887619D01*
X142503855Y-133392380D02*
X142503855Y-133316190D01*
X142503855Y-133316190D02*
X142541950Y-133239999D01*
X142541950Y-133239999D02*
X142580045Y-133201904D01*
X142580045Y-133201904D02*
X142656236Y-133163809D01*
X142656236Y-133163809D02*
X142808617Y-133125714D01*
X142808617Y-133125714D02*
X142999093Y-133125714D01*
X142999093Y-133125714D02*
X143151474Y-133163809D01*
X143151474Y-133163809D02*
X143227664Y-133201904D01*
X143227664Y-133201904D02*
X143265760Y-133239999D01*
X143265760Y-133239999D02*
X143303855Y-133316190D01*
X143303855Y-133316190D02*
X143303855Y-133392380D01*
X143303855Y-133392380D02*
X143265760Y-133468571D01*
X143265760Y-133468571D02*
X143227664Y-133506666D01*
X143227664Y-133506666D02*
X143151474Y-133544761D01*
X143151474Y-133544761D02*
X142999093Y-133582857D01*
X142999093Y-133582857D02*
X142808617Y-133582857D01*
X142808617Y-133582857D02*
X142656236Y-133544761D01*
X142656236Y-133544761D02*
X142580045Y-133506666D01*
X142580045Y-133506666D02*
X142541950Y-133468571D01*
X142541950Y-133468571D02*
X142503855Y-133392380D01*
X134413880Y-125817153D02*
X135061499Y-125817153D01*
X135061499Y-125817153D02*
X135137689Y-125779058D01*
X135137689Y-125779058D02*
X135175785Y-125740963D01*
X135175785Y-125740963D02*
X135213880Y-125664772D01*
X135213880Y-125664772D02*
X135213880Y-125512391D01*
X135213880Y-125512391D02*
X135175785Y-125436201D01*
X135175785Y-125436201D02*
X135137689Y-125398106D01*
X135137689Y-125398106D02*
X135061499Y-125360010D01*
X135061499Y-125360010D02*
X134413880Y-125360010D01*
X135213880Y-124940963D02*
X135213880Y-124788582D01*
X135213880Y-124788582D02*
X135175785Y-124712392D01*
X135175785Y-124712392D02*
X135137689Y-124674296D01*
X135137689Y-124674296D02*
X135023404Y-124598106D01*
X135023404Y-124598106D02*
X134871023Y-124560011D01*
X134871023Y-124560011D02*
X134566261Y-124560011D01*
X134566261Y-124560011D02*
X134490070Y-124598106D01*
X134490070Y-124598106D02*
X134451975Y-124636201D01*
X134451975Y-124636201D02*
X134413880Y-124712392D01*
X134413880Y-124712392D02*
X134413880Y-124864773D01*
X134413880Y-124864773D02*
X134451975Y-124940963D01*
X134451975Y-124940963D02*
X134490070Y-124979058D01*
X134490070Y-124979058D02*
X134566261Y-125017154D01*
X134566261Y-125017154D02*
X134756737Y-125017154D01*
X134756737Y-125017154D02*
X134832927Y-124979058D01*
X134832927Y-124979058D02*
X134871023Y-124940963D01*
X134871023Y-124940963D02*
X134909118Y-124864773D01*
X134909118Y-124864773D02*
X134909118Y-124712392D01*
X134909118Y-124712392D02*
X134871023Y-124636201D01*
X134871023Y-124636201D02*
X134832927Y-124598106D01*
X134832927Y-124598106D02*
X134756737Y-124560011D01*
X134009422Y-143763893D02*
X134009422Y-144411512D01*
X134009422Y-144411512D02*
X134047517Y-144487702D01*
X134047517Y-144487702D02*
X134085612Y-144525798D01*
X134085612Y-144525798D02*
X134161803Y-144563893D01*
X134161803Y-144563893D02*
X134314184Y-144563893D01*
X134314184Y-144563893D02*
X134390374Y-144525798D01*
X134390374Y-144525798D02*
X134428469Y-144487702D01*
X134428469Y-144487702D02*
X134466565Y-144411512D01*
X134466565Y-144411512D02*
X134466565Y-143763893D01*
X135266564Y-144563893D02*
X134809421Y-144563893D01*
X135037993Y-144563893D02*
X135037993Y-143763893D01*
X135037993Y-143763893D02*
X134961802Y-143878178D01*
X134961802Y-143878178D02*
X134885612Y-143954369D01*
X134885612Y-143954369D02*
X134809421Y-143992464D01*
X135533231Y-143763893D02*
X136066565Y-143763893D01*
X136066565Y-143763893D02*
X135723707Y-144563893D01*
X127253855Y-134830476D02*
X127253855Y-134373333D01*
X128053855Y-134601905D02*
X127253855Y-134601905D01*
X128053855Y-134106666D02*
X127253855Y-134106666D01*
X127253855Y-134106666D02*
X127253855Y-133801904D01*
X127253855Y-133801904D02*
X127291950Y-133725714D01*
X127291950Y-133725714D02*
X127330045Y-133687619D01*
X127330045Y-133687619D02*
X127406236Y-133649523D01*
X127406236Y-133649523D02*
X127520521Y-133649523D01*
X127520521Y-133649523D02*
X127596712Y-133687619D01*
X127596712Y-133687619D02*
X127634807Y-133725714D01*
X127634807Y-133725714D02*
X127672902Y-133801904D01*
X127672902Y-133801904D02*
X127672902Y-134106666D01*
X127330045Y-133344762D02*
X127291950Y-133306666D01*
X127291950Y-133306666D02*
X127253855Y-133230476D01*
X127253855Y-133230476D02*
X127253855Y-133040000D01*
X127253855Y-133040000D02*
X127291950Y-132963809D01*
X127291950Y-132963809D02*
X127330045Y-132925714D01*
X127330045Y-132925714D02*
X127406236Y-132887619D01*
X127406236Y-132887619D02*
X127482426Y-132887619D01*
X127482426Y-132887619D02*
X127596712Y-132925714D01*
X127596712Y-132925714D02*
X128053855Y-133382857D01*
X128053855Y-133382857D02*
X128053855Y-132887619D01*
X128053855Y-132125714D02*
X128053855Y-132582857D01*
X128053855Y-132354285D02*
X127253855Y-132354285D01*
X127253855Y-132354285D02*
X127368140Y-132430476D01*
X127368140Y-132430476D02*
X127444331Y-132506666D01*
X127444331Y-132506666D02*
X127482426Y-132582857D01*
X136210473Y-116508749D02*
X136210473Y-117156368D01*
X136210473Y-117156368D02*
X136248568Y-117232558D01*
X136248568Y-117232558D02*
X136286663Y-117270654D01*
X136286663Y-117270654D02*
X136362854Y-117308749D01*
X136362854Y-117308749D02*
X136515235Y-117308749D01*
X136515235Y-117308749D02*
X136591425Y-117270654D01*
X136591425Y-117270654D02*
X136629520Y-117232558D01*
X136629520Y-117232558D02*
X136667616Y-117156368D01*
X136667616Y-117156368D02*
X136667616Y-116508749D01*
X137429520Y-116508749D02*
X137048568Y-116508749D01*
X137048568Y-116508749D02*
X137010472Y-116889701D01*
X137010472Y-116889701D02*
X137048568Y-116851606D01*
X137048568Y-116851606D02*
X137124758Y-116813511D01*
X137124758Y-116813511D02*
X137315234Y-116813511D01*
X137315234Y-116813511D02*
X137391425Y-116851606D01*
X137391425Y-116851606D02*
X137429520Y-116889701D01*
X137429520Y-116889701D02*
X137467615Y-116965892D01*
X137467615Y-116965892D02*
X137467615Y-117156368D01*
X137467615Y-117156368D02*
X137429520Y-117232558D01*
X137429520Y-117232558D02*
X137391425Y-117270654D01*
X137391425Y-117270654D02*
X137315234Y-117308749D01*
X137315234Y-117308749D02*
X137124758Y-117308749D01*
X137124758Y-117308749D02*
X137048568Y-117270654D01*
X137048568Y-117270654D02*
X137010472Y-117232558D01*
X117770476Y-107593944D02*
X117770476Y-108241563D01*
X117770476Y-108241563D02*
X117808571Y-108317753D01*
X117808571Y-108317753D02*
X117846666Y-108355849D01*
X117846666Y-108355849D02*
X117922857Y-108393944D01*
X117922857Y-108393944D02*
X118075238Y-108393944D01*
X118075238Y-108393944D02*
X118151428Y-108355849D01*
X118151428Y-108355849D02*
X118189523Y-108317753D01*
X118189523Y-108317753D02*
X118227619Y-108241563D01*
X118227619Y-108241563D02*
X118227619Y-107593944D01*
X119027618Y-108393944D02*
X118570475Y-108393944D01*
X118799047Y-108393944D02*
X118799047Y-107593944D01*
X118799047Y-107593944D02*
X118722856Y-107708229D01*
X118722856Y-107708229D02*
X118646666Y-107784420D01*
X118646666Y-107784420D02*
X118570475Y-107822515D01*
X112530476Y-137253855D02*
X112987619Y-137253855D01*
X112759047Y-138053855D02*
X112759047Y-137253855D01*
X113254286Y-138053855D02*
X113254286Y-137253855D01*
X113254286Y-137253855D02*
X113559048Y-137253855D01*
X113559048Y-137253855D02*
X113635238Y-137291950D01*
X113635238Y-137291950D02*
X113673333Y-137330045D01*
X113673333Y-137330045D02*
X113711429Y-137406236D01*
X113711429Y-137406236D02*
X113711429Y-137520521D01*
X113711429Y-137520521D02*
X113673333Y-137596712D01*
X113673333Y-137596712D02*
X113635238Y-137634807D01*
X113635238Y-137634807D02*
X113559048Y-137672902D01*
X113559048Y-137672902D02*
X113254286Y-137672902D01*
X114168571Y-137596712D02*
X114092381Y-137558617D01*
X114092381Y-137558617D02*
X114054286Y-137520521D01*
X114054286Y-137520521D02*
X114016190Y-137444331D01*
X114016190Y-137444331D02*
X114016190Y-137406236D01*
X114016190Y-137406236D02*
X114054286Y-137330045D01*
X114054286Y-137330045D02*
X114092381Y-137291950D01*
X114092381Y-137291950D02*
X114168571Y-137253855D01*
X114168571Y-137253855D02*
X114320952Y-137253855D01*
X114320952Y-137253855D02*
X114397143Y-137291950D01*
X114397143Y-137291950D02*
X114435238Y-137330045D01*
X114435238Y-137330045D02*
X114473333Y-137406236D01*
X114473333Y-137406236D02*
X114473333Y-137444331D01*
X114473333Y-137444331D02*
X114435238Y-137520521D01*
X114435238Y-137520521D02*
X114397143Y-137558617D01*
X114397143Y-137558617D02*
X114320952Y-137596712D01*
X114320952Y-137596712D02*
X114168571Y-137596712D01*
X114168571Y-137596712D02*
X114092381Y-137634807D01*
X114092381Y-137634807D02*
X114054286Y-137672902D01*
X114054286Y-137672902D02*
X114016190Y-137749093D01*
X114016190Y-137749093D02*
X114016190Y-137901474D01*
X114016190Y-137901474D02*
X114054286Y-137977664D01*
X114054286Y-137977664D02*
X114092381Y-138015760D01*
X114092381Y-138015760D02*
X114168571Y-138053855D01*
X114168571Y-138053855D02*
X114320952Y-138053855D01*
X114320952Y-138053855D02*
X114397143Y-138015760D01*
X114397143Y-138015760D02*
X114435238Y-137977664D01*
X114435238Y-137977664D02*
X114473333Y-137901474D01*
X114473333Y-137901474D02*
X114473333Y-137749093D01*
X114473333Y-137749093D02*
X114435238Y-137672902D01*
X114435238Y-137672902D02*
X114397143Y-137634807D01*
X114397143Y-137634807D02*
X114320952Y-137596712D01*
X128053855Y-137411428D02*
X127253855Y-137411428D01*
X127253855Y-137411428D02*
X127253855Y-137106666D01*
X127253855Y-137106666D02*
X127291950Y-137030476D01*
X127291950Y-137030476D02*
X127330045Y-136992381D01*
X127330045Y-136992381D02*
X127406236Y-136954285D01*
X127406236Y-136954285D02*
X127520521Y-136954285D01*
X127520521Y-136954285D02*
X127596712Y-136992381D01*
X127596712Y-136992381D02*
X127634807Y-137030476D01*
X127634807Y-137030476D02*
X127672902Y-137106666D01*
X127672902Y-137106666D02*
X127672902Y-137411428D01*
X127253855Y-136687619D02*
X127253855Y-136154285D01*
X127253855Y-136154285D02*
X128053855Y-136497143D01*
X128053855Y-135430476D02*
X128053855Y-135887619D01*
X128053855Y-135659047D02*
X127253855Y-135659047D01*
X127253855Y-135659047D02*
X127368140Y-135735238D01*
X127368140Y-135735238D02*
X127444331Y-135811428D01*
X127444331Y-135811428D02*
X127482426Y-135887619D01*
X126603855Y-138361428D02*
X125803855Y-138361428D01*
X125803855Y-138361428D02*
X125803855Y-138056666D01*
X125803855Y-138056666D02*
X125841950Y-137980476D01*
X125841950Y-137980476D02*
X125880045Y-137942381D01*
X125880045Y-137942381D02*
X125956236Y-137904285D01*
X125956236Y-137904285D02*
X126070521Y-137904285D01*
X126070521Y-137904285D02*
X126146712Y-137942381D01*
X126146712Y-137942381D02*
X126184807Y-137980476D01*
X126184807Y-137980476D02*
X126222902Y-138056666D01*
X126222902Y-138056666D02*
X126222902Y-138361428D01*
X126070521Y-137218571D02*
X126603855Y-137218571D01*
X125765760Y-137409047D02*
X126337188Y-137599524D01*
X126337188Y-137599524D02*
X126337188Y-137104285D01*
X125803855Y-136456666D02*
X125803855Y-136609047D01*
X125803855Y-136609047D02*
X125841950Y-136685238D01*
X125841950Y-136685238D02*
X125880045Y-136723333D01*
X125880045Y-136723333D02*
X125994331Y-136799523D01*
X125994331Y-136799523D02*
X126146712Y-136837619D01*
X126146712Y-136837619D02*
X126451474Y-136837619D01*
X126451474Y-136837619D02*
X126527664Y-136799523D01*
X126527664Y-136799523D02*
X126565760Y-136761428D01*
X126565760Y-136761428D02*
X126603855Y-136685238D01*
X126603855Y-136685238D02*
X126603855Y-136532857D01*
X126603855Y-136532857D02*
X126565760Y-136456666D01*
X126565760Y-136456666D02*
X126527664Y-136418571D01*
X126527664Y-136418571D02*
X126451474Y-136380476D01*
X126451474Y-136380476D02*
X126260998Y-136380476D01*
X126260998Y-136380476D02*
X126184807Y-136418571D01*
X126184807Y-136418571D02*
X126146712Y-136456666D01*
X126146712Y-136456666D02*
X126108617Y-136532857D01*
X126108617Y-136532857D02*
X126108617Y-136685238D01*
X126108617Y-136685238D02*
X126146712Y-136761428D01*
X126146712Y-136761428D02*
X126184807Y-136799523D01*
X126184807Y-136799523D02*
X126260998Y-136837619D01*
X116765476Y-137063855D02*
X117222619Y-137063855D01*
X116994047Y-137863855D02*
X116994047Y-137063855D01*
X117489286Y-137863855D02*
X117489286Y-137063855D01*
X117489286Y-137063855D02*
X117794048Y-137063855D01*
X117794048Y-137063855D02*
X117870238Y-137101950D01*
X117870238Y-137101950D02*
X117908333Y-137140045D01*
X117908333Y-137140045D02*
X117946429Y-137216236D01*
X117946429Y-137216236D02*
X117946429Y-137330521D01*
X117946429Y-137330521D02*
X117908333Y-137406712D01*
X117908333Y-137406712D02*
X117870238Y-137444807D01*
X117870238Y-137444807D02*
X117794048Y-137482902D01*
X117794048Y-137482902D02*
X117489286Y-137482902D01*
X118327381Y-137863855D02*
X118479762Y-137863855D01*
X118479762Y-137863855D02*
X118555952Y-137825760D01*
X118555952Y-137825760D02*
X118594048Y-137787664D01*
X118594048Y-137787664D02*
X118670238Y-137673379D01*
X118670238Y-137673379D02*
X118708333Y-137520998D01*
X118708333Y-137520998D02*
X118708333Y-137216236D01*
X118708333Y-137216236D02*
X118670238Y-137140045D01*
X118670238Y-137140045D02*
X118632143Y-137101950D01*
X118632143Y-137101950D02*
X118555952Y-137063855D01*
X118555952Y-137063855D02*
X118403571Y-137063855D01*
X118403571Y-137063855D02*
X118327381Y-137101950D01*
X118327381Y-137101950D02*
X118289286Y-137140045D01*
X118289286Y-137140045D02*
X118251190Y-137216236D01*
X118251190Y-137216236D02*
X118251190Y-137406712D01*
X118251190Y-137406712D02*
X118289286Y-137482902D01*
X118289286Y-137482902D02*
X118327381Y-137520998D01*
X118327381Y-137520998D02*
X118403571Y-137559093D01*
X118403571Y-137559093D02*
X118555952Y-137559093D01*
X118555952Y-137559093D02*
X118632143Y-137520998D01*
X118632143Y-137520998D02*
X118670238Y-137482902D01*
X118670238Y-137482902D02*
X118708333Y-137406712D01*
X106530476Y-129253855D02*
X106987619Y-129253855D01*
X106759047Y-130053855D02*
X106759047Y-129253855D01*
X107254286Y-130053855D02*
X107254286Y-129253855D01*
X107254286Y-129253855D02*
X107559048Y-129253855D01*
X107559048Y-129253855D02*
X107635238Y-129291950D01*
X107635238Y-129291950D02*
X107673333Y-129330045D01*
X107673333Y-129330045D02*
X107711429Y-129406236D01*
X107711429Y-129406236D02*
X107711429Y-129520521D01*
X107711429Y-129520521D02*
X107673333Y-129596712D01*
X107673333Y-129596712D02*
X107635238Y-129634807D01*
X107635238Y-129634807D02*
X107559048Y-129672902D01*
X107559048Y-129672902D02*
X107254286Y-129672902D01*
X107978095Y-129253855D02*
X108511429Y-129253855D01*
X108511429Y-129253855D02*
X108168571Y-130053855D01*
X143253855Y-125949523D02*
X143253855Y-125492380D01*
X144053855Y-125720952D02*
X143253855Y-125720952D01*
X144053855Y-125225713D02*
X143253855Y-125225713D01*
X143253855Y-125225713D02*
X143253855Y-124920951D01*
X143253855Y-124920951D02*
X143291950Y-124844761D01*
X143291950Y-124844761D02*
X143330045Y-124806666D01*
X143330045Y-124806666D02*
X143406236Y-124768570D01*
X143406236Y-124768570D02*
X143520521Y-124768570D01*
X143520521Y-124768570D02*
X143596712Y-124806666D01*
X143596712Y-124806666D02*
X143634807Y-124844761D01*
X143634807Y-124844761D02*
X143672902Y-124920951D01*
X143672902Y-124920951D02*
X143672902Y-125225713D01*
X143520521Y-124082856D02*
X144053855Y-124082856D01*
X143215760Y-124273332D02*
X143787188Y-124463809D01*
X143787188Y-124463809D02*
X143787188Y-123968570D01*
X132553855Y-137411428D02*
X131753855Y-137411428D01*
X131753855Y-137411428D02*
X131753855Y-137106666D01*
X131753855Y-137106666D02*
X131791950Y-137030476D01*
X131791950Y-137030476D02*
X131830045Y-136992381D01*
X131830045Y-136992381D02*
X131906236Y-136954285D01*
X131906236Y-136954285D02*
X132020521Y-136954285D01*
X132020521Y-136954285D02*
X132096712Y-136992381D01*
X132096712Y-136992381D02*
X132134807Y-137030476D01*
X132134807Y-137030476D02*
X132172902Y-137106666D01*
X132172902Y-137106666D02*
X132172902Y-137411428D01*
X131753855Y-136687619D02*
X131753855Y-136154285D01*
X131753855Y-136154285D02*
X132553855Y-136687619D01*
X132553855Y-136687619D02*
X132553855Y-136154285D01*
X132553855Y-135430476D02*
X132553855Y-135887619D01*
X132553855Y-135659047D02*
X131753855Y-135659047D01*
X131753855Y-135659047D02*
X131868140Y-135735238D01*
X131868140Y-135735238D02*
X131944331Y-135811428D01*
X131944331Y-135811428D02*
X131982426Y-135887619D01*
X112349524Y-99533906D02*
X112349524Y-100181525D01*
X112349524Y-100181525D02*
X112387619Y-100257715D01*
X112387619Y-100257715D02*
X112425714Y-100295811D01*
X112425714Y-100295811D02*
X112501905Y-100333906D01*
X112501905Y-100333906D02*
X112654286Y-100333906D01*
X112654286Y-100333906D02*
X112730476Y-100295811D01*
X112730476Y-100295811D02*
X112768571Y-100257715D01*
X112768571Y-100257715D02*
X112806667Y-100181525D01*
X112806667Y-100181525D02*
X112806667Y-99533906D01*
X113606666Y-100333906D02*
X113149523Y-100333906D01*
X113378095Y-100333906D02*
X113378095Y-99533906D01*
X113378095Y-99533906D02*
X113301904Y-99648191D01*
X113301904Y-99648191D02*
X113225714Y-99724382D01*
X113225714Y-99724382D02*
X113149523Y-99762477D01*
X114368571Y-100333906D02*
X113911428Y-100333906D01*
X114140000Y-100333906D02*
X114140000Y-99533906D01*
X114140000Y-99533906D02*
X114063809Y-99648191D01*
X114063809Y-99648191D02*
X113987619Y-99724382D01*
X113987619Y-99724382D02*
X113911428Y-99762477D01*
X108153855Y-117749523D02*
X108153855Y-117292380D01*
X108953855Y-117520952D02*
X108153855Y-117520952D01*
X108953855Y-117025713D02*
X108153855Y-117025713D01*
X108153855Y-117025713D02*
X108153855Y-116720951D01*
X108153855Y-116720951D02*
X108191950Y-116644761D01*
X108191950Y-116644761D02*
X108230045Y-116606666D01*
X108230045Y-116606666D02*
X108306236Y-116568570D01*
X108306236Y-116568570D02*
X108420521Y-116568570D01*
X108420521Y-116568570D02*
X108496712Y-116606666D01*
X108496712Y-116606666D02*
X108534807Y-116644761D01*
X108534807Y-116644761D02*
X108572902Y-116720951D01*
X108572902Y-116720951D02*
X108572902Y-117025713D01*
X108230045Y-116263809D02*
X108191950Y-116225713D01*
X108191950Y-116225713D02*
X108153855Y-116149523D01*
X108153855Y-116149523D02*
X108153855Y-115959047D01*
X108153855Y-115959047D02*
X108191950Y-115882856D01*
X108191950Y-115882856D02*
X108230045Y-115844761D01*
X108230045Y-115844761D02*
X108306236Y-115806666D01*
X108306236Y-115806666D02*
X108382426Y-115806666D01*
X108382426Y-115806666D02*
X108496712Y-115844761D01*
X108496712Y-115844761D02*
X108953855Y-116301904D01*
X108953855Y-116301904D02*
X108953855Y-115806666D01*
X107368862Y-134192713D02*
X107368862Y-133392713D01*
X107368862Y-133392713D02*
X107673624Y-133392713D01*
X107673624Y-133392713D02*
X107749814Y-133430808D01*
X107749814Y-133430808D02*
X107787909Y-133468903D01*
X107787909Y-133468903D02*
X107826005Y-133545094D01*
X107826005Y-133545094D02*
X107826005Y-133659379D01*
X107826005Y-133659379D02*
X107787909Y-133735570D01*
X107787909Y-133735570D02*
X107749814Y-133773665D01*
X107749814Y-133773665D02*
X107673624Y-133811760D01*
X107673624Y-133811760D02*
X107368862Y-133811760D01*
X108092671Y-133392713D02*
X108626005Y-133392713D01*
X108626005Y-133392713D02*
X108283147Y-134192713D01*
X108892671Y-133468903D02*
X108930767Y-133430808D01*
X108930767Y-133430808D02*
X109006957Y-133392713D01*
X109006957Y-133392713D02*
X109197433Y-133392713D01*
X109197433Y-133392713D02*
X109273624Y-133430808D01*
X109273624Y-133430808D02*
X109311719Y-133468903D01*
X109311719Y-133468903D02*
X109349814Y-133545094D01*
X109349814Y-133545094D02*
X109349814Y-133621284D01*
X109349814Y-133621284D02*
X109311719Y-133735570D01*
X109311719Y-133735570D02*
X108854576Y-134192713D01*
X108854576Y-134192713D02*
X109349814Y-134192713D01*
X103549523Y-103103855D02*
X104006666Y-103103855D01*
X103778094Y-103903855D02*
X103778094Y-103103855D01*
X104273333Y-103903855D02*
X104273333Y-103103855D01*
X104273333Y-103103855D02*
X104578095Y-103103855D01*
X104578095Y-103103855D02*
X104654285Y-103141950D01*
X104654285Y-103141950D02*
X104692380Y-103180045D01*
X104692380Y-103180045D02*
X104730476Y-103256236D01*
X104730476Y-103256236D02*
X104730476Y-103370521D01*
X104730476Y-103370521D02*
X104692380Y-103446712D01*
X104692380Y-103446712D02*
X104654285Y-103484807D01*
X104654285Y-103484807D02*
X104578095Y-103522902D01*
X104578095Y-103522902D02*
X104273333Y-103522902D01*
X105035237Y-103180045D02*
X105073333Y-103141950D01*
X105073333Y-103141950D02*
X105149523Y-103103855D01*
X105149523Y-103103855D02*
X105339999Y-103103855D01*
X105339999Y-103103855D02*
X105416190Y-103141950D01*
X105416190Y-103141950D02*
X105454285Y-103180045D01*
X105454285Y-103180045D02*
X105492380Y-103256236D01*
X105492380Y-103256236D02*
X105492380Y-103332426D01*
X105492380Y-103332426D02*
X105454285Y-103446712D01*
X105454285Y-103446712D02*
X104997142Y-103903855D01*
X104997142Y-103903855D02*
X105492380Y-103903855D01*
X105797142Y-103180045D02*
X105835238Y-103141950D01*
X105835238Y-103141950D02*
X105911428Y-103103855D01*
X105911428Y-103103855D02*
X106101904Y-103103855D01*
X106101904Y-103103855D02*
X106178095Y-103141950D01*
X106178095Y-103141950D02*
X106216190Y-103180045D01*
X106216190Y-103180045D02*
X106254285Y-103256236D01*
X106254285Y-103256236D02*
X106254285Y-103332426D01*
X106254285Y-103332426D02*
X106216190Y-103446712D01*
X106216190Y-103446712D02*
X105759047Y-103903855D01*
X105759047Y-103903855D02*
X106254285Y-103903855D01*
D12*
%TO.C,J3*%
X129330000Y-129509992D02*
X129330000Y-130538847D01*
X130438255Y-133610018D02*
X139021720Y-133610018D01*
X131073866Y-129509992D02*
X129330000Y-129509992D01*
X132323802Y-129509992D02*
X132136147Y-129509992D01*
X133573993Y-129509992D02*
X133386083Y-129509992D01*
X134823929Y-129509992D02*
X134636274Y-129509992D01*
X136073866Y-129509992D02*
X135886210Y-129509992D01*
X137323802Y-129509992D02*
X137136147Y-129509992D01*
X140130000Y-129509992D02*
X138386083Y-129509992D01*
X140130000Y-129509992D02*
X140130000Y-130538847D01*
D11*
X130524410Y-128568284D02*
X130581927Y-128585732D01*
X130634935Y-128614065D01*
X130681397Y-128652195D01*
X130719527Y-128698657D01*
X130747860Y-128751664D01*
X130765308Y-128809181D01*
X130771199Y-128868997D01*
X130765308Y-128928812D01*
X130747860Y-128986329D01*
X130719527Y-129039337D01*
X130681397Y-129085798D01*
X130634935Y-129123929D01*
X130581927Y-129152262D01*
X130524410Y-129169709D01*
X130464595Y-129175601D01*
X130404779Y-129169709D01*
X130347263Y-129152262D01*
X130294255Y-129123929D01*
X130247793Y-129085798D01*
X130209663Y-129039337D01*
X130181330Y-128986329D01*
X130163882Y-128928812D01*
X130157991Y-128868997D01*
X130163882Y-128809181D01*
X130181330Y-128751664D01*
X130209663Y-128698657D01*
X130247793Y-128652195D01*
X130294255Y-128614065D01*
X130347263Y-128585732D01*
X130404779Y-128568284D01*
X130464595Y-128562393D01*
X130524410Y-128568284D01*
G36*
X130524410Y-128568284D02*
G01*
X130581927Y-128585732D01*
X130634935Y-128614065D01*
X130681397Y-128652195D01*
X130719527Y-128698657D01*
X130747860Y-128751664D01*
X130765308Y-128809181D01*
X130771199Y-128868997D01*
X130765308Y-128928812D01*
X130747860Y-128986329D01*
X130719527Y-129039337D01*
X130681397Y-129085798D01*
X130634935Y-129123929D01*
X130581927Y-129152262D01*
X130524410Y-129169709D01*
X130464595Y-129175601D01*
X130404779Y-129169709D01*
X130347263Y-129152262D01*
X130294255Y-129123929D01*
X130247793Y-129085798D01*
X130209663Y-129039337D01*
X130181330Y-128986329D01*
X130163882Y-128928812D01*
X130157991Y-128868997D01*
X130163882Y-128809181D01*
X130181330Y-128751664D01*
X130209663Y-128698657D01*
X130247793Y-128652195D01*
X130294255Y-128614065D01*
X130347263Y-128585732D01*
X130404779Y-128568284D01*
X130464595Y-128562393D01*
X130524410Y-128568284D01*
G37*
%TO.C,C77*%
X108317164Y-104122500D02*
X108532836Y-104122500D01*
X108317164Y-104842500D02*
X108532836Y-104842500D01*
%TO.C,C28*%
X126307936Y-143391100D02*
X126092264Y-143391100D01*
X126307936Y-144111100D02*
X126092264Y-144111100D01*
%TO.C,U20*%
X129050000Y-119920000D02*
G75*
G02*
X128850000Y-119920000I-100000J0D01*
G01*
X128850000Y-119920000D02*
G75*
G02*
X129050000Y-119920000I100000J0D01*
G01*
D12*
%TO.C,J2*%
X100930767Y-114219990D02*
X100930767Y-121900000D01*
X105610752Y-122080010D02*
X105610752Y-123319990D01*
X105610752Y-123319990D02*
X103070772Y-123319990D01*
X105650757Y-112840005D02*
X103110752Y-112840005D01*
X105650757Y-114040005D02*
X105650757Y-112840005D01*
D11*
%TO.C,PZ2*%
X119000000Y-132500000D02*
X120900000Y-132500000D01*
X119000000Y-134400000D02*
X119000000Y-132500000D01*
X120900000Y-132500000D02*
X120900000Y-134400000D01*
X120900000Y-134400000D02*
X119000000Y-134400000D01*
%TO.C,TP20*%
X139500000Y-134500000D02*
X141400000Y-134500000D01*
X139500000Y-136400000D02*
X139500000Y-134500000D01*
X141400000Y-134500000D02*
X141400000Y-136400000D01*
X141400000Y-136400000D02*
X139500000Y-136400000D01*
%TO.C,R50*%
X103011359Y-110737500D02*
X103318641Y-110737500D01*
X103011359Y-111497500D02*
X103318641Y-111497500D01*
%TO.C,C84*%
X141392164Y-113540000D02*
X141607836Y-113540000D01*
X141392164Y-114260000D02*
X141607836Y-114260000D01*
%TO.C,C30*%
X118932536Y-142333500D02*
X118716864Y-142333500D01*
X118932536Y-143053500D02*
X118716864Y-143053500D01*
%TO.C,C46*%
X123367936Y-128848900D02*
X123152264Y-128848900D01*
X123367936Y-129568900D02*
X123152264Y-129568900D01*
%TO.C,L1*%
X125931622Y-127032600D02*
X125132378Y-127032600D01*
X125931622Y-128152600D02*
X125132378Y-128152600D01*
%TO.C,P73*%
X112600000Y-131500000D02*
X114500000Y-131500000D01*
X112600000Y-133400000D02*
X112600000Y-131500000D01*
X114500000Y-131500000D02*
X114500000Y-133400000D01*
X114500000Y-133400000D02*
X112600000Y-133400000D01*
%TO.C,TP1*%
X107400000Y-110600000D02*
X109300000Y-110600000D01*
X107400000Y-112500000D02*
X107400000Y-110600000D01*
X109300000Y-110600000D02*
X109300000Y-112500000D01*
X109300000Y-112500000D02*
X107400000Y-112500000D01*
%TO.C,C13*%
X122729636Y-127052400D02*
X122513964Y-127052400D01*
X122729636Y-127772400D02*
X122513964Y-127772400D01*
D12*
%TO.C,U9*%
X137649619Y-123808087D02*
X138650381Y-123808087D01*
X137649619Y-126607173D02*
X137649619Y-123808087D01*
X138650381Y-123808087D02*
X138650381Y-126607173D01*
X138650381Y-126607173D02*
X137649619Y-126607173D01*
D13*
X139671463Y-126997038D02*
G75*
G02*
X139671463Y-126999578I-134405J-1270D01*
G01*
D11*
%TO.C,D2*%
X120065000Y-139125000D02*
X120065000Y-140595000D01*
X120065000Y-140595000D02*
X122350000Y-140595000D01*
X122350000Y-139125000D02*
X120065000Y-139125000D01*
%TO.C,R54*%
X101346359Y-138120000D02*
X101653641Y-138120000D01*
X101346359Y-138880000D02*
X101653641Y-138880000D01*
%TO.C,R17*%
X108315000Y-101908641D02*
X108315000Y-101601359D01*
X109075000Y-101908641D02*
X109075000Y-101601359D01*
%TO.C,C6*%
X117933952Y-127179600D02*
X117411448Y-127179600D01*
X117933952Y-128649600D02*
X117411448Y-128649600D01*
D14*
%TO.C,D4*%
X135895625Y-110717063D02*
X138648076Y-110717063D01*
X135895625Y-112569540D02*
X138648076Y-112569540D01*
X136355061Y-110767076D02*
X136355061Y-112519527D01*
X138648076Y-110717063D02*
X138648076Y-110910104D01*
X138648076Y-112569540D02*
X138648076Y-112376499D01*
D11*
X135971851Y-110960878D02*
X135667050Y-110960878D01*
X135667050Y-110640889D01*
X135971851Y-110640889D01*
X135971851Y-110960878D01*
G36*
X135971851Y-110960878D02*
G01*
X135667050Y-110960878D01*
X135667050Y-110640889D01*
X135971851Y-110640889D01*
X135971851Y-110960878D01*
G37*
X135971851Y-112645715D02*
X135667050Y-112645715D01*
X135667050Y-112325725D01*
X135971851Y-112325725D01*
X135971851Y-112645715D01*
G36*
X135971851Y-112645715D02*
G01*
X135667050Y-112645715D01*
X135667050Y-112325725D01*
X135971851Y-112325725D01*
X135971851Y-112645715D01*
G37*
%TO.C,R16*%
X134817859Y-103755000D02*
X135125141Y-103755000D01*
X134817859Y-104515000D02*
X135125141Y-104515000D01*
%TO.C,R20*%
X128796359Y-139570000D02*
X129103641Y-139570000D01*
X128796359Y-140330000D02*
X129103641Y-140330000D01*
%TO.C,D3*%
X116065000Y-129215000D02*
X116065000Y-130685000D01*
X116065000Y-130685000D02*
X118350000Y-130685000D01*
X118350000Y-129215000D02*
X116065000Y-129215000D01*
%TO.C,C81*%
X142142164Y-122290000D02*
X142357836Y-122290000D01*
X142142164Y-123010000D02*
X142357836Y-123010000D01*
%TO.C,R48*%
X105281359Y-110602500D02*
X105588641Y-110602500D01*
X105281359Y-111362500D02*
X105588641Y-111362500D01*
%TO.C,C29*%
X118960136Y-143890000D02*
X118744464Y-143890000D01*
X118960136Y-144610000D02*
X118744464Y-144610000D01*
%TO.C,C45*%
X124139452Y-130376000D02*
X123616948Y-130376000D01*
X124139452Y-131846000D02*
X123616948Y-131846000D01*
%TO.C,R1*%
X141501359Y-123535000D02*
X141808641Y-123535000D01*
X141501359Y-124295000D02*
X141808641Y-124295000D01*
D15*
%TO.C,U10*%
X121599949Y-141251138D02*
X121599949Y-141397011D01*
X121599949Y-141251138D02*
X123399975Y-141251138D01*
X121599949Y-142305291D02*
X121599949Y-143296934D01*
X121599949Y-144205215D02*
X121599949Y-144351164D01*
X121599949Y-144351164D02*
X123399975Y-144351164D01*
X123399975Y-141251138D02*
X123399975Y-141396985D01*
X123399975Y-142305291D02*
X123399975Y-142346947D01*
X123399975Y-143255228D02*
X123399975Y-143296909D01*
X123399975Y-144205215D02*
X123399975Y-144351164D01*
D11*
X122915807Y-143641422D02*
X122949243Y-143651647D01*
X122980017Y-143668244D01*
X123006928Y-143690567D01*
X123028926Y-143717743D01*
X123045154Y-143748714D01*
X123054978Y-143782270D01*
X123058014Y-143817102D01*
X123054978Y-143851934D01*
X123045154Y-143885490D01*
X123028926Y-143916461D01*
X123006928Y-143943638D01*
X122980017Y-143965960D01*
X122949243Y-143982557D01*
X122915807Y-143992782D01*
X122881013Y-143996235D01*
X122846220Y-143992782D01*
X122812784Y-143982557D01*
X122782010Y-143965960D01*
X122755099Y-143943638D01*
X122733100Y-143916461D01*
X122716873Y-143885490D01*
X122707049Y-143851934D01*
X122704013Y-143817102D01*
X122707049Y-143782270D01*
X122716873Y-143748714D01*
X122733100Y-143717743D01*
X122755099Y-143690567D01*
X122782010Y-143668244D01*
X122812784Y-143651647D01*
X122846220Y-143641422D01*
X122881013Y-143637969D01*
X122915807Y-143641422D01*
G36*
X122915807Y-143641422D02*
G01*
X122949243Y-143651647D01*
X122980017Y-143668244D01*
X123006928Y-143690567D01*
X123028926Y-143717743D01*
X123045154Y-143748714D01*
X123054978Y-143782270D01*
X123058014Y-143817102D01*
X123054978Y-143851934D01*
X123045154Y-143885490D01*
X123028926Y-143916461D01*
X123006928Y-143943638D01*
X122980017Y-143965960D01*
X122949243Y-143982557D01*
X122915807Y-143992782D01*
X122881013Y-143996235D01*
X122846220Y-143992782D01*
X122812784Y-143982557D01*
X122782010Y-143965960D01*
X122755099Y-143943638D01*
X122733100Y-143916461D01*
X122716873Y-143885490D01*
X122707049Y-143851934D01*
X122704013Y-143817102D01*
X122707049Y-143782270D01*
X122716873Y-143748714D01*
X122733100Y-143717743D01*
X122755099Y-143690567D01*
X122782010Y-143668244D01*
X122812784Y-143651647D01*
X122846220Y-143641422D01*
X122881013Y-143637969D01*
X122915807Y-143641422D01*
G37*
D15*
%TO.C,U17*%
X131949949Y-140650038D02*
X131949949Y-140795911D01*
X131949949Y-140650038D02*
X133749975Y-140650038D01*
X131949949Y-141704191D02*
X131949949Y-142695834D01*
X131949949Y-143604115D02*
X131949949Y-143750064D01*
X131949949Y-143750064D02*
X133749975Y-143750064D01*
X133749975Y-140650038D02*
X133749975Y-140795885D01*
X133749975Y-141704191D02*
X133749975Y-141745847D01*
X133749975Y-142654128D02*
X133749975Y-142695809D01*
X133749975Y-143604115D02*
X133749975Y-143750064D01*
D11*
X133265807Y-143040322D02*
X133299243Y-143050547D01*
X133330017Y-143067144D01*
X133356928Y-143089467D01*
X133378926Y-143116643D01*
X133395154Y-143147614D01*
X133404978Y-143181170D01*
X133408014Y-143216002D01*
X133404978Y-143250834D01*
X133395154Y-143284390D01*
X133378926Y-143315361D01*
X133356928Y-143342538D01*
X133330017Y-143364860D01*
X133299243Y-143381457D01*
X133265807Y-143391682D01*
X133231013Y-143395135D01*
X133196220Y-143391682D01*
X133162784Y-143381457D01*
X133132010Y-143364860D01*
X133105099Y-143342538D01*
X133083100Y-143315361D01*
X133066873Y-143284390D01*
X133057049Y-143250834D01*
X133054013Y-143216002D01*
X133057049Y-143181170D01*
X133066873Y-143147614D01*
X133083100Y-143116643D01*
X133105099Y-143089467D01*
X133132010Y-143067144D01*
X133162784Y-143050547D01*
X133196220Y-143040322D01*
X133231013Y-143036869D01*
X133265807Y-143040322D01*
G36*
X133265807Y-143040322D02*
G01*
X133299243Y-143050547D01*
X133330017Y-143067144D01*
X133356928Y-143089467D01*
X133378926Y-143116643D01*
X133395154Y-143147614D01*
X133404978Y-143181170D01*
X133408014Y-143216002D01*
X133404978Y-143250834D01*
X133395154Y-143284390D01*
X133378926Y-143315361D01*
X133356928Y-143342538D01*
X133330017Y-143364860D01*
X133299243Y-143381457D01*
X133265807Y-143391682D01*
X133231013Y-143395135D01*
X133196220Y-143391682D01*
X133162784Y-143381457D01*
X133132010Y-143364860D01*
X133105099Y-143342538D01*
X133083100Y-143315361D01*
X133066873Y-143284390D01*
X133057049Y-143250834D01*
X133054013Y-143216002D01*
X133057049Y-143181170D01*
X133066873Y-143147614D01*
X133083100Y-143116643D01*
X133105099Y-143089467D01*
X133132010Y-143067144D01*
X133162784Y-143050547D01*
X133196220Y-143040322D01*
X133231013Y-143036869D01*
X133265807Y-143040322D01*
G37*
%TO.C,R21*%
X134036459Y-139275000D02*
X134343741Y-139275000D01*
X134036459Y-140035000D02*
X134343741Y-140035000D01*
%TO.C,R14*%
X108396359Y-123570000D02*
X108703641Y-123570000D01*
X108396359Y-124330000D02*
X108703641Y-124330000D01*
%TO.C,P41*%
X127500000Y-124000000D02*
X129400000Y-124000000D01*
X127500000Y-125900000D02*
X127500000Y-124000000D01*
X129400000Y-124000000D02*
X129400000Y-125900000D01*
X129400000Y-125900000D02*
X127500000Y-125900000D01*
%TO.C,TP21*%
X125000000Y-133500000D02*
X126900000Y-133500000D01*
X125000000Y-135400000D02*
X125000000Y-133500000D01*
X126900000Y-133500000D02*
X126900000Y-135400000D01*
X126900000Y-135400000D02*
X125000000Y-135400000D01*
%TO.C,R53*%
X102751359Y-104102500D02*
X103058641Y-104102500D01*
X102751359Y-104862500D02*
X103058641Y-104862500D01*
D14*
%TO.C,U5*%
X134401290Y-115923597D02*
X139678710Y-115923597D01*
X134401290Y-120276403D02*
X134401290Y-115923597D01*
X139678710Y-115923597D02*
X139678710Y-120276403D01*
X139678710Y-120276403D02*
X134401290Y-120276403D01*
D16*
X134517775Y-121630099D02*
G75*
G02*
X134217547Y-121630099I-150114J0D01*
G01*
X134217547Y-121630099D02*
G75*
G02*
X134517775Y-121630099I150114J0D01*
G01*
X135285110Y-119523927D02*
G75*
G02*
X134984882Y-119523927I-150114J0D01*
G01*
X134984882Y-119523927D02*
G75*
G02*
X135285110Y-119523927I150114J0D01*
G01*
D17*
%TO.C,U1*%
X112129987Y-111329987D02*
X112129987Y-123830013D01*
X112129987Y-123830013D02*
X124630013Y-123830013D01*
X124630013Y-111329987D02*
X112129987Y-111329987D01*
X124630013Y-123830013D02*
X124630013Y-111329987D01*
D16*
X111496586Y-125276215D02*
G75*
G02*
X111499126Y-125276215I1270J-161288D01*
G01*
D18*
X113129810Y-122530470D02*
G75*
G02*
X113134890Y-122530470I2540J-293249D01*
G01*
D11*
%TO.C,C68*%
X130392164Y-118440000D02*
X130607836Y-118440000D01*
X130392164Y-119160000D02*
X130607836Y-119160000D01*
%TO.C,TP10*%
X110350000Y-135646000D02*
X112250000Y-135646000D01*
X110350000Y-137546000D02*
X110350000Y-135646000D01*
X112250000Y-135646000D02*
X112250000Y-137546000D01*
X112250000Y-137546000D02*
X110350000Y-137546000D01*
D12*
%TO.C,J17*%
X108550000Y-140549975D02*
X108550000Y-143174257D01*
X109668872Y-140549975D02*
X108550000Y-140549975D01*
X109781191Y-145049924D02*
X115718885Y-145049924D01*
X115831179Y-140549975D02*
X116950000Y-140549975D01*
X116950000Y-140549975D02*
X116950000Y-143174257D01*
D14*
%TO.C,Q5*%
X101773787Y-134473787D02*
X101773787Y-135505410D01*
X101773787Y-137526213D02*
X101773787Y-136494590D01*
X103226213Y-134473787D02*
X101773787Y-134473787D01*
X103226213Y-135544602D02*
X103226213Y-136455398D01*
X103226213Y-137526213D02*
X101773787Y-137526213D01*
D11*
%TO.C,TP8*%
X113100000Y-135000000D02*
X115000000Y-135000000D01*
X113100000Y-136900000D02*
X113100000Y-135000000D01*
X115000000Y-135000000D02*
X115000000Y-136900000D01*
X115000000Y-136900000D02*
X113100000Y-136900000D01*
%TO.C,P71*%
X128500000Y-134500000D02*
X130400000Y-134500000D01*
X128500000Y-136400000D02*
X128500000Y-134500000D01*
X130400000Y-134500000D02*
X130400000Y-136400000D01*
X130400000Y-136400000D02*
X128500000Y-136400000D01*
D12*
%TO.C,J9*%
X101165030Y-127760036D02*
X101165030Y-131660010D01*
X105424975Y-126760036D02*
X102825025Y-126760036D01*
X105424975Y-127839970D02*
X105424975Y-126760036D01*
X105424975Y-131820005D02*
X105424975Y-132740020D01*
X105424975Y-132740020D02*
X102818193Y-132740020D01*
X105062389Y-127280635D02*
G75*
G02*
X104812453Y-127280635I-124968J0D01*
G01*
X104812453Y-127280635D02*
G75*
G02*
X105062389Y-127280635I124968J0D01*
G01*
D11*
%TO.C,R52*%
X103491359Y-105852500D02*
X103798641Y-105852500D01*
X103491359Y-106612500D02*
X103798641Y-106612500D01*
%TO.C,P46*%
X123550000Y-137450000D02*
X125450000Y-137450000D01*
X123550000Y-139350000D02*
X123550000Y-137450000D01*
X125450000Y-137450000D02*
X125450000Y-139350000D01*
X125450000Y-139350000D02*
X123550000Y-139350000D01*
%TO.C,L2*%
X128680000Y-106440000D02*
X132900000Y-106440000D01*
X132900000Y-110660000D02*
X128680000Y-110660000D01*
%TO.C,C78*%
X131792164Y-114730000D02*
X132007836Y-114730000D01*
X131792164Y-115450000D02*
X132007836Y-115450000D01*
%TO.C,C79*%
X130792164Y-123240000D02*
X131007836Y-123240000D01*
X130792164Y-123960000D02*
X131007836Y-123960000D01*
%TO.C,SW2*%
X111405200Y-127962000D02*
X111405200Y-128262000D01*
X111405200Y-130762000D02*
X111405200Y-130462000D01*
X114705200Y-127962000D02*
X111405200Y-127962000D01*
X114705200Y-128262000D02*
X114705200Y-127962000D01*
X114705200Y-130462000D02*
X114705200Y-130762000D01*
X114705200Y-130762000D02*
X111405200Y-130762000D01*
%TO.C,J12*%
X129115000Y-104800000D02*
X129115000Y-102100000D01*
X131835000Y-102050000D02*
X131835000Y-102690000D01*
X131835000Y-104210000D02*
X132465000Y-104210000D01*
X131835000Y-104850000D02*
X131835000Y-104210000D01*
%TO.C,R15*%
X108396359Y-125070000D02*
X108703641Y-125070000D01*
X108396359Y-125830000D02*
X108703641Y-125830000D01*
%TO.C,R47*%
X126786359Y-107820000D02*
X127093641Y-107820000D01*
X126786359Y-108580000D02*
X127093641Y-108580000D01*
D12*
%TO.C,J19*%
X139900025Y-100289980D02*
X142506807Y-100289980D01*
X139900025Y-101209995D02*
X139900025Y-100289980D01*
X139900025Y-105190030D02*
X139900025Y-106269964D01*
X139900025Y-106269964D02*
X142499975Y-106269964D01*
X144159970Y-105269964D02*
X144159970Y-101369990D01*
X140512547Y-105749365D02*
G75*
G02*
X140262611Y-105749365I-124968J0D01*
G01*
X140262611Y-105749365D02*
G75*
G02*
X140512547Y-105749365I124968J0D01*
G01*
D14*
%TO.C,Q1*%
X141653787Y-109243787D02*
X141653787Y-110275410D01*
X141653787Y-112296213D02*
X141653787Y-111264590D01*
X143106213Y-109243787D02*
X141653787Y-109243787D01*
X143106213Y-110314602D02*
X143106213Y-111225398D01*
X143106213Y-112296213D02*
X141653787Y-112296213D01*
D11*
%TO.C,TP3*%
X122000000Y-133500000D02*
X123900000Y-133500000D01*
X122000000Y-135400000D02*
X122000000Y-133500000D01*
X123900000Y-133500000D02*
X123900000Y-135400000D01*
X123900000Y-135400000D02*
X122000000Y-135400000D01*
%TO.C,C75*%
X102287164Y-102872500D02*
X102502836Y-102872500D01*
X102287164Y-103592500D02*
X102502836Y-103592500D01*
%TO.C,R40*%
X131211359Y-125733100D02*
X131518641Y-125733100D01*
X131211359Y-126493100D02*
X131518641Y-126493100D01*
%TO.C,TP9*%
X119550000Y-136550000D02*
X121450000Y-136550000D01*
X119550000Y-138450000D02*
X119550000Y-136550000D01*
X121450000Y-136550000D02*
X121450000Y-138450000D01*
X121450000Y-138450000D02*
X119550000Y-138450000D01*
%TO.C,TP7*%
X107600000Y-127000000D02*
X109500000Y-127000000D01*
X107600000Y-128900000D02*
X107600000Y-127000000D01*
X109500000Y-127000000D02*
X109500000Y-128900000D01*
X109500000Y-128900000D02*
X107600000Y-128900000D01*
%TO.C,TP4*%
X141000000Y-125000000D02*
X142900000Y-125000000D01*
X141000000Y-126900000D02*
X141000000Y-125000000D01*
X142900000Y-125000000D02*
X142900000Y-126900000D01*
X142900000Y-126900000D02*
X141000000Y-126900000D01*
%TO.C,R57*%
X142596359Y-121020000D02*
X142903641Y-121020000D01*
X142596359Y-121780000D02*
X142903641Y-121780000D01*
%TO.C,R36*%
X141753641Y-117537400D02*
X141446359Y-117537400D01*
X141753641Y-118297400D02*
X141446359Y-118297400D01*
%TO.C,PZ1*%
X133000000Y-136500000D02*
X134900000Y-136500000D01*
X133000000Y-138400000D02*
X133000000Y-136500000D01*
X134900000Y-136500000D02*
X134900000Y-138400000D01*
X134900000Y-138400000D02*
X133000000Y-138400000D01*
D19*
%TO.C,U11*%
X110813787Y-103048588D02*
X115866213Y-103048588D01*
X110813787Y-104121105D02*
X110813787Y-103048588D01*
X110813787Y-105005382D02*
X110813787Y-106091412D01*
X110813787Y-106091412D02*
X115866213Y-106091412D01*
X111272436Y-103048588D02*
X110813787Y-103048588D01*
X111272436Y-106091412D02*
X110813787Y-106091412D01*
X112542438Y-103048588D02*
X111597557Y-103048588D01*
X112542438Y-106091412D02*
X111597557Y-106091412D01*
X113812441Y-103048588D02*
X112867559Y-103048588D01*
X113812441Y-106091412D02*
X112867559Y-106091412D01*
X115082443Y-103048588D02*
X114137562Y-103048588D01*
X115082443Y-106091412D02*
X114137562Y-106091412D01*
X115866213Y-103048588D02*
X115407564Y-103048588D01*
X115866213Y-103048588D02*
X115866213Y-106091412D01*
X115866213Y-106091412D02*
X115407564Y-106091412D01*
X110813787Y-105005383D02*
G75*
G02*
X110813787Y-104121105I0J442139D01*
G01*
D16*
X111585110Y-105586002D02*
G75*
G02*
X111284882Y-105586002I-150114J0D01*
G01*
X111284882Y-105586002D02*
G75*
G02*
X111585110Y-105586002I150114J0D01*
G01*
D12*
%TO.C,J1*%
X117927915Y-99550000D02*
X117927915Y-100372968D01*
X117927915Y-103827401D02*
X117927915Y-104422003D01*
X126999924Y-99550000D02*
X126999924Y-100372968D01*
X126999924Y-102526968D02*
X126999924Y-102892400D01*
X126999924Y-103846401D02*
X126999924Y-104418904D01*
D11*
%TO.C,TP2*%
X107400000Y-113550000D02*
X109300000Y-113550000D01*
X107400000Y-115450000D02*
X107400000Y-113550000D01*
X109300000Y-113550000D02*
X109300000Y-115450000D01*
X109300000Y-115450000D02*
X107400000Y-115450000D01*
D12*
%TO.C,J18*%
X101000000Y-140699987D02*
X101968860Y-140699987D01*
X101000000Y-142550000D02*
X101000000Y-140699987D01*
X101000000Y-142550000D02*
X101000000Y-143156350D01*
X102031140Y-145000013D02*
X103968860Y-145000013D01*
X104031140Y-140699987D02*
X105000000Y-140699987D01*
X105000000Y-140699987D02*
X105000000Y-143156350D01*
%TO.C,J15*%
X140162052Y-139550000D02*
X140162052Y-140718860D01*
X140162052Y-143781140D02*
X140162052Y-144950000D01*
X140162052Y-144950000D02*
X144462052Y-144950000D01*
X144462052Y-139550000D02*
X140162052Y-139550000D01*
X144462052Y-140781140D02*
X144462052Y-143718860D01*
D16*
X139529591Y-144181928D02*
G75*
G02*
X139229363Y-144181928I-150114J0D01*
G01*
X139229363Y-144181928D02*
G75*
G02*
X139529591Y-144181928I150114J0D01*
G01*
D11*
%TO.C,U8*%
X129050000Y-111640000D02*
G75*
G02*
X128850000Y-111640000I-100000J0D01*
G01*
X128850000Y-111640000D02*
G75*
G02*
X129050000Y-111640000I100000J0D01*
G01*
%TO.C,R55*%
X103346359Y-138120000D02*
X103653641Y-138120000D01*
X103346359Y-138880000D02*
X103653641Y-138880000D01*
%TO.C,R51*%
X103531359Y-109237500D02*
X103838641Y-109237500D01*
X103531359Y-109997500D02*
X103838641Y-109997500D01*
%TO.C,P44*%
X115270000Y-131891100D02*
X117170000Y-131891100D01*
X115270000Y-133791100D02*
X115270000Y-131891100D01*
X117170000Y-131891100D02*
X117170000Y-133791100D01*
X117170000Y-133791100D02*
X115270000Y-133791100D01*
%TO.C,P72*%
X109600000Y-131500000D02*
X111500000Y-131500000D01*
X109600000Y-133400000D02*
X109600000Y-131500000D01*
X111500000Y-131500000D02*
X111500000Y-133400000D01*
X111500000Y-133400000D02*
X109600000Y-133400000D01*
%TO.C,TP22*%
X104000000Y-100850000D02*
X105900000Y-100850000D01*
X104000000Y-102750000D02*
X104000000Y-100850000D01*
X105900000Y-100850000D02*
X105900000Y-102750000D01*
X105900000Y-102750000D02*
X104000000Y-102750000D01*
%TO.C,C86*%
X142892164Y-116040000D02*
X143107836Y-116040000D01*
X142892164Y-116760000D02*
X143107836Y-116760000D01*
%TD*%
M02*
