%TF.GenerationSoftware,KiCad,Pcbnew,9.0.8+dfsg-1*%
%TF.CreationDate,2026-09-15T15:34:16+01:00*%
%TF.ProjectId,NAVCORE-SoOP,4e415643-4f52-4452-9d53-6f4f502e6b69,rev?*%
%TF.SameCoordinates,Original*%
%TF.FileFunction,Soldermask,Top*%
%TF.FilePolarity,Negative*%
%FSLAX46Y46*%
G04 Gerber Fmt 4.6, Leading zero omitted, Abs format (unit mm)*
G04 Created by KiCad (PCBNEW 9.0.8+dfsg-1) date 2026-09-15 15:34:16*
%MOMM*%
%LPD*%
G01*
G04 APERTURE LIST*
G04 Aperture macros list*
%AMRoundRect*
0 Rectangle with rounded corners*
0 $1 Rounding radius*
0 $2 $3 $4 $5 $6 $7 $8 $9 X,Y pos of 4 corners*
0 Add a 4 corners polygon primitive as box body*
4,1,4,$2,$3,$4,$5,$6,$7,$8,$9,$2,$3,0*
0 Add four circle primitives for the rounded corners*
1,1,$1+$1,$2,$3*
1,1,$1+$1,$4,$5*
1,1,$1+$1,$6,$7*
1,1,$1+$1,$8,$9*
0 Add four rect primitives between the rounded corners*
20,1,$1+$1,$2,$3,$4,$5,0*
20,1,$1+$1,$4,$5,$6,$7,0*
20,1,$1+$1,$6,$7,$8,$9,0*
20,1,$1+$1,$8,$9,$2,$3,0*%
G04 Aperture macros list end*
%ADD10R,0.600000X1.700000*%
%ADD11R,1.000000X2.700000*%
%ADD12R,1.500000X1.500000*%
%ADD13RoundRect,0.140000X0.140000X0.170000X-0.140000X0.170000X-0.140000X-0.170000X0.140000X-0.170000X0*%
%ADD14R,1.550013X0.600000*%
%ADD15R,2.000000X1.500000*%
%ADD16RoundRect,0.218750X0.218750X0.381250X-0.218750X0.381250X-0.218750X-0.381250X0.218750X-0.381250X0*%
%ADD17R,1.104902X0.622301*%
%ADD18RoundRect,0.218750X-0.218750X-0.256250X0.218750X-0.256250X0.218750X0.256250X-0.218750X0.256250X0*%
%ADD19RoundRect,0.135000X0.185000X-0.135000X0.185000X0.135000X-0.185000X0.135000X-0.185000X-0.135000X0*%
%ADD20RoundRect,0.250000X0.250000X0.475000X-0.250000X0.475000X-0.250000X-0.475000X0.250000X-0.475000X0*%
%ADD21R,1.100000X1.000000*%
%ADD22RoundRect,0.135000X-0.135000X-0.185000X0.135000X-0.185000X0.135000X0.185000X-0.135000X0.185000X0*%
%ADD23R,1.100000X0.600000*%
%ADD24O,0.629997X2.250013*%
%ADD25O,0.300000X1.600000*%
%ADD26O,1.600000X0.300000*%
%ADD27R,1.800000X1.200000*%
%ADD28RoundRect,0.250000X-0.300000X-1.600000X0.300000X-1.600000X0.300000X1.600000X-0.300000X1.600000X0*%
%ADD29R,0.900000X1.700000*%
%ADD30RoundRect,0.250000X0.275000X0.250000X-0.275000X0.250000X-0.275000X-0.250000X0.275000X-0.250000X0*%
%ADD31RoundRect,0.250000X0.850000X0.275000X-0.850000X0.275000X-0.850000X-0.275000X0.850000X-0.275000X0*%
%ADD32R,1.000000X0.650013*%
%ADD33R,0.532004X1.072009*%
%ADD34O,0.588011X1.800000*%
%ADD35C,0.700025*%
%ADD36O,1.100000X2.000000*%
%ADD37O,1.200000X1.800000*%
%ADD38R,0.550013X1.100000*%
%ADD39R,0.300000X1.100000*%
%ADD40C,1.000000*%
G04 APERTURE END LIST*
%TO.C,J12*%
G36*
X131465000Y-104390000D02*
G01*
X129375000Y-104390000D01*
X129375000Y-102510000D01*
X131465000Y-102510000D01*
X131465000Y-104390000D01*
G37*
%TD*%
D10*
%TO.C,J3*%
X131605006Y-128920000D03*
X132854943Y-128920000D03*
X134105133Y-128920000D03*
X135355070Y-128920000D03*
X136605006Y-128920000D03*
X137854943Y-128920000D03*
D11*
X139704956Y-132120000D03*
X129755019Y-132119975D03*
%TD*%
D12*
%TO.C,P61*%
X121450000Y-137450000D03*
%TD*%
D13*
%TO.C,C28*%
X126680100Y-143751100D03*
X125720100Y-143751100D03*
%TD*%
D14*
%TO.C,J2*%
X105727516Y-114600127D03*
X105727490Y-115598095D03*
X105727490Y-116598095D03*
X105727490Y-117598095D03*
X105727516Y-118600127D03*
X105727490Y-119598095D03*
X105727490Y-120598095D03*
X105727516Y-121599873D03*
D15*
X101852484Y-122900102D03*
X101852484Y-113299898D03*
%TD*%
D12*
%TO.C,PZ2*%
X119950000Y-133450000D03*
%TD*%
%TO.C,TP20*%
X140450000Y-135450000D03*
%TD*%
%TO.C,PL3*%
X134050000Y-124650000D03*
%TD*%
%TO.C,P64*%
X128775100Y-142221100D03*
%TD*%
D13*
%TO.C,C30*%
X119304700Y-142693500D03*
X118344700Y-142693500D03*
%TD*%
%TO.C,C46*%
X123740100Y-129208900D03*
X122780100Y-129208900D03*
%TD*%
D16*
%TO.C,L1*%
X126594500Y-127592600D03*
X124469500Y-127592600D03*
%TD*%
D12*
%TO.C,P73*%
X113550000Y-132450000D03*
%TD*%
%TO.C,TP11*%
X120450000Y-130450000D03*
%TD*%
%TO.C,TP1*%
X108350000Y-111550000D03*
%TD*%
D13*
%TO.C,C13*%
X123101800Y-127412400D03*
X122141800Y-127412400D03*
%TD*%
D17*
%TO.C,U9*%
X139449975Y-126169733D03*
X139449975Y-125220533D03*
X139449975Y-124270318D03*
X136850025Y-124270318D03*
X136850025Y-126169733D03*
%TD*%
D18*
%TO.C,D2*%
X120762500Y-139860000D03*
X122337500Y-139860000D03*
%TD*%
D19*
%TO.C,R17*%
X108695000Y-102265000D03*
X108695000Y-101245000D03*
%TD*%
D20*
%TO.C,C6*%
X118622700Y-127914600D03*
X116722700Y-127914600D03*
%TD*%
D21*
%TO.C,D4*%
X135536850Y-111643200D03*
X139006750Y-111643200D03*
%TD*%
D22*
%TO.C,R16*%
X134461500Y-104135000D03*
X135481500Y-104135000D03*
%TD*%
%TO.C,R20*%
X128440000Y-139950000D03*
X129460000Y-139950000D03*
%TD*%
D18*
%TO.C,D3*%
X116762500Y-129950000D03*
X118337500Y-129950000D03*
%TD*%
D12*
%TO.C,P62*%
X128950000Y-117450000D03*
%TD*%
D13*
%TO.C,C29*%
X119332300Y-144250000D03*
X118372300Y-144250000D03*
%TD*%
D20*
%TO.C,C45*%
X124828200Y-131111000D03*
X122928200Y-131111000D03*
%TD*%
D22*
%TO.C,R1*%
X141145000Y-123915000D03*
X142165000Y-123915000D03*
%TD*%
D23*
%TO.C,U10*%
X123800102Y-143751062D03*
X123800102Y-142801100D03*
X123800102Y-141851138D03*
X121199898Y-141851138D03*
X121199898Y-143751062D03*
%TD*%
%TO.C,U17*%
X134150102Y-143149962D03*
X134150102Y-142200000D03*
X134150102Y-141250038D03*
X131549898Y-141250038D03*
X131549898Y-143149962D03*
%TD*%
D12*
%TO.C,P63*%
X131950000Y-117450000D03*
%TD*%
D22*
%TO.C,R21*%
X133680100Y-139655000D03*
X134700100Y-139655000D03*
%TD*%
%TO.C,R14*%
X108040000Y-123950000D03*
X109060000Y-123950000D03*
%TD*%
D12*
%TO.C,P41*%
X128450000Y-124950000D03*
%TD*%
%TO.C,TP21*%
X125950000Y-134450000D03*
%TD*%
D24*
%TO.C,U5*%
X135134996Y-121630099D03*
X136404999Y-121630099D03*
X137675001Y-121630099D03*
X138945004Y-121630099D03*
X138945004Y-114569901D03*
X137675001Y-114569901D03*
X136404999Y-114569901D03*
X135134996Y-114569901D03*
%TD*%
D25*
%TO.C,U1*%
X112380000Y-125129911D03*
X112879873Y-125129911D03*
X113380000Y-125129911D03*
X113879873Y-125129911D03*
X114380000Y-125129911D03*
X114879873Y-125129911D03*
X115380000Y-125129911D03*
X115879873Y-125129911D03*
X116380000Y-125129911D03*
X116879873Y-125129911D03*
X117380000Y-125129911D03*
X117880127Y-125129911D03*
X118380000Y-125129911D03*
X118880127Y-125129911D03*
X119380000Y-125129911D03*
X119880127Y-125129911D03*
X120380000Y-125129911D03*
X120880127Y-125129911D03*
X121380000Y-125129911D03*
X121880127Y-125129911D03*
X122380000Y-125129911D03*
X122880127Y-125129911D03*
X123380000Y-125129911D03*
X123880127Y-125129911D03*
X124380000Y-125129911D03*
D26*
X125929911Y-123580000D03*
X125929911Y-123080127D03*
X125929911Y-122580000D03*
X125929911Y-122080127D03*
X125929911Y-121580000D03*
X125929911Y-121080127D03*
X125929911Y-120580000D03*
X125929911Y-120080127D03*
X125929911Y-119580000D03*
X125929911Y-119080127D03*
X125929911Y-118580000D03*
X125929911Y-118079873D03*
X125929911Y-117580000D03*
X125929911Y-117079873D03*
X125929911Y-116580000D03*
X125929911Y-116079873D03*
X125929911Y-115580000D03*
X125929911Y-115079873D03*
X125929911Y-114580000D03*
X125929911Y-114079873D03*
X125929911Y-113580000D03*
X125929911Y-113079873D03*
X125929911Y-112580000D03*
X125929911Y-112079873D03*
X125929911Y-111580000D03*
D25*
X124380000Y-110030089D03*
X123880127Y-110030089D03*
X123380000Y-110030089D03*
X122880127Y-110030089D03*
X122380000Y-110030089D03*
X121880127Y-110030089D03*
X121380000Y-110030089D03*
X120880127Y-110030089D03*
X120380000Y-110030089D03*
X119880127Y-110030089D03*
X119380000Y-110030089D03*
X118880127Y-110030089D03*
X118380000Y-110030089D03*
X117880127Y-110030089D03*
X117380000Y-110030089D03*
X116879873Y-110030089D03*
X116380000Y-110030089D03*
X115879873Y-110030089D03*
X115380000Y-110030089D03*
X114879873Y-110030089D03*
X114380000Y-110030089D03*
X113879873Y-110030089D03*
X113380000Y-110030089D03*
X112879873Y-110030089D03*
X112380000Y-110030089D03*
D26*
X110830089Y-111580000D03*
X110830089Y-112079873D03*
X110830089Y-112580000D03*
X110830089Y-113079873D03*
X110830089Y-113580000D03*
X110830089Y-114079873D03*
X110830089Y-114580000D03*
X110830089Y-115079873D03*
X110830089Y-115580000D03*
X110830089Y-116079873D03*
X110830089Y-116580000D03*
X110830089Y-117079873D03*
X110830089Y-117580000D03*
X110830089Y-118079873D03*
X110830089Y-118580000D03*
X110830089Y-119080127D03*
X110830089Y-119580000D03*
X110830089Y-120080127D03*
X110830089Y-120580000D03*
X110830089Y-121080127D03*
X110830089Y-121580000D03*
X110830089Y-122080127D03*
X110830089Y-122580000D03*
X110830089Y-123080127D03*
X110830089Y-123580000D03*
%TD*%
D12*
%TO.C,TP10*%
X111300000Y-136596000D03*
%TD*%
%TO.C,PL1*%
X140950000Y-140450000D03*
%TD*%
%TO.C,TP8*%
X114050000Y-135950000D03*
%TD*%
%TO.C,P71*%
X129450000Y-135450000D03*
%TD*%
D14*
%TO.C,J9*%
X105563024Y-128280127D03*
X105563024Y-129280127D03*
X105562516Y-130280381D03*
X105562516Y-131280381D03*
D27*
X101686976Y-132580102D03*
X101687484Y-126979898D03*
%TD*%
D12*
%TO.C,P46*%
X116980000Y-138521100D03*
%TD*%
D28*
%TO.C,L2*%
X129290000Y-108550000D03*
X132290000Y-108550000D03*
%TD*%
D29*
%TO.C,SW2*%
X114755200Y-129362000D03*
X111355200Y-129362000D03*
%TD*%
D12*
%TO.C,P74*%
X110950000Y-139450000D03*
%TD*%
D30*
%TO.C,J12*%
X132000000Y-103450000D03*
D31*
X130475000Y-104925000D03*
X130475000Y-101975000D03*
%TD*%
D22*
%TO.C,R15*%
X108040000Y-125450000D03*
X109060000Y-125450000D03*
%TD*%
D32*
%TO.C,Q1*%
X143380000Y-111719962D03*
X143380000Y-109820038D03*
X141380000Y-110770000D03*
%TD*%
D12*
%TO.C,TP3*%
X122950000Y-134450000D03*
%TD*%
D22*
%TO.C,R40*%
X130855000Y-126113100D03*
X131875000Y-126113100D03*
%TD*%
D12*
%TO.C,TP9*%
X114050000Y-138950000D03*
%TD*%
%TO.C,TP7*%
X108550000Y-127950000D03*
%TD*%
%TO.C,TP4*%
X141950000Y-125950000D03*
%TD*%
D33*
%TO.C,U8*%
X129550038Y-114089098D03*
X130500000Y-114089098D03*
X131449962Y-114089098D03*
X131449962Y-111790902D03*
X130500000Y-111790902D03*
X129550038Y-111790902D03*
%TD*%
%TO.C,U18*%
X129550038Y-122369098D03*
X130500000Y-122369098D03*
X131449962Y-122369098D03*
X131449962Y-120070902D03*
X130500000Y-120070902D03*
X129550038Y-120070902D03*
%TD*%
D12*
%TO.C,PZ1*%
X133950000Y-137450000D03*
%TD*%
D34*
%TO.C,U11*%
X111434996Y-107169949D03*
X112704999Y-107169949D03*
X113975001Y-107169949D03*
X115245004Y-107169949D03*
X115245004Y-101970051D03*
X113975001Y-101970051D03*
X112704999Y-101970051D03*
X111434996Y-101970051D03*
%TD*%
D35*
%TO.C,J1*%
X125389891Y-105129928D03*
X119609855Y-105129928D03*
D36*
X126824994Y-105650121D03*
D37*
X126824994Y-101449968D03*
D36*
X118175006Y-105650121D03*
D37*
X118175006Y-101449968D03*
D38*
X125700025Y-106200032D03*
X124899924Y-106200032D03*
D39*
X123749809Y-106200032D03*
X122750064Y-106200032D03*
X122249936Y-106200032D03*
X121249936Y-106200032D03*
D38*
X119299975Y-106200032D03*
X120099822Y-106200032D03*
D39*
X120749809Y-106200032D03*
X121750064Y-106200032D03*
X123249936Y-106200032D03*
X124249936Y-106200032D03*
%TD*%
D12*
%TO.C,TP2*%
X104450000Y-135450000D03*
%TD*%
%TO.C,P44*%
X116220000Y-132841100D03*
%TD*%
%TO.C,P72*%
X110550000Y-132450000D03*
%TD*%
%TO.C,TP22*%
X104950000Y-101800000D03*
%TD*%
%TO.C,PL2*%
X103450000Y-139950000D03*
%TD*%
D40*
%TO.C,J8*%
X127149962Y-140051091D03*
X119149962Y-140051091D03*
%TD*%
M02*
