%TF.GenerationSoftware,KiCad,Pcbnew,9.0.8+dfsg-1*%
%TF.CreationDate,2026-09-05T23:08:03+01:00*%
%TF.ProjectId,NAVCORE-SoOP,4e415643-4f52-4452-9d53-6f4f502e6b69,rev?*%
%TF.SameCoordinates,Original*%
%TF.FileFunction,Soldermask,Top*%
%TF.FilePolarity,Negative*%
%FSLAX46Y46*%
G04 Gerber Fmt 4.6, Leading zero omitted, Abs format (unit mm)*
G04 Created by KiCad (PCBNEW 9.0.8+dfsg-1) date 2026-09-05 23:08:03*
%MOMM*%
%LPD*%
G01*
G04 APERTURE LIST*
G04 Aperture macros list*
%AMRoundRect*
0 Rectangle with rounded corners*
0 $1 Rounding radius*
0 $2 $3 $4 $5 $6 $7 $8 $9 X,Y pos of 4 corners*
0 Add a 4 corners polygon primitive as box body*
4,1,4,$2,$3,$4,$5,$6,$7,$8,$9,$2,$3,0*
0 Add four circle primitives for the rounded corners*
1,1,$1+$1,$2,$3*
1,1,$1+$1,$4,$5*
1,1,$1+$1,$6,$7*
1,1,$1+$1,$8,$9*
0 Add four rect primitives between the rounded corners*
20,1,$1+$1,$2,$3,$4,$5,0*
20,1,$1+$1,$4,$5,$6,$7,0*
20,1,$1+$1,$6,$7,$8,$9,0*
20,1,$1+$1,$8,$9,$2,$3,0*%
G04 Aperture macros list end*
%ADD10RoundRect,0.140000X-0.140000X-0.170000X0.140000X-0.170000X0.140000X0.170000X-0.140000X0.170000X0*%
%ADD11R,1.500000X1.500000*%
%ADD12RoundRect,0.218750X-0.218750X-0.256250X0.218750X-0.256250X0.218750X0.256250X-0.218750X0.256250X0*%
%ADD13R,0.532004X1.072009*%
%ADD14RoundRect,0.135000X0.185000X-0.135000X0.185000X0.135000X-0.185000X0.135000X-0.185000X-0.135000X0*%
%ADD15RoundRect,0.250000X-0.300000X-1.600000X0.300000X-1.600000X0.300000X1.600000X-0.300000X1.600000X0*%
%ADD16O,0.629997X2.250013*%
%ADD17R,0.900000X1.700000*%
%ADD18R,1.104902X0.622301*%
%ADD19C,0.700025*%
%ADD20O,1.100000X2.000000*%
%ADD21O,1.200000X1.800000*%
%ADD22R,0.550013X1.100000*%
%ADD23R,0.300000X1.100000*%
%ADD24RoundRect,0.135000X-0.135000X-0.185000X0.135000X-0.185000X0.135000X0.185000X-0.135000X0.185000X0*%
%ADD25O,0.300000X1.600000*%
%ADD26O,1.600000X0.300000*%
%ADD27O,0.588011X1.800000*%
%ADD28R,1.100000X1.000000*%
%ADD29R,1.100000X0.600000*%
%ADD30RoundRect,0.218750X-0.218750X-0.381250X0.218750X-0.381250X0.218750X0.381250X-0.218750X0.381250X0*%
%ADD31RoundRect,0.250000X-0.250000X-0.475000X0.250000X-0.475000X0.250000X0.475000X-0.250000X0.475000X0*%
%ADD32R,1.550013X0.600000*%
%ADD33R,2.000000X1.500000*%
%ADD34R,0.600000X1.700000*%
%ADD35R,1.000000X2.700000*%
%ADD36R,1.000000X0.650013*%
%ADD37C,1.000000*%
G04 APERTURE END LIST*
D10*
%TO.C,C29*%
X118372300Y-144250000D03*
X119332300Y-144250000D03*
%TD*%
D11*
%TO.C,PL2*%
X140135100Y-143980000D03*
%TD*%
%TO.C,P63*%
X102020000Y-140380000D03*
%TD*%
D12*
%TO.C,D3*%
X101462500Y-131340000D03*
X103037500Y-131340000D03*
%TD*%
D11*
%TO.C,P46*%
X116980000Y-138521100D03*
%TD*%
D10*
%TO.C,C30*%
X118344700Y-142693500D03*
X119304700Y-142693500D03*
%TD*%
%TO.C,C13*%
X122141800Y-127412400D03*
X123101800Y-127412400D03*
%TD*%
D13*
%TO.C,U8*%
X129550038Y-114089098D03*
X130500000Y-114089098D03*
X131449962Y-114089098D03*
X131449962Y-111790902D03*
X130500000Y-111790902D03*
X129550038Y-111790902D03*
%TD*%
D14*
%TO.C,R17*%
X108695000Y-102265000D03*
X108695000Y-101245000D03*
%TD*%
D11*
%TO.C,TP1*%
X142980000Y-129020000D03*
%TD*%
%TO.C,TP6*%
X126760000Y-137540000D03*
%TD*%
D15*
%TO.C,L2*%
X129289999Y-106430000D03*
X132289999Y-106430000D03*
%TD*%
D11*
%TO.C,TP20*%
X134455100Y-142180000D03*
%TD*%
D16*
%TO.C,U5*%
X137384996Y-121630099D03*
X138654999Y-121630099D03*
X139925001Y-121630099D03*
X141195004Y-121630099D03*
X141195004Y-114569901D03*
X139925001Y-114569901D03*
X138654999Y-114569901D03*
X137384996Y-114569901D03*
%TD*%
D11*
%TO.C,P54*%
X124740000Y-133756000D03*
%TD*%
D17*
%TO.C,SW2*%
X111355200Y-129362000D03*
X114755200Y-129362000D03*
%TD*%
D10*
%TO.C,C46*%
X122780100Y-129208900D03*
X123740100Y-129208900D03*
%TD*%
D11*
%TO.C,TP8*%
X104860000Y-133756000D03*
%TD*%
%TO.C,P73*%
X104860000Y-129020000D03*
%TD*%
%TO.C,P44*%
X116220000Y-132841100D03*
%TD*%
%TO.C,P52*%
X119060000Y-133756000D03*
%TD*%
D18*
%TO.C,U9*%
X139449975Y-126169733D03*
X139449975Y-125220533D03*
X139449975Y-124270318D03*
X136850025Y-124270318D03*
X136850025Y-126169733D03*
%TD*%
D19*
%TO.C,J1*%
X125389891Y-104964928D03*
X119609855Y-104964928D03*
D20*
X126824994Y-105485121D03*
D21*
X126824994Y-101284968D03*
D20*
X118175006Y-105485121D03*
D21*
X118175006Y-101284968D03*
D22*
X125700025Y-106035032D03*
X124899924Y-106035032D03*
D23*
X123749809Y-106035032D03*
X122750064Y-106035032D03*
X122249936Y-106035032D03*
X121249936Y-106035032D03*
D22*
X119299975Y-106035032D03*
X120099822Y-106035032D03*
D23*
X120749809Y-106035032D03*
X121750064Y-106035032D03*
X123249936Y-106035032D03*
X124249936Y-106035032D03*
%TD*%
D11*
%TO.C,P42*%
X110540000Y-133756000D03*
%TD*%
D24*
%TO.C,R40*%
X130855000Y-126113100D03*
X131875000Y-126113100D03*
%TD*%
D11*
%TO.C,P41*%
X107700000Y-133756000D03*
%TD*%
%TO.C,TP11*%
X131615100Y-140380000D03*
%TD*%
%TO.C,P72*%
X102020000Y-129020000D03*
%TD*%
%TO.C,P53*%
X121900000Y-133756000D03*
%TD*%
%TO.C,TP5*%
X123920000Y-137540000D03*
%TD*%
D12*
%TO.C,D2*%
X120762500Y-139860000D03*
X122337500Y-139860000D03*
%TD*%
D11*
%TO.C,P64*%
X128775100Y-142221100D03*
%TD*%
%TO.C,PV1*%
X135236500Y-102020000D03*
%TD*%
D24*
%TO.C,R16*%
X134461500Y-104135000D03*
X135481500Y-104135000D03*
%TD*%
D25*
%TO.C,U1*%
X112380000Y-125129911D03*
X112879873Y-125129911D03*
X113380000Y-125129911D03*
X113879873Y-125129911D03*
X114380000Y-125129911D03*
X114879873Y-125129911D03*
X115380000Y-125129911D03*
X115879873Y-125129911D03*
X116380000Y-125129911D03*
X116879873Y-125129911D03*
X117380000Y-125129911D03*
X117880127Y-125129911D03*
X118380000Y-125129911D03*
X118880127Y-125129911D03*
X119380000Y-125129911D03*
X119880127Y-125129911D03*
X120380000Y-125129911D03*
X120880127Y-125129911D03*
X121380000Y-125129911D03*
X121880127Y-125129911D03*
X122380000Y-125129911D03*
X122880127Y-125129911D03*
X123380000Y-125129911D03*
X123880127Y-125129911D03*
X124380000Y-125129911D03*
D26*
X125929911Y-123580000D03*
X125929911Y-123080127D03*
X125929911Y-122580000D03*
X125929911Y-122080127D03*
X125929911Y-121580000D03*
X125929911Y-121080127D03*
X125929911Y-120580000D03*
X125929911Y-120080127D03*
X125929911Y-119580000D03*
X125929911Y-119080127D03*
X125929911Y-118580000D03*
X125929911Y-118079873D03*
X125929911Y-117580000D03*
X125929911Y-117079873D03*
X125929911Y-116580000D03*
X125929911Y-116079873D03*
X125929911Y-115580000D03*
X125929911Y-115079873D03*
X125929911Y-114580000D03*
X125929911Y-114079873D03*
X125929911Y-113580000D03*
X125929911Y-113079873D03*
X125929911Y-112580000D03*
X125929911Y-112079873D03*
X125929911Y-111580000D03*
D25*
X124380000Y-110030089D03*
X123880127Y-110030089D03*
X123380000Y-110030089D03*
X122880127Y-110030089D03*
X122380000Y-110030089D03*
X121880127Y-110030089D03*
X121380000Y-110030089D03*
X120880127Y-110030089D03*
X120380000Y-110030089D03*
X119880127Y-110030089D03*
X119380000Y-110030089D03*
X118880127Y-110030089D03*
X118380000Y-110030089D03*
X117880127Y-110030089D03*
X117380000Y-110030089D03*
X116879873Y-110030089D03*
X116380000Y-110030089D03*
X115879873Y-110030089D03*
X115380000Y-110030089D03*
X114879873Y-110030089D03*
X114380000Y-110030089D03*
X113879873Y-110030089D03*
X113380000Y-110030089D03*
X112879873Y-110030089D03*
X112380000Y-110030089D03*
D26*
X110830089Y-111580000D03*
X110830089Y-112079873D03*
X110830089Y-112580000D03*
X110830089Y-113079873D03*
X110830089Y-113580000D03*
X110830089Y-114079873D03*
X110830089Y-114580000D03*
X110830089Y-115079873D03*
X110830089Y-115580000D03*
X110830089Y-116079873D03*
X110830089Y-116580000D03*
X110830089Y-117079873D03*
X110830089Y-117580000D03*
X110830089Y-118079873D03*
X110830089Y-118580000D03*
X110830089Y-119080127D03*
X110830089Y-119580000D03*
X110830089Y-120080127D03*
X110830089Y-120580000D03*
X110830089Y-121080127D03*
X110830089Y-121580000D03*
X110830089Y-122080127D03*
X110830089Y-122580000D03*
X110830089Y-123080127D03*
X110830089Y-123580000D03*
%TD*%
D27*
%TO.C,U11*%
X111434996Y-107169949D03*
X112704999Y-107169949D03*
X113975001Y-107169949D03*
X115245004Y-107169949D03*
X115245004Y-101970051D03*
X113975001Y-101970051D03*
X112704999Y-101970051D03*
X111434996Y-101970051D03*
%TD*%
D11*
%TO.C,PL3*%
X142975100Y-140380000D03*
%TD*%
%TO.C,PZ1*%
X132440000Y-137540000D03*
%TD*%
D28*
%TO.C,D4*%
X135536850Y-111643200D03*
X139006750Y-111643200D03*
%TD*%
D11*
%TO.C,P71*%
X129600000Y-137540000D03*
%TD*%
D24*
%TO.C,R1*%
X141145000Y-123915000D03*
X142165000Y-123915000D03*
%TD*%
D11*
%TO.C,TP9*%
X114145000Y-141361100D03*
%TD*%
D29*
%TO.C,U10*%
X123800102Y-143751062D03*
X123800102Y-142801100D03*
X123800102Y-141851138D03*
X121199898Y-141851138D03*
X121199898Y-143751062D03*
%TD*%
D11*
%TO.C,P43*%
X113380000Y-133756000D03*
%TD*%
%TO.C,P74*%
X107700000Y-129020000D03*
%TD*%
%TO.C,TP4*%
X102020000Y-137540000D03*
%TD*%
%TO.C,P45*%
X116220000Y-135681100D03*
%TD*%
D24*
%TO.C,R15*%
X128000100Y-144336100D03*
X129020100Y-144336100D03*
%TD*%
%TO.C,R21*%
X133680100Y-139655000D03*
X134700100Y-139655000D03*
%TD*%
D11*
%TO.C,PZ2*%
X131615100Y-143220000D03*
%TD*%
%TO.C,P62*%
X104860000Y-143980000D03*
%TD*%
D29*
%TO.C,U17*%
X111675102Y-143751062D03*
X111675102Y-142801100D03*
X111675102Y-141851138D03*
X109074898Y-141851138D03*
X109074898Y-143751062D03*
%TD*%
D24*
%TO.C,R20*%
X133680100Y-144295000D03*
X134700100Y-144295000D03*
%TD*%
D11*
%TO.C,TP10*%
X111300000Y-136596000D03*
%TD*%
D30*
%TO.C,L1*%
X124469500Y-127592600D03*
X126594500Y-127592600D03*
%TD*%
D11*
%TO.C,P61*%
X119820000Y-136596000D03*
%TD*%
%TO.C,TP3*%
X142980000Y-134700000D03*
%TD*%
%TO.C,TP2*%
X142980000Y-131860000D03*
%TD*%
D31*
%TO.C,C45*%
X122928200Y-131111000D03*
X124828200Y-131111000D03*
%TD*%
D11*
%TO.C,PL1*%
X137295100Y-143980000D03*
%TD*%
D24*
%TO.C,R14*%
X125495000Y-141496100D03*
X126515000Y-141496100D03*
%TD*%
D31*
%TO.C,C6*%
X116722700Y-127914600D03*
X118622700Y-127914600D03*
%TD*%
D11*
%TO.C,TP21*%
X142980000Y-137540000D03*
%TD*%
%TO.C,P51*%
X114140000Y-138521100D03*
%TD*%
D13*
%TO.C,U18*%
X129550038Y-122369098D03*
X130500000Y-122369098D03*
X131449962Y-122369098D03*
X131449962Y-120070902D03*
X130500000Y-120070902D03*
X129550038Y-120070902D03*
%TD*%
D32*
%TO.C,J2*%
X105727516Y-114600127D03*
X105727490Y-115598095D03*
X105727490Y-116598095D03*
X105727490Y-117598095D03*
X105727516Y-118600127D03*
X105727490Y-119598095D03*
X105727490Y-120598095D03*
X105727516Y-121599873D03*
D33*
X101852484Y-122900102D03*
X101852484Y-113299898D03*
%TD*%
D10*
%TO.C,C28*%
X125720100Y-143751100D03*
X126680100Y-143751100D03*
%TD*%
D11*
%TO.C,TP7*%
X102020000Y-133756000D03*
%TD*%
D34*
%TO.C,J3*%
X131605006Y-128920000D03*
X132854943Y-128920000D03*
X134105133Y-128920000D03*
X135355070Y-128920000D03*
X136605006Y-128920000D03*
X137854943Y-128920000D03*
D35*
X139704956Y-132120000D03*
X129755019Y-132119975D03*
%TD*%
D36*
%TO.C,Q1*%
X143380000Y-111719962D03*
X143380000Y-109820038D03*
X141380000Y-110770000D03*
%TD*%
D37*
%TO.C,J8*%
X127149962Y-140051091D03*
X119149962Y-140051091D03*
%TD*%
M02*
