%TF.GenerationSoftware,KiCad,Pcbnew,9.0.8+dfsg-1*%
%TF.CreationDate,2026-10-02T15:24:56+01:00*%
%TF.ProjectId,NAVCORE-SoOP,4e415643-4f52-4452-9d53-6f4f502e6b69,rev?*%
%TF.SameCoordinates,Original*%
%TF.FileFunction,Drillmap*%
%TF.FilePolarity,Positive*%
%FSLAX45Y45*%
G04 Gerber Fmt 4.5, Leading zero omitted, Abs format (unit mm)*
G04 Created by KiCad (PCBNEW 9.0.8+dfsg-1) date 2026-10-02 15:24:56*
%MOMM*%
%LPD*%
G01*
G04 APERTURE LIST*
%ADD10C,0.100000*%
%ADD11C,0.200000*%
G04 APERTURE END LIST*
D10*
X9925000Y-9990000D02*
G75*
G02*
X9975000Y-9940000I50000J0D01*
G01*
X9925000Y-14610000D02*
X9925000Y-9990000D01*
X9975000Y-9940000D02*
X14525000Y-9940000D01*
X9975000Y-14660000D02*
G75*
G02*
X9925000Y-14610000I0J50000D01*
G01*
X10925000Y-10775000D02*
G75*
G02*
X10525000Y-10775000I-200000J0D01*
G01*
X10525000Y-10775000D02*
G75*
G02*
X10925000Y-10775000I200000J0D01*
G01*
X10925000Y-13825000D02*
G75*
G02*
X10525000Y-13825000I-200000J0D01*
G01*
X10525000Y-13825000D02*
G75*
G02*
X10925000Y-13825000I200000J0D01*
G01*
X13975000Y-10775000D02*
G75*
G02*
X13575000Y-10775000I-200000J0D01*
G01*
X13575000Y-10775000D02*
G75*
G02*
X13975000Y-10775000I200000J0D01*
G01*
X13975000Y-13825000D02*
G75*
G02*
X13575000Y-13825000I-200000J0D01*
G01*
X13575000Y-13825000D02*
G75*
G02*
X13975000Y-13825000I200000J0D01*
G01*
X14525000Y-9940000D02*
G75*
G02*
X14575000Y-9990000I0J-50000D01*
G01*
X14525000Y-14660000D02*
X9975000Y-14660000D01*
X14575000Y-9990000D02*
X14575000Y-14610000D01*
X14575000Y-14610000D02*
G75*
G02*
X14525000Y-14660000I-50000J0D01*
G01*
D11*
D10*
X10615880Y-11516250D02*
X10635880Y-11536250D01*
X10635880Y-11516250D02*
X10615880Y-11536250D01*
X10638470Y-13178320D02*
X10658470Y-13198320D01*
X10658470Y-13178320D02*
X10638470Y-13198320D01*
X10691630Y-14311190D02*
X10711630Y-14331190D01*
X10711630Y-14311190D02*
X10691630Y-14331190D01*
X10817200Y-11358860D02*
X10837200Y-11378860D01*
X10837200Y-11358860D02*
X10817200Y-11378860D01*
X10971220Y-13200980D02*
X10991220Y-13220980D01*
X10991220Y-13200980D02*
X10971220Y-13220980D01*
X10974375Y-14283125D02*
X10994375Y-14303125D01*
X10994375Y-14283125D02*
X10974375Y-14303125D01*
X10997190Y-11338460D02*
X11017190Y-11358460D01*
X11017190Y-11338460D02*
X10997190Y-11358460D01*
X11005520Y-12538740D02*
X11025520Y-12558740D01*
X11025520Y-12538740D02*
X11005520Y-12558740D01*
X11009000Y-13127320D02*
X11029000Y-13147320D01*
X11029000Y-13127320D02*
X11009000Y-13147320D01*
X11117515Y-12333290D02*
X11137515Y-12353290D01*
X11137515Y-12333290D02*
X11117515Y-12353290D01*
X11190960Y-12496470D02*
X11210960Y-12516470D01*
X11210960Y-12496470D02*
X11190960Y-12516470D01*
X11228010Y-11181980D02*
X11248010Y-11201980D01*
X11248010Y-11181980D02*
X11228010Y-11201980D01*
X11235900Y-12642600D02*
X11255900Y-12662600D01*
X11255900Y-12642600D02*
X11235900Y-12662600D01*
X11343880Y-13147130D02*
X11363880Y-13167130D01*
X11363880Y-13147130D02*
X11343880Y-13167130D01*
X11386970Y-13913640D02*
X11406970Y-13933640D01*
X11406970Y-13913640D02*
X11386970Y-13933640D01*
X11408550Y-12815140D02*
X11428550Y-12835140D01*
X11428550Y-12815140D02*
X11408550Y-12835140D01*
X11424070Y-10420750D02*
X11444070Y-10440750D01*
X11444070Y-10420750D02*
X11424070Y-10440750D01*
X11447960Y-11961720D02*
X11467960Y-11981720D01*
X11467960Y-11961720D02*
X11447960Y-11981720D01*
X11450180Y-11884890D02*
X11470180Y-11904890D01*
X11470180Y-11884890D02*
X11450180Y-11904890D01*
X11455610Y-12295940D02*
X11475610Y-12315940D01*
X11475610Y-12295940D02*
X11455610Y-12315940D01*
X11460460Y-12506830D02*
X11480460Y-12526830D01*
X11480460Y-12506830D02*
X11460460Y-12526830D01*
X11526320Y-11193230D02*
X11546320Y-11213230D01*
X11546320Y-11193230D02*
X11526320Y-11213230D01*
X11536660Y-12531150D02*
X11556660Y-12551150D01*
X11556660Y-12531150D02*
X11536660Y-12551150D01*
X11552890Y-10303410D02*
X11572890Y-10323410D01*
X11572890Y-10303410D02*
X11552890Y-10323410D01*
X11570150Y-11944170D02*
X11590150Y-11964170D01*
X11590150Y-11944170D02*
X11570150Y-11964170D01*
X11578820Y-12967930D02*
X11598820Y-12987930D01*
X11598820Y-12967930D02*
X11578820Y-12987930D01*
X11595220Y-13561740D02*
X11615220Y-13581740D01*
X11615220Y-13561740D02*
X11595220Y-13581740D01*
X11631700Y-11507586D02*
X11651700Y-11527586D01*
X11651700Y-11507586D02*
X11631700Y-11527586D01*
X11650415Y-11919648D02*
X11670415Y-11939648D01*
X11670415Y-11919648D02*
X11650415Y-11939648D01*
X11653440Y-10070570D02*
X11673440Y-10090570D01*
X11673440Y-10070570D02*
X11653440Y-10090570D01*
X11696835Y-13633790D02*
X11716835Y-13653790D01*
X11716835Y-13633790D02*
X11696835Y-13653790D01*
X11770500Y-11107400D02*
X11790500Y-11127400D01*
X11790500Y-11107400D02*
X11770500Y-11127400D01*
X11812700Y-12461650D02*
X11832700Y-12481650D01*
X11832700Y-12461650D02*
X11812700Y-12481650D01*
X11845510Y-12069329D02*
X11865510Y-12089329D01*
X11865510Y-12069329D02*
X11845510Y-12089329D01*
X11894790Y-13568665D02*
X11914790Y-13588665D01*
X11914790Y-13568665D02*
X11894790Y-13588665D01*
X11933410Y-12034650D02*
X11953410Y-12054650D01*
X11953410Y-12034650D02*
X11933410Y-12054650D01*
X11939700Y-13535310D02*
X11959700Y-13555310D01*
X11959700Y-13535310D02*
X11939700Y-13555310D01*
X11955950Y-11620490D02*
X11975950Y-11640490D01*
X11975950Y-11620490D02*
X11955950Y-11640490D01*
X11972190Y-12140260D02*
X11992190Y-12160260D01*
X11992190Y-12140260D02*
X11972190Y-12160260D01*
X12038380Y-13115860D02*
X12058380Y-13135860D01*
X12058380Y-13115860D02*
X12038380Y-13135860D01*
X12052270Y-11611030D02*
X12072270Y-11631030D01*
X12072270Y-11611030D02*
X12052270Y-11631030D01*
X12062000Y-11944990D02*
X12082000Y-11964990D01*
X12082000Y-11944990D02*
X12062000Y-11964990D01*
X12094560Y-12189850D02*
X12114560Y-12209850D01*
X12114560Y-12189850D02*
X12094560Y-12209850D01*
X12163300Y-12329470D02*
X12183300Y-12349470D01*
X12183300Y-12329470D02*
X12163300Y-12349470D01*
X12166090Y-12233050D02*
X12186090Y-12253050D01*
X12186090Y-12233050D02*
X12166090Y-12253050D01*
X12207000Y-10683230D02*
X12227000Y-10703230D01*
X12227000Y-10683230D02*
X12207000Y-10703230D01*
X12207320Y-11204100D02*
X12227320Y-11224100D01*
X12227320Y-11204100D02*
X12207320Y-11224100D01*
X12212950Y-11839080D02*
X12232950Y-11859080D01*
X12232950Y-11839080D02*
X12212950Y-11859080D01*
X12214280Y-11620860D02*
X12234280Y-11640860D01*
X12234280Y-11620860D02*
X12214280Y-11640860D01*
X12255000Y-12719510D02*
X12275000Y-12739510D01*
X12275000Y-12719510D02*
X12255000Y-12739510D01*
X12259750Y-13332290D02*
X12279750Y-13352290D01*
X12279750Y-13332290D02*
X12259750Y-13352290D01*
X12370370Y-11958870D02*
X12390370Y-11978870D01*
X12390370Y-11958870D02*
X12370370Y-11978870D01*
X12404090Y-12469560D02*
X12424090Y-12489560D01*
X12424090Y-12469560D02*
X12404090Y-12489560D01*
X12417180Y-10293750D02*
X12437180Y-10313750D01*
X12437180Y-10293750D02*
X12417180Y-10313750D01*
X12453230Y-12128840D02*
X12473230Y-12148840D01*
X12473230Y-12128840D02*
X12453230Y-12148840D01*
X12543080Y-13284880D02*
X12563080Y-13304880D01*
X12563080Y-13284880D02*
X12543080Y-13304880D01*
X12550170Y-10536980D02*
X12570170Y-10556980D01*
X12570170Y-10536980D02*
X12550170Y-10556980D01*
X12568125Y-12439375D02*
X12588125Y-12459375D01*
X12588125Y-12439375D02*
X12568125Y-12459375D01*
X12573990Y-11527660D02*
X12593990Y-11547660D01*
X12593990Y-11527660D02*
X12573990Y-11547660D01*
X12609750Y-12282330D02*
X12629750Y-12302330D01*
X12629750Y-12282330D02*
X12609750Y-12302330D01*
X12631190Y-12439350D02*
X12651190Y-12459350D01*
X12651190Y-12439350D02*
X12631190Y-12459350D01*
X12662550Y-10535920D02*
X12682550Y-10555920D01*
X12682550Y-10535920D02*
X12662550Y-10555920D01*
X12676890Y-12143000D02*
X12696890Y-12163000D01*
X12696890Y-12143000D02*
X12676890Y-12163000D01*
X12678540Y-12395840D02*
X12698540Y-12415840D01*
X12698540Y-12395840D02*
X12678540Y-12415840D01*
X12680790Y-11598280D02*
X12700790Y-11618280D01*
X12700790Y-11598280D02*
X12680790Y-11618280D01*
X12684080Y-11687510D02*
X12704080Y-11707510D01*
X12704080Y-11687510D02*
X12684080Y-11707510D01*
X12699375Y-12320625D02*
X12719375Y-12340625D01*
X12719375Y-12320625D02*
X12699375Y-12340625D01*
X12701790Y-12092830D02*
X12721790Y-12112830D01*
X12721790Y-12092830D02*
X12701790Y-12112830D01*
X12702110Y-11879560D02*
X12722110Y-11899560D01*
X12722110Y-11879560D02*
X12702110Y-11899560D01*
X12704270Y-12033550D02*
X12724270Y-12053550D01*
X12724270Y-12033550D02*
X12704270Y-12053550D01*
X12722500Y-11525540D02*
X12742500Y-11545540D01*
X12742500Y-11525540D02*
X12722500Y-11545540D01*
X12726600Y-13170480D02*
X12746600Y-13190480D01*
X12746600Y-13170480D02*
X12726600Y-13190480D01*
X12741406Y-12769910D02*
X12761406Y-12789910D01*
X12761406Y-12769910D02*
X12741406Y-12789910D01*
X12745790Y-11260590D02*
X12765790Y-11280590D01*
X12765790Y-11260590D02*
X12745790Y-11280590D01*
X12777750Y-10810570D02*
X12797750Y-10830570D01*
X12797750Y-10810570D02*
X12777750Y-10830570D01*
X12780630Y-13136330D02*
X12800630Y-13156330D01*
X12800630Y-13136330D02*
X12780630Y-13156330D01*
X12877696Y-12239357D02*
X12897696Y-12259357D01*
X12897696Y-12239357D02*
X12877696Y-12259357D01*
X12891800Y-13568570D02*
X12911800Y-13588570D01*
X12911800Y-13568570D02*
X12891800Y-13588570D01*
X12893125Y-11164375D02*
X12913125Y-11184375D01*
X12913125Y-11164375D02*
X12893125Y-11184375D01*
X12904120Y-11219270D02*
X12924120Y-11239270D01*
X12924120Y-11219270D02*
X12904120Y-11239270D01*
X12924375Y-10726875D02*
X12944375Y-10746875D01*
X12944375Y-10726875D02*
X12924375Y-10746875D01*
X12965210Y-12605310D02*
X12985210Y-12625310D01*
X12985210Y-12605310D02*
X12965210Y-12625310D01*
X12980710Y-11792670D02*
X13000710Y-11812670D01*
X13000710Y-11792670D02*
X12980710Y-11812670D01*
X12986600Y-12278780D02*
X13006600Y-12298780D01*
X13006600Y-12278780D02*
X12986600Y-12298780D01*
X13004710Y-11528510D02*
X13024710Y-11548510D01*
X13024710Y-11528510D02*
X13004710Y-11548510D01*
X13053470Y-10329040D02*
X13073470Y-10349040D01*
X13073470Y-10329040D02*
X13053470Y-10349040D01*
X13064860Y-11329220D02*
X13084860Y-11349220D01*
X13084860Y-11329220D02*
X13064860Y-11349220D01*
X13105625Y-11370625D02*
X13125625Y-11390625D01*
X13125625Y-11370625D02*
X13105625Y-11390625D01*
X13111930Y-12606620D02*
X13131930Y-12626620D01*
X13131930Y-12606620D02*
X13111930Y-12626620D01*
X13236875Y-10576875D02*
X13256875Y-10596875D01*
X13256875Y-10576875D02*
X13236875Y-10596875D01*
X13248240Y-12245010D02*
X13268240Y-12265010D01*
X13268240Y-12245010D02*
X13248240Y-12265010D01*
X13274375Y-11333125D02*
X13294375Y-11353125D01*
X13294375Y-11333125D02*
X13274375Y-11353125D01*
X13303690Y-12115240D02*
X13323690Y-12135240D01*
X13323690Y-12115240D02*
X13303690Y-12135240D01*
X13336875Y-12176875D02*
X13356875Y-12196875D01*
X13356875Y-12176875D02*
X13336875Y-12196875D01*
X13395020Y-13192030D02*
X13415020Y-13212030D01*
X13415020Y-13192030D02*
X13395020Y-13212030D01*
X13416630Y-11307420D02*
X13436630Y-11327420D01*
X13436630Y-11307420D02*
X13416630Y-11327420D01*
X13430625Y-10695625D02*
X13450625Y-10715625D01*
X13450625Y-10695625D02*
X13430625Y-10715625D01*
X13437300Y-11992770D02*
X13457300Y-12012770D01*
X13457300Y-11992770D02*
X13437300Y-12012770D01*
X13461470Y-12543410D02*
X13481470Y-12563410D01*
X13481470Y-12543410D02*
X13461470Y-12563410D01*
X13461875Y-11026875D02*
X13481875Y-11046875D01*
X13481875Y-11026875D02*
X13461875Y-11046875D01*
X13493125Y-11208125D02*
X13513125Y-11228125D01*
X13513125Y-11208125D02*
X13493125Y-11228125D01*
X13545290Y-11411890D02*
X13565290Y-11431890D01*
X13565290Y-11411890D02*
X13545290Y-11431890D01*
X13564230Y-11851260D02*
X13584230Y-11871260D01*
X13584230Y-11851260D02*
X13564230Y-11871260D01*
X13573559Y-12086626D02*
X13593559Y-12106626D01*
X13593559Y-12086626D02*
X13573559Y-12106626D01*
X13618125Y-11370625D02*
X13638125Y-11390625D01*
X13638125Y-11370625D02*
X13618125Y-11390625D01*
X13641290Y-12905130D02*
X13661290Y-12925130D01*
X13661290Y-12905130D02*
X13641290Y-12925130D01*
X13642070Y-11840310D02*
X13662070Y-11860310D01*
X13662070Y-11840310D02*
X13642070Y-11860310D01*
X13655630Y-12607390D02*
X13675630Y-12627390D01*
X13675630Y-12607390D02*
X13655630Y-12627390D01*
X13656000Y-11766000D02*
X13676000Y-11786000D01*
X13676000Y-11766000D02*
X13656000Y-11786000D01*
X13657610Y-10420600D02*
X13677610Y-10440600D01*
X13677610Y-10420600D02*
X13657610Y-10440600D01*
X13669770Y-11592210D02*
X13689770Y-11612210D01*
X13689770Y-11592210D02*
X13669770Y-11612210D01*
X13718125Y-11564375D02*
X13738125Y-11584375D01*
X13738125Y-11564375D02*
X13718125Y-11584375D01*
X13779056Y-11168270D02*
X13799056Y-11188270D01*
X13799056Y-11168270D02*
X13779056Y-11188270D01*
X13784830Y-12427630D02*
X13804830Y-12447630D01*
X13804830Y-12427630D02*
X13784830Y-12447630D01*
X13787850Y-12239900D02*
X13807850Y-12259900D01*
X13807850Y-12239900D02*
X13787850Y-12259900D01*
X13825610Y-11671460D02*
X13845610Y-11691460D01*
X13845610Y-11671460D02*
X13825610Y-11691460D01*
X13893125Y-11470625D02*
X13913125Y-11490625D01*
X13913125Y-11470625D02*
X13893125Y-11490625D01*
X13924910Y-11425380D02*
X13944910Y-11445380D01*
X13944910Y-11425380D02*
X13924910Y-11445380D01*
X13937850Y-11817190D02*
X13957850Y-11837190D01*
X13957850Y-11817190D02*
X13937850Y-11837190D01*
X14061875Y-11095625D02*
X14081875Y-11115625D01*
X14081875Y-11095625D02*
X14061875Y-11115625D01*
X14093125Y-10664375D02*
X14113125Y-10684375D01*
X14113125Y-10664375D02*
X14093125Y-10684375D01*
X14183850Y-11490460D02*
X14203850Y-11510460D01*
X14203850Y-11490460D02*
X14183850Y-11510460D01*
X10081592Y-12885983D02*
G75*
G02*
X10051592Y-12885983I-15000J0D01*
G01*
X10051592Y-12885983D02*
G75*
G02*
X10081592Y-12885983I15000J0D01*
G01*
X10140000Y-10320000D02*
G75*
G02*
X10110000Y-10320000I-15000J0D01*
G01*
X10110000Y-10320000D02*
G75*
G02*
X10140000Y-10320000I15000J0D01*
G01*
X10140000Y-10500000D02*
G75*
G02*
X10110000Y-10500000I-15000J0D01*
G01*
X10110000Y-10500000D02*
G75*
G02*
X10140000Y-10500000I15000J0D01*
G01*
X10140000Y-10680000D02*
G75*
G02*
X10110000Y-10680000I-15000J0D01*
G01*
X10110000Y-10680000D02*
G75*
G02*
X10140000Y-10680000I15000J0D01*
G01*
X10140000Y-10860000D02*
G75*
G02*
X10110000Y-10860000I-15000J0D01*
G01*
X10110000Y-10860000D02*
G75*
G02*
X10140000Y-10860000I15000J0D01*
G01*
X10140000Y-11400000D02*
G75*
G02*
X10110000Y-11400000I-15000J0D01*
G01*
X10110000Y-11400000D02*
G75*
G02*
X10140000Y-11400000I15000J0D01*
G01*
X10140000Y-11760000D02*
G75*
G02*
X10110000Y-11760000I-15000J0D01*
G01*
X10110000Y-11760000D02*
G75*
G02*
X10140000Y-11760000I15000J0D01*
G01*
X10140000Y-11940000D02*
G75*
G02*
X10110000Y-11940000I-15000J0D01*
G01*
X10110000Y-11940000D02*
G75*
G02*
X10140000Y-11940000I15000J0D01*
G01*
X10140000Y-12120000D02*
G75*
G02*
X10110000Y-12120000I-15000J0D01*
G01*
X10110000Y-12120000D02*
G75*
G02*
X10140000Y-12120000I15000J0D01*
G01*
X10140000Y-13020000D02*
G75*
G02*
X10110000Y-13020000I-15000J0D01*
G01*
X10110000Y-13020000D02*
G75*
G02*
X10140000Y-13020000I15000J0D01*
G01*
X10187437Y-13514025D02*
G75*
G02*
X10157437Y-13514025I-15000J0D01*
G01*
X10157437Y-13514025D02*
G75*
G02*
X10187437Y-13514025I15000J0D01*
G01*
X10194501Y-11714108D02*
G75*
G02*
X10164501Y-11714108I-15000J0D01*
G01*
X10164501Y-11714108D02*
G75*
G02*
X10194501Y-11714108I15000J0D01*
G01*
X10194798Y-13600000D02*
G75*
G02*
X10164798Y-13600000I-15000J0D01*
G01*
X10164798Y-13600000D02*
G75*
G02*
X10194798Y-13600000I15000J0D01*
G01*
X10247598Y-13340008D02*
G75*
G02*
X10217598Y-13340008I-15000J0D01*
G01*
X10217598Y-13340008D02*
G75*
G02*
X10247598Y-13340008I15000J0D01*
G01*
X10263590Y-11761290D02*
G75*
G02*
X10233590Y-11761290I-15000J0D01*
G01*
X10233590Y-11761290D02*
G75*
G02*
X10263590Y-11761290I15000J0D01*
G01*
X10298107Y-11137508D02*
G75*
G02*
X10268107Y-11137508I-15000J0D01*
G01*
X10268107Y-11137508D02*
G75*
G02*
X10298107Y-11137508I15000J0D01*
G01*
X10298107Y-12382517D02*
G75*
G02*
X10268107Y-12382517I-15000J0D01*
G01*
X10268107Y-12382517D02*
G75*
G02*
X10298107Y-12382517I15000J0D01*
G01*
X10304490Y-14368495D02*
G75*
G02*
X10274490Y-14368495I-15000J0D01*
G01*
X10274490Y-14368495D02*
G75*
G02*
X10304490Y-14368495I15000J0D01*
G01*
X10320000Y-10140000D02*
G75*
G02*
X10290000Y-10140000I-15000J0D01*
G01*
X10290000Y-10140000D02*
G75*
G02*
X10320000Y-10140000I15000J0D01*
G01*
X10320000Y-10320000D02*
G75*
G02*
X10290000Y-10320000I-15000J0D01*
G01*
X10290000Y-10320000D02*
G75*
G02*
X10320000Y-10320000I15000J0D01*
G01*
X10320000Y-10500000D02*
G75*
G02*
X10290000Y-10500000I-15000J0D01*
G01*
X10290000Y-10500000D02*
G75*
G02*
X10320000Y-10500000I15000J0D01*
G01*
X10320000Y-10680000D02*
G75*
G02*
X10290000Y-10680000I-15000J0D01*
G01*
X10290000Y-10680000D02*
G75*
G02*
X10320000Y-10680000I15000J0D01*
G01*
X10320000Y-10860000D02*
G75*
G02*
X10290000Y-10860000I-15000J0D01*
G01*
X10290000Y-10860000D02*
G75*
G02*
X10320000Y-10860000I15000J0D01*
G01*
X10320000Y-11040000D02*
G75*
G02*
X10290000Y-11040000I-15000J0D01*
G01*
X10290000Y-11040000D02*
G75*
G02*
X10320000Y-11040000I15000J0D01*
G01*
X10320000Y-11220000D02*
G75*
G02*
X10290000Y-11220000I-15000J0D01*
G01*
X10290000Y-11220000D02*
G75*
G02*
X10320000Y-11220000I15000J0D01*
G01*
X10320000Y-12300000D02*
G75*
G02*
X10290000Y-12300000I-15000J0D01*
G01*
X10290000Y-12300000D02*
G75*
G02*
X10320000Y-12300000I15000J0D01*
G01*
X10320000Y-12480000D02*
G75*
G02*
X10290000Y-12480000I-15000J0D01*
G01*
X10290000Y-12480000D02*
G75*
G02*
X10320000Y-12480000I15000J0D01*
G01*
X10320000Y-12660000D02*
G75*
G02*
X10290000Y-12660000I-15000J0D01*
G01*
X10290000Y-12660000D02*
G75*
G02*
X10320000Y-12660000I15000J0D01*
G01*
X10320000Y-13020000D02*
G75*
G02*
X10290000Y-13020000I-15000J0D01*
G01*
X10290000Y-13020000D02*
G75*
G02*
X10320000Y-13020000I15000J0D01*
G01*
X10320000Y-13380000D02*
G75*
G02*
X10290000Y-13380000I-15000J0D01*
G01*
X10290000Y-13380000D02*
G75*
G02*
X10320000Y-13380000I15000J0D01*
G01*
X10320000Y-13740000D02*
G75*
G02*
X10290000Y-13740000I-15000J0D01*
G01*
X10290000Y-13740000D02*
G75*
G02*
X10320000Y-13740000I15000J0D01*
G01*
X10320000Y-13920000D02*
G75*
G02*
X10290000Y-13920000I-15000J0D01*
G01*
X10290000Y-13920000D02*
G75*
G02*
X10320000Y-13920000I15000J0D01*
G01*
X10320000Y-14280000D02*
G75*
G02*
X10290000Y-14280000I-15000J0D01*
G01*
X10290000Y-14280000D02*
G75*
G02*
X10320000Y-14280000I15000J0D01*
G01*
X10437169Y-13125999D02*
G75*
G02*
X10407169Y-13125999I-15000J0D01*
G01*
X10407169Y-13125999D02*
G75*
G02*
X10437169Y-13125999I15000J0D01*
G01*
X10467500Y-13408530D02*
G75*
G02*
X10437500Y-13408530I-15000J0D01*
G01*
X10437500Y-13408530D02*
G75*
G02*
X10467500Y-13408530I15000J0D01*
G01*
X10485980Y-12407670D02*
G75*
G02*
X10455980Y-12407670I-15000J0D01*
G01*
X10455980Y-12407670D02*
G75*
G02*
X10485980Y-12407670I15000J0D01*
G01*
X10500000Y-10140000D02*
G75*
G02*
X10470000Y-10140000I-15000J0D01*
G01*
X10470000Y-10140000D02*
G75*
G02*
X10500000Y-10140000I15000J0D01*
G01*
X10500000Y-10320000D02*
G75*
G02*
X10470000Y-10320000I-15000J0D01*
G01*
X10470000Y-10320000D02*
G75*
G02*
X10500000Y-10320000I15000J0D01*
G01*
X10500000Y-10500000D02*
G75*
G02*
X10470000Y-10500000I-15000J0D01*
G01*
X10470000Y-10500000D02*
G75*
G02*
X10500000Y-10500000I15000J0D01*
G01*
X10500000Y-11040000D02*
G75*
G02*
X10470000Y-11040000I-15000J0D01*
G01*
X10470000Y-11040000D02*
G75*
G02*
X10500000Y-11040000I15000J0D01*
G01*
X10500000Y-11220000D02*
G75*
G02*
X10470000Y-11220000I-15000J0D01*
G01*
X10470000Y-11220000D02*
G75*
G02*
X10500000Y-11220000I15000J0D01*
G01*
X10500000Y-12660000D02*
G75*
G02*
X10470000Y-12660000I-15000J0D01*
G01*
X10470000Y-12660000D02*
G75*
G02*
X10500000Y-12660000I15000J0D01*
G01*
X10500000Y-13560000D02*
G75*
G02*
X10470000Y-13560000I-15000J0D01*
G01*
X10470000Y-13560000D02*
G75*
G02*
X10500000Y-13560000I15000J0D01*
G01*
X10500000Y-14100000D02*
G75*
G02*
X10470000Y-14100000I-15000J0D01*
G01*
X10470000Y-14100000D02*
G75*
G02*
X10500000Y-14100000I15000J0D01*
G01*
X10524375Y-13268125D02*
G75*
G02*
X10494375Y-13268125I-15000J0D01*
G01*
X10494375Y-13268125D02*
G75*
G02*
X10524375Y-13268125I15000J0D01*
G01*
X10550160Y-12024240D02*
G75*
G02*
X10520160Y-12024240I-15000J0D01*
G01*
X10520160Y-12024240D02*
G75*
G02*
X10550160Y-12024240I15000J0D01*
G01*
X10560299Y-11322497D02*
G75*
G02*
X10530299Y-11322497I-15000J0D01*
G01*
X10530299Y-11322497D02*
G75*
G02*
X10560299Y-11322497I15000J0D01*
G01*
X10562500Y-11927480D02*
G75*
G02*
X10532500Y-11927480I-15000J0D01*
G01*
X10532500Y-11927480D02*
G75*
G02*
X10562500Y-11927480I15000J0D01*
G01*
X10568125Y-12955625D02*
G75*
G02*
X10538125Y-12955625I-15000J0D01*
G01*
X10538125Y-12955625D02*
G75*
G02*
X10568125Y-12955625I15000J0D01*
G01*
X10587706Y-13029987D02*
G75*
G02*
X10557706Y-13029987I-15000J0D01*
G01*
X10557706Y-13029987D02*
G75*
G02*
X10587706Y-13029987I15000J0D01*
G01*
X10587706Y-13155006D02*
G75*
G02*
X10557706Y-13155006I-15000J0D01*
G01*
X10557706Y-13155006D02*
G75*
G02*
X10587706Y-13155006I15000J0D01*
G01*
X10601073Y-14469140D02*
G75*
G02*
X10571073Y-14469140I-15000J0D01*
G01*
X10571073Y-14469140D02*
G75*
G02*
X10601073Y-14469140I15000J0D01*
G01*
X10624271Y-12590000D02*
G75*
G02*
X10594271Y-12590000I-15000J0D01*
G01*
X10594271Y-12590000D02*
G75*
G02*
X10624271Y-12590000I15000J0D01*
G01*
X10628890Y-11875970D02*
G75*
G02*
X10598890Y-11875970I-15000J0D01*
G01*
X10598890Y-11875970D02*
G75*
G02*
X10628890Y-11875970I15000J0D01*
G01*
X10641050Y-12676850D02*
G75*
G02*
X10611050Y-12676850I-15000J0D01*
G01*
X10611050Y-12676850D02*
G75*
G02*
X10641050Y-12676850I15000J0D01*
G01*
X10680000Y-10140000D02*
G75*
G02*
X10650000Y-10140000I-15000J0D01*
G01*
X10650000Y-10140000D02*
G75*
G02*
X10680000Y-10140000I15000J0D01*
G01*
X10680000Y-10320000D02*
G75*
G02*
X10650000Y-10320000I-15000J0D01*
G01*
X10650000Y-10320000D02*
G75*
G02*
X10680000Y-10320000I15000J0D01*
G01*
X10680000Y-11400000D02*
G75*
G02*
X10650000Y-11400000I-15000J0D01*
G01*
X10650000Y-11400000D02*
G75*
G02*
X10680000Y-11400000I15000J0D01*
G01*
X10703100Y-13340670D02*
G75*
G02*
X10673100Y-13340670I-15000J0D01*
G01*
X10673100Y-13340670D02*
G75*
G02*
X10703100Y-13340670I15000J0D01*
G01*
X10707433Y-12342500D02*
G75*
G02*
X10677433Y-12342500I-15000J0D01*
G01*
X10677433Y-12342500D02*
G75*
G02*
X10707433Y-12342500I15000J0D01*
G01*
X10708529Y-11693500D02*
G75*
G02*
X10678529Y-11693500I-15000J0D01*
G01*
X10678529Y-11693500D02*
G75*
G02*
X10708529Y-11693500I15000J0D01*
G01*
X10763359Y-12635115D02*
G75*
G02*
X10733359Y-12635115I-15000J0D01*
G01*
X10733359Y-12635115D02*
G75*
G02*
X10763359Y-12635115I15000J0D01*
G01*
X10764850Y-13210820D02*
G75*
G02*
X10734850Y-13210820I-15000J0D01*
G01*
X10734850Y-13210820D02*
G75*
G02*
X10764850Y-13210820I15000J0D01*
G01*
X10860000Y-10140000D02*
G75*
G02*
X10830000Y-10140000I-15000J0D01*
G01*
X10830000Y-10140000D02*
G75*
G02*
X10860000Y-10140000I15000J0D01*
G01*
X10860000Y-10500000D02*
G75*
G02*
X10830000Y-10500000I-15000J0D01*
G01*
X10830000Y-10500000D02*
G75*
G02*
X10860000Y-10500000I15000J0D01*
G01*
X10860000Y-11040000D02*
G75*
G02*
X10830000Y-11040000I-15000J0D01*
G01*
X10830000Y-11040000D02*
G75*
G02*
X10860000Y-11040000I15000J0D01*
G01*
X10860000Y-13380000D02*
G75*
G02*
X10830000Y-13380000I-15000J0D01*
G01*
X10830000Y-13380000D02*
G75*
G02*
X10860000Y-13380000I15000J0D01*
G01*
X10860000Y-13560000D02*
G75*
G02*
X10830000Y-13560000I-15000J0D01*
G01*
X10830000Y-13560000D02*
G75*
G02*
X10860000Y-13560000I15000J0D01*
G01*
X10860000Y-14100000D02*
G75*
G02*
X10830000Y-14100000I-15000J0D01*
G01*
X10830000Y-14100000D02*
G75*
G02*
X10860000Y-14100000I15000J0D01*
G01*
X10864470Y-13269550D02*
G75*
G02*
X10834470Y-13269550I-15000J0D01*
G01*
X10834470Y-13269550D02*
G75*
G02*
X10864470Y-13269550I15000J0D01*
G01*
X10929597Y-14316635D02*
G75*
G02*
X10899597Y-14316635I-15000J0D01*
G01*
X10899597Y-14316635D02*
G75*
G02*
X10929597Y-14316635I15000J0D01*
G01*
X10930650Y-11976700D02*
G75*
G02*
X10900650Y-11976700I-15000J0D01*
G01*
X10900650Y-11976700D02*
G75*
G02*
X10930650Y-11976700I15000J0D01*
G01*
X10930760Y-10253070D02*
G75*
G02*
X10900760Y-10253070I-15000J0D01*
G01*
X10900760Y-10253070D02*
G75*
G02*
X10930760Y-10253070I15000J0D01*
G01*
X11020214Y-10249033D02*
G75*
G02*
X10990214Y-10249033I-15000J0D01*
G01*
X10990214Y-10249033D02*
G75*
G02*
X11020214Y-10249033I15000J0D01*
G01*
X11037762Y-12176250D02*
G75*
G02*
X11007762Y-12176250I-15000J0D01*
G01*
X11007762Y-12176250D02*
G75*
G02*
X11037762Y-12176250I15000J0D01*
G01*
X11040000Y-10140000D02*
G75*
G02*
X11010000Y-10140000I-15000J0D01*
G01*
X11010000Y-10140000D02*
G75*
G02*
X11040000Y-10140000I15000J0D01*
G01*
X11040000Y-10860000D02*
G75*
G02*
X11010000Y-10860000I-15000J0D01*
G01*
X11010000Y-10860000D02*
G75*
G02*
X11040000Y-10860000I15000J0D01*
G01*
X11040000Y-11040000D02*
G75*
G02*
X11010000Y-11040000I-15000J0D01*
G01*
X11010000Y-11040000D02*
G75*
G02*
X11040000Y-11040000I15000J0D01*
G01*
X11040000Y-13740000D02*
G75*
G02*
X11010000Y-13740000I-15000J0D01*
G01*
X11010000Y-13740000D02*
G75*
G02*
X11040000Y-13740000I15000J0D01*
G01*
X11040000Y-13920000D02*
G75*
G02*
X11010000Y-13920000I-15000J0D01*
G01*
X11010000Y-13920000D02*
G75*
G02*
X11040000Y-13920000I15000J0D01*
G01*
X11040000Y-14100000D02*
G75*
G02*
X11010000Y-14100000I-15000J0D01*
G01*
X11010000Y-14100000D02*
G75*
G02*
X11040000Y-14100000I15000J0D01*
G01*
X11064791Y-11420000D02*
G75*
G02*
X11034791Y-11420000I-15000J0D01*
G01*
X11034791Y-11420000D02*
G75*
G02*
X11064791Y-11420000I15000J0D01*
G01*
X11071130Y-11907360D02*
G75*
G02*
X11041130Y-11907360I-15000J0D01*
G01*
X11041130Y-11907360D02*
G75*
G02*
X11071130Y-11907360I15000J0D01*
G01*
X11080625Y-12099375D02*
G75*
G02*
X11050625Y-12099375I-15000J0D01*
G01*
X11050625Y-12099375D02*
G75*
G02*
X11080625Y-12099375I15000J0D01*
G01*
X11081020Y-12395310D02*
G75*
G02*
X11051020Y-12395310I-15000J0D01*
G01*
X11051020Y-12395310D02*
G75*
G02*
X11081020Y-12395310I15000J0D01*
G01*
X11085790Y-12308130D02*
G75*
G02*
X11055790Y-12308130I-15000J0D01*
G01*
X11055790Y-12308130D02*
G75*
G02*
X11085790Y-12308130I15000J0D01*
G01*
X11095500Y-10475433D02*
G75*
G02*
X11065500Y-10475433I-15000J0D01*
G01*
X11065500Y-10475433D02*
G75*
G02*
X11095500Y-10475433I15000J0D01*
G01*
X11105862Y-10277903D02*
G75*
G02*
X11075862Y-10277903I-15000J0D01*
G01*
X11075862Y-10277903D02*
G75*
G02*
X11105862Y-10277903I15000J0D01*
G01*
X11113980Y-12495810D02*
G75*
G02*
X11083980Y-12495810I-15000J0D01*
G01*
X11083980Y-12495810D02*
G75*
G02*
X11113980Y-12495810I15000J0D01*
G01*
X11136875Y-10686875D02*
G75*
G02*
X11106875Y-10686875I-15000J0D01*
G01*
X11106875Y-10686875D02*
G75*
G02*
X11136875Y-10686875I15000J0D01*
G01*
X11147030Y-10893340D02*
G75*
G02*
X11117030Y-10893340I-15000J0D01*
G01*
X11117030Y-10893340D02*
G75*
G02*
X11147030Y-10893340I15000J0D01*
G01*
X11152990Y-11545830D02*
G75*
G02*
X11122990Y-11545830I-15000J0D01*
G01*
X11122990Y-11545830D02*
G75*
G02*
X11152990Y-11545830I15000J0D01*
G01*
X11174270Y-11250500D02*
G75*
G02*
X11144270Y-11250500I-15000J0D01*
G01*
X11144270Y-11250500D02*
G75*
G02*
X11174270Y-11250500I15000J0D01*
G01*
X11178160Y-12704700D02*
G75*
G02*
X11148160Y-12704700I-15000J0D01*
G01*
X11148160Y-12704700D02*
G75*
G02*
X11178160Y-12704700I15000J0D01*
G01*
X11184098Y-10739099D02*
G75*
G02*
X11154098Y-10739099I-15000J0D01*
G01*
X11154098Y-10739099D02*
G75*
G02*
X11184098Y-10739099I15000J0D01*
G01*
X11184580Y-14363440D02*
G75*
G02*
X11154580Y-14363440I-15000J0D01*
G01*
X11154580Y-14363440D02*
G75*
G02*
X11184580Y-14363440I15000J0D01*
G01*
X11193760Y-12572720D02*
G75*
G02*
X11163760Y-12572720I-15000J0D01*
G01*
X11163760Y-12572720D02*
G75*
G02*
X11193760Y-12572720I15000J0D01*
G01*
X11234230Y-14291490D02*
G75*
G02*
X11204230Y-14291490I-15000J0D01*
G01*
X11204230Y-14291490D02*
G75*
G02*
X11234230Y-14291490I15000J0D01*
G01*
X11236620Y-13250180D02*
G75*
G02*
X11206620Y-13250180I-15000J0D01*
G01*
X11206620Y-13250180D02*
G75*
G02*
X11236620Y-13250180I15000J0D01*
G01*
X11354810Y-13678730D02*
G75*
G02*
X11324810Y-13678730I-15000J0D01*
G01*
X11324810Y-13678730D02*
G75*
G02*
X11354810Y-13678730I15000J0D01*
G01*
X11375865Y-10222097D02*
G75*
G02*
X11345865Y-10222097I-15000J0D01*
G01*
X11345865Y-10222097D02*
G75*
G02*
X11375865Y-10222097I15000J0D01*
G01*
X11382730Y-13396650D02*
G75*
G02*
X11352730Y-13396650I-15000J0D01*
G01*
X11352730Y-13396650D02*
G75*
G02*
X11382730Y-13396650I15000J0D01*
G01*
X11435966Y-11395786D02*
G75*
G02*
X11405966Y-11395786I-15000J0D01*
G01*
X11405966Y-11395786D02*
G75*
G02*
X11435966Y-11395786I15000J0D01*
G01*
X11449375Y-12749375D02*
G75*
G02*
X11419375Y-12749375I-15000J0D01*
G01*
X11419375Y-12749375D02*
G75*
G02*
X11449375Y-12749375I15000J0D01*
G01*
X11451723Y-11235410D02*
G75*
G02*
X11421723Y-11235410I-15000J0D01*
G01*
X11421723Y-11235410D02*
G75*
G02*
X11451723Y-11235410I15000J0D01*
G01*
X11461875Y-13336875D02*
G75*
G02*
X11431875Y-13336875I-15000J0D01*
G01*
X11431875Y-13336875D02*
G75*
G02*
X11461875Y-13336875I15000J0D01*
G01*
X11462880Y-12959490D02*
G75*
G02*
X11432880Y-12959490I-15000J0D01*
G01*
X11432880Y-12959490D02*
G75*
G02*
X11462880Y-12959490I15000J0D01*
G01*
X11490409Y-10885090D02*
G75*
G02*
X11460409Y-10885090I-15000J0D01*
G01*
X11460409Y-10885090D02*
G75*
G02*
X11490409Y-10885090I15000J0D01*
G01*
X11504090Y-10718570D02*
G75*
G02*
X11474090Y-10718570I-15000J0D01*
G01*
X11474090Y-10718570D02*
G75*
G02*
X11504090Y-10718570I15000J0D01*
G01*
X11526316Y-14489506D02*
G75*
G02*
X11496316Y-14489506I-15000J0D01*
G01*
X11496316Y-14489506D02*
G75*
G02*
X11526316Y-14489506I15000J0D01*
G01*
X11535670Y-12039980D02*
G75*
G02*
X11505670Y-12039980I-15000J0D01*
G01*
X11505670Y-12039980D02*
G75*
G02*
X11535670Y-12039980I15000J0D01*
G01*
X11597930Y-14346810D02*
G75*
G02*
X11567930Y-14346810I-15000J0D01*
G01*
X11567930Y-14346810D02*
G75*
G02*
X11597930Y-14346810I15000J0D01*
G01*
X11598090Y-10065630D02*
G75*
G02*
X11568090Y-10065630I-15000J0D01*
G01*
X11568090Y-10065630D02*
G75*
G02*
X11598090Y-10065630I15000J0D01*
G01*
X11624860Y-12193260D02*
G75*
G02*
X11594860Y-12193260I-15000J0D01*
G01*
X11594860Y-12193260D02*
G75*
G02*
X11624860Y-12193260I15000J0D01*
G01*
X11642000Y-12493810D02*
G75*
G02*
X11612000Y-12493810I-15000J0D01*
G01*
X11612000Y-12493810D02*
G75*
G02*
X11642000Y-12493810I15000J0D01*
G01*
X11644390Y-12404490D02*
G75*
G02*
X11614390Y-12404490I-15000J0D01*
G01*
X11614390Y-12404490D02*
G75*
G02*
X11644390Y-12404490I15000J0D01*
G01*
X11645214Y-12099033D02*
G75*
G02*
X11615214Y-12099033I-15000J0D01*
G01*
X11615214Y-12099033D02*
G75*
G02*
X11645214Y-12099033I15000J0D01*
G01*
X11651460Y-13661260D02*
G75*
G02*
X11621460Y-13661260I-15000J0D01*
G01*
X11621460Y-13661260D02*
G75*
G02*
X11651460Y-13661260I15000J0D01*
G01*
X11689660Y-12672070D02*
G75*
G02*
X11659660Y-12672070I-15000J0D01*
G01*
X11659660Y-12672070D02*
G75*
G02*
X11689660Y-12672070I15000J0D01*
G01*
X11694250Y-14038490D02*
G75*
G02*
X11664250Y-14038490I-15000J0D01*
G01*
X11664250Y-14038490D02*
G75*
G02*
X11694250Y-14038490I15000J0D01*
G01*
X11695786Y-10906967D02*
G75*
G02*
X11665786Y-10906967I-15000J0D01*
G01*
X11665786Y-10906967D02*
G75*
G02*
X11695786Y-10906967I15000J0D01*
G01*
X11702563Y-11669025D02*
G75*
G02*
X11672563Y-11669025I-15000J0D01*
G01*
X11672563Y-11669025D02*
G75*
G02*
X11702563Y-11669025I15000J0D01*
G01*
X11745910Y-11592640D02*
G75*
G02*
X11715910Y-11592640I-15000J0D01*
G01*
X11715910Y-11592640D02*
G75*
G02*
X11745910Y-11592640I15000J0D01*
G01*
X11770214Y-13224033D02*
G75*
G02*
X11740214Y-13224033I-15000J0D01*
G01*
X11740214Y-13224033D02*
G75*
G02*
X11770214Y-13224033I15000J0D01*
G01*
X11774480Y-10644400D02*
G75*
G02*
X11744480Y-10644400I-15000J0D01*
G01*
X11744480Y-10644400D02*
G75*
G02*
X11774480Y-10644400I15000J0D01*
G01*
X11784710Y-12992660D02*
G75*
G02*
X11754710Y-12992660I-15000J0D01*
G01*
X11754710Y-12992660D02*
G75*
G02*
X11784710Y-12992660I15000J0D01*
G01*
X11820320Y-14346810D02*
G75*
G02*
X11790320Y-14346810I-15000J0D01*
G01*
X11790320Y-14346810D02*
G75*
G02*
X11820320Y-14346810I15000J0D01*
G01*
X11823100Y-10905760D02*
G75*
G02*
X11793100Y-10905760I-15000J0D01*
G01*
X11793100Y-10905760D02*
G75*
G02*
X11823100Y-10905760I15000J0D01*
G01*
X11840290Y-11597310D02*
G75*
G02*
X11810290Y-11597310I-15000J0D01*
G01*
X11810290Y-11597310D02*
G75*
G02*
X11840290Y-11597310I15000J0D01*
G01*
X11849144Y-11903046D02*
G75*
G02*
X11819144Y-11903046I-15000J0D01*
G01*
X11819144Y-11903046D02*
G75*
G02*
X11849144Y-11903046I15000J0D01*
G01*
X11849880Y-12408110D02*
G75*
G02*
X11819880Y-12408110I-15000J0D01*
G01*
X11819880Y-12408110D02*
G75*
G02*
X11849880Y-12408110I15000J0D01*
G01*
X11861510Y-11099150D02*
G75*
G02*
X11831510Y-11099150I-15000J0D01*
G01*
X11831510Y-11099150D02*
G75*
G02*
X11861510Y-11099150I15000J0D01*
G01*
X11878340Y-12992820D02*
G75*
G02*
X11848340Y-12992820I-15000J0D01*
G01*
X11848340Y-12992820D02*
G75*
G02*
X11878340Y-12992820I15000J0D01*
G01*
X11888800Y-14038910D02*
G75*
G02*
X11858800Y-14038910I-15000J0D01*
G01*
X11858800Y-14038910D02*
G75*
G02*
X11888800Y-14038910I15000J0D01*
G01*
X11903700Y-12529340D02*
G75*
G02*
X11873700Y-12529340I-15000J0D01*
G01*
X11873700Y-12529340D02*
G75*
G02*
X11903700Y-12529340I15000J0D01*
G01*
X11909651Y-10207405D02*
G75*
G02*
X11879651Y-10207405I-15000J0D01*
G01*
X11879651Y-10207405D02*
G75*
G02*
X11909651Y-10207405I15000J0D01*
G01*
X11914100Y-11579500D02*
G75*
G02*
X11884100Y-11579500I-15000J0D01*
G01*
X11884100Y-11579500D02*
G75*
G02*
X11914100Y-11579500I15000J0D01*
G01*
X11932850Y-13299410D02*
G75*
G02*
X11902850Y-13299410I-15000J0D01*
G01*
X11902850Y-13299410D02*
G75*
G02*
X11932850Y-13299410I15000J0D01*
G01*
X11988161Y-10521176D02*
G75*
G02*
X11958161Y-10521176I-15000J0D01*
G01*
X11958161Y-10521176D02*
G75*
G02*
X11988161Y-10521176I15000J0D01*
G01*
X12017050Y-12995450D02*
G75*
G02*
X11987050Y-12995450I-15000J0D01*
G01*
X11987050Y-12995450D02*
G75*
G02*
X12017050Y-12995450I15000J0D01*
G01*
X12031310Y-12541280D02*
G75*
G02*
X12001310Y-12541280I-15000J0D01*
G01*
X12001310Y-12541280D02*
G75*
G02*
X12031310Y-12541280I15000J0D01*
G01*
X12042650Y-10899670D02*
G75*
G02*
X12012650Y-10899670I-15000J0D01*
G01*
X12012650Y-10899670D02*
G75*
G02*
X12042650Y-10899670I15000J0D01*
G01*
X12045760Y-12663170D02*
G75*
G02*
X12015760Y-12663170I-15000J0D01*
G01*
X12015760Y-12663170D02*
G75*
G02*
X12045760Y-12663170I15000J0D01*
G01*
X12049375Y-13805625D02*
G75*
G02*
X12019375Y-13805625I-15000J0D01*
G01*
X12019375Y-13805625D02*
G75*
G02*
X12049375Y-13805625I15000J0D01*
G01*
X12075260Y-13727520D02*
G75*
G02*
X12045260Y-13727520I-15000J0D01*
G01*
X12045260Y-13727520D02*
G75*
G02*
X12075260Y-13727520I15000J0D01*
G01*
X12087270Y-11049370D02*
G75*
G02*
X12057270Y-11049370I-15000J0D01*
G01*
X12057270Y-11049370D02*
G75*
G02*
X12087270Y-11049370I15000J0D01*
G01*
X12101690Y-12262690D02*
G75*
G02*
X12071690Y-12262690I-15000J0D01*
G01*
X12071690Y-12262690D02*
G75*
G02*
X12101690Y-12262690I15000J0D01*
G01*
X12106420Y-10789390D02*
G75*
G02*
X12076420Y-10789390I-15000J0D01*
G01*
X12076420Y-10789390D02*
G75*
G02*
X12106420Y-10789390I15000J0D01*
G01*
X12159870Y-10993530D02*
G75*
G02*
X12129870Y-10993530I-15000J0D01*
G01*
X12129870Y-10993530D02*
G75*
G02*
X12159870Y-10993530I15000J0D01*
G01*
X12167500Y-13857433D02*
G75*
G02*
X12137500Y-13857433I-15000J0D01*
G01*
X12137500Y-13857433D02*
G75*
G02*
X12167500Y-13857433I15000J0D01*
G01*
X12177890Y-11907160D02*
G75*
G02*
X12147890Y-11907160I-15000J0D01*
G01*
X12147890Y-11907160D02*
G75*
G02*
X12177890Y-11907160I15000J0D01*
G01*
X12186630Y-13247330D02*
G75*
G02*
X12156630Y-13247330I-15000J0D01*
G01*
X12156630Y-13247330D02*
G75*
G02*
X12186630Y-13247330I15000J0D01*
G01*
X12199670Y-14067650D02*
G75*
G02*
X12169670Y-14067650I-15000J0D01*
G01*
X12169670Y-14067650D02*
G75*
G02*
X12199670Y-14067650I15000J0D01*
G01*
X12202890Y-12180210D02*
G75*
G02*
X12172890Y-12180210I-15000J0D01*
G01*
X12172890Y-12180210D02*
G75*
G02*
X12202890Y-12180210I15000J0D01*
G01*
X12203420Y-11049460D02*
G75*
G02*
X12173420Y-11049460I-15000J0D01*
G01*
X12173420Y-11049460D02*
G75*
G02*
X12203420Y-11049460I15000J0D01*
G01*
X12217950Y-13688390D02*
G75*
G02*
X12187950Y-13688390I-15000J0D01*
G01*
X12187950Y-13688390D02*
G75*
G02*
X12217950Y-13688390I15000J0D01*
G01*
X12255530Y-13151490D02*
G75*
G02*
X12225530Y-13151490I-15000J0D01*
G01*
X12225530Y-13151490D02*
G75*
G02*
X12255530Y-13151490I15000J0D01*
G01*
X12256040Y-12035540D02*
G75*
G02*
X12226040Y-12035540I-15000J0D01*
G01*
X12226040Y-12035540D02*
G75*
G02*
X12256040Y-12035540I15000J0D01*
G01*
X12265100Y-10253070D02*
G75*
G02*
X12235100Y-10253070I-15000J0D01*
G01*
X12235100Y-10253070D02*
G75*
G02*
X12265100Y-10253070I15000J0D01*
G01*
X12269440Y-10977400D02*
G75*
G02*
X12239440Y-10977400I-15000J0D01*
G01*
X12239440Y-10977400D02*
G75*
G02*
X12269440Y-10977400I15000J0D01*
G01*
X12271325Y-14489506D02*
G75*
G02*
X12241325Y-14489506I-15000J0D01*
G01*
X12241325Y-14489506D02*
G75*
G02*
X12271325Y-14489506I15000J0D01*
G01*
X12278000Y-11072680D02*
G75*
G02*
X12248000Y-11072680I-15000J0D01*
G01*
X12248000Y-11072680D02*
G75*
G02*
X12278000Y-11072680I15000J0D01*
G01*
X12285210Y-12640610D02*
G75*
G02*
X12255210Y-12640610I-15000J0D01*
G01*
X12255210Y-12640610D02*
G75*
G02*
X12285210Y-12640610I15000J0D01*
G01*
X12295000Y-12461529D02*
G75*
G02*
X12265000Y-12461529I-15000J0D01*
G01*
X12265000Y-12461529D02*
G75*
G02*
X12295000Y-12461529I15000J0D01*
G01*
X12299140Y-12985940D02*
G75*
G02*
X12269140Y-12985940I-15000J0D01*
G01*
X12269140Y-12985940D02*
G75*
G02*
X12299140Y-12985940I15000J0D01*
G01*
X12300000Y-10140000D02*
G75*
G02*
X12270000Y-10140000I-15000J0D01*
G01*
X12270000Y-10140000D02*
G75*
G02*
X12300000Y-10140000I15000J0D01*
G01*
X12300000Y-14100000D02*
G75*
G02*
X12270000Y-14100000I-15000J0D01*
G01*
X12270000Y-14100000D02*
G75*
G02*
X12300000Y-14100000I15000J0D01*
G01*
X12302208Y-12533626D02*
G75*
G02*
X12272208Y-12533626I-15000J0D01*
G01*
X12272208Y-12533626D02*
G75*
G02*
X12302208Y-12533626I15000J0D01*
G01*
X12315970Y-13083480D02*
G75*
G02*
X12285970Y-13083480I-15000J0D01*
G01*
X12285970Y-13083480D02*
G75*
G02*
X12315970Y-13083480I15000J0D01*
G01*
X12338240Y-10262280D02*
G75*
G02*
X12308240Y-10262280I-15000J0D01*
G01*
X12308240Y-10262280D02*
G75*
G02*
X12338240Y-10262280I15000J0D01*
G01*
X12341910Y-12064510D02*
G75*
G02*
X12311910Y-12064510I-15000J0D01*
G01*
X12311910Y-12064510D02*
G75*
G02*
X12341910Y-12064510I15000J0D01*
G01*
X12376040Y-12294620D02*
G75*
G02*
X12346040Y-12294620I-15000J0D01*
G01*
X12346040Y-12294620D02*
G75*
G02*
X12376040Y-12294620I15000J0D01*
G01*
X12376040Y-12626030D02*
G75*
G02*
X12346040Y-12626030I-15000J0D01*
G01*
X12346040Y-12626030D02*
G75*
G02*
X12376040Y-12626030I15000J0D01*
G01*
X12391094Y-13925006D02*
G75*
G02*
X12361094Y-13925006I-15000J0D01*
G01*
X12361094Y-13925006D02*
G75*
G02*
X12391094Y-13925006I15000J0D01*
G01*
X12405625Y-13730625D02*
G75*
G02*
X12375625Y-13730625I-15000J0D01*
G01*
X12375625Y-13730625D02*
G75*
G02*
X12405625Y-13730625I15000J0D01*
G01*
X12428800Y-10729180D02*
G75*
G02*
X12398800Y-10729180I-15000J0D01*
G01*
X12398800Y-10729180D02*
G75*
G02*
X12428800Y-10729180I15000J0D01*
G01*
X12460790Y-11857800D02*
G75*
G02*
X12430790Y-11857800I-15000J0D01*
G01*
X12430790Y-11857800D02*
G75*
G02*
X12460790Y-11857800I15000J0D01*
G01*
X12461070Y-13778360D02*
G75*
G02*
X12431070Y-13778360I-15000J0D01*
G01*
X12431070Y-13778360D02*
G75*
G02*
X12461070Y-13778360I15000J0D01*
G01*
X12463050Y-11555080D02*
G75*
G02*
X12433050Y-11555080I-15000J0D01*
G01*
X12433050Y-11555080D02*
G75*
G02*
X12463050Y-11555080I15000J0D01*
G01*
X12474375Y-13443125D02*
G75*
G02*
X12444375Y-13443125I-15000J0D01*
G01*
X12444375Y-13443125D02*
G75*
G02*
X12474375Y-13443125I15000J0D01*
G01*
X12495422Y-11942578D02*
G75*
G02*
X12465422Y-11942578I-15000J0D01*
G01*
X12465422Y-11942578D02*
G75*
G02*
X12495422Y-11942578I15000J0D01*
G01*
X12505753Y-12452094D02*
G75*
G02*
X12475753Y-12452094I-15000J0D01*
G01*
X12475753Y-12452094D02*
G75*
G02*
X12505753Y-12452094I15000J0D01*
G01*
X12518125Y-13830625D02*
G75*
G02*
X12488125Y-13830625I-15000J0D01*
G01*
X12488125Y-13830625D02*
G75*
G02*
X12518125Y-13830625I15000J0D01*
G01*
X12520530Y-13623160D02*
G75*
G02*
X12490530Y-13623160I-15000J0D01*
G01*
X12490530Y-13623160D02*
G75*
G02*
X12520530Y-13623160I15000J0D01*
G01*
X12522660Y-12565630D02*
G75*
G02*
X12492660Y-12565630I-15000J0D01*
G01*
X12492660Y-12565630D02*
G75*
G02*
X12522660Y-12565630I15000J0D01*
G01*
X12536680Y-12713230D02*
G75*
G02*
X12506680Y-12713230I-15000J0D01*
G01*
X12506680Y-12713230D02*
G75*
G02*
X12536680Y-12713230I15000J0D01*
G01*
X12543140Y-10296240D02*
G75*
G02*
X12513140Y-10296240I-15000J0D01*
G01*
X12513140Y-10296240D02*
G75*
G02*
X12543140Y-10296240I15000J0D01*
G01*
X12561875Y-12505625D02*
G75*
G02*
X12531875Y-12505625I-15000J0D01*
G01*
X12531875Y-12505625D02*
G75*
G02*
X12561875Y-12505625I15000J0D01*
G01*
X12567480Y-11620990D02*
G75*
G02*
X12537480Y-11620990I-15000J0D01*
G01*
X12537480Y-11620990D02*
G75*
G02*
X12567480Y-11620990I15000J0D01*
G01*
X12573850Y-11945540D02*
G75*
G02*
X12543850Y-11945540I-15000J0D01*
G01*
X12543850Y-11945540D02*
G75*
G02*
X12573850Y-11945540I15000J0D01*
G01*
X12601397Y-13631180D02*
G75*
G02*
X12571397Y-13631180I-15000J0D01*
G01*
X12571397Y-13631180D02*
G75*
G02*
X12601397Y-13631180I15000J0D01*
G01*
X12613790Y-11765730D02*
G75*
G02*
X12583790Y-11765730I-15000J0D01*
G01*
X12583790Y-11765730D02*
G75*
G02*
X12613790Y-11765730I15000J0D01*
G01*
X12628510Y-12727040D02*
G75*
G02*
X12598510Y-12727040I-15000J0D01*
G01*
X12598510Y-12727040D02*
G75*
G02*
X12628510Y-12727040I15000J0D01*
G01*
X12641300Y-14033730D02*
G75*
G02*
X12611300Y-14033730I-15000J0D01*
G01*
X12611300Y-14033730D02*
G75*
G02*
X12641300Y-14033730I15000J0D01*
G01*
X12641530Y-12985490D02*
G75*
G02*
X12611530Y-12985490I-15000J0D01*
G01*
X12611530Y-12985490D02*
G75*
G02*
X12641530Y-12985490I15000J0D01*
G01*
X12646316Y-10110494D02*
G75*
G02*
X12616316Y-10110494I-15000J0D01*
G01*
X12616316Y-10110494D02*
G75*
G02*
X12646316Y-10110494I15000J0D01*
G01*
X12646316Y-14489506D02*
G75*
G02*
X12616316Y-14489506I-15000J0D01*
G01*
X12616316Y-14489506D02*
G75*
G02*
X12646316Y-14489506I15000J0D01*
G01*
X12667050Y-10872360D02*
G75*
G02*
X12637050Y-10872360I-15000J0D01*
G01*
X12637050Y-10872360D02*
G75*
G02*
X12667050Y-10872360I15000J0D01*
G01*
X12746870Y-12715360D02*
G75*
G02*
X12716870Y-12715360I-15000J0D01*
G01*
X12716870Y-12715360D02*
G75*
G02*
X12746870Y-12715360I15000J0D01*
G01*
X12843322Y-13899322D02*
G75*
G02*
X12813322Y-13899322I-15000J0D01*
G01*
X12813322Y-13899322D02*
G75*
G02*
X12843322Y-13899322I15000J0D01*
G01*
X12855625Y-12974375D02*
G75*
G02*
X12825625Y-12974375I-15000J0D01*
G01*
X12825625Y-12974375D02*
G75*
G02*
X12855625Y-12974375I15000J0D01*
G01*
X12902620Y-11109300D02*
G75*
G02*
X12872620Y-11109300I-15000J0D01*
G01*
X12872620Y-11109300D02*
G75*
G02*
X12902620Y-11109300I15000J0D01*
G01*
X12934880Y-13303630D02*
G75*
G02*
X12904880Y-13303630I-15000J0D01*
G01*
X12904880Y-13303630D02*
G75*
G02*
X12934880Y-13303630I15000J0D01*
G01*
X12940470Y-12775490D02*
G75*
G02*
X12910470Y-12775490I-15000J0D01*
G01*
X12910470Y-12775490D02*
G75*
G02*
X12940470Y-12775490I15000J0D01*
G01*
X12951620Y-10107003D02*
G75*
G02*
X12921620Y-10107003I-15000J0D01*
G01*
X12921620Y-10107003D02*
G75*
G02*
X12951620Y-10107003I15000J0D01*
G01*
X12958180Y-11320060D02*
G75*
G02*
X12928180Y-11320060I-15000J0D01*
G01*
X12928180Y-11320060D02*
G75*
G02*
X12958180Y-11320060I15000J0D01*
G01*
X12977472Y-10556194D02*
G75*
G02*
X12947472Y-10556194I-15000J0D01*
G01*
X12947472Y-10556194D02*
G75*
G02*
X12977472Y-10556194I15000J0D01*
G01*
X13011875Y-13061875D02*
G75*
G02*
X12981875Y-13061875I-15000J0D01*
G01*
X12981875Y-13061875D02*
G75*
G02*
X13011875Y-13061875I15000J0D01*
G01*
X13013060Y-11435570D02*
G75*
G02*
X12983060Y-11435570I-15000J0D01*
G01*
X12983060Y-11435570D02*
G75*
G02*
X13013060Y-11435570I15000J0D01*
G01*
X13014280Y-11615380D02*
G75*
G02*
X12984280Y-11615380I-15000J0D01*
G01*
X12984280Y-11615380D02*
G75*
G02*
X13014280Y-11615380I15000J0D01*
G01*
X13018380Y-13580510D02*
G75*
G02*
X12988380Y-13580510I-15000J0D01*
G01*
X12988380Y-13580510D02*
G75*
G02*
X13018380Y-13580510I15000J0D01*
G01*
X13020000Y-10140000D02*
G75*
G02*
X12990000Y-10140000I-15000J0D01*
G01*
X12990000Y-10140000D02*
G75*
G02*
X13020000Y-10140000I15000J0D01*
G01*
X13024375Y-13730625D02*
G75*
G02*
X12994375Y-13730625I-15000J0D01*
G01*
X12994375Y-13730625D02*
G75*
G02*
X13024375Y-13730625I15000J0D01*
G01*
X13031300Y-12800270D02*
G75*
G02*
X13001300Y-12800270I-15000J0D01*
G01*
X13001300Y-12800270D02*
G75*
G02*
X13031300Y-12800270I15000J0D01*
G01*
X13060452Y-10247546D02*
G75*
G02*
X13030452Y-10247546I-15000J0D01*
G01*
X13030452Y-10247546D02*
G75*
G02*
X13060452Y-10247546I15000J0D01*
G01*
X13065080Y-11864980D02*
G75*
G02*
X13035080Y-11864980I-15000J0D01*
G01*
X13035080Y-11864980D02*
G75*
G02*
X13065080Y-11864980I15000J0D01*
G01*
X13084660Y-12700320D02*
G75*
G02*
X13054660Y-12700320I-15000J0D01*
G01*
X13054660Y-12700320D02*
G75*
G02*
X13084660Y-12700320I15000J0D01*
G01*
X13086875Y-13780625D02*
G75*
G02*
X13056875Y-13780625I-15000J0D01*
G01*
X13056875Y-13780625D02*
G75*
G02*
X13086875Y-13780625I15000J0D01*
G01*
X13092500Y-10532433D02*
G75*
G02*
X13062500Y-10532433I-15000J0D01*
G01*
X13062500Y-10532433D02*
G75*
G02*
X13092500Y-10532433I15000J0D01*
G01*
X13124690Y-11447990D02*
G75*
G02*
X13094690Y-11447990I-15000J0D01*
G01*
X13094690Y-11447990D02*
G75*
G02*
X13124690Y-11447990I15000J0D01*
G01*
X13130625Y-13299375D02*
G75*
G02*
X13100625Y-13299375I-15000J0D01*
G01*
X13100625Y-13299375D02*
G75*
G02*
X13130625Y-13299375I15000J0D01*
G01*
X13200000Y-13380000D02*
G75*
G02*
X13170000Y-13380000I-15000J0D01*
G01*
X13170000Y-13380000D02*
G75*
G02*
X13200000Y-13380000I15000J0D01*
G01*
X13200000Y-14100000D02*
G75*
G02*
X13170000Y-14100000I-15000J0D01*
G01*
X13170000Y-14100000D02*
G75*
G02*
X13200000Y-14100000I15000J0D01*
G01*
X13200000Y-14280000D02*
G75*
G02*
X13170000Y-14280000I-15000J0D01*
G01*
X13170000Y-14280000D02*
G75*
G02*
X13200000Y-14280000I15000J0D01*
G01*
X13222800Y-13677496D02*
G75*
G02*
X13192800Y-13677496I-15000J0D01*
G01*
X13192800Y-13677496D02*
G75*
G02*
X13222800Y-13677496I15000J0D01*
G01*
X13230625Y-11193125D02*
G75*
G02*
X13200625Y-11193125I-15000J0D01*
G01*
X13200625Y-11193125D02*
G75*
G02*
X13230625Y-11193125I15000J0D01*
G01*
X13230625Y-11343125D02*
G75*
G02*
X13200625Y-11343125I-15000J0D01*
G01*
X13200625Y-11343125D02*
G75*
G02*
X13230625Y-11343125I15000J0D01*
G01*
X13249375Y-11068125D02*
G75*
G02*
X13219375Y-11068125I-15000J0D01*
G01*
X13219375Y-11068125D02*
G75*
G02*
X13249375Y-11068125I15000J0D01*
G01*
X13286310Y-12875980D02*
G75*
G02*
X13256310Y-12875980I-15000J0D01*
G01*
X13256310Y-12875980D02*
G75*
G02*
X13286310Y-12875980I15000J0D01*
G01*
X13286529Y-13415000D02*
G75*
G02*
X13256529Y-13415000I-15000J0D01*
G01*
X13256529Y-13415000D02*
G75*
G02*
X13286529Y-13415000I15000J0D01*
G01*
X13287500Y-10408000D02*
G75*
G02*
X13257500Y-10408000I-15000J0D01*
G01*
X13257500Y-10408000D02*
G75*
G02*
X13287500Y-10408000I15000J0D01*
G01*
X13287500Y-10528000D02*
G75*
G02*
X13257500Y-10528000I-15000J0D01*
G01*
X13257500Y-10528000D02*
G75*
G02*
X13287500Y-10528000I15000J0D01*
G01*
X13287500Y-10648000D02*
G75*
G02*
X13257500Y-10648000I-15000J0D01*
G01*
X13257500Y-10648000D02*
G75*
G02*
X13287500Y-10648000I15000J0D01*
G01*
X13287500Y-10768000D02*
G75*
G02*
X13257500Y-10768000I-15000J0D01*
G01*
X13257500Y-10768000D02*
G75*
G02*
X13287500Y-10768000I15000J0D01*
G01*
X13287500Y-10888000D02*
G75*
G02*
X13257500Y-10888000I-15000J0D01*
G01*
X13257500Y-10888000D02*
G75*
G02*
X13287500Y-10888000I15000J0D01*
G01*
X13287500Y-11008000D02*
G75*
G02*
X13257500Y-11008000I-15000J0D01*
G01*
X13257500Y-11008000D02*
G75*
G02*
X13287500Y-11008000I15000J0D01*
G01*
X13287500Y-11128000D02*
G75*
G02*
X13257500Y-11128000I-15000J0D01*
G01*
X13257500Y-11128000D02*
G75*
G02*
X13287500Y-11128000I15000J0D01*
G01*
X13287500Y-11248000D02*
G75*
G02*
X13257500Y-11248000I-15000J0D01*
G01*
X13257500Y-11248000D02*
G75*
G02*
X13287500Y-11248000I15000J0D01*
G01*
X13296952Y-13764452D02*
G75*
G02*
X13266952Y-13764452I-15000J0D01*
G01*
X13266952Y-13764452D02*
G75*
G02*
X13296952Y-13764452I15000J0D01*
G01*
X13315430Y-12024560D02*
G75*
G02*
X13285430Y-12024560I-15000J0D01*
G01*
X13285430Y-12024560D02*
G75*
G02*
X13315430Y-12024560I15000J0D01*
G01*
X13329471Y-11561000D02*
G75*
G02*
X13299471Y-11561000I-15000J0D01*
G01*
X13299471Y-11561000D02*
G75*
G02*
X13329471Y-11561000I15000J0D01*
G01*
X13346520Y-13289430D02*
G75*
G02*
X13316520Y-13289430I-15000J0D01*
G01*
X13316520Y-13289430D02*
G75*
G02*
X13346520Y-13289430I15000J0D01*
G01*
X13363580Y-12802230D02*
G75*
G02*
X13333580Y-12802230I-15000J0D01*
G01*
X13333580Y-12802230D02*
G75*
G02*
X13363580Y-12802230I15000J0D01*
G01*
X13377050Y-14131350D02*
G75*
G02*
X13347050Y-14131350I-15000J0D01*
G01*
X13347050Y-14131350D02*
G75*
G02*
X13377050Y-14131350I15000J0D01*
G01*
X13378250Y-13914680D02*
G75*
G02*
X13348250Y-13914680I-15000J0D01*
G01*
X13348250Y-13914680D02*
G75*
G02*
X13378250Y-13914680I15000J0D01*
G01*
X13380000Y-14280000D02*
G75*
G02*
X13350000Y-14280000I-15000J0D01*
G01*
X13350000Y-14280000D02*
G75*
G02*
X13380000Y-14280000I15000J0D01*
G01*
X13380625Y-10055625D02*
G75*
G02*
X13350625Y-10055625I-15000J0D01*
G01*
X13350625Y-10055625D02*
G75*
G02*
X13380625Y-10055625I15000J0D01*
G01*
X13384721Y-14539670D02*
G75*
G02*
X13354721Y-14539670I-15000J0D01*
G01*
X13354721Y-14539670D02*
G75*
G02*
X13384721Y-14539670I15000J0D01*
G01*
X13390550Y-12097740D02*
G75*
G02*
X13360550Y-12097740I-15000J0D01*
G01*
X13360550Y-12097740D02*
G75*
G02*
X13390550Y-12097740I15000J0D01*
G01*
X13407190Y-12291070D02*
G75*
G02*
X13377190Y-12291070I-15000J0D01*
G01*
X13377190Y-12291070D02*
G75*
G02*
X13407190Y-12291070I15000J0D01*
G01*
X13412350Y-12674100D02*
G75*
G02*
X13382350Y-12674100I-15000J0D01*
G01*
X13382350Y-12674100D02*
G75*
G02*
X13412350Y-12674100I15000J0D01*
G01*
X13415000Y-10120000D02*
G75*
G02*
X13385000Y-10120000I-15000J0D01*
G01*
X13385000Y-10120000D02*
G75*
G02*
X13415000Y-10120000I15000J0D01*
G01*
X13427500Y-10408000D02*
G75*
G02*
X13397500Y-10408000I-15000J0D01*
G01*
X13397500Y-10408000D02*
G75*
G02*
X13427500Y-10408000I15000J0D01*
G01*
X13427500Y-10528000D02*
G75*
G02*
X13397500Y-10528000I-15000J0D01*
G01*
X13397500Y-10528000D02*
G75*
G02*
X13427500Y-10528000I15000J0D01*
G01*
X13427500Y-10648000D02*
G75*
G02*
X13397500Y-10648000I-15000J0D01*
G01*
X13397500Y-10648000D02*
G75*
G02*
X13427500Y-10648000I15000J0D01*
G01*
X13427500Y-10768000D02*
G75*
G02*
X13397500Y-10768000I-15000J0D01*
G01*
X13397500Y-10768000D02*
G75*
G02*
X13427500Y-10768000I15000J0D01*
G01*
X13427500Y-10888000D02*
G75*
G02*
X13397500Y-10888000I-15000J0D01*
G01*
X13397500Y-10888000D02*
G75*
G02*
X13427500Y-10888000I15000J0D01*
G01*
X13427500Y-11008000D02*
G75*
G02*
X13397500Y-11008000I-15000J0D01*
G01*
X13397500Y-11008000D02*
G75*
G02*
X13427500Y-11008000I15000J0D01*
G01*
X13427500Y-11128000D02*
G75*
G02*
X13397500Y-11128000I-15000J0D01*
G01*
X13397500Y-11128000D02*
G75*
G02*
X13427500Y-11128000I15000J0D01*
G01*
X13427500Y-11248000D02*
G75*
G02*
X13397500Y-11248000I-15000J0D01*
G01*
X13397500Y-11248000D02*
G75*
G02*
X13427500Y-11248000I15000J0D01*
G01*
X13431971Y-13549971D02*
G75*
G02*
X13401971Y-13549971I-15000J0D01*
G01*
X13401971Y-13549971D02*
G75*
G02*
X13431971Y-13549971I15000J0D01*
G01*
X13433410Y-12428970D02*
G75*
G02*
X13403410Y-12428970I-15000J0D01*
G01*
X13403410Y-12428970D02*
G75*
G02*
X13433410Y-12428970I15000J0D01*
G01*
X13454471Y-11561000D02*
G75*
G02*
X13424471Y-11561000I-15000J0D01*
G01*
X13424471Y-11561000D02*
G75*
G02*
X13454471Y-11561000I15000J0D01*
G01*
X13461670Y-13414830D02*
G75*
G02*
X13431670Y-13414830I-15000J0D01*
G01*
X13431670Y-13414830D02*
G75*
G02*
X13461670Y-13414830I15000J0D01*
G01*
X13481380Y-12076000D02*
G75*
G02*
X13451380Y-12076000I-15000J0D01*
G01*
X13451380Y-12076000D02*
G75*
G02*
X13481380Y-12076000I15000J0D01*
G01*
X13482820Y-13487504D02*
G75*
G02*
X13452820Y-13487504I-15000J0D01*
G01*
X13452820Y-13487504D02*
G75*
G02*
X13482820Y-13487504I15000J0D01*
G01*
X13486875Y-10849375D02*
G75*
G02*
X13456875Y-10849375I-15000J0D01*
G01*
X13456875Y-10849375D02*
G75*
G02*
X13486875Y-10849375I15000J0D01*
G01*
X13516422Y-12942578D02*
G75*
G02*
X13486422Y-12942578I-15000J0D01*
G01*
X13486422Y-12942578D02*
G75*
G02*
X13516422Y-12942578I15000J0D01*
G01*
X13519080Y-10733610D02*
G75*
G02*
X13489080Y-10733610I-15000J0D01*
G01*
X13489080Y-10733610D02*
G75*
G02*
X13519080Y-10733610I15000J0D01*
G01*
X13535000Y-10120000D02*
G75*
G02*
X13505000Y-10120000I-15000J0D01*
G01*
X13505000Y-10120000D02*
G75*
G02*
X13535000Y-10120000I15000J0D01*
G01*
X13535000Y-10260000D02*
G75*
G02*
X13505000Y-10260000I-15000J0D01*
G01*
X13505000Y-10260000D02*
G75*
G02*
X13535000Y-10260000I15000J0D01*
G01*
X13566650Y-12025140D02*
G75*
G02*
X13536650Y-12025140I-15000J0D01*
G01*
X13536650Y-12025140D02*
G75*
G02*
X13566650Y-12025140I15000J0D01*
G01*
X13590000Y-13311529D02*
G75*
G02*
X13560000Y-13311529I-15000J0D01*
G01*
X13560000Y-13311529D02*
G75*
G02*
X13590000Y-13311529I15000J0D01*
G01*
X13602900Y-14346810D02*
G75*
G02*
X13572900Y-14346810I-15000J0D01*
G01*
X13572900Y-14346810D02*
G75*
G02*
X13602900Y-14346810I15000J0D01*
G01*
X13610966Y-13520786D02*
G75*
G02*
X13580966Y-13520786I-15000J0D01*
G01*
X13580966Y-13520786D02*
G75*
G02*
X13610966Y-13520786I15000J0D01*
G01*
X13636875Y-13136875D02*
G75*
G02*
X13606875Y-13136875I-15000J0D01*
G01*
X13606875Y-13136875D02*
G75*
G02*
X13636875Y-13136875I15000J0D01*
G01*
X13655000Y-10120000D02*
G75*
G02*
X13625000Y-10120000I-15000J0D01*
G01*
X13625000Y-10120000D02*
G75*
G02*
X13655000Y-10120000I15000J0D01*
G01*
X13655000Y-10260000D02*
G75*
G02*
X13625000Y-10260000I-15000J0D01*
G01*
X13625000Y-10260000D02*
G75*
G02*
X13655000Y-10260000I15000J0D01*
G01*
X13686000Y-13479471D02*
G75*
G02*
X13656000Y-13479471I-15000J0D01*
G01*
X13656000Y-13479471D02*
G75*
G02*
X13686000Y-13479471I15000J0D01*
G01*
X13740000Y-14280000D02*
G75*
G02*
X13710000Y-14280000I-15000J0D01*
G01*
X13710000Y-14280000D02*
G75*
G02*
X13740000Y-14280000I15000J0D01*
G01*
X13756080Y-11636740D02*
G75*
G02*
X13726080Y-11636740I-15000J0D01*
G01*
X13726080Y-11636740D02*
G75*
G02*
X13756080Y-11636740I15000J0D01*
G01*
X13775000Y-10120000D02*
G75*
G02*
X13745000Y-10120000I-15000J0D01*
G01*
X13745000Y-10120000D02*
G75*
G02*
X13775000Y-10120000I15000J0D01*
G01*
X13788520Y-13306200D02*
G75*
G02*
X13758520Y-13306200I-15000J0D01*
G01*
X13758520Y-13306200D02*
G75*
G02*
X13788520Y-13306200I15000J0D01*
G01*
X13818125Y-12968125D02*
G75*
G02*
X13788125Y-12968125I-15000J0D01*
G01*
X13788125Y-12968125D02*
G75*
G02*
X13818125Y-12968125I15000J0D01*
G01*
X13824375Y-12668125D02*
G75*
G02*
X13794375Y-12668125I-15000J0D01*
G01*
X13794375Y-12668125D02*
G75*
G02*
X13824375Y-12668125I15000J0D01*
G01*
X13851000Y-11364430D02*
G75*
G02*
X13821000Y-11364430I-15000J0D01*
G01*
X13821000Y-11364430D02*
G75*
G02*
X13851000Y-11364430I15000J0D01*
G01*
X13854650Y-11119020D02*
G75*
G02*
X13824650Y-11119020I-15000J0D01*
G01*
X13824650Y-11119020D02*
G75*
G02*
X13854650Y-11119020I15000J0D01*
G01*
X13890330Y-11604920D02*
G75*
G02*
X13860330Y-11604920I-15000J0D01*
G01*
X13860330Y-11604920D02*
G75*
G02*
X13890330Y-11604920I15000J0D01*
G01*
X13895000Y-10120000D02*
G75*
G02*
X13865000Y-10120000I-15000J0D01*
G01*
X13865000Y-10120000D02*
G75*
G02*
X13895000Y-10120000I15000J0D01*
G01*
X13916270Y-10463360D02*
G75*
G02*
X13886270Y-10463360I-15000J0D01*
G01*
X13886270Y-10463360D02*
G75*
G02*
X13916270Y-10463360I15000J0D01*
G01*
X13920000Y-10320000D02*
G75*
G02*
X13890000Y-10320000I-15000J0D01*
G01*
X13890000Y-10320000D02*
G75*
G02*
X13920000Y-10320000I15000J0D01*
G01*
X13920000Y-11220000D02*
G75*
G02*
X13890000Y-11220000I-15000J0D01*
G01*
X13890000Y-11220000D02*
G75*
G02*
X13920000Y-11220000I15000J0D01*
G01*
X13920000Y-13560000D02*
G75*
G02*
X13890000Y-13560000I-15000J0D01*
G01*
X13890000Y-13560000D02*
G75*
G02*
X13920000Y-13560000I15000J0D01*
G01*
X13920000Y-14100000D02*
G75*
G02*
X13890000Y-14100000I-15000J0D01*
G01*
X13890000Y-14100000D02*
G75*
G02*
X13920000Y-14100000I15000J0D01*
G01*
X13924950Y-10535020D02*
G75*
G02*
X13894950Y-10535020I-15000J0D01*
G01*
X13894950Y-10535020D02*
G75*
G02*
X13924950Y-10535020I15000J0D01*
G01*
X13930940Y-11546060D02*
G75*
G02*
X13900940Y-11546060I-15000J0D01*
G01*
X13900940Y-11546060D02*
G75*
G02*
X13930940Y-11546060I15000J0D01*
G01*
X13947920Y-11934170D02*
G75*
G02*
X13917920Y-11934170I-15000J0D01*
G01*
X13917920Y-11934170D02*
G75*
G02*
X13947920Y-11934170I15000J0D01*
G01*
X13958286Y-10087635D02*
G75*
G02*
X13928286Y-10087635I-15000J0D01*
G01*
X13928286Y-10087635D02*
G75*
G02*
X13958286Y-10087635I15000J0D01*
G01*
X13968125Y-11318125D02*
G75*
G02*
X13938125Y-11318125I-15000J0D01*
G01*
X13938125Y-11318125D02*
G75*
G02*
X13968125Y-11318125I15000J0D01*
G01*
X14015000Y-10120000D02*
G75*
G02*
X13985000Y-10120000I-15000J0D01*
G01*
X13985000Y-10120000D02*
G75*
G02*
X14015000Y-10120000I15000J0D01*
G01*
X14015000Y-10260000D02*
G75*
G02*
X13985000Y-10260000I-15000J0D01*
G01*
X13985000Y-10260000D02*
G75*
G02*
X14015000Y-10260000I15000J0D01*
G01*
X14044500Y-13022620D02*
G75*
G02*
X14014500Y-13022620I-15000J0D01*
G01*
X14014500Y-13022620D02*
G75*
G02*
X14044500Y-13022620I15000J0D01*
G01*
X14055060Y-12191650D02*
G75*
G02*
X14025060Y-12191650I-15000J0D01*
G01*
X14025060Y-12191650D02*
G75*
G02*
X14055060Y-12191650I15000J0D01*
G01*
X14065152Y-12494171D02*
G75*
G02*
X14035152Y-12494171I-15000J0D01*
G01*
X14035152Y-12494171D02*
G75*
G02*
X14065152Y-12494171I15000J0D01*
G01*
X14100000Y-11220000D02*
G75*
G02*
X14070000Y-11220000I-15000J0D01*
G01*
X14070000Y-11220000D02*
G75*
G02*
X14100000Y-11220000I15000J0D01*
G01*
X14100000Y-12300000D02*
G75*
G02*
X14070000Y-12300000I-15000J0D01*
G01*
X14070000Y-12300000D02*
G75*
G02*
X14100000Y-12300000I15000J0D01*
G01*
X14100000Y-13560000D02*
G75*
G02*
X14070000Y-13560000I-15000J0D01*
G01*
X14070000Y-13560000D02*
G75*
G02*
X14100000Y-13560000I15000J0D01*
G01*
X14100000Y-13740000D02*
G75*
G02*
X14070000Y-13740000I-15000J0D01*
G01*
X14070000Y-13740000D02*
G75*
G02*
X14100000Y-13740000I15000J0D01*
G01*
X14100000Y-13920000D02*
G75*
G02*
X14070000Y-13920000I-15000J0D01*
G01*
X14070000Y-13920000D02*
G75*
G02*
X14100000Y-13920000I15000J0D01*
G01*
X14100000Y-14100000D02*
G75*
G02*
X14070000Y-14100000I-15000J0D01*
G01*
X14070000Y-14100000D02*
G75*
G02*
X14100000Y-14100000I15000J0D01*
G01*
X14100000Y-14280000D02*
G75*
G02*
X14070000Y-14280000I-15000J0D01*
G01*
X14070000Y-14280000D02*
G75*
G02*
X14100000Y-14280000I15000J0D01*
G01*
X14115990Y-13320270D02*
G75*
G02*
X14085990Y-13320270I-15000J0D01*
G01*
X14085990Y-13320270D02*
G75*
G02*
X14115990Y-13320270I15000J0D01*
G01*
X14118125Y-12224375D02*
G75*
G02*
X14088125Y-12224375I-15000J0D01*
G01*
X14088125Y-12224375D02*
G75*
G02*
X14118125Y-12224375I15000J0D01*
G01*
X14200726Y-14430000D02*
G75*
G02*
X14170726Y-14430000I-15000J0D01*
G01*
X14170726Y-14430000D02*
G75*
G02*
X14200726Y-14430000I15000J0D01*
G01*
X14236875Y-11149375D02*
G75*
G02*
X14206875Y-11149375I-15000J0D01*
G01*
X14206875Y-11149375D02*
G75*
G02*
X14236875Y-11149375I15000J0D01*
G01*
X14266610Y-11761290D02*
G75*
G02*
X14236610Y-11761290I-15000J0D01*
G01*
X14236610Y-11761290D02*
G75*
G02*
X14266610Y-11761290I15000J0D01*
G01*
X14267578Y-10616422D02*
G75*
G02*
X14237578Y-10616422I-15000J0D01*
G01*
X14237578Y-10616422D02*
G75*
G02*
X14267578Y-10616422I15000J0D01*
G01*
X14272729Y-13022500D02*
G75*
G02*
X14242729Y-13022500I-15000J0D01*
G01*
X14242729Y-13022500D02*
G75*
G02*
X14272729Y-13022500I15000J0D01*
G01*
X14280000Y-10500000D02*
G75*
G02*
X14250000Y-10500000I-15000J0D01*
G01*
X14250000Y-10500000D02*
G75*
G02*
X14280000Y-10500000I15000J0D01*
G01*
X14280000Y-11940000D02*
G75*
G02*
X14250000Y-11940000I-15000J0D01*
G01*
X14250000Y-11940000D02*
G75*
G02*
X14280000Y-11940000I15000J0D01*
G01*
X14280000Y-12300000D02*
G75*
G02*
X14250000Y-12300000I-15000J0D01*
G01*
X14250000Y-12300000D02*
G75*
G02*
X14280000Y-12300000I15000J0D01*
G01*
X14280000Y-12660000D02*
G75*
G02*
X14250000Y-12660000I-15000J0D01*
G01*
X14250000Y-12660000D02*
G75*
G02*
X14280000Y-12660000I15000J0D01*
G01*
X14280000Y-12840000D02*
G75*
G02*
X14250000Y-12840000I-15000J0D01*
G01*
X14250000Y-12840000D02*
G75*
G02*
X14280000Y-12840000I15000J0D01*
G01*
X14280000Y-13200000D02*
G75*
G02*
X14250000Y-13200000I-15000J0D01*
G01*
X14250000Y-13200000D02*
G75*
G02*
X14280000Y-13200000I15000J0D01*
G01*
X14280000Y-13560000D02*
G75*
G02*
X14250000Y-13560000I-15000J0D01*
G01*
X14250000Y-13560000D02*
G75*
G02*
X14280000Y-13560000I15000J0D01*
G01*
X14280000Y-13740000D02*
G75*
G02*
X14250000Y-13740000I-15000J0D01*
G01*
X14250000Y-13740000D02*
G75*
G02*
X14280000Y-13740000I15000J0D01*
G01*
X14280000Y-13920000D02*
G75*
G02*
X14250000Y-13920000I-15000J0D01*
G01*
X14250000Y-13920000D02*
G75*
G02*
X14280000Y-13920000I15000J0D01*
G01*
X14280000Y-14100000D02*
G75*
G02*
X14250000Y-14100000I-15000J0D01*
G01*
X14250000Y-14100000D02*
G75*
G02*
X14280000Y-14100000I15000J0D01*
G01*
X14280000Y-14280000D02*
G75*
G02*
X14250000Y-14280000I-15000J0D01*
G01*
X14250000Y-14280000D02*
G75*
G02*
X14280000Y-14280000I15000J0D01*
G01*
X14285380Y-11545610D02*
G75*
G02*
X14255380Y-11545610I-15000J0D01*
G01*
X14255380Y-11545610D02*
G75*
G02*
X14285380Y-11545610I15000J0D01*
G01*
X14286448Y-10923171D02*
G75*
G02*
X14256448Y-10923171I-15000J0D01*
G01*
X14256448Y-10923171D02*
G75*
G02*
X14286448Y-10923171I15000J0D01*
G01*
X14374049Y-11315179D02*
G75*
G02*
X14344049Y-11315179I-15000J0D01*
G01*
X14344049Y-11315179D02*
G75*
G02*
X14374049Y-11315179I15000J0D01*
G01*
X14374052Y-12310173D02*
G75*
G02*
X14344052Y-12310173I-15000J0D01*
G01*
X14344052Y-12310173D02*
G75*
G02*
X14374052Y-12310173I15000J0D01*
G01*
X14460940Y-10899450D02*
G75*
G02*
X14430940Y-10899450I-15000J0D01*
G01*
X14430940Y-10899450D02*
G75*
G02*
X14460940Y-10899450I15000J0D01*
G01*
X14471946Y-12310176D02*
G75*
G02*
X14441946Y-12310176I-15000J0D01*
G01*
X14441946Y-12310176D02*
G75*
G02*
X14471946Y-12310176I15000J0D01*
G01*
X14471948Y-11315182D02*
G75*
G02*
X14441948Y-11315182I-15000J0D01*
G01*
X14441948Y-11315182D02*
G75*
G02*
X14471948Y-11315182I15000J0D01*
G01*
X13956488Y-12437501D02*
X13956488Y-12497501D01*
X13926488Y-12467501D02*
X13986488Y-12467501D01*
X13911487Y-12497501D02*
X14001489Y-12497501D01*
X14001489Y-12437501D02*
G75*
G02*
X14001489Y-12497501I0J-30000D01*
G01*
X14001489Y-12437501D02*
X13911487Y-12437501D01*
X13911487Y-12437501D02*
G75*
G03*
X13911487Y-12497501I0J-30000D01*
G01*
X13956488Y-13302499D02*
X13956488Y-13362499D01*
X13926488Y-13332499D02*
X13986488Y-13332499D01*
X13911488Y-13362499D02*
X14001488Y-13362499D01*
X14001488Y-13302499D02*
G75*
G02*
X14001488Y-13362499I0J-30000D01*
G01*
X14001488Y-13302499D02*
X13911488Y-13302499D01*
X13911488Y-13302499D02*
G75*
G03*
X13911488Y-13362499I0J-30000D01*
G01*
X14376503Y-12437501D02*
X14376503Y-12497501D01*
X14346503Y-12467501D02*
X14406503Y-12467501D01*
X14346503Y-12497501D02*
X14406503Y-12497501D01*
X14406503Y-12437501D02*
G75*
G02*
X14406503Y-12497501I0J-30000D01*
G01*
X14406503Y-12437501D02*
X14346503Y-12437501D01*
X14346503Y-12437501D02*
G75*
G03*
X14346503Y-12497501I0J-30000D01*
G01*
X14376503Y-13302499D02*
X14376503Y-13362499D01*
X14346503Y-13332499D02*
X14406503Y-13332499D01*
X14346503Y-13362499D02*
X14406503Y-13362499D01*
X14406503Y-13302499D02*
G75*
G02*
X14406503Y-13362499I0J-30000D01*
G01*
X14406503Y-13302499D02*
X14346503Y-13302499D01*
X14346503Y-13302499D02*
G75*
G03*
X14346503Y-13362499I0J-30000D01*
G01*
X14204821Y-10094821D02*
X14204821Y-10031179D01*
X14141179Y-10031179D01*
X14141179Y-10094821D01*
X14204821Y-10094821D01*
X14204821Y-10348821D02*
X14204821Y-10285179D01*
X14141179Y-10285179D01*
X14141179Y-10348821D01*
X14204821Y-10348821D01*
X14458821Y-10094821D02*
X14458821Y-10031179D01*
X14395179Y-10031179D01*
X14395179Y-10094821D01*
X14458821Y-10094821D01*
X14458821Y-10348821D02*
X14458821Y-10285179D01*
X14395179Y-10285179D01*
X14395179Y-10348821D01*
X14458821Y-10348821D01*
X14300000Y-10240000D02*
X14350000Y-10190000D01*
X14300000Y-10140000D01*
X14250000Y-10190000D01*
X14300000Y-10240000D01*
X13973506Y-12575984D02*
X14043508Y-12645987D01*
X14043508Y-12575984D02*
X13973506Y-12645987D01*
X14043508Y-12610985D02*
G75*
G02*
X13973506Y-12610985I-35001J0D01*
G01*
X13973506Y-12610985D02*
G75*
G02*
X14043508Y-12610985I35001J0D01*
G01*
X13973506Y-13153988D02*
X14043508Y-13223990D01*
X14043508Y-13153988D02*
X13973506Y-13223990D01*
X14043508Y-13188989D02*
G75*
G02*
X13973506Y-13188989I-35001J0D01*
G01*
X13973506Y-13188989D02*
G75*
G02*
X14043508Y-13188989I35001J0D01*
G01*
X11178870Y-10536470D02*
X11277930Y-10635530D01*
X11277930Y-10536470D02*
X11178870Y-10635530D01*
X11228400Y-10536470D02*
X11228400Y-10635530D01*
X11178870Y-10586000D02*
X11277930Y-10586000D01*
X11280470Y-11044470D02*
X11379530Y-11143530D01*
X11379530Y-11044470D02*
X11280470Y-11143530D01*
X11330000Y-11044470D02*
X11330000Y-11143530D01*
X11280470Y-11094000D02*
X11379530Y-11094000D01*
X11382070Y-10536470D02*
X11481130Y-10635530D01*
X11481130Y-10536470D02*
X11382070Y-10635530D01*
X11431600Y-10536470D02*
X11431600Y-10635530D01*
X11382070Y-10586000D02*
X11481130Y-10586000D01*
X10181391Y-11994996D02*
X10281391Y-12094996D01*
X10281391Y-11994996D02*
X10181391Y-12094996D01*
X10266747Y-12080352D02*
X10266747Y-12009640D01*
X10196035Y-12009640D01*
X10196035Y-12080352D01*
X10266747Y-12080352D01*
X10181391Y-12794996D02*
X10281391Y-12894996D01*
X10281391Y-12794996D02*
X10181391Y-12894996D01*
X10266747Y-12880352D02*
X10266747Y-12809640D01*
X10196035Y-12809640D01*
X10196035Y-12880352D01*
X10266747Y-12880352D01*
D11*
X10180777Y-14976484D02*
X10180777Y-14776484D01*
X10180777Y-14776484D02*
X10228396Y-14776484D01*
X10228396Y-14776484D02*
X10256967Y-14786008D01*
X10256967Y-14786008D02*
X10276015Y-14805055D01*
X10276015Y-14805055D02*
X10285539Y-14824103D01*
X10285539Y-14824103D02*
X10295063Y-14862198D01*
X10295063Y-14862198D02*
X10295063Y-14890769D01*
X10295063Y-14890769D02*
X10285539Y-14928865D01*
X10285539Y-14928865D02*
X10276015Y-14947912D01*
X10276015Y-14947912D02*
X10256967Y-14966960D01*
X10256967Y-14966960D02*
X10228396Y-14976484D01*
X10228396Y-14976484D02*
X10180777Y-14976484D01*
X10380777Y-14976484D02*
X10380777Y-14843150D01*
X10380777Y-14881246D02*
X10390301Y-14862198D01*
X10390301Y-14862198D02*
X10399824Y-14852674D01*
X10399824Y-14852674D02*
X10418872Y-14843150D01*
X10418872Y-14843150D02*
X10437920Y-14843150D01*
X10504586Y-14976484D02*
X10504586Y-14843150D01*
X10504586Y-14776484D02*
X10495063Y-14786008D01*
X10495063Y-14786008D02*
X10504586Y-14795531D01*
X10504586Y-14795531D02*
X10514110Y-14786008D01*
X10514110Y-14786008D02*
X10504586Y-14776484D01*
X10504586Y-14776484D02*
X10504586Y-14795531D01*
X10628396Y-14976484D02*
X10609348Y-14966960D01*
X10609348Y-14966960D02*
X10599824Y-14947912D01*
X10599824Y-14947912D02*
X10599824Y-14776484D01*
X10733158Y-14976484D02*
X10714110Y-14966960D01*
X10714110Y-14966960D02*
X10704586Y-14947912D01*
X10704586Y-14947912D02*
X10704586Y-14776484D01*
X10961729Y-14976484D02*
X10961729Y-14776484D01*
X10961729Y-14776484D02*
X11028396Y-14919341D01*
X11028396Y-14919341D02*
X11095063Y-14776484D01*
X11095063Y-14776484D02*
X11095063Y-14976484D01*
X11276015Y-14976484D02*
X11276015Y-14871722D01*
X11276015Y-14871722D02*
X11266491Y-14852674D01*
X11266491Y-14852674D02*
X11247443Y-14843150D01*
X11247443Y-14843150D02*
X11209348Y-14843150D01*
X11209348Y-14843150D02*
X11190301Y-14852674D01*
X11276015Y-14966960D02*
X11256967Y-14976484D01*
X11256967Y-14976484D02*
X11209348Y-14976484D01*
X11209348Y-14976484D02*
X11190301Y-14966960D01*
X11190301Y-14966960D02*
X11180777Y-14947912D01*
X11180777Y-14947912D02*
X11180777Y-14928865D01*
X11180777Y-14928865D02*
X11190301Y-14909817D01*
X11190301Y-14909817D02*
X11209348Y-14900293D01*
X11209348Y-14900293D02*
X11256967Y-14900293D01*
X11256967Y-14900293D02*
X11276015Y-14890769D01*
X11371253Y-14843150D02*
X11371253Y-15043150D01*
X11371253Y-14852674D02*
X11390301Y-14843150D01*
X11390301Y-14843150D02*
X11428396Y-14843150D01*
X11428396Y-14843150D02*
X11447443Y-14852674D01*
X11447443Y-14852674D02*
X11456967Y-14862198D01*
X11456967Y-14862198D02*
X11466491Y-14881246D01*
X11466491Y-14881246D02*
X11466491Y-14938388D01*
X11466491Y-14938388D02*
X11456967Y-14957436D01*
X11456967Y-14957436D02*
X11447443Y-14966960D01*
X11447443Y-14966960D02*
X11428396Y-14976484D01*
X11428396Y-14976484D02*
X11390301Y-14976484D01*
X11390301Y-14976484D02*
X11371253Y-14966960D01*
X11552205Y-14957436D02*
X11561729Y-14966960D01*
X11561729Y-14966960D02*
X11552205Y-14976484D01*
X11552205Y-14976484D02*
X11542682Y-14966960D01*
X11542682Y-14966960D02*
X11552205Y-14957436D01*
X11552205Y-14957436D02*
X11552205Y-14976484D01*
X11552205Y-14852674D02*
X11561729Y-14862198D01*
X11561729Y-14862198D02*
X11552205Y-14871722D01*
X11552205Y-14871722D02*
X11542682Y-14862198D01*
X11542682Y-14862198D02*
X11552205Y-14852674D01*
X11552205Y-14852674D02*
X11552205Y-14871722D01*
D10*
X9900000Y-15295000D02*
X9920000Y-15315000D01*
X9920000Y-15295000D02*
X9900000Y-15315000D01*
D11*
X10218872Y-15196484D02*
X10237920Y-15196484D01*
X10237920Y-15196484D02*
X10256967Y-15206008D01*
X10256967Y-15206008D02*
X10266491Y-15215531D01*
X10266491Y-15215531D02*
X10276015Y-15234579D01*
X10276015Y-15234579D02*
X10285539Y-15272674D01*
X10285539Y-15272674D02*
X10285539Y-15320293D01*
X10285539Y-15320293D02*
X10276015Y-15358388D01*
X10276015Y-15358388D02*
X10266491Y-15377436D01*
X10266491Y-15377436D02*
X10256967Y-15386960D01*
X10256967Y-15386960D02*
X10237920Y-15396484D01*
X10237920Y-15396484D02*
X10218872Y-15396484D01*
X10218872Y-15396484D02*
X10199824Y-15386960D01*
X10199824Y-15386960D02*
X10190301Y-15377436D01*
X10190301Y-15377436D02*
X10180777Y-15358388D01*
X10180777Y-15358388D02*
X10171253Y-15320293D01*
X10171253Y-15320293D02*
X10171253Y-15272674D01*
X10171253Y-15272674D02*
X10180777Y-15234579D01*
X10180777Y-15234579D02*
X10190301Y-15215531D01*
X10190301Y-15215531D02*
X10199824Y-15206008D01*
X10199824Y-15206008D02*
X10218872Y-15196484D01*
X10371253Y-15377436D02*
X10380777Y-15386960D01*
X10380777Y-15386960D02*
X10371253Y-15396484D01*
X10371253Y-15396484D02*
X10361729Y-15386960D01*
X10361729Y-15386960D02*
X10371253Y-15377436D01*
X10371253Y-15377436D02*
X10371253Y-15396484D01*
X10456967Y-15215531D02*
X10466491Y-15206008D01*
X10466491Y-15206008D02*
X10485539Y-15196484D01*
X10485539Y-15196484D02*
X10533158Y-15196484D01*
X10533158Y-15196484D02*
X10552205Y-15206008D01*
X10552205Y-15206008D02*
X10561729Y-15215531D01*
X10561729Y-15215531D02*
X10571253Y-15234579D01*
X10571253Y-15234579D02*
X10571253Y-15253627D01*
X10571253Y-15253627D02*
X10561729Y-15282198D01*
X10561729Y-15282198D02*
X10447444Y-15396484D01*
X10447444Y-15396484D02*
X10571253Y-15396484D01*
X10695063Y-15196484D02*
X10714110Y-15196484D01*
X10714110Y-15196484D02*
X10733158Y-15206008D01*
X10733158Y-15206008D02*
X10742682Y-15215531D01*
X10742682Y-15215531D02*
X10752205Y-15234579D01*
X10752205Y-15234579D02*
X10761729Y-15272674D01*
X10761729Y-15272674D02*
X10761729Y-15320293D01*
X10761729Y-15320293D02*
X10752205Y-15358388D01*
X10752205Y-15358388D02*
X10742682Y-15377436D01*
X10742682Y-15377436D02*
X10733158Y-15386960D01*
X10733158Y-15386960D02*
X10714110Y-15396484D01*
X10714110Y-15396484D02*
X10695063Y-15396484D01*
X10695063Y-15396484D02*
X10676015Y-15386960D01*
X10676015Y-15386960D02*
X10666491Y-15377436D01*
X10666491Y-15377436D02*
X10656967Y-15358388D01*
X10656967Y-15358388D02*
X10647444Y-15320293D01*
X10647444Y-15320293D02*
X10647444Y-15272674D01*
X10647444Y-15272674D02*
X10656967Y-15234579D01*
X10656967Y-15234579D02*
X10666491Y-15215531D01*
X10666491Y-15215531D02*
X10676015Y-15206008D01*
X10676015Y-15206008D02*
X10695063Y-15196484D01*
X10885539Y-15196484D02*
X10904586Y-15196484D01*
X10904586Y-15196484D02*
X10923634Y-15206008D01*
X10923634Y-15206008D02*
X10933158Y-15215531D01*
X10933158Y-15215531D02*
X10942682Y-15234579D01*
X10942682Y-15234579D02*
X10952205Y-15272674D01*
X10952205Y-15272674D02*
X10952205Y-15320293D01*
X10952205Y-15320293D02*
X10942682Y-15358388D01*
X10942682Y-15358388D02*
X10933158Y-15377436D01*
X10933158Y-15377436D02*
X10923634Y-15386960D01*
X10923634Y-15386960D02*
X10904586Y-15396484D01*
X10904586Y-15396484D02*
X10885539Y-15396484D01*
X10885539Y-15396484D02*
X10866491Y-15386960D01*
X10866491Y-15386960D02*
X10856967Y-15377436D01*
X10856967Y-15377436D02*
X10847444Y-15358388D01*
X10847444Y-15358388D02*
X10837920Y-15320293D01*
X10837920Y-15320293D02*
X10837920Y-15272674D01*
X10837920Y-15272674D02*
X10847444Y-15234579D01*
X10847444Y-15234579D02*
X10856967Y-15215531D01*
X10856967Y-15215531D02*
X10866491Y-15206008D01*
X10866491Y-15206008D02*
X10885539Y-15196484D01*
X11037920Y-15396484D02*
X11037920Y-15263150D01*
X11037920Y-15282198D02*
X11047444Y-15272674D01*
X11047444Y-15272674D02*
X11066491Y-15263150D01*
X11066491Y-15263150D02*
X11095063Y-15263150D01*
X11095063Y-15263150D02*
X11114110Y-15272674D01*
X11114110Y-15272674D02*
X11123634Y-15291722D01*
X11123634Y-15291722D02*
X11123634Y-15396484D01*
X11123634Y-15291722D02*
X11133158Y-15272674D01*
X11133158Y-15272674D02*
X11152205Y-15263150D01*
X11152205Y-15263150D02*
X11180777Y-15263150D01*
X11180777Y-15263150D02*
X11199824Y-15272674D01*
X11199824Y-15272674D02*
X11209348Y-15291722D01*
X11209348Y-15291722D02*
X11209348Y-15396484D01*
X11304586Y-15396484D02*
X11304586Y-15263150D01*
X11304586Y-15282198D02*
X11314110Y-15272674D01*
X11314110Y-15272674D02*
X11333158Y-15263150D01*
X11333158Y-15263150D02*
X11361729Y-15263150D01*
X11361729Y-15263150D02*
X11380777Y-15272674D01*
X11380777Y-15272674D02*
X11390301Y-15291722D01*
X11390301Y-15291722D02*
X11390301Y-15396484D01*
X11390301Y-15291722D02*
X11399824Y-15272674D01*
X11399824Y-15272674D02*
X11418872Y-15263150D01*
X11418872Y-15263150D02*
X11447443Y-15263150D01*
X11447443Y-15263150D02*
X11466491Y-15272674D01*
X11466491Y-15272674D02*
X11476015Y-15291722D01*
X11476015Y-15291722D02*
X11476015Y-15396484D01*
X11866491Y-15186960D02*
X11695063Y-15444103D01*
X12123634Y-15196484D02*
X12142682Y-15196484D01*
X12142682Y-15196484D02*
X12161729Y-15206008D01*
X12161729Y-15206008D02*
X12171253Y-15215531D01*
X12171253Y-15215531D02*
X12180777Y-15234579D01*
X12180777Y-15234579D02*
X12190301Y-15272674D01*
X12190301Y-15272674D02*
X12190301Y-15320293D01*
X12190301Y-15320293D02*
X12180777Y-15358388D01*
X12180777Y-15358388D02*
X12171253Y-15377436D01*
X12171253Y-15377436D02*
X12161729Y-15386960D01*
X12161729Y-15386960D02*
X12142682Y-15396484D01*
X12142682Y-15396484D02*
X12123634Y-15396484D01*
X12123634Y-15396484D02*
X12104586Y-15386960D01*
X12104586Y-15386960D02*
X12095063Y-15377436D01*
X12095063Y-15377436D02*
X12085539Y-15358388D01*
X12085539Y-15358388D02*
X12076015Y-15320293D01*
X12076015Y-15320293D02*
X12076015Y-15272674D01*
X12076015Y-15272674D02*
X12085539Y-15234579D01*
X12085539Y-15234579D02*
X12095063Y-15215531D01*
X12095063Y-15215531D02*
X12104586Y-15206008D01*
X12104586Y-15206008D02*
X12123634Y-15196484D01*
X12276015Y-15377436D02*
X12285539Y-15386960D01*
X12285539Y-15386960D02*
X12276015Y-15396484D01*
X12276015Y-15396484D02*
X12266491Y-15386960D01*
X12266491Y-15386960D02*
X12276015Y-15377436D01*
X12276015Y-15377436D02*
X12276015Y-15396484D01*
X12409348Y-15196484D02*
X12428396Y-15196484D01*
X12428396Y-15196484D02*
X12447444Y-15206008D01*
X12447444Y-15206008D02*
X12456967Y-15215531D01*
X12456967Y-15215531D02*
X12466491Y-15234579D01*
X12466491Y-15234579D02*
X12476015Y-15272674D01*
X12476015Y-15272674D02*
X12476015Y-15320293D01*
X12476015Y-15320293D02*
X12466491Y-15358388D01*
X12466491Y-15358388D02*
X12456967Y-15377436D01*
X12456967Y-15377436D02*
X12447444Y-15386960D01*
X12447444Y-15386960D02*
X12428396Y-15396484D01*
X12428396Y-15396484D02*
X12409348Y-15396484D01*
X12409348Y-15396484D02*
X12390301Y-15386960D01*
X12390301Y-15386960D02*
X12380777Y-15377436D01*
X12380777Y-15377436D02*
X12371253Y-15358388D01*
X12371253Y-15358388D02*
X12361729Y-15320293D01*
X12361729Y-15320293D02*
X12361729Y-15272674D01*
X12361729Y-15272674D02*
X12371253Y-15234579D01*
X12371253Y-15234579D02*
X12380777Y-15215531D01*
X12380777Y-15215531D02*
X12390301Y-15206008D01*
X12390301Y-15206008D02*
X12409348Y-15196484D01*
X12599825Y-15196484D02*
X12618872Y-15196484D01*
X12618872Y-15196484D02*
X12637920Y-15206008D01*
X12637920Y-15206008D02*
X12647444Y-15215531D01*
X12647444Y-15215531D02*
X12656967Y-15234579D01*
X12656967Y-15234579D02*
X12666491Y-15272674D01*
X12666491Y-15272674D02*
X12666491Y-15320293D01*
X12666491Y-15320293D02*
X12656967Y-15358388D01*
X12656967Y-15358388D02*
X12647444Y-15377436D01*
X12647444Y-15377436D02*
X12637920Y-15386960D01*
X12637920Y-15386960D02*
X12618872Y-15396484D01*
X12618872Y-15396484D02*
X12599825Y-15396484D01*
X12599825Y-15396484D02*
X12580777Y-15386960D01*
X12580777Y-15386960D02*
X12571253Y-15377436D01*
X12571253Y-15377436D02*
X12561729Y-15358388D01*
X12561729Y-15358388D02*
X12552206Y-15320293D01*
X12552206Y-15320293D02*
X12552206Y-15272674D01*
X12552206Y-15272674D02*
X12561729Y-15234579D01*
X12561729Y-15234579D02*
X12571253Y-15215531D01*
X12571253Y-15215531D02*
X12580777Y-15206008D01*
X12580777Y-15206008D02*
X12599825Y-15196484D01*
X12733158Y-15196484D02*
X12866491Y-15196484D01*
X12866491Y-15196484D02*
X12780777Y-15396484D01*
X12952206Y-15396484D02*
X12990301Y-15396484D01*
X12990301Y-15396484D02*
X13009348Y-15386960D01*
X13009348Y-15386960D02*
X13018872Y-15377436D01*
X13018872Y-15377436D02*
X13037920Y-15348865D01*
X13037920Y-15348865D02*
X13047444Y-15310769D01*
X13047444Y-15310769D02*
X13047444Y-15234579D01*
X13047444Y-15234579D02*
X13037920Y-15215531D01*
X13037920Y-15215531D02*
X13028396Y-15206008D01*
X13028396Y-15206008D02*
X13009348Y-15196484D01*
X13009348Y-15196484D02*
X12971253Y-15196484D01*
X12971253Y-15196484D02*
X12952206Y-15206008D01*
X12952206Y-15206008D02*
X12942682Y-15215531D01*
X12942682Y-15215531D02*
X12933158Y-15234579D01*
X12933158Y-15234579D02*
X12933158Y-15282198D01*
X12933158Y-15282198D02*
X12942682Y-15301246D01*
X12942682Y-15301246D02*
X12952206Y-15310769D01*
X12952206Y-15310769D02*
X12971253Y-15320293D01*
X12971253Y-15320293D02*
X13009348Y-15320293D01*
X13009348Y-15320293D02*
X13028396Y-15310769D01*
X13028396Y-15310769D02*
X13037920Y-15301246D01*
X13037920Y-15301246D02*
X13047444Y-15282198D01*
X13123634Y-15196484D02*
X13123634Y-15234579D01*
X13199825Y-15196484D02*
X13199825Y-15234579D01*
X13495063Y-15472674D02*
X13485539Y-15463150D01*
X13485539Y-15463150D02*
X13466491Y-15434579D01*
X13466491Y-15434579D02*
X13456968Y-15415531D01*
X13456968Y-15415531D02*
X13447444Y-15386960D01*
X13447444Y-15386960D02*
X13437920Y-15339341D01*
X13437920Y-15339341D02*
X13437920Y-15301246D01*
X13437920Y-15301246D02*
X13447444Y-15253627D01*
X13447444Y-15253627D02*
X13456968Y-15225055D01*
X13456968Y-15225055D02*
X13466491Y-15206008D01*
X13466491Y-15206008D02*
X13485539Y-15177436D01*
X13485539Y-15177436D02*
X13495063Y-15167912D01*
X13676015Y-15396484D02*
X13561729Y-15396484D01*
X13618872Y-15396484D02*
X13618872Y-15196484D01*
X13618872Y-15196484D02*
X13599825Y-15225055D01*
X13599825Y-15225055D02*
X13580777Y-15244103D01*
X13580777Y-15244103D02*
X13561729Y-15253627D01*
X13752206Y-15215531D02*
X13761729Y-15206008D01*
X13761729Y-15206008D02*
X13780777Y-15196484D01*
X13780777Y-15196484D02*
X13828396Y-15196484D01*
X13828396Y-15196484D02*
X13847444Y-15206008D01*
X13847444Y-15206008D02*
X13856968Y-15215531D01*
X13856968Y-15215531D02*
X13866491Y-15234579D01*
X13866491Y-15234579D02*
X13866491Y-15253627D01*
X13866491Y-15253627D02*
X13856968Y-15282198D01*
X13856968Y-15282198D02*
X13742682Y-15396484D01*
X13742682Y-15396484D02*
X13866491Y-15396484D01*
X13942682Y-15215531D02*
X13952206Y-15206008D01*
X13952206Y-15206008D02*
X13971253Y-15196484D01*
X13971253Y-15196484D02*
X14018872Y-15196484D01*
X14018872Y-15196484D02*
X14037920Y-15206008D01*
X14037920Y-15206008D02*
X14047444Y-15215531D01*
X14047444Y-15215531D02*
X14056968Y-15234579D01*
X14056968Y-15234579D02*
X14056968Y-15253627D01*
X14056968Y-15253627D02*
X14047444Y-15282198D01*
X14047444Y-15282198D02*
X13933158Y-15396484D01*
X13933158Y-15396484D02*
X14056968Y-15396484D01*
X14295063Y-15396484D02*
X14295063Y-15196484D01*
X14380777Y-15396484D02*
X14380777Y-15291722D01*
X14380777Y-15291722D02*
X14371253Y-15272674D01*
X14371253Y-15272674D02*
X14352206Y-15263150D01*
X14352206Y-15263150D02*
X14323634Y-15263150D01*
X14323634Y-15263150D02*
X14304587Y-15272674D01*
X14304587Y-15272674D02*
X14295063Y-15282198D01*
X14504587Y-15396484D02*
X14485539Y-15386960D01*
X14485539Y-15386960D02*
X14476015Y-15377436D01*
X14476015Y-15377436D02*
X14466491Y-15358388D01*
X14466491Y-15358388D02*
X14466491Y-15301246D01*
X14466491Y-15301246D02*
X14476015Y-15282198D01*
X14476015Y-15282198D02*
X14485539Y-15272674D01*
X14485539Y-15272674D02*
X14504587Y-15263150D01*
X14504587Y-15263150D02*
X14533158Y-15263150D01*
X14533158Y-15263150D02*
X14552206Y-15272674D01*
X14552206Y-15272674D02*
X14561730Y-15282198D01*
X14561730Y-15282198D02*
X14571253Y-15301246D01*
X14571253Y-15301246D02*
X14571253Y-15358388D01*
X14571253Y-15358388D02*
X14561730Y-15377436D01*
X14561730Y-15377436D02*
X14552206Y-15386960D01*
X14552206Y-15386960D02*
X14533158Y-15396484D01*
X14533158Y-15396484D02*
X14504587Y-15396484D01*
X14685539Y-15396484D02*
X14666491Y-15386960D01*
X14666491Y-15386960D02*
X14656968Y-15367912D01*
X14656968Y-15367912D02*
X14656968Y-15196484D01*
X14837920Y-15386960D02*
X14818872Y-15396484D01*
X14818872Y-15396484D02*
X14780777Y-15396484D01*
X14780777Y-15396484D02*
X14761730Y-15386960D01*
X14761730Y-15386960D02*
X14752206Y-15367912D01*
X14752206Y-15367912D02*
X14752206Y-15291722D01*
X14752206Y-15291722D02*
X14761730Y-15272674D01*
X14761730Y-15272674D02*
X14780777Y-15263150D01*
X14780777Y-15263150D02*
X14818872Y-15263150D01*
X14818872Y-15263150D02*
X14837920Y-15272674D01*
X14837920Y-15272674D02*
X14847444Y-15291722D01*
X14847444Y-15291722D02*
X14847444Y-15310769D01*
X14847444Y-15310769D02*
X14752206Y-15329817D01*
X14923634Y-15386960D02*
X14942682Y-15396484D01*
X14942682Y-15396484D02*
X14980777Y-15396484D01*
X14980777Y-15396484D02*
X14999825Y-15386960D01*
X14999825Y-15386960D02*
X15009349Y-15367912D01*
X15009349Y-15367912D02*
X15009349Y-15358388D01*
X15009349Y-15358388D02*
X14999825Y-15339341D01*
X14999825Y-15339341D02*
X14980777Y-15329817D01*
X14980777Y-15329817D02*
X14952206Y-15329817D01*
X14952206Y-15329817D02*
X14933158Y-15320293D01*
X14933158Y-15320293D02*
X14923634Y-15301246D01*
X14923634Y-15301246D02*
X14923634Y-15291722D01*
X14923634Y-15291722D02*
X14933158Y-15272674D01*
X14933158Y-15272674D02*
X14952206Y-15263150D01*
X14952206Y-15263150D02*
X14980777Y-15263150D01*
X14980777Y-15263150D02*
X14999825Y-15272674D01*
X15076015Y-15472674D02*
X15085539Y-15463150D01*
X15085539Y-15463150D02*
X15104587Y-15434579D01*
X15104587Y-15434579D02*
X15114111Y-15415531D01*
X15114111Y-15415531D02*
X15123634Y-15386960D01*
X15123634Y-15386960D02*
X15133158Y-15339341D01*
X15133158Y-15339341D02*
X15133158Y-15301246D01*
X15133158Y-15301246D02*
X15123634Y-15253627D01*
X15123634Y-15253627D02*
X15114111Y-15225055D01*
X15114111Y-15225055D02*
X15104587Y-15206008D01*
X15104587Y-15206008D02*
X15085539Y-15177436D01*
X15085539Y-15177436D02*
X15076015Y-15167912D01*
D10*
X9920000Y-15569000D02*
G75*
G02*
X9890000Y-15569000I-15000J0D01*
G01*
X9890000Y-15569000D02*
G75*
G02*
X9920000Y-15569000I15000J0D01*
G01*
D11*
X10218872Y-15460484D02*
X10237920Y-15460484D01*
X10237920Y-15460484D02*
X10256967Y-15470008D01*
X10256967Y-15470008D02*
X10266491Y-15479531D01*
X10266491Y-15479531D02*
X10276015Y-15498579D01*
X10276015Y-15498579D02*
X10285539Y-15536674D01*
X10285539Y-15536674D02*
X10285539Y-15584293D01*
X10285539Y-15584293D02*
X10276015Y-15622388D01*
X10276015Y-15622388D02*
X10266491Y-15641436D01*
X10266491Y-15641436D02*
X10256967Y-15650960D01*
X10256967Y-15650960D02*
X10237920Y-15660484D01*
X10237920Y-15660484D02*
X10218872Y-15660484D01*
X10218872Y-15660484D02*
X10199824Y-15650960D01*
X10199824Y-15650960D02*
X10190301Y-15641436D01*
X10190301Y-15641436D02*
X10180777Y-15622388D01*
X10180777Y-15622388D02*
X10171253Y-15584293D01*
X10171253Y-15584293D02*
X10171253Y-15536674D01*
X10171253Y-15536674D02*
X10180777Y-15498579D01*
X10180777Y-15498579D02*
X10190301Y-15479531D01*
X10190301Y-15479531D02*
X10199824Y-15470008D01*
X10199824Y-15470008D02*
X10218872Y-15460484D01*
X10371253Y-15641436D02*
X10380777Y-15650960D01*
X10380777Y-15650960D02*
X10371253Y-15660484D01*
X10371253Y-15660484D02*
X10361729Y-15650960D01*
X10361729Y-15650960D02*
X10371253Y-15641436D01*
X10371253Y-15641436D02*
X10371253Y-15660484D01*
X10447444Y-15460484D02*
X10571253Y-15460484D01*
X10571253Y-15460484D02*
X10504586Y-15536674D01*
X10504586Y-15536674D02*
X10533158Y-15536674D01*
X10533158Y-15536674D02*
X10552205Y-15546198D01*
X10552205Y-15546198D02*
X10561729Y-15555722D01*
X10561729Y-15555722D02*
X10571253Y-15574769D01*
X10571253Y-15574769D02*
X10571253Y-15622388D01*
X10571253Y-15622388D02*
X10561729Y-15641436D01*
X10561729Y-15641436D02*
X10552205Y-15650960D01*
X10552205Y-15650960D02*
X10533158Y-15660484D01*
X10533158Y-15660484D02*
X10476015Y-15660484D01*
X10476015Y-15660484D02*
X10456967Y-15650960D01*
X10456967Y-15650960D02*
X10447444Y-15641436D01*
X10695063Y-15460484D02*
X10714110Y-15460484D01*
X10714110Y-15460484D02*
X10733158Y-15470008D01*
X10733158Y-15470008D02*
X10742682Y-15479531D01*
X10742682Y-15479531D02*
X10752205Y-15498579D01*
X10752205Y-15498579D02*
X10761729Y-15536674D01*
X10761729Y-15536674D02*
X10761729Y-15584293D01*
X10761729Y-15584293D02*
X10752205Y-15622388D01*
X10752205Y-15622388D02*
X10742682Y-15641436D01*
X10742682Y-15641436D02*
X10733158Y-15650960D01*
X10733158Y-15650960D02*
X10714110Y-15660484D01*
X10714110Y-15660484D02*
X10695063Y-15660484D01*
X10695063Y-15660484D02*
X10676015Y-15650960D01*
X10676015Y-15650960D02*
X10666491Y-15641436D01*
X10666491Y-15641436D02*
X10656967Y-15622388D01*
X10656967Y-15622388D02*
X10647444Y-15584293D01*
X10647444Y-15584293D02*
X10647444Y-15536674D01*
X10647444Y-15536674D02*
X10656967Y-15498579D01*
X10656967Y-15498579D02*
X10666491Y-15479531D01*
X10666491Y-15479531D02*
X10676015Y-15470008D01*
X10676015Y-15470008D02*
X10695063Y-15460484D01*
X10885539Y-15460484D02*
X10904586Y-15460484D01*
X10904586Y-15460484D02*
X10923634Y-15470008D01*
X10923634Y-15470008D02*
X10933158Y-15479531D01*
X10933158Y-15479531D02*
X10942682Y-15498579D01*
X10942682Y-15498579D02*
X10952205Y-15536674D01*
X10952205Y-15536674D02*
X10952205Y-15584293D01*
X10952205Y-15584293D02*
X10942682Y-15622388D01*
X10942682Y-15622388D02*
X10933158Y-15641436D01*
X10933158Y-15641436D02*
X10923634Y-15650960D01*
X10923634Y-15650960D02*
X10904586Y-15660484D01*
X10904586Y-15660484D02*
X10885539Y-15660484D01*
X10885539Y-15660484D02*
X10866491Y-15650960D01*
X10866491Y-15650960D02*
X10856967Y-15641436D01*
X10856967Y-15641436D02*
X10847444Y-15622388D01*
X10847444Y-15622388D02*
X10837920Y-15584293D01*
X10837920Y-15584293D02*
X10837920Y-15536674D01*
X10837920Y-15536674D02*
X10847444Y-15498579D01*
X10847444Y-15498579D02*
X10856967Y-15479531D01*
X10856967Y-15479531D02*
X10866491Y-15470008D01*
X10866491Y-15470008D02*
X10885539Y-15460484D01*
X11037920Y-15660484D02*
X11037920Y-15527150D01*
X11037920Y-15546198D02*
X11047444Y-15536674D01*
X11047444Y-15536674D02*
X11066491Y-15527150D01*
X11066491Y-15527150D02*
X11095063Y-15527150D01*
X11095063Y-15527150D02*
X11114110Y-15536674D01*
X11114110Y-15536674D02*
X11123634Y-15555722D01*
X11123634Y-15555722D02*
X11123634Y-15660484D01*
X11123634Y-15555722D02*
X11133158Y-15536674D01*
X11133158Y-15536674D02*
X11152205Y-15527150D01*
X11152205Y-15527150D02*
X11180777Y-15527150D01*
X11180777Y-15527150D02*
X11199824Y-15536674D01*
X11199824Y-15536674D02*
X11209348Y-15555722D01*
X11209348Y-15555722D02*
X11209348Y-15660484D01*
X11304586Y-15660484D02*
X11304586Y-15527150D01*
X11304586Y-15546198D02*
X11314110Y-15536674D01*
X11314110Y-15536674D02*
X11333158Y-15527150D01*
X11333158Y-15527150D02*
X11361729Y-15527150D01*
X11361729Y-15527150D02*
X11380777Y-15536674D01*
X11380777Y-15536674D02*
X11390301Y-15555722D01*
X11390301Y-15555722D02*
X11390301Y-15660484D01*
X11390301Y-15555722D02*
X11399824Y-15536674D01*
X11399824Y-15536674D02*
X11418872Y-15527150D01*
X11418872Y-15527150D02*
X11447443Y-15527150D01*
X11447443Y-15527150D02*
X11466491Y-15536674D01*
X11466491Y-15536674D02*
X11476015Y-15555722D01*
X11476015Y-15555722D02*
X11476015Y-15660484D01*
X11866491Y-15450960D02*
X11695063Y-15708103D01*
X12123634Y-15460484D02*
X12142682Y-15460484D01*
X12142682Y-15460484D02*
X12161729Y-15470008D01*
X12161729Y-15470008D02*
X12171253Y-15479531D01*
X12171253Y-15479531D02*
X12180777Y-15498579D01*
X12180777Y-15498579D02*
X12190301Y-15536674D01*
X12190301Y-15536674D02*
X12190301Y-15584293D01*
X12190301Y-15584293D02*
X12180777Y-15622388D01*
X12180777Y-15622388D02*
X12171253Y-15641436D01*
X12171253Y-15641436D02*
X12161729Y-15650960D01*
X12161729Y-15650960D02*
X12142682Y-15660484D01*
X12142682Y-15660484D02*
X12123634Y-15660484D01*
X12123634Y-15660484D02*
X12104586Y-15650960D01*
X12104586Y-15650960D02*
X12095063Y-15641436D01*
X12095063Y-15641436D02*
X12085539Y-15622388D01*
X12085539Y-15622388D02*
X12076015Y-15584293D01*
X12076015Y-15584293D02*
X12076015Y-15536674D01*
X12076015Y-15536674D02*
X12085539Y-15498579D01*
X12085539Y-15498579D02*
X12095063Y-15479531D01*
X12095063Y-15479531D02*
X12104586Y-15470008D01*
X12104586Y-15470008D02*
X12123634Y-15460484D01*
X12276015Y-15641436D02*
X12285539Y-15650960D01*
X12285539Y-15650960D02*
X12276015Y-15660484D01*
X12276015Y-15660484D02*
X12266491Y-15650960D01*
X12266491Y-15650960D02*
X12276015Y-15641436D01*
X12276015Y-15641436D02*
X12276015Y-15660484D01*
X12409348Y-15460484D02*
X12428396Y-15460484D01*
X12428396Y-15460484D02*
X12447444Y-15470008D01*
X12447444Y-15470008D02*
X12456967Y-15479531D01*
X12456967Y-15479531D02*
X12466491Y-15498579D01*
X12466491Y-15498579D02*
X12476015Y-15536674D01*
X12476015Y-15536674D02*
X12476015Y-15584293D01*
X12476015Y-15584293D02*
X12466491Y-15622388D01*
X12466491Y-15622388D02*
X12456967Y-15641436D01*
X12456967Y-15641436D02*
X12447444Y-15650960D01*
X12447444Y-15650960D02*
X12428396Y-15660484D01*
X12428396Y-15660484D02*
X12409348Y-15660484D01*
X12409348Y-15660484D02*
X12390301Y-15650960D01*
X12390301Y-15650960D02*
X12380777Y-15641436D01*
X12380777Y-15641436D02*
X12371253Y-15622388D01*
X12371253Y-15622388D02*
X12361729Y-15584293D01*
X12361729Y-15584293D02*
X12361729Y-15536674D01*
X12361729Y-15536674D02*
X12371253Y-15498579D01*
X12371253Y-15498579D02*
X12380777Y-15479531D01*
X12380777Y-15479531D02*
X12390301Y-15470008D01*
X12390301Y-15470008D02*
X12409348Y-15460484D01*
X12666491Y-15660484D02*
X12552206Y-15660484D01*
X12609348Y-15660484D02*
X12609348Y-15460484D01*
X12609348Y-15460484D02*
X12590301Y-15489055D01*
X12590301Y-15489055D02*
X12571253Y-15508103D01*
X12571253Y-15508103D02*
X12552206Y-15517627D01*
X12856967Y-15660484D02*
X12742682Y-15660484D01*
X12799825Y-15660484D02*
X12799825Y-15460484D01*
X12799825Y-15460484D02*
X12780777Y-15489055D01*
X12780777Y-15489055D02*
X12761729Y-15508103D01*
X12761729Y-15508103D02*
X12742682Y-15517627D01*
X12971253Y-15546198D02*
X12952206Y-15536674D01*
X12952206Y-15536674D02*
X12942682Y-15527150D01*
X12942682Y-15527150D02*
X12933158Y-15508103D01*
X12933158Y-15508103D02*
X12933158Y-15498579D01*
X12933158Y-15498579D02*
X12942682Y-15479531D01*
X12942682Y-15479531D02*
X12952206Y-15470008D01*
X12952206Y-15470008D02*
X12971253Y-15460484D01*
X12971253Y-15460484D02*
X13009348Y-15460484D01*
X13009348Y-15460484D02*
X13028396Y-15470008D01*
X13028396Y-15470008D02*
X13037920Y-15479531D01*
X13037920Y-15479531D02*
X13047444Y-15498579D01*
X13047444Y-15498579D02*
X13047444Y-15508103D01*
X13047444Y-15508103D02*
X13037920Y-15527150D01*
X13037920Y-15527150D02*
X13028396Y-15536674D01*
X13028396Y-15536674D02*
X13009348Y-15546198D01*
X13009348Y-15546198D02*
X12971253Y-15546198D01*
X12971253Y-15546198D02*
X12952206Y-15555722D01*
X12952206Y-15555722D02*
X12942682Y-15565246D01*
X12942682Y-15565246D02*
X12933158Y-15584293D01*
X12933158Y-15584293D02*
X12933158Y-15622388D01*
X12933158Y-15622388D02*
X12942682Y-15641436D01*
X12942682Y-15641436D02*
X12952206Y-15650960D01*
X12952206Y-15650960D02*
X12971253Y-15660484D01*
X12971253Y-15660484D02*
X13009348Y-15660484D01*
X13009348Y-15660484D02*
X13028396Y-15650960D01*
X13028396Y-15650960D02*
X13037920Y-15641436D01*
X13037920Y-15641436D02*
X13047444Y-15622388D01*
X13047444Y-15622388D02*
X13047444Y-15584293D01*
X13047444Y-15584293D02*
X13037920Y-15565246D01*
X13037920Y-15565246D02*
X13028396Y-15555722D01*
X13028396Y-15555722D02*
X13009348Y-15546198D01*
X13123634Y-15460484D02*
X13123634Y-15498579D01*
X13199825Y-15460484D02*
X13199825Y-15498579D01*
X13495063Y-15736674D02*
X13485539Y-15727150D01*
X13485539Y-15727150D02*
X13466491Y-15698579D01*
X13466491Y-15698579D02*
X13456968Y-15679531D01*
X13456968Y-15679531D02*
X13447444Y-15650960D01*
X13447444Y-15650960D02*
X13437920Y-15603341D01*
X13437920Y-15603341D02*
X13437920Y-15565246D01*
X13437920Y-15565246D02*
X13447444Y-15517627D01*
X13447444Y-15517627D02*
X13456968Y-15489055D01*
X13456968Y-15489055D02*
X13466491Y-15470008D01*
X13466491Y-15470008D02*
X13485539Y-15441436D01*
X13485539Y-15441436D02*
X13495063Y-15431912D01*
X13552206Y-15460484D02*
X13676015Y-15460484D01*
X13676015Y-15460484D02*
X13609348Y-15536674D01*
X13609348Y-15536674D02*
X13637920Y-15536674D01*
X13637920Y-15536674D02*
X13656968Y-15546198D01*
X13656968Y-15546198D02*
X13666491Y-15555722D01*
X13666491Y-15555722D02*
X13676015Y-15574769D01*
X13676015Y-15574769D02*
X13676015Y-15622388D01*
X13676015Y-15622388D02*
X13666491Y-15641436D01*
X13666491Y-15641436D02*
X13656968Y-15650960D01*
X13656968Y-15650960D02*
X13637920Y-15660484D01*
X13637920Y-15660484D02*
X13580777Y-15660484D01*
X13580777Y-15660484D02*
X13561729Y-15650960D01*
X13561729Y-15650960D02*
X13552206Y-15641436D01*
X13742682Y-15460484D02*
X13866491Y-15460484D01*
X13866491Y-15460484D02*
X13799825Y-15536674D01*
X13799825Y-15536674D02*
X13828396Y-15536674D01*
X13828396Y-15536674D02*
X13847444Y-15546198D01*
X13847444Y-15546198D02*
X13856968Y-15555722D01*
X13856968Y-15555722D02*
X13866491Y-15574769D01*
X13866491Y-15574769D02*
X13866491Y-15622388D01*
X13866491Y-15622388D02*
X13856968Y-15641436D01*
X13856968Y-15641436D02*
X13847444Y-15650960D01*
X13847444Y-15650960D02*
X13828396Y-15660484D01*
X13828396Y-15660484D02*
X13771253Y-15660484D01*
X13771253Y-15660484D02*
X13752206Y-15650960D01*
X13752206Y-15650960D02*
X13742682Y-15641436D01*
X14037920Y-15460484D02*
X13999825Y-15460484D01*
X13999825Y-15460484D02*
X13980777Y-15470008D01*
X13980777Y-15470008D02*
X13971253Y-15479531D01*
X13971253Y-15479531D02*
X13952206Y-15508103D01*
X13952206Y-15508103D02*
X13942682Y-15546198D01*
X13942682Y-15546198D02*
X13942682Y-15622388D01*
X13942682Y-15622388D02*
X13952206Y-15641436D01*
X13952206Y-15641436D02*
X13961729Y-15650960D01*
X13961729Y-15650960D02*
X13980777Y-15660484D01*
X13980777Y-15660484D02*
X14018872Y-15660484D01*
X14018872Y-15660484D02*
X14037920Y-15650960D01*
X14037920Y-15650960D02*
X14047444Y-15641436D01*
X14047444Y-15641436D02*
X14056968Y-15622388D01*
X14056968Y-15622388D02*
X14056968Y-15574769D01*
X14056968Y-15574769D02*
X14047444Y-15555722D01*
X14047444Y-15555722D02*
X14037920Y-15546198D01*
X14037920Y-15546198D02*
X14018872Y-15536674D01*
X14018872Y-15536674D02*
X13980777Y-15536674D01*
X13980777Y-15536674D02*
X13961729Y-15546198D01*
X13961729Y-15546198D02*
X13952206Y-15555722D01*
X13952206Y-15555722D02*
X13942682Y-15574769D01*
X14295063Y-15660484D02*
X14295063Y-15460484D01*
X14380777Y-15660484D02*
X14380777Y-15555722D01*
X14380777Y-15555722D02*
X14371253Y-15536674D01*
X14371253Y-15536674D02*
X14352206Y-15527150D01*
X14352206Y-15527150D02*
X14323634Y-15527150D01*
X14323634Y-15527150D02*
X14304587Y-15536674D01*
X14304587Y-15536674D02*
X14295063Y-15546198D01*
X14504587Y-15660484D02*
X14485539Y-15650960D01*
X14485539Y-15650960D02*
X14476015Y-15641436D01*
X14476015Y-15641436D02*
X14466491Y-15622388D01*
X14466491Y-15622388D02*
X14466491Y-15565246D01*
X14466491Y-15565246D02*
X14476015Y-15546198D01*
X14476015Y-15546198D02*
X14485539Y-15536674D01*
X14485539Y-15536674D02*
X14504587Y-15527150D01*
X14504587Y-15527150D02*
X14533158Y-15527150D01*
X14533158Y-15527150D02*
X14552206Y-15536674D01*
X14552206Y-15536674D02*
X14561730Y-15546198D01*
X14561730Y-15546198D02*
X14571253Y-15565246D01*
X14571253Y-15565246D02*
X14571253Y-15622388D01*
X14571253Y-15622388D02*
X14561730Y-15641436D01*
X14561730Y-15641436D02*
X14552206Y-15650960D01*
X14552206Y-15650960D02*
X14533158Y-15660484D01*
X14533158Y-15660484D02*
X14504587Y-15660484D01*
X14685539Y-15660484D02*
X14666491Y-15650960D01*
X14666491Y-15650960D02*
X14656968Y-15631912D01*
X14656968Y-15631912D02*
X14656968Y-15460484D01*
X14837920Y-15650960D02*
X14818872Y-15660484D01*
X14818872Y-15660484D02*
X14780777Y-15660484D01*
X14780777Y-15660484D02*
X14761730Y-15650960D01*
X14761730Y-15650960D02*
X14752206Y-15631912D01*
X14752206Y-15631912D02*
X14752206Y-15555722D01*
X14752206Y-15555722D02*
X14761730Y-15536674D01*
X14761730Y-15536674D02*
X14780777Y-15527150D01*
X14780777Y-15527150D02*
X14818872Y-15527150D01*
X14818872Y-15527150D02*
X14837920Y-15536674D01*
X14837920Y-15536674D02*
X14847444Y-15555722D01*
X14847444Y-15555722D02*
X14847444Y-15574769D01*
X14847444Y-15574769D02*
X14752206Y-15593817D01*
X14923634Y-15650960D02*
X14942682Y-15660484D01*
X14942682Y-15660484D02*
X14980777Y-15660484D01*
X14980777Y-15660484D02*
X14999825Y-15650960D01*
X14999825Y-15650960D02*
X15009349Y-15631912D01*
X15009349Y-15631912D02*
X15009349Y-15622388D01*
X15009349Y-15622388D02*
X14999825Y-15603341D01*
X14999825Y-15603341D02*
X14980777Y-15593817D01*
X14980777Y-15593817D02*
X14952206Y-15593817D01*
X14952206Y-15593817D02*
X14933158Y-15584293D01*
X14933158Y-15584293D02*
X14923634Y-15565246D01*
X14923634Y-15565246D02*
X14923634Y-15555722D01*
X14923634Y-15555722D02*
X14933158Y-15536674D01*
X14933158Y-15536674D02*
X14952206Y-15527150D01*
X14952206Y-15527150D02*
X14980777Y-15527150D01*
X14980777Y-15527150D02*
X14999825Y-15536674D01*
X15076015Y-15736674D02*
X15085539Y-15727150D01*
X15085539Y-15727150D02*
X15104587Y-15698579D01*
X15104587Y-15698579D02*
X15114111Y-15679531D01*
X15114111Y-15679531D02*
X15123634Y-15650960D01*
X15123634Y-15650960D02*
X15133158Y-15603341D01*
X15133158Y-15603341D02*
X15133158Y-15565246D01*
X15133158Y-15565246D02*
X15123634Y-15517627D01*
X15123634Y-15517627D02*
X15114111Y-15489055D01*
X15114111Y-15489055D02*
X15104587Y-15470008D01*
X15104587Y-15470008D02*
X15085539Y-15441436D01*
X15085539Y-15441436D02*
X15076015Y-15431912D01*
D10*
X9890000Y-15803000D02*
X9890000Y-15863000D01*
X9860000Y-15833000D02*
X9920000Y-15833000D01*
D11*
X10218872Y-15724484D02*
X10237920Y-15724484D01*
X10237920Y-15724484D02*
X10256967Y-15734008D01*
X10256967Y-15734008D02*
X10266491Y-15743531D01*
X10266491Y-15743531D02*
X10276015Y-15762579D01*
X10276015Y-15762579D02*
X10285539Y-15800674D01*
X10285539Y-15800674D02*
X10285539Y-15848293D01*
X10285539Y-15848293D02*
X10276015Y-15886388D01*
X10276015Y-15886388D02*
X10266491Y-15905436D01*
X10266491Y-15905436D02*
X10256967Y-15914960D01*
X10256967Y-15914960D02*
X10237920Y-15924484D01*
X10237920Y-15924484D02*
X10218872Y-15924484D01*
X10218872Y-15924484D02*
X10199824Y-15914960D01*
X10199824Y-15914960D02*
X10190301Y-15905436D01*
X10190301Y-15905436D02*
X10180777Y-15886388D01*
X10180777Y-15886388D02*
X10171253Y-15848293D01*
X10171253Y-15848293D02*
X10171253Y-15800674D01*
X10171253Y-15800674D02*
X10180777Y-15762579D01*
X10180777Y-15762579D02*
X10190301Y-15743531D01*
X10190301Y-15743531D02*
X10199824Y-15734008D01*
X10199824Y-15734008D02*
X10218872Y-15724484D01*
X10371253Y-15905436D02*
X10380777Y-15914960D01*
X10380777Y-15914960D02*
X10371253Y-15924484D01*
X10371253Y-15924484D02*
X10361729Y-15914960D01*
X10361729Y-15914960D02*
X10371253Y-15905436D01*
X10371253Y-15905436D02*
X10371253Y-15924484D01*
X10552205Y-15724484D02*
X10514110Y-15724484D01*
X10514110Y-15724484D02*
X10495063Y-15734008D01*
X10495063Y-15734008D02*
X10485539Y-15743531D01*
X10485539Y-15743531D02*
X10466491Y-15772103D01*
X10466491Y-15772103D02*
X10456967Y-15810198D01*
X10456967Y-15810198D02*
X10456967Y-15886388D01*
X10456967Y-15886388D02*
X10466491Y-15905436D01*
X10466491Y-15905436D02*
X10476015Y-15914960D01*
X10476015Y-15914960D02*
X10495063Y-15924484D01*
X10495063Y-15924484D02*
X10533158Y-15924484D01*
X10533158Y-15924484D02*
X10552205Y-15914960D01*
X10552205Y-15914960D02*
X10561729Y-15905436D01*
X10561729Y-15905436D02*
X10571253Y-15886388D01*
X10571253Y-15886388D02*
X10571253Y-15838769D01*
X10571253Y-15838769D02*
X10561729Y-15819722D01*
X10561729Y-15819722D02*
X10552205Y-15810198D01*
X10552205Y-15810198D02*
X10533158Y-15800674D01*
X10533158Y-15800674D02*
X10495063Y-15800674D01*
X10495063Y-15800674D02*
X10476015Y-15810198D01*
X10476015Y-15810198D02*
X10466491Y-15819722D01*
X10466491Y-15819722D02*
X10456967Y-15838769D01*
X10695063Y-15724484D02*
X10714110Y-15724484D01*
X10714110Y-15724484D02*
X10733158Y-15734008D01*
X10733158Y-15734008D02*
X10742682Y-15743531D01*
X10742682Y-15743531D02*
X10752205Y-15762579D01*
X10752205Y-15762579D02*
X10761729Y-15800674D01*
X10761729Y-15800674D02*
X10761729Y-15848293D01*
X10761729Y-15848293D02*
X10752205Y-15886388D01*
X10752205Y-15886388D02*
X10742682Y-15905436D01*
X10742682Y-15905436D02*
X10733158Y-15914960D01*
X10733158Y-15914960D02*
X10714110Y-15924484D01*
X10714110Y-15924484D02*
X10695063Y-15924484D01*
X10695063Y-15924484D02*
X10676015Y-15914960D01*
X10676015Y-15914960D02*
X10666491Y-15905436D01*
X10666491Y-15905436D02*
X10656967Y-15886388D01*
X10656967Y-15886388D02*
X10647444Y-15848293D01*
X10647444Y-15848293D02*
X10647444Y-15800674D01*
X10647444Y-15800674D02*
X10656967Y-15762579D01*
X10656967Y-15762579D02*
X10666491Y-15743531D01*
X10666491Y-15743531D02*
X10676015Y-15734008D01*
X10676015Y-15734008D02*
X10695063Y-15724484D01*
X10885539Y-15724484D02*
X10904586Y-15724484D01*
X10904586Y-15724484D02*
X10923634Y-15734008D01*
X10923634Y-15734008D02*
X10933158Y-15743531D01*
X10933158Y-15743531D02*
X10942682Y-15762579D01*
X10942682Y-15762579D02*
X10952205Y-15800674D01*
X10952205Y-15800674D02*
X10952205Y-15848293D01*
X10952205Y-15848293D02*
X10942682Y-15886388D01*
X10942682Y-15886388D02*
X10933158Y-15905436D01*
X10933158Y-15905436D02*
X10923634Y-15914960D01*
X10923634Y-15914960D02*
X10904586Y-15924484D01*
X10904586Y-15924484D02*
X10885539Y-15924484D01*
X10885539Y-15924484D02*
X10866491Y-15914960D01*
X10866491Y-15914960D02*
X10856967Y-15905436D01*
X10856967Y-15905436D02*
X10847444Y-15886388D01*
X10847444Y-15886388D02*
X10837920Y-15848293D01*
X10837920Y-15848293D02*
X10837920Y-15800674D01*
X10837920Y-15800674D02*
X10847444Y-15762579D01*
X10847444Y-15762579D02*
X10856967Y-15743531D01*
X10856967Y-15743531D02*
X10866491Y-15734008D01*
X10866491Y-15734008D02*
X10885539Y-15724484D01*
X11037920Y-15924484D02*
X11037920Y-15791150D01*
X11037920Y-15810198D02*
X11047444Y-15800674D01*
X11047444Y-15800674D02*
X11066491Y-15791150D01*
X11066491Y-15791150D02*
X11095063Y-15791150D01*
X11095063Y-15791150D02*
X11114110Y-15800674D01*
X11114110Y-15800674D02*
X11123634Y-15819722D01*
X11123634Y-15819722D02*
X11123634Y-15924484D01*
X11123634Y-15819722D02*
X11133158Y-15800674D01*
X11133158Y-15800674D02*
X11152205Y-15791150D01*
X11152205Y-15791150D02*
X11180777Y-15791150D01*
X11180777Y-15791150D02*
X11199824Y-15800674D01*
X11199824Y-15800674D02*
X11209348Y-15819722D01*
X11209348Y-15819722D02*
X11209348Y-15924484D01*
X11304586Y-15924484D02*
X11304586Y-15791150D01*
X11304586Y-15810198D02*
X11314110Y-15800674D01*
X11314110Y-15800674D02*
X11333158Y-15791150D01*
X11333158Y-15791150D02*
X11361729Y-15791150D01*
X11361729Y-15791150D02*
X11380777Y-15800674D01*
X11380777Y-15800674D02*
X11390301Y-15819722D01*
X11390301Y-15819722D02*
X11390301Y-15924484D01*
X11390301Y-15819722D02*
X11399824Y-15800674D01*
X11399824Y-15800674D02*
X11418872Y-15791150D01*
X11418872Y-15791150D02*
X11447443Y-15791150D01*
X11447443Y-15791150D02*
X11466491Y-15800674D01*
X11466491Y-15800674D02*
X11476015Y-15819722D01*
X11476015Y-15819722D02*
X11476015Y-15924484D01*
X11866491Y-15714960D02*
X11695063Y-15972103D01*
X12123634Y-15724484D02*
X12142682Y-15724484D01*
X12142682Y-15724484D02*
X12161729Y-15734008D01*
X12161729Y-15734008D02*
X12171253Y-15743531D01*
X12171253Y-15743531D02*
X12180777Y-15762579D01*
X12180777Y-15762579D02*
X12190301Y-15800674D01*
X12190301Y-15800674D02*
X12190301Y-15848293D01*
X12190301Y-15848293D02*
X12180777Y-15886388D01*
X12180777Y-15886388D02*
X12171253Y-15905436D01*
X12171253Y-15905436D02*
X12161729Y-15914960D01*
X12161729Y-15914960D02*
X12142682Y-15924484D01*
X12142682Y-15924484D02*
X12123634Y-15924484D01*
X12123634Y-15924484D02*
X12104586Y-15914960D01*
X12104586Y-15914960D02*
X12095063Y-15905436D01*
X12095063Y-15905436D02*
X12085539Y-15886388D01*
X12085539Y-15886388D02*
X12076015Y-15848293D01*
X12076015Y-15848293D02*
X12076015Y-15800674D01*
X12076015Y-15800674D02*
X12085539Y-15762579D01*
X12085539Y-15762579D02*
X12095063Y-15743531D01*
X12095063Y-15743531D02*
X12104586Y-15734008D01*
X12104586Y-15734008D02*
X12123634Y-15724484D01*
X12276015Y-15905436D02*
X12285539Y-15914960D01*
X12285539Y-15914960D02*
X12276015Y-15924484D01*
X12276015Y-15924484D02*
X12266491Y-15914960D01*
X12266491Y-15914960D02*
X12276015Y-15905436D01*
X12276015Y-15905436D02*
X12276015Y-15924484D01*
X12409348Y-15724484D02*
X12428396Y-15724484D01*
X12428396Y-15724484D02*
X12447444Y-15734008D01*
X12447444Y-15734008D02*
X12456967Y-15743531D01*
X12456967Y-15743531D02*
X12466491Y-15762579D01*
X12466491Y-15762579D02*
X12476015Y-15800674D01*
X12476015Y-15800674D02*
X12476015Y-15848293D01*
X12476015Y-15848293D02*
X12466491Y-15886388D01*
X12466491Y-15886388D02*
X12456967Y-15905436D01*
X12456967Y-15905436D02*
X12447444Y-15914960D01*
X12447444Y-15914960D02*
X12428396Y-15924484D01*
X12428396Y-15924484D02*
X12409348Y-15924484D01*
X12409348Y-15924484D02*
X12390301Y-15914960D01*
X12390301Y-15914960D02*
X12380777Y-15905436D01*
X12380777Y-15905436D02*
X12371253Y-15886388D01*
X12371253Y-15886388D02*
X12361729Y-15848293D01*
X12361729Y-15848293D02*
X12361729Y-15800674D01*
X12361729Y-15800674D02*
X12371253Y-15762579D01*
X12371253Y-15762579D02*
X12380777Y-15743531D01*
X12380777Y-15743531D02*
X12390301Y-15734008D01*
X12390301Y-15734008D02*
X12409348Y-15724484D01*
X12552206Y-15743531D02*
X12561729Y-15734008D01*
X12561729Y-15734008D02*
X12580777Y-15724484D01*
X12580777Y-15724484D02*
X12628396Y-15724484D01*
X12628396Y-15724484D02*
X12647444Y-15734008D01*
X12647444Y-15734008D02*
X12656967Y-15743531D01*
X12656967Y-15743531D02*
X12666491Y-15762579D01*
X12666491Y-15762579D02*
X12666491Y-15781627D01*
X12666491Y-15781627D02*
X12656967Y-15810198D01*
X12656967Y-15810198D02*
X12542682Y-15924484D01*
X12542682Y-15924484D02*
X12666491Y-15924484D01*
X12733158Y-15724484D02*
X12856967Y-15724484D01*
X12856967Y-15724484D02*
X12790301Y-15800674D01*
X12790301Y-15800674D02*
X12818872Y-15800674D01*
X12818872Y-15800674D02*
X12837920Y-15810198D01*
X12837920Y-15810198D02*
X12847444Y-15819722D01*
X12847444Y-15819722D02*
X12856967Y-15838769D01*
X12856967Y-15838769D02*
X12856967Y-15886388D01*
X12856967Y-15886388D02*
X12847444Y-15905436D01*
X12847444Y-15905436D02*
X12837920Y-15914960D01*
X12837920Y-15914960D02*
X12818872Y-15924484D01*
X12818872Y-15924484D02*
X12761729Y-15924484D01*
X12761729Y-15924484D02*
X12742682Y-15914960D01*
X12742682Y-15914960D02*
X12733158Y-15905436D01*
X13028396Y-15724484D02*
X12990301Y-15724484D01*
X12990301Y-15724484D02*
X12971253Y-15734008D01*
X12971253Y-15734008D02*
X12961729Y-15743531D01*
X12961729Y-15743531D02*
X12942682Y-15772103D01*
X12942682Y-15772103D02*
X12933158Y-15810198D01*
X12933158Y-15810198D02*
X12933158Y-15886388D01*
X12933158Y-15886388D02*
X12942682Y-15905436D01*
X12942682Y-15905436D02*
X12952206Y-15914960D01*
X12952206Y-15914960D02*
X12971253Y-15924484D01*
X12971253Y-15924484D02*
X13009348Y-15924484D01*
X13009348Y-15924484D02*
X13028396Y-15914960D01*
X13028396Y-15914960D02*
X13037920Y-15905436D01*
X13037920Y-15905436D02*
X13047444Y-15886388D01*
X13047444Y-15886388D02*
X13047444Y-15838769D01*
X13047444Y-15838769D02*
X13037920Y-15819722D01*
X13037920Y-15819722D02*
X13028396Y-15810198D01*
X13028396Y-15810198D02*
X13009348Y-15800674D01*
X13009348Y-15800674D02*
X12971253Y-15800674D01*
X12971253Y-15800674D02*
X12952206Y-15810198D01*
X12952206Y-15810198D02*
X12942682Y-15819722D01*
X12942682Y-15819722D02*
X12933158Y-15838769D01*
X13123634Y-15724484D02*
X13123634Y-15762579D01*
X13199825Y-15724484D02*
X13199825Y-15762579D01*
X13495063Y-16000674D02*
X13485539Y-15991150D01*
X13485539Y-15991150D02*
X13466491Y-15962579D01*
X13466491Y-15962579D02*
X13456968Y-15943531D01*
X13456968Y-15943531D02*
X13447444Y-15914960D01*
X13447444Y-15914960D02*
X13437920Y-15867341D01*
X13437920Y-15867341D02*
X13437920Y-15829246D01*
X13437920Y-15829246D02*
X13447444Y-15781627D01*
X13447444Y-15781627D02*
X13456968Y-15753055D01*
X13456968Y-15753055D02*
X13466491Y-15734008D01*
X13466491Y-15734008D02*
X13485539Y-15705436D01*
X13485539Y-15705436D02*
X13495063Y-15695912D01*
X13609348Y-15724484D02*
X13628396Y-15724484D01*
X13628396Y-15724484D02*
X13647444Y-15734008D01*
X13647444Y-15734008D02*
X13656968Y-15743531D01*
X13656968Y-15743531D02*
X13666491Y-15762579D01*
X13666491Y-15762579D02*
X13676015Y-15800674D01*
X13676015Y-15800674D02*
X13676015Y-15848293D01*
X13676015Y-15848293D02*
X13666491Y-15886388D01*
X13666491Y-15886388D02*
X13656968Y-15905436D01*
X13656968Y-15905436D02*
X13647444Y-15914960D01*
X13647444Y-15914960D02*
X13628396Y-15924484D01*
X13628396Y-15924484D02*
X13609348Y-15924484D01*
X13609348Y-15924484D02*
X13590301Y-15914960D01*
X13590301Y-15914960D02*
X13580777Y-15905436D01*
X13580777Y-15905436D02*
X13571253Y-15886388D01*
X13571253Y-15886388D02*
X13561729Y-15848293D01*
X13561729Y-15848293D02*
X13561729Y-15800674D01*
X13561729Y-15800674D02*
X13571253Y-15762579D01*
X13571253Y-15762579D02*
X13580777Y-15743531D01*
X13580777Y-15743531D02*
X13590301Y-15734008D01*
X13590301Y-15734008D02*
X13609348Y-15724484D01*
X13914110Y-15924484D02*
X13914110Y-15724484D01*
X13999825Y-15924484D02*
X13999825Y-15819722D01*
X13999825Y-15819722D02*
X13990301Y-15800674D01*
X13990301Y-15800674D02*
X13971253Y-15791150D01*
X13971253Y-15791150D02*
X13942682Y-15791150D01*
X13942682Y-15791150D02*
X13923634Y-15800674D01*
X13923634Y-15800674D02*
X13914110Y-15810198D01*
X14123634Y-15924484D02*
X14104587Y-15914960D01*
X14104587Y-15914960D02*
X14095063Y-15905436D01*
X14095063Y-15905436D02*
X14085539Y-15886388D01*
X14085539Y-15886388D02*
X14085539Y-15829246D01*
X14085539Y-15829246D02*
X14095063Y-15810198D01*
X14095063Y-15810198D02*
X14104587Y-15800674D01*
X14104587Y-15800674D02*
X14123634Y-15791150D01*
X14123634Y-15791150D02*
X14152206Y-15791150D01*
X14152206Y-15791150D02*
X14171253Y-15800674D01*
X14171253Y-15800674D02*
X14180777Y-15810198D01*
X14180777Y-15810198D02*
X14190301Y-15829246D01*
X14190301Y-15829246D02*
X14190301Y-15886388D01*
X14190301Y-15886388D02*
X14180777Y-15905436D01*
X14180777Y-15905436D02*
X14171253Y-15914960D01*
X14171253Y-15914960D02*
X14152206Y-15924484D01*
X14152206Y-15924484D02*
X14123634Y-15924484D01*
X14304587Y-15924484D02*
X14285539Y-15914960D01*
X14285539Y-15914960D02*
X14276015Y-15895912D01*
X14276015Y-15895912D02*
X14276015Y-15724484D01*
X14456968Y-15914960D02*
X14437920Y-15924484D01*
X14437920Y-15924484D02*
X14399825Y-15924484D01*
X14399825Y-15924484D02*
X14380777Y-15914960D01*
X14380777Y-15914960D02*
X14371253Y-15895912D01*
X14371253Y-15895912D02*
X14371253Y-15819722D01*
X14371253Y-15819722D02*
X14380777Y-15800674D01*
X14380777Y-15800674D02*
X14399825Y-15791150D01*
X14399825Y-15791150D02*
X14437920Y-15791150D01*
X14437920Y-15791150D02*
X14456968Y-15800674D01*
X14456968Y-15800674D02*
X14466491Y-15819722D01*
X14466491Y-15819722D02*
X14466491Y-15838769D01*
X14466491Y-15838769D02*
X14371253Y-15857817D01*
X14542682Y-15914960D02*
X14561730Y-15924484D01*
X14561730Y-15924484D02*
X14599825Y-15924484D01*
X14599825Y-15924484D02*
X14618872Y-15914960D01*
X14618872Y-15914960D02*
X14628396Y-15895912D01*
X14628396Y-15895912D02*
X14628396Y-15886388D01*
X14628396Y-15886388D02*
X14618872Y-15867341D01*
X14618872Y-15867341D02*
X14599825Y-15857817D01*
X14599825Y-15857817D02*
X14571253Y-15857817D01*
X14571253Y-15857817D02*
X14552206Y-15848293D01*
X14552206Y-15848293D02*
X14542682Y-15829246D01*
X14542682Y-15829246D02*
X14542682Y-15819722D01*
X14542682Y-15819722D02*
X14552206Y-15800674D01*
X14552206Y-15800674D02*
X14571253Y-15791150D01*
X14571253Y-15791150D02*
X14599825Y-15791150D01*
X14599825Y-15791150D02*
X14618872Y-15800674D01*
X14866492Y-15848293D02*
X15018873Y-15848293D01*
X14942682Y-15924484D02*
X14942682Y-15772103D01*
X15352206Y-15791150D02*
X15352206Y-15924484D01*
X15304587Y-15714960D02*
X15256968Y-15857817D01*
X15256968Y-15857817D02*
X15380777Y-15857817D01*
X15599825Y-15914960D02*
X15618873Y-15924484D01*
X15618873Y-15924484D02*
X15656968Y-15924484D01*
X15656968Y-15924484D02*
X15676015Y-15914960D01*
X15676015Y-15914960D02*
X15685539Y-15895912D01*
X15685539Y-15895912D02*
X15685539Y-15886388D01*
X15685539Y-15886388D02*
X15676015Y-15867341D01*
X15676015Y-15867341D02*
X15656968Y-15857817D01*
X15656968Y-15857817D02*
X15628396Y-15857817D01*
X15628396Y-15857817D02*
X15609349Y-15848293D01*
X15609349Y-15848293D02*
X15599825Y-15829246D01*
X15599825Y-15829246D02*
X15599825Y-15819722D01*
X15599825Y-15819722D02*
X15609349Y-15800674D01*
X15609349Y-15800674D02*
X15628396Y-15791150D01*
X15628396Y-15791150D02*
X15656968Y-15791150D01*
X15656968Y-15791150D02*
X15676015Y-15800674D01*
X15799825Y-15924484D02*
X15780777Y-15914960D01*
X15780777Y-15914960D02*
X15771254Y-15895912D01*
X15771254Y-15895912D02*
X15771254Y-15724484D01*
X15904587Y-15924484D02*
X15885539Y-15914960D01*
X15885539Y-15914960D02*
X15876015Y-15905436D01*
X15876015Y-15905436D02*
X15866492Y-15886388D01*
X15866492Y-15886388D02*
X15866492Y-15829246D01*
X15866492Y-15829246D02*
X15876015Y-15810198D01*
X15876015Y-15810198D02*
X15885539Y-15800674D01*
X15885539Y-15800674D02*
X15904587Y-15791150D01*
X15904587Y-15791150D02*
X15933158Y-15791150D01*
X15933158Y-15791150D02*
X15952206Y-15800674D01*
X15952206Y-15800674D02*
X15961730Y-15810198D01*
X15961730Y-15810198D02*
X15971254Y-15829246D01*
X15971254Y-15829246D02*
X15971254Y-15886388D01*
X15971254Y-15886388D02*
X15961730Y-15905436D01*
X15961730Y-15905436D02*
X15952206Y-15914960D01*
X15952206Y-15914960D02*
X15933158Y-15924484D01*
X15933158Y-15924484D02*
X15904587Y-15924484D01*
X16028396Y-15791150D02*
X16104587Y-15791150D01*
X16056968Y-15724484D02*
X16056968Y-15895912D01*
X16056968Y-15895912D02*
X16066492Y-15914960D01*
X16066492Y-15914960D02*
X16085539Y-15924484D01*
X16085539Y-15924484D02*
X16104587Y-15924484D01*
X16161730Y-15914960D02*
X16180777Y-15924484D01*
X16180777Y-15924484D02*
X16218873Y-15924484D01*
X16218873Y-15924484D02*
X16237920Y-15914960D01*
X16237920Y-15914960D02*
X16247444Y-15895912D01*
X16247444Y-15895912D02*
X16247444Y-15886388D01*
X16247444Y-15886388D02*
X16237920Y-15867341D01*
X16237920Y-15867341D02*
X16218873Y-15857817D01*
X16218873Y-15857817D02*
X16190301Y-15857817D01*
X16190301Y-15857817D02*
X16171254Y-15848293D01*
X16171254Y-15848293D02*
X16161730Y-15829246D01*
X16161730Y-15829246D02*
X16161730Y-15819722D01*
X16161730Y-15819722D02*
X16171254Y-15800674D01*
X16171254Y-15800674D02*
X16190301Y-15791150D01*
X16190301Y-15791150D02*
X16218873Y-15791150D01*
X16218873Y-15791150D02*
X16237920Y-15800674D01*
X16314111Y-16000674D02*
X16323635Y-15991150D01*
X16323635Y-15991150D02*
X16342682Y-15962579D01*
X16342682Y-15962579D02*
X16352206Y-15943531D01*
X16352206Y-15943531D02*
X16361730Y-15914960D01*
X16361730Y-15914960D02*
X16371254Y-15867341D01*
X16371254Y-15867341D02*
X16371254Y-15829246D01*
X16371254Y-15829246D02*
X16361730Y-15781627D01*
X16361730Y-15781627D02*
X16352206Y-15753055D01*
X16352206Y-15753055D02*
X16342682Y-15734008D01*
X16342682Y-15734008D02*
X16323635Y-15705436D01*
X16323635Y-15705436D02*
X16314111Y-15695912D01*
D10*
X9906820Y-16128821D02*
X9906820Y-16065179D01*
X9843178Y-16065179D01*
X9843178Y-16128821D01*
X9906820Y-16128821D01*
D11*
X10218872Y-15988484D02*
X10237920Y-15988484D01*
X10237920Y-15988484D02*
X10256967Y-15998008D01*
X10256967Y-15998008D02*
X10266491Y-16007531D01*
X10266491Y-16007531D02*
X10276015Y-16026579D01*
X10276015Y-16026579D02*
X10285539Y-16064674D01*
X10285539Y-16064674D02*
X10285539Y-16112293D01*
X10285539Y-16112293D02*
X10276015Y-16150388D01*
X10276015Y-16150388D02*
X10266491Y-16169436D01*
X10266491Y-16169436D02*
X10256967Y-16178960D01*
X10256967Y-16178960D02*
X10237920Y-16188484D01*
X10237920Y-16188484D02*
X10218872Y-16188484D01*
X10218872Y-16188484D02*
X10199824Y-16178960D01*
X10199824Y-16178960D02*
X10190301Y-16169436D01*
X10190301Y-16169436D02*
X10180777Y-16150388D01*
X10180777Y-16150388D02*
X10171253Y-16112293D01*
X10171253Y-16112293D02*
X10171253Y-16064674D01*
X10171253Y-16064674D02*
X10180777Y-16026579D01*
X10180777Y-16026579D02*
X10190301Y-16007531D01*
X10190301Y-16007531D02*
X10199824Y-15998008D01*
X10199824Y-15998008D02*
X10218872Y-15988484D01*
X10371253Y-16169436D02*
X10380777Y-16178960D01*
X10380777Y-16178960D02*
X10371253Y-16188484D01*
X10371253Y-16188484D02*
X10361729Y-16178960D01*
X10361729Y-16178960D02*
X10371253Y-16169436D01*
X10371253Y-16169436D02*
X10371253Y-16188484D01*
X10476015Y-16188484D02*
X10514110Y-16188484D01*
X10514110Y-16188484D02*
X10533158Y-16178960D01*
X10533158Y-16178960D02*
X10542682Y-16169436D01*
X10542682Y-16169436D02*
X10561729Y-16140865D01*
X10561729Y-16140865D02*
X10571253Y-16102769D01*
X10571253Y-16102769D02*
X10571253Y-16026579D01*
X10571253Y-16026579D02*
X10561729Y-16007531D01*
X10561729Y-16007531D02*
X10552205Y-15998008D01*
X10552205Y-15998008D02*
X10533158Y-15988484D01*
X10533158Y-15988484D02*
X10495063Y-15988484D01*
X10495063Y-15988484D02*
X10476015Y-15998008D01*
X10476015Y-15998008D02*
X10466491Y-16007531D01*
X10466491Y-16007531D02*
X10456967Y-16026579D01*
X10456967Y-16026579D02*
X10456967Y-16074198D01*
X10456967Y-16074198D02*
X10466491Y-16093246D01*
X10466491Y-16093246D02*
X10476015Y-16102769D01*
X10476015Y-16102769D02*
X10495063Y-16112293D01*
X10495063Y-16112293D02*
X10533158Y-16112293D01*
X10533158Y-16112293D02*
X10552205Y-16102769D01*
X10552205Y-16102769D02*
X10561729Y-16093246D01*
X10561729Y-16093246D02*
X10571253Y-16074198D01*
X10695063Y-15988484D02*
X10714110Y-15988484D01*
X10714110Y-15988484D02*
X10733158Y-15998008D01*
X10733158Y-15998008D02*
X10742682Y-16007531D01*
X10742682Y-16007531D02*
X10752205Y-16026579D01*
X10752205Y-16026579D02*
X10761729Y-16064674D01*
X10761729Y-16064674D02*
X10761729Y-16112293D01*
X10761729Y-16112293D02*
X10752205Y-16150388D01*
X10752205Y-16150388D02*
X10742682Y-16169436D01*
X10742682Y-16169436D02*
X10733158Y-16178960D01*
X10733158Y-16178960D02*
X10714110Y-16188484D01*
X10714110Y-16188484D02*
X10695063Y-16188484D01*
X10695063Y-16188484D02*
X10676015Y-16178960D01*
X10676015Y-16178960D02*
X10666491Y-16169436D01*
X10666491Y-16169436D02*
X10656967Y-16150388D01*
X10656967Y-16150388D02*
X10647444Y-16112293D01*
X10647444Y-16112293D02*
X10647444Y-16064674D01*
X10647444Y-16064674D02*
X10656967Y-16026579D01*
X10656967Y-16026579D02*
X10666491Y-16007531D01*
X10666491Y-16007531D02*
X10676015Y-15998008D01*
X10676015Y-15998008D02*
X10695063Y-15988484D01*
X10885539Y-15988484D02*
X10904586Y-15988484D01*
X10904586Y-15988484D02*
X10923634Y-15998008D01*
X10923634Y-15998008D02*
X10933158Y-16007531D01*
X10933158Y-16007531D02*
X10942682Y-16026579D01*
X10942682Y-16026579D02*
X10952205Y-16064674D01*
X10952205Y-16064674D02*
X10952205Y-16112293D01*
X10952205Y-16112293D02*
X10942682Y-16150388D01*
X10942682Y-16150388D02*
X10933158Y-16169436D01*
X10933158Y-16169436D02*
X10923634Y-16178960D01*
X10923634Y-16178960D02*
X10904586Y-16188484D01*
X10904586Y-16188484D02*
X10885539Y-16188484D01*
X10885539Y-16188484D02*
X10866491Y-16178960D01*
X10866491Y-16178960D02*
X10856967Y-16169436D01*
X10856967Y-16169436D02*
X10847444Y-16150388D01*
X10847444Y-16150388D02*
X10837920Y-16112293D01*
X10837920Y-16112293D02*
X10837920Y-16064674D01*
X10837920Y-16064674D02*
X10847444Y-16026579D01*
X10847444Y-16026579D02*
X10856967Y-16007531D01*
X10856967Y-16007531D02*
X10866491Y-15998008D01*
X10866491Y-15998008D02*
X10885539Y-15988484D01*
X11037920Y-16188484D02*
X11037920Y-16055150D01*
X11037920Y-16074198D02*
X11047444Y-16064674D01*
X11047444Y-16064674D02*
X11066491Y-16055150D01*
X11066491Y-16055150D02*
X11095063Y-16055150D01*
X11095063Y-16055150D02*
X11114110Y-16064674D01*
X11114110Y-16064674D02*
X11123634Y-16083722D01*
X11123634Y-16083722D02*
X11123634Y-16188484D01*
X11123634Y-16083722D02*
X11133158Y-16064674D01*
X11133158Y-16064674D02*
X11152205Y-16055150D01*
X11152205Y-16055150D02*
X11180777Y-16055150D01*
X11180777Y-16055150D02*
X11199824Y-16064674D01*
X11199824Y-16064674D02*
X11209348Y-16083722D01*
X11209348Y-16083722D02*
X11209348Y-16188484D01*
X11304586Y-16188484D02*
X11304586Y-16055150D01*
X11304586Y-16074198D02*
X11314110Y-16064674D01*
X11314110Y-16064674D02*
X11333158Y-16055150D01*
X11333158Y-16055150D02*
X11361729Y-16055150D01*
X11361729Y-16055150D02*
X11380777Y-16064674D01*
X11380777Y-16064674D02*
X11390301Y-16083722D01*
X11390301Y-16083722D02*
X11390301Y-16188484D01*
X11390301Y-16083722D02*
X11399824Y-16064674D01*
X11399824Y-16064674D02*
X11418872Y-16055150D01*
X11418872Y-16055150D02*
X11447443Y-16055150D01*
X11447443Y-16055150D02*
X11466491Y-16064674D01*
X11466491Y-16064674D02*
X11476015Y-16083722D01*
X11476015Y-16083722D02*
X11476015Y-16188484D01*
X11866491Y-15978960D02*
X11695063Y-16236103D01*
X12123634Y-15988484D02*
X12142682Y-15988484D01*
X12142682Y-15988484D02*
X12161729Y-15998008D01*
X12161729Y-15998008D02*
X12171253Y-16007531D01*
X12171253Y-16007531D02*
X12180777Y-16026579D01*
X12180777Y-16026579D02*
X12190301Y-16064674D01*
X12190301Y-16064674D02*
X12190301Y-16112293D01*
X12190301Y-16112293D02*
X12180777Y-16150388D01*
X12180777Y-16150388D02*
X12171253Y-16169436D01*
X12171253Y-16169436D02*
X12161729Y-16178960D01*
X12161729Y-16178960D02*
X12142682Y-16188484D01*
X12142682Y-16188484D02*
X12123634Y-16188484D01*
X12123634Y-16188484D02*
X12104586Y-16178960D01*
X12104586Y-16178960D02*
X12095063Y-16169436D01*
X12095063Y-16169436D02*
X12085539Y-16150388D01*
X12085539Y-16150388D02*
X12076015Y-16112293D01*
X12076015Y-16112293D02*
X12076015Y-16064674D01*
X12076015Y-16064674D02*
X12085539Y-16026579D01*
X12085539Y-16026579D02*
X12095063Y-16007531D01*
X12095063Y-16007531D02*
X12104586Y-15998008D01*
X12104586Y-15998008D02*
X12123634Y-15988484D01*
X12276015Y-16169436D02*
X12285539Y-16178960D01*
X12285539Y-16178960D02*
X12276015Y-16188484D01*
X12276015Y-16188484D02*
X12266491Y-16178960D01*
X12266491Y-16178960D02*
X12276015Y-16169436D01*
X12276015Y-16169436D02*
X12276015Y-16188484D01*
X12409348Y-15988484D02*
X12428396Y-15988484D01*
X12428396Y-15988484D02*
X12447444Y-15998008D01*
X12447444Y-15998008D02*
X12456967Y-16007531D01*
X12456967Y-16007531D02*
X12466491Y-16026579D01*
X12466491Y-16026579D02*
X12476015Y-16064674D01*
X12476015Y-16064674D02*
X12476015Y-16112293D01*
X12476015Y-16112293D02*
X12466491Y-16150388D01*
X12466491Y-16150388D02*
X12456967Y-16169436D01*
X12456967Y-16169436D02*
X12447444Y-16178960D01*
X12447444Y-16178960D02*
X12428396Y-16188484D01*
X12428396Y-16188484D02*
X12409348Y-16188484D01*
X12409348Y-16188484D02*
X12390301Y-16178960D01*
X12390301Y-16178960D02*
X12380777Y-16169436D01*
X12380777Y-16169436D02*
X12371253Y-16150388D01*
X12371253Y-16150388D02*
X12361729Y-16112293D01*
X12361729Y-16112293D02*
X12361729Y-16064674D01*
X12361729Y-16064674D02*
X12371253Y-16026579D01*
X12371253Y-16026579D02*
X12380777Y-16007531D01*
X12380777Y-16007531D02*
X12390301Y-15998008D01*
X12390301Y-15998008D02*
X12409348Y-15988484D01*
X12542682Y-15988484D02*
X12666491Y-15988484D01*
X12666491Y-15988484D02*
X12599825Y-16064674D01*
X12599825Y-16064674D02*
X12628396Y-16064674D01*
X12628396Y-16064674D02*
X12647444Y-16074198D01*
X12647444Y-16074198D02*
X12656967Y-16083722D01*
X12656967Y-16083722D02*
X12666491Y-16102769D01*
X12666491Y-16102769D02*
X12666491Y-16150388D01*
X12666491Y-16150388D02*
X12656967Y-16169436D01*
X12656967Y-16169436D02*
X12647444Y-16178960D01*
X12647444Y-16178960D02*
X12628396Y-16188484D01*
X12628396Y-16188484D02*
X12571253Y-16188484D01*
X12571253Y-16188484D02*
X12552206Y-16178960D01*
X12552206Y-16178960D02*
X12542682Y-16169436D01*
X12847444Y-15988484D02*
X12752206Y-15988484D01*
X12752206Y-15988484D02*
X12742682Y-16083722D01*
X12742682Y-16083722D02*
X12752206Y-16074198D01*
X12752206Y-16074198D02*
X12771253Y-16064674D01*
X12771253Y-16064674D02*
X12818872Y-16064674D01*
X12818872Y-16064674D02*
X12837920Y-16074198D01*
X12837920Y-16074198D02*
X12847444Y-16083722D01*
X12847444Y-16083722D02*
X12856967Y-16102769D01*
X12856967Y-16102769D02*
X12856967Y-16150388D01*
X12856967Y-16150388D02*
X12847444Y-16169436D01*
X12847444Y-16169436D02*
X12837920Y-16178960D01*
X12837920Y-16178960D02*
X12818872Y-16188484D01*
X12818872Y-16188484D02*
X12771253Y-16188484D01*
X12771253Y-16188484D02*
X12752206Y-16178960D01*
X12752206Y-16178960D02*
X12742682Y-16169436D01*
X13028396Y-16055150D02*
X13028396Y-16188484D01*
X12980777Y-15978960D02*
X12933158Y-16121817D01*
X12933158Y-16121817D02*
X13056967Y-16121817D01*
X13123634Y-15988484D02*
X13123634Y-16026579D01*
X13199825Y-15988484D02*
X13199825Y-16026579D01*
X13495063Y-16264674D02*
X13485539Y-16255150D01*
X13485539Y-16255150D02*
X13466491Y-16226579D01*
X13466491Y-16226579D02*
X13456968Y-16207531D01*
X13456968Y-16207531D02*
X13447444Y-16178960D01*
X13447444Y-16178960D02*
X13437920Y-16131341D01*
X13437920Y-16131341D02*
X13437920Y-16093246D01*
X13437920Y-16093246D02*
X13447444Y-16045627D01*
X13447444Y-16045627D02*
X13456968Y-16017055D01*
X13456968Y-16017055D02*
X13466491Y-15998008D01*
X13466491Y-15998008D02*
X13485539Y-15969436D01*
X13485539Y-15969436D02*
X13495063Y-15959912D01*
X13656968Y-16055150D02*
X13656968Y-16188484D01*
X13609348Y-15978960D02*
X13561729Y-16121817D01*
X13561729Y-16121817D02*
X13685539Y-16121817D01*
X13914110Y-16188484D02*
X13914110Y-15988484D01*
X13999825Y-16188484D02*
X13999825Y-16083722D01*
X13999825Y-16083722D02*
X13990301Y-16064674D01*
X13990301Y-16064674D02*
X13971253Y-16055150D01*
X13971253Y-16055150D02*
X13942682Y-16055150D01*
X13942682Y-16055150D02*
X13923634Y-16064674D01*
X13923634Y-16064674D02*
X13914110Y-16074198D01*
X14123634Y-16188484D02*
X14104587Y-16178960D01*
X14104587Y-16178960D02*
X14095063Y-16169436D01*
X14095063Y-16169436D02*
X14085539Y-16150388D01*
X14085539Y-16150388D02*
X14085539Y-16093246D01*
X14085539Y-16093246D02*
X14095063Y-16074198D01*
X14095063Y-16074198D02*
X14104587Y-16064674D01*
X14104587Y-16064674D02*
X14123634Y-16055150D01*
X14123634Y-16055150D02*
X14152206Y-16055150D01*
X14152206Y-16055150D02*
X14171253Y-16064674D01*
X14171253Y-16064674D02*
X14180777Y-16074198D01*
X14180777Y-16074198D02*
X14190301Y-16093246D01*
X14190301Y-16093246D02*
X14190301Y-16150388D01*
X14190301Y-16150388D02*
X14180777Y-16169436D01*
X14180777Y-16169436D02*
X14171253Y-16178960D01*
X14171253Y-16178960D02*
X14152206Y-16188484D01*
X14152206Y-16188484D02*
X14123634Y-16188484D01*
X14304587Y-16188484D02*
X14285539Y-16178960D01*
X14285539Y-16178960D02*
X14276015Y-16159912D01*
X14276015Y-16159912D02*
X14276015Y-15988484D01*
X14456968Y-16178960D02*
X14437920Y-16188484D01*
X14437920Y-16188484D02*
X14399825Y-16188484D01*
X14399825Y-16188484D02*
X14380777Y-16178960D01*
X14380777Y-16178960D02*
X14371253Y-16159912D01*
X14371253Y-16159912D02*
X14371253Y-16083722D01*
X14371253Y-16083722D02*
X14380777Y-16064674D01*
X14380777Y-16064674D02*
X14399825Y-16055150D01*
X14399825Y-16055150D02*
X14437920Y-16055150D01*
X14437920Y-16055150D02*
X14456968Y-16064674D01*
X14456968Y-16064674D02*
X14466491Y-16083722D01*
X14466491Y-16083722D02*
X14466491Y-16102769D01*
X14466491Y-16102769D02*
X14371253Y-16121817D01*
X14542682Y-16178960D02*
X14561730Y-16188484D01*
X14561730Y-16188484D02*
X14599825Y-16188484D01*
X14599825Y-16188484D02*
X14618872Y-16178960D01*
X14618872Y-16178960D02*
X14628396Y-16159912D01*
X14628396Y-16159912D02*
X14628396Y-16150388D01*
X14628396Y-16150388D02*
X14618872Y-16131341D01*
X14618872Y-16131341D02*
X14599825Y-16121817D01*
X14599825Y-16121817D02*
X14571253Y-16121817D01*
X14571253Y-16121817D02*
X14552206Y-16112293D01*
X14552206Y-16112293D02*
X14542682Y-16093246D01*
X14542682Y-16093246D02*
X14542682Y-16083722D01*
X14542682Y-16083722D02*
X14552206Y-16064674D01*
X14552206Y-16064674D02*
X14571253Y-16055150D01*
X14571253Y-16055150D02*
X14599825Y-16055150D01*
X14599825Y-16055150D02*
X14618872Y-16064674D01*
X14695063Y-16264674D02*
X14704587Y-16255150D01*
X14704587Y-16255150D02*
X14723634Y-16226579D01*
X14723634Y-16226579D02*
X14733158Y-16207531D01*
X14733158Y-16207531D02*
X14742682Y-16178960D01*
X14742682Y-16178960D02*
X14752206Y-16131341D01*
X14752206Y-16131341D02*
X14752206Y-16093246D01*
X14752206Y-16093246D02*
X14742682Y-16045627D01*
X14742682Y-16045627D02*
X14733158Y-16017055D01*
X14733158Y-16017055D02*
X14723634Y-15998008D01*
X14723634Y-15998008D02*
X14704587Y-15969436D01*
X14704587Y-15969436D02*
X14695063Y-15959912D01*
D10*
X9870000Y-16411000D02*
X9920000Y-16361000D01*
X9870000Y-16311000D01*
X9820000Y-16361000D01*
X9870000Y-16411000D01*
D11*
X10285539Y-16452484D02*
X10171253Y-16452484D01*
X10228396Y-16452484D02*
X10228396Y-16252484D01*
X10228396Y-16252484D02*
X10209348Y-16281055D01*
X10209348Y-16281055D02*
X10190301Y-16300103D01*
X10190301Y-16300103D02*
X10171253Y-16309627D01*
X10371253Y-16433436D02*
X10380777Y-16442960D01*
X10380777Y-16442960D02*
X10371253Y-16452484D01*
X10371253Y-16452484D02*
X10361729Y-16442960D01*
X10361729Y-16442960D02*
X10371253Y-16433436D01*
X10371253Y-16433436D02*
X10371253Y-16452484D01*
X10504586Y-16252484D02*
X10523634Y-16252484D01*
X10523634Y-16252484D02*
X10542682Y-16262008D01*
X10542682Y-16262008D02*
X10552205Y-16271531D01*
X10552205Y-16271531D02*
X10561729Y-16290579D01*
X10561729Y-16290579D02*
X10571253Y-16328674D01*
X10571253Y-16328674D02*
X10571253Y-16376293D01*
X10571253Y-16376293D02*
X10561729Y-16414388D01*
X10561729Y-16414388D02*
X10552205Y-16433436D01*
X10552205Y-16433436D02*
X10542682Y-16442960D01*
X10542682Y-16442960D02*
X10523634Y-16452484D01*
X10523634Y-16452484D02*
X10504586Y-16452484D01*
X10504586Y-16452484D02*
X10485539Y-16442960D01*
X10485539Y-16442960D02*
X10476015Y-16433436D01*
X10476015Y-16433436D02*
X10466491Y-16414388D01*
X10466491Y-16414388D02*
X10456967Y-16376293D01*
X10456967Y-16376293D02*
X10456967Y-16328674D01*
X10456967Y-16328674D02*
X10466491Y-16290579D01*
X10466491Y-16290579D02*
X10476015Y-16271531D01*
X10476015Y-16271531D02*
X10485539Y-16262008D01*
X10485539Y-16262008D02*
X10504586Y-16252484D01*
X10695063Y-16252484D02*
X10714110Y-16252484D01*
X10714110Y-16252484D02*
X10733158Y-16262008D01*
X10733158Y-16262008D02*
X10742682Y-16271531D01*
X10742682Y-16271531D02*
X10752205Y-16290579D01*
X10752205Y-16290579D02*
X10761729Y-16328674D01*
X10761729Y-16328674D02*
X10761729Y-16376293D01*
X10761729Y-16376293D02*
X10752205Y-16414388D01*
X10752205Y-16414388D02*
X10742682Y-16433436D01*
X10742682Y-16433436D02*
X10733158Y-16442960D01*
X10733158Y-16442960D02*
X10714110Y-16452484D01*
X10714110Y-16452484D02*
X10695063Y-16452484D01*
X10695063Y-16452484D02*
X10676015Y-16442960D01*
X10676015Y-16442960D02*
X10666491Y-16433436D01*
X10666491Y-16433436D02*
X10656967Y-16414388D01*
X10656967Y-16414388D02*
X10647444Y-16376293D01*
X10647444Y-16376293D02*
X10647444Y-16328674D01*
X10647444Y-16328674D02*
X10656967Y-16290579D01*
X10656967Y-16290579D02*
X10666491Y-16271531D01*
X10666491Y-16271531D02*
X10676015Y-16262008D01*
X10676015Y-16262008D02*
X10695063Y-16252484D01*
X10885539Y-16252484D02*
X10904586Y-16252484D01*
X10904586Y-16252484D02*
X10923634Y-16262008D01*
X10923634Y-16262008D02*
X10933158Y-16271531D01*
X10933158Y-16271531D02*
X10942682Y-16290579D01*
X10942682Y-16290579D02*
X10952205Y-16328674D01*
X10952205Y-16328674D02*
X10952205Y-16376293D01*
X10952205Y-16376293D02*
X10942682Y-16414388D01*
X10942682Y-16414388D02*
X10933158Y-16433436D01*
X10933158Y-16433436D02*
X10923634Y-16442960D01*
X10923634Y-16442960D02*
X10904586Y-16452484D01*
X10904586Y-16452484D02*
X10885539Y-16452484D01*
X10885539Y-16452484D02*
X10866491Y-16442960D01*
X10866491Y-16442960D02*
X10856967Y-16433436D01*
X10856967Y-16433436D02*
X10847444Y-16414388D01*
X10847444Y-16414388D02*
X10837920Y-16376293D01*
X10837920Y-16376293D02*
X10837920Y-16328674D01*
X10837920Y-16328674D02*
X10847444Y-16290579D01*
X10847444Y-16290579D02*
X10856967Y-16271531D01*
X10856967Y-16271531D02*
X10866491Y-16262008D01*
X10866491Y-16262008D02*
X10885539Y-16252484D01*
X11037920Y-16452484D02*
X11037920Y-16319150D01*
X11037920Y-16338198D02*
X11047444Y-16328674D01*
X11047444Y-16328674D02*
X11066491Y-16319150D01*
X11066491Y-16319150D02*
X11095063Y-16319150D01*
X11095063Y-16319150D02*
X11114110Y-16328674D01*
X11114110Y-16328674D02*
X11123634Y-16347722D01*
X11123634Y-16347722D02*
X11123634Y-16452484D01*
X11123634Y-16347722D02*
X11133158Y-16328674D01*
X11133158Y-16328674D02*
X11152205Y-16319150D01*
X11152205Y-16319150D02*
X11180777Y-16319150D01*
X11180777Y-16319150D02*
X11199824Y-16328674D01*
X11199824Y-16328674D02*
X11209348Y-16347722D01*
X11209348Y-16347722D02*
X11209348Y-16452484D01*
X11304586Y-16452484D02*
X11304586Y-16319150D01*
X11304586Y-16338198D02*
X11314110Y-16328674D01*
X11314110Y-16328674D02*
X11333158Y-16319150D01*
X11333158Y-16319150D02*
X11361729Y-16319150D01*
X11361729Y-16319150D02*
X11380777Y-16328674D01*
X11380777Y-16328674D02*
X11390301Y-16347722D01*
X11390301Y-16347722D02*
X11390301Y-16452484D01*
X11390301Y-16347722D02*
X11399824Y-16328674D01*
X11399824Y-16328674D02*
X11418872Y-16319150D01*
X11418872Y-16319150D02*
X11447443Y-16319150D01*
X11447443Y-16319150D02*
X11466491Y-16328674D01*
X11466491Y-16328674D02*
X11476015Y-16347722D01*
X11476015Y-16347722D02*
X11476015Y-16452484D01*
X11866491Y-16242960D02*
X11695063Y-16500103D01*
X12123634Y-16252484D02*
X12142682Y-16252484D01*
X12142682Y-16252484D02*
X12161729Y-16262008D01*
X12161729Y-16262008D02*
X12171253Y-16271531D01*
X12171253Y-16271531D02*
X12180777Y-16290579D01*
X12180777Y-16290579D02*
X12190301Y-16328674D01*
X12190301Y-16328674D02*
X12190301Y-16376293D01*
X12190301Y-16376293D02*
X12180777Y-16414388D01*
X12180777Y-16414388D02*
X12171253Y-16433436D01*
X12171253Y-16433436D02*
X12161729Y-16442960D01*
X12161729Y-16442960D02*
X12142682Y-16452484D01*
X12142682Y-16452484D02*
X12123634Y-16452484D01*
X12123634Y-16452484D02*
X12104586Y-16442960D01*
X12104586Y-16442960D02*
X12095063Y-16433436D01*
X12095063Y-16433436D02*
X12085539Y-16414388D01*
X12085539Y-16414388D02*
X12076015Y-16376293D01*
X12076015Y-16376293D02*
X12076015Y-16328674D01*
X12076015Y-16328674D02*
X12085539Y-16290579D01*
X12085539Y-16290579D02*
X12095063Y-16271531D01*
X12095063Y-16271531D02*
X12104586Y-16262008D01*
X12104586Y-16262008D02*
X12123634Y-16252484D01*
X12276015Y-16433436D02*
X12285539Y-16442960D01*
X12285539Y-16442960D02*
X12276015Y-16452484D01*
X12276015Y-16452484D02*
X12266491Y-16442960D01*
X12266491Y-16442960D02*
X12276015Y-16433436D01*
X12276015Y-16433436D02*
X12276015Y-16452484D01*
X12409348Y-16252484D02*
X12428396Y-16252484D01*
X12428396Y-16252484D02*
X12447444Y-16262008D01*
X12447444Y-16262008D02*
X12456967Y-16271531D01*
X12456967Y-16271531D02*
X12466491Y-16290579D01*
X12466491Y-16290579D02*
X12476015Y-16328674D01*
X12476015Y-16328674D02*
X12476015Y-16376293D01*
X12476015Y-16376293D02*
X12466491Y-16414388D01*
X12466491Y-16414388D02*
X12456967Y-16433436D01*
X12456967Y-16433436D02*
X12447444Y-16442960D01*
X12447444Y-16442960D02*
X12428396Y-16452484D01*
X12428396Y-16452484D02*
X12409348Y-16452484D01*
X12409348Y-16452484D02*
X12390301Y-16442960D01*
X12390301Y-16442960D02*
X12380777Y-16433436D01*
X12380777Y-16433436D02*
X12371253Y-16414388D01*
X12371253Y-16414388D02*
X12361729Y-16376293D01*
X12361729Y-16376293D02*
X12361729Y-16328674D01*
X12361729Y-16328674D02*
X12371253Y-16290579D01*
X12371253Y-16290579D02*
X12380777Y-16271531D01*
X12380777Y-16271531D02*
X12390301Y-16262008D01*
X12390301Y-16262008D02*
X12409348Y-16252484D01*
X12542682Y-16252484D02*
X12666491Y-16252484D01*
X12666491Y-16252484D02*
X12599825Y-16328674D01*
X12599825Y-16328674D02*
X12628396Y-16328674D01*
X12628396Y-16328674D02*
X12647444Y-16338198D01*
X12647444Y-16338198D02*
X12656967Y-16347722D01*
X12656967Y-16347722D02*
X12666491Y-16366769D01*
X12666491Y-16366769D02*
X12666491Y-16414388D01*
X12666491Y-16414388D02*
X12656967Y-16433436D01*
X12656967Y-16433436D02*
X12647444Y-16442960D01*
X12647444Y-16442960D02*
X12628396Y-16452484D01*
X12628396Y-16452484D02*
X12571253Y-16452484D01*
X12571253Y-16452484D02*
X12552206Y-16442960D01*
X12552206Y-16442960D02*
X12542682Y-16433436D01*
X12761729Y-16452484D02*
X12799825Y-16452484D01*
X12799825Y-16452484D02*
X12818872Y-16442960D01*
X12818872Y-16442960D02*
X12828396Y-16433436D01*
X12828396Y-16433436D02*
X12847444Y-16404865D01*
X12847444Y-16404865D02*
X12856967Y-16366769D01*
X12856967Y-16366769D02*
X12856967Y-16290579D01*
X12856967Y-16290579D02*
X12847444Y-16271531D01*
X12847444Y-16271531D02*
X12837920Y-16262008D01*
X12837920Y-16262008D02*
X12818872Y-16252484D01*
X12818872Y-16252484D02*
X12780777Y-16252484D01*
X12780777Y-16252484D02*
X12761729Y-16262008D01*
X12761729Y-16262008D02*
X12752206Y-16271531D01*
X12752206Y-16271531D02*
X12742682Y-16290579D01*
X12742682Y-16290579D02*
X12742682Y-16338198D01*
X12742682Y-16338198D02*
X12752206Y-16357246D01*
X12752206Y-16357246D02*
X12761729Y-16366769D01*
X12761729Y-16366769D02*
X12780777Y-16376293D01*
X12780777Y-16376293D02*
X12818872Y-16376293D01*
X12818872Y-16376293D02*
X12837920Y-16366769D01*
X12837920Y-16366769D02*
X12847444Y-16357246D01*
X12847444Y-16357246D02*
X12856967Y-16338198D01*
X13028396Y-16319150D02*
X13028396Y-16452484D01*
X12980777Y-16242960D02*
X12933158Y-16385817D01*
X12933158Y-16385817D02*
X13056967Y-16385817D01*
X13123634Y-16252484D02*
X13123634Y-16290579D01*
X13199825Y-16252484D02*
X13199825Y-16290579D01*
X13495063Y-16528674D02*
X13485539Y-16519150D01*
X13485539Y-16519150D02*
X13466491Y-16490579D01*
X13466491Y-16490579D02*
X13456968Y-16471531D01*
X13456968Y-16471531D02*
X13447444Y-16442960D01*
X13447444Y-16442960D02*
X13437920Y-16395341D01*
X13437920Y-16395341D02*
X13437920Y-16357246D01*
X13437920Y-16357246D02*
X13447444Y-16309627D01*
X13447444Y-16309627D02*
X13456968Y-16281055D01*
X13456968Y-16281055D02*
X13466491Y-16262008D01*
X13466491Y-16262008D02*
X13485539Y-16233436D01*
X13485539Y-16233436D02*
X13495063Y-16223912D01*
X13676015Y-16452484D02*
X13561729Y-16452484D01*
X13618872Y-16452484D02*
X13618872Y-16252484D01*
X13618872Y-16252484D02*
X13599825Y-16281055D01*
X13599825Y-16281055D02*
X13580777Y-16300103D01*
X13580777Y-16300103D02*
X13561729Y-16309627D01*
X13914110Y-16452484D02*
X13914110Y-16252484D01*
X13999825Y-16452484D02*
X13999825Y-16347722D01*
X13999825Y-16347722D02*
X13990301Y-16328674D01*
X13990301Y-16328674D02*
X13971253Y-16319150D01*
X13971253Y-16319150D02*
X13942682Y-16319150D01*
X13942682Y-16319150D02*
X13923634Y-16328674D01*
X13923634Y-16328674D02*
X13914110Y-16338198D01*
X14123634Y-16452484D02*
X14104587Y-16442960D01*
X14104587Y-16442960D02*
X14095063Y-16433436D01*
X14095063Y-16433436D02*
X14085539Y-16414388D01*
X14085539Y-16414388D02*
X14085539Y-16357246D01*
X14085539Y-16357246D02*
X14095063Y-16338198D01*
X14095063Y-16338198D02*
X14104587Y-16328674D01*
X14104587Y-16328674D02*
X14123634Y-16319150D01*
X14123634Y-16319150D02*
X14152206Y-16319150D01*
X14152206Y-16319150D02*
X14171253Y-16328674D01*
X14171253Y-16328674D02*
X14180777Y-16338198D01*
X14180777Y-16338198D02*
X14190301Y-16357246D01*
X14190301Y-16357246D02*
X14190301Y-16414388D01*
X14190301Y-16414388D02*
X14180777Y-16433436D01*
X14180777Y-16433436D02*
X14171253Y-16442960D01*
X14171253Y-16442960D02*
X14152206Y-16452484D01*
X14152206Y-16452484D02*
X14123634Y-16452484D01*
X14304587Y-16452484D02*
X14285539Y-16442960D01*
X14285539Y-16442960D02*
X14276015Y-16423912D01*
X14276015Y-16423912D02*
X14276015Y-16252484D01*
X14456968Y-16442960D02*
X14437920Y-16452484D01*
X14437920Y-16452484D02*
X14399825Y-16452484D01*
X14399825Y-16452484D02*
X14380777Y-16442960D01*
X14380777Y-16442960D02*
X14371253Y-16423912D01*
X14371253Y-16423912D02*
X14371253Y-16347722D01*
X14371253Y-16347722D02*
X14380777Y-16328674D01*
X14380777Y-16328674D02*
X14399825Y-16319150D01*
X14399825Y-16319150D02*
X14437920Y-16319150D01*
X14437920Y-16319150D02*
X14456968Y-16328674D01*
X14456968Y-16328674D02*
X14466491Y-16347722D01*
X14466491Y-16347722D02*
X14466491Y-16366769D01*
X14466491Y-16366769D02*
X14371253Y-16385817D01*
X14533158Y-16528674D02*
X14542682Y-16519150D01*
X14542682Y-16519150D02*
X14561730Y-16490579D01*
X14561730Y-16490579D02*
X14571253Y-16471531D01*
X14571253Y-16471531D02*
X14580777Y-16442960D01*
X14580777Y-16442960D02*
X14590301Y-16395341D01*
X14590301Y-16395341D02*
X14590301Y-16357246D01*
X14590301Y-16357246D02*
X14580777Y-16309627D01*
X14580777Y-16309627D02*
X14571253Y-16281055D01*
X14571253Y-16281055D02*
X14561730Y-16262008D01*
X14561730Y-16262008D02*
X14542682Y-16233436D01*
X14542682Y-16233436D02*
X14533158Y-16223912D01*
D10*
X9849998Y-16589999D02*
X9920000Y-16660001D01*
X9920000Y-16589999D02*
X9849998Y-16660001D01*
X9920000Y-16625000D02*
G75*
G02*
X9849998Y-16625000I-35001J0D01*
G01*
X9849998Y-16625000D02*
G75*
G02*
X9920000Y-16625000I35001J0D01*
G01*
D11*
X10218872Y-16516484D02*
X10237920Y-16516484D01*
X10237920Y-16516484D02*
X10256967Y-16526008D01*
X10256967Y-16526008D02*
X10266491Y-16535531D01*
X10266491Y-16535531D02*
X10276015Y-16554579D01*
X10276015Y-16554579D02*
X10285539Y-16592674D01*
X10285539Y-16592674D02*
X10285539Y-16640293D01*
X10285539Y-16640293D02*
X10276015Y-16678388D01*
X10276015Y-16678388D02*
X10266491Y-16697436D01*
X10266491Y-16697436D02*
X10256967Y-16706960D01*
X10256967Y-16706960D02*
X10237920Y-16716484D01*
X10237920Y-16716484D02*
X10218872Y-16716484D01*
X10218872Y-16716484D02*
X10199824Y-16706960D01*
X10199824Y-16706960D02*
X10190301Y-16697436D01*
X10190301Y-16697436D02*
X10180777Y-16678388D01*
X10180777Y-16678388D02*
X10171253Y-16640293D01*
X10171253Y-16640293D02*
X10171253Y-16592674D01*
X10171253Y-16592674D02*
X10180777Y-16554579D01*
X10180777Y-16554579D02*
X10190301Y-16535531D01*
X10190301Y-16535531D02*
X10199824Y-16526008D01*
X10199824Y-16526008D02*
X10218872Y-16516484D01*
X10371253Y-16697436D02*
X10380777Y-16706960D01*
X10380777Y-16706960D02*
X10371253Y-16716484D01*
X10371253Y-16716484D02*
X10361729Y-16706960D01*
X10361729Y-16706960D02*
X10371253Y-16697436D01*
X10371253Y-16697436D02*
X10371253Y-16716484D01*
X10447444Y-16516484D02*
X10580777Y-16516484D01*
X10580777Y-16516484D02*
X10495063Y-16716484D01*
X10695063Y-16516484D02*
X10714110Y-16516484D01*
X10714110Y-16516484D02*
X10733158Y-16526008D01*
X10733158Y-16526008D02*
X10742682Y-16535531D01*
X10742682Y-16535531D02*
X10752205Y-16554579D01*
X10752205Y-16554579D02*
X10761729Y-16592674D01*
X10761729Y-16592674D02*
X10761729Y-16640293D01*
X10761729Y-16640293D02*
X10752205Y-16678388D01*
X10752205Y-16678388D02*
X10742682Y-16697436D01*
X10742682Y-16697436D02*
X10733158Y-16706960D01*
X10733158Y-16706960D02*
X10714110Y-16716484D01*
X10714110Y-16716484D02*
X10695063Y-16716484D01*
X10695063Y-16716484D02*
X10676015Y-16706960D01*
X10676015Y-16706960D02*
X10666491Y-16697436D01*
X10666491Y-16697436D02*
X10656967Y-16678388D01*
X10656967Y-16678388D02*
X10647444Y-16640293D01*
X10647444Y-16640293D02*
X10647444Y-16592674D01*
X10647444Y-16592674D02*
X10656967Y-16554579D01*
X10656967Y-16554579D02*
X10666491Y-16535531D01*
X10666491Y-16535531D02*
X10676015Y-16526008D01*
X10676015Y-16526008D02*
X10695063Y-16516484D01*
X10885539Y-16516484D02*
X10904586Y-16516484D01*
X10904586Y-16516484D02*
X10923634Y-16526008D01*
X10923634Y-16526008D02*
X10933158Y-16535531D01*
X10933158Y-16535531D02*
X10942682Y-16554579D01*
X10942682Y-16554579D02*
X10952205Y-16592674D01*
X10952205Y-16592674D02*
X10952205Y-16640293D01*
X10952205Y-16640293D02*
X10942682Y-16678388D01*
X10942682Y-16678388D02*
X10933158Y-16697436D01*
X10933158Y-16697436D02*
X10923634Y-16706960D01*
X10923634Y-16706960D02*
X10904586Y-16716484D01*
X10904586Y-16716484D02*
X10885539Y-16716484D01*
X10885539Y-16716484D02*
X10866491Y-16706960D01*
X10866491Y-16706960D02*
X10856967Y-16697436D01*
X10856967Y-16697436D02*
X10847444Y-16678388D01*
X10847444Y-16678388D02*
X10837920Y-16640293D01*
X10837920Y-16640293D02*
X10837920Y-16592674D01*
X10837920Y-16592674D02*
X10847444Y-16554579D01*
X10847444Y-16554579D02*
X10856967Y-16535531D01*
X10856967Y-16535531D02*
X10866491Y-16526008D01*
X10866491Y-16526008D02*
X10885539Y-16516484D01*
X11037920Y-16716484D02*
X11037920Y-16583150D01*
X11037920Y-16602198D02*
X11047444Y-16592674D01*
X11047444Y-16592674D02*
X11066491Y-16583150D01*
X11066491Y-16583150D02*
X11095063Y-16583150D01*
X11095063Y-16583150D02*
X11114110Y-16592674D01*
X11114110Y-16592674D02*
X11123634Y-16611722D01*
X11123634Y-16611722D02*
X11123634Y-16716484D01*
X11123634Y-16611722D02*
X11133158Y-16592674D01*
X11133158Y-16592674D02*
X11152205Y-16583150D01*
X11152205Y-16583150D02*
X11180777Y-16583150D01*
X11180777Y-16583150D02*
X11199824Y-16592674D01*
X11199824Y-16592674D02*
X11209348Y-16611722D01*
X11209348Y-16611722D02*
X11209348Y-16716484D01*
X11304586Y-16716484D02*
X11304586Y-16583150D01*
X11304586Y-16602198D02*
X11314110Y-16592674D01*
X11314110Y-16592674D02*
X11333158Y-16583150D01*
X11333158Y-16583150D02*
X11361729Y-16583150D01*
X11361729Y-16583150D02*
X11380777Y-16592674D01*
X11380777Y-16592674D02*
X11390301Y-16611722D01*
X11390301Y-16611722D02*
X11390301Y-16716484D01*
X11390301Y-16611722D02*
X11399824Y-16592674D01*
X11399824Y-16592674D02*
X11418872Y-16583150D01*
X11418872Y-16583150D02*
X11447443Y-16583150D01*
X11447443Y-16583150D02*
X11466491Y-16592674D01*
X11466491Y-16592674D02*
X11476015Y-16611722D01*
X11476015Y-16611722D02*
X11476015Y-16716484D01*
X11866491Y-16506960D02*
X11695063Y-16764103D01*
X12123634Y-16516484D02*
X12142682Y-16516484D01*
X12142682Y-16516484D02*
X12161729Y-16526008D01*
X12161729Y-16526008D02*
X12171253Y-16535531D01*
X12171253Y-16535531D02*
X12180777Y-16554579D01*
X12180777Y-16554579D02*
X12190301Y-16592674D01*
X12190301Y-16592674D02*
X12190301Y-16640293D01*
X12190301Y-16640293D02*
X12180777Y-16678388D01*
X12180777Y-16678388D02*
X12171253Y-16697436D01*
X12171253Y-16697436D02*
X12161729Y-16706960D01*
X12161729Y-16706960D02*
X12142682Y-16716484D01*
X12142682Y-16716484D02*
X12123634Y-16716484D01*
X12123634Y-16716484D02*
X12104586Y-16706960D01*
X12104586Y-16706960D02*
X12095063Y-16697436D01*
X12095063Y-16697436D02*
X12085539Y-16678388D01*
X12085539Y-16678388D02*
X12076015Y-16640293D01*
X12076015Y-16640293D02*
X12076015Y-16592674D01*
X12076015Y-16592674D02*
X12085539Y-16554579D01*
X12085539Y-16554579D02*
X12095063Y-16535531D01*
X12095063Y-16535531D02*
X12104586Y-16526008D01*
X12104586Y-16526008D02*
X12123634Y-16516484D01*
X12276015Y-16697436D02*
X12285539Y-16706960D01*
X12285539Y-16706960D02*
X12276015Y-16716484D01*
X12276015Y-16716484D02*
X12266491Y-16706960D01*
X12266491Y-16706960D02*
X12276015Y-16697436D01*
X12276015Y-16697436D02*
X12276015Y-16716484D01*
X12409348Y-16516484D02*
X12428396Y-16516484D01*
X12428396Y-16516484D02*
X12447444Y-16526008D01*
X12447444Y-16526008D02*
X12456967Y-16535531D01*
X12456967Y-16535531D02*
X12466491Y-16554579D01*
X12466491Y-16554579D02*
X12476015Y-16592674D01*
X12476015Y-16592674D02*
X12476015Y-16640293D01*
X12476015Y-16640293D02*
X12466491Y-16678388D01*
X12466491Y-16678388D02*
X12456967Y-16697436D01*
X12456967Y-16697436D02*
X12447444Y-16706960D01*
X12447444Y-16706960D02*
X12428396Y-16716484D01*
X12428396Y-16716484D02*
X12409348Y-16716484D01*
X12409348Y-16716484D02*
X12390301Y-16706960D01*
X12390301Y-16706960D02*
X12380777Y-16697436D01*
X12380777Y-16697436D02*
X12371253Y-16678388D01*
X12371253Y-16678388D02*
X12361729Y-16640293D01*
X12361729Y-16640293D02*
X12361729Y-16592674D01*
X12361729Y-16592674D02*
X12371253Y-16554579D01*
X12371253Y-16554579D02*
X12380777Y-16535531D01*
X12380777Y-16535531D02*
X12390301Y-16526008D01*
X12390301Y-16526008D02*
X12409348Y-16516484D01*
X12552206Y-16535531D02*
X12561729Y-16526008D01*
X12561729Y-16526008D02*
X12580777Y-16516484D01*
X12580777Y-16516484D02*
X12628396Y-16516484D01*
X12628396Y-16516484D02*
X12647444Y-16526008D01*
X12647444Y-16526008D02*
X12656967Y-16535531D01*
X12656967Y-16535531D02*
X12666491Y-16554579D01*
X12666491Y-16554579D02*
X12666491Y-16573627D01*
X12666491Y-16573627D02*
X12656967Y-16602198D01*
X12656967Y-16602198D02*
X12542682Y-16716484D01*
X12542682Y-16716484D02*
X12666491Y-16716484D01*
X12733158Y-16516484D02*
X12866491Y-16516484D01*
X12866491Y-16516484D02*
X12780777Y-16716484D01*
X13028396Y-16516484D02*
X12990301Y-16516484D01*
X12990301Y-16516484D02*
X12971253Y-16526008D01*
X12971253Y-16526008D02*
X12961729Y-16535531D01*
X12961729Y-16535531D02*
X12942682Y-16564103D01*
X12942682Y-16564103D02*
X12933158Y-16602198D01*
X12933158Y-16602198D02*
X12933158Y-16678388D01*
X12933158Y-16678388D02*
X12942682Y-16697436D01*
X12942682Y-16697436D02*
X12952206Y-16706960D01*
X12952206Y-16706960D02*
X12971253Y-16716484D01*
X12971253Y-16716484D02*
X13009348Y-16716484D01*
X13009348Y-16716484D02*
X13028396Y-16706960D01*
X13028396Y-16706960D02*
X13037920Y-16697436D01*
X13037920Y-16697436D02*
X13047444Y-16678388D01*
X13047444Y-16678388D02*
X13047444Y-16630769D01*
X13047444Y-16630769D02*
X13037920Y-16611722D01*
X13037920Y-16611722D02*
X13028396Y-16602198D01*
X13028396Y-16602198D02*
X13009348Y-16592674D01*
X13009348Y-16592674D02*
X12971253Y-16592674D01*
X12971253Y-16592674D02*
X12952206Y-16602198D01*
X12952206Y-16602198D02*
X12942682Y-16611722D01*
X12942682Y-16611722D02*
X12933158Y-16630769D01*
X13123634Y-16516484D02*
X13123634Y-16554579D01*
X13199825Y-16516484D02*
X13199825Y-16554579D01*
X13495063Y-16792674D02*
X13485539Y-16783150D01*
X13485539Y-16783150D02*
X13466491Y-16754579D01*
X13466491Y-16754579D02*
X13456968Y-16735531D01*
X13456968Y-16735531D02*
X13447444Y-16706960D01*
X13447444Y-16706960D02*
X13437920Y-16659341D01*
X13437920Y-16659341D02*
X13437920Y-16621246D01*
X13437920Y-16621246D02*
X13447444Y-16573627D01*
X13447444Y-16573627D02*
X13456968Y-16545055D01*
X13456968Y-16545055D02*
X13466491Y-16526008D01*
X13466491Y-16526008D02*
X13485539Y-16497436D01*
X13485539Y-16497436D02*
X13495063Y-16487912D01*
X13561729Y-16535531D02*
X13571253Y-16526008D01*
X13571253Y-16526008D02*
X13590301Y-16516484D01*
X13590301Y-16516484D02*
X13637920Y-16516484D01*
X13637920Y-16516484D02*
X13656968Y-16526008D01*
X13656968Y-16526008D02*
X13666491Y-16535531D01*
X13666491Y-16535531D02*
X13676015Y-16554579D01*
X13676015Y-16554579D02*
X13676015Y-16573627D01*
X13676015Y-16573627D02*
X13666491Y-16602198D01*
X13666491Y-16602198D02*
X13552206Y-16716484D01*
X13552206Y-16716484D02*
X13676015Y-16716484D01*
X13914110Y-16716484D02*
X13914110Y-16516484D01*
X13999825Y-16716484D02*
X13999825Y-16611722D01*
X13999825Y-16611722D02*
X13990301Y-16592674D01*
X13990301Y-16592674D02*
X13971253Y-16583150D01*
X13971253Y-16583150D02*
X13942682Y-16583150D01*
X13942682Y-16583150D02*
X13923634Y-16592674D01*
X13923634Y-16592674D02*
X13914110Y-16602198D01*
X14123634Y-16716484D02*
X14104587Y-16706960D01*
X14104587Y-16706960D02*
X14095063Y-16697436D01*
X14095063Y-16697436D02*
X14085539Y-16678388D01*
X14085539Y-16678388D02*
X14085539Y-16621246D01*
X14085539Y-16621246D02*
X14095063Y-16602198D01*
X14095063Y-16602198D02*
X14104587Y-16592674D01*
X14104587Y-16592674D02*
X14123634Y-16583150D01*
X14123634Y-16583150D02*
X14152206Y-16583150D01*
X14152206Y-16583150D02*
X14171253Y-16592674D01*
X14171253Y-16592674D02*
X14180777Y-16602198D01*
X14180777Y-16602198D02*
X14190301Y-16621246D01*
X14190301Y-16621246D02*
X14190301Y-16678388D01*
X14190301Y-16678388D02*
X14180777Y-16697436D01*
X14180777Y-16697436D02*
X14171253Y-16706960D01*
X14171253Y-16706960D02*
X14152206Y-16716484D01*
X14152206Y-16716484D02*
X14123634Y-16716484D01*
X14304587Y-16716484D02*
X14285539Y-16706960D01*
X14285539Y-16706960D02*
X14276015Y-16687912D01*
X14276015Y-16687912D02*
X14276015Y-16516484D01*
X14456968Y-16706960D02*
X14437920Y-16716484D01*
X14437920Y-16716484D02*
X14399825Y-16716484D01*
X14399825Y-16716484D02*
X14380777Y-16706960D01*
X14380777Y-16706960D02*
X14371253Y-16687912D01*
X14371253Y-16687912D02*
X14371253Y-16611722D01*
X14371253Y-16611722D02*
X14380777Y-16592674D01*
X14380777Y-16592674D02*
X14399825Y-16583150D01*
X14399825Y-16583150D02*
X14437920Y-16583150D01*
X14437920Y-16583150D02*
X14456968Y-16592674D01*
X14456968Y-16592674D02*
X14466491Y-16611722D01*
X14466491Y-16611722D02*
X14466491Y-16630769D01*
X14466491Y-16630769D02*
X14371253Y-16649817D01*
X14542682Y-16706960D02*
X14561730Y-16716484D01*
X14561730Y-16716484D02*
X14599825Y-16716484D01*
X14599825Y-16716484D02*
X14618872Y-16706960D01*
X14618872Y-16706960D02*
X14628396Y-16687912D01*
X14628396Y-16687912D02*
X14628396Y-16678388D01*
X14628396Y-16678388D02*
X14618872Y-16659341D01*
X14618872Y-16659341D02*
X14599825Y-16649817D01*
X14599825Y-16649817D02*
X14571253Y-16649817D01*
X14571253Y-16649817D02*
X14552206Y-16640293D01*
X14552206Y-16640293D02*
X14542682Y-16621246D01*
X14542682Y-16621246D02*
X14542682Y-16611722D01*
X14542682Y-16611722D02*
X14552206Y-16592674D01*
X14552206Y-16592674D02*
X14571253Y-16583150D01*
X14571253Y-16583150D02*
X14599825Y-16583150D01*
X14599825Y-16583150D02*
X14618872Y-16592674D01*
X14695063Y-16792674D02*
X14704587Y-16783150D01*
X14704587Y-16783150D02*
X14723634Y-16754579D01*
X14723634Y-16754579D02*
X14733158Y-16735531D01*
X14733158Y-16735531D02*
X14742682Y-16706960D01*
X14742682Y-16706960D02*
X14752206Y-16659341D01*
X14752206Y-16659341D02*
X14752206Y-16621246D01*
X14752206Y-16621246D02*
X14742682Y-16573627D01*
X14742682Y-16573627D02*
X14733158Y-16545055D01*
X14733158Y-16545055D02*
X14723634Y-16526008D01*
X14723634Y-16526008D02*
X14704587Y-16497436D01*
X14704587Y-16497436D02*
X14695063Y-16487912D01*
X15056968Y-16792674D02*
X15047444Y-16783150D01*
X15047444Y-16783150D02*
X15028396Y-16754579D01*
X15028396Y-16754579D02*
X15018872Y-16735531D01*
X15018872Y-16735531D02*
X15009349Y-16706960D01*
X15009349Y-16706960D02*
X14999825Y-16659341D01*
X14999825Y-16659341D02*
X14999825Y-16621246D01*
X14999825Y-16621246D02*
X15009349Y-16573627D01*
X15009349Y-16573627D02*
X15018872Y-16545055D01*
X15018872Y-16545055D02*
X15028396Y-16526008D01*
X15028396Y-16526008D02*
X15047444Y-16497436D01*
X15047444Y-16497436D02*
X15056968Y-16487912D01*
X15133158Y-16583150D02*
X15133158Y-16716484D01*
X15133158Y-16602198D02*
X15142682Y-16592674D01*
X15142682Y-16592674D02*
X15161730Y-16583150D01*
X15161730Y-16583150D02*
X15190301Y-16583150D01*
X15190301Y-16583150D02*
X15209349Y-16592674D01*
X15209349Y-16592674D02*
X15218872Y-16611722D01*
X15218872Y-16611722D02*
X15218872Y-16716484D01*
X15342682Y-16716484D02*
X15323634Y-16706960D01*
X15323634Y-16706960D02*
X15314111Y-16697436D01*
X15314111Y-16697436D02*
X15304587Y-16678388D01*
X15304587Y-16678388D02*
X15304587Y-16621246D01*
X15304587Y-16621246D02*
X15314111Y-16602198D01*
X15314111Y-16602198D02*
X15323634Y-16592674D01*
X15323634Y-16592674D02*
X15342682Y-16583150D01*
X15342682Y-16583150D02*
X15371253Y-16583150D01*
X15371253Y-16583150D02*
X15390301Y-16592674D01*
X15390301Y-16592674D02*
X15399825Y-16602198D01*
X15399825Y-16602198D02*
X15409349Y-16621246D01*
X15409349Y-16621246D02*
X15409349Y-16678388D01*
X15409349Y-16678388D02*
X15399825Y-16697436D01*
X15399825Y-16697436D02*
X15390301Y-16706960D01*
X15390301Y-16706960D02*
X15371253Y-16716484D01*
X15371253Y-16716484D02*
X15342682Y-16716484D01*
X15466492Y-16583150D02*
X15542682Y-16583150D01*
X15495063Y-16516484D02*
X15495063Y-16687912D01*
X15495063Y-16687912D02*
X15504587Y-16706960D01*
X15504587Y-16706960D02*
X15523634Y-16716484D01*
X15523634Y-16716484D02*
X15542682Y-16716484D01*
X15761730Y-16583150D02*
X15761730Y-16783150D01*
X15761730Y-16592674D02*
X15780777Y-16583150D01*
X15780777Y-16583150D02*
X15818873Y-16583150D01*
X15818873Y-16583150D02*
X15837920Y-16592674D01*
X15837920Y-16592674D02*
X15847444Y-16602198D01*
X15847444Y-16602198D02*
X15856968Y-16621246D01*
X15856968Y-16621246D02*
X15856968Y-16678388D01*
X15856968Y-16678388D02*
X15847444Y-16697436D01*
X15847444Y-16697436D02*
X15837920Y-16706960D01*
X15837920Y-16706960D02*
X15818873Y-16716484D01*
X15818873Y-16716484D02*
X15780777Y-16716484D01*
X15780777Y-16716484D02*
X15761730Y-16706960D01*
X15971253Y-16716484D02*
X15952206Y-16706960D01*
X15952206Y-16706960D02*
X15942682Y-16687912D01*
X15942682Y-16687912D02*
X15942682Y-16516484D01*
X16133158Y-16716484D02*
X16133158Y-16611722D01*
X16133158Y-16611722D02*
X16123634Y-16592674D01*
X16123634Y-16592674D02*
X16104587Y-16583150D01*
X16104587Y-16583150D02*
X16066492Y-16583150D01*
X16066492Y-16583150D02*
X16047444Y-16592674D01*
X16133158Y-16706960D02*
X16114111Y-16716484D01*
X16114111Y-16716484D02*
X16066492Y-16716484D01*
X16066492Y-16716484D02*
X16047444Y-16706960D01*
X16047444Y-16706960D02*
X16037920Y-16687912D01*
X16037920Y-16687912D02*
X16037920Y-16668865D01*
X16037920Y-16668865D02*
X16047444Y-16649817D01*
X16047444Y-16649817D02*
X16066492Y-16640293D01*
X16066492Y-16640293D02*
X16114111Y-16640293D01*
X16114111Y-16640293D02*
X16133158Y-16630769D01*
X16199825Y-16583150D02*
X16276015Y-16583150D01*
X16228396Y-16516484D02*
X16228396Y-16687912D01*
X16228396Y-16687912D02*
X16237920Y-16706960D01*
X16237920Y-16706960D02*
X16256968Y-16716484D01*
X16256968Y-16716484D02*
X16276015Y-16716484D01*
X16418873Y-16706960D02*
X16399825Y-16716484D01*
X16399825Y-16716484D02*
X16361730Y-16716484D01*
X16361730Y-16716484D02*
X16342682Y-16706960D01*
X16342682Y-16706960D02*
X16333158Y-16687912D01*
X16333158Y-16687912D02*
X16333158Y-16611722D01*
X16333158Y-16611722D02*
X16342682Y-16592674D01*
X16342682Y-16592674D02*
X16361730Y-16583150D01*
X16361730Y-16583150D02*
X16399825Y-16583150D01*
X16399825Y-16583150D02*
X16418873Y-16592674D01*
X16418873Y-16592674D02*
X16428396Y-16611722D01*
X16428396Y-16611722D02*
X16428396Y-16630769D01*
X16428396Y-16630769D02*
X16333158Y-16649817D01*
X16599825Y-16716484D02*
X16599825Y-16516484D01*
X16599825Y-16706960D02*
X16580777Y-16716484D01*
X16580777Y-16716484D02*
X16542682Y-16716484D01*
X16542682Y-16716484D02*
X16523634Y-16706960D01*
X16523634Y-16706960D02*
X16514111Y-16697436D01*
X16514111Y-16697436D02*
X16504587Y-16678388D01*
X16504587Y-16678388D02*
X16504587Y-16621246D01*
X16504587Y-16621246D02*
X16514111Y-16602198D01*
X16514111Y-16602198D02*
X16523634Y-16592674D01*
X16523634Y-16592674D02*
X16542682Y-16583150D01*
X16542682Y-16583150D02*
X16580777Y-16583150D01*
X16580777Y-16583150D02*
X16599825Y-16592674D01*
X16676015Y-16792674D02*
X16685539Y-16783150D01*
X16685539Y-16783150D02*
X16704587Y-16754579D01*
X16704587Y-16754579D02*
X16714111Y-16735531D01*
X16714111Y-16735531D02*
X16723634Y-16706960D01*
X16723634Y-16706960D02*
X16733158Y-16659341D01*
X16733158Y-16659341D02*
X16733158Y-16621246D01*
X16733158Y-16621246D02*
X16723634Y-16573627D01*
X16723634Y-16573627D02*
X16714111Y-16545055D01*
X16714111Y-16545055D02*
X16704587Y-16526008D01*
X16704587Y-16526008D02*
X16685539Y-16497436D01*
X16685539Y-16497436D02*
X16676015Y-16487912D01*
D10*
X9820940Y-16839470D02*
X9920000Y-16938530D01*
X9920000Y-16839470D02*
X9820940Y-16938530D01*
X9870470Y-16839470D02*
X9870470Y-16938530D01*
X9820940Y-16889000D02*
X9920000Y-16889000D01*
D11*
X10218872Y-16780484D02*
X10237920Y-16780484D01*
X10237920Y-16780484D02*
X10256967Y-16790008D01*
X10256967Y-16790008D02*
X10266491Y-16799531D01*
X10266491Y-16799531D02*
X10276015Y-16818579D01*
X10276015Y-16818579D02*
X10285539Y-16856674D01*
X10285539Y-16856674D02*
X10285539Y-16904293D01*
X10285539Y-16904293D02*
X10276015Y-16942389D01*
X10276015Y-16942389D02*
X10266491Y-16961436D01*
X10266491Y-16961436D02*
X10256967Y-16970960D01*
X10256967Y-16970960D02*
X10237920Y-16980484D01*
X10237920Y-16980484D02*
X10218872Y-16980484D01*
X10218872Y-16980484D02*
X10199824Y-16970960D01*
X10199824Y-16970960D02*
X10190301Y-16961436D01*
X10190301Y-16961436D02*
X10180777Y-16942389D01*
X10180777Y-16942389D02*
X10171253Y-16904293D01*
X10171253Y-16904293D02*
X10171253Y-16856674D01*
X10171253Y-16856674D02*
X10180777Y-16818579D01*
X10180777Y-16818579D02*
X10190301Y-16799531D01*
X10190301Y-16799531D02*
X10199824Y-16790008D01*
X10199824Y-16790008D02*
X10218872Y-16780484D01*
X10371253Y-16961436D02*
X10380777Y-16970960D01*
X10380777Y-16970960D02*
X10371253Y-16980484D01*
X10371253Y-16980484D02*
X10361729Y-16970960D01*
X10361729Y-16970960D02*
X10371253Y-16961436D01*
X10371253Y-16961436D02*
X10371253Y-16980484D01*
X10476015Y-16980484D02*
X10514110Y-16980484D01*
X10514110Y-16980484D02*
X10533158Y-16970960D01*
X10533158Y-16970960D02*
X10542682Y-16961436D01*
X10542682Y-16961436D02*
X10561729Y-16932865D01*
X10561729Y-16932865D02*
X10571253Y-16894770D01*
X10571253Y-16894770D02*
X10571253Y-16818579D01*
X10571253Y-16818579D02*
X10561729Y-16799531D01*
X10561729Y-16799531D02*
X10552205Y-16790008D01*
X10552205Y-16790008D02*
X10533158Y-16780484D01*
X10533158Y-16780484D02*
X10495063Y-16780484D01*
X10495063Y-16780484D02*
X10476015Y-16790008D01*
X10476015Y-16790008D02*
X10466491Y-16799531D01*
X10466491Y-16799531D02*
X10456967Y-16818579D01*
X10456967Y-16818579D02*
X10456967Y-16866198D01*
X10456967Y-16866198D02*
X10466491Y-16885246D01*
X10466491Y-16885246D02*
X10476015Y-16894770D01*
X10476015Y-16894770D02*
X10495063Y-16904293D01*
X10495063Y-16904293D02*
X10533158Y-16904293D01*
X10533158Y-16904293D02*
X10552205Y-16894770D01*
X10552205Y-16894770D02*
X10561729Y-16885246D01*
X10561729Y-16885246D02*
X10571253Y-16866198D01*
X10666491Y-16980484D02*
X10704586Y-16980484D01*
X10704586Y-16980484D02*
X10723634Y-16970960D01*
X10723634Y-16970960D02*
X10733158Y-16961436D01*
X10733158Y-16961436D02*
X10752205Y-16932865D01*
X10752205Y-16932865D02*
X10761729Y-16894770D01*
X10761729Y-16894770D02*
X10761729Y-16818579D01*
X10761729Y-16818579D02*
X10752205Y-16799531D01*
X10752205Y-16799531D02*
X10742682Y-16790008D01*
X10742682Y-16790008D02*
X10723634Y-16780484D01*
X10723634Y-16780484D02*
X10685539Y-16780484D01*
X10685539Y-16780484D02*
X10666491Y-16790008D01*
X10666491Y-16790008D02*
X10656967Y-16799531D01*
X10656967Y-16799531D02*
X10647444Y-16818579D01*
X10647444Y-16818579D02*
X10647444Y-16866198D01*
X10647444Y-16866198D02*
X10656967Y-16885246D01*
X10656967Y-16885246D02*
X10666491Y-16894770D01*
X10666491Y-16894770D02*
X10685539Y-16904293D01*
X10685539Y-16904293D02*
X10723634Y-16904293D01*
X10723634Y-16904293D02*
X10742682Y-16894770D01*
X10742682Y-16894770D02*
X10752205Y-16885246D01*
X10752205Y-16885246D02*
X10761729Y-16866198D01*
X10952205Y-16980484D02*
X10837920Y-16980484D01*
X10895063Y-16980484D02*
X10895063Y-16780484D01*
X10895063Y-16780484D02*
X10876015Y-16809055D01*
X10876015Y-16809055D02*
X10856967Y-16828103D01*
X10856967Y-16828103D02*
X10837920Y-16837627D01*
X11037920Y-16980484D02*
X11037920Y-16847150D01*
X11037920Y-16866198D02*
X11047444Y-16856674D01*
X11047444Y-16856674D02*
X11066491Y-16847150D01*
X11066491Y-16847150D02*
X11095063Y-16847150D01*
X11095063Y-16847150D02*
X11114110Y-16856674D01*
X11114110Y-16856674D02*
X11123634Y-16875722D01*
X11123634Y-16875722D02*
X11123634Y-16980484D01*
X11123634Y-16875722D02*
X11133158Y-16856674D01*
X11133158Y-16856674D02*
X11152205Y-16847150D01*
X11152205Y-16847150D02*
X11180777Y-16847150D01*
X11180777Y-16847150D02*
X11199824Y-16856674D01*
X11199824Y-16856674D02*
X11209348Y-16875722D01*
X11209348Y-16875722D02*
X11209348Y-16980484D01*
X11304586Y-16980484D02*
X11304586Y-16847150D01*
X11304586Y-16866198D02*
X11314110Y-16856674D01*
X11314110Y-16856674D02*
X11333158Y-16847150D01*
X11333158Y-16847150D02*
X11361729Y-16847150D01*
X11361729Y-16847150D02*
X11380777Y-16856674D01*
X11380777Y-16856674D02*
X11390301Y-16875722D01*
X11390301Y-16875722D02*
X11390301Y-16980484D01*
X11390301Y-16875722D02*
X11399824Y-16856674D01*
X11399824Y-16856674D02*
X11418872Y-16847150D01*
X11418872Y-16847150D02*
X11447443Y-16847150D01*
X11447443Y-16847150D02*
X11466491Y-16856674D01*
X11466491Y-16856674D02*
X11476015Y-16875722D01*
X11476015Y-16875722D02*
X11476015Y-16980484D01*
X11866491Y-16770960D02*
X11695063Y-17028103D01*
X12123634Y-16780484D02*
X12142682Y-16780484D01*
X12142682Y-16780484D02*
X12161729Y-16790008D01*
X12161729Y-16790008D02*
X12171253Y-16799531D01*
X12171253Y-16799531D02*
X12180777Y-16818579D01*
X12180777Y-16818579D02*
X12190301Y-16856674D01*
X12190301Y-16856674D02*
X12190301Y-16904293D01*
X12190301Y-16904293D02*
X12180777Y-16942389D01*
X12180777Y-16942389D02*
X12171253Y-16961436D01*
X12171253Y-16961436D02*
X12161729Y-16970960D01*
X12161729Y-16970960D02*
X12142682Y-16980484D01*
X12142682Y-16980484D02*
X12123634Y-16980484D01*
X12123634Y-16980484D02*
X12104586Y-16970960D01*
X12104586Y-16970960D02*
X12095063Y-16961436D01*
X12095063Y-16961436D02*
X12085539Y-16942389D01*
X12085539Y-16942389D02*
X12076015Y-16904293D01*
X12076015Y-16904293D02*
X12076015Y-16856674D01*
X12076015Y-16856674D02*
X12085539Y-16818579D01*
X12085539Y-16818579D02*
X12095063Y-16799531D01*
X12095063Y-16799531D02*
X12104586Y-16790008D01*
X12104586Y-16790008D02*
X12123634Y-16780484D01*
X12276015Y-16961436D02*
X12285539Y-16970960D01*
X12285539Y-16970960D02*
X12276015Y-16980484D01*
X12276015Y-16980484D02*
X12266491Y-16970960D01*
X12266491Y-16970960D02*
X12276015Y-16961436D01*
X12276015Y-16961436D02*
X12276015Y-16980484D01*
X12409348Y-16780484D02*
X12428396Y-16780484D01*
X12428396Y-16780484D02*
X12447444Y-16790008D01*
X12447444Y-16790008D02*
X12456967Y-16799531D01*
X12456967Y-16799531D02*
X12466491Y-16818579D01*
X12466491Y-16818579D02*
X12476015Y-16856674D01*
X12476015Y-16856674D02*
X12476015Y-16904293D01*
X12476015Y-16904293D02*
X12466491Y-16942389D01*
X12466491Y-16942389D02*
X12456967Y-16961436D01*
X12456967Y-16961436D02*
X12447444Y-16970960D01*
X12447444Y-16970960D02*
X12428396Y-16980484D01*
X12428396Y-16980484D02*
X12409348Y-16980484D01*
X12409348Y-16980484D02*
X12390301Y-16970960D01*
X12390301Y-16970960D02*
X12380777Y-16961436D01*
X12380777Y-16961436D02*
X12371253Y-16942389D01*
X12371253Y-16942389D02*
X12361729Y-16904293D01*
X12361729Y-16904293D02*
X12361729Y-16856674D01*
X12361729Y-16856674D02*
X12371253Y-16818579D01*
X12371253Y-16818579D02*
X12380777Y-16799531D01*
X12380777Y-16799531D02*
X12390301Y-16790008D01*
X12390301Y-16790008D02*
X12409348Y-16780484D01*
X12542682Y-16780484D02*
X12666491Y-16780484D01*
X12666491Y-16780484D02*
X12599825Y-16856674D01*
X12599825Y-16856674D02*
X12628396Y-16856674D01*
X12628396Y-16856674D02*
X12647444Y-16866198D01*
X12647444Y-16866198D02*
X12656967Y-16875722D01*
X12656967Y-16875722D02*
X12666491Y-16894770D01*
X12666491Y-16894770D02*
X12666491Y-16942389D01*
X12666491Y-16942389D02*
X12656967Y-16961436D01*
X12656967Y-16961436D02*
X12647444Y-16970960D01*
X12647444Y-16970960D02*
X12628396Y-16980484D01*
X12628396Y-16980484D02*
X12571253Y-16980484D01*
X12571253Y-16980484D02*
X12552206Y-16970960D01*
X12552206Y-16970960D02*
X12542682Y-16961436D01*
X12761729Y-16980484D02*
X12799825Y-16980484D01*
X12799825Y-16980484D02*
X12818872Y-16970960D01*
X12818872Y-16970960D02*
X12828396Y-16961436D01*
X12828396Y-16961436D02*
X12847444Y-16932865D01*
X12847444Y-16932865D02*
X12856967Y-16894770D01*
X12856967Y-16894770D02*
X12856967Y-16818579D01*
X12856967Y-16818579D02*
X12847444Y-16799531D01*
X12847444Y-16799531D02*
X12837920Y-16790008D01*
X12837920Y-16790008D02*
X12818872Y-16780484D01*
X12818872Y-16780484D02*
X12780777Y-16780484D01*
X12780777Y-16780484D02*
X12761729Y-16790008D01*
X12761729Y-16790008D02*
X12752206Y-16799531D01*
X12752206Y-16799531D02*
X12742682Y-16818579D01*
X12742682Y-16818579D02*
X12742682Y-16866198D01*
X12742682Y-16866198D02*
X12752206Y-16885246D01*
X12752206Y-16885246D02*
X12761729Y-16894770D01*
X12761729Y-16894770D02*
X12780777Y-16904293D01*
X12780777Y-16904293D02*
X12818872Y-16904293D01*
X12818872Y-16904293D02*
X12837920Y-16894770D01*
X12837920Y-16894770D02*
X12847444Y-16885246D01*
X12847444Y-16885246D02*
X12856967Y-16866198D01*
X12980777Y-16780484D02*
X12999825Y-16780484D01*
X12999825Y-16780484D02*
X13018872Y-16790008D01*
X13018872Y-16790008D02*
X13028396Y-16799531D01*
X13028396Y-16799531D02*
X13037920Y-16818579D01*
X13037920Y-16818579D02*
X13047444Y-16856674D01*
X13047444Y-16856674D02*
X13047444Y-16904293D01*
X13047444Y-16904293D02*
X13037920Y-16942389D01*
X13037920Y-16942389D02*
X13028396Y-16961436D01*
X13028396Y-16961436D02*
X13018872Y-16970960D01*
X13018872Y-16970960D02*
X12999825Y-16980484D01*
X12999825Y-16980484D02*
X12980777Y-16980484D01*
X12980777Y-16980484D02*
X12961729Y-16970960D01*
X12961729Y-16970960D02*
X12952206Y-16961436D01*
X12952206Y-16961436D02*
X12942682Y-16942389D01*
X12942682Y-16942389D02*
X12933158Y-16904293D01*
X12933158Y-16904293D02*
X12933158Y-16856674D01*
X12933158Y-16856674D02*
X12942682Y-16818579D01*
X12942682Y-16818579D02*
X12952206Y-16799531D01*
X12952206Y-16799531D02*
X12961729Y-16790008D01*
X12961729Y-16790008D02*
X12980777Y-16780484D01*
X13123634Y-16780484D02*
X13123634Y-16818579D01*
X13199825Y-16780484D02*
X13199825Y-16818579D01*
X13495063Y-17056674D02*
X13485539Y-17047150D01*
X13485539Y-17047150D02*
X13466491Y-17018579D01*
X13466491Y-17018579D02*
X13456968Y-16999531D01*
X13456968Y-16999531D02*
X13447444Y-16970960D01*
X13447444Y-16970960D02*
X13437920Y-16923341D01*
X13437920Y-16923341D02*
X13437920Y-16885246D01*
X13437920Y-16885246D02*
X13447444Y-16837627D01*
X13447444Y-16837627D02*
X13456968Y-16809055D01*
X13456968Y-16809055D02*
X13466491Y-16790008D01*
X13466491Y-16790008D02*
X13485539Y-16761436D01*
X13485539Y-16761436D02*
X13495063Y-16751912D01*
X13552206Y-16780484D02*
X13676015Y-16780484D01*
X13676015Y-16780484D02*
X13609348Y-16856674D01*
X13609348Y-16856674D02*
X13637920Y-16856674D01*
X13637920Y-16856674D02*
X13656968Y-16866198D01*
X13656968Y-16866198D02*
X13666491Y-16875722D01*
X13666491Y-16875722D02*
X13676015Y-16894770D01*
X13676015Y-16894770D02*
X13676015Y-16942389D01*
X13676015Y-16942389D02*
X13666491Y-16961436D01*
X13666491Y-16961436D02*
X13656968Y-16970960D01*
X13656968Y-16970960D02*
X13637920Y-16980484D01*
X13637920Y-16980484D02*
X13580777Y-16980484D01*
X13580777Y-16980484D02*
X13561729Y-16970960D01*
X13561729Y-16970960D02*
X13552206Y-16961436D01*
X13914110Y-16980484D02*
X13914110Y-16780484D01*
X13999825Y-16980484D02*
X13999825Y-16875722D01*
X13999825Y-16875722D02*
X13990301Y-16856674D01*
X13990301Y-16856674D02*
X13971253Y-16847150D01*
X13971253Y-16847150D02*
X13942682Y-16847150D01*
X13942682Y-16847150D02*
X13923634Y-16856674D01*
X13923634Y-16856674D02*
X13914110Y-16866198D01*
X14123634Y-16980484D02*
X14104587Y-16970960D01*
X14104587Y-16970960D02*
X14095063Y-16961436D01*
X14095063Y-16961436D02*
X14085539Y-16942389D01*
X14085539Y-16942389D02*
X14085539Y-16885246D01*
X14085539Y-16885246D02*
X14095063Y-16866198D01*
X14095063Y-16866198D02*
X14104587Y-16856674D01*
X14104587Y-16856674D02*
X14123634Y-16847150D01*
X14123634Y-16847150D02*
X14152206Y-16847150D01*
X14152206Y-16847150D02*
X14171253Y-16856674D01*
X14171253Y-16856674D02*
X14180777Y-16866198D01*
X14180777Y-16866198D02*
X14190301Y-16885246D01*
X14190301Y-16885246D02*
X14190301Y-16942389D01*
X14190301Y-16942389D02*
X14180777Y-16961436D01*
X14180777Y-16961436D02*
X14171253Y-16970960D01*
X14171253Y-16970960D02*
X14152206Y-16980484D01*
X14152206Y-16980484D02*
X14123634Y-16980484D01*
X14304587Y-16980484D02*
X14285539Y-16970960D01*
X14285539Y-16970960D02*
X14276015Y-16951912D01*
X14276015Y-16951912D02*
X14276015Y-16780484D01*
X14456968Y-16970960D02*
X14437920Y-16980484D01*
X14437920Y-16980484D02*
X14399825Y-16980484D01*
X14399825Y-16980484D02*
X14380777Y-16970960D01*
X14380777Y-16970960D02*
X14371253Y-16951912D01*
X14371253Y-16951912D02*
X14371253Y-16875722D01*
X14371253Y-16875722D02*
X14380777Y-16856674D01*
X14380777Y-16856674D02*
X14399825Y-16847150D01*
X14399825Y-16847150D02*
X14437920Y-16847150D01*
X14437920Y-16847150D02*
X14456968Y-16856674D01*
X14456968Y-16856674D02*
X14466491Y-16875722D01*
X14466491Y-16875722D02*
X14466491Y-16894770D01*
X14466491Y-16894770D02*
X14371253Y-16913817D01*
X14542682Y-16970960D02*
X14561730Y-16980484D01*
X14561730Y-16980484D02*
X14599825Y-16980484D01*
X14599825Y-16980484D02*
X14618872Y-16970960D01*
X14618872Y-16970960D02*
X14628396Y-16951912D01*
X14628396Y-16951912D02*
X14628396Y-16942389D01*
X14628396Y-16942389D02*
X14618872Y-16923341D01*
X14618872Y-16923341D02*
X14599825Y-16913817D01*
X14599825Y-16913817D02*
X14571253Y-16913817D01*
X14571253Y-16913817D02*
X14552206Y-16904293D01*
X14552206Y-16904293D02*
X14542682Y-16885246D01*
X14542682Y-16885246D02*
X14542682Y-16875722D01*
X14542682Y-16875722D02*
X14552206Y-16856674D01*
X14552206Y-16856674D02*
X14571253Y-16847150D01*
X14571253Y-16847150D02*
X14599825Y-16847150D01*
X14599825Y-16847150D02*
X14618872Y-16856674D01*
X14695063Y-17056674D02*
X14704587Y-17047150D01*
X14704587Y-17047150D02*
X14723634Y-17018579D01*
X14723634Y-17018579D02*
X14733158Y-16999531D01*
X14733158Y-16999531D02*
X14742682Y-16970960D01*
X14742682Y-16970960D02*
X14752206Y-16923341D01*
X14752206Y-16923341D02*
X14752206Y-16885246D01*
X14752206Y-16885246D02*
X14742682Y-16837627D01*
X14742682Y-16837627D02*
X14733158Y-16809055D01*
X14733158Y-16809055D02*
X14723634Y-16790008D01*
X14723634Y-16790008D02*
X14704587Y-16761436D01*
X14704587Y-16761436D02*
X14695063Y-16751912D01*
X15056968Y-17056674D02*
X15047444Y-17047150D01*
X15047444Y-17047150D02*
X15028396Y-17018579D01*
X15028396Y-17018579D02*
X15018872Y-16999531D01*
X15018872Y-16999531D02*
X15009349Y-16970960D01*
X15009349Y-16970960D02*
X14999825Y-16923341D01*
X14999825Y-16923341D02*
X14999825Y-16885246D01*
X14999825Y-16885246D02*
X15009349Y-16837627D01*
X15009349Y-16837627D02*
X15018872Y-16809055D01*
X15018872Y-16809055D02*
X15028396Y-16790008D01*
X15028396Y-16790008D02*
X15047444Y-16761436D01*
X15047444Y-16761436D02*
X15056968Y-16751912D01*
X15133158Y-16847150D02*
X15133158Y-16980484D01*
X15133158Y-16866198D02*
X15142682Y-16856674D01*
X15142682Y-16856674D02*
X15161730Y-16847150D01*
X15161730Y-16847150D02*
X15190301Y-16847150D01*
X15190301Y-16847150D02*
X15209349Y-16856674D01*
X15209349Y-16856674D02*
X15218872Y-16875722D01*
X15218872Y-16875722D02*
X15218872Y-16980484D01*
X15342682Y-16980484D02*
X15323634Y-16970960D01*
X15323634Y-16970960D02*
X15314111Y-16961436D01*
X15314111Y-16961436D02*
X15304587Y-16942389D01*
X15304587Y-16942389D02*
X15304587Y-16885246D01*
X15304587Y-16885246D02*
X15314111Y-16866198D01*
X15314111Y-16866198D02*
X15323634Y-16856674D01*
X15323634Y-16856674D02*
X15342682Y-16847150D01*
X15342682Y-16847150D02*
X15371253Y-16847150D01*
X15371253Y-16847150D02*
X15390301Y-16856674D01*
X15390301Y-16856674D02*
X15399825Y-16866198D01*
X15399825Y-16866198D02*
X15409349Y-16885246D01*
X15409349Y-16885246D02*
X15409349Y-16942389D01*
X15409349Y-16942389D02*
X15399825Y-16961436D01*
X15399825Y-16961436D02*
X15390301Y-16970960D01*
X15390301Y-16970960D02*
X15371253Y-16980484D01*
X15371253Y-16980484D02*
X15342682Y-16980484D01*
X15466492Y-16847150D02*
X15542682Y-16847150D01*
X15495063Y-16780484D02*
X15495063Y-16951912D01*
X15495063Y-16951912D02*
X15504587Y-16970960D01*
X15504587Y-16970960D02*
X15523634Y-16980484D01*
X15523634Y-16980484D02*
X15542682Y-16980484D01*
X15761730Y-16847150D02*
X15761730Y-17047150D01*
X15761730Y-16856674D02*
X15780777Y-16847150D01*
X15780777Y-16847150D02*
X15818873Y-16847150D01*
X15818873Y-16847150D02*
X15837920Y-16856674D01*
X15837920Y-16856674D02*
X15847444Y-16866198D01*
X15847444Y-16866198D02*
X15856968Y-16885246D01*
X15856968Y-16885246D02*
X15856968Y-16942389D01*
X15856968Y-16942389D02*
X15847444Y-16961436D01*
X15847444Y-16961436D02*
X15837920Y-16970960D01*
X15837920Y-16970960D02*
X15818873Y-16980484D01*
X15818873Y-16980484D02*
X15780777Y-16980484D01*
X15780777Y-16980484D02*
X15761730Y-16970960D01*
X15971253Y-16980484D02*
X15952206Y-16970960D01*
X15952206Y-16970960D02*
X15942682Y-16951912D01*
X15942682Y-16951912D02*
X15942682Y-16780484D01*
X16133158Y-16980484D02*
X16133158Y-16875722D01*
X16133158Y-16875722D02*
X16123634Y-16856674D01*
X16123634Y-16856674D02*
X16104587Y-16847150D01*
X16104587Y-16847150D02*
X16066492Y-16847150D01*
X16066492Y-16847150D02*
X16047444Y-16856674D01*
X16133158Y-16970960D02*
X16114111Y-16980484D01*
X16114111Y-16980484D02*
X16066492Y-16980484D01*
X16066492Y-16980484D02*
X16047444Y-16970960D01*
X16047444Y-16970960D02*
X16037920Y-16951912D01*
X16037920Y-16951912D02*
X16037920Y-16932865D01*
X16037920Y-16932865D02*
X16047444Y-16913817D01*
X16047444Y-16913817D02*
X16066492Y-16904293D01*
X16066492Y-16904293D02*
X16114111Y-16904293D01*
X16114111Y-16904293D02*
X16133158Y-16894770D01*
X16199825Y-16847150D02*
X16276015Y-16847150D01*
X16228396Y-16780484D02*
X16228396Y-16951912D01*
X16228396Y-16951912D02*
X16237920Y-16970960D01*
X16237920Y-16970960D02*
X16256968Y-16980484D01*
X16256968Y-16980484D02*
X16276015Y-16980484D01*
X16418873Y-16970960D02*
X16399825Y-16980484D01*
X16399825Y-16980484D02*
X16361730Y-16980484D01*
X16361730Y-16980484D02*
X16342682Y-16970960D01*
X16342682Y-16970960D02*
X16333158Y-16951912D01*
X16333158Y-16951912D02*
X16333158Y-16875722D01*
X16333158Y-16875722D02*
X16342682Y-16856674D01*
X16342682Y-16856674D02*
X16361730Y-16847150D01*
X16361730Y-16847150D02*
X16399825Y-16847150D01*
X16399825Y-16847150D02*
X16418873Y-16856674D01*
X16418873Y-16856674D02*
X16428396Y-16875722D01*
X16428396Y-16875722D02*
X16428396Y-16894770D01*
X16428396Y-16894770D02*
X16333158Y-16913817D01*
X16599825Y-16980484D02*
X16599825Y-16780484D01*
X16599825Y-16970960D02*
X16580777Y-16980484D01*
X16580777Y-16980484D02*
X16542682Y-16980484D01*
X16542682Y-16980484D02*
X16523634Y-16970960D01*
X16523634Y-16970960D02*
X16514111Y-16961436D01*
X16514111Y-16961436D02*
X16504587Y-16942389D01*
X16504587Y-16942389D02*
X16504587Y-16885246D01*
X16504587Y-16885246D02*
X16514111Y-16866198D01*
X16514111Y-16866198D02*
X16523634Y-16856674D01*
X16523634Y-16856674D02*
X16542682Y-16847150D01*
X16542682Y-16847150D02*
X16580777Y-16847150D01*
X16580777Y-16847150D02*
X16599825Y-16856674D01*
X16676015Y-17056674D02*
X16685539Y-17047150D01*
X16685539Y-17047150D02*
X16704587Y-17018579D01*
X16704587Y-17018579D02*
X16714111Y-16999531D01*
X16714111Y-16999531D02*
X16723634Y-16970960D01*
X16723634Y-16970960D02*
X16733158Y-16923341D01*
X16733158Y-16923341D02*
X16733158Y-16885246D01*
X16733158Y-16885246D02*
X16723634Y-16837627D01*
X16723634Y-16837627D02*
X16714111Y-16809055D01*
X16714111Y-16809055D02*
X16704587Y-16790008D01*
X16704587Y-16790008D02*
X16685539Y-16761436D01*
X16685539Y-16761436D02*
X16676015Y-16751912D01*
D10*
X9820000Y-17103000D02*
X9920000Y-17203000D01*
X9920000Y-17103000D02*
X9820000Y-17203000D01*
X9905356Y-17188356D02*
X9905356Y-17117644D01*
X9834644Y-17117644D01*
X9834644Y-17188356D01*
X9905356Y-17188356D01*
D11*
X10285539Y-17244484D02*
X10171253Y-17244484D01*
X10228396Y-17244484D02*
X10228396Y-17044484D01*
X10228396Y-17044484D02*
X10209348Y-17073055D01*
X10209348Y-17073055D02*
X10190301Y-17092103D01*
X10190301Y-17092103D02*
X10171253Y-17101627D01*
X10371253Y-17225436D02*
X10380777Y-17234960D01*
X10380777Y-17234960D02*
X10371253Y-17244484D01*
X10371253Y-17244484D02*
X10361729Y-17234960D01*
X10361729Y-17234960D02*
X10371253Y-17225436D01*
X10371253Y-17225436D02*
X10371253Y-17244484D01*
X10504586Y-17044484D02*
X10523634Y-17044484D01*
X10523634Y-17044484D02*
X10542682Y-17054008D01*
X10542682Y-17054008D02*
X10552205Y-17063531D01*
X10552205Y-17063531D02*
X10561729Y-17082579D01*
X10561729Y-17082579D02*
X10571253Y-17120674D01*
X10571253Y-17120674D02*
X10571253Y-17168293D01*
X10571253Y-17168293D02*
X10561729Y-17206389D01*
X10561729Y-17206389D02*
X10552205Y-17225436D01*
X10552205Y-17225436D02*
X10542682Y-17234960D01*
X10542682Y-17234960D02*
X10523634Y-17244484D01*
X10523634Y-17244484D02*
X10504586Y-17244484D01*
X10504586Y-17244484D02*
X10485539Y-17234960D01*
X10485539Y-17234960D02*
X10476015Y-17225436D01*
X10476015Y-17225436D02*
X10466491Y-17206389D01*
X10466491Y-17206389D02*
X10456967Y-17168293D01*
X10456967Y-17168293D02*
X10456967Y-17120674D01*
X10456967Y-17120674D02*
X10466491Y-17082579D01*
X10466491Y-17082579D02*
X10476015Y-17063531D01*
X10476015Y-17063531D02*
X10485539Y-17054008D01*
X10485539Y-17054008D02*
X10504586Y-17044484D01*
X10695063Y-17044484D02*
X10714110Y-17044484D01*
X10714110Y-17044484D02*
X10733158Y-17054008D01*
X10733158Y-17054008D02*
X10742682Y-17063531D01*
X10742682Y-17063531D02*
X10752205Y-17082579D01*
X10752205Y-17082579D02*
X10761729Y-17120674D01*
X10761729Y-17120674D02*
X10761729Y-17168293D01*
X10761729Y-17168293D02*
X10752205Y-17206389D01*
X10752205Y-17206389D02*
X10742682Y-17225436D01*
X10742682Y-17225436D02*
X10733158Y-17234960D01*
X10733158Y-17234960D02*
X10714110Y-17244484D01*
X10714110Y-17244484D02*
X10695063Y-17244484D01*
X10695063Y-17244484D02*
X10676015Y-17234960D01*
X10676015Y-17234960D02*
X10666491Y-17225436D01*
X10666491Y-17225436D02*
X10656967Y-17206389D01*
X10656967Y-17206389D02*
X10647444Y-17168293D01*
X10647444Y-17168293D02*
X10647444Y-17120674D01*
X10647444Y-17120674D02*
X10656967Y-17082579D01*
X10656967Y-17082579D02*
X10666491Y-17063531D01*
X10666491Y-17063531D02*
X10676015Y-17054008D01*
X10676015Y-17054008D02*
X10695063Y-17044484D01*
X10885539Y-17044484D02*
X10904586Y-17044484D01*
X10904586Y-17044484D02*
X10923634Y-17054008D01*
X10923634Y-17054008D02*
X10933158Y-17063531D01*
X10933158Y-17063531D02*
X10942682Y-17082579D01*
X10942682Y-17082579D02*
X10952205Y-17120674D01*
X10952205Y-17120674D02*
X10952205Y-17168293D01*
X10952205Y-17168293D02*
X10942682Y-17206389D01*
X10942682Y-17206389D02*
X10933158Y-17225436D01*
X10933158Y-17225436D02*
X10923634Y-17234960D01*
X10923634Y-17234960D02*
X10904586Y-17244484D01*
X10904586Y-17244484D02*
X10885539Y-17244484D01*
X10885539Y-17244484D02*
X10866491Y-17234960D01*
X10866491Y-17234960D02*
X10856967Y-17225436D01*
X10856967Y-17225436D02*
X10847444Y-17206389D01*
X10847444Y-17206389D02*
X10837920Y-17168293D01*
X10837920Y-17168293D02*
X10837920Y-17120674D01*
X10837920Y-17120674D02*
X10847444Y-17082579D01*
X10847444Y-17082579D02*
X10856967Y-17063531D01*
X10856967Y-17063531D02*
X10866491Y-17054008D01*
X10866491Y-17054008D02*
X10885539Y-17044484D01*
X11037920Y-17244484D02*
X11037920Y-17111150D01*
X11037920Y-17130198D02*
X11047444Y-17120674D01*
X11047444Y-17120674D02*
X11066491Y-17111150D01*
X11066491Y-17111150D02*
X11095063Y-17111150D01*
X11095063Y-17111150D02*
X11114110Y-17120674D01*
X11114110Y-17120674D02*
X11123634Y-17139722D01*
X11123634Y-17139722D02*
X11123634Y-17244484D01*
X11123634Y-17139722D02*
X11133158Y-17120674D01*
X11133158Y-17120674D02*
X11152205Y-17111150D01*
X11152205Y-17111150D02*
X11180777Y-17111150D01*
X11180777Y-17111150D02*
X11199824Y-17120674D01*
X11199824Y-17120674D02*
X11209348Y-17139722D01*
X11209348Y-17139722D02*
X11209348Y-17244484D01*
X11304586Y-17244484D02*
X11304586Y-17111150D01*
X11304586Y-17130198D02*
X11314110Y-17120674D01*
X11314110Y-17120674D02*
X11333158Y-17111150D01*
X11333158Y-17111150D02*
X11361729Y-17111150D01*
X11361729Y-17111150D02*
X11380777Y-17120674D01*
X11380777Y-17120674D02*
X11390301Y-17139722D01*
X11390301Y-17139722D02*
X11390301Y-17244484D01*
X11390301Y-17139722D02*
X11399824Y-17120674D01*
X11399824Y-17120674D02*
X11418872Y-17111150D01*
X11418872Y-17111150D02*
X11447443Y-17111150D01*
X11447443Y-17111150D02*
X11466491Y-17120674D01*
X11466491Y-17120674D02*
X11476015Y-17139722D01*
X11476015Y-17139722D02*
X11476015Y-17244484D01*
X11866491Y-17034960D02*
X11695063Y-17292103D01*
X12123634Y-17044484D02*
X12142682Y-17044484D01*
X12142682Y-17044484D02*
X12161729Y-17054008D01*
X12161729Y-17054008D02*
X12171253Y-17063531D01*
X12171253Y-17063531D02*
X12180777Y-17082579D01*
X12180777Y-17082579D02*
X12190301Y-17120674D01*
X12190301Y-17120674D02*
X12190301Y-17168293D01*
X12190301Y-17168293D02*
X12180777Y-17206389D01*
X12180777Y-17206389D02*
X12171253Y-17225436D01*
X12171253Y-17225436D02*
X12161729Y-17234960D01*
X12161729Y-17234960D02*
X12142682Y-17244484D01*
X12142682Y-17244484D02*
X12123634Y-17244484D01*
X12123634Y-17244484D02*
X12104586Y-17234960D01*
X12104586Y-17234960D02*
X12095063Y-17225436D01*
X12095063Y-17225436D02*
X12085539Y-17206389D01*
X12085539Y-17206389D02*
X12076015Y-17168293D01*
X12076015Y-17168293D02*
X12076015Y-17120674D01*
X12076015Y-17120674D02*
X12085539Y-17082579D01*
X12085539Y-17082579D02*
X12095063Y-17063531D01*
X12095063Y-17063531D02*
X12104586Y-17054008D01*
X12104586Y-17054008D02*
X12123634Y-17044484D01*
X12276015Y-17225436D02*
X12285539Y-17234960D01*
X12285539Y-17234960D02*
X12276015Y-17244484D01*
X12276015Y-17244484D02*
X12266491Y-17234960D01*
X12266491Y-17234960D02*
X12276015Y-17225436D01*
X12276015Y-17225436D02*
X12276015Y-17244484D01*
X12409348Y-17044484D02*
X12428396Y-17044484D01*
X12428396Y-17044484D02*
X12447444Y-17054008D01*
X12447444Y-17054008D02*
X12456967Y-17063531D01*
X12456967Y-17063531D02*
X12466491Y-17082579D01*
X12466491Y-17082579D02*
X12476015Y-17120674D01*
X12476015Y-17120674D02*
X12476015Y-17168293D01*
X12476015Y-17168293D02*
X12466491Y-17206389D01*
X12466491Y-17206389D02*
X12456967Y-17225436D01*
X12456967Y-17225436D02*
X12447444Y-17234960D01*
X12447444Y-17234960D02*
X12428396Y-17244484D01*
X12428396Y-17244484D02*
X12409348Y-17244484D01*
X12409348Y-17244484D02*
X12390301Y-17234960D01*
X12390301Y-17234960D02*
X12380777Y-17225436D01*
X12380777Y-17225436D02*
X12371253Y-17206389D01*
X12371253Y-17206389D02*
X12361729Y-17168293D01*
X12361729Y-17168293D02*
X12361729Y-17120674D01*
X12361729Y-17120674D02*
X12371253Y-17082579D01*
X12371253Y-17082579D02*
X12380777Y-17063531D01*
X12380777Y-17063531D02*
X12390301Y-17054008D01*
X12390301Y-17054008D02*
X12409348Y-17044484D01*
X12542682Y-17044484D02*
X12666491Y-17044484D01*
X12666491Y-17044484D02*
X12599825Y-17120674D01*
X12599825Y-17120674D02*
X12628396Y-17120674D01*
X12628396Y-17120674D02*
X12647444Y-17130198D01*
X12647444Y-17130198D02*
X12656967Y-17139722D01*
X12656967Y-17139722D02*
X12666491Y-17158770D01*
X12666491Y-17158770D02*
X12666491Y-17206389D01*
X12666491Y-17206389D02*
X12656967Y-17225436D01*
X12656967Y-17225436D02*
X12647444Y-17234960D01*
X12647444Y-17234960D02*
X12628396Y-17244484D01*
X12628396Y-17244484D02*
X12571253Y-17244484D01*
X12571253Y-17244484D02*
X12552206Y-17234960D01*
X12552206Y-17234960D02*
X12542682Y-17225436D01*
X12761729Y-17244484D02*
X12799825Y-17244484D01*
X12799825Y-17244484D02*
X12818872Y-17234960D01*
X12818872Y-17234960D02*
X12828396Y-17225436D01*
X12828396Y-17225436D02*
X12847444Y-17196865D01*
X12847444Y-17196865D02*
X12856967Y-17158770D01*
X12856967Y-17158770D02*
X12856967Y-17082579D01*
X12856967Y-17082579D02*
X12847444Y-17063531D01*
X12847444Y-17063531D02*
X12837920Y-17054008D01*
X12837920Y-17054008D02*
X12818872Y-17044484D01*
X12818872Y-17044484D02*
X12780777Y-17044484D01*
X12780777Y-17044484D02*
X12761729Y-17054008D01*
X12761729Y-17054008D02*
X12752206Y-17063531D01*
X12752206Y-17063531D02*
X12742682Y-17082579D01*
X12742682Y-17082579D02*
X12742682Y-17130198D01*
X12742682Y-17130198D02*
X12752206Y-17149246D01*
X12752206Y-17149246D02*
X12761729Y-17158770D01*
X12761729Y-17158770D02*
X12780777Y-17168293D01*
X12780777Y-17168293D02*
X12818872Y-17168293D01*
X12818872Y-17168293D02*
X12837920Y-17158770D01*
X12837920Y-17158770D02*
X12847444Y-17149246D01*
X12847444Y-17149246D02*
X12856967Y-17130198D01*
X13028396Y-17111150D02*
X13028396Y-17244484D01*
X12980777Y-17034960D02*
X12933158Y-17177817D01*
X12933158Y-17177817D02*
X13056967Y-17177817D01*
X13123634Y-17044484D02*
X13123634Y-17082579D01*
X13199825Y-17044484D02*
X13199825Y-17082579D01*
X13495063Y-17320674D02*
X13485539Y-17311150D01*
X13485539Y-17311150D02*
X13466491Y-17282579D01*
X13466491Y-17282579D02*
X13456968Y-17263531D01*
X13456968Y-17263531D02*
X13447444Y-17234960D01*
X13447444Y-17234960D02*
X13437920Y-17187341D01*
X13437920Y-17187341D02*
X13437920Y-17149246D01*
X13437920Y-17149246D02*
X13447444Y-17101627D01*
X13447444Y-17101627D02*
X13456968Y-17073055D01*
X13456968Y-17073055D02*
X13466491Y-17054008D01*
X13466491Y-17054008D02*
X13485539Y-17025436D01*
X13485539Y-17025436D02*
X13495063Y-17015912D01*
X13561729Y-17063531D02*
X13571253Y-17054008D01*
X13571253Y-17054008D02*
X13590301Y-17044484D01*
X13590301Y-17044484D02*
X13637920Y-17044484D01*
X13637920Y-17044484D02*
X13656968Y-17054008D01*
X13656968Y-17054008D02*
X13666491Y-17063531D01*
X13666491Y-17063531D02*
X13676015Y-17082579D01*
X13676015Y-17082579D02*
X13676015Y-17101627D01*
X13676015Y-17101627D02*
X13666491Y-17130198D01*
X13666491Y-17130198D02*
X13552206Y-17244484D01*
X13552206Y-17244484D02*
X13676015Y-17244484D01*
X13914110Y-17244484D02*
X13914110Y-17044484D01*
X13999825Y-17244484D02*
X13999825Y-17139722D01*
X13999825Y-17139722D02*
X13990301Y-17120674D01*
X13990301Y-17120674D02*
X13971253Y-17111150D01*
X13971253Y-17111150D02*
X13942682Y-17111150D01*
X13942682Y-17111150D02*
X13923634Y-17120674D01*
X13923634Y-17120674D02*
X13914110Y-17130198D01*
X14123634Y-17244484D02*
X14104587Y-17234960D01*
X14104587Y-17234960D02*
X14095063Y-17225436D01*
X14095063Y-17225436D02*
X14085539Y-17206389D01*
X14085539Y-17206389D02*
X14085539Y-17149246D01*
X14085539Y-17149246D02*
X14095063Y-17130198D01*
X14095063Y-17130198D02*
X14104587Y-17120674D01*
X14104587Y-17120674D02*
X14123634Y-17111150D01*
X14123634Y-17111150D02*
X14152206Y-17111150D01*
X14152206Y-17111150D02*
X14171253Y-17120674D01*
X14171253Y-17120674D02*
X14180777Y-17130198D01*
X14180777Y-17130198D02*
X14190301Y-17149246D01*
X14190301Y-17149246D02*
X14190301Y-17206389D01*
X14190301Y-17206389D02*
X14180777Y-17225436D01*
X14180777Y-17225436D02*
X14171253Y-17234960D01*
X14171253Y-17234960D02*
X14152206Y-17244484D01*
X14152206Y-17244484D02*
X14123634Y-17244484D01*
X14304587Y-17244484D02*
X14285539Y-17234960D01*
X14285539Y-17234960D02*
X14276015Y-17215912D01*
X14276015Y-17215912D02*
X14276015Y-17044484D01*
X14456968Y-17234960D02*
X14437920Y-17244484D01*
X14437920Y-17244484D02*
X14399825Y-17244484D01*
X14399825Y-17244484D02*
X14380777Y-17234960D01*
X14380777Y-17234960D02*
X14371253Y-17215912D01*
X14371253Y-17215912D02*
X14371253Y-17139722D01*
X14371253Y-17139722D02*
X14380777Y-17120674D01*
X14380777Y-17120674D02*
X14399825Y-17111150D01*
X14399825Y-17111150D02*
X14437920Y-17111150D01*
X14437920Y-17111150D02*
X14456968Y-17120674D01*
X14456968Y-17120674D02*
X14466491Y-17139722D01*
X14466491Y-17139722D02*
X14466491Y-17158770D01*
X14466491Y-17158770D02*
X14371253Y-17177817D01*
X14542682Y-17234960D02*
X14561730Y-17244484D01*
X14561730Y-17244484D02*
X14599825Y-17244484D01*
X14599825Y-17244484D02*
X14618872Y-17234960D01*
X14618872Y-17234960D02*
X14628396Y-17215912D01*
X14628396Y-17215912D02*
X14628396Y-17206389D01*
X14628396Y-17206389D02*
X14618872Y-17187341D01*
X14618872Y-17187341D02*
X14599825Y-17177817D01*
X14599825Y-17177817D02*
X14571253Y-17177817D01*
X14571253Y-17177817D02*
X14552206Y-17168293D01*
X14552206Y-17168293D02*
X14542682Y-17149246D01*
X14542682Y-17149246D02*
X14542682Y-17139722D01*
X14542682Y-17139722D02*
X14552206Y-17120674D01*
X14552206Y-17120674D02*
X14571253Y-17111150D01*
X14571253Y-17111150D02*
X14599825Y-17111150D01*
X14599825Y-17111150D02*
X14618872Y-17120674D01*
X14695063Y-17320674D02*
X14704587Y-17311150D01*
X14704587Y-17311150D02*
X14723634Y-17282579D01*
X14723634Y-17282579D02*
X14733158Y-17263531D01*
X14733158Y-17263531D02*
X14742682Y-17234960D01*
X14742682Y-17234960D02*
X14752206Y-17187341D01*
X14752206Y-17187341D02*
X14752206Y-17149246D01*
X14752206Y-17149246D02*
X14742682Y-17101627D01*
X14742682Y-17101627D02*
X14733158Y-17073055D01*
X14733158Y-17073055D02*
X14723634Y-17054008D01*
X14723634Y-17054008D02*
X14704587Y-17025436D01*
X14704587Y-17025436D02*
X14695063Y-17015912D01*
X15056968Y-17320674D02*
X15047444Y-17311150D01*
X15047444Y-17311150D02*
X15028396Y-17282579D01*
X15028396Y-17282579D02*
X15018872Y-17263531D01*
X15018872Y-17263531D02*
X15009349Y-17234960D01*
X15009349Y-17234960D02*
X14999825Y-17187341D01*
X14999825Y-17187341D02*
X14999825Y-17149246D01*
X14999825Y-17149246D02*
X15009349Y-17101627D01*
X15009349Y-17101627D02*
X15018872Y-17073055D01*
X15018872Y-17073055D02*
X15028396Y-17054008D01*
X15028396Y-17054008D02*
X15047444Y-17025436D01*
X15047444Y-17025436D02*
X15056968Y-17015912D01*
X15133158Y-17111150D02*
X15133158Y-17244484D01*
X15133158Y-17130198D02*
X15142682Y-17120674D01*
X15142682Y-17120674D02*
X15161730Y-17111150D01*
X15161730Y-17111150D02*
X15190301Y-17111150D01*
X15190301Y-17111150D02*
X15209349Y-17120674D01*
X15209349Y-17120674D02*
X15218872Y-17139722D01*
X15218872Y-17139722D02*
X15218872Y-17244484D01*
X15342682Y-17244484D02*
X15323634Y-17234960D01*
X15323634Y-17234960D02*
X15314111Y-17225436D01*
X15314111Y-17225436D02*
X15304587Y-17206389D01*
X15304587Y-17206389D02*
X15304587Y-17149246D01*
X15304587Y-17149246D02*
X15314111Y-17130198D01*
X15314111Y-17130198D02*
X15323634Y-17120674D01*
X15323634Y-17120674D02*
X15342682Y-17111150D01*
X15342682Y-17111150D02*
X15371253Y-17111150D01*
X15371253Y-17111150D02*
X15390301Y-17120674D01*
X15390301Y-17120674D02*
X15399825Y-17130198D01*
X15399825Y-17130198D02*
X15409349Y-17149246D01*
X15409349Y-17149246D02*
X15409349Y-17206389D01*
X15409349Y-17206389D02*
X15399825Y-17225436D01*
X15399825Y-17225436D02*
X15390301Y-17234960D01*
X15390301Y-17234960D02*
X15371253Y-17244484D01*
X15371253Y-17244484D02*
X15342682Y-17244484D01*
X15466492Y-17111150D02*
X15542682Y-17111150D01*
X15495063Y-17044484D02*
X15495063Y-17215912D01*
X15495063Y-17215912D02*
X15504587Y-17234960D01*
X15504587Y-17234960D02*
X15523634Y-17244484D01*
X15523634Y-17244484D02*
X15542682Y-17244484D01*
X15761730Y-17111150D02*
X15761730Y-17311150D01*
X15761730Y-17120674D02*
X15780777Y-17111150D01*
X15780777Y-17111150D02*
X15818873Y-17111150D01*
X15818873Y-17111150D02*
X15837920Y-17120674D01*
X15837920Y-17120674D02*
X15847444Y-17130198D01*
X15847444Y-17130198D02*
X15856968Y-17149246D01*
X15856968Y-17149246D02*
X15856968Y-17206389D01*
X15856968Y-17206389D02*
X15847444Y-17225436D01*
X15847444Y-17225436D02*
X15837920Y-17234960D01*
X15837920Y-17234960D02*
X15818873Y-17244484D01*
X15818873Y-17244484D02*
X15780777Y-17244484D01*
X15780777Y-17244484D02*
X15761730Y-17234960D01*
X15971253Y-17244484D02*
X15952206Y-17234960D01*
X15952206Y-17234960D02*
X15942682Y-17215912D01*
X15942682Y-17215912D02*
X15942682Y-17044484D01*
X16133158Y-17244484D02*
X16133158Y-17139722D01*
X16133158Y-17139722D02*
X16123634Y-17120674D01*
X16123634Y-17120674D02*
X16104587Y-17111150D01*
X16104587Y-17111150D02*
X16066492Y-17111150D01*
X16066492Y-17111150D02*
X16047444Y-17120674D01*
X16133158Y-17234960D02*
X16114111Y-17244484D01*
X16114111Y-17244484D02*
X16066492Y-17244484D01*
X16066492Y-17244484D02*
X16047444Y-17234960D01*
X16047444Y-17234960D02*
X16037920Y-17215912D01*
X16037920Y-17215912D02*
X16037920Y-17196865D01*
X16037920Y-17196865D02*
X16047444Y-17177817D01*
X16047444Y-17177817D02*
X16066492Y-17168293D01*
X16066492Y-17168293D02*
X16114111Y-17168293D01*
X16114111Y-17168293D02*
X16133158Y-17158770D01*
X16199825Y-17111150D02*
X16276015Y-17111150D01*
X16228396Y-17044484D02*
X16228396Y-17215912D01*
X16228396Y-17215912D02*
X16237920Y-17234960D01*
X16237920Y-17234960D02*
X16256968Y-17244484D01*
X16256968Y-17244484D02*
X16276015Y-17244484D01*
X16418873Y-17234960D02*
X16399825Y-17244484D01*
X16399825Y-17244484D02*
X16361730Y-17244484D01*
X16361730Y-17244484D02*
X16342682Y-17234960D01*
X16342682Y-17234960D02*
X16333158Y-17215912D01*
X16333158Y-17215912D02*
X16333158Y-17139722D01*
X16333158Y-17139722D02*
X16342682Y-17120674D01*
X16342682Y-17120674D02*
X16361730Y-17111150D01*
X16361730Y-17111150D02*
X16399825Y-17111150D01*
X16399825Y-17111150D02*
X16418873Y-17120674D01*
X16418873Y-17120674D02*
X16428396Y-17139722D01*
X16428396Y-17139722D02*
X16428396Y-17158770D01*
X16428396Y-17158770D02*
X16333158Y-17177817D01*
X16599825Y-17244484D02*
X16599825Y-17044484D01*
X16599825Y-17234960D02*
X16580777Y-17244484D01*
X16580777Y-17244484D02*
X16542682Y-17244484D01*
X16542682Y-17244484D02*
X16523634Y-17234960D01*
X16523634Y-17234960D02*
X16514111Y-17225436D01*
X16514111Y-17225436D02*
X16504587Y-17206389D01*
X16504587Y-17206389D02*
X16504587Y-17149246D01*
X16504587Y-17149246D02*
X16514111Y-17130198D01*
X16514111Y-17130198D02*
X16523634Y-17120674D01*
X16523634Y-17120674D02*
X16542682Y-17111150D01*
X16542682Y-17111150D02*
X16580777Y-17111150D01*
X16580777Y-17111150D02*
X16599825Y-17120674D01*
X16676015Y-17320674D02*
X16685539Y-17311150D01*
X16685539Y-17311150D02*
X16704587Y-17282579D01*
X16704587Y-17282579D02*
X16714111Y-17263531D01*
X16714111Y-17263531D02*
X16723634Y-17234960D01*
X16723634Y-17234960D02*
X16733158Y-17187341D01*
X16733158Y-17187341D02*
X16733158Y-17149246D01*
X16733158Y-17149246D02*
X16723634Y-17101627D01*
X16723634Y-17101627D02*
X16714111Y-17073055D01*
X16714111Y-17073055D02*
X16704587Y-17054008D01*
X16704587Y-17054008D02*
X16685539Y-17025436D01*
X16685539Y-17025436D02*
X16676015Y-17015912D01*
M02*
