M48
; DRILL file {KiCad 9.0.8+dfsg-1} date 2026-10-02T12:28:01+0100
; FORMAT={-:-/ absolute / metric / decimal}
; #@! TF.CreationDate,2026-10-02T12:28:01+01:00
; #@! TF.GenerationSoftware,Kicad,Pcbnew,9.0.8+dfsg-1
; #@! TF.FileFunction,MixedPlating,1,6
FMAT,2
METRIC
; #@! TA.AperFunction,Plated,PTH,ViaDrill
T1C0.200
; #@! TA.AperFunction,Plated,PTH,ViaDrill
T2C0.300
; #@! TA.AperFunction,Plated,PTH,ComponentDrill
T3C0.600
; #@! TA.AperFunction,Plated,PTH,ComponentDrill
T4C0.900
; #@! TA.AperFunction,Plated,PTH,ComponentDrill
T5C1.000
; #@! TA.AperFunction,NonPlated,NPTH,ComponentDrill
T6C0.700
; #@! TA.AperFunction,NonPlated,NPTH,ComponentDrill
T7C0.991
; #@! TA.AperFunction,NonPlated,NPTH,ComponentDrill
T8C1.000
%
G90
G05
T1
X106.259Y-115.262
X106.485Y-131.883
X107.016Y-143.212
X108.272Y-113.689
X109.812Y-132.11
X109.844Y-142.931
X110.072Y-113.485
X110.155Y-125.487
X110.19Y-131.373
X111.275Y-123.433
X112.01Y-125.065
X112.38Y-111.92
X112.459Y-126.526
X113.539Y-131.571
X113.97Y-139.236
X114.185Y-128.251
X114.341Y-104.307
X114.58Y-119.717
X114.602Y-118.949
X114.656Y-123.059
X114.705Y-125.168
X115.363Y-112.032
X115.467Y-125.411
X115.629Y-103.134
X115.801Y-119.542
X115.888Y-129.779
X116.052Y-135.717
X116.417Y-115.176
X116.604Y-119.296
X116.634Y-100.806
X117.068Y-136.438
X117.805Y-111.174
X118.227Y-124.716
X118.555Y-120.793
X119.048Y-135.787
X119.434Y-120.447
X119.497Y-135.453
X119.659Y-116.305
X119.822Y-121.503
X120.484Y-131.259
X120.623Y-116.21
X120.72Y-119.55
X121.046Y-121.998
X121.733Y-123.395
X121.761Y-122.43
X122.17Y-106.932
X122.173Y-112.141
X122.229Y-118.491
X122.243Y-116.309
X122.65Y-127.295
X122.697Y-133.423
X123.804Y-119.689
X124.141Y-124.796
X124.272Y-103.037
X124.632Y-121.388
X125.531Y-132.949
X125.602Y-105.47
X125.781Y-124.494
X125.84Y-115.377
X126.197Y-122.923
X126.412Y-124.493
X126.725Y-105.459
X126.869Y-121.53
X126.885Y-124.058
X126.908Y-116.083
X126.941Y-116.975
X127.094Y-123.306
X127.118Y-121.028
X127.121Y-118.896
X127.143Y-120.435
X127.325Y-115.355
X127.366Y-131.805
X127.514Y-127.799
X127.558Y-112.706
X127.877Y-108.206
X127.906Y-131.463
X128.877Y-122.494
X129.018Y-135.786
X129.031Y-111.744
X129.141Y-112.293
X129.344Y-107.369
X129.752Y-126.153
X129.907Y-118.027
X129.966Y-122.888
X130.147Y-115.385
X130.635Y-103.39
X130.749Y-113.392
X131.156Y-113.806
X131.219Y-126.166
X132.469Y-105.869
X132.582Y-122.55
X132.844Y-113.431
X133.137Y-121.252
X133.469Y-121.869
X134.05Y-132.02
X134.266Y-113.174
X134.406Y-107.056
X134.473Y-120.028
X134.715Y-125.534
X134.719Y-110.369
X135.031Y-112.181
X135.553Y-114.219
X135.742Y-118.613
X135.836Y-120.966
X136.281Y-113.806
X136.513Y-129.151
X136.521Y-118.503
X136.656Y-126.174
X136.66Y-117.76
X136.676Y-104.306
X136.798Y-116.022
X137.281Y-115.744
X137.891Y-111.783
X137.948Y-124.376
X137.978Y-122.499
X138.356Y-116.815
X139.031Y-114.806
X139.349Y-114.354
X139.478Y-118.272
X140.719Y-111.056
X141.031Y-106.744
X141.939Y-115.005
T2
X100.666Y-128.86
X101.25Y-103.2
X101.25Y-105.0
X101.25Y-106.8
X101.25Y-108.6
X101.25Y-114.0
X101.25Y-117.6
X101.25Y-119.4
X101.25Y-121.2
X101.25Y-130.2
X101.724Y-135.14
X101.795Y-117.141
X101.798Y-136.0
X102.326Y-133.4
X102.486Y-117.613
X102.831Y-111.375
X102.831Y-123.825
X102.895Y-143.685
X103.05Y-101.4
X103.05Y-103.2
X103.05Y-105.0
X103.05Y-106.8
X103.05Y-108.6
X103.05Y-110.4
X103.05Y-112.2
X103.05Y-123.0
X103.05Y-124.8
X103.05Y-126.6
X103.05Y-130.2
X103.05Y-133.8
X103.05Y-137.4
X103.05Y-139.2
X103.05Y-142.8
X104.222Y-131.26
X104.525Y-134.085
X104.71Y-124.077
X104.85Y-101.4
X104.85Y-103.2
X104.85Y-105.0
X104.85Y-110.4
X104.85Y-112.2
X104.85Y-126.6
X104.85Y-135.6
X104.85Y-141.0
X105.094Y-132.681
X105.352Y-120.242
X105.453Y-113.225
X105.475Y-119.275
X105.531Y-129.556
X105.727Y-130.3
X105.727Y-131.55
X105.861Y-144.691
X106.093Y-125.9
X106.139Y-118.76
X106.26Y-126.768
X106.65Y-101.4
X106.65Y-103.2
X106.65Y-114.0
X106.881Y-133.407
X106.924Y-123.425
X106.935Y-116.935
X107.484Y-126.351
X107.498Y-132.108
X108.45Y-101.4
X108.45Y-105.0
X108.45Y-110.4
X108.45Y-133.8
X108.45Y-135.6
X108.45Y-141.0
X108.495Y-132.695
X109.146Y-143.166
X109.156Y-119.767
X109.158Y-102.531
X110.052Y-102.49
X110.228Y-121.762
X110.25Y-101.4
X110.25Y-108.6
X110.25Y-110.4
X110.25Y-137.4
X110.25Y-139.2
X110.25Y-141.0
X110.498Y-114.2
X110.561Y-119.074
X110.656Y-120.994
X110.66Y-123.953
X110.708Y-123.081
X110.805Y-104.754
X110.909Y-102.779
X110.99Y-124.958
X111.219Y-106.869
X111.32Y-108.933
X111.38Y-115.458
X111.593Y-112.505
X111.632Y-127.047
X111.691Y-107.391
X111.696Y-143.634
X111.788Y-125.727
X112.192Y-142.915
X112.216Y-132.502
X113.398Y-136.787
X113.609Y-102.221
X113.677Y-133.966
X114.21Y-113.958
X114.344Y-127.494
X114.367Y-112.354
X114.469Y-133.369
X114.479Y-129.595
X114.754Y-108.851
X114.891Y-107.186
X115.113Y-144.895
X115.207Y-120.4
X115.829Y-143.468
X115.831Y-100.656
X116.099Y-121.933
X116.27Y-124.938
X116.294Y-124.045
X116.302Y-120.99
X116.365Y-136.613
X116.747Y-126.721
X116.792Y-140.385
X116.808Y-109.07
X116.876Y-116.69
X117.309Y-115.926
X117.552Y-132.24
X117.595Y-106.444
X117.697Y-129.927
X118.053Y-143.468
X118.081Y-109.058
X118.253Y-115.973
X118.341Y-119.03
X118.349Y-124.081
X118.465Y-110.992
X118.633Y-129.928
X118.738Y-140.389
X118.887Y-125.293
X118.947Y-102.074
X118.991Y-115.795
X119.178Y-132.994
X119.732Y-105.212
X120.02Y-129.954
X120.163Y-125.413
X120.276Y-108.997
X120.308Y-126.632
X120.344Y-138.056
X120.603Y-137.275
X120.723Y-110.494
X120.867Y-122.627
X120.914Y-107.894
X121.449Y-109.935
X121.525Y-138.574
X121.629Y-119.072
X121.716Y-132.473
X121.847Y-140.677
X121.879Y-121.802
X121.884Y-110.495
X122.029Y-136.884
X122.405Y-131.515
X122.41Y-120.355
X122.501Y-102.531
X122.544Y-109.774
X122.563Y-144.895
X122.63Y-110.727
X122.702Y-126.406
X122.8Y-124.615
X122.841Y-129.859
X122.85Y-101.4
X122.85Y-141.0
X122.872Y-125.336
X123.01Y-130.835
X123.232Y-102.623
X123.269Y-120.645
X123.61Y-122.946
X123.61Y-126.26
X123.761Y-139.25
X123.906Y-137.306
X124.138Y-107.292
X124.458Y-118.578
X124.461Y-137.784
X124.48Y-115.551
X124.594Y-134.431
X124.804Y-119.426
X124.908Y-124.521
X125.031Y-138.306
X125.055Y-136.232
X125.077Y-125.656
X125.217Y-127.132
X125.281Y-102.962
X125.469Y-125.056
X125.525Y-116.21
X125.588Y-119.455
X125.864Y-136.312
X125.988Y-117.657
X126.135Y-127.27
X126.263Y-140.337
X126.265Y-129.855
X126.313Y-101.105
X126.313Y-144.895
X126.52Y-108.724
X127.319Y-127.154
X128.283Y-138.993
X128.406Y-129.744
X128.876Y-111.093
X129.199Y-133.036
X129.255Y-127.755
X129.366Y-101.07
X129.432Y-113.201
X129.625Y-105.562
X129.969Y-130.619
X129.981Y-114.356
X129.993Y-116.154
X130.034Y-135.805
X130.05Y-101.4
X130.094Y-137.306
X130.163Y-128.003
X130.455Y-102.475
X130.501Y-118.65
X130.697Y-127.003
X130.719Y-137.806
X130.775Y-105.324
X131.097Y-114.48
X131.156Y-132.994
X131.85Y-133.8
X131.85Y-141.0
X131.85Y-142.8
X132.078Y-136.775
X132.156Y-111.931
X132.156Y-113.431
X132.344Y-110.681
X132.713Y-128.76
X132.715Y-134.15
X132.725Y-104.08
X132.725Y-105.28
X132.725Y-106.48
X132.725Y-107.68
X132.725Y-108.88
X132.725Y-110.08
X132.725Y-111.28
X132.725Y-112.48
X132.82Y-137.645
X133.004Y-120.246
X133.145Y-115.61
X133.315Y-132.894
X133.486Y-128.022
X133.62Y-141.314
X133.632Y-139.147
X133.65Y-142.8
X133.656Y-100.556
X133.697Y-145.397
X133.755Y-120.977
X133.922Y-122.911
X133.974Y-126.741
X134.0Y-101.2
X134.125Y-104.08
X134.125Y-105.28
X134.125Y-106.48
X134.125Y-107.68
X134.125Y-108.88
X134.125Y-110.08
X134.125Y-111.28
X134.125Y-112.48
X134.17Y-135.5
X134.184Y-124.29
X134.395Y-115.61
X134.467Y-134.148
X134.664Y-120.76
X134.678Y-134.875
X134.719Y-108.494
X135.014Y-129.426
X135.041Y-107.336
X135.2Y-101.2
X135.2Y-102.6
X135.517Y-120.251
X135.75Y-133.115
X135.879Y-143.468
X135.96Y-135.208
X136.219Y-131.369
X136.4Y-101.2
X136.4Y-102.6
X136.71Y-134.795
X137.25Y-142.8
X137.411Y-116.367
X137.6Y-101.2
X137.735Y-133.062
X138.031Y-129.681
X138.094Y-126.681
X138.36Y-113.644
X138.397Y-111.19
X138.753Y-116.049
X138.8Y-101.2
X139.013Y-104.634
X139.05Y-103.2
X139.05Y-112.2
X139.05Y-135.6
X139.05Y-141.0
X139.1Y-105.35
X139.159Y-115.461
X139.329Y-119.342
X139.433Y-100.876
X139.531Y-113.181
X140.0Y-101.2
X140.0Y-102.6
X140.295Y-130.226
X140.401Y-121.916
X140.502Y-124.942
X140.85Y-112.2
X140.85Y-123.0
X140.85Y-135.6
X140.85Y-137.4
X140.85Y-139.2
X140.85Y-141.0
X140.85Y-142.8
X141.01Y-133.203
X141.031Y-122.244
X141.857Y-144.3
X142.219Y-111.494
X142.516Y-117.613
X142.526Y-106.164
X142.577Y-130.225
X142.65Y-105.0
X142.65Y-119.4
X142.65Y-123.0
X142.65Y-126.6
X142.65Y-128.4
X142.65Y-132.0
X142.65Y-135.6
X142.65Y-137.4
X142.65Y-139.2
X142.65Y-141.0
X142.65Y-142.8
X142.704Y-115.456
X142.714Y-109.232
X143.59Y-113.152
X143.591Y-123.102
X144.459Y-108.995
X144.569Y-123.102
X144.569Y-113.152
T4
X141.73Y-100.63
X141.73Y-103.17
X144.27Y-100.63
X144.27Y-103.17
T5
X143.0Y-101.9
T6
X140.085Y-126.11
X140.085Y-131.89
T7
X112.284Y-105.86
X113.3Y-110.94
X114.316Y-105.86
T8
X102.314Y-120.45
X102.314Y-128.45
T3
X139.115Y-124.675G85X140.015Y-124.675
G05
X139.115Y-133.325G85X140.015Y-133.325
G05
X143.465Y-124.675G85X144.065Y-124.675
G05
X143.465Y-133.325G85X144.065Y-133.325
G05
M30
