M48
; DRILL file {KiCad 9.0.8+dfsg-1} date 2026-09-05T23:08:03+0100
; FORMAT={-:-/ absolute / metric / decimal}
; #@! TF.CreationDate,2026-09-05T23:08:03+01:00
; #@! TF.GenerationSoftware,Kicad,Pcbnew,9.0.8+dfsg-1
; #@! TF.FileFunction,MixedPlating,1,6
FMAT,2
METRIC
; #@! TA.AperFunction,Plated,PTH,ViaDrill
T1C0.200
; #@! TA.AperFunction,Plated,PTH,ViaDrill
T2C0.250
; #@! TA.AperFunction,Plated,PTH,ViaDrill
T3C0.300
; #@! TA.AperFunction,Plated,PTH,ComponentDrill
T4C0.600
; #@! TA.AperFunction,NonPlated,NPTH,ComponentDrill
T5C0.700
; #@! TA.AperFunction,NonPlated,NPTH,ComponentDrill
T6C1.000
%
G90
G05
T1
X101.0Y-136.0
X101.0Y-142.3
X102.238Y-139.291
X103.1Y-103.8
X103.1Y-142.3
X103.1Y-143.7
X103.103Y-133.975
X103.121Y-133.299
X103.8Y-103.1
X103.8Y-143.0
X104.5Y-136.0
X104.5Y-137.4
X104.5Y-138.8
X104.5Y-140.2
X106.6Y-140.9
X106.6Y-142.3
X106.6Y-143.7
X107.3Y-143.7
X107.517Y-133.994
X108.7Y-115.0
X108.952Y-123.15
X109.459Y-133.344
X109.493Y-120.108
X109.692Y-115.788
X109.694Y-113.931
X110.1Y-107.3
X110.1Y-135.3
X110.1Y-138.1
X110.1Y-138.8
X110.375Y-132.167
X110.779Y-142.648
X110.782Y-107.242
X110.987Y-108.224
X111.738Y-103.278
X111.894Y-111.316
X112.03Y-112.03
X112.048Y-115.816
X112.515Y-130.079
X112.521Y-123.707
X112.9Y-144.4
X113.6Y-143.7
X113.799Y-103.2
X114.3Y-144.4
X114.55Y-121.38
X115.0Y-143.7
X115.222Y-123.993
X115.7Y-144.4
X116.065Y-131.753
X116.4Y-143.7
X117.05Y-112.579
X117.1Y-140.9
X117.8Y-140.2
X118.213Y-111.218
X118.238Y-112.714
X119.559Y-120.511
X120.345Y-123.0
X120.6Y-132.5
X120.88Y-112.587
X121.1Y-120.93
X121.778Y-111.165
X122.051Y-130.201
X122.877Y-107.713
X123.517Y-126.625
X123.541Y-117.448
X123.74Y-118.02
X123.779Y-108.119
X123.886Y-102.836
X123.943Y-122.278
X124.08Y-126.612
X124.38Y-123.994
X124.752Y-117.551
X125.095Y-144.001
X125.63Y-112.08
X125.65Y-121.08
X126.04Y-110.79
X126.122Y-126.537
X127.108Y-118.45
X127.274Y-123.266
X127.36Y-108.33
X127.486Y-143.862
X128.3Y-135.3
X129.0Y-136.0
X129.7Y-144.4
X130.36Y-107.43
X130.4Y-143.7
X131.1Y-141.6
X131.1Y-144.4
X131.33Y-125.54
X131.8Y-134.6
X131.8Y-144.4
X132.5Y-135.3
X133.2Y-134.6
X133.4Y-108.43
X133.529Y-117.387
X133.9Y-133.2
X134.039Y-109.609
X134.101Y-112.597
X134.933Y-122.535
X135.3Y-135.3
X135.531Y-113.379
X136.0Y-115.7
X136.0Y-134.6
X136.0Y-144.4
X136.7Y-135.3
X137.4Y-101.0
X137.4Y-134.6
X137.952Y-111.591
X138.1Y-103.1
X138.1Y-104.5
X138.1Y-135.3
X138.615Y-116.77
X138.8Y-101.0
X138.8Y-134.6
X138.8Y-140.9
X138.8Y-142.3
X139.5Y-103.1
X139.5Y-104.5
X139.5Y-135.3
X140.2Y-101.0
X140.2Y-134.6
X140.2Y-142.3
X140.9Y-103.1
X140.9Y-104.5
X140.9Y-129.7
X140.9Y-131.1
X140.9Y-135.3
X140.9Y-138.1
X140.9Y-139.5
X140.9Y-141.6
X141.6Y-101.0
X141.6Y-103.1
X141.6Y-104.5
X141.6Y-106.6
X141.6Y-134.6
X141.6Y-138.8
X141.6Y-142.3
X141.897Y-129.575
X141.897Y-134.025
X142.3Y-101.0
X142.3Y-102.4
X142.3Y-103.8
X142.3Y-105.2
X142.3Y-106.6
X142.3Y-143.0
X142.3Y-144.4
X143.0Y-101.7
X143.0Y-103.1
X143.0Y-104.5
X143.0Y-105.9
X143.0Y-107.3
X143.0Y-108.0
X143.0Y-122.7
X143.0Y-143.7
X143.7Y-102.4
X143.7Y-103.8
X143.7Y-105.2
X143.7Y-106.6
X143.7Y-133.2
X143.7Y-136.0
X143.7Y-143.0
T2
X101.0Y-103.8
X101.0Y-105.2
X101.0Y-106.6
X101.0Y-108.0
X101.0Y-109.4
X101.0Y-110.8
X101.0Y-124.8
X101.0Y-126.2
X101.0Y-127.6
X101.7Y-103.1
X101.7Y-104.5
X102.4Y-106.6
X102.4Y-142.3
X103.1Y-101.7
X103.1Y-103.1
X103.1Y-104.5
X103.1Y-105.9
X103.1Y-109.4
X103.1Y-110.8
X103.1Y-125.5
X103.1Y-138.8
X103.1Y-144.4
X103.8Y-101.0
X103.8Y-104.5
X103.8Y-110.1
X104.5Y-101.7
X104.5Y-103.1
X104.5Y-103.8
X104.5Y-107.3
X104.5Y-108.0
X104.5Y-109.4
X104.5Y-110.8
X104.5Y-135.3
X104.5Y-138.1
X105.2Y-101.0
X105.2Y-140.9
X105.9Y-103.1
X105.9Y-135.3
X105.9Y-140.9
X106.6Y-101.0
X106.6Y-102.4
X107.3Y-144.4
X108.0Y-104.5
X108.0Y-112.2
X108.0Y-123.4
X108.0Y-144.4
X108.7Y-131.8
X109.4Y-104.5
X110.1Y-105.2
X110.1Y-106.6
X110.8Y-104.5
X110.8Y-126.2
X112.2Y-104.5
X112.2Y-105.2
X113.6Y-104.5
X114.3Y-105.2
X114.3Y-136.7
X115.0Y-104.5
X115.7Y-105.9
X115.7Y-128.3
X115.7Y-139.5
X115.7Y-140.2
X116.4Y-140.9
X116.806Y-142.137
X117.1Y-141.6
X118.731Y-143.656
X121.133Y-123.626
X121.3Y-140.9
X123.4Y-135.3
X130.4Y-135.3
X134.6Y-135.3
X134.6Y-136.7
X134.6Y-137.4
X134.6Y-138.1
X135.3Y-132.5
X136.7Y-140.9
X137.4Y-102.4
X138.8Y-102.4
X138.8Y-103.8
X139.5Y-140.9
X140.2Y-140.9
X140.9Y-101.7
X140.9Y-103.8
X140.9Y-105.9
X140.9Y-107.3
X140.9Y-108.7
X140.9Y-109.4
X140.9Y-136.0
X142.3Y-107.3
X143.0Y-115.0
X143.0Y-116.4
X143.0Y-117.8
X143.0Y-119.9
X143.0Y-121.3
X143.0Y-126.2
X143.0Y-127.6
X143.7Y-108.0
T3
X101.0Y-103.1
X101.0Y-104.5
X101.0Y-105.9
X101.0Y-107.3
X101.0Y-108.7
X101.0Y-110.1
X101.0Y-125.5
X101.0Y-126.9
X101.0Y-130.4
X101.0Y-132.5
X101.0Y-135.3
X101.0Y-138.8
X101.0Y-141.6
X101.0Y-143.0
X101.7Y-106.6
X101.7Y-142.3
X102.0Y-102.0
X102.0Y-103.8
X102.0Y-105.6
X102.0Y-107.4
X102.0Y-141.6
X102.0Y-143.4
X102.4Y-103.1
X102.4Y-104.5
X102.4Y-144.4
X102.67Y-127.859
X102.969Y-127.094
X103.1Y-101.0
X103.1Y-102.4
X103.1Y-105.2
X103.1Y-108.7
X103.1Y-110.1
X103.1Y-141.6
X103.1Y-143.0
X103.181Y-138.101
X103.334Y-130.233
X103.502Y-129.605
X103.594Y-126.406
X103.8Y-102.0
X103.8Y-103.8
X103.8Y-105.6
X103.8Y-108.0
X103.8Y-109.2
X103.8Y-111.0
X103.8Y-112.8
X103.8Y-114.6
X103.8Y-116.4
X103.8Y-123.6
X103.8Y-125.4
X103.8Y-127.2
X103.8Y-135.3
X103.8Y-136.2
X103.8Y-137.4
X103.8Y-138.8
X103.8Y-139.8
X103.8Y-142.3
X103.844Y-117.969
X103.848Y-130.53
X104.419Y-130.542
X104.469Y-119.594
X104.5Y-101.0
X104.5Y-102.4
X104.5Y-104.5
X104.5Y-108.7
X104.5Y-110.1
X104.5Y-136.7
X104.5Y-139.5
X104.531Y-132.156
X104.594Y-118.094
X104.594Y-122.094
X104.781Y-124.406
X104.86Y-127.401
X104.878Y-118.9
X105.156Y-131.531
X105.2Y-103.1
X105.2Y-135.3
X105.264Y-142.817
X105.6Y-102.0
X105.6Y-103.8
X105.6Y-111.0
X105.6Y-112.8
X105.6Y-141.6
X105.719Y-123.219
X105.9Y-101.0
X106.031Y-132.469
X106.427Y-117.748
X106.6Y-101.7
X106.6Y-110.8
X106.6Y-135.3
X106.6Y-141.6
X106.6Y-144.4
X107.296Y-132.249
X107.3Y-104.5
X107.4Y-102.0
X107.4Y-111.0
X107.4Y-112.8
X107.4Y-130.8
X107.416Y-141.175
X107.808Y-101.007
X107.861Y-118.458
X107.899Y-101.704
X108.0Y-111.5
X108.0Y-115.7
X108.0Y-126.2
X108.104Y-132.249
X108.293Y-119.034
X108.694Y-144.612
X108.7Y-104.5
X108.7Y-110.8
X108.797Y-121.901
X108.8Y-130.019
X108.804Y-134.86
X108.963Y-115.638
X109.2Y-105.6
X109.207Y-134.16
X109.317Y-144.638
X109.322Y-119.274
X109.496Y-120.736
X109.587Y-132.631
X109.616Y-117.289
X109.621Y-101.779
X109.624Y-114.622
X109.696Y-141.133
X110.014Y-144.546
X110.094Y-140.031
X110.1Y-104.5
X110.1Y-105.9
X110.1Y-126.2
X110.1Y-142.3
X110.146Y-136.035
X110.188Y-131.295
X110.198Y-129.6
X110.441Y-143.989
X110.8Y-126.9
X111.0Y-105.6
X111.0Y-125.4
X111.123Y-127.761
X111.3Y-137.823
X111.384Y-140.763
X111.5Y-126.2
X111.591Y-140.03
X111.618Y-135.087
X111.895Y-134.376
X111.967Y-140.763
X112.2Y-139.5
X112.234Y-118.261
X112.304Y-122.874
X112.341Y-106.635
X112.431Y-120.298
X112.472Y-141.055
X112.526Y-113.831
X112.705Y-103.277
X112.8Y-105.6
X112.802Y-141.851
X112.811Y-108.791
X112.9Y-104.5
X112.9Y-143.7
X113.007Y-117.71
X113.008Y-123.013
X113.149Y-123.924
X113.217Y-135.091
X113.227Y-105.955
X113.302Y-140.03
X113.437Y-127.936
X113.6Y-136.7
X113.6Y-144.4
X113.664Y-135.445
X113.88Y-112.593
X113.889Y-132.399
X113.894Y-118.372
X114.002Y-122.865
X114.042Y-120.577
X114.3Y-104.5
X114.3Y-113.6
X114.3Y-143.7
X114.423Y-105.932
X114.6Y-112.8
X114.6Y-114.6
X114.6Y-123.6
X114.6Y-134.4
X115.0Y-144.4
X115.015Y-121.852
X115.299Y-141.111
X115.7Y-143.7
X115.776Y-121.329
X116.185Y-123.742
X116.208Y-107.242
X116.22Y-134.516
X116.4Y-102.0
X116.4Y-105.6
X116.4Y-139.8
X116.4Y-141.6
X116.4Y-101.0
X116.4Y-103.1
X116.4Y-144.4
X116.7Y-116.295
X116.911Y-106.654
X116.911Y-107.264
X117.052Y-114.133
X117.1Y-140.2
X117.409Y-136.596
X117.486Y-144.012
X117.578Y-144.709
X117.685Y-137.168
X117.694Y-114.487
X117.719Y-135.094
X117.768Y-129.581
X117.8Y-140.9
X118.096Y-108.77
X118.135Y-145.136
X118.2Y-107.4
X118.2Y-141.6
X118.313Y-137.0
X118.328Y-121.125
X118.4Y-111.847
X118.469Y-135.406
X118.526Y-131.701
X118.592Y-130.042
X118.831Y-145.045
X118.835Y-113.365
X119.002Y-107.354
X119.344Y-144.219
X119.65Y-107.0
X119.78Y-128.152
X120.0Y-114.6
X120.0Y-118.2
X120.0Y-141.6
X120.027Y-123.791
X120.081Y-143.65
X120.521Y-127.692
X120.559Y-138.975
X120.6Y-135.3
X120.6Y-140.9
X120.607Y-107.028
X120.746Y-133.98
X120.77Y-130.266
X120.781Y-114.906
X120.858Y-130.989
X121.066Y-105.079
X121.2Y-144.878
X121.732Y-131.801
X121.762Y-113.715
X121.763Y-144.727
X121.816Y-108.1
X122.0Y-105.0
X122.006Y-123.679
X122.066Y-112.72
X122.095Y-128.147
X122.156Y-120.344
X122.175Y-144.314
X122.326Y-143.751
X122.45Y-135.469
X122.458Y-118.305
X122.571Y-132.445
X122.71Y-123.861
X122.781Y-104.719
X122.913Y-117.53
X123.004Y-144.548
X123.018Y-128.322
X123.094Y-107.031
X123.148Y-140.67
X123.422Y-123.914
X123.444Y-140.157
X123.509Y-144.839
X123.595Y-115.389
X124.092Y-140.763
X124.092Y-144.839
X124.232Y-132.388
X124.355Y-115.461
X124.38Y-120.23
X124.439Y-121.003
X124.443Y-122.75
X124.47Y-136.383
X124.489Y-114.583
X124.597Y-144.548
X124.777Y-130.392
X124.972Y-140.903
X125.0Y-100.6
X125.0Y-107.4
X125.248Y-125.896
X125.4Y-139.8
X125.5Y-137.4
X125.54Y-126.801
X125.606Y-138.288
X125.656Y-132.406
X125.67Y-135.367
X125.752Y-127.857
X125.8Y-107.896
X125.8Y-105.8
X125.819Y-130.47
X125.831Y-140.311
X126.072Y-134.025
X126.2Y-100.6
X126.2Y-101.8
X126.465Y-124.551
X126.526Y-135.643
X126.754Y-108.945
X126.757Y-136.387
X127.133Y-112.367
X127.134Y-115.136
X127.138Y-119.834
X127.273Y-125.828
X127.4Y-100.6
X127.4Y-101.8
X127.434Y-141.496
X127.496Y-113.455
X127.856Y-117.32
X128.084Y-141.496
X128.2Y-103.0
X128.338Y-128.155
X128.406Y-130.656
X128.406Y-134.594
X128.434Y-137.802
X128.469Y-113.581
X128.781Y-124.594
X128.782Y-140.939
X128.784Y-141.496
X128.865Y-114.689
X129.0Y-143.4
X129.0Y-100.6
X129.0Y-101.8
X129.0Y-135.3
X129.04Y-110.88
X129.444Y-121.431
X129.512Y-125.766
X129.529Y-141.371
X129.7Y-143.7
X129.96Y-141.727
X130.111Y-136.916
X130.156Y-116.974
X130.2Y-103.4
X130.391Y-141.371
X130.4Y-144.4
X130.406Y-131.723
X130.6Y-100.6
X130.614Y-127.929
X130.643Y-137.058
X130.8Y-102.0
X130.8Y-132.6
X130.8Y-136.2
X130.806Y-102.77
X131.1Y-134.6
X131.191Y-130.77
X131.265Y-127.666
X131.301Y-120.337
X131.4Y-103.4
X131.426Y-137.54
X131.464Y-116.025
X131.615Y-139.219
X131.674Y-117.369
X131.8Y-100.6
X131.8Y-135.3
X131.8Y-141.6
X131.906Y-131.906
X131.968Y-130.274
X131.969Y-126.144
X132.15Y-112.091
X132.2Y-101.8
X132.25Y-120.28
X132.269Y-109.83
X132.396Y-124.428
X132.44Y-137.54
X132.5Y-134.6
X132.5Y-144.4
X132.549Y-127.405
X132.6Y-130.8
X132.6Y-132.6
X132.719Y-121.656
X132.74Y-108.01
X132.844Y-113.031
X132.85Y-133.569
X132.946Y-112.103
X132.998Y-142.336
X133.031Y-131.906
X133.129Y-138.704
X133.2Y-115.7
X133.2Y-135.3
X133.275Y-119.299
X133.4Y-100.6
X133.4Y-101.8
X133.469Y-132.656
X133.515Y-123.843
X133.8Y-103.4
X133.844Y-131.906
X133.976Y-127.403
X134.4Y-108.73
X134.4Y-130.8
X134.4Y-132.6
X134.455Y-140.619
X134.7Y-138.926
X134.781Y-127.219
X134.844Y-131.906
X134.968Y-117.834
X135.0Y-100.6
X135.158Y-143.666
X135.3Y-134.6
X135.559Y-141.076
X136.0Y-131.8
X136.0Y-135.3
X136.0Y-143.7
X136.016Y-142.18
X136.094Y-123.344
X136.161Y-125.445
X136.2Y-130.8
X136.336Y-122.428
X136.391Y-119.271
X136.7Y-134.6
X136.871Y-125.375
X136.871Y-126.964
X136.916Y-118.791
X137.079Y-130.264
X137.4Y-103.1
X137.4Y-104.5
X137.4Y-135.3
X137.515Y-123.493
X137.55Y-142.817
X137.567Y-127.275
X137.609Y-125.518
X137.855Y-130.321
X138.0Y-102.0
X138.0Y-103.8
X138.0Y-141.6
X138.093Y-112.649
X138.1Y-101.0
X138.1Y-134.6
X138.1Y-115.994
X138.15Y-126.054
X138.628Y-144.384
X138.781Y-132.85
X138.8Y-101.7
X138.8Y-103.1
X138.8Y-104.5
X138.8Y-135.3
X138.8Y-141.6
X138.8Y-143.0
X138.831Y-131.92
X138.846Y-127.929
X138.911Y-125.226
X139.069Y-127.031
X139.256Y-128.92
X139.4Y-109.8
X139.45Y-124.27
X139.5Y-101.0
X139.5Y-134.6
X139.5Y-142.3
X139.51Y-120.241
X139.594Y-130.156
X139.8Y-102.0
X139.8Y-103.8
X139.8Y-105.6
X139.8Y-127.2
X139.8Y-141.6
X139.925Y-123.298
X140.088Y-112.417
X140.135Y-143.98
X140.2Y-103.1
X140.2Y-104.5
X140.2Y-135.3
X140.202Y-111.221
X140.219Y-129.531
X140.369Y-123.876
X140.401Y-119.35
X140.462Y-120.336
X140.487Y-118.457
X140.545Y-124.564
X140.579Y-126.819
X140.822Y-125.062
X140.848Y-126.17
X140.9Y-101.0
X140.9Y-102.4
X140.9Y-105.2
X140.9Y-106.6
X140.9Y-108.0
X140.9Y-130.4
X140.9Y-134.6
X140.9Y-138.8
X140.9Y-140.2
X140.9Y-142.3
X141.168Y-119.344
X141.195Y-118.612
X141.195Y-119.962
X141.281Y-128.469
X141.385Y-133.09
X141.468Y-140.784
X141.473Y-137.136
X141.6Y-135.3
X141.6Y-143.0
X141.6Y-102.0
X141.6Y-103.8
X141.6Y-105.6
X141.6Y-107.4
X141.6Y-109.2
X141.6Y-130.8
X141.6Y-136.2
X141.6Y-138.0
X141.6Y-139.8
X141.6Y-141.6
X142.284Y-109.82
X142.3Y-101.7
X142.3Y-103.1
X142.3Y-104.5
X142.3Y-105.9
X142.3Y-108.0
X142.3Y-130.4
X142.403Y-123.028
X142.431Y-109.272
X142.439Y-110.814
X142.442Y-124.947
X142.571Y-141.887
X142.576Y-139.047
X142.832Y-108.871
X143.0Y-102.4
X143.0Y-103.8
X143.0Y-105.2
X143.0Y-106.6
X143.0Y-114.3
X143.0Y-115.7
X143.0Y-117.1
X143.0Y-119.2
X143.0Y-120.6
X143.0Y-122.0
X143.0Y-125.5
X143.0Y-126.9
X143.0Y-133.2
X143.0Y-136.0
X143.0Y-143.0
X143.0Y-144.4
X143.084Y-123.915
X143.379Y-141.887
X143.384Y-139.047
X143.7Y-103.1
X143.7Y-104.5
X143.7Y-105.9
X143.7Y-107.3
X143.7Y-108.7
X143.7Y-143.7
X143.904Y-119.273
X144.079Y-141.484
X144.084Y-138.644
X144.155Y-110.595
T5
X119.61Y-104.965
X125.39Y-104.965
T6
X119.15Y-140.051
X127.15Y-140.051
T4
X118.175Y-101.585G85X118.175Y-100.985
G05
X118.175Y-105.935G85X118.175Y-105.035
G05
X126.825Y-101.585G85X126.825Y-100.985
G05
X126.825Y-105.935G85X126.825Y-105.035
G05
M30
