%TF.GenerationSoftware,KiCad,Pcbnew,9.0.8+dfsg-1*%
%TF.CreationDate,2026-09-23T13:40:48+01:00*%
%TF.ProjectId,NAVCORE-SoOP,4e415643-4f52-4452-9d53-6f4f502e6b69,rev?*%
%TF.SameCoordinates,Original*%
%TF.FileFunction,Drillmap*%
%TF.FilePolarity,Positive*%
%FSLAX45Y45*%
G04 Gerber Fmt 4.5, Leading zero omitted, Abs format (unit mm)*
G04 Created by KiCad (PCBNEW 9.0.8+dfsg-1) date 2026-09-23 13:40:48*
%MOMM*%
%LPD*%
G01*
G04 APERTURE LIST*
%ADD10C,0.100000*%
%ADD11C,0.200000*%
G04 APERTURE END LIST*
D10*
X10000000Y-9990000D02*
G75*
G02*
X10050000Y-9940000I50000J0D01*
G01*
X10000000Y-14610000D02*
X10000000Y-9990000D01*
X10050000Y-9940000D02*
X14450000Y-9940000D01*
X10050000Y-14660000D02*
G75*
G02*
X10000000Y-14610000I0J50000D01*
G01*
X10925000Y-10775000D02*
G75*
G02*
X10525000Y-10775000I-200000J0D01*
G01*
X10525000Y-10775000D02*
G75*
G02*
X10925000Y-10775000I200000J0D01*
G01*
X10925000Y-13825000D02*
G75*
G02*
X10525000Y-13825000I-200000J0D01*
G01*
X10525000Y-13825000D02*
G75*
G02*
X10925000Y-13825000I200000J0D01*
G01*
X13975000Y-10775000D02*
G75*
G02*
X13575000Y-10775000I-200000J0D01*
G01*
X13575000Y-10775000D02*
G75*
G02*
X13975000Y-10775000I200000J0D01*
G01*
X13975000Y-13825000D02*
G75*
G02*
X13575000Y-13825000I-200000J0D01*
G01*
X13575000Y-13825000D02*
G75*
G02*
X13975000Y-13825000I200000J0D01*
G01*
X14450000Y-9940000D02*
G75*
G02*
X14500000Y-9990000I0J-50000D01*
G01*
X14450000Y-14660000D02*
X10050000Y-14660000D01*
X14500000Y-9990000D02*
X14500000Y-14610000D01*
X14500000Y-14610000D02*
G75*
G02*
X14450000Y-14660000I-50000J0D01*
G01*
D11*
D10*
X10251381Y-13711151D02*
X10271381Y-13731151D01*
X10271381Y-13711151D02*
X10251381Y-13731151D01*
X10319130Y-10843630D02*
X10339130Y-10863630D01*
X10339130Y-10843630D02*
X10319130Y-10863630D01*
X10386180Y-11280190D02*
X10406180Y-11300190D01*
X10406180Y-11280190D02*
X10386180Y-11300190D01*
X10387230Y-10844080D02*
X10407230Y-10864080D01*
X10407230Y-10844080D02*
X10387230Y-10864080D01*
X10390140Y-13908560D02*
X10410140Y-13928560D01*
X10410140Y-13908560D02*
X10390140Y-13928560D01*
X10423190Y-10498220D02*
X10443190Y-10518220D01*
X10443190Y-10498220D02*
X10423190Y-10518220D01*
X10441710Y-11521950D02*
X10461710Y-11541950D01*
X10461710Y-11521950D02*
X10441710Y-11541950D01*
X10628460Y-12721450D02*
X10648460Y-12741450D01*
X10648460Y-12721450D02*
X10628460Y-12741450D01*
X10690000Y-12587000D02*
X10710000Y-12607000D01*
X10710000Y-12587000D02*
X10690000Y-12607000D01*
X10737260Y-12458870D02*
X10757260Y-12478870D01*
X10757260Y-12458870D02*
X10737260Y-12478870D01*
X10883760Y-11982150D02*
X10903760Y-12002150D01*
X10903760Y-11982150D02*
X10883760Y-12002150D01*
X10884500Y-12163030D02*
X10904500Y-12183030D01*
X10904500Y-12163030D02*
X10884500Y-12183030D01*
X10915720Y-13122110D02*
X10935720Y-13142110D01*
X10935720Y-13122110D02*
X10915720Y-13142110D01*
X10936700Y-12294900D02*
X10956700Y-12314900D01*
X10956700Y-12294900D02*
X10936700Y-12314900D01*
X10947850Y-11553140D02*
X10967850Y-11573140D01*
X10967850Y-11553140D02*
X10947850Y-11573140D01*
X10954270Y-11613540D02*
X10974270Y-11633540D01*
X10974270Y-11613540D02*
X10954270Y-11633540D01*
X10955430Y-11476250D02*
X10975430Y-11496250D01*
X10975430Y-11476250D02*
X10955430Y-11496250D01*
X10958910Y-11353970D02*
X10978910Y-11373970D01*
X10978910Y-11353970D02*
X10958910Y-11373970D01*
X10959170Y-12554400D02*
X10979170Y-12574400D01*
X10979170Y-12554400D02*
X10959170Y-12574400D01*
X10985880Y-10862030D02*
X11005880Y-10882030D01*
X11005880Y-10862030D02*
X10985880Y-10882030D01*
X10992510Y-13124590D02*
X11012510Y-13144590D01*
X11012510Y-13124590D02*
X10992510Y-13144590D01*
X11016990Y-12957000D02*
X11036990Y-12977000D01*
X11036990Y-12957000D02*
X11016990Y-12977000D01*
X11020580Y-13020900D02*
X11040580Y-13040900D01*
X11040580Y-13020900D02*
X11020580Y-13040900D01*
X11062140Y-10969670D02*
X11082140Y-10989670D01*
X11082140Y-10969670D02*
X11062140Y-10989670D01*
X11121010Y-12348000D02*
X11141010Y-12368000D01*
X11141010Y-12348000D02*
X11121010Y-12368000D01*
X11131076Y-13471405D02*
X11151076Y-13491405D01*
X11151076Y-13471405D02*
X11131076Y-13491405D01*
X11153240Y-13269500D02*
X11173240Y-13289500D01*
X11173240Y-13269500D02*
X11153240Y-13289500D01*
X11162610Y-12539790D02*
X11182610Y-12559790D01*
X11182610Y-12539790D02*
X11162610Y-12559790D01*
X11164200Y-10969570D02*
X11184200Y-10989570D01*
X11184200Y-10969570D02*
X11164200Y-10989570D01*
X11187500Y-11559940D02*
X11207500Y-11579940D01*
X11207500Y-11559940D02*
X11187500Y-11579940D01*
X11206170Y-11167210D02*
X11226170Y-11187210D01*
X11226170Y-11167210D02*
X11206170Y-11187210D01*
X11223084Y-11030348D02*
X11243084Y-11050348D01*
X11243084Y-11030348D02*
X11223084Y-11050348D01*
X11223367Y-12814748D02*
X11243367Y-12834748D01*
X11243367Y-12814748D02*
X11223367Y-12834748D01*
X11261000Y-12241410D02*
X11281000Y-12261410D01*
X11281000Y-12241410D02*
X11261000Y-12261410D01*
X11278490Y-10832690D02*
X11298490Y-10852690D01*
X11298490Y-10832690D02*
X11278490Y-10852690D01*
X11279920Y-12789840D02*
X11299920Y-12809840D01*
X11299920Y-12789840D02*
X11279920Y-12809840D01*
X11284530Y-11799530D02*
X11304530Y-11819530D01*
X11304530Y-11799530D02*
X11284530Y-11819530D01*
X11288780Y-11723700D02*
X11308780Y-11743700D01*
X11308780Y-11723700D02*
X11288780Y-11743700D01*
X11355290Y-11741750D02*
X11375290Y-11761750D01*
X11375290Y-11741750D02*
X11355290Y-11761750D01*
X11371056Y-12376948D02*
X11391056Y-12396948D01*
X11391056Y-12376948D02*
X11371056Y-12396948D01*
X11395630Y-12623870D02*
X11415630Y-12643870D01*
X11415630Y-12623870D02*
X11395630Y-12643870D01*
X11451000Y-10743510D02*
X11471000Y-10763510D01*
X11471000Y-10743510D02*
X11451000Y-10763510D01*
X11470560Y-11718040D02*
X11490560Y-11738040D01*
X11490560Y-11718040D02*
X11470560Y-11738040D01*
X11475060Y-12805310D02*
X11495060Y-12825310D01*
X11495060Y-12805310D02*
X11475060Y-12825310D01*
X11698102Y-12275896D02*
X11718102Y-12295896D01*
X11718102Y-12275896D02*
X11698102Y-12295896D01*
X11722000Y-12363100D02*
X11742000Y-12383100D01*
X11742000Y-12363100D02*
X11722000Y-12383100D01*
X11730000Y-12420000D02*
X11750000Y-12440000D01*
X11750000Y-12420000D02*
X11730000Y-12440000D01*
X11764000Y-12889600D02*
X11784000Y-12909600D01*
X11784000Y-12889600D02*
X11764000Y-12909600D01*
X11855980Y-10854790D02*
X11875980Y-10874790D01*
X11875980Y-10854790D02*
X11855980Y-10874790D01*
X11868681Y-12906114D02*
X11888681Y-12926114D01*
X11888681Y-12906114D02*
X11868681Y-12926114D01*
X11870000Y-12370000D02*
X11890000Y-12390000D01*
X11890000Y-12370000D02*
X11870000Y-12390000D01*
X11873000Y-12231680D02*
X11893000Y-12251680D01*
X11893000Y-12231680D02*
X11873000Y-12251680D01*
X11891000Y-11568000D02*
X11911000Y-11588000D01*
X11911000Y-11568000D02*
X11891000Y-11588000D01*
X11899806Y-12669050D02*
X11919806Y-12689050D01*
X11919806Y-12669050D02*
X11899806Y-12689050D01*
X11906330Y-10698220D02*
X11926330Y-10718220D01*
X11926330Y-10698220D02*
X11906330Y-10718220D01*
X11945670Y-12718830D02*
X11965670Y-12738830D01*
X11965670Y-12718830D02*
X11945670Y-12738830D01*
X12018970Y-12371110D02*
X12038970Y-12391110D01*
X12038970Y-12371110D02*
X12018970Y-12391110D01*
X12025480Y-12290040D02*
X12045480Y-12310040D01*
X12045480Y-12290040D02*
X12025480Y-12310040D01*
X12042860Y-12711560D02*
X12062860Y-12731560D01*
X12062860Y-12711560D02*
X12042860Y-12731560D01*
X12059120Y-11132220D02*
X12079120Y-11152220D01*
X12079120Y-11132220D02*
X12059120Y-11152220D01*
X12068130Y-10459850D02*
X12088130Y-10479850D01*
X12088130Y-10459850D02*
X12068130Y-10479850D01*
X12076770Y-10751590D02*
X12096770Y-10771590D01*
X12096770Y-10751590D02*
X12076770Y-10771590D01*
X12098630Y-13330030D02*
X12118630Y-13350030D01*
X12118630Y-13330030D02*
X12098630Y-13350030D01*
X12098740Y-13263680D02*
X12118740Y-13283680D01*
X12118740Y-13263680D02*
X12098740Y-13283680D01*
X12107290Y-12346098D02*
X12127290Y-12366098D01*
X12127290Y-12346098D02*
X12107290Y-12366098D01*
X12209800Y-11505000D02*
X12229800Y-11525000D01*
X12229800Y-11505000D02*
X12209800Y-11525000D01*
X12249670Y-10880650D02*
X12269670Y-10900650D01*
X12269670Y-10880650D02*
X12249670Y-10900650D01*
X12257260Y-12356550D02*
X12277260Y-12376550D01*
X12277260Y-12356550D02*
X12257260Y-12376550D01*
X12294010Y-12847150D02*
X12314010Y-12867150D01*
X12314010Y-12847150D02*
X12294010Y-12867150D01*
X12319980Y-11582070D02*
X12339980Y-11602070D01*
X12339980Y-11582070D02*
X12319980Y-11602070D01*
X12342080Y-12790220D02*
X12362080Y-12810220D01*
X12362080Y-12790220D02*
X12342080Y-12810220D01*
X12342900Y-12376740D02*
X12362900Y-12396740D01*
X12362900Y-12376740D02*
X12342900Y-12396740D01*
X12381400Y-10498560D02*
X12401400Y-10518560D01*
X12401400Y-10498560D02*
X12381400Y-10518560D01*
X12383390Y-13052870D02*
X12403390Y-13072870D01*
X12403390Y-13052870D02*
X12383390Y-13072870D01*
X12439680Y-11271550D02*
X12459680Y-11291550D01*
X12459680Y-11271550D02*
X12439680Y-11291550D01*
X12457080Y-11741750D02*
X12477080Y-11761750D01*
X12477080Y-11741750D02*
X12457080Y-11761750D01*
X12469010Y-13090900D02*
X12489010Y-13110900D01*
X12489010Y-13090900D02*
X12469010Y-13110900D01*
X12478378Y-11135586D02*
X12498378Y-11155586D01*
X12498378Y-11135586D02*
X12478378Y-11155586D01*
X12508920Y-12678290D02*
X12528920Y-12698290D01*
X12528920Y-12678290D02*
X12508920Y-12698290D01*
X12533920Y-10704590D02*
X12553920Y-10724590D01*
X12553920Y-10704590D02*
X12533920Y-10724590D01*
X12572850Y-11075760D02*
X12592850Y-11095760D01*
X12592850Y-11075760D02*
X12572850Y-11095760D01*
X12586880Y-13214380D02*
X12606880Y-13234380D01*
X12606880Y-13214380D02*
X12586880Y-13234380D01*
X12594849Y-12296878D02*
X12614849Y-12316878D01*
X12614849Y-12296878D02*
X12594849Y-12316878D01*
X12655000Y-11248000D02*
X12675000Y-11268000D01*
X12675000Y-11248000D02*
X12655000Y-11268000D01*
X12670000Y-13170000D02*
X12690000Y-13190000D01*
X12690000Y-13170000D02*
X12670000Y-13190000D01*
X12716230Y-12114570D02*
X12736230Y-12134570D01*
X12736230Y-12114570D02*
X12716230Y-12134570D01*
X12745000Y-11161000D02*
X12765000Y-11181000D01*
X12765000Y-11161000D02*
X12745000Y-11181000D01*
X12750000Y-12070000D02*
X12770000Y-12090000D01*
X12770000Y-12070000D02*
X12750000Y-12090000D01*
X12763010Y-12309330D02*
X12783010Y-12329330D01*
X12783010Y-12309330D02*
X12763010Y-12329330D01*
X12765150Y-11350710D02*
X12785150Y-11370710D01*
X12785150Y-11350710D02*
X12765150Y-11370710D01*
X12787450Y-10908760D02*
X12807450Y-10928760D01*
X12807450Y-10908760D02*
X12787450Y-10928760D01*
X12790000Y-12700000D02*
X12810000Y-12720000D01*
X12810000Y-12700000D02*
X12790000Y-12720000D01*
X12791260Y-11750440D02*
X12811260Y-11770440D01*
X12811260Y-11750440D02*
X12791260Y-11770440D01*
X12824660Y-12599060D02*
X12844660Y-12619060D01*
X12844660Y-12599060D02*
X12824660Y-12619060D01*
X12839230Y-12183260D02*
X12859230Y-12203260D01*
X12859230Y-12183260D02*
X12839230Y-12203260D01*
X12861000Y-11589000D02*
X12881000Y-11609000D01*
X12881000Y-11589000D02*
X12861000Y-11609000D01*
X12867810Y-12061310D02*
X12887810Y-12081310D01*
X12887810Y-12061310D02*
X12867810Y-12081310D01*
X12879420Y-11204280D02*
X12899420Y-11224280D01*
X12899420Y-11204280D02*
X12879420Y-11224280D01*
X12890500Y-12206900D02*
X12910500Y-12226900D01*
X12910500Y-12206900D02*
X12890500Y-12226900D01*
X12947390Y-13830000D02*
X12967390Y-13850000D01*
X12967390Y-13830000D02*
X12947390Y-13850000D01*
X12981840Y-11107200D02*
X13001840Y-11127200D01*
X13001840Y-11107200D02*
X12981840Y-11127200D01*
X12988690Y-12469763D02*
X13008690Y-12489763D01*
X13008690Y-12469763D02*
X12988690Y-12489763D01*
X13040480Y-12065760D02*
X13060480Y-12085760D01*
X13060480Y-12065760D02*
X13040480Y-12085760D01*
X13059160Y-11957160D02*
X13079160Y-11977160D01*
X13079160Y-11957160D02*
X13059160Y-11977160D01*
X13064120Y-11464860D02*
X13084120Y-11484860D01*
X13084120Y-11464860D02*
X13064120Y-11484860D01*
X13083084Y-11907338D02*
X13103084Y-11927338D01*
X13103084Y-11907338D02*
X13083084Y-11927338D01*
X13084630Y-12472230D02*
X13104630Y-12492230D01*
X13104630Y-12472230D02*
X13084630Y-12492230D01*
X13105530Y-10908920D02*
X13125530Y-10928920D01*
X13125530Y-10908920D02*
X13105530Y-10928920D01*
X13106660Y-12130910D02*
X13126660Y-12150910D01*
X13126660Y-12130910D02*
X13106660Y-12150910D01*
X13109120Y-11264540D02*
X13129120Y-11284540D01*
X13129120Y-11264540D02*
X13109120Y-11284540D01*
X13170000Y-11980000D02*
X13190000Y-12000000D01*
X13190000Y-11980000D02*
X13170000Y-12000000D01*
X13226860Y-12650190D02*
X13246860Y-12670190D01*
X13246860Y-12650190D02*
X13226860Y-12670190D01*
X13252470Y-11568680D02*
X13272470Y-11588680D01*
X13272470Y-11568680D02*
X13252470Y-11588680D01*
X13311360Y-11217070D02*
X13331360Y-11237070D01*
X13331360Y-11217070D02*
X13311360Y-11237070D01*
X13388990Y-10965370D02*
X13408990Y-10985370D01*
X13408990Y-10965370D02*
X13388990Y-10985370D01*
X13408400Y-10431200D02*
X13428400Y-10451200D01*
X13428400Y-10431200D02*
X13408400Y-10451200D01*
X13432280Y-11689440D02*
X13452280Y-11709440D01*
X13452280Y-11689440D02*
X13432280Y-11709440D01*
X13434030Y-11860450D02*
X13454030Y-11880450D01*
X13454030Y-11860450D02*
X13434030Y-11880450D01*
X13437730Y-11943800D02*
X13457730Y-11963800D01*
X13457730Y-11943800D02*
X13437730Y-11963800D01*
X13450520Y-11192880D02*
X13470520Y-11212880D01*
X13470520Y-11192880D02*
X13450520Y-11212880D01*
X13562800Y-11800340D02*
X13582800Y-11820340D01*
X13582800Y-11800340D02*
X13562800Y-11820340D01*
X13565660Y-11685900D02*
X13585660Y-11705900D01*
X13585660Y-11685900D02*
X13565660Y-11705900D01*
X13602020Y-11879730D02*
X13622020Y-11899730D01*
X13622020Y-11879730D02*
X13602020Y-11899730D01*
X13603720Y-12671820D02*
X13623720Y-12691820D01*
X13623720Y-12671820D02*
X13603720Y-12691820D01*
X13633000Y-11189000D02*
X13653000Y-11209000D01*
X13653000Y-11189000D02*
X13633000Y-11209000D01*
X13697700Y-11305500D02*
X13717700Y-11325500D01*
X13717700Y-11305500D02*
X13697700Y-11325500D01*
X13809090Y-12023650D02*
X13829090Y-12043650D01*
X13829090Y-12023650D02*
X13809090Y-12043650D01*
X13853865Y-11299460D02*
X13873865Y-11319460D01*
X13873865Y-11299460D02*
X13853865Y-11319460D01*
X13943440Y-12009300D02*
X13963440Y-12029300D01*
X13963440Y-12009300D02*
X13943440Y-12029300D01*
X13973036Y-11270792D02*
X13993036Y-11290792D01*
X13993036Y-11270792D02*
X13973036Y-11290792D01*
X13980064Y-11642287D02*
X14000064Y-11662287D01*
X14000064Y-11642287D02*
X13980064Y-11662287D01*
X14022270Y-12002120D02*
X14042270Y-12022120D01*
X14042270Y-12002120D02*
X14022270Y-12022120D01*
X14064221Y-12056036D02*
X14084221Y-12076036D01*
X14084221Y-12056036D02*
X14064221Y-12076036D01*
X14086962Y-10539987D02*
X14106962Y-10559987D01*
X14106962Y-10539987D02*
X14086962Y-10559987D01*
X14203320Y-10432530D02*
X14223320Y-10452530D01*
X14223320Y-10432530D02*
X14203320Y-10452530D01*
X14333940Y-11044790D02*
X14353940Y-11064790D01*
X14353940Y-11044790D02*
X14333940Y-11064790D01*
X10140580Y-10760000D02*
G75*
G02*
X10110580Y-10760000I-15000J0D01*
G01*
X10110580Y-10760000D02*
G75*
G02*
X10140580Y-10760000I15000J0D01*
G01*
X10140580Y-14060000D02*
G75*
G02*
X10110580Y-14060000I-15000J0D01*
G01*
X10110580Y-14060000D02*
G75*
G02*
X10140580Y-14060000I15000J0D01*
G01*
X10200248Y-11500150D02*
G75*
G02*
X10170248Y-11500150I-15000J0D01*
G01*
X10170248Y-11500150D02*
G75*
G02*
X10200248Y-11500150I15000J0D01*
G01*
X10215000Y-10200000D02*
G75*
G02*
X10185000Y-10200000I-15000J0D01*
G01*
X10185000Y-10200000D02*
G75*
G02*
X10215000Y-10200000I15000J0D01*
G01*
X10215000Y-12900000D02*
G75*
G02*
X10185000Y-12900000I-15000J0D01*
G01*
X10185000Y-12900000D02*
G75*
G02*
X10215000Y-12900000I15000J0D01*
G01*
X10217290Y-10852040D02*
G75*
G02*
X10187290Y-10852040I-15000J0D01*
G01*
X10187290Y-10852040D02*
G75*
G02*
X10217290Y-10852040I15000J0D01*
G01*
X10222486Y-13724631D02*
G75*
G02*
X10192486Y-13724631I-15000J0D01*
G01*
X10192486Y-13724631D02*
G75*
G02*
X10222486Y-13724631I15000J0D01*
G01*
X10256620Y-10683230D02*
G75*
G02*
X10226620Y-10683230I-15000J0D01*
G01*
X10226620Y-10683230D02*
G75*
G02*
X10256620Y-10683230I15000J0D01*
G01*
X10267787Y-14505415D02*
G75*
G02*
X10237787Y-14505415I-15000J0D01*
G01*
X10237787Y-14505415D02*
G75*
G02*
X10267787Y-14505415I15000J0D01*
G01*
X10286293Y-12317267D02*
G75*
G02*
X10256293Y-12317267I-15000J0D01*
G01*
X10256293Y-12317267D02*
G75*
G02*
X10286293Y-12317267I15000J0D01*
G01*
X10288329Y-14428752D02*
G75*
G02*
X10258329Y-14428752I-15000J0D01*
G01*
X10258329Y-14428752D02*
G75*
G02*
X10288329Y-14428752I15000J0D01*
G01*
X10316310Y-10734750D02*
G75*
G02*
X10286310Y-10734750I-15000J0D01*
G01*
X10286310Y-10734750D02*
G75*
G02*
X10316310Y-10734750I15000J0D01*
G01*
X10327860Y-12520000D02*
G75*
G02*
X10297860Y-12520000I-15000J0D01*
G01*
X10297860Y-12520000D02*
G75*
G02*
X10327860Y-12520000I15000J0D01*
G01*
X10337024Y-13258010D02*
G75*
G02*
X10307024Y-13258010I-15000J0D01*
G01*
X10307024Y-13258010D02*
G75*
G02*
X10337024Y-13258010I15000J0D01*
G01*
X10337982Y-13078653D02*
G75*
G02*
X10307982Y-13078653I-15000J0D01*
G01*
X10307982Y-13078653D02*
G75*
G02*
X10337982Y-13078653I15000J0D01*
G01*
X10358350Y-11408160D02*
G75*
G02*
X10328350Y-11408160I-15000J0D01*
G01*
X10328350Y-11408160D02*
G75*
G02*
X10358350Y-11408160I15000J0D01*
G01*
X10361580Y-12740000D02*
G75*
G02*
X10331580Y-12740000I-15000J0D01*
G01*
X10331580Y-12740000D02*
G75*
G02*
X10361580Y-12740000I15000J0D01*
G01*
X10362213Y-14505415D02*
G75*
G02*
X10332213Y-14505415I-15000J0D01*
G01*
X10332213Y-14505415D02*
G75*
G02*
X10362213Y-14505415I15000J0D01*
G01*
X10370408Y-12290010D02*
G75*
G02*
X10340408Y-12290010I-15000J0D01*
G01*
X10340408Y-12290010D02*
G75*
G02*
X10370408Y-12290010I15000J0D01*
G01*
X10398710Y-12507810D02*
G75*
G02*
X10368710Y-12507810I-15000J0D01*
G01*
X10368710Y-12507810D02*
G75*
G02*
X10398710Y-12507810I15000J0D01*
G01*
X10404400Y-13054300D02*
G75*
G02*
X10374400Y-13054300I-15000J0D01*
G01*
X10374400Y-13054300D02*
G75*
G02*
X10404400Y-13054300I15000J0D01*
G01*
X10413790Y-11852560D02*
G75*
G02*
X10383790Y-11852560I-15000J0D01*
G01*
X10383790Y-11852560D02*
G75*
G02*
X10413790Y-11852560I15000J0D01*
G01*
X10417397Y-13595759D02*
G75*
G02*
X10387397Y-13595759I-15000J0D01*
G01*
X10387397Y-13595759D02*
G75*
G02*
X10417397Y-13595759I15000J0D01*
G01*
X10446340Y-11448620D02*
G75*
G02*
X10416340Y-11448620I-15000J0D01*
G01*
X10416340Y-11448620D02*
G75*
G02*
X10446340Y-11448620I15000J0D01*
G01*
X10452390Y-12608710D02*
G75*
G02*
X10422390Y-12608710I-15000J0D01*
G01*
X10422390Y-12608710D02*
G75*
G02*
X10452390Y-12608710I15000J0D01*
G01*
X10468125Y-12018125D02*
G75*
G02*
X10438125Y-12018125I-15000J0D01*
G01*
X10438125Y-12018125D02*
G75*
G02*
X10468125Y-12018125I15000J0D01*
G01*
X10472240Y-11355730D02*
G75*
G02*
X10442240Y-11355730I-15000J0D01*
G01*
X10442240Y-11355730D02*
G75*
G02*
X10472240Y-11355730I15000J0D01*
G01*
X10489540Y-12541520D02*
G75*
G02*
X10459540Y-12541520I-15000J0D01*
G01*
X10459540Y-12541520D02*
G75*
G02*
X10489540Y-12541520I15000J0D01*
G01*
X10544830Y-12243142D02*
G75*
G02*
X10514830Y-12243142I-15000J0D01*
G01*
X10514830Y-12243142D02*
G75*
G02*
X10544830Y-12243142I15000J0D01*
G01*
X10555625Y-11336875D02*
G75*
G02*
X10525625Y-11336875I-15000J0D01*
G01*
X10525625Y-11336875D02*
G75*
G02*
X10555625Y-11336875I15000J0D01*
G01*
X10575000Y-14160000D02*
G75*
G02*
X10545000Y-14160000I-15000J0D01*
G01*
X10545000Y-14160000D02*
G75*
G02*
X10575000Y-14160000I15000J0D01*
G01*
X10643100Y-14468435D02*
G75*
G02*
X10613100Y-14468435I-15000J0D01*
G01*
X10613100Y-14468435D02*
G75*
G02*
X10643100Y-14468435I15000J0D01*
G01*
X10645390Y-10482680D02*
G75*
G02*
X10615390Y-10482680I-15000J0D01*
G01*
X10615390Y-10482680D02*
G75*
G02*
X10645390Y-10482680I15000J0D01*
G01*
X10693618Y-10366384D02*
G75*
G02*
X10663618Y-10366384I-15000J0D01*
G01*
X10663618Y-10366384D02*
G75*
G02*
X10693618Y-10366384I15000J0D01*
G01*
X10712760Y-11864460D02*
G75*
G02*
X10682760Y-11864460I-15000J0D01*
G01*
X10682760Y-11864460D02*
G75*
G02*
X10712760Y-11864460I15000J0D01*
G01*
X10712850Y-13067230D02*
G75*
G02*
X10682850Y-13067230I-15000J0D01*
G01*
X10682850Y-13067230D02*
G75*
G02*
X10712850Y-13067230I15000J0D01*
G01*
X10713420Y-11110900D02*
G75*
G02*
X10683420Y-11110900I-15000J0D01*
G01*
X10683420Y-11110900D02*
G75*
G02*
X10713420Y-11110900I15000J0D01*
G01*
X10714110Y-11593690D02*
G75*
G02*
X10684110Y-11593690I-15000J0D01*
G01*
X10684110Y-11593690D02*
G75*
G02*
X10714110Y-11593690I15000J0D01*
G01*
X10744750Y-12402800D02*
G75*
G02*
X10714750Y-12402800I-15000J0D01*
G01*
X10714750Y-12402800D02*
G75*
G02*
X10744750Y-12402800I15000J0D01*
G01*
X10752610Y-11719620D02*
G75*
G02*
X10722610Y-11719620I-15000J0D01*
G01*
X10722610Y-11719620D02*
G75*
G02*
X10752610Y-11719620I15000J0D01*
G01*
X10755000Y-10200000D02*
G75*
G02*
X10725000Y-10200000I-15000J0D01*
G01*
X10725000Y-10200000D02*
G75*
G02*
X10755000Y-10200000I15000J0D01*
G01*
X10758029Y-10115000D02*
G75*
G02*
X10728029Y-10115000I-15000J0D01*
G01*
X10728029Y-10115000D02*
G75*
G02*
X10758029Y-10115000I15000J0D01*
G01*
X10780550Y-11644640D02*
G75*
G02*
X10750550Y-11644640I-15000J0D01*
G01*
X10750550Y-11644640D02*
G75*
G02*
X10780550Y-11644640I15000J0D01*
G01*
X10816360Y-13410920D02*
G75*
G02*
X10786360Y-13410920I-15000J0D01*
G01*
X10786360Y-13410920D02*
G75*
G02*
X10816360Y-13410920I15000J0D01*
G01*
X10820990Y-11872410D02*
G75*
G02*
X10790990Y-11872410I-15000J0D01*
G01*
X10790990Y-11872410D02*
G75*
G02*
X10820990Y-11872410I15000J0D01*
G01*
X10826310Y-12302220D02*
G75*
G02*
X10796310Y-12302220I-15000J0D01*
G01*
X10796310Y-12302220D02*
G75*
G02*
X10826310Y-12302220I15000J0D01*
G01*
X10832850Y-12665770D02*
G75*
G02*
X10802850Y-12665770I-15000J0D01*
G01*
X10802850Y-12665770D02*
G75*
G02*
X10832850Y-12665770I15000J0D01*
G01*
X10855880Y-13557540D02*
G75*
G02*
X10825880Y-13557540I-15000J0D01*
G01*
X10825880Y-13557540D02*
G75*
G02*
X10855880Y-13557540I15000J0D01*
G01*
X10872320Y-13181820D02*
G75*
G02*
X10842320Y-13181820I-15000J0D01*
G01*
X10842320Y-13181820D02*
G75*
G02*
X10872320Y-13181820I15000J0D01*
G01*
X10922740Y-13335170D02*
G75*
G02*
X10892740Y-13335170I-15000J0D01*
G01*
X10892740Y-13335170D02*
G75*
G02*
X10922740Y-13335170I15000J0D01*
G01*
X10938810Y-11900700D02*
G75*
G02*
X10908810Y-11900700I-15000J0D01*
G01*
X10908810Y-11900700D02*
G75*
G02*
X10938810Y-11900700I15000J0D01*
G01*
X10963330Y-12062910D02*
G75*
G02*
X10933330Y-12062910I-15000J0D01*
G01*
X10933330Y-12062910D02*
G75*
G02*
X10963330Y-12062910I15000J0D01*
G01*
X10971529Y-10124500D02*
G75*
G02*
X10941529Y-10124500I-15000J0D01*
G01*
X10941529Y-10124500D02*
G75*
G02*
X10971529Y-10124500I15000J0D01*
G01*
X10980960Y-12453620D02*
G75*
G02*
X10950960Y-12453620I-15000J0D01*
G01*
X10950960Y-12453620D02*
G75*
G02*
X10980960Y-12453620I15000J0D01*
G01*
X10982010Y-13400000D02*
G75*
G02*
X10952010Y-13400000I-15000J0D01*
G01*
X10952010Y-13400000D02*
G75*
G02*
X10982010Y-13400000I15000J0D01*
G01*
X10989140Y-13635480D02*
G75*
G02*
X10959140Y-13635480I-15000J0D01*
G01*
X10959140Y-13635480D02*
G75*
G02*
X10989140Y-13635480I15000J0D01*
G01*
X10997440Y-10320000D02*
G75*
G02*
X10967440Y-10320000I-15000J0D01*
G01*
X10967440Y-10320000D02*
G75*
G02*
X10997440Y-10320000I15000J0D01*
G01*
X11013999Y-12899619D02*
G75*
G02*
X10983999Y-12899619I-15000J0D01*
G01*
X10983999Y-12899619D02*
G75*
G02*
X11013999Y-12899619I15000J0D01*
G01*
X11016226Y-14250000D02*
G75*
G02*
X10986226Y-14250000I-15000J0D01*
G01*
X10986226Y-14250000D02*
G75*
G02*
X11016226Y-14250000I15000J0D01*
G01*
X11026860Y-10247460D02*
G75*
G02*
X10996860Y-10247460I-15000J0D01*
G01*
X10996860Y-10247460D02*
G75*
G02*
X11026860Y-10247460I15000J0D01*
G01*
X11030640Y-13840000D02*
G75*
G02*
X11000640Y-13840000I-15000J0D01*
G01*
X11000640Y-13840000D02*
G75*
G02*
X11030640Y-13840000I15000J0D01*
G01*
X11050420Y-12684980D02*
G75*
G02*
X11020420Y-12684980I-15000J0D01*
G01*
X11020420Y-12684980D02*
G75*
G02*
X11050420Y-12684980I15000J0D01*
G01*
X11077660Y-14468315D02*
G75*
G02*
X11047660Y-14468315I-15000J0D01*
G01*
X11047660Y-14468315D02*
G75*
G02*
X11077660Y-14468315I15000J0D01*
G01*
X11100620Y-12577160D02*
G75*
G02*
X11070620Y-12577160I-15000J0D01*
G01*
X11070620Y-12577160D02*
G75*
G02*
X11100620Y-12577160I15000J0D01*
G01*
X11115000Y-14160000D02*
G75*
G02*
X11085000Y-14160000I-15000J0D01*
G01*
X11085000Y-14160000D02*
G75*
G02*
X11115000Y-14160000I15000J0D01*
G01*
X11115000Y-14340000D02*
G75*
G02*
X11085000Y-14340000I-15000J0D01*
G01*
X11085000Y-14340000D02*
G75*
G02*
X11115000Y-14340000I15000J0D01*
G01*
X11134200Y-10380080D02*
G75*
G02*
X11104200Y-10380080I-15000J0D01*
G01*
X11104200Y-10380080D02*
G75*
G02*
X11134200Y-10380080I15000J0D01*
G01*
X11161750Y-13813660D02*
G75*
G02*
X11131750Y-13813660I-15000J0D01*
G01*
X11131750Y-13813660D02*
G75*
G02*
X11161750Y-13813660I15000J0D01*
G01*
X11188900Y-10540080D02*
G75*
G02*
X11158900Y-10540080I-15000J0D01*
G01*
X11158900Y-10540080D02*
G75*
G02*
X11188900Y-10540080I15000J0D01*
G01*
X11246290Y-11281990D02*
G75*
G02*
X11216290Y-11281990I-15000J0D01*
G01*
X11216290Y-11281990D02*
G75*
G02*
X11246290Y-11281990I15000J0D01*
G01*
X11249340Y-11873170D02*
G75*
G02*
X11219340Y-11873170I-15000J0D01*
G01*
X11219340Y-11873170D02*
G75*
G02*
X11249340Y-11873170I15000J0D01*
G01*
X11271490Y-12349880D02*
G75*
G02*
X11241490Y-12349880I-15000J0D01*
G01*
X11241490Y-12349880D02*
G75*
G02*
X11271490Y-12349880I15000J0D01*
G01*
X11271560Y-12055410D02*
G75*
G02*
X11241560Y-12055410I-15000J0D01*
G01*
X11241560Y-12055410D02*
G75*
G02*
X11271560Y-12055410I15000J0D01*
G01*
X11277920Y-13926890D02*
G75*
G02*
X11247920Y-13926890I-15000J0D01*
G01*
X11247920Y-13926890D02*
G75*
G02*
X11277920Y-13926890I15000J0D01*
G01*
X11292060Y-10393950D02*
G75*
G02*
X11262060Y-10393950I-15000J0D01*
G01*
X11262060Y-10393950D02*
G75*
G02*
X11292060Y-10393950I15000J0D01*
G01*
X11295000Y-14160000D02*
G75*
G02*
X11265000Y-14160000I-15000J0D01*
G01*
X11265000Y-14160000D02*
G75*
G02*
X11295000Y-14160000I15000J0D01*
G01*
X11295000Y-14340000D02*
G75*
G02*
X11265000Y-14340000I-15000J0D01*
G01*
X11265000Y-14340000D02*
G75*
G02*
X11295000Y-14340000I15000J0D01*
G01*
X11330230Y-13878000D02*
G75*
G02*
X11300230Y-13878000I-15000J0D01*
G01*
X11300230Y-13878000D02*
G75*
G02*
X11330230Y-13878000I15000J0D01*
G01*
X11338620Y-10606420D02*
G75*
G02*
X11308620Y-10606420I-15000J0D01*
G01*
X11308620Y-10606420D02*
G75*
G02*
X11338620Y-10606420I15000J0D01*
G01*
X11342970Y-11609230D02*
G75*
G02*
X11312970Y-11609230I-15000J0D01*
G01*
X11312970Y-11609230D02*
G75*
G02*
X11342970Y-11609230I15000J0D01*
G01*
X11347510Y-11471900D02*
G75*
G02*
X11317510Y-11471900I-15000J0D01*
G01*
X11317510Y-11471900D02*
G75*
G02*
X11347510Y-11471900I15000J0D01*
G01*
X11351060Y-10479810D02*
G75*
G02*
X11321060Y-10479810I-15000J0D01*
G01*
X11321060Y-10479810D02*
G75*
G02*
X11351060Y-10479810I15000J0D01*
G01*
X11357610Y-11266370D02*
G75*
G02*
X11327610Y-11266370I-15000J0D01*
G01*
X11327610Y-11266370D02*
G75*
G02*
X11357610Y-11266370I15000J0D01*
G01*
X11367980Y-11950630D02*
G75*
G02*
X11337980Y-11950630I-15000J0D01*
G01*
X11337980Y-11950630D02*
G75*
G02*
X11367980Y-11950630I15000J0D01*
G01*
X11397640Y-13450520D02*
G75*
G02*
X11367640Y-13450520I-15000J0D01*
G01*
X11367640Y-13450520D02*
G75*
G02*
X11397640Y-13450520I15000J0D01*
G01*
X11417850Y-11470640D02*
G75*
G02*
X11387850Y-11470640I-15000J0D01*
G01*
X11387850Y-11470640D02*
G75*
G02*
X11417850Y-11470640I15000J0D01*
G01*
X11438140Y-11351520D02*
G75*
G02*
X11408140Y-11351520I-15000J0D01*
G01*
X11408140Y-11351520D02*
G75*
G02*
X11438140Y-11351520I15000J0D01*
G01*
X11475000Y-14160000D02*
G75*
G02*
X11445000Y-14160000I-15000J0D01*
G01*
X11445000Y-14160000D02*
G75*
G02*
X11475000Y-14160000I15000J0D01*
G01*
X11475000Y-14340000D02*
G75*
G02*
X11445000Y-14340000I-15000J0D01*
G01*
X11445000Y-14340000D02*
G75*
G02*
X11475000Y-14340000I15000J0D01*
G01*
X11619300Y-13840000D02*
G75*
G02*
X11589300Y-13840000I-15000J0D01*
G01*
X11589300Y-13840000D02*
G75*
G02*
X11619300Y-13840000I15000J0D01*
G01*
X11632260Y-12322490D02*
G75*
G02*
X11602260Y-12322490I-15000J0D01*
G01*
X11602260Y-12322490D02*
G75*
G02*
X11632260Y-12322490I15000J0D01*
G01*
X11638430Y-10472610D02*
G75*
G02*
X11608430Y-10472610I-15000J0D01*
G01*
X11608430Y-10472610D02*
G75*
G02*
X11638430Y-10472610I15000J0D01*
G01*
X11655000Y-13980000D02*
G75*
G02*
X11625000Y-13980000I-15000J0D01*
G01*
X11625000Y-13980000D02*
G75*
G02*
X11655000Y-13980000I15000J0D01*
G01*
X11655000Y-14160000D02*
G75*
G02*
X11625000Y-14160000I-15000J0D01*
G01*
X11625000Y-14160000D02*
G75*
G02*
X11655000Y-14160000I15000J0D01*
G01*
X11655000Y-10650410D02*
G75*
G02*
X11625000Y-10650410I-15000J0D01*
G01*
X11625000Y-10650410D02*
G75*
G02*
X11655000Y-10650410I15000J0D01*
G01*
X11688810Y-13441770D02*
G75*
G02*
X11658810Y-13441770I-15000J0D01*
G01*
X11658810Y-13441770D02*
G75*
G02*
X11688810Y-13441770I15000J0D01*
G01*
X11704290Y-12624870D02*
G75*
G02*
X11674290Y-12624870I-15000J0D01*
G01*
X11674290Y-12624870D02*
G75*
G02*
X11704290Y-12624870I15000J0D01*
G01*
X11750520Y-11263820D02*
G75*
G02*
X11720520Y-11263820I-15000J0D01*
G01*
X11720520Y-11263820D02*
G75*
G02*
X11750520Y-11263820I15000J0D01*
G01*
X11772981Y-10631471D02*
G75*
G02*
X11742981Y-10631471I-15000J0D01*
G01*
X11742981Y-10631471D02*
G75*
G02*
X11772981Y-10631471I15000J0D01*
G01*
X11785780Y-12279680D02*
G75*
G02*
X11755780Y-12279680I-15000J0D01*
G01*
X11755780Y-12279680D02*
G75*
G02*
X11785780Y-12279680I15000J0D01*
G01*
X11797649Y-14468315D02*
G75*
G02*
X11767649Y-14468315I-15000J0D01*
G01*
X11767649Y-14468315D02*
G75*
G02*
X11797649Y-14468315I15000J0D01*
G01*
X11825500Y-11712540D02*
G75*
G02*
X11795500Y-11712540I-15000J0D01*
G01*
X11795500Y-11712540D02*
G75*
G02*
X11825500Y-11712540I15000J0D01*
G01*
X11829270Y-10335040D02*
G75*
G02*
X11799270Y-10335040I-15000J0D01*
G01*
X11799270Y-10335040D02*
G75*
G02*
X11829270Y-10335040I15000J0D01*
G01*
X11835000Y-13260000D02*
G75*
G02*
X11805000Y-13260000I-15000J0D01*
G01*
X11805000Y-13260000D02*
G75*
G02*
X11835000Y-13260000I15000J0D01*
G01*
X11835000Y-14160000D02*
G75*
G02*
X11805000Y-14160000I-15000J0D01*
G01*
X11805000Y-14160000D02*
G75*
G02*
X11835000Y-14160000I15000J0D01*
G01*
X11843590Y-11146610D02*
G75*
G02*
X11813590Y-11146610I-15000J0D01*
G01*
X11813590Y-11146610D02*
G75*
G02*
X11843590Y-11146610I15000J0D01*
G01*
X11843973Y-10234527D02*
G75*
G02*
X11813973Y-10234527I-15000J0D01*
G01*
X11813973Y-10234527D02*
G75*
G02*
X11843973Y-10234527I15000J0D01*
G01*
X11874070Y-10748070D02*
G75*
G02*
X11844070Y-10748070I-15000J0D01*
G01*
X11844070Y-10748070D02*
G75*
G02*
X11874070Y-10748070I15000J0D01*
G01*
X11892936Y-14344636D02*
G75*
G02*
X11862936Y-14344636I-15000J0D01*
G01*
X11862936Y-14344636D02*
G75*
G02*
X11892936Y-14344636I15000J0D01*
G01*
X11898160Y-12066080D02*
G75*
G02*
X11868160Y-12066080I-15000J0D01*
G01*
X11868160Y-12066080D02*
G75*
G02*
X11898160Y-12066080I15000J0D01*
G01*
X11924140Y-11277880D02*
G75*
G02*
X11894140Y-11277880I-15000J0D01*
G01*
X11894140Y-11277880D02*
G75*
G02*
X11924140Y-11277880I15000J0D01*
G01*
X11938090Y-11348220D02*
G75*
G02*
X11908090Y-11348220I-15000J0D01*
G01*
X11908090Y-11348220D02*
G75*
G02*
X11938090Y-11348220I15000J0D01*
G01*
X11981660Y-13036190D02*
G75*
G02*
X11951660Y-13036190I-15000J0D01*
G01*
X11951660Y-13036190D02*
G75*
G02*
X11981660Y-13036190I15000J0D01*
G01*
X11999120Y-11415630D02*
G75*
G02*
X11969120Y-11415630I-15000J0D01*
G01*
X11969120Y-11415630D02*
G75*
G02*
X11999120Y-11415630I15000J0D01*
G01*
X12013580Y-10756710D02*
G75*
G02*
X11983580Y-10756710I-15000J0D01*
G01*
X11983580Y-10756710D02*
G75*
G02*
X12013580Y-10756710I15000J0D01*
G01*
X12015000Y-13620000D02*
G75*
G02*
X11985000Y-13620000I-15000J0D01*
G01*
X11985000Y-13620000D02*
G75*
G02*
X12015000Y-13620000I15000J0D01*
G01*
X12015000Y-14160000D02*
G75*
G02*
X11985000Y-14160000I-15000J0D01*
G01*
X11985000Y-14160000D02*
G75*
G02*
X12015000Y-14160000I15000J0D01*
G01*
X12020756Y-14312816D02*
G75*
G02*
X11990756Y-14312816I-15000J0D01*
G01*
X11990756Y-14312816D02*
G75*
G02*
X12020756Y-14312816I15000J0D01*
G01*
X12030900Y-11255510D02*
G75*
G02*
X12000900Y-11255510I-15000J0D01*
G01*
X12000900Y-11255510D02*
G75*
G02*
X12030900Y-11255510I15000J0D01*
G01*
X12072490Y-13108970D02*
G75*
G02*
X12042490Y-13108970I-15000J0D01*
G01*
X12042490Y-13108970D02*
G75*
G02*
X12072490Y-13108970I15000J0D01*
G01*
X12120590Y-10398400D02*
G75*
G02*
X12090590Y-10398400I-15000J0D01*
G01*
X12090590Y-10398400D02*
G75*
G02*
X12120590Y-10398400I15000J0D01*
G01*
X12133970Y-11569620D02*
G75*
G02*
X12103970Y-11569620I-15000J0D01*
G01*
X12103970Y-11569620D02*
G75*
G02*
X12133970Y-11569620I15000J0D01*
G01*
X12186240Y-13041690D02*
G75*
G02*
X12156240Y-13041690I-15000J0D01*
G01*
X12156240Y-13041690D02*
G75*
G02*
X12186240Y-13041690I15000J0D01*
G01*
X12189350Y-11287160D02*
G75*
G02*
X12159350Y-11287160I-15000J0D01*
G01*
X12159350Y-11287160D02*
G75*
G02*
X12189350Y-11287160I15000J0D01*
G01*
X12195000Y-13620000D02*
G75*
G02*
X12165000Y-13620000I-15000J0D01*
G01*
X12165000Y-13620000D02*
G75*
G02*
X12195000Y-13620000I15000J0D01*
G01*
X12195000Y-13800000D02*
G75*
G02*
X12165000Y-13800000I-15000J0D01*
G01*
X12165000Y-13800000D02*
G75*
G02*
X12195000Y-13800000I15000J0D01*
G01*
X12216910Y-11420220D02*
G75*
G02*
X12186910Y-11420220I-15000J0D01*
G01*
X12186910Y-11420220D02*
G75*
G02*
X12216910Y-11420220I15000J0D01*
G01*
X12228800Y-14274680D02*
G75*
G02*
X12198800Y-14274680I-15000J0D01*
G01*
X12198800Y-14274680D02*
G75*
G02*
X12228800Y-14274680I15000J0D01*
G01*
X12235510Y-11718570D02*
G75*
G02*
X12205510Y-11718570I-15000J0D01*
G01*
X12205510Y-11718570D02*
G75*
G02*
X12235510Y-11718570I15000J0D01*
G01*
X12238740Y-10736930D02*
G75*
G02*
X12208740Y-10736930I-15000J0D01*
G01*
X12208740Y-10736930D02*
G75*
G02*
X12238740Y-10736930I15000J0D01*
G01*
X12256760Y-13322770D02*
G75*
G02*
X12226760Y-13322770I-15000J0D01*
G01*
X12226760Y-13322770D02*
G75*
G02*
X12256760Y-13322770I15000J0D01*
G01*
X12265020Y-13840000D02*
G75*
G02*
X12235020Y-13840000I-15000J0D01*
G01*
X12235020Y-13840000D02*
G75*
G02*
X12265020Y-13840000I15000J0D01*
G01*
X12283800Y-11863380D02*
G75*
G02*
X12253800Y-11863380I-15000J0D01*
G01*
X12253800Y-11863380D02*
G75*
G02*
X12283800Y-11863380I15000J0D01*
G01*
X12290874Y-14213017D02*
G75*
G02*
X12260874Y-14213017I-15000J0D01*
G01*
X12260874Y-14213017D02*
G75*
G02*
X12290874Y-14213017I15000J0D01*
G01*
X12306000Y-10261350D02*
G75*
G02*
X12276000Y-10261350I-15000J0D01*
G01*
X12276000Y-10261350D02*
G75*
G02*
X12306000Y-10261350I15000J0D01*
G01*
X12306360Y-10127960D02*
G75*
G02*
X12276360Y-10127960I-15000J0D01*
G01*
X12276360Y-10127960D02*
G75*
G02*
X12306360Y-10127960I15000J0D01*
G01*
X12336120Y-11420730D02*
G75*
G02*
X12306120Y-11420730I-15000J0D01*
G01*
X12306120Y-11420730D02*
G75*
G02*
X12336120Y-11420730I15000J0D01*
G01*
X12336580Y-12328250D02*
G75*
G02*
X12306580Y-12328250I-15000J0D01*
G01*
X12306580Y-12328250D02*
G75*
G02*
X12336580Y-12328250I15000J0D01*
G01*
X12348660Y-12650880D02*
G75*
G02*
X12318660Y-12650880I-15000J0D01*
G01*
X12318660Y-12650880D02*
G75*
G02*
X12348660Y-12650880I15000J0D01*
G01*
X12355560Y-13325810D02*
G75*
G02*
X12325560Y-13325810I-15000J0D01*
G01*
X12325560Y-13325810D02*
G75*
G02*
X12355560Y-13325810I15000J0D01*
G01*
X12358010Y-12048910D02*
G75*
G02*
X12328010Y-12048910I-15000J0D01*
G01*
X12328010Y-12048910D02*
G75*
G02*
X12358010Y-12048910I15000J0D01*
G01*
X12358488Y-13986000D02*
G75*
G02*
X12328488Y-13986000I-15000J0D01*
G01*
X12328488Y-13986000D02*
G75*
G02*
X12358488Y-13986000I15000J0D01*
G01*
X12365030Y-11128520D02*
G75*
G02*
X12335030Y-11128520I-15000J0D01*
G01*
X12335030Y-11128520D02*
G75*
G02*
X12365030Y-11128520I15000J0D01*
G01*
X12375000Y-10740000D02*
G75*
G02*
X12345000Y-10740000I-15000J0D01*
G01*
X12345000Y-10740000D02*
G75*
G02*
X12375000Y-10740000I15000J0D01*
G01*
X12375000Y-13620000D02*
G75*
G02*
X12345000Y-13620000I-15000J0D01*
G01*
X12345000Y-13620000D02*
G75*
G02*
X12375000Y-13620000I15000J0D01*
G01*
X12397462Y-10143505D02*
G75*
G02*
X12367462Y-10143505I-15000J0D01*
G01*
X12367462Y-10143505D02*
G75*
G02*
X12397462Y-10143505I15000J0D01*
G01*
X12405820Y-12130940D02*
G75*
G02*
X12375820Y-12130940I-15000J0D01*
G01*
X12375820Y-12130940D02*
G75*
G02*
X12405820Y-12130940I15000J0D01*
G01*
X12426640Y-11467410D02*
G75*
G02*
X12396640Y-11467410I-15000J0D01*
G01*
X12396640Y-11467410D02*
G75*
G02*
X12426640Y-11467410I15000J0D01*
G01*
X12431205Y-13226480D02*
G75*
G02*
X12401205Y-13226480I-15000J0D01*
G01*
X12401205Y-13226480D02*
G75*
G02*
X12431205Y-13226480I15000J0D01*
G01*
X12442110Y-11572410D02*
G75*
G02*
X12412110Y-11572410I-15000J0D01*
G01*
X12412110Y-11572410D02*
G75*
G02*
X12442110Y-11572410I15000J0D01*
G01*
X12447780Y-12238630D02*
G75*
G02*
X12417780Y-12238630I-15000J0D01*
G01*
X12417780Y-12238630D02*
G75*
G02*
X12447780Y-12238630I15000J0D01*
G01*
X12456490Y-10723680D02*
G75*
G02*
X12426490Y-10723680I-15000J0D01*
G01*
X12426490Y-10723680D02*
G75*
G02*
X12456490Y-10723680I15000J0D01*
G01*
X12467960Y-12168290D02*
G75*
G02*
X12437960Y-12168290I-15000J0D01*
G01*
X12437960Y-12168290D02*
G75*
G02*
X12467960Y-12168290I15000J0D01*
G01*
X12471780Y-12022650D02*
G75*
G02*
X12441780Y-12022650I-15000J0D01*
G01*
X12441780Y-12022650D02*
G75*
G02*
X12471780Y-12022650I15000J0D01*
G01*
X12503430Y-12615970D02*
G75*
G02*
X12473430Y-12615970I-15000J0D01*
G01*
X12473430Y-12615970D02*
G75*
G02*
X12503430Y-12615970I15000J0D01*
G01*
X12504490Y-14400090D02*
G75*
G02*
X12474490Y-14400090I-15000J0D01*
G01*
X12474490Y-14400090D02*
G75*
G02*
X12504490Y-14400090I15000J0D01*
G01*
X12523250Y-10922050D02*
G75*
G02*
X12493250Y-10922050I-15000J0D01*
G01*
X12493250Y-10922050D02*
G75*
G02*
X12523250Y-10922050I15000J0D01*
G01*
X12555000Y-13260000D02*
G75*
G02*
X12525000Y-13260000I-15000J0D01*
G01*
X12525000Y-13260000D02*
G75*
G02*
X12555000Y-13260000I15000J0D01*
G01*
X12555000Y-13980000D02*
G75*
G02*
X12525000Y-13980000I-15000J0D01*
G01*
X12525000Y-13980000D02*
G75*
G02*
X12555000Y-13980000I15000J0D01*
G01*
X12607950Y-13140610D02*
G75*
G02*
X12577950Y-13140610I-15000J0D01*
G01*
X12577950Y-13140610D02*
G75*
G02*
X12607950Y-13140610I15000J0D01*
G01*
X12622622Y-10094817D02*
G75*
G02*
X12592622Y-10094817I-15000J0D01*
G01*
X12592622Y-10094817D02*
G75*
G02*
X12622622Y-10094817I15000J0D01*
G01*
X12630476Y-14450396D02*
G75*
G02*
X12600476Y-14450396I-15000J0D01*
G01*
X12600476Y-14450396D02*
G75*
G02*
X12630476Y-14450396I15000J0D01*
G01*
X12657610Y-10731740D02*
G75*
G02*
X12627610Y-10731740I-15000J0D01*
G01*
X12627610Y-10731740D02*
G75*
G02*
X12657610Y-10731740I15000J0D01*
G01*
X12659910Y-12501200D02*
G75*
G02*
X12629910Y-12501200I-15000J0D01*
G01*
X12629910Y-12501200D02*
G75*
G02*
X12659910Y-12501200I15000J0D01*
G01*
X12663940Y-13577720D02*
G75*
G02*
X12633940Y-13577720I-15000J0D01*
G01*
X12633940Y-13577720D02*
G75*
G02*
X12663940Y-13577720I15000J0D01*
G01*
X12699010Y-10336940D02*
G75*
G02*
X12669010Y-10336940I-15000J0D01*
G01*
X12669010Y-10336940D02*
G75*
G02*
X12699010Y-10336940I15000J0D01*
G01*
X12734400Y-11631370D02*
G75*
G02*
X12704400Y-11631370I-15000J0D01*
G01*
X12704400Y-11631370D02*
G75*
G02*
X12734400Y-11631370I15000J0D01*
G01*
X12751750Y-12010250D02*
G75*
G02*
X12721750Y-12010250I-15000J0D01*
G01*
X12721750Y-12010250D02*
G75*
G02*
X12751750Y-12010250I15000J0D01*
G01*
X12760930Y-11561030D02*
G75*
G02*
X12730930Y-11561030I-15000J0D01*
G01*
X12730930Y-11561030D02*
G75*
G02*
X12760930Y-11561030I15000J0D01*
G01*
X12829890Y-14369750D02*
G75*
G02*
X12799890Y-14369750I-15000J0D01*
G01*
X12799890Y-14369750D02*
G75*
G02*
X12829890Y-14369750I15000J0D01*
G01*
X12833520Y-11302040D02*
G75*
G02*
X12803520Y-11302040I-15000J0D01*
G01*
X12803520Y-11302040D02*
G75*
G02*
X12833520Y-11302040I15000J0D01*
G01*
X12842970Y-11186860D02*
G75*
G02*
X12812970Y-11186860I-15000J0D01*
G01*
X12812970Y-11186860D02*
G75*
G02*
X12842970Y-11186860I15000J0D01*
G01*
X12858460Y-13828680D02*
G75*
G02*
X12828460Y-13828680I-15000J0D01*
G01*
X12828460Y-13828680D02*
G75*
G02*
X12858460Y-13828680I15000J0D01*
G01*
X12875270Y-10320000D02*
G75*
G02*
X12845270Y-10320000I-15000J0D01*
G01*
X12845270Y-10320000D02*
G75*
G02*
X12875270Y-10320000I15000J0D01*
G01*
X12901146Y-10154265D02*
G75*
G02*
X12871146Y-10154265I-15000J0D01*
G01*
X12871146Y-10154265D02*
G75*
G02*
X12901146Y-10154265I15000J0D01*
G01*
X12922240Y-13662180D02*
G75*
G02*
X12892240Y-13662180I-15000J0D01*
G01*
X12892240Y-13662180D02*
G75*
G02*
X12922240Y-13662180I15000J0D01*
G01*
X12939880Y-14187240D02*
G75*
G02*
X12909880Y-14187240I-15000J0D01*
G01*
X12909880Y-14187240D02*
G75*
G02*
X12939880Y-14187240I15000J0D01*
G01*
X12964360Y-12287170D02*
G75*
G02*
X12934360Y-12287170I-15000J0D01*
G01*
X12934360Y-12287170D02*
G75*
G02*
X12964360Y-12287170I15000J0D01*
G01*
X12968980Y-11643986D02*
G75*
G02*
X12938980Y-11643986I-15000J0D01*
G01*
X12938980Y-11643986D02*
G75*
G02*
X12968980Y-11643986I15000J0D01*
G01*
X12994750Y-11567510D02*
G75*
G02*
X12964750Y-11567510I-15000J0D01*
G01*
X12964750Y-11567510D02*
G75*
G02*
X12994750Y-11567510I15000J0D01*
G01*
X13039450Y-13029320D02*
G75*
G02*
X13009450Y-13029320I-15000J0D01*
G01*
X13009450Y-13029320D02*
G75*
G02*
X13039450Y-13029320I15000J0D01*
G01*
X13046550Y-13138605D02*
G75*
G02*
X13016550Y-13138605I-15000J0D01*
G01*
X13016550Y-13138605D02*
G75*
G02*
X13046550Y-13138605I15000J0D01*
G01*
X13052871Y-13819843D02*
G75*
G02*
X13022871Y-13819843I-15000J0D01*
G01*
X13022871Y-13819843D02*
G75*
G02*
X13052871Y-13819843I15000J0D01*
G01*
X13064140Y-14279670D02*
G75*
G02*
X13034140Y-14279670I-15000J0D01*
G01*
X13034140Y-14279670D02*
G75*
G02*
X13064140Y-14279670I15000J0D01*
G01*
X13090965Y-13620613D02*
G75*
G02*
X13060965Y-13620613I-15000J0D01*
G01*
X13060965Y-13620613D02*
G75*
G02*
X13090965Y-13620613I15000J0D01*
G01*
X13150240Y-14027960D02*
G75*
G02*
X13120240Y-14027960I-15000J0D01*
G01*
X13120240Y-14027960D02*
G75*
G02*
X13150240Y-14027960I15000J0D01*
G01*
X13188000Y-11182540D02*
G75*
G02*
X13158000Y-11182540I-15000J0D01*
G01*
X13158000Y-11182540D02*
G75*
G02*
X13188000Y-11182540I15000J0D01*
G01*
X13190530Y-11419520D02*
G75*
G02*
X13160530Y-11419520I-15000J0D01*
G01*
X13160530Y-11419520D02*
G75*
G02*
X13190530Y-11419520I15000J0D01*
G01*
X13275000Y-13260000D02*
G75*
G02*
X13245000Y-13260000I-15000J0D01*
G01*
X13245000Y-13260000D02*
G75*
G02*
X13275000Y-13260000I15000J0D01*
G01*
X13280280Y-13024570D02*
G75*
G02*
X13250280Y-13024570I-15000J0D01*
G01*
X13250280Y-13024570D02*
G75*
G02*
X13280280Y-13024570I15000J0D01*
G01*
X13282660Y-11294000D02*
G75*
G02*
X13252660Y-11294000I-15000J0D01*
G01*
X13252660Y-11294000D02*
G75*
G02*
X13282660Y-11294000I15000J0D01*
G01*
X13295540Y-12134700D02*
G75*
G02*
X13265540Y-12134700I-15000J0D01*
G01*
X13265540Y-12134700D02*
G75*
G02*
X13295540Y-12134700I15000J0D01*
G01*
X13308500Y-11752290D02*
G75*
G02*
X13278500Y-11752290I-15000J0D01*
G01*
X13278500Y-11752290D02*
G75*
G02*
X13308500Y-11752290I15000J0D01*
G01*
X13313390Y-14002120D02*
G75*
G02*
X13283390Y-14002120I-15000J0D01*
G01*
X13283390Y-14002120D02*
G75*
G02*
X13313390Y-14002120I15000J0D01*
G01*
X13321290Y-10398530D02*
G75*
G02*
X13291290Y-10398530I-15000J0D01*
G01*
X13291290Y-10398530D02*
G75*
G02*
X13321290Y-10398530I15000J0D01*
G01*
X13335960Y-10247400D02*
G75*
G02*
X13305960Y-10247400I-15000J0D01*
G01*
X13305960Y-10247400D02*
G75*
G02*
X13335960Y-10247400I15000J0D01*
G01*
X13341000Y-10320000D02*
G75*
G02*
X13311000Y-10320000I-15000J0D01*
G01*
X13311000Y-10320000D02*
G75*
G02*
X13341000Y-10320000I15000J0D01*
G01*
X13341100Y-11647760D02*
G75*
G02*
X13311100Y-11647760I-15000J0D01*
G01*
X13311100Y-11647760D02*
G75*
G02*
X13341100Y-11647760I15000J0D01*
G01*
X13344330Y-12649950D02*
G75*
G02*
X13314330Y-12649950I-15000J0D01*
G01*
X13314330Y-12649950D02*
G75*
G02*
X13344330Y-12649950I15000J0D01*
G01*
X13349880Y-10731600D02*
G75*
G02*
X13319880Y-10731600I-15000J0D01*
G01*
X13319880Y-10731600D02*
G75*
G02*
X13349880Y-10731600I15000J0D01*
G01*
X13359710Y-12250160D02*
G75*
G02*
X13329710Y-12250160I-15000J0D01*
G01*
X13329710Y-12250160D02*
G75*
G02*
X13359710Y-12250160I15000J0D01*
G01*
X13396890Y-13375620D02*
G75*
G02*
X13366890Y-13375620I-15000J0D01*
G01*
X13366890Y-13375620D02*
G75*
G02*
X13396890Y-13375620I15000J0D01*
G01*
X13405700Y-12361530D02*
G75*
G02*
X13375700Y-12361530I-15000J0D01*
G01*
X13375700Y-12361530D02*
G75*
G02*
X13405700Y-12361530I15000J0D01*
G01*
X13422920Y-12213890D02*
G75*
G02*
X13392920Y-12213890I-15000J0D01*
G01*
X13392920Y-12213890D02*
G75*
G02*
X13422920Y-12213890I15000J0D01*
G01*
X13455000Y-11100000D02*
G75*
G02*
X13425000Y-11100000I-15000J0D01*
G01*
X13425000Y-11100000D02*
G75*
G02*
X13455000Y-11100000I15000J0D01*
G01*
X13455000Y-13080000D02*
G75*
G02*
X13425000Y-13080000I-15000J0D01*
G01*
X13425000Y-13080000D02*
G75*
G02*
X13455000Y-13080000I15000J0D01*
G01*
X13533860Y-12641580D02*
G75*
G02*
X13503860Y-12641580I-15000J0D01*
G01*
X13503860Y-12641580D02*
G75*
G02*
X13533860Y-12641580I15000J0D01*
G01*
X13545380Y-10528920D02*
G75*
G02*
X13515380Y-10528920I-15000J0D01*
G01*
X13515380Y-10528920D02*
G75*
G02*
X13545380Y-10528920I15000J0D01*
G01*
X13572580Y-14090820D02*
G75*
G02*
X13542580Y-14090820I-15000J0D01*
G01*
X13542580Y-14090820D02*
G75*
G02*
X13572580Y-14090820I15000J0D01*
G01*
X13590340Y-12034490D02*
G75*
G02*
X13560340Y-12034490I-15000J0D01*
G01*
X13560340Y-12034490D02*
G75*
G02*
X13590340Y-12034490I15000J0D01*
G01*
X13598470Y-11592020D02*
G75*
G02*
X13568470Y-11592020I-15000J0D01*
G01*
X13568470Y-11592020D02*
G75*
G02*
X13598470Y-11592020I15000J0D01*
G01*
X13602860Y-12443270D02*
G75*
G02*
X13572860Y-12443270I-15000J0D01*
G01*
X13572860Y-12443270D02*
G75*
G02*
X13602860Y-12443270I15000J0D01*
G01*
X13613060Y-12324020D02*
G75*
G02*
X13583060Y-12324020I-15000J0D01*
G01*
X13583060Y-12324020D02*
G75*
G02*
X13613060Y-12324020I15000J0D01*
G01*
X13622270Y-10538290D02*
G75*
G02*
X13592270Y-10538290I-15000J0D01*
G01*
X13592270Y-10538290D02*
G75*
G02*
X13622270Y-10538290I15000J0D01*
G01*
X13627858Y-10171248D02*
G75*
G02*
X13597858Y-10171248I-15000J0D01*
G01*
X13597858Y-10171248D02*
G75*
G02*
X13627858Y-10171248I15000J0D01*
G01*
X13635000Y-13080000D02*
G75*
G02*
X13605000Y-13080000I-15000J0D01*
G01*
X13605000Y-13080000D02*
G75*
G02*
X13635000Y-13080000I15000J0D01*
G01*
X13635000Y-13440000D02*
G75*
G02*
X13605000Y-13440000I-15000J0D01*
G01*
X13605000Y-13440000D02*
G75*
G02*
X13635000Y-13440000I15000J0D01*
G01*
X13637250Y-11976320D02*
G75*
G02*
X13607250Y-11976320I-15000J0D01*
G01*
X13607250Y-11976320D02*
G75*
G02*
X13637250Y-11976320I15000J0D01*
G01*
X13642920Y-14127250D02*
G75*
G02*
X13612920Y-14127250I-15000J0D01*
G01*
X13612920Y-14127250D02*
G75*
G02*
X13642920Y-14127250I15000J0D01*
G01*
X13665610Y-14287580D02*
G75*
G02*
X13635610Y-14287580I-15000J0D01*
G01*
X13635610Y-14287580D02*
G75*
G02*
X13665610Y-14287580I15000J0D01*
G01*
X13728910Y-11253040D02*
G75*
G02*
X13698910Y-11253040I-15000J0D01*
G01*
X13698910Y-11253040D02*
G75*
G02*
X13728910Y-11253040I15000J0D01*
G01*
X13756360Y-12522000D02*
G75*
G02*
X13726360Y-12522000I-15000J0D01*
G01*
X13726360Y-12522000D02*
G75*
G02*
X13756360Y-12522000I15000J0D01*
G01*
X13771700Y-10299900D02*
G75*
G02*
X13741700Y-10299900I-15000J0D01*
G01*
X13741700Y-10299900D02*
G75*
G02*
X13771700Y-10299900I15000J0D01*
G01*
X13776980Y-13045050D02*
G75*
G02*
X13746980Y-13045050I-15000J0D01*
G01*
X13746980Y-13045050D02*
G75*
G02*
X13776980Y-13045050I15000J0D01*
G01*
X13784210Y-12715200D02*
G75*
G02*
X13754210Y-12715200I-15000J0D01*
G01*
X13754210Y-12715200D02*
G75*
G02*
X13784210Y-12715200I15000J0D01*
G01*
X13815000Y-10200000D02*
G75*
G02*
X13785000Y-10200000I-15000J0D01*
G01*
X13785000Y-10200000D02*
G75*
G02*
X13815000Y-10200000I15000J0D01*
G01*
X13815000Y-13440000D02*
G75*
G02*
X13785000Y-13440000I-15000J0D01*
G01*
X13785000Y-13440000D02*
G75*
G02*
X13815000Y-13440000I15000J0D01*
G01*
X13815000Y-14340000D02*
G75*
G02*
X13785000Y-14340000I-15000J0D01*
G01*
X13785000Y-14340000D02*
G75*
G02*
X13815000Y-14340000I15000J0D01*
G01*
X13821970Y-11281580D02*
G75*
G02*
X13791970Y-11281580I-15000J0D01*
G01*
X13791970Y-11281580D02*
G75*
G02*
X13821970Y-11281580I15000J0D01*
G01*
X13847320Y-13022430D02*
G75*
G02*
X13817320Y-13022430I-15000J0D01*
G01*
X13817320Y-13022430D02*
G75*
G02*
X13847320Y-13022430I15000J0D01*
G01*
X13855132Y-12550152D02*
G75*
G02*
X13825132Y-12550152I-15000J0D01*
G01*
X13825132Y-12550152D02*
G75*
G02*
X13855132Y-12550152I15000J0D01*
G01*
X13888226Y-13285010D02*
G75*
G02*
X13858226Y-13285010I-15000J0D01*
G01*
X13858226Y-13285010D02*
G75*
G02*
X13888226Y-13285010I15000J0D01*
G01*
X13892260Y-11059520D02*
G75*
G02*
X13862260Y-11059520I-15000J0D01*
G01*
X13862260Y-11059520D02*
G75*
G02*
X13892260Y-11059520I15000J0D01*
G01*
X13968779Y-12331184D02*
G75*
G02*
X13938779Y-12331184I-15000J0D01*
G01*
X13938779Y-12331184D02*
G75*
G02*
X13968779Y-12331184I15000J0D01*
G01*
X14029807Y-11188482D02*
G75*
G02*
X13999807Y-11188482I-15000J0D01*
G01*
X13999807Y-11188482D02*
G75*
G02*
X14029807Y-11188482I15000J0D01*
G01*
X14030625Y-10624375D02*
G75*
G02*
X14000625Y-10624375I-15000J0D01*
G01*
X14000625Y-10624375D02*
G75*
G02*
X14030625Y-10624375I15000J0D01*
G01*
X14057450Y-12541710D02*
G75*
G02*
X14027450Y-12541710I-15000J0D01*
G01*
X14027450Y-12541710D02*
G75*
G02*
X14057450Y-12541710I15000J0D01*
G01*
X14062320Y-10872250D02*
G75*
G02*
X14032320Y-10872250I-15000J0D01*
G01*
X14032320Y-10872250D02*
G75*
G02*
X14062320Y-10872250I15000J0D01*
G01*
X14083520Y-11004430D02*
G75*
G02*
X14053520Y-11004430I-15000J0D01*
G01*
X14053520Y-11004430D02*
G75*
G02*
X14083520Y-11004430I15000J0D01*
G01*
X14091971Y-12639470D02*
G75*
G02*
X14061971Y-12639470I-15000J0D01*
G01*
X14061971Y-12639470D02*
G75*
G02*
X14091971Y-12639470I15000J0D01*
G01*
X14111091Y-12975210D02*
G75*
G02*
X14081091Y-12975210I-15000J0D01*
G01*
X14081091Y-12975210D02*
G75*
G02*
X14111091Y-12975210I15000J0D01*
G01*
X14111142Y-13275235D02*
G75*
G02*
X14081142Y-13275235I-15000J0D01*
G01*
X14081142Y-13275235D02*
G75*
G02*
X14111142Y-13275235I15000J0D01*
G01*
X14111760Y-10450860D02*
G75*
G02*
X14081760Y-10450860I-15000J0D01*
G01*
X14081760Y-10450860D02*
G75*
G02*
X14111760Y-10450860I15000J0D01*
G01*
X14152530Y-11914920D02*
G75*
G02*
X14122530Y-11914920I-15000J0D01*
G01*
X14122530Y-11914920D02*
G75*
G02*
X14152530Y-11914920I15000J0D01*
G01*
X14156803Y-10682646D02*
G75*
G02*
X14126803Y-10682646I-15000J0D01*
G01*
X14126803Y-10682646D02*
G75*
G02*
X14156803Y-10682646I15000J0D01*
G01*
X14174617Y-13212000D02*
G75*
G02*
X14144617Y-13212000I-15000J0D01*
G01*
X14144617Y-13212000D02*
G75*
G02*
X14174617Y-13212000I15000J0D01*
G01*
X14175000Y-10920000D02*
G75*
G02*
X14145000Y-10920000I-15000J0D01*
G01*
X14145000Y-10920000D02*
G75*
G02*
X14175000Y-10920000I15000J0D01*
G01*
X14175000Y-11460000D02*
G75*
G02*
X14145000Y-11460000I-15000J0D01*
G01*
X14145000Y-11460000D02*
G75*
G02*
X14175000Y-11460000I15000J0D01*
G01*
X14175000Y-12900000D02*
G75*
G02*
X14145000Y-12900000I-15000J0D01*
G01*
X14145000Y-12900000D02*
G75*
G02*
X14175000Y-12900000I15000J0D01*
G01*
X14175000Y-13080000D02*
G75*
G02*
X14145000Y-13080000I-15000J0D01*
G01*
X14145000Y-13080000D02*
G75*
G02*
X14175000Y-13080000I15000J0D01*
G01*
X14175000Y-13440000D02*
G75*
G02*
X14145000Y-13440000I-15000J0D01*
G01*
X14145000Y-13440000D02*
G75*
G02*
X14175000Y-13440000I15000J0D01*
G01*
X14175000Y-13800000D02*
G75*
G02*
X14145000Y-13800000I-15000J0D01*
G01*
X14145000Y-13800000D02*
G75*
G02*
X14175000Y-13800000I15000J0D01*
G01*
X14175000Y-13980000D02*
G75*
G02*
X14145000Y-13980000I-15000J0D01*
G01*
X14145000Y-13980000D02*
G75*
G02*
X14175000Y-13980000I15000J0D01*
G01*
X14175000Y-14160000D02*
G75*
G02*
X14145000Y-14160000I-15000J0D01*
G01*
X14145000Y-14160000D02*
G75*
G02*
X14175000Y-14160000I15000J0D01*
G01*
X14175000Y-14340000D02*
G75*
G02*
X14145000Y-14340000I-15000J0D01*
G01*
X14145000Y-14340000D02*
G75*
G02*
X14175000Y-14340000I15000J0D01*
G01*
X14201960Y-12740000D02*
G75*
G02*
X14171960Y-12740000I-15000J0D01*
G01*
X14171960Y-12740000D02*
G75*
G02*
X14201960Y-12740000I15000J0D01*
G01*
X14202039Y-11270260D02*
G75*
G02*
X14172039Y-11270260I-15000J0D01*
G01*
X14172039Y-11270260D02*
G75*
G02*
X14202039Y-11270260I15000J0D01*
G01*
X14211226Y-13545000D02*
G75*
G02*
X14181226Y-13545000I-15000J0D01*
G01*
X14181226Y-13545000D02*
G75*
G02*
X14211226Y-13545000I15000J0D01*
G01*
X14213329Y-10171248D02*
G75*
G02*
X14183329Y-10171248I-15000J0D01*
G01*
X14183329Y-10171248D02*
G75*
G02*
X14213329Y-10171248I15000J0D01*
G01*
X14226018Y-14428347D02*
G75*
G02*
X14196018Y-14428347I-15000J0D01*
G01*
X14196018Y-14428347D02*
G75*
G02*
X14226018Y-14428347I15000J0D01*
G01*
X14233365Y-14510281D02*
G75*
G02*
X14203365Y-14510281I-15000J0D01*
G01*
X14203365Y-14510281D02*
G75*
G02*
X14233365Y-14510281I15000J0D01*
G01*
X14343334Y-10304033D02*
G75*
G02*
X14313334Y-10304033I-15000J0D01*
G01*
X14313334Y-10304033D02*
G75*
G02*
X14343334Y-10304033I15000J0D01*
G01*
X14358752Y-14098316D02*
G75*
G02*
X14328752Y-14098316I-15000J0D01*
G01*
X14328752Y-14098316D02*
G75*
G02*
X14358752Y-14098316I15000J0D01*
G01*
X14367358Y-11621540D02*
G75*
G02*
X14337358Y-11621540I-15000J0D01*
G01*
X14337358Y-11621540D02*
G75*
G02*
X14367358Y-11621540I15000J0D01*
G01*
X14402707Y-14160409D02*
G75*
G02*
X14372707Y-14160409I-15000J0D01*
G01*
X14372707Y-14160409D02*
G75*
G02*
X14402707Y-14160409I15000J0D01*
G01*
X14414435Y-12960092D02*
G75*
G02*
X14384435Y-12960092I-15000J0D01*
G01*
X14384435Y-12960092D02*
G75*
G02*
X14414435Y-12960092I15000J0D01*
G01*
X14414486Y-13520112D02*
G75*
G02*
X14384486Y-13520112I-15000J0D01*
G01*
X14384486Y-13520112D02*
G75*
G02*
X14414486Y-13520112I15000J0D01*
G01*
X14416240Y-11513981D02*
G75*
G02*
X14386240Y-11513981I-15000J0D01*
G01*
X14386240Y-11513981D02*
G75*
G02*
X14416240Y-11513981I15000J0D01*
G01*
X14416240Y-11683971D02*
G75*
G02*
X14386240Y-11683971I-15000J0D01*
G01*
X14386240Y-11683971D02*
G75*
G02*
X14416240Y-11683971I15000J0D01*
G01*
X14416240Y-12033981D02*
G75*
G02*
X14386240Y-12033981I-15000J0D01*
G01*
X14386240Y-12033981D02*
G75*
G02*
X14416240Y-12033981I15000J0D01*
G01*
X14418435Y-10828112D02*
G75*
G02*
X14388435Y-10828112I-15000J0D01*
G01*
X14388435Y-10828112D02*
G75*
G02*
X14418435Y-10828112I15000J0D01*
G01*
X14418486Y-10268092D02*
G75*
G02*
X14388486Y-10268092I-15000J0D01*
G01*
X14388486Y-10268092D02*
G75*
G02*
X14418486Y-10268092I15000J0D01*
G01*
X14426701Y-12331184D02*
G75*
G02*
X14396701Y-12331184I-15000J0D01*
G01*
X14396701Y-12331184D02*
G75*
G02*
X14426701Y-12331184I15000J0D01*
G01*
X14427101Y-11056105D02*
G75*
G02*
X14397101Y-11056105I-15000J0D01*
G01*
X14397101Y-11056105D02*
G75*
G02*
X14427101Y-11056105I15000J0D01*
G01*
X14432884Y-11386599D02*
G75*
G02*
X14402884Y-11386599I-15000J0D01*
G01*
X14402884Y-11386599D02*
G75*
G02*
X14432884Y-11386599I15000J0D01*
G01*
X11817501Y-10114997D02*
X11817501Y-10174997D01*
X11787501Y-10144997D02*
X11847501Y-10144997D01*
X11847501Y-10174997D02*
X11847501Y-10114997D01*
X11787501Y-10114997D02*
G75*
G02*
X11847501Y-10114997I30000J0D01*
G01*
X11787501Y-10114997D02*
X11787501Y-10174997D01*
X11787501Y-10174997D02*
G75*
G03*
X11847501Y-10174997I30000J0D01*
G01*
X11817501Y-10535012D02*
X11817501Y-10595012D01*
X11787501Y-10565012D02*
X11847501Y-10565012D01*
X11847501Y-10610013D02*
X11847501Y-10520011D01*
X11787501Y-10520011D02*
G75*
G02*
X11847501Y-10520011I30000J0D01*
G01*
X11787501Y-10520011D02*
X11787501Y-10610013D01*
X11787501Y-10610013D02*
G75*
G03*
X11847501Y-10610013I30000J0D01*
G01*
X12682499Y-10114997D02*
X12682499Y-10174997D01*
X12652499Y-10144997D02*
X12712499Y-10144997D01*
X12712499Y-10174997D02*
X12712499Y-10114997D01*
X12652499Y-10114997D02*
G75*
G02*
X12712499Y-10114997I30000J0D01*
G01*
X12652499Y-10114997D02*
X12652499Y-10174997D01*
X12652499Y-10174997D02*
G75*
G03*
X12712499Y-10174997I30000J0D01*
G01*
X12682499Y-10535012D02*
X12682499Y-10595012D01*
X12652499Y-10565012D02*
X12712499Y-10565012D01*
X12712499Y-10610012D02*
X12712499Y-10520012D01*
X12652499Y-10520012D02*
G75*
G02*
X12712499Y-10520012I30000J0D01*
G01*
X12652499Y-10520012D02*
X12652499Y-10610012D01*
X12652499Y-10610012D02*
G75*
G03*
X12712499Y-10610012I30000J0D01*
G01*
X11985735Y-10537743D02*
X11985735Y-10488243D01*
X11936236Y-10488243D01*
X11936236Y-10537743D01*
X11985735Y-10537743D01*
X12563739Y-10537743D02*
X12563739Y-10488243D01*
X12514239Y-10488243D01*
X12514239Y-10537743D01*
X12563739Y-10537743D01*
X11914996Y-14055109D02*
X11964996Y-14005109D01*
X11914996Y-13955109D01*
X11864996Y-14005109D01*
X11914996Y-14055109D01*
X12714996Y-14055109D02*
X12764996Y-14005109D01*
X12714996Y-13955109D01*
X12664996Y-14005109D01*
X12714996Y-14055109D01*
D11*
X10255777Y-14976484D02*
X10255777Y-14776484D01*
X10255777Y-14776484D02*
X10303396Y-14776484D01*
X10303396Y-14776484D02*
X10331967Y-14786008D01*
X10331967Y-14786008D02*
X10351015Y-14805055D01*
X10351015Y-14805055D02*
X10360539Y-14824103D01*
X10360539Y-14824103D02*
X10370063Y-14862198D01*
X10370063Y-14862198D02*
X10370063Y-14890769D01*
X10370063Y-14890769D02*
X10360539Y-14928865D01*
X10360539Y-14928865D02*
X10351015Y-14947912D01*
X10351015Y-14947912D02*
X10331967Y-14966960D01*
X10331967Y-14966960D02*
X10303396Y-14976484D01*
X10303396Y-14976484D02*
X10255777Y-14976484D01*
X10455777Y-14976484D02*
X10455777Y-14843150D01*
X10455777Y-14881246D02*
X10465301Y-14862198D01*
X10465301Y-14862198D02*
X10474824Y-14852674D01*
X10474824Y-14852674D02*
X10493872Y-14843150D01*
X10493872Y-14843150D02*
X10512920Y-14843150D01*
X10579586Y-14976484D02*
X10579586Y-14843150D01*
X10579586Y-14776484D02*
X10570063Y-14786008D01*
X10570063Y-14786008D02*
X10579586Y-14795531D01*
X10579586Y-14795531D02*
X10589110Y-14786008D01*
X10589110Y-14786008D02*
X10579586Y-14776484D01*
X10579586Y-14776484D02*
X10579586Y-14795531D01*
X10703396Y-14976484D02*
X10684348Y-14966960D01*
X10684348Y-14966960D02*
X10674824Y-14947912D01*
X10674824Y-14947912D02*
X10674824Y-14776484D01*
X10808158Y-14976484D02*
X10789110Y-14966960D01*
X10789110Y-14966960D02*
X10779586Y-14947912D01*
X10779586Y-14947912D02*
X10779586Y-14776484D01*
X11036729Y-14976484D02*
X11036729Y-14776484D01*
X11036729Y-14776484D02*
X11103396Y-14919341D01*
X11103396Y-14919341D02*
X11170063Y-14776484D01*
X11170063Y-14776484D02*
X11170063Y-14976484D01*
X11351015Y-14976484D02*
X11351015Y-14871722D01*
X11351015Y-14871722D02*
X11341491Y-14852674D01*
X11341491Y-14852674D02*
X11322443Y-14843150D01*
X11322443Y-14843150D02*
X11284348Y-14843150D01*
X11284348Y-14843150D02*
X11265301Y-14852674D01*
X11351015Y-14966960D02*
X11331967Y-14976484D01*
X11331967Y-14976484D02*
X11284348Y-14976484D01*
X11284348Y-14976484D02*
X11265301Y-14966960D01*
X11265301Y-14966960D02*
X11255777Y-14947912D01*
X11255777Y-14947912D02*
X11255777Y-14928865D01*
X11255777Y-14928865D02*
X11265301Y-14909817D01*
X11265301Y-14909817D02*
X11284348Y-14900293D01*
X11284348Y-14900293D02*
X11331967Y-14900293D01*
X11331967Y-14900293D02*
X11351015Y-14890769D01*
X11446253Y-14843150D02*
X11446253Y-15043150D01*
X11446253Y-14852674D02*
X11465301Y-14843150D01*
X11465301Y-14843150D02*
X11503396Y-14843150D01*
X11503396Y-14843150D02*
X11522443Y-14852674D01*
X11522443Y-14852674D02*
X11531967Y-14862198D01*
X11531967Y-14862198D02*
X11541491Y-14881246D01*
X11541491Y-14881246D02*
X11541491Y-14938388D01*
X11541491Y-14938388D02*
X11531967Y-14957436D01*
X11531967Y-14957436D02*
X11522443Y-14966960D01*
X11522443Y-14966960D02*
X11503396Y-14976484D01*
X11503396Y-14976484D02*
X11465301Y-14976484D01*
X11465301Y-14976484D02*
X11446253Y-14966960D01*
X11627205Y-14957436D02*
X11636729Y-14966960D01*
X11636729Y-14966960D02*
X11627205Y-14976484D01*
X11627205Y-14976484D02*
X11617682Y-14966960D01*
X11617682Y-14966960D02*
X11627205Y-14957436D01*
X11627205Y-14957436D02*
X11627205Y-14976484D01*
X11627205Y-14852674D02*
X11636729Y-14862198D01*
X11636729Y-14862198D02*
X11627205Y-14871722D01*
X11627205Y-14871722D02*
X11617682Y-14862198D01*
X11617682Y-14862198D02*
X11627205Y-14852674D01*
X11627205Y-14852674D02*
X11627205Y-14871722D01*
D10*
X9975000Y-15295000D02*
X9995000Y-15315000D01*
X9995000Y-15295000D02*
X9975000Y-15315000D01*
D11*
X10293872Y-15196484D02*
X10312920Y-15196484D01*
X10312920Y-15196484D02*
X10331967Y-15206008D01*
X10331967Y-15206008D02*
X10341491Y-15215531D01*
X10341491Y-15215531D02*
X10351015Y-15234579D01*
X10351015Y-15234579D02*
X10360539Y-15272674D01*
X10360539Y-15272674D02*
X10360539Y-15320293D01*
X10360539Y-15320293D02*
X10351015Y-15358388D01*
X10351015Y-15358388D02*
X10341491Y-15377436D01*
X10341491Y-15377436D02*
X10331967Y-15386960D01*
X10331967Y-15386960D02*
X10312920Y-15396484D01*
X10312920Y-15396484D02*
X10293872Y-15396484D01*
X10293872Y-15396484D02*
X10274824Y-15386960D01*
X10274824Y-15386960D02*
X10265301Y-15377436D01*
X10265301Y-15377436D02*
X10255777Y-15358388D01*
X10255777Y-15358388D02*
X10246253Y-15320293D01*
X10246253Y-15320293D02*
X10246253Y-15272674D01*
X10246253Y-15272674D02*
X10255777Y-15234579D01*
X10255777Y-15234579D02*
X10265301Y-15215531D01*
X10265301Y-15215531D02*
X10274824Y-15206008D01*
X10274824Y-15206008D02*
X10293872Y-15196484D01*
X10446253Y-15377436D02*
X10455777Y-15386960D01*
X10455777Y-15386960D02*
X10446253Y-15396484D01*
X10446253Y-15396484D02*
X10436729Y-15386960D01*
X10436729Y-15386960D02*
X10446253Y-15377436D01*
X10446253Y-15377436D02*
X10446253Y-15396484D01*
X10531967Y-15215531D02*
X10541491Y-15206008D01*
X10541491Y-15206008D02*
X10560539Y-15196484D01*
X10560539Y-15196484D02*
X10608158Y-15196484D01*
X10608158Y-15196484D02*
X10627205Y-15206008D01*
X10627205Y-15206008D02*
X10636729Y-15215531D01*
X10636729Y-15215531D02*
X10646253Y-15234579D01*
X10646253Y-15234579D02*
X10646253Y-15253627D01*
X10646253Y-15253627D02*
X10636729Y-15282198D01*
X10636729Y-15282198D02*
X10522444Y-15396484D01*
X10522444Y-15396484D02*
X10646253Y-15396484D01*
X10770063Y-15196484D02*
X10789110Y-15196484D01*
X10789110Y-15196484D02*
X10808158Y-15206008D01*
X10808158Y-15206008D02*
X10817682Y-15215531D01*
X10817682Y-15215531D02*
X10827205Y-15234579D01*
X10827205Y-15234579D02*
X10836729Y-15272674D01*
X10836729Y-15272674D02*
X10836729Y-15320293D01*
X10836729Y-15320293D02*
X10827205Y-15358388D01*
X10827205Y-15358388D02*
X10817682Y-15377436D01*
X10817682Y-15377436D02*
X10808158Y-15386960D01*
X10808158Y-15386960D02*
X10789110Y-15396484D01*
X10789110Y-15396484D02*
X10770063Y-15396484D01*
X10770063Y-15396484D02*
X10751015Y-15386960D01*
X10751015Y-15386960D02*
X10741491Y-15377436D01*
X10741491Y-15377436D02*
X10731967Y-15358388D01*
X10731967Y-15358388D02*
X10722444Y-15320293D01*
X10722444Y-15320293D02*
X10722444Y-15272674D01*
X10722444Y-15272674D02*
X10731967Y-15234579D01*
X10731967Y-15234579D02*
X10741491Y-15215531D01*
X10741491Y-15215531D02*
X10751015Y-15206008D01*
X10751015Y-15206008D02*
X10770063Y-15196484D01*
X10960539Y-15196484D02*
X10979586Y-15196484D01*
X10979586Y-15196484D02*
X10998634Y-15206008D01*
X10998634Y-15206008D02*
X11008158Y-15215531D01*
X11008158Y-15215531D02*
X11017682Y-15234579D01*
X11017682Y-15234579D02*
X11027205Y-15272674D01*
X11027205Y-15272674D02*
X11027205Y-15320293D01*
X11027205Y-15320293D02*
X11017682Y-15358388D01*
X11017682Y-15358388D02*
X11008158Y-15377436D01*
X11008158Y-15377436D02*
X10998634Y-15386960D01*
X10998634Y-15386960D02*
X10979586Y-15396484D01*
X10979586Y-15396484D02*
X10960539Y-15396484D01*
X10960539Y-15396484D02*
X10941491Y-15386960D01*
X10941491Y-15386960D02*
X10931967Y-15377436D01*
X10931967Y-15377436D02*
X10922444Y-15358388D01*
X10922444Y-15358388D02*
X10912920Y-15320293D01*
X10912920Y-15320293D02*
X10912920Y-15272674D01*
X10912920Y-15272674D02*
X10922444Y-15234579D01*
X10922444Y-15234579D02*
X10931967Y-15215531D01*
X10931967Y-15215531D02*
X10941491Y-15206008D01*
X10941491Y-15206008D02*
X10960539Y-15196484D01*
X11112920Y-15396484D02*
X11112920Y-15263150D01*
X11112920Y-15282198D02*
X11122444Y-15272674D01*
X11122444Y-15272674D02*
X11141491Y-15263150D01*
X11141491Y-15263150D02*
X11170063Y-15263150D01*
X11170063Y-15263150D02*
X11189110Y-15272674D01*
X11189110Y-15272674D02*
X11198634Y-15291722D01*
X11198634Y-15291722D02*
X11198634Y-15396484D01*
X11198634Y-15291722D02*
X11208158Y-15272674D01*
X11208158Y-15272674D02*
X11227205Y-15263150D01*
X11227205Y-15263150D02*
X11255777Y-15263150D01*
X11255777Y-15263150D02*
X11274824Y-15272674D01*
X11274824Y-15272674D02*
X11284348Y-15291722D01*
X11284348Y-15291722D02*
X11284348Y-15396484D01*
X11379586Y-15396484D02*
X11379586Y-15263150D01*
X11379586Y-15282198D02*
X11389110Y-15272674D01*
X11389110Y-15272674D02*
X11408158Y-15263150D01*
X11408158Y-15263150D02*
X11436729Y-15263150D01*
X11436729Y-15263150D02*
X11455777Y-15272674D01*
X11455777Y-15272674D02*
X11465301Y-15291722D01*
X11465301Y-15291722D02*
X11465301Y-15396484D01*
X11465301Y-15291722D02*
X11474824Y-15272674D01*
X11474824Y-15272674D02*
X11493872Y-15263150D01*
X11493872Y-15263150D02*
X11522443Y-15263150D01*
X11522443Y-15263150D02*
X11541491Y-15272674D01*
X11541491Y-15272674D02*
X11551015Y-15291722D01*
X11551015Y-15291722D02*
X11551015Y-15396484D01*
X11941491Y-15186960D02*
X11770063Y-15444103D01*
X12198634Y-15196484D02*
X12217682Y-15196484D01*
X12217682Y-15196484D02*
X12236729Y-15206008D01*
X12236729Y-15206008D02*
X12246253Y-15215531D01*
X12246253Y-15215531D02*
X12255777Y-15234579D01*
X12255777Y-15234579D02*
X12265301Y-15272674D01*
X12265301Y-15272674D02*
X12265301Y-15320293D01*
X12265301Y-15320293D02*
X12255777Y-15358388D01*
X12255777Y-15358388D02*
X12246253Y-15377436D01*
X12246253Y-15377436D02*
X12236729Y-15386960D01*
X12236729Y-15386960D02*
X12217682Y-15396484D01*
X12217682Y-15396484D02*
X12198634Y-15396484D01*
X12198634Y-15396484D02*
X12179586Y-15386960D01*
X12179586Y-15386960D02*
X12170063Y-15377436D01*
X12170063Y-15377436D02*
X12160539Y-15358388D01*
X12160539Y-15358388D02*
X12151015Y-15320293D01*
X12151015Y-15320293D02*
X12151015Y-15272674D01*
X12151015Y-15272674D02*
X12160539Y-15234579D01*
X12160539Y-15234579D02*
X12170063Y-15215531D01*
X12170063Y-15215531D02*
X12179586Y-15206008D01*
X12179586Y-15206008D02*
X12198634Y-15196484D01*
X12351015Y-15377436D02*
X12360539Y-15386960D01*
X12360539Y-15386960D02*
X12351015Y-15396484D01*
X12351015Y-15396484D02*
X12341491Y-15386960D01*
X12341491Y-15386960D02*
X12351015Y-15377436D01*
X12351015Y-15377436D02*
X12351015Y-15396484D01*
X12484348Y-15196484D02*
X12503396Y-15196484D01*
X12503396Y-15196484D02*
X12522444Y-15206008D01*
X12522444Y-15206008D02*
X12531967Y-15215531D01*
X12531967Y-15215531D02*
X12541491Y-15234579D01*
X12541491Y-15234579D02*
X12551015Y-15272674D01*
X12551015Y-15272674D02*
X12551015Y-15320293D01*
X12551015Y-15320293D02*
X12541491Y-15358388D01*
X12541491Y-15358388D02*
X12531967Y-15377436D01*
X12531967Y-15377436D02*
X12522444Y-15386960D01*
X12522444Y-15386960D02*
X12503396Y-15396484D01*
X12503396Y-15396484D02*
X12484348Y-15396484D01*
X12484348Y-15396484D02*
X12465301Y-15386960D01*
X12465301Y-15386960D02*
X12455777Y-15377436D01*
X12455777Y-15377436D02*
X12446253Y-15358388D01*
X12446253Y-15358388D02*
X12436729Y-15320293D01*
X12436729Y-15320293D02*
X12436729Y-15272674D01*
X12436729Y-15272674D02*
X12446253Y-15234579D01*
X12446253Y-15234579D02*
X12455777Y-15215531D01*
X12455777Y-15215531D02*
X12465301Y-15206008D01*
X12465301Y-15206008D02*
X12484348Y-15196484D01*
X12674825Y-15196484D02*
X12693872Y-15196484D01*
X12693872Y-15196484D02*
X12712920Y-15206008D01*
X12712920Y-15206008D02*
X12722444Y-15215531D01*
X12722444Y-15215531D02*
X12731967Y-15234579D01*
X12731967Y-15234579D02*
X12741491Y-15272674D01*
X12741491Y-15272674D02*
X12741491Y-15320293D01*
X12741491Y-15320293D02*
X12731967Y-15358388D01*
X12731967Y-15358388D02*
X12722444Y-15377436D01*
X12722444Y-15377436D02*
X12712920Y-15386960D01*
X12712920Y-15386960D02*
X12693872Y-15396484D01*
X12693872Y-15396484D02*
X12674825Y-15396484D01*
X12674825Y-15396484D02*
X12655777Y-15386960D01*
X12655777Y-15386960D02*
X12646253Y-15377436D01*
X12646253Y-15377436D02*
X12636729Y-15358388D01*
X12636729Y-15358388D02*
X12627206Y-15320293D01*
X12627206Y-15320293D02*
X12627206Y-15272674D01*
X12627206Y-15272674D02*
X12636729Y-15234579D01*
X12636729Y-15234579D02*
X12646253Y-15215531D01*
X12646253Y-15215531D02*
X12655777Y-15206008D01*
X12655777Y-15206008D02*
X12674825Y-15196484D01*
X12808158Y-15196484D02*
X12941491Y-15196484D01*
X12941491Y-15196484D02*
X12855777Y-15396484D01*
X13027206Y-15396484D02*
X13065301Y-15396484D01*
X13065301Y-15396484D02*
X13084348Y-15386960D01*
X13084348Y-15386960D02*
X13093872Y-15377436D01*
X13093872Y-15377436D02*
X13112920Y-15348865D01*
X13112920Y-15348865D02*
X13122444Y-15310769D01*
X13122444Y-15310769D02*
X13122444Y-15234579D01*
X13122444Y-15234579D02*
X13112920Y-15215531D01*
X13112920Y-15215531D02*
X13103396Y-15206008D01*
X13103396Y-15206008D02*
X13084348Y-15196484D01*
X13084348Y-15196484D02*
X13046253Y-15196484D01*
X13046253Y-15196484D02*
X13027206Y-15206008D01*
X13027206Y-15206008D02*
X13017682Y-15215531D01*
X13017682Y-15215531D02*
X13008158Y-15234579D01*
X13008158Y-15234579D02*
X13008158Y-15282198D01*
X13008158Y-15282198D02*
X13017682Y-15301246D01*
X13017682Y-15301246D02*
X13027206Y-15310769D01*
X13027206Y-15310769D02*
X13046253Y-15320293D01*
X13046253Y-15320293D02*
X13084348Y-15320293D01*
X13084348Y-15320293D02*
X13103396Y-15310769D01*
X13103396Y-15310769D02*
X13112920Y-15301246D01*
X13112920Y-15301246D02*
X13122444Y-15282198D01*
X13198634Y-15196484D02*
X13198634Y-15234579D01*
X13274825Y-15196484D02*
X13274825Y-15234579D01*
X13570063Y-15472674D02*
X13560539Y-15463150D01*
X13560539Y-15463150D02*
X13541491Y-15434579D01*
X13541491Y-15434579D02*
X13531968Y-15415531D01*
X13531968Y-15415531D02*
X13522444Y-15386960D01*
X13522444Y-15386960D02*
X13512920Y-15339341D01*
X13512920Y-15339341D02*
X13512920Y-15301246D01*
X13512920Y-15301246D02*
X13522444Y-15253627D01*
X13522444Y-15253627D02*
X13531968Y-15225055D01*
X13531968Y-15225055D02*
X13541491Y-15206008D01*
X13541491Y-15206008D02*
X13560539Y-15177436D01*
X13560539Y-15177436D02*
X13570063Y-15167912D01*
X13751015Y-15396484D02*
X13636729Y-15396484D01*
X13693872Y-15396484D02*
X13693872Y-15196484D01*
X13693872Y-15196484D02*
X13674825Y-15225055D01*
X13674825Y-15225055D02*
X13655777Y-15244103D01*
X13655777Y-15244103D02*
X13636729Y-15253627D01*
X13817682Y-15196484D02*
X13941491Y-15196484D01*
X13941491Y-15196484D02*
X13874825Y-15272674D01*
X13874825Y-15272674D02*
X13903396Y-15272674D01*
X13903396Y-15272674D02*
X13922444Y-15282198D01*
X13922444Y-15282198D02*
X13931968Y-15291722D01*
X13931968Y-15291722D02*
X13941491Y-15310769D01*
X13941491Y-15310769D02*
X13941491Y-15358388D01*
X13941491Y-15358388D02*
X13931968Y-15377436D01*
X13931968Y-15377436D02*
X13922444Y-15386960D01*
X13922444Y-15386960D02*
X13903396Y-15396484D01*
X13903396Y-15396484D02*
X13846253Y-15396484D01*
X13846253Y-15396484D02*
X13827206Y-15386960D01*
X13827206Y-15386960D02*
X13817682Y-15377436D01*
X14112920Y-15196484D02*
X14074825Y-15196484D01*
X14074825Y-15196484D02*
X14055777Y-15206008D01*
X14055777Y-15206008D02*
X14046253Y-15215531D01*
X14046253Y-15215531D02*
X14027206Y-15244103D01*
X14027206Y-15244103D02*
X14017682Y-15282198D01*
X14017682Y-15282198D02*
X14017682Y-15358388D01*
X14017682Y-15358388D02*
X14027206Y-15377436D01*
X14027206Y-15377436D02*
X14036729Y-15386960D01*
X14036729Y-15386960D02*
X14055777Y-15396484D01*
X14055777Y-15396484D02*
X14093872Y-15396484D01*
X14093872Y-15396484D02*
X14112920Y-15386960D01*
X14112920Y-15386960D02*
X14122444Y-15377436D01*
X14122444Y-15377436D02*
X14131968Y-15358388D01*
X14131968Y-15358388D02*
X14131968Y-15310769D01*
X14131968Y-15310769D02*
X14122444Y-15291722D01*
X14122444Y-15291722D02*
X14112920Y-15282198D01*
X14112920Y-15282198D02*
X14093872Y-15272674D01*
X14093872Y-15272674D02*
X14055777Y-15272674D01*
X14055777Y-15272674D02*
X14036729Y-15282198D01*
X14036729Y-15282198D02*
X14027206Y-15291722D01*
X14027206Y-15291722D02*
X14017682Y-15310769D01*
X14370063Y-15396484D02*
X14370063Y-15196484D01*
X14455777Y-15396484D02*
X14455777Y-15291722D01*
X14455777Y-15291722D02*
X14446253Y-15272674D01*
X14446253Y-15272674D02*
X14427206Y-15263150D01*
X14427206Y-15263150D02*
X14398634Y-15263150D01*
X14398634Y-15263150D02*
X14379587Y-15272674D01*
X14379587Y-15272674D02*
X14370063Y-15282198D01*
X14579587Y-15396484D02*
X14560539Y-15386960D01*
X14560539Y-15386960D02*
X14551015Y-15377436D01*
X14551015Y-15377436D02*
X14541491Y-15358388D01*
X14541491Y-15358388D02*
X14541491Y-15301246D01*
X14541491Y-15301246D02*
X14551015Y-15282198D01*
X14551015Y-15282198D02*
X14560539Y-15272674D01*
X14560539Y-15272674D02*
X14579587Y-15263150D01*
X14579587Y-15263150D02*
X14608158Y-15263150D01*
X14608158Y-15263150D02*
X14627206Y-15272674D01*
X14627206Y-15272674D02*
X14636730Y-15282198D01*
X14636730Y-15282198D02*
X14646253Y-15301246D01*
X14646253Y-15301246D02*
X14646253Y-15358388D01*
X14646253Y-15358388D02*
X14636730Y-15377436D01*
X14636730Y-15377436D02*
X14627206Y-15386960D01*
X14627206Y-15386960D02*
X14608158Y-15396484D01*
X14608158Y-15396484D02*
X14579587Y-15396484D01*
X14760539Y-15396484D02*
X14741491Y-15386960D01*
X14741491Y-15386960D02*
X14731968Y-15367912D01*
X14731968Y-15367912D02*
X14731968Y-15196484D01*
X14912920Y-15386960D02*
X14893872Y-15396484D01*
X14893872Y-15396484D02*
X14855777Y-15396484D01*
X14855777Y-15396484D02*
X14836730Y-15386960D01*
X14836730Y-15386960D02*
X14827206Y-15367912D01*
X14827206Y-15367912D02*
X14827206Y-15291722D01*
X14827206Y-15291722D02*
X14836730Y-15272674D01*
X14836730Y-15272674D02*
X14855777Y-15263150D01*
X14855777Y-15263150D02*
X14893872Y-15263150D01*
X14893872Y-15263150D02*
X14912920Y-15272674D01*
X14912920Y-15272674D02*
X14922444Y-15291722D01*
X14922444Y-15291722D02*
X14922444Y-15310769D01*
X14922444Y-15310769D02*
X14827206Y-15329817D01*
X14998634Y-15386960D02*
X15017682Y-15396484D01*
X15017682Y-15396484D02*
X15055777Y-15396484D01*
X15055777Y-15396484D02*
X15074825Y-15386960D01*
X15074825Y-15386960D02*
X15084349Y-15367912D01*
X15084349Y-15367912D02*
X15084349Y-15358388D01*
X15084349Y-15358388D02*
X15074825Y-15339341D01*
X15074825Y-15339341D02*
X15055777Y-15329817D01*
X15055777Y-15329817D02*
X15027206Y-15329817D01*
X15027206Y-15329817D02*
X15008158Y-15320293D01*
X15008158Y-15320293D02*
X14998634Y-15301246D01*
X14998634Y-15301246D02*
X14998634Y-15291722D01*
X14998634Y-15291722D02*
X15008158Y-15272674D01*
X15008158Y-15272674D02*
X15027206Y-15263150D01*
X15027206Y-15263150D02*
X15055777Y-15263150D01*
X15055777Y-15263150D02*
X15074825Y-15272674D01*
X15151015Y-15472674D02*
X15160539Y-15463150D01*
X15160539Y-15463150D02*
X15179587Y-15434579D01*
X15179587Y-15434579D02*
X15189111Y-15415531D01*
X15189111Y-15415531D02*
X15198634Y-15386960D01*
X15198634Y-15386960D02*
X15208158Y-15339341D01*
X15208158Y-15339341D02*
X15208158Y-15301246D01*
X15208158Y-15301246D02*
X15198634Y-15253627D01*
X15198634Y-15253627D02*
X15189111Y-15225055D01*
X15189111Y-15225055D02*
X15179587Y-15206008D01*
X15179587Y-15206008D02*
X15160539Y-15177436D01*
X15160539Y-15177436D02*
X15151015Y-15167912D01*
D10*
X9995000Y-15569000D02*
G75*
G02*
X9965000Y-15569000I-15000J0D01*
G01*
X9965000Y-15569000D02*
G75*
G02*
X9995000Y-15569000I15000J0D01*
G01*
D11*
X10293872Y-15460484D02*
X10312920Y-15460484D01*
X10312920Y-15460484D02*
X10331967Y-15470008D01*
X10331967Y-15470008D02*
X10341491Y-15479531D01*
X10341491Y-15479531D02*
X10351015Y-15498579D01*
X10351015Y-15498579D02*
X10360539Y-15536674D01*
X10360539Y-15536674D02*
X10360539Y-15584293D01*
X10360539Y-15584293D02*
X10351015Y-15622388D01*
X10351015Y-15622388D02*
X10341491Y-15641436D01*
X10341491Y-15641436D02*
X10331967Y-15650960D01*
X10331967Y-15650960D02*
X10312920Y-15660484D01*
X10312920Y-15660484D02*
X10293872Y-15660484D01*
X10293872Y-15660484D02*
X10274824Y-15650960D01*
X10274824Y-15650960D02*
X10265301Y-15641436D01*
X10265301Y-15641436D02*
X10255777Y-15622388D01*
X10255777Y-15622388D02*
X10246253Y-15584293D01*
X10246253Y-15584293D02*
X10246253Y-15536674D01*
X10246253Y-15536674D02*
X10255777Y-15498579D01*
X10255777Y-15498579D02*
X10265301Y-15479531D01*
X10265301Y-15479531D02*
X10274824Y-15470008D01*
X10274824Y-15470008D02*
X10293872Y-15460484D01*
X10446253Y-15641436D02*
X10455777Y-15650960D01*
X10455777Y-15650960D02*
X10446253Y-15660484D01*
X10446253Y-15660484D02*
X10436729Y-15650960D01*
X10436729Y-15650960D02*
X10446253Y-15641436D01*
X10446253Y-15641436D02*
X10446253Y-15660484D01*
X10522444Y-15460484D02*
X10646253Y-15460484D01*
X10646253Y-15460484D02*
X10579586Y-15536674D01*
X10579586Y-15536674D02*
X10608158Y-15536674D01*
X10608158Y-15536674D02*
X10627205Y-15546198D01*
X10627205Y-15546198D02*
X10636729Y-15555722D01*
X10636729Y-15555722D02*
X10646253Y-15574769D01*
X10646253Y-15574769D02*
X10646253Y-15622388D01*
X10646253Y-15622388D02*
X10636729Y-15641436D01*
X10636729Y-15641436D02*
X10627205Y-15650960D01*
X10627205Y-15650960D02*
X10608158Y-15660484D01*
X10608158Y-15660484D02*
X10551015Y-15660484D01*
X10551015Y-15660484D02*
X10531967Y-15650960D01*
X10531967Y-15650960D02*
X10522444Y-15641436D01*
X10770063Y-15460484D02*
X10789110Y-15460484D01*
X10789110Y-15460484D02*
X10808158Y-15470008D01*
X10808158Y-15470008D02*
X10817682Y-15479531D01*
X10817682Y-15479531D02*
X10827205Y-15498579D01*
X10827205Y-15498579D02*
X10836729Y-15536674D01*
X10836729Y-15536674D02*
X10836729Y-15584293D01*
X10836729Y-15584293D02*
X10827205Y-15622388D01*
X10827205Y-15622388D02*
X10817682Y-15641436D01*
X10817682Y-15641436D02*
X10808158Y-15650960D01*
X10808158Y-15650960D02*
X10789110Y-15660484D01*
X10789110Y-15660484D02*
X10770063Y-15660484D01*
X10770063Y-15660484D02*
X10751015Y-15650960D01*
X10751015Y-15650960D02*
X10741491Y-15641436D01*
X10741491Y-15641436D02*
X10731967Y-15622388D01*
X10731967Y-15622388D02*
X10722444Y-15584293D01*
X10722444Y-15584293D02*
X10722444Y-15536674D01*
X10722444Y-15536674D02*
X10731967Y-15498579D01*
X10731967Y-15498579D02*
X10741491Y-15479531D01*
X10741491Y-15479531D02*
X10751015Y-15470008D01*
X10751015Y-15470008D02*
X10770063Y-15460484D01*
X10960539Y-15460484D02*
X10979586Y-15460484D01*
X10979586Y-15460484D02*
X10998634Y-15470008D01*
X10998634Y-15470008D02*
X11008158Y-15479531D01*
X11008158Y-15479531D02*
X11017682Y-15498579D01*
X11017682Y-15498579D02*
X11027205Y-15536674D01*
X11027205Y-15536674D02*
X11027205Y-15584293D01*
X11027205Y-15584293D02*
X11017682Y-15622388D01*
X11017682Y-15622388D02*
X11008158Y-15641436D01*
X11008158Y-15641436D02*
X10998634Y-15650960D01*
X10998634Y-15650960D02*
X10979586Y-15660484D01*
X10979586Y-15660484D02*
X10960539Y-15660484D01*
X10960539Y-15660484D02*
X10941491Y-15650960D01*
X10941491Y-15650960D02*
X10931967Y-15641436D01*
X10931967Y-15641436D02*
X10922444Y-15622388D01*
X10922444Y-15622388D02*
X10912920Y-15584293D01*
X10912920Y-15584293D02*
X10912920Y-15536674D01*
X10912920Y-15536674D02*
X10922444Y-15498579D01*
X10922444Y-15498579D02*
X10931967Y-15479531D01*
X10931967Y-15479531D02*
X10941491Y-15470008D01*
X10941491Y-15470008D02*
X10960539Y-15460484D01*
X11112920Y-15660484D02*
X11112920Y-15527150D01*
X11112920Y-15546198D02*
X11122444Y-15536674D01*
X11122444Y-15536674D02*
X11141491Y-15527150D01*
X11141491Y-15527150D02*
X11170063Y-15527150D01*
X11170063Y-15527150D02*
X11189110Y-15536674D01*
X11189110Y-15536674D02*
X11198634Y-15555722D01*
X11198634Y-15555722D02*
X11198634Y-15660484D01*
X11198634Y-15555722D02*
X11208158Y-15536674D01*
X11208158Y-15536674D02*
X11227205Y-15527150D01*
X11227205Y-15527150D02*
X11255777Y-15527150D01*
X11255777Y-15527150D02*
X11274824Y-15536674D01*
X11274824Y-15536674D02*
X11284348Y-15555722D01*
X11284348Y-15555722D02*
X11284348Y-15660484D01*
X11379586Y-15660484D02*
X11379586Y-15527150D01*
X11379586Y-15546198D02*
X11389110Y-15536674D01*
X11389110Y-15536674D02*
X11408158Y-15527150D01*
X11408158Y-15527150D02*
X11436729Y-15527150D01*
X11436729Y-15527150D02*
X11455777Y-15536674D01*
X11455777Y-15536674D02*
X11465301Y-15555722D01*
X11465301Y-15555722D02*
X11465301Y-15660484D01*
X11465301Y-15555722D02*
X11474824Y-15536674D01*
X11474824Y-15536674D02*
X11493872Y-15527150D01*
X11493872Y-15527150D02*
X11522443Y-15527150D01*
X11522443Y-15527150D02*
X11541491Y-15536674D01*
X11541491Y-15536674D02*
X11551015Y-15555722D01*
X11551015Y-15555722D02*
X11551015Y-15660484D01*
X11941491Y-15450960D02*
X11770063Y-15708103D01*
X12198634Y-15460484D02*
X12217682Y-15460484D01*
X12217682Y-15460484D02*
X12236729Y-15470008D01*
X12236729Y-15470008D02*
X12246253Y-15479531D01*
X12246253Y-15479531D02*
X12255777Y-15498579D01*
X12255777Y-15498579D02*
X12265301Y-15536674D01*
X12265301Y-15536674D02*
X12265301Y-15584293D01*
X12265301Y-15584293D02*
X12255777Y-15622388D01*
X12255777Y-15622388D02*
X12246253Y-15641436D01*
X12246253Y-15641436D02*
X12236729Y-15650960D01*
X12236729Y-15650960D02*
X12217682Y-15660484D01*
X12217682Y-15660484D02*
X12198634Y-15660484D01*
X12198634Y-15660484D02*
X12179586Y-15650960D01*
X12179586Y-15650960D02*
X12170063Y-15641436D01*
X12170063Y-15641436D02*
X12160539Y-15622388D01*
X12160539Y-15622388D02*
X12151015Y-15584293D01*
X12151015Y-15584293D02*
X12151015Y-15536674D01*
X12151015Y-15536674D02*
X12160539Y-15498579D01*
X12160539Y-15498579D02*
X12170063Y-15479531D01*
X12170063Y-15479531D02*
X12179586Y-15470008D01*
X12179586Y-15470008D02*
X12198634Y-15460484D01*
X12351015Y-15641436D02*
X12360539Y-15650960D01*
X12360539Y-15650960D02*
X12351015Y-15660484D01*
X12351015Y-15660484D02*
X12341491Y-15650960D01*
X12341491Y-15650960D02*
X12351015Y-15641436D01*
X12351015Y-15641436D02*
X12351015Y-15660484D01*
X12484348Y-15460484D02*
X12503396Y-15460484D01*
X12503396Y-15460484D02*
X12522444Y-15470008D01*
X12522444Y-15470008D02*
X12531967Y-15479531D01*
X12531967Y-15479531D02*
X12541491Y-15498579D01*
X12541491Y-15498579D02*
X12551015Y-15536674D01*
X12551015Y-15536674D02*
X12551015Y-15584293D01*
X12551015Y-15584293D02*
X12541491Y-15622388D01*
X12541491Y-15622388D02*
X12531967Y-15641436D01*
X12531967Y-15641436D02*
X12522444Y-15650960D01*
X12522444Y-15650960D02*
X12503396Y-15660484D01*
X12503396Y-15660484D02*
X12484348Y-15660484D01*
X12484348Y-15660484D02*
X12465301Y-15650960D01*
X12465301Y-15650960D02*
X12455777Y-15641436D01*
X12455777Y-15641436D02*
X12446253Y-15622388D01*
X12446253Y-15622388D02*
X12436729Y-15584293D01*
X12436729Y-15584293D02*
X12436729Y-15536674D01*
X12436729Y-15536674D02*
X12446253Y-15498579D01*
X12446253Y-15498579D02*
X12455777Y-15479531D01*
X12455777Y-15479531D02*
X12465301Y-15470008D01*
X12465301Y-15470008D02*
X12484348Y-15460484D01*
X12741491Y-15660484D02*
X12627206Y-15660484D01*
X12684348Y-15660484D02*
X12684348Y-15460484D01*
X12684348Y-15460484D02*
X12665301Y-15489055D01*
X12665301Y-15489055D02*
X12646253Y-15508103D01*
X12646253Y-15508103D02*
X12627206Y-15517627D01*
X12931967Y-15660484D02*
X12817682Y-15660484D01*
X12874825Y-15660484D02*
X12874825Y-15460484D01*
X12874825Y-15460484D02*
X12855777Y-15489055D01*
X12855777Y-15489055D02*
X12836729Y-15508103D01*
X12836729Y-15508103D02*
X12817682Y-15517627D01*
X13046253Y-15546198D02*
X13027206Y-15536674D01*
X13027206Y-15536674D02*
X13017682Y-15527150D01*
X13017682Y-15527150D02*
X13008158Y-15508103D01*
X13008158Y-15508103D02*
X13008158Y-15498579D01*
X13008158Y-15498579D02*
X13017682Y-15479531D01*
X13017682Y-15479531D02*
X13027206Y-15470008D01*
X13027206Y-15470008D02*
X13046253Y-15460484D01*
X13046253Y-15460484D02*
X13084348Y-15460484D01*
X13084348Y-15460484D02*
X13103396Y-15470008D01*
X13103396Y-15470008D02*
X13112920Y-15479531D01*
X13112920Y-15479531D02*
X13122444Y-15498579D01*
X13122444Y-15498579D02*
X13122444Y-15508103D01*
X13122444Y-15508103D02*
X13112920Y-15527150D01*
X13112920Y-15527150D02*
X13103396Y-15536674D01*
X13103396Y-15536674D02*
X13084348Y-15546198D01*
X13084348Y-15546198D02*
X13046253Y-15546198D01*
X13046253Y-15546198D02*
X13027206Y-15555722D01*
X13027206Y-15555722D02*
X13017682Y-15565246D01*
X13017682Y-15565246D02*
X13008158Y-15584293D01*
X13008158Y-15584293D02*
X13008158Y-15622388D01*
X13008158Y-15622388D02*
X13017682Y-15641436D01*
X13017682Y-15641436D02*
X13027206Y-15650960D01*
X13027206Y-15650960D02*
X13046253Y-15660484D01*
X13046253Y-15660484D02*
X13084348Y-15660484D01*
X13084348Y-15660484D02*
X13103396Y-15650960D01*
X13103396Y-15650960D02*
X13112920Y-15641436D01*
X13112920Y-15641436D02*
X13122444Y-15622388D01*
X13122444Y-15622388D02*
X13122444Y-15584293D01*
X13122444Y-15584293D02*
X13112920Y-15565246D01*
X13112920Y-15565246D02*
X13103396Y-15555722D01*
X13103396Y-15555722D02*
X13084348Y-15546198D01*
X13198634Y-15460484D02*
X13198634Y-15498579D01*
X13274825Y-15460484D02*
X13274825Y-15498579D01*
X13570063Y-15736674D02*
X13560539Y-15727150D01*
X13560539Y-15727150D02*
X13541491Y-15698579D01*
X13541491Y-15698579D02*
X13531968Y-15679531D01*
X13531968Y-15679531D02*
X13522444Y-15650960D01*
X13522444Y-15650960D02*
X13512920Y-15603341D01*
X13512920Y-15603341D02*
X13512920Y-15565246D01*
X13512920Y-15565246D02*
X13522444Y-15517627D01*
X13522444Y-15517627D02*
X13531968Y-15489055D01*
X13531968Y-15489055D02*
X13541491Y-15470008D01*
X13541491Y-15470008D02*
X13560539Y-15441436D01*
X13560539Y-15441436D02*
X13570063Y-15431912D01*
X13636729Y-15479531D02*
X13646253Y-15470008D01*
X13646253Y-15470008D02*
X13665301Y-15460484D01*
X13665301Y-15460484D02*
X13712920Y-15460484D01*
X13712920Y-15460484D02*
X13731968Y-15470008D01*
X13731968Y-15470008D02*
X13741491Y-15479531D01*
X13741491Y-15479531D02*
X13751015Y-15498579D01*
X13751015Y-15498579D02*
X13751015Y-15517627D01*
X13751015Y-15517627D02*
X13741491Y-15546198D01*
X13741491Y-15546198D02*
X13627206Y-15660484D01*
X13627206Y-15660484D02*
X13751015Y-15660484D01*
X13817682Y-15460484D02*
X13951015Y-15460484D01*
X13951015Y-15460484D02*
X13865301Y-15660484D01*
X14122444Y-15460484D02*
X14027206Y-15460484D01*
X14027206Y-15460484D02*
X14017682Y-15555722D01*
X14017682Y-15555722D02*
X14027206Y-15546198D01*
X14027206Y-15546198D02*
X14046253Y-15536674D01*
X14046253Y-15536674D02*
X14093872Y-15536674D01*
X14093872Y-15536674D02*
X14112920Y-15546198D01*
X14112920Y-15546198D02*
X14122444Y-15555722D01*
X14122444Y-15555722D02*
X14131968Y-15574769D01*
X14131968Y-15574769D02*
X14131968Y-15622388D01*
X14131968Y-15622388D02*
X14122444Y-15641436D01*
X14122444Y-15641436D02*
X14112920Y-15650960D01*
X14112920Y-15650960D02*
X14093872Y-15660484D01*
X14093872Y-15660484D02*
X14046253Y-15660484D01*
X14046253Y-15660484D02*
X14027206Y-15650960D01*
X14027206Y-15650960D02*
X14017682Y-15641436D01*
X14370063Y-15660484D02*
X14370063Y-15460484D01*
X14455777Y-15660484D02*
X14455777Y-15555722D01*
X14455777Y-15555722D02*
X14446253Y-15536674D01*
X14446253Y-15536674D02*
X14427206Y-15527150D01*
X14427206Y-15527150D02*
X14398634Y-15527150D01*
X14398634Y-15527150D02*
X14379587Y-15536674D01*
X14379587Y-15536674D02*
X14370063Y-15546198D01*
X14579587Y-15660484D02*
X14560539Y-15650960D01*
X14560539Y-15650960D02*
X14551015Y-15641436D01*
X14551015Y-15641436D02*
X14541491Y-15622388D01*
X14541491Y-15622388D02*
X14541491Y-15565246D01*
X14541491Y-15565246D02*
X14551015Y-15546198D01*
X14551015Y-15546198D02*
X14560539Y-15536674D01*
X14560539Y-15536674D02*
X14579587Y-15527150D01*
X14579587Y-15527150D02*
X14608158Y-15527150D01*
X14608158Y-15527150D02*
X14627206Y-15536674D01*
X14627206Y-15536674D02*
X14636730Y-15546198D01*
X14636730Y-15546198D02*
X14646253Y-15565246D01*
X14646253Y-15565246D02*
X14646253Y-15622388D01*
X14646253Y-15622388D02*
X14636730Y-15641436D01*
X14636730Y-15641436D02*
X14627206Y-15650960D01*
X14627206Y-15650960D02*
X14608158Y-15660484D01*
X14608158Y-15660484D02*
X14579587Y-15660484D01*
X14760539Y-15660484D02*
X14741491Y-15650960D01*
X14741491Y-15650960D02*
X14731968Y-15631912D01*
X14731968Y-15631912D02*
X14731968Y-15460484D01*
X14912920Y-15650960D02*
X14893872Y-15660484D01*
X14893872Y-15660484D02*
X14855777Y-15660484D01*
X14855777Y-15660484D02*
X14836730Y-15650960D01*
X14836730Y-15650960D02*
X14827206Y-15631912D01*
X14827206Y-15631912D02*
X14827206Y-15555722D01*
X14827206Y-15555722D02*
X14836730Y-15536674D01*
X14836730Y-15536674D02*
X14855777Y-15527150D01*
X14855777Y-15527150D02*
X14893872Y-15527150D01*
X14893872Y-15527150D02*
X14912920Y-15536674D01*
X14912920Y-15536674D02*
X14922444Y-15555722D01*
X14922444Y-15555722D02*
X14922444Y-15574769D01*
X14922444Y-15574769D02*
X14827206Y-15593817D01*
X14998634Y-15650960D02*
X15017682Y-15660484D01*
X15017682Y-15660484D02*
X15055777Y-15660484D01*
X15055777Y-15660484D02*
X15074825Y-15650960D01*
X15074825Y-15650960D02*
X15084349Y-15631912D01*
X15084349Y-15631912D02*
X15084349Y-15622388D01*
X15084349Y-15622388D02*
X15074825Y-15603341D01*
X15074825Y-15603341D02*
X15055777Y-15593817D01*
X15055777Y-15593817D02*
X15027206Y-15593817D01*
X15027206Y-15593817D02*
X15008158Y-15584293D01*
X15008158Y-15584293D02*
X14998634Y-15565246D01*
X14998634Y-15565246D02*
X14998634Y-15555722D01*
X14998634Y-15555722D02*
X15008158Y-15536674D01*
X15008158Y-15536674D02*
X15027206Y-15527150D01*
X15027206Y-15527150D02*
X15055777Y-15527150D01*
X15055777Y-15527150D02*
X15074825Y-15536674D01*
X15151015Y-15736674D02*
X15160539Y-15727150D01*
X15160539Y-15727150D02*
X15179587Y-15698579D01*
X15179587Y-15698579D02*
X15189111Y-15679531D01*
X15189111Y-15679531D02*
X15198634Y-15650960D01*
X15198634Y-15650960D02*
X15208158Y-15603341D01*
X15208158Y-15603341D02*
X15208158Y-15565246D01*
X15208158Y-15565246D02*
X15198634Y-15517627D01*
X15198634Y-15517627D02*
X15189111Y-15489055D01*
X15189111Y-15489055D02*
X15179587Y-15470008D01*
X15179587Y-15470008D02*
X15160539Y-15441436D01*
X15160539Y-15441436D02*
X15151015Y-15431912D01*
D10*
X9965000Y-15803000D02*
X9965000Y-15863000D01*
X9935000Y-15833000D02*
X9995000Y-15833000D01*
D11*
X10293872Y-15724484D02*
X10312920Y-15724484D01*
X10312920Y-15724484D02*
X10331967Y-15734008D01*
X10331967Y-15734008D02*
X10341491Y-15743531D01*
X10341491Y-15743531D02*
X10351015Y-15762579D01*
X10351015Y-15762579D02*
X10360539Y-15800674D01*
X10360539Y-15800674D02*
X10360539Y-15848293D01*
X10360539Y-15848293D02*
X10351015Y-15886388D01*
X10351015Y-15886388D02*
X10341491Y-15905436D01*
X10341491Y-15905436D02*
X10331967Y-15914960D01*
X10331967Y-15914960D02*
X10312920Y-15924484D01*
X10312920Y-15924484D02*
X10293872Y-15924484D01*
X10293872Y-15924484D02*
X10274824Y-15914960D01*
X10274824Y-15914960D02*
X10265301Y-15905436D01*
X10265301Y-15905436D02*
X10255777Y-15886388D01*
X10255777Y-15886388D02*
X10246253Y-15848293D01*
X10246253Y-15848293D02*
X10246253Y-15800674D01*
X10246253Y-15800674D02*
X10255777Y-15762579D01*
X10255777Y-15762579D02*
X10265301Y-15743531D01*
X10265301Y-15743531D02*
X10274824Y-15734008D01*
X10274824Y-15734008D02*
X10293872Y-15724484D01*
X10446253Y-15905436D02*
X10455777Y-15914960D01*
X10455777Y-15914960D02*
X10446253Y-15924484D01*
X10446253Y-15924484D02*
X10436729Y-15914960D01*
X10436729Y-15914960D02*
X10446253Y-15905436D01*
X10446253Y-15905436D02*
X10446253Y-15924484D01*
X10627205Y-15724484D02*
X10589110Y-15724484D01*
X10589110Y-15724484D02*
X10570063Y-15734008D01*
X10570063Y-15734008D02*
X10560539Y-15743531D01*
X10560539Y-15743531D02*
X10541491Y-15772103D01*
X10541491Y-15772103D02*
X10531967Y-15810198D01*
X10531967Y-15810198D02*
X10531967Y-15886388D01*
X10531967Y-15886388D02*
X10541491Y-15905436D01*
X10541491Y-15905436D02*
X10551015Y-15914960D01*
X10551015Y-15914960D02*
X10570063Y-15924484D01*
X10570063Y-15924484D02*
X10608158Y-15924484D01*
X10608158Y-15924484D02*
X10627205Y-15914960D01*
X10627205Y-15914960D02*
X10636729Y-15905436D01*
X10636729Y-15905436D02*
X10646253Y-15886388D01*
X10646253Y-15886388D02*
X10646253Y-15838769D01*
X10646253Y-15838769D02*
X10636729Y-15819722D01*
X10636729Y-15819722D02*
X10627205Y-15810198D01*
X10627205Y-15810198D02*
X10608158Y-15800674D01*
X10608158Y-15800674D02*
X10570063Y-15800674D01*
X10570063Y-15800674D02*
X10551015Y-15810198D01*
X10551015Y-15810198D02*
X10541491Y-15819722D01*
X10541491Y-15819722D02*
X10531967Y-15838769D01*
X10770063Y-15724484D02*
X10789110Y-15724484D01*
X10789110Y-15724484D02*
X10808158Y-15734008D01*
X10808158Y-15734008D02*
X10817682Y-15743531D01*
X10817682Y-15743531D02*
X10827205Y-15762579D01*
X10827205Y-15762579D02*
X10836729Y-15800674D01*
X10836729Y-15800674D02*
X10836729Y-15848293D01*
X10836729Y-15848293D02*
X10827205Y-15886388D01*
X10827205Y-15886388D02*
X10817682Y-15905436D01*
X10817682Y-15905436D02*
X10808158Y-15914960D01*
X10808158Y-15914960D02*
X10789110Y-15924484D01*
X10789110Y-15924484D02*
X10770063Y-15924484D01*
X10770063Y-15924484D02*
X10751015Y-15914960D01*
X10751015Y-15914960D02*
X10741491Y-15905436D01*
X10741491Y-15905436D02*
X10731967Y-15886388D01*
X10731967Y-15886388D02*
X10722444Y-15848293D01*
X10722444Y-15848293D02*
X10722444Y-15800674D01*
X10722444Y-15800674D02*
X10731967Y-15762579D01*
X10731967Y-15762579D02*
X10741491Y-15743531D01*
X10741491Y-15743531D02*
X10751015Y-15734008D01*
X10751015Y-15734008D02*
X10770063Y-15724484D01*
X10960539Y-15724484D02*
X10979586Y-15724484D01*
X10979586Y-15724484D02*
X10998634Y-15734008D01*
X10998634Y-15734008D02*
X11008158Y-15743531D01*
X11008158Y-15743531D02*
X11017682Y-15762579D01*
X11017682Y-15762579D02*
X11027205Y-15800674D01*
X11027205Y-15800674D02*
X11027205Y-15848293D01*
X11027205Y-15848293D02*
X11017682Y-15886388D01*
X11017682Y-15886388D02*
X11008158Y-15905436D01*
X11008158Y-15905436D02*
X10998634Y-15914960D01*
X10998634Y-15914960D02*
X10979586Y-15924484D01*
X10979586Y-15924484D02*
X10960539Y-15924484D01*
X10960539Y-15924484D02*
X10941491Y-15914960D01*
X10941491Y-15914960D02*
X10931967Y-15905436D01*
X10931967Y-15905436D02*
X10922444Y-15886388D01*
X10922444Y-15886388D02*
X10912920Y-15848293D01*
X10912920Y-15848293D02*
X10912920Y-15800674D01*
X10912920Y-15800674D02*
X10922444Y-15762579D01*
X10922444Y-15762579D02*
X10931967Y-15743531D01*
X10931967Y-15743531D02*
X10941491Y-15734008D01*
X10941491Y-15734008D02*
X10960539Y-15724484D01*
X11112920Y-15924484D02*
X11112920Y-15791150D01*
X11112920Y-15810198D02*
X11122444Y-15800674D01*
X11122444Y-15800674D02*
X11141491Y-15791150D01*
X11141491Y-15791150D02*
X11170063Y-15791150D01*
X11170063Y-15791150D02*
X11189110Y-15800674D01*
X11189110Y-15800674D02*
X11198634Y-15819722D01*
X11198634Y-15819722D02*
X11198634Y-15924484D01*
X11198634Y-15819722D02*
X11208158Y-15800674D01*
X11208158Y-15800674D02*
X11227205Y-15791150D01*
X11227205Y-15791150D02*
X11255777Y-15791150D01*
X11255777Y-15791150D02*
X11274824Y-15800674D01*
X11274824Y-15800674D02*
X11284348Y-15819722D01*
X11284348Y-15819722D02*
X11284348Y-15924484D01*
X11379586Y-15924484D02*
X11379586Y-15791150D01*
X11379586Y-15810198D02*
X11389110Y-15800674D01*
X11389110Y-15800674D02*
X11408158Y-15791150D01*
X11408158Y-15791150D02*
X11436729Y-15791150D01*
X11436729Y-15791150D02*
X11455777Y-15800674D01*
X11455777Y-15800674D02*
X11465301Y-15819722D01*
X11465301Y-15819722D02*
X11465301Y-15924484D01*
X11465301Y-15819722D02*
X11474824Y-15800674D01*
X11474824Y-15800674D02*
X11493872Y-15791150D01*
X11493872Y-15791150D02*
X11522443Y-15791150D01*
X11522443Y-15791150D02*
X11541491Y-15800674D01*
X11541491Y-15800674D02*
X11551015Y-15819722D01*
X11551015Y-15819722D02*
X11551015Y-15924484D01*
X11941491Y-15714960D02*
X11770063Y-15972103D01*
X12198634Y-15724484D02*
X12217682Y-15724484D01*
X12217682Y-15724484D02*
X12236729Y-15734008D01*
X12236729Y-15734008D02*
X12246253Y-15743531D01*
X12246253Y-15743531D02*
X12255777Y-15762579D01*
X12255777Y-15762579D02*
X12265301Y-15800674D01*
X12265301Y-15800674D02*
X12265301Y-15848293D01*
X12265301Y-15848293D02*
X12255777Y-15886388D01*
X12255777Y-15886388D02*
X12246253Y-15905436D01*
X12246253Y-15905436D02*
X12236729Y-15914960D01*
X12236729Y-15914960D02*
X12217682Y-15924484D01*
X12217682Y-15924484D02*
X12198634Y-15924484D01*
X12198634Y-15924484D02*
X12179586Y-15914960D01*
X12179586Y-15914960D02*
X12170063Y-15905436D01*
X12170063Y-15905436D02*
X12160539Y-15886388D01*
X12160539Y-15886388D02*
X12151015Y-15848293D01*
X12151015Y-15848293D02*
X12151015Y-15800674D01*
X12151015Y-15800674D02*
X12160539Y-15762579D01*
X12160539Y-15762579D02*
X12170063Y-15743531D01*
X12170063Y-15743531D02*
X12179586Y-15734008D01*
X12179586Y-15734008D02*
X12198634Y-15724484D01*
X12351015Y-15905436D02*
X12360539Y-15914960D01*
X12360539Y-15914960D02*
X12351015Y-15924484D01*
X12351015Y-15924484D02*
X12341491Y-15914960D01*
X12341491Y-15914960D02*
X12351015Y-15905436D01*
X12351015Y-15905436D02*
X12351015Y-15924484D01*
X12484348Y-15724484D02*
X12503396Y-15724484D01*
X12503396Y-15724484D02*
X12522444Y-15734008D01*
X12522444Y-15734008D02*
X12531967Y-15743531D01*
X12531967Y-15743531D02*
X12541491Y-15762579D01*
X12541491Y-15762579D02*
X12551015Y-15800674D01*
X12551015Y-15800674D02*
X12551015Y-15848293D01*
X12551015Y-15848293D02*
X12541491Y-15886388D01*
X12541491Y-15886388D02*
X12531967Y-15905436D01*
X12531967Y-15905436D02*
X12522444Y-15914960D01*
X12522444Y-15914960D02*
X12503396Y-15924484D01*
X12503396Y-15924484D02*
X12484348Y-15924484D01*
X12484348Y-15924484D02*
X12465301Y-15914960D01*
X12465301Y-15914960D02*
X12455777Y-15905436D01*
X12455777Y-15905436D02*
X12446253Y-15886388D01*
X12446253Y-15886388D02*
X12436729Y-15848293D01*
X12436729Y-15848293D02*
X12436729Y-15800674D01*
X12436729Y-15800674D02*
X12446253Y-15762579D01*
X12446253Y-15762579D02*
X12455777Y-15743531D01*
X12455777Y-15743531D02*
X12465301Y-15734008D01*
X12465301Y-15734008D02*
X12484348Y-15724484D01*
X12627206Y-15743531D02*
X12636729Y-15734008D01*
X12636729Y-15734008D02*
X12655777Y-15724484D01*
X12655777Y-15724484D02*
X12703396Y-15724484D01*
X12703396Y-15724484D02*
X12722444Y-15734008D01*
X12722444Y-15734008D02*
X12731967Y-15743531D01*
X12731967Y-15743531D02*
X12741491Y-15762579D01*
X12741491Y-15762579D02*
X12741491Y-15781627D01*
X12741491Y-15781627D02*
X12731967Y-15810198D01*
X12731967Y-15810198D02*
X12617682Y-15924484D01*
X12617682Y-15924484D02*
X12741491Y-15924484D01*
X12808158Y-15724484D02*
X12931967Y-15724484D01*
X12931967Y-15724484D02*
X12865301Y-15800674D01*
X12865301Y-15800674D02*
X12893872Y-15800674D01*
X12893872Y-15800674D02*
X12912920Y-15810198D01*
X12912920Y-15810198D02*
X12922444Y-15819722D01*
X12922444Y-15819722D02*
X12931967Y-15838769D01*
X12931967Y-15838769D02*
X12931967Y-15886388D01*
X12931967Y-15886388D02*
X12922444Y-15905436D01*
X12922444Y-15905436D02*
X12912920Y-15914960D01*
X12912920Y-15914960D02*
X12893872Y-15924484D01*
X12893872Y-15924484D02*
X12836729Y-15924484D01*
X12836729Y-15924484D02*
X12817682Y-15914960D01*
X12817682Y-15914960D02*
X12808158Y-15905436D01*
X13103396Y-15724484D02*
X13065301Y-15724484D01*
X13065301Y-15724484D02*
X13046253Y-15734008D01*
X13046253Y-15734008D02*
X13036729Y-15743531D01*
X13036729Y-15743531D02*
X13017682Y-15772103D01*
X13017682Y-15772103D02*
X13008158Y-15810198D01*
X13008158Y-15810198D02*
X13008158Y-15886388D01*
X13008158Y-15886388D02*
X13017682Y-15905436D01*
X13017682Y-15905436D02*
X13027206Y-15914960D01*
X13027206Y-15914960D02*
X13046253Y-15924484D01*
X13046253Y-15924484D02*
X13084348Y-15924484D01*
X13084348Y-15924484D02*
X13103396Y-15914960D01*
X13103396Y-15914960D02*
X13112920Y-15905436D01*
X13112920Y-15905436D02*
X13122444Y-15886388D01*
X13122444Y-15886388D02*
X13122444Y-15838769D01*
X13122444Y-15838769D02*
X13112920Y-15819722D01*
X13112920Y-15819722D02*
X13103396Y-15810198D01*
X13103396Y-15810198D02*
X13084348Y-15800674D01*
X13084348Y-15800674D02*
X13046253Y-15800674D01*
X13046253Y-15800674D02*
X13027206Y-15810198D01*
X13027206Y-15810198D02*
X13017682Y-15819722D01*
X13017682Y-15819722D02*
X13008158Y-15838769D01*
X13198634Y-15724484D02*
X13198634Y-15762579D01*
X13274825Y-15724484D02*
X13274825Y-15762579D01*
X13570063Y-16000674D02*
X13560539Y-15991150D01*
X13560539Y-15991150D02*
X13541491Y-15962579D01*
X13541491Y-15962579D02*
X13531968Y-15943531D01*
X13531968Y-15943531D02*
X13522444Y-15914960D01*
X13522444Y-15914960D02*
X13512920Y-15867341D01*
X13512920Y-15867341D02*
X13512920Y-15829246D01*
X13512920Y-15829246D02*
X13522444Y-15781627D01*
X13522444Y-15781627D02*
X13531968Y-15753055D01*
X13531968Y-15753055D02*
X13541491Y-15734008D01*
X13541491Y-15734008D02*
X13560539Y-15705436D01*
X13560539Y-15705436D02*
X13570063Y-15695912D01*
X13684348Y-15724484D02*
X13703396Y-15724484D01*
X13703396Y-15724484D02*
X13722444Y-15734008D01*
X13722444Y-15734008D02*
X13731968Y-15743531D01*
X13731968Y-15743531D02*
X13741491Y-15762579D01*
X13741491Y-15762579D02*
X13751015Y-15800674D01*
X13751015Y-15800674D02*
X13751015Y-15848293D01*
X13751015Y-15848293D02*
X13741491Y-15886388D01*
X13741491Y-15886388D02*
X13731968Y-15905436D01*
X13731968Y-15905436D02*
X13722444Y-15914960D01*
X13722444Y-15914960D02*
X13703396Y-15924484D01*
X13703396Y-15924484D02*
X13684348Y-15924484D01*
X13684348Y-15924484D02*
X13665301Y-15914960D01*
X13665301Y-15914960D02*
X13655777Y-15905436D01*
X13655777Y-15905436D02*
X13646253Y-15886388D01*
X13646253Y-15886388D02*
X13636729Y-15848293D01*
X13636729Y-15848293D02*
X13636729Y-15800674D01*
X13636729Y-15800674D02*
X13646253Y-15762579D01*
X13646253Y-15762579D02*
X13655777Y-15743531D01*
X13655777Y-15743531D02*
X13665301Y-15734008D01*
X13665301Y-15734008D02*
X13684348Y-15724484D01*
X13989110Y-15924484D02*
X13989110Y-15724484D01*
X14074825Y-15924484D02*
X14074825Y-15819722D01*
X14074825Y-15819722D02*
X14065301Y-15800674D01*
X14065301Y-15800674D02*
X14046253Y-15791150D01*
X14046253Y-15791150D02*
X14017682Y-15791150D01*
X14017682Y-15791150D02*
X13998634Y-15800674D01*
X13998634Y-15800674D02*
X13989110Y-15810198D01*
X14198634Y-15924484D02*
X14179587Y-15914960D01*
X14179587Y-15914960D02*
X14170063Y-15905436D01*
X14170063Y-15905436D02*
X14160539Y-15886388D01*
X14160539Y-15886388D02*
X14160539Y-15829246D01*
X14160539Y-15829246D02*
X14170063Y-15810198D01*
X14170063Y-15810198D02*
X14179587Y-15800674D01*
X14179587Y-15800674D02*
X14198634Y-15791150D01*
X14198634Y-15791150D02*
X14227206Y-15791150D01*
X14227206Y-15791150D02*
X14246253Y-15800674D01*
X14246253Y-15800674D02*
X14255777Y-15810198D01*
X14255777Y-15810198D02*
X14265301Y-15829246D01*
X14265301Y-15829246D02*
X14265301Y-15886388D01*
X14265301Y-15886388D02*
X14255777Y-15905436D01*
X14255777Y-15905436D02*
X14246253Y-15914960D01*
X14246253Y-15914960D02*
X14227206Y-15924484D01*
X14227206Y-15924484D02*
X14198634Y-15924484D01*
X14379587Y-15924484D02*
X14360539Y-15914960D01*
X14360539Y-15914960D02*
X14351015Y-15895912D01*
X14351015Y-15895912D02*
X14351015Y-15724484D01*
X14531968Y-15914960D02*
X14512920Y-15924484D01*
X14512920Y-15924484D02*
X14474825Y-15924484D01*
X14474825Y-15924484D02*
X14455777Y-15914960D01*
X14455777Y-15914960D02*
X14446253Y-15895912D01*
X14446253Y-15895912D02*
X14446253Y-15819722D01*
X14446253Y-15819722D02*
X14455777Y-15800674D01*
X14455777Y-15800674D02*
X14474825Y-15791150D01*
X14474825Y-15791150D02*
X14512920Y-15791150D01*
X14512920Y-15791150D02*
X14531968Y-15800674D01*
X14531968Y-15800674D02*
X14541491Y-15819722D01*
X14541491Y-15819722D02*
X14541491Y-15838769D01*
X14541491Y-15838769D02*
X14446253Y-15857817D01*
X14617682Y-15914960D02*
X14636730Y-15924484D01*
X14636730Y-15924484D02*
X14674825Y-15924484D01*
X14674825Y-15924484D02*
X14693872Y-15914960D01*
X14693872Y-15914960D02*
X14703396Y-15895912D01*
X14703396Y-15895912D02*
X14703396Y-15886388D01*
X14703396Y-15886388D02*
X14693872Y-15867341D01*
X14693872Y-15867341D02*
X14674825Y-15857817D01*
X14674825Y-15857817D02*
X14646253Y-15857817D01*
X14646253Y-15857817D02*
X14627206Y-15848293D01*
X14627206Y-15848293D02*
X14617682Y-15829246D01*
X14617682Y-15829246D02*
X14617682Y-15819722D01*
X14617682Y-15819722D02*
X14627206Y-15800674D01*
X14627206Y-15800674D02*
X14646253Y-15791150D01*
X14646253Y-15791150D02*
X14674825Y-15791150D01*
X14674825Y-15791150D02*
X14693872Y-15800674D01*
X14941492Y-15848293D02*
X15093873Y-15848293D01*
X15017682Y-15924484D02*
X15017682Y-15772103D01*
X15427206Y-15791150D02*
X15427206Y-15924484D01*
X15379587Y-15714960D02*
X15331968Y-15857817D01*
X15331968Y-15857817D02*
X15455777Y-15857817D01*
X15674825Y-15914960D02*
X15693873Y-15924484D01*
X15693873Y-15924484D02*
X15731968Y-15924484D01*
X15731968Y-15924484D02*
X15751015Y-15914960D01*
X15751015Y-15914960D02*
X15760539Y-15895912D01*
X15760539Y-15895912D02*
X15760539Y-15886388D01*
X15760539Y-15886388D02*
X15751015Y-15867341D01*
X15751015Y-15867341D02*
X15731968Y-15857817D01*
X15731968Y-15857817D02*
X15703396Y-15857817D01*
X15703396Y-15857817D02*
X15684349Y-15848293D01*
X15684349Y-15848293D02*
X15674825Y-15829246D01*
X15674825Y-15829246D02*
X15674825Y-15819722D01*
X15674825Y-15819722D02*
X15684349Y-15800674D01*
X15684349Y-15800674D02*
X15703396Y-15791150D01*
X15703396Y-15791150D02*
X15731968Y-15791150D01*
X15731968Y-15791150D02*
X15751015Y-15800674D01*
X15874825Y-15924484D02*
X15855777Y-15914960D01*
X15855777Y-15914960D02*
X15846254Y-15895912D01*
X15846254Y-15895912D02*
X15846254Y-15724484D01*
X15979587Y-15924484D02*
X15960539Y-15914960D01*
X15960539Y-15914960D02*
X15951015Y-15905436D01*
X15951015Y-15905436D02*
X15941492Y-15886388D01*
X15941492Y-15886388D02*
X15941492Y-15829246D01*
X15941492Y-15829246D02*
X15951015Y-15810198D01*
X15951015Y-15810198D02*
X15960539Y-15800674D01*
X15960539Y-15800674D02*
X15979587Y-15791150D01*
X15979587Y-15791150D02*
X16008158Y-15791150D01*
X16008158Y-15791150D02*
X16027206Y-15800674D01*
X16027206Y-15800674D02*
X16036730Y-15810198D01*
X16036730Y-15810198D02*
X16046254Y-15829246D01*
X16046254Y-15829246D02*
X16046254Y-15886388D01*
X16046254Y-15886388D02*
X16036730Y-15905436D01*
X16036730Y-15905436D02*
X16027206Y-15914960D01*
X16027206Y-15914960D02*
X16008158Y-15924484D01*
X16008158Y-15924484D02*
X15979587Y-15924484D01*
X16103396Y-15791150D02*
X16179587Y-15791150D01*
X16131968Y-15724484D02*
X16131968Y-15895912D01*
X16131968Y-15895912D02*
X16141492Y-15914960D01*
X16141492Y-15914960D02*
X16160539Y-15924484D01*
X16160539Y-15924484D02*
X16179587Y-15924484D01*
X16236730Y-15914960D02*
X16255777Y-15924484D01*
X16255777Y-15924484D02*
X16293873Y-15924484D01*
X16293873Y-15924484D02*
X16312920Y-15914960D01*
X16312920Y-15914960D02*
X16322444Y-15895912D01*
X16322444Y-15895912D02*
X16322444Y-15886388D01*
X16322444Y-15886388D02*
X16312920Y-15867341D01*
X16312920Y-15867341D02*
X16293873Y-15857817D01*
X16293873Y-15857817D02*
X16265301Y-15857817D01*
X16265301Y-15857817D02*
X16246254Y-15848293D01*
X16246254Y-15848293D02*
X16236730Y-15829246D01*
X16236730Y-15829246D02*
X16236730Y-15819722D01*
X16236730Y-15819722D02*
X16246254Y-15800674D01*
X16246254Y-15800674D02*
X16265301Y-15791150D01*
X16265301Y-15791150D02*
X16293873Y-15791150D01*
X16293873Y-15791150D02*
X16312920Y-15800674D01*
X16389111Y-16000674D02*
X16398635Y-15991150D01*
X16398635Y-15991150D02*
X16417682Y-15962579D01*
X16417682Y-15962579D02*
X16427206Y-15943531D01*
X16427206Y-15943531D02*
X16436730Y-15914960D01*
X16436730Y-15914960D02*
X16446254Y-15867341D01*
X16446254Y-15867341D02*
X16446254Y-15829246D01*
X16446254Y-15829246D02*
X16436730Y-15781627D01*
X16436730Y-15781627D02*
X16427206Y-15753055D01*
X16427206Y-15753055D02*
X16417682Y-15734008D01*
X16417682Y-15734008D02*
X16398635Y-15705436D01*
X16398635Y-15705436D02*
X16389111Y-15695912D01*
D10*
X9984749Y-16121750D02*
X9984749Y-16072250D01*
X9935249Y-16072250D01*
X9935249Y-16121750D01*
X9984749Y-16121750D01*
D11*
X10293872Y-15988484D02*
X10312920Y-15988484D01*
X10312920Y-15988484D02*
X10331967Y-15998008D01*
X10331967Y-15998008D02*
X10341491Y-16007531D01*
X10341491Y-16007531D02*
X10351015Y-16026579D01*
X10351015Y-16026579D02*
X10360539Y-16064674D01*
X10360539Y-16064674D02*
X10360539Y-16112293D01*
X10360539Y-16112293D02*
X10351015Y-16150388D01*
X10351015Y-16150388D02*
X10341491Y-16169436D01*
X10341491Y-16169436D02*
X10331967Y-16178960D01*
X10331967Y-16178960D02*
X10312920Y-16188484D01*
X10312920Y-16188484D02*
X10293872Y-16188484D01*
X10293872Y-16188484D02*
X10274824Y-16178960D01*
X10274824Y-16178960D02*
X10265301Y-16169436D01*
X10265301Y-16169436D02*
X10255777Y-16150388D01*
X10255777Y-16150388D02*
X10246253Y-16112293D01*
X10246253Y-16112293D02*
X10246253Y-16064674D01*
X10246253Y-16064674D02*
X10255777Y-16026579D01*
X10255777Y-16026579D02*
X10265301Y-16007531D01*
X10265301Y-16007531D02*
X10274824Y-15998008D01*
X10274824Y-15998008D02*
X10293872Y-15988484D01*
X10446253Y-16169436D02*
X10455777Y-16178960D01*
X10455777Y-16178960D02*
X10446253Y-16188484D01*
X10446253Y-16188484D02*
X10436729Y-16178960D01*
X10436729Y-16178960D02*
X10446253Y-16169436D01*
X10446253Y-16169436D02*
X10446253Y-16188484D01*
X10522444Y-15988484D02*
X10655777Y-15988484D01*
X10655777Y-15988484D02*
X10570063Y-16188484D01*
X10770063Y-15988484D02*
X10789110Y-15988484D01*
X10789110Y-15988484D02*
X10808158Y-15998008D01*
X10808158Y-15998008D02*
X10817682Y-16007531D01*
X10817682Y-16007531D02*
X10827205Y-16026579D01*
X10827205Y-16026579D02*
X10836729Y-16064674D01*
X10836729Y-16064674D02*
X10836729Y-16112293D01*
X10836729Y-16112293D02*
X10827205Y-16150388D01*
X10827205Y-16150388D02*
X10817682Y-16169436D01*
X10817682Y-16169436D02*
X10808158Y-16178960D01*
X10808158Y-16178960D02*
X10789110Y-16188484D01*
X10789110Y-16188484D02*
X10770063Y-16188484D01*
X10770063Y-16188484D02*
X10751015Y-16178960D01*
X10751015Y-16178960D02*
X10741491Y-16169436D01*
X10741491Y-16169436D02*
X10731967Y-16150388D01*
X10731967Y-16150388D02*
X10722444Y-16112293D01*
X10722444Y-16112293D02*
X10722444Y-16064674D01*
X10722444Y-16064674D02*
X10731967Y-16026579D01*
X10731967Y-16026579D02*
X10741491Y-16007531D01*
X10741491Y-16007531D02*
X10751015Y-15998008D01*
X10751015Y-15998008D02*
X10770063Y-15988484D01*
X10960539Y-15988484D02*
X10979586Y-15988484D01*
X10979586Y-15988484D02*
X10998634Y-15998008D01*
X10998634Y-15998008D02*
X11008158Y-16007531D01*
X11008158Y-16007531D02*
X11017682Y-16026579D01*
X11017682Y-16026579D02*
X11027205Y-16064674D01*
X11027205Y-16064674D02*
X11027205Y-16112293D01*
X11027205Y-16112293D02*
X11017682Y-16150388D01*
X11017682Y-16150388D02*
X11008158Y-16169436D01*
X11008158Y-16169436D02*
X10998634Y-16178960D01*
X10998634Y-16178960D02*
X10979586Y-16188484D01*
X10979586Y-16188484D02*
X10960539Y-16188484D01*
X10960539Y-16188484D02*
X10941491Y-16178960D01*
X10941491Y-16178960D02*
X10931967Y-16169436D01*
X10931967Y-16169436D02*
X10922444Y-16150388D01*
X10922444Y-16150388D02*
X10912920Y-16112293D01*
X10912920Y-16112293D02*
X10912920Y-16064674D01*
X10912920Y-16064674D02*
X10922444Y-16026579D01*
X10922444Y-16026579D02*
X10931967Y-16007531D01*
X10931967Y-16007531D02*
X10941491Y-15998008D01*
X10941491Y-15998008D02*
X10960539Y-15988484D01*
X11112920Y-16188484D02*
X11112920Y-16055150D01*
X11112920Y-16074198D02*
X11122444Y-16064674D01*
X11122444Y-16064674D02*
X11141491Y-16055150D01*
X11141491Y-16055150D02*
X11170063Y-16055150D01*
X11170063Y-16055150D02*
X11189110Y-16064674D01*
X11189110Y-16064674D02*
X11198634Y-16083722D01*
X11198634Y-16083722D02*
X11198634Y-16188484D01*
X11198634Y-16083722D02*
X11208158Y-16064674D01*
X11208158Y-16064674D02*
X11227205Y-16055150D01*
X11227205Y-16055150D02*
X11255777Y-16055150D01*
X11255777Y-16055150D02*
X11274824Y-16064674D01*
X11274824Y-16064674D02*
X11284348Y-16083722D01*
X11284348Y-16083722D02*
X11284348Y-16188484D01*
X11379586Y-16188484D02*
X11379586Y-16055150D01*
X11379586Y-16074198D02*
X11389110Y-16064674D01*
X11389110Y-16064674D02*
X11408158Y-16055150D01*
X11408158Y-16055150D02*
X11436729Y-16055150D01*
X11436729Y-16055150D02*
X11455777Y-16064674D01*
X11455777Y-16064674D02*
X11465301Y-16083722D01*
X11465301Y-16083722D02*
X11465301Y-16188484D01*
X11465301Y-16083722D02*
X11474824Y-16064674D01*
X11474824Y-16064674D02*
X11493872Y-16055150D01*
X11493872Y-16055150D02*
X11522443Y-16055150D01*
X11522443Y-16055150D02*
X11541491Y-16064674D01*
X11541491Y-16064674D02*
X11551015Y-16083722D01*
X11551015Y-16083722D02*
X11551015Y-16188484D01*
X11941491Y-15978960D02*
X11770063Y-16236103D01*
X12198634Y-15988484D02*
X12217682Y-15988484D01*
X12217682Y-15988484D02*
X12236729Y-15998008D01*
X12236729Y-15998008D02*
X12246253Y-16007531D01*
X12246253Y-16007531D02*
X12255777Y-16026579D01*
X12255777Y-16026579D02*
X12265301Y-16064674D01*
X12265301Y-16064674D02*
X12265301Y-16112293D01*
X12265301Y-16112293D02*
X12255777Y-16150388D01*
X12255777Y-16150388D02*
X12246253Y-16169436D01*
X12246253Y-16169436D02*
X12236729Y-16178960D01*
X12236729Y-16178960D02*
X12217682Y-16188484D01*
X12217682Y-16188484D02*
X12198634Y-16188484D01*
X12198634Y-16188484D02*
X12179586Y-16178960D01*
X12179586Y-16178960D02*
X12170063Y-16169436D01*
X12170063Y-16169436D02*
X12160539Y-16150388D01*
X12160539Y-16150388D02*
X12151015Y-16112293D01*
X12151015Y-16112293D02*
X12151015Y-16064674D01*
X12151015Y-16064674D02*
X12160539Y-16026579D01*
X12160539Y-16026579D02*
X12170063Y-16007531D01*
X12170063Y-16007531D02*
X12179586Y-15998008D01*
X12179586Y-15998008D02*
X12198634Y-15988484D01*
X12351015Y-16169436D02*
X12360539Y-16178960D01*
X12360539Y-16178960D02*
X12351015Y-16188484D01*
X12351015Y-16188484D02*
X12341491Y-16178960D01*
X12341491Y-16178960D02*
X12351015Y-16169436D01*
X12351015Y-16169436D02*
X12351015Y-16188484D01*
X12484348Y-15988484D02*
X12503396Y-15988484D01*
X12503396Y-15988484D02*
X12522444Y-15998008D01*
X12522444Y-15998008D02*
X12531967Y-16007531D01*
X12531967Y-16007531D02*
X12541491Y-16026579D01*
X12541491Y-16026579D02*
X12551015Y-16064674D01*
X12551015Y-16064674D02*
X12551015Y-16112293D01*
X12551015Y-16112293D02*
X12541491Y-16150388D01*
X12541491Y-16150388D02*
X12531967Y-16169436D01*
X12531967Y-16169436D02*
X12522444Y-16178960D01*
X12522444Y-16178960D02*
X12503396Y-16188484D01*
X12503396Y-16188484D02*
X12484348Y-16188484D01*
X12484348Y-16188484D02*
X12465301Y-16178960D01*
X12465301Y-16178960D02*
X12455777Y-16169436D01*
X12455777Y-16169436D02*
X12446253Y-16150388D01*
X12446253Y-16150388D02*
X12436729Y-16112293D01*
X12436729Y-16112293D02*
X12436729Y-16064674D01*
X12436729Y-16064674D02*
X12446253Y-16026579D01*
X12446253Y-16026579D02*
X12455777Y-16007531D01*
X12455777Y-16007531D02*
X12465301Y-15998008D01*
X12465301Y-15998008D02*
X12484348Y-15988484D01*
X12627206Y-16007531D02*
X12636729Y-15998008D01*
X12636729Y-15998008D02*
X12655777Y-15988484D01*
X12655777Y-15988484D02*
X12703396Y-15988484D01*
X12703396Y-15988484D02*
X12722444Y-15998008D01*
X12722444Y-15998008D02*
X12731967Y-16007531D01*
X12731967Y-16007531D02*
X12741491Y-16026579D01*
X12741491Y-16026579D02*
X12741491Y-16045627D01*
X12741491Y-16045627D02*
X12731967Y-16074198D01*
X12731967Y-16074198D02*
X12617682Y-16188484D01*
X12617682Y-16188484D02*
X12741491Y-16188484D01*
X12808158Y-15988484D02*
X12941491Y-15988484D01*
X12941491Y-15988484D02*
X12855777Y-16188484D01*
X13103396Y-15988484D02*
X13065301Y-15988484D01*
X13065301Y-15988484D02*
X13046253Y-15998008D01*
X13046253Y-15998008D02*
X13036729Y-16007531D01*
X13036729Y-16007531D02*
X13017682Y-16036103D01*
X13017682Y-16036103D02*
X13008158Y-16074198D01*
X13008158Y-16074198D02*
X13008158Y-16150388D01*
X13008158Y-16150388D02*
X13017682Y-16169436D01*
X13017682Y-16169436D02*
X13027206Y-16178960D01*
X13027206Y-16178960D02*
X13046253Y-16188484D01*
X13046253Y-16188484D02*
X13084348Y-16188484D01*
X13084348Y-16188484D02*
X13103396Y-16178960D01*
X13103396Y-16178960D02*
X13112920Y-16169436D01*
X13112920Y-16169436D02*
X13122444Y-16150388D01*
X13122444Y-16150388D02*
X13122444Y-16102769D01*
X13122444Y-16102769D02*
X13112920Y-16083722D01*
X13112920Y-16083722D02*
X13103396Y-16074198D01*
X13103396Y-16074198D02*
X13084348Y-16064674D01*
X13084348Y-16064674D02*
X13046253Y-16064674D01*
X13046253Y-16064674D02*
X13027206Y-16074198D01*
X13027206Y-16074198D02*
X13017682Y-16083722D01*
X13017682Y-16083722D02*
X13008158Y-16102769D01*
X13198634Y-15988484D02*
X13198634Y-16026579D01*
X13274825Y-15988484D02*
X13274825Y-16026579D01*
X13570063Y-16264674D02*
X13560539Y-16255150D01*
X13560539Y-16255150D02*
X13541491Y-16226579D01*
X13541491Y-16226579D02*
X13531968Y-16207531D01*
X13531968Y-16207531D02*
X13522444Y-16178960D01*
X13522444Y-16178960D02*
X13512920Y-16131341D01*
X13512920Y-16131341D02*
X13512920Y-16093246D01*
X13512920Y-16093246D02*
X13522444Y-16045627D01*
X13522444Y-16045627D02*
X13531968Y-16017055D01*
X13531968Y-16017055D02*
X13541491Y-15998008D01*
X13541491Y-15998008D02*
X13560539Y-15969436D01*
X13560539Y-15969436D02*
X13570063Y-15959912D01*
X13636729Y-16007531D02*
X13646253Y-15998008D01*
X13646253Y-15998008D02*
X13665301Y-15988484D01*
X13665301Y-15988484D02*
X13712920Y-15988484D01*
X13712920Y-15988484D02*
X13731968Y-15998008D01*
X13731968Y-15998008D02*
X13741491Y-16007531D01*
X13741491Y-16007531D02*
X13751015Y-16026579D01*
X13751015Y-16026579D02*
X13751015Y-16045627D01*
X13751015Y-16045627D02*
X13741491Y-16074198D01*
X13741491Y-16074198D02*
X13627206Y-16188484D01*
X13627206Y-16188484D02*
X13751015Y-16188484D01*
X13989110Y-16188484D02*
X13989110Y-15988484D01*
X14074825Y-16188484D02*
X14074825Y-16083722D01*
X14074825Y-16083722D02*
X14065301Y-16064674D01*
X14065301Y-16064674D02*
X14046253Y-16055150D01*
X14046253Y-16055150D02*
X14017682Y-16055150D01*
X14017682Y-16055150D02*
X13998634Y-16064674D01*
X13998634Y-16064674D02*
X13989110Y-16074198D01*
X14198634Y-16188484D02*
X14179587Y-16178960D01*
X14179587Y-16178960D02*
X14170063Y-16169436D01*
X14170063Y-16169436D02*
X14160539Y-16150388D01*
X14160539Y-16150388D02*
X14160539Y-16093246D01*
X14160539Y-16093246D02*
X14170063Y-16074198D01*
X14170063Y-16074198D02*
X14179587Y-16064674D01*
X14179587Y-16064674D02*
X14198634Y-16055150D01*
X14198634Y-16055150D02*
X14227206Y-16055150D01*
X14227206Y-16055150D02*
X14246253Y-16064674D01*
X14246253Y-16064674D02*
X14255777Y-16074198D01*
X14255777Y-16074198D02*
X14265301Y-16093246D01*
X14265301Y-16093246D02*
X14265301Y-16150388D01*
X14265301Y-16150388D02*
X14255777Y-16169436D01*
X14255777Y-16169436D02*
X14246253Y-16178960D01*
X14246253Y-16178960D02*
X14227206Y-16188484D01*
X14227206Y-16188484D02*
X14198634Y-16188484D01*
X14379587Y-16188484D02*
X14360539Y-16178960D01*
X14360539Y-16178960D02*
X14351015Y-16159912D01*
X14351015Y-16159912D02*
X14351015Y-15988484D01*
X14531968Y-16178960D02*
X14512920Y-16188484D01*
X14512920Y-16188484D02*
X14474825Y-16188484D01*
X14474825Y-16188484D02*
X14455777Y-16178960D01*
X14455777Y-16178960D02*
X14446253Y-16159912D01*
X14446253Y-16159912D02*
X14446253Y-16083722D01*
X14446253Y-16083722D02*
X14455777Y-16064674D01*
X14455777Y-16064674D02*
X14474825Y-16055150D01*
X14474825Y-16055150D02*
X14512920Y-16055150D01*
X14512920Y-16055150D02*
X14531968Y-16064674D01*
X14531968Y-16064674D02*
X14541491Y-16083722D01*
X14541491Y-16083722D02*
X14541491Y-16102769D01*
X14541491Y-16102769D02*
X14446253Y-16121817D01*
X14617682Y-16178960D02*
X14636730Y-16188484D01*
X14636730Y-16188484D02*
X14674825Y-16188484D01*
X14674825Y-16188484D02*
X14693872Y-16178960D01*
X14693872Y-16178960D02*
X14703396Y-16159912D01*
X14703396Y-16159912D02*
X14703396Y-16150388D01*
X14703396Y-16150388D02*
X14693872Y-16131341D01*
X14693872Y-16131341D02*
X14674825Y-16121817D01*
X14674825Y-16121817D02*
X14646253Y-16121817D01*
X14646253Y-16121817D02*
X14627206Y-16112293D01*
X14627206Y-16112293D02*
X14617682Y-16093246D01*
X14617682Y-16093246D02*
X14617682Y-16083722D01*
X14617682Y-16083722D02*
X14627206Y-16064674D01*
X14627206Y-16064674D02*
X14646253Y-16055150D01*
X14646253Y-16055150D02*
X14674825Y-16055150D01*
X14674825Y-16055150D02*
X14693872Y-16064674D01*
X14770063Y-16264674D02*
X14779587Y-16255150D01*
X14779587Y-16255150D02*
X14798634Y-16226579D01*
X14798634Y-16226579D02*
X14808158Y-16207531D01*
X14808158Y-16207531D02*
X14817682Y-16178960D01*
X14817682Y-16178960D02*
X14827206Y-16131341D01*
X14827206Y-16131341D02*
X14827206Y-16093246D01*
X14827206Y-16093246D02*
X14817682Y-16045627D01*
X14817682Y-16045627D02*
X14808158Y-16017055D01*
X14808158Y-16017055D02*
X14798634Y-15998008D01*
X14798634Y-15998008D02*
X14779587Y-15969436D01*
X14779587Y-15969436D02*
X14770063Y-15959912D01*
X15131968Y-16264674D02*
X15122444Y-16255150D01*
X15122444Y-16255150D02*
X15103396Y-16226579D01*
X15103396Y-16226579D02*
X15093872Y-16207531D01*
X15093872Y-16207531D02*
X15084349Y-16178960D01*
X15084349Y-16178960D02*
X15074825Y-16131341D01*
X15074825Y-16131341D02*
X15074825Y-16093246D01*
X15074825Y-16093246D02*
X15084349Y-16045627D01*
X15084349Y-16045627D02*
X15093872Y-16017055D01*
X15093872Y-16017055D02*
X15103396Y-15998008D01*
X15103396Y-15998008D02*
X15122444Y-15969436D01*
X15122444Y-15969436D02*
X15131968Y-15959912D01*
X15208158Y-16055150D02*
X15208158Y-16188484D01*
X15208158Y-16074198D02*
X15217682Y-16064674D01*
X15217682Y-16064674D02*
X15236730Y-16055150D01*
X15236730Y-16055150D02*
X15265301Y-16055150D01*
X15265301Y-16055150D02*
X15284349Y-16064674D01*
X15284349Y-16064674D02*
X15293872Y-16083722D01*
X15293872Y-16083722D02*
X15293872Y-16188484D01*
X15417682Y-16188484D02*
X15398634Y-16178960D01*
X15398634Y-16178960D02*
X15389111Y-16169436D01*
X15389111Y-16169436D02*
X15379587Y-16150388D01*
X15379587Y-16150388D02*
X15379587Y-16093246D01*
X15379587Y-16093246D02*
X15389111Y-16074198D01*
X15389111Y-16074198D02*
X15398634Y-16064674D01*
X15398634Y-16064674D02*
X15417682Y-16055150D01*
X15417682Y-16055150D02*
X15446253Y-16055150D01*
X15446253Y-16055150D02*
X15465301Y-16064674D01*
X15465301Y-16064674D02*
X15474825Y-16074198D01*
X15474825Y-16074198D02*
X15484349Y-16093246D01*
X15484349Y-16093246D02*
X15484349Y-16150388D01*
X15484349Y-16150388D02*
X15474825Y-16169436D01*
X15474825Y-16169436D02*
X15465301Y-16178960D01*
X15465301Y-16178960D02*
X15446253Y-16188484D01*
X15446253Y-16188484D02*
X15417682Y-16188484D01*
X15541492Y-16055150D02*
X15617682Y-16055150D01*
X15570063Y-15988484D02*
X15570063Y-16159912D01*
X15570063Y-16159912D02*
X15579587Y-16178960D01*
X15579587Y-16178960D02*
X15598634Y-16188484D01*
X15598634Y-16188484D02*
X15617682Y-16188484D01*
X15836730Y-16055150D02*
X15836730Y-16255150D01*
X15836730Y-16064674D02*
X15855777Y-16055150D01*
X15855777Y-16055150D02*
X15893873Y-16055150D01*
X15893873Y-16055150D02*
X15912920Y-16064674D01*
X15912920Y-16064674D02*
X15922444Y-16074198D01*
X15922444Y-16074198D02*
X15931968Y-16093246D01*
X15931968Y-16093246D02*
X15931968Y-16150388D01*
X15931968Y-16150388D02*
X15922444Y-16169436D01*
X15922444Y-16169436D02*
X15912920Y-16178960D01*
X15912920Y-16178960D02*
X15893873Y-16188484D01*
X15893873Y-16188484D02*
X15855777Y-16188484D01*
X15855777Y-16188484D02*
X15836730Y-16178960D01*
X16046253Y-16188484D02*
X16027206Y-16178960D01*
X16027206Y-16178960D02*
X16017682Y-16159912D01*
X16017682Y-16159912D02*
X16017682Y-15988484D01*
X16208158Y-16188484D02*
X16208158Y-16083722D01*
X16208158Y-16083722D02*
X16198634Y-16064674D01*
X16198634Y-16064674D02*
X16179587Y-16055150D01*
X16179587Y-16055150D02*
X16141492Y-16055150D01*
X16141492Y-16055150D02*
X16122444Y-16064674D01*
X16208158Y-16178960D02*
X16189111Y-16188484D01*
X16189111Y-16188484D02*
X16141492Y-16188484D01*
X16141492Y-16188484D02*
X16122444Y-16178960D01*
X16122444Y-16178960D02*
X16112920Y-16159912D01*
X16112920Y-16159912D02*
X16112920Y-16140865D01*
X16112920Y-16140865D02*
X16122444Y-16121817D01*
X16122444Y-16121817D02*
X16141492Y-16112293D01*
X16141492Y-16112293D02*
X16189111Y-16112293D01*
X16189111Y-16112293D02*
X16208158Y-16102769D01*
X16274825Y-16055150D02*
X16351015Y-16055150D01*
X16303396Y-15988484D02*
X16303396Y-16159912D01*
X16303396Y-16159912D02*
X16312920Y-16178960D01*
X16312920Y-16178960D02*
X16331968Y-16188484D01*
X16331968Y-16188484D02*
X16351015Y-16188484D01*
X16493873Y-16178960D02*
X16474825Y-16188484D01*
X16474825Y-16188484D02*
X16436730Y-16188484D01*
X16436730Y-16188484D02*
X16417682Y-16178960D01*
X16417682Y-16178960D02*
X16408158Y-16159912D01*
X16408158Y-16159912D02*
X16408158Y-16083722D01*
X16408158Y-16083722D02*
X16417682Y-16064674D01*
X16417682Y-16064674D02*
X16436730Y-16055150D01*
X16436730Y-16055150D02*
X16474825Y-16055150D01*
X16474825Y-16055150D02*
X16493873Y-16064674D01*
X16493873Y-16064674D02*
X16503396Y-16083722D01*
X16503396Y-16083722D02*
X16503396Y-16102769D01*
X16503396Y-16102769D02*
X16408158Y-16121817D01*
X16674825Y-16188484D02*
X16674825Y-15988484D01*
X16674825Y-16178960D02*
X16655777Y-16188484D01*
X16655777Y-16188484D02*
X16617682Y-16188484D01*
X16617682Y-16188484D02*
X16598634Y-16178960D01*
X16598634Y-16178960D02*
X16589111Y-16169436D01*
X16589111Y-16169436D02*
X16579587Y-16150388D01*
X16579587Y-16150388D02*
X16579587Y-16093246D01*
X16579587Y-16093246D02*
X16589111Y-16074198D01*
X16589111Y-16074198D02*
X16598634Y-16064674D01*
X16598634Y-16064674D02*
X16617682Y-16055150D01*
X16617682Y-16055150D02*
X16655777Y-16055150D01*
X16655777Y-16055150D02*
X16674825Y-16064674D01*
X16751015Y-16264674D02*
X16760539Y-16255150D01*
X16760539Y-16255150D02*
X16779587Y-16226579D01*
X16779587Y-16226579D02*
X16789111Y-16207531D01*
X16789111Y-16207531D02*
X16798635Y-16178960D01*
X16798635Y-16178960D02*
X16808158Y-16131341D01*
X16808158Y-16131341D02*
X16808158Y-16093246D01*
X16808158Y-16093246D02*
X16798635Y-16045627D01*
X16798635Y-16045627D02*
X16789111Y-16017055D01*
X16789111Y-16017055D02*
X16779587Y-15998008D01*
X16779587Y-15998008D02*
X16760539Y-15969436D01*
X16760539Y-15969436D02*
X16751015Y-15959912D01*
D10*
X9945000Y-16411000D02*
X9995000Y-16361000D01*
X9945000Y-16311000D01*
X9895000Y-16361000D01*
X9945000Y-16411000D01*
D11*
X10360539Y-16452484D02*
X10246253Y-16452484D01*
X10303396Y-16452484D02*
X10303396Y-16252484D01*
X10303396Y-16252484D02*
X10284348Y-16281055D01*
X10284348Y-16281055D02*
X10265301Y-16300103D01*
X10265301Y-16300103D02*
X10246253Y-16309627D01*
X10446253Y-16433436D02*
X10455777Y-16442960D01*
X10455777Y-16442960D02*
X10446253Y-16452484D01*
X10446253Y-16452484D02*
X10436729Y-16442960D01*
X10436729Y-16442960D02*
X10446253Y-16433436D01*
X10446253Y-16433436D02*
X10446253Y-16452484D01*
X10579586Y-16252484D02*
X10598634Y-16252484D01*
X10598634Y-16252484D02*
X10617682Y-16262008D01*
X10617682Y-16262008D02*
X10627205Y-16271531D01*
X10627205Y-16271531D02*
X10636729Y-16290579D01*
X10636729Y-16290579D02*
X10646253Y-16328674D01*
X10646253Y-16328674D02*
X10646253Y-16376293D01*
X10646253Y-16376293D02*
X10636729Y-16414388D01*
X10636729Y-16414388D02*
X10627205Y-16433436D01*
X10627205Y-16433436D02*
X10617682Y-16442960D01*
X10617682Y-16442960D02*
X10598634Y-16452484D01*
X10598634Y-16452484D02*
X10579586Y-16452484D01*
X10579586Y-16452484D02*
X10560539Y-16442960D01*
X10560539Y-16442960D02*
X10551015Y-16433436D01*
X10551015Y-16433436D02*
X10541491Y-16414388D01*
X10541491Y-16414388D02*
X10531967Y-16376293D01*
X10531967Y-16376293D02*
X10531967Y-16328674D01*
X10531967Y-16328674D02*
X10541491Y-16290579D01*
X10541491Y-16290579D02*
X10551015Y-16271531D01*
X10551015Y-16271531D02*
X10560539Y-16262008D01*
X10560539Y-16262008D02*
X10579586Y-16252484D01*
X10770063Y-16252484D02*
X10789110Y-16252484D01*
X10789110Y-16252484D02*
X10808158Y-16262008D01*
X10808158Y-16262008D02*
X10817682Y-16271531D01*
X10817682Y-16271531D02*
X10827205Y-16290579D01*
X10827205Y-16290579D02*
X10836729Y-16328674D01*
X10836729Y-16328674D02*
X10836729Y-16376293D01*
X10836729Y-16376293D02*
X10827205Y-16414388D01*
X10827205Y-16414388D02*
X10817682Y-16433436D01*
X10817682Y-16433436D02*
X10808158Y-16442960D01*
X10808158Y-16442960D02*
X10789110Y-16452484D01*
X10789110Y-16452484D02*
X10770063Y-16452484D01*
X10770063Y-16452484D02*
X10751015Y-16442960D01*
X10751015Y-16442960D02*
X10741491Y-16433436D01*
X10741491Y-16433436D02*
X10731967Y-16414388D01*
X10731967Y-16414388D02*
X10722444Y-16376293D01*
X10722444Y-16376293D02*
X10722444Y-16328674D01*
X10722444Y-16328674D02*
X10731967Y-16290579D01*
X10731967Y-16290579D02*
X10741491Y-16271531D01*
X10741491Y-16271531D02*
X10751015Y-16262008D01*
X10751015Y-16262008D02*
X10770063Y-16252484D01*
X10960539Y-16252484D02*
X10979586Y-16252484D01*
X10979586Y-16252484D02*
X10998634Y-16262008D01*
X10998634Y-16262008D02*
X11008158Y-16271531D01*
X11008158Y-16271531D02*
X11017682Y-16290579D01*
X11017682Y-16290579D02*
X11027205Y-16328674D01*
X11027205Y-16328674D02*
X11027205Y-16376293D01*
X11027205Y-16376293D02*
X11017682Y-16414388D01*
X11017682Y-16414388D02*
X11008158Y-16433436D01*
X11008158Y-16433436D02*
X10998634Y-16442960D01*
X10998634Y-16442960D02*
X10979586Y-16452484D01*
X10979586Y-16452484D02*
X10960539Y-16452484D01*
X10960539Y-16452484D02*
X10941491Y-16442960D01*
X10941491Y-16442960D02*
X10931967Y-16433436D01*
X10931967Y-16433436D02*
X10922444Y-16414388D01*
X10922444Y-16414388D02*
X10912920Y-16376293D01*
X10912920Y-16376293D02*
X10912920Y-16328674D01*
X10912920Y-16328674D02*
X10922444Y-16290579D01*
X10922444Y-16290579D02*
X10931967Y-16271531D01*
X10931967Y-16271531D02*
X10941491Y-16262008D01*
X10941491Y-16262008D02*
X10960539Y-16252484D01*
X11112920Y-16452484D02*
X11112920Y-16319150D01*
X11112920Y-16338198D02*
X11122444Y-16328674D01*
X11122444Y-16328674D02*
X11141491Y-16319150D01*
X11141491Y-16319150D02*
X11170063Y-16319150D01*
X11170063Y-16319150D02*
X11189110Y-16328674D01*
X11189110Y-16328674D02*
X11198634Y-16347722D01*
X11198634Y-16347722D02*
X11198634Y-16452484D01*
X11198634Y-16347722D02*
X11208158Y-16328674D01*
X11208158Y-16328674D02*
X11227205Y-16319150D01*
X11227205Y-16319150D02*
X11255777Y-16319150D01*
X11255777Y-16319150D02*
X11274824Y-16328674D01*
X11274824Y-16328674D02*
X11284348Y-16347722D01*
X11284348Y-16347722D02*
X11284348Y-16452484D01*
X11379586Y-16452484D02*
X11379586Y-16319150D01*
X11379586Y-16338198D02*
X11389110Y-16328674D01*
X11389110Y-16328674D02*
X11408158Y-16319150D01*
X11408158Y-16319150D02*
X11436729Y-16319150D01*
X11436729Y-16319150D02*
X11455777Y-16328674D01*
X11455777Y-16328674D02*
X11465301Y-16347722D01*
X11465301Y-16347722D02*
X11465301Y-16452484D01*
X11465301Y-16347722D02*
X11474824Y-16328674D01*
X11474824Y-16328674D02*
X11493872Y-16319150D01*
X11493872Y-16319150D02*
X11522443Y-16319150D01*
X11522443Y-16319150D02*
X11541491Y-16328674D01*
X11541491Y-16328674D02*
X11551015Y-16347722D01*
X11551015Y-16347722D02*
X11551015Y-16452484D01*
X11941491Y-16242960D02*
X11770063Y-16500103D01*
X12198634Y-16252484D02*
X12217682Y-16252484D01*
X12217682Y-16252484D02*
X12236729Y-16262008D01*
X12236729Y-16262008D02*
X12246253Y-16271531D01*
X12246253Y-16271531D02*
X12255777Y-16290579D01*
X12255777Y-16290579D02*
X12265301Y-16328674D01*
X12265301Y-16328674D02*
X12265301Y-16376293D01*
X12265301Y-16376293D02*
X12255777Y-16414388D01*
X12255777Y-16414388D02*
X12246253Y-16433436D01*
X12246253Y-16433436D02*
X12236729Y-16442960D01*
X12236729Y-16442960D02*
X12217682Y-16452484D01*
X12217682Y-16452484D02*
X12198634Y-16452484D01*
X12198634Y-16452484D02*
X12179586Y-16442960D01*
X12179586Y-16442960D02*
X12170063Y-16433436D01*
X12170063Y-16433436D02*
X12160539Y-16414388D01*
X12160539Y-16414388D02*
X12151015Y-16376293D01*
X12151015Y-16376293D02*
X12151015Y-16328674D01*
X12151015Y-16328674D02*
X12160539Y-16290579D01*
X12160539Y-16290579D02*
X12170063Y-16271531D01*
X12170063Y-16271531D02*
X12179586Y-16262008D01*
X12179586Y-16262008D02*
X12198634Y-16252484D01*
X12351015Y-16433436D02*
X12360539Y-16442960D01*
X12360539Y-16442960D02*
X12351015Y-16452484D01*
X12351015Y-16452484D02*
X12341491Y-16442960D01*
X12341491Y-16442960D02*
X12351015Y-16433436D01*
X12351015Y-16433436D02*
X12351015Y-16452484D01*
X12484348Y-16252484D02*
X12503396Y-16252484D01*
X12503396Y-16252484D02*
X12522444Y-16262008D01*
X12522444Y-16262008D02*
X12531967Y-16271531D01*
X12531967Y-16271531D02*
X12541491Y-16290579D01*
X12541491Y-16290579D02*
X12551015Y-16328674D01*
X12551015Y-16328674D02*
X12551015Y-16376293D01*
X12551015Y-16376293D02*
X12541491Y-16414388D01*
X12541491Y-16414388D02*
X12531967Y-16433436D01*
X12531967Y-16433436D02*
X12522444Y-16442960D01*
X12522444Y-16442960D02*
X12503396Y-16452484D01*
X12503396Y-16452484D02*
X12484348Y-16452484D01*
X12484348Y-16452484D02*
X12465301Y-16442960D01*
X12465301Y-16442960D02*
X12455777Y-16433436D01*
X12455777Y-16433436D02*
X12446253Y-16414388D01*
X12446253Y-16414388D02*
X12436729Y-16376293D01*
X12436729Y-16376293D02*
X12436729Y-16328674D01*
X12436729Y-16328674D02*
X12446253Y-16290579D01*
X12446253Y-16290579D02*
X12455777Y-16271531D01*
X12455777Y-16271531D02*
X12465301Y-16262008D01*
X12465301Y-16262008D02*
X12484348Y-16252484D01*
X12617682Y-16252484D02*
X12741491Y-16252484D01*
X12741491Y-16252484D02*
X12674825Y-16328674D01*
X12674825Y-16328674D02*
X12703396Y-16328674D01*
X12703396Y-16328674D02*
X12722444Y-16338198D01*
X12722444Y-16338198D02*
X12731967Y-16347722D01*
X12731967Y-16347722D02*
X12741491Y-16366769D01*
X12741491Y-16366769D02*
X12741491Y-16414388D01*
X12741491Y-16414388D02*
X12731967Y-16433436D01*
X12731967Y-16433436D02*
X12722444Y-16442960D01*
X12722444Y-16442960D02*
X12703396Y-16452484D01*
X12703396Y-16452484D02*
X12646253Y-16452484D01*
X12646253Y-16452484D02*
X12627206Y-16442960D01*
X12627206Y-16442960D02*
X12617682Y-16433436D01*
X12836729Y-16452484D02*
X12874825Y-16452484D01*
X12874825Y-16452484D02*
X12893872Y-16442960D01*
X12893872Y-16442960D02*
X12903396Y-16433436D01*
X12903396Y-16433436D02*
X12922444Y-16404865D01*
X12922444Y-16404865D02*
X12931967Y-16366769D01*
X12931967Y-16366769D02*
X12931967Y-16290579D01*
X12931967Y-16290579D02*
X12922444Y-16271531D01*
X12922444Y-16271531D02*
X12912920Y-16262008D01*
X12912920Y-16262008D02*
X12893872Y-16252484D01*
X12893872Y-16252484D02*
X12855777Y-16252484D01*
X12855777Y-16252484D02*
X12836729Y-16262008D01*
X12836729Y-16262008D02*
X12827206Y-16271531D01*
X12827206Y-16271531D02*
X12817682Y-16290579D01*
X12817682Y-16290579D02*
X12817682Y-16338198D01*
X12817682Y-16338198D02*
X12827206Y-16357246D01*
X12827206Y-16357246D02*
X12836729Y-16366769D01*
X12836729Y-16366769D02*
X12855777Y-16376293D01*
X12855777Y-16376293D02*
X12893872Y-16376293D01*
X12893872Y-16376293D02*
X12912920Y-16366769D01*
X12912920Y-16366769D02*
X12922444Y-16357246D01*
X12922444Y-16357246D02*
X12931967Y-16338198D01*
X13103396Y-16319150D02*
X13103396Y-16452484D01*
X13055777Y-16242960D02*
X13008158Y-16385817D01*
X13008158Y-16385817D02*
X13131967Y-16385817D01*
X13198634Y-16252484D02*
X13198634Y-16290579D01*
X13274825Y-16252484D02*
X13274825Y-16290579D01*
X13570063Y-16528674D02*
X13560539Y-16519150D01*
X13560539Y-16519150D02*
X13541491Y-16490579D01*
X13541491Y-16490579D02*
X13531968Y-16471531D01*
X13531968Y-16471531D02*
X13522444Y-16442960D01*
X13522444Y-16442960D02*
X13512920Y-16395341D01*
X13512920Y-16395341D02*
X13512920Y-16357246D01*
X13512920Y-16357246D02*
X13522444Y-16309627D01*
X13522444Y-16309627D02*
X13531968Y-16281055D01*
X13531968Y-16281055D02*
X13541491Y-16262008D01*
X13541491Y-16262008D02*
X13560539Y-16233436D01*
X13560539Y-16233436D02*
X13570063Y-16223912D01*
X13636729Y-16271531D02*
X13646253Y-16262008D01*
X13646253Y-16262008D02*
X13665301Y-16252484D01*
X13665301Y-16252484D02*
X13712920Y-16252484D01*
X13712920Y-16252484D02*
X13731968Y-16262008D01*
X13731968Y-16262008D02*
X13741491Y-16271531D01*
X13741491Y-16271531D02*
X13751015Y-16290579D01*
X13751015Y-16290579D02*
X13751015Y-16309627D01*
X13751015Y-16309627D02*
X13741491Y-16338198D01*
X13741491Y-16338198D02*
X13627206Y-16452484D01*
X13627206Y-16452484D02*
X13751015Y-16452484D01*
X13989110Y-16452484D02*
X13989110Y-16252484D01*
X14074825Y-16452484D02*
X14074825Y-16347722D01*
X14074825Y-16347722D02*
X14065301Y-16328674D01*
X14065301Y-16328674D02*
X14046253Y-16319150D01*
X14046253Y-16319150D02*
X14017682Y-16319150D01*
X14017682Y-16319150D02*
X13998634Y-16328674D01*
X13998634Y-16328674D02*
X13989110Y-16338198D01*
X14198634Y-16452484D02*
X14179587Y-16442960D01*
X14179587Y-16442960D02*
X14170063Y-16433436D01*
X14170063Y-16433436D02*
X14160539Y-16414388D01*
X14160539Y-16414388D02*
X14160539Y-16357246D01*
X14160539Y-16357246D02*
X14170063Y-16338198D01*
X14170063Y-16338198D02*
X14179587Y-16328674D01*
X14179587Y-16328674D02*
X14198634Y-16319150D01*
X14198634Y-16319150D02*
X14227206Y-16319150D01*
X14227206Y-16319150D02*
X14246253Y-16328674D01*
X14246253Y-16328674D02*
X14255777Y-16338198D01*
X14255777Y-16338198D02*
X14265301Y-16357246D01*
X14265301Y-16357246D02*
X14265301Y-16414388D01*
X14265301Y-16414388D02*
X14255777Y-16433436D01*
X14255777Y-16433436D02*
X14246253Y-16442960D01*
X14246253Y-16442960D02*
X14227206Y-16452484D01*
X14227206Y-16452484D02*
X14198634Y-16452484D01*
X14379587Y-16452484D02*
X14360539Y-16442960D01*
X14360539Y-16442960D02*
X14351015Y-16423912D01*
X14351015Y-16423912D02*
X14351015Y-16252484D01*
X14531968Y-16442960D02*
X14512920Y-16452484D01*
X14512920Y-16452484D02*
X14474825Y-16452484D01*
X14474825Y-16452484D02*
X14455777Y-16442960D01*
X14455777Y-16442960D02*
X14446253Y-16423912D01*
X14446253Y-16423912D02*
X14446253Y-16347722D01*
X14446253Y-16347722D02*
X14455777Y-16328674D01*
X14455777Y-16328674D02*
X14474825Y-16319150D01*
X14474825Y-16319150D02*
X14512920Y-16319150D01*
X14512920Y-16319150D02*
X14531968Y-16328674D01*
X14531968Y-16328674D02*
X14541491Y-16347722D01*
X14541491Y-16347722D02*
X14541491Y-16366769D01*
X14541491Y-16366769D02*
X14446253Y-16385817D01*
X14617682Y-16442960D02*
X14636730Y-16452484D01*
X14636730Y-16452484D02*
X14674825Y-16452484D01*
X14674825Y-16452484D02*
X14693872Y-16442960D01*
X14693872Y-16442960D02*
X14703396Y-16423912D01*
X14703396Y-16423912D02*
X14703396Y-16414388D01*
X14703396Y-16414388D02*
X14693872Y-16395341D01*
X14693872Y-16395341D02*
X14674825Y-16385817D01*
X14674825Y-16385817D02*
X14646253Y-16385817D01*
X14646253Y-16385817D02*
X14627206Y-16376293D01*
X14627206Y-16376293D02*
X14617682Y-16357246D01*
X14617682Y-16357246D02*
X14617682Y-16347722D01*
X14617682Y-16347722D02*
X14627206Y-16328674D01*
X14627206Y-16328674D02*
X14646253Y-16319150D01*
X14646253Y-16319150D02*
X14674825Y-16319150D01*
X14674825Y-16319150D02*
X14693872Y-16328674D01*
X14770063Y-16528674D02*
X14779587Y-16519150D01*
X14779587Y-16519150D02*
X14798634Y-16490579D01*
X14798634Y-16490579D02*
X14808158Y-16471531D01*
X14808158Y-16471531D02*
X14817682Y-16442960D01*
X14817682Y-16442960D02*
X14827206Y-16395341D01*
X14827206Y-16395341D02*
X14827206Y-16357246D01*
X14827206Y-16357246D02*
X14817682Y-16309627D01*
X14817682Y-16309627D02*
X14808158Y-16281055D01*
X14808158Y-16281055D02*
X14798634Y-16262008D01*
X14798634Y-16262008D02*
X14779587Y-16233436D01*
X14779587Y-16233436D02*
X14770063Y-16223912D01*
X15131968Y-16528674D02*
X15122444Y-16519150D01*
X15122444Y-16519150D02*
X15103396Y-16490579D01*
X15103396Y-16490579D02*
X15093872Y-16471531D01*
X15093872Y-16471531D02*
X15084349Y-16442960D01*
X15084349Y-16442960D02*
X15074825Y-16395341D01*
X15074825Y-16395341D02*
X15074825Y-16357246D01*
X15074825Y-16357246D02*
X15084349Y-16309627D01*
X15084349Y-16309627D02*
X15093872Y-16281055D01*
X15093872Y-16281055D02*
X15103396Y-16262008D01*
X15103396Y-16262008D02*
X15122444Y-16233436D01*
X15122444Y-16233436D02*
X15131968Y-16223912D01*
X15208158Y-16319150D02*
X15208158Y-16452484D01*
X15208158Y-16338198D02*
X15217682Y-16328674D01*
X15217682Y-16328674D02*
X15236730Y-16319150D01*
X15236730Y-16319150D02*
X15265301Y-16319150D01*
X15265301Y-16319150D02*
X15284349Y-16328674D01*
X15284349Y-16328674D02*
X15293872Y-16347722D01*
X15293872Y-16347722D02*
X15293872Y-16452484D01*
X15417682Y-16452484D02*
X15398634Y-16442960D01*
X15398634Y-16442960D02*
X15389111Y-16433436D01*
X15389111Y-16433436D02*
X15379587Y-16414388D01*
X15379587Y-16414388D02*
X15379587Y-16357246D01*
X15379587Y-16357246D02*
X15389111Y-16338198D01*
X15389111Y-16338198D02*
X15398634Y-16328674D01*
X15398634Y-16328674D02*
X15417682Y-16319150D01*
X15417682Y-16319150D02*
X15446253Y-16319150D01*
X15446253Y-16319150D02*
X15465301Y-16328674D01*
X15465301Y-16328674D02*
X15474825Y-16338198D01*
X15474825Y-16338198D02*
X15484349Y-16357246D01*
X15484349Y-16357246D02*
X15484349Y-16414388D01*
X15484349Y-16414388D02*
X15474825Y-16433436D01*
X15474825Y-16433436D02*
X15465301Y-16442960D01*
X15465301Y-16442960D02*
X15446253Y-16452484D01*
X15446253Y-16452484D02*
X15417682Y-16452484D01*
X15541492Y-16319150D02*
X15617682Y-16319150D01*
X15570063Y-16252484D02*
X15570063Y-16423912D01*
X15570063Y-16423912D02*
X15579587Y-16442960D01*
X15579587Y-16442960D02*
X15598634Y-16452484D01*
X15598634Y-16452484D02*
X15617682Y-16452484D01*
X15836730Y-16319150D02*
X15836730Y-16519150D01*
X15836730Y-16328674D02*
X15855777Y-16319150D01*
X15855777Y-16319150D02*
X15893873Y-16319150D01*
X15893873Y-16319150D02*
X15912920Y-16328674D01*
X15912920Y-16328674D02*
X15922444Y-16338198D01*
X15922444Y-16338198D02*
X15931968Y-16357246D01*
X15931968Y-16357246D02*
X15931968Y-16414388D01*
X15931968Y-16414388D02*
X15922444Y-16433436D01*
X15922444Y-16433436D02*
X15912920Y-16442960D01*
X15912920Y-16442960D02*
X15893873Y-16452484D01*
X15893873Y-16452484D02*
X15855777Y-16452484D01*
X15855777Y-16452484D02*
X15836730Y-16442960D01*
X16046253Y-16452484D02*
X16027206Y-16442960D01*
X16027206Y-16442960D02*
X16017682Y-16423912D01*
X16017682Y-16423912D02*
X16017682Y-16252484D01*
X16208158Y-16452484D02*
X16208158Y-16347722D01*
X16208158Y-16347722D02*
X16198634Y-16328674D01*
X16198634Y-16328674D02*
X16179587Y-16319150D01*
X16179587Y-16319150D02*
X16141492Y-16319150D01*
X16141492Y-16319150D02*
X16122444Y-16328674D01*
X16208158Y-16442960D02*
X16189111Y-16452484D01*
X16189111Y-16452484D02*
X16141492Y-16452484D01*
X16141492Y-16452484D02*
X16122444Y-16442960D01*
X16122444Y-16442960D02*
X16112920Y-16423912D01*
X16112920Y-16423912D02*
X16112920Y-16404865D01*
X16112920Y-16404865D02*
X16122444Y-16385817D01*
X16122444Y-16385817D02*
X16141492Y-16376293D01*
X16141492Y-16376293D02*
X16189111Y-16376293D01*
X16189111Y-16376293D02*
X16208158Y-16366769D01*
X16274825Y-16319150D02*
X16351015Y-16319150D01*
X16303396Y-16252484D02*
X16303396Y-16423912D01*
X16303396Y-16423912D02*
X16312920Y-16442960D01*
X16312920Y-16442960D02*
X16331968Y-16452484D01*
X16331968Y-16452484D02*
X16351015Y-16452484D01*
X16493873Y-16442960D02*
X16474825Y-16452484D01*
X16474825Y-16452484D02*
X16436730Y-16452484D01*
X16436730Y-16452484D02*
X16417682Y-16442960D01*
X16417682Y-16442960D02*
X16408158Y-16423912D01*
X16408158Y-16423912D02*
X16408158Y-16347722D01*
X16408158Y-16347722D02*
X16417682Y-16328674D01*
X16417682Y-16328674D02*
X16436730Y-16319150D01*
X16436730Y-16319150D02*
X16474825Y-16319150D01*
X16474825Y-16319150D02*
X16493873Y-16328674D01*
X16493873Y-16328674D02*
X16503396Y-16347722D01*
X16503396Y-16347722D02*
X16503396Y-16366769D01*
X16503396Y-16366769D02*
X16408158Y-16385817D01*
X16674825Y-16452484D02*
X16674825Y-16252484D01*
X16674825Y-16442960D02*
X16655777Y-16452484D01*
X16655777Y-16452484D02*
X16617682Y-16452484D01*
X16617682Y-16452484D02*
X16598634Y-16442960D01*
X16598634Y-16442960D02*
X16589111Y-16433436D01*
X16589111Y-16433436D02*
X16579587Y-16414388D01*
X16579587Y-16414388D02*
X16579587Y-16357246D01*
X16579587Y-16357246D02*
X16589111Y-16338198D01*
X16589111Y-16338198D02*
X16598634Y-16328674D01*
X16598634Y-16328674D02*
X16617682Y-16319150D01*
X16617682Y-16319150D02*
X16655777Y-16319150D01*
X16655777Y-16319150D02*
X16674825Y-16328674D01*
X16751015Y-16528674D02*
X16760539Y-16519150D01*
X16760539Y-16519150D02*
X16779587Y-16490579D01*
X16779587Y-16490579D02*
X16789111Y-16471531D01*
X16789111Y-16471531D02*
X16798635Y-16442960D01*
X16798635Y-16442960D02*
X16808158Y-16395341D01*
X16808158Y-16395341D02*
X16808158Y-16357246D01*
X16808158Y-16357246D02*
X16798635Y-16309627D01*
X16798635Y-16309627D02*
X16789111Y-16281055D01*
X16789111Y-16281055D02*
X16779587Y-16262008D01*
X16779587Y-16262008D02*
X16760539Y-16233436D01*
X16760539Y-16233436D02*
X16751015Y-16223912D01*
M02*
