%TF.GenerationSoftware,KiCad,Pcbnew,9.0.8+dfsg-1*%
%TF.CreationDate,2026-10-05T18:06:22+01:00*%
%TF.ProjectId,NAVCORE-SoOP,4e415643-4f52-4452-9d53-6f4f502e6b69,rev?*%
%TF.SameCoordinates,Original*%
%TF.FileFunction,Legend,Bot*%
%TF.FilePolarity,Positive*%
%FSLAX46Y46*%
G04 Gerber Fmt 4.6, Leading zero omitted, Abs format (unit mm)*
G04 Created by KiCad (PCBNEW 9.0.8+dfsg-1) date 2026-10-05 18:06:22*
%MOMM*%
%LPD*%
G01*
G04 APERTURE LIST*
%ADD10C,0.150000*%
%ADD11C,0.120000*%
%ADD12C,0.254001*%
%ADD13C,0.152400*%
%ADD14C,0.150013*%
%ADD15C,0.300000*%
%ADD16C,0.200000*%
%ADD17C,0.100000*%
%ADD18C,0.151994*%
G04 APERTURE END LIST*
D10*
X109033332Y-100804819D02*
X109033332Y-99804819D01*
X107985714Y-100804819D02*
X108319047Y-100328628D01*
X108557142Y-100804819D02*
X108557142Y-99804819D01*
X108557142Y-99804819D02*
X108176190Y-99804819D01*
X108176190Y-99804819D02*
X108080952Y-99852438D01*
X108080952Y-99852438D02*
X108033333Y-99900057D01*
X108033333Y-99900057D02*
X107985714Y-99995295D01*
X107985714Y-99995295D02*
X107985714Y-100138152D01*
X107985714Y-100138152D02*
X108033333Y-100233390D01*
X108033333Y-100233390D02*
X108080952Y-100281009D01*
X108080952Y-100281009D02*
X108176190Y-100328628D01*
X108176190Y-100328628D02*
X108557142Y-100328628D01*
X107557142Y-100804819D02*
X107557142Y-99804819D01*
X107080952Y-100804819D02*
X107080952Y-99804819D01*
X107080952Y-99804819D02*
X106842857Y-99804819D01*
X106842857Y-99804819D02*
X106700000Y-99852438D01*
X106700000Y-99852438D02*
X106604762Y-99947676D01*
X106604762Y-99947676D02*
X106557143Y-100042914D01*
X106557143Y-100042914D02*
X106509524Y-100233390D01*
X106509524Y-100233390D02*
X106509524Y-100376247D01*
X106509524Y-100376247D02*
X106557143Y-100566723D01*
X106557143Y-100566723D02*
X106604762Y-100661961D01*
X106604762Y-100661961D02*
X106700000Y-100757200D01*
X106700000Y-100757200D02*
X106842857Y-100804819D01*
X106842857Y-100804819D02*
X107080952Y-100804819D01*
X106080952Y-100804819D02*
X106080952Y-99804819D01*
X105604762Y-99804819D02*
X105604762Y-100614342D01*
X105604762Y-100614342D02*
X105557143Y-100709580D01*
X105557143Y-100709580D02*
X105509524Y-100757200D01*
X105509524Y-100757200D02*
X105414286Y-100804819D01*
X105414286Y-100804819D02*
X105223810Y-100804819D01*
X105223810Y-100804819D02*
X105128572Y-100757200D01*
X105128572Y-100757200D02*
X105080953Y-100709580D01*
X105080953Y-100709580D02*
X105033334Y-100614342D01*
X105033334Y-100614342D02*
X105033334Y-99804819D01*
X104557143Y-100804819D02*
X104557143Y-99804819D01*
X104557143Y-99804819D02*
X104223810Y-100519104D01*
X104223810Y-100519104D02*
X103890477Y-99804819D01*
X103890477Y-99804819D02*
X103890477Y-100804819D01*
X102652381Y-100804819D02*
X102652381Y-99804819D01*
X102652381Y-99804819D02*
X102080953Y-100804819D01*
X102080953Y-100804819D02*
X102080953Y-99804819D01*
X101652381Y-100519104D02*
X101176191Y-100519104D01*
X101747619Y-100804819D02*
X101414286Y-99804819D01*
X101414286Y-99804819D02*
X101080953Y-100804819D01*
X100890476Y-99804819D02*
X100557143Y-100804819D01*
X100557143Y-100804819D02*
X100223810Y-99804819D01*
X112371189Y-100779819D02*
X112371189Y-99779819D01*
X111942618Y-99875057D02*
X111894999Y-99827438D01*
X111894999Y-99827438D02*
X111799761Y-99779819D01*
X111799761Y-99779819D02*
X111561666Y-99779819D01*
X111561666Y-99779819D02*
X111466428Y-99827438D01*
X111466428Y-99827438D02*
X111418809Y-99875057D01*
X111418809Y-99875057D02*
X111371190Y-99970295D01*
X111371190Y-99970295D02*
X111371190Y-100065533D01*
X111371190Y-100065533D02*
X111418809Y-100208390D01*
X111418809Y-100208390D02*
X111990237Y-100779819D01*
X111990237Y-100779819D02*
X111371190Y-100779819D01*
X110371190Y-100684580D02*
X110418809Y-100732200D01*
X110418809Y-100732200D02*
X110561666Y-100779819D01*
X110561666Y-100779819D02*
X110656904Y-100779819D01*
X110656904Y-100779819D02*
X110799761Y-100732200D01*
X110799761Y-100732200D02*
X110894999Y-100636961D01*
X110894999Y-100636961D02*
X110942618Y-100541723D01*
X110942618Y-100541723D02*
X110990237Y-100351247D01*
X110990237Y-100351247D02*
X110990237Y-100208390D01*
X110990237Y-100208390D02*
X110942618Y-100017914D01*
X110942618Y-100017914D02*
X110894999Y-99922676D01*
X110894999Y-99922676D02*
X110799761Y-99827438D01*
X110799761Y-99827438D02*
X110656904Y-99779819D01*
X110656904Y-99779819D02*
X110561666Y-99779819D01*
X110561666Y-99779819D02*
X110418809Y-99827438D01*
X110418809Y-99827438D02*
X110371190Y-99875057D01*
X138466428Y-143999819D02*
X138466428Y-144809342D01*
X138466428Y-144809342D02*
X138418809Y-144904580D01*
X138418809Y-144904580D02*
X138371190Y-144952200D01*
X138371190Y-144952200D02*
X138275952Y-144999819D01*
X138275952Y-144999819D02*
X138085476Y-144999819D01*
X138085476Y-144999819D02*
X137990238Y-144952200D01*
X137990238Y-144952200D02*
X137942619Y-144904580D01*
X137942619Y-144904580D02*
X137895000Y-144809342D01*
X137895000Y-144809342D02*
X137895000Y-143999819D01*
X137466428Y-144714104D02*
X136990238Y-144714104D01*
X137561666Y-144999819D02*
X137228333Y-143999819D01*
X137228333Y-143999819D02*
X136895000Y-144999819D01*
X135990238Y-144999819D02*
X136323571Y-144523628D01*
X136561666Y-144999819D02*
X136561666Y-143999819D01*
X136561666Y-143999819D02*
X136180714Y-143999819D01*
X136180714Y-143999819D02*
X136085476Y-144047438D01*
X136085476Y-144047438D02*
X136037857Y-144095057D01*
X136037857Y-144095057D02*
X135990238Y-144190295D01*
X135990238Y-144190295D02*
X135990238Y-144333152D01*
X135990238Y-144333152D02*
X136037857Y-144428390D01*
X136037857Y-144428390D02*
X136085476Y-144476009D01*
X136085476Y-144476009D02*
X136180714Y-144523628D01*
X136180714Y-144523628D02*
X136561666Y-144523628D01*
X135704523Y-143999819D02*
X135133095Y-143999819D01*
X135418809Y-144999819D02*
X135418809Y-143999819D01*
X134847380Y-144095057D02*
X134799761Y-144047438D01*
X134799761Y-144047438D02*
X134704523Y-143999819D01*
X134704523Y-143999819D02*
X134466428Y-143999819D01*
X134466428Y-143999819D02*
X134371190Y-144047438D01*
X134371190Y-144047438D02*
X134323571Y-144095057D01*
X134323571Y-144095057D02*
X134275952Y-144190295D01*
X134275952Y-144190295D02*
X134275952Y-144285533D01*
X134275952Y-144285533D02*
X134323571Y-144428390D01*
X134323571Y-144428390D02*
X134894999Y-144999819D01*
X134894999Y-144999819D02*
X134275952Y-144999819D01*
X100654819Y-131969048D02*
X99654819Y-131969048D01*
X100654819Y-132540476D02*
X100083390Y-132111905D01*
X99654819Y-132540476D02*
X100226247Y-131969048D01*
X100654819Y-133540476D02*
X100178628Y-133207143D01*
X100654819Y-132969048D02*
X99654819Y-132969048D01*
X99654819Y-132969048D02*
X99654819Y-133350000D01*
X99654819Y-133350000D02*
X99702438Y-133445238D01*
X99702438Y-133445238D02*
X99750057Y-133492857D01*
X99750057Y-133492857D02*
X99845295Y-133540476D01*
X99845295Y-133540476D02*
X99988152Y-133540476D01*
X99988152Y-133540476D02*
X100083390Y-133492857D01*
X100083390Y-133492857D02*
X100131009Y-133445238D01*
X100131009Y-133445238D02*
X100178628Y-133350000D01*
X100178628Y-133350000D02*
X100178628Y-132969048D01*
X100178628Y-134159524D02*
X100654819Y-134159524D01*
X99654819Y-133826191D02*
X100178628Y-134159524D01*
X100178628Y-134159524D02*
X99654819Y-134492857D01*
X100607200Y-134778572D02*
X100654819Y-134921429D01*
X100654819Y-134921429D02*
X100654819Y-135159524D01*
X100654819Y-135159524D02*
X100607200Y-135254762D01*
X100607200Y-135254762D02*
X100559580Y-135302381D01*
X100559580Y-135302381D02*
X100464342Y-135350000D01*
X100464342Y-135350000D02*
X100369104Y-135350000D01*
X100369104Y-135350000D02*
X100273866Y-135302381D01*
X100273866Y-135302381D02*
X100226247Y-135254762D01*
X100226247Y-135254762D02*
X100178628Y-135159524D01*
X100178628Y-135159524D02*
X100131009Y-134969048D01*
X100131009Y-134969048D02*
X100083390Y-134873810D01*
X100083390Y-134873810D02*
X100035771Y-134826191D01*
X100035771Y-134826191D02*
X99940533Y-134778572D01*
X99940533Y-134778572D02*
X99845295Y-134778572D01*
X99845295Y-134778572D02*
X99750057Y-134826191D01*
X99750057Y-134826191D02*
X99702438Y-134873810D01*
X99702438Y-134873810D02*
X99654819Y-134969048D01*
X99654819Y-134969048D02*
X99654819Y-135207143D01*
X99654819Y-135207143D02*
X99702438Y-135350000D01*
X99654819Y-135635715D02*
X99654819Y-136207143D01*
X100654819Y-135921429D02*
X99654819Y-135921429D01*
X100654819Y-136540477D02*
X99654819Y-136540477D01*
X100369104Y-136969048D02*
X100369104Y-137445238D01*
X100654819Y-136873810D02*
X99654819Y-137207143D01*
X99654819Y-137207143D02*
X100654819Y-137540476D01*
X100654819Y-137873810D02*
X99654819Y-137873810D01*
X99654819Y-137873810D02*
X100654819Y-138445238D01*
X100654819Y-138445238D02*
X99654819Y-138445238D01*
X100131009Y-140016667D02*
X100131009Y-139683334D01*
X100654819Y-139683334D02*
X99654819Y-139683334D01*
X99654819Y-139683334D02*
X99654819Y-140159524D01*
X100654819Y-140540477D02*
X99654819Y-140540477D01*
X100654819Y-141492857D02*
X100654819Y-141016667D01*
X100654819Y-141016667D02*
X99654819Y-141016667D01*
X100654819Y-141826191D02*
X99654819Y-141826191D01*
X100654819Y-142302381D02*
X99654819Y-142302381D01*
X99654819Y-142302381D02*
X99654819Y-142683333D01*
X99654819Y-142683333D02*
X99702438Y-142778571D01*
X99702438Y-142778571D02*
X99750057Y-142826190D01*
X99750057Y-142826190D02*
X99845295Y-142873809D01*
X99845295Y-142873809D02*
X99988152Y-142873809D01*
X99988152Y-142873809D02*
X100083390Y-142826190D01*
X100083390Y-142826190D02*
X100131009Y-142778571D01*
X100131009Y-142778571D02*
X100178628Y-142683333D01*
X100178628Y-142683333D02*
X100178628Y-142302381D01*
X100131009Y-143302381D02*
X100131009Y-143635714D01*
X100654819Y-143778571D02*
X100654819Y-143302381D01*
X100654819Y-143302381D02*
X99654819Y-143302381D01*
X99654819Y-143302381D02*
X99654819Y-143778571D01*
X100654819Y-144207143D02*
X99654819Y-144207143D01*
X100654819Y-144778571D02*
X100083390Y-144350000D01*
X99654819Y-144778571D02*
X100226247Y-144207143D01*
X112349819Y-140554523D02*
X111873628Y-140221190D01*
X112349819Y-139983095D02*
X111349819Y-139983095D01*
X111349819Y-139983095D02*
X111349819Y-140364047D01*
X111349819Y-140364047D02*
X111397438Y-140459285D01*
X111397438Y-140459285D02*
X111445057Y-140506904D01*
X111445057Y-140506904D02*
X111540295Y-140554523D01*
X111540295Y-140554523D02*
X111683152Y-140554523D01*
X111683152Y-140554523D02*
X111778390Y-140506904D01*
X111778390Y-140506904D02*
X111826009Y-140459285D01*
X111826009Y-140459285D02*
X111873628Y-140364047D01*
X111873628Y-140364047D02*
X111873628Y-139983095D01*
X112254580Y-141554523D02*
X112302200Y-141506904D01*
X112302200Y-141506904D02*
X112349819Y-141364047D01*
X112349819Y-141364047D02*
X112349819Y-141268809D01*
X112349819Y-141268809D02*
X112302200Y-141125952D01*
X112302200Y-141125952D02*
X112206961Y-141030714D01*
X112206961Y-141030714D02*
X112111723Y-140983095D01*
X112111723Y-140983095D02*
X111921247Y-140935476D01*
X111921247Y-140935476D02*
X111778390Y-140935476D01*
X111778390Y-140935476D02*
X111587914Y-140983095D01*
X111587914Y-140983095D02*
X111492676Y-141030714D01*
X111492676Y-141030714D02*
X111397438Y-141125952D01*
X111397438Y-141125952D02*
X111349819Y-141268809D01*
X111349819Y-141268809D02*
X111349819Y-141364047D01*
X111349819Y-141364047D02*
X111397438Y-141506904D01*
X111397438Y-141506904D02*
X111445057Y-141554523D01*
X113104580Y-112978333D02*
X113152200Y-112930714D01*
X113152200Y-112930714D02*
X113199819Y-112787857D01*
X113199819Y-112787857D02*
X113199819Y-112692619D01*
X113199819Y-112692619D02*
X113152200Y-112549762D01*
X113152200Y-112549762D02*
X113056961Y-112454524D01*
X113056961Y-112454524D02*
X112961723Y-112406905D01*
X112961723Y-112406905D02*
X112771247Y-112359286D01*
X112771247Y-112359286D02*
X112628390Y-112359286D01*
X112628390Y-112359286D02*
X112437914Y-112406905D01*
X112437914Y-112406905D02*
X112342676Y-112454524D01*
X112342676Y-112454524D02*
X112247438Y-112549762D01*
X112247438Y-112549762D02*
X112199819Y-112692619D01*
X112199819Y-112692619D02*
X112199819Y-112787857D01*
X112199819Y-112787857D02*
X112247438Y-112930714D01*
X112247438Y-112930714D02*
X112295057Y-112978333D01*
X112199819Y-113311667D02*
X112199819Y-113930714D01*
X112199819Y-113930714D02*
X112580771Y-113597381D01*
X112580771Y-113597381D02*
X112580771Y-113740238D01*
X112580771Y-113740238D02*
X112628390Y-113835476D01*
X112628390Y-113835476D02*
X112676009Y-113883095D01*
X112676009Y-113883095D02*
X112771247Y-113930714D01*
X112771247Y-113930714D02*
X113009342Y-113930714D01*
X113009342Y-113930714D02*
X113104580Y-113883095D01*
X113104580Y-113883095D02*
X113152200Y-113835476D01*
X113152200Y-113835476D02*
X113199819Y-113740238D01*
X113199819Y-113740238D02*
X113199819Y-113454524D01*
X113199819Y-113454524D02*
X113152200Y-113359286D01*
X113152200Y-113359286D02*
X113104580Y-113311667D01*
X103887856Y-108349818D02*
X104221189Y-107873627D01*
X104459284Y-108349818D02*
X104459284Y-107349818D01*
X104459284Y-107349818D02*
X104078332Y-107349818D01*
X104078332Y-107349818D02*
X103983094Y-107397437D01*
X103983094Y-107397437D02*
X103935475Y-107445056D01*
X103935475Y-107445056D02*
X103887856Y-107540294D01*
X103887856Y-107540294D02*
X103887856Y-107683151D01*
X103887856Y-107683151D02*
X103935475Y-107778389D01*
X103935475Y-107778389D02*
X103983094Y-107826008D01*
X103983094Y-107826008D02*
X104078332Y-107873627D01*
X104078332Y-107873627D02*
X104459284Y-107873627D01*
X103554522Y-107349818D02*
X102887856Y-107349818D01*
X102887856Y-107349818D02*
X103316427Y-108349818D01*
X101983094Y-108349818D02*
X102554522Y-108349818D01*
X102268808Y-108349818D02*
X102268808Y-107349818D01*
X102268808Y-107349818D02*
X102364046Y-107492675D01*
X102364046Y-107492675D02*
X102459284Y-107587913D01*
X102459284Y-107587913D02*
X102554522Y-107635532D01*
X112654857Y-106791827D02*
X113464380Y-106791827D01*
X113464380Y-106791827D02*
X113559618Y-106839446D01*
X113559618Y-106839446D02*
X113607238Y-106887065D01*
X113607238Y-106887065D02*
X113654857Y-106982303D01*
X113654857Y-106982303D02*
X113654857Y-107172779D01*
X113654857Y-107172779D02*
X113607238Y-107268017D01*
X113607238Y-107268017D02*
X113559618Y-107315636D01*
X113559618Y-107315636D02*
X113464380Y-107363255D01*
X113464380Y-107363255D02*
X112654857Y-107363255D01*
X112750095Y-107791827D02*
X112702476Y-107839446D01*
X112702476Y-107839446D02*
X112654857Y-107934684D01*
X112654857Y-107934684D02*
X112654857Y-108172779D01*
X112654857Y-108172779D02*
X112702476Y-108268017D01*
X112702476Y-108268017D02*
X112750095Y-108315636D01*
X112750095Y-108315636D02*
X112845333Y-108363255D01*
X112845333Y-108363255D02*
X112940571Y-108363255D01*
X112940571Y-108363255D02*
X113083428Y-108315636D01*
X113083428Y-108315636D02*
X113654857Y-107744208D01*
X113654857Y-107744208D02*
X113654857Y-108363255D01*
X113654857Y-109315636D02*
X113654857Y-108744208D01*
X113654857Y-109029922D02*
X112654857Y-109029922D01*
X112654857Y-109029922D02*
X112797714Y-108934684D01*
X112797714Y-108934684D02*
X112892952Y-108839446D01*
X112892952Y-108839446D02*
X112940571Y-108744208D01*
X128254857Y-108960698D02*
X127254857Y-108960698D01*
X127254857Y-108960698D02*
X127254857Y-109198793D01*
X127254857Y-109198793D02*
X127302476Y-109341650D01*
X127302476Y-109341650D02*
X127397714Y-109436888D01*
X127397714Y-109436888D02*
X127492952Y-109484507D01*
X127492952Y-109484507D02*
X127683428Y-109532126D01*
X127683428Y-109532126D02*
X127826285Y-109532126D01*
X127826285Y-109532126D02*
X128016761Y-109484507D01*
X128016761Y-109484507D02*
X128111999Y-109436888D01*
X128111999Y-109436888D02*
X128207238Y-109341650D01*
X128207238Y-109341650D02*
X128254857Y-109198793D01*
X128254857Y-109198793D02*
X128254857Y-108960698D01*
X127254857Y-110389269D02*
X127254857Y-110198793D01*
X127254857Y-110198793D02*
X127302476Y-110103555D01*
X127302476Y-110103555D02*
X127350095Y-110055936D01*
X127350095Y-110055936D02*
X127492952Y-109960698D01*
X127492952Y-109960698D02*
X127683428Y-109913079D01*
X127683428Y-109913079D02*
X128064380Y-109913079D01*
X128064380Y-109913079D02*
X128159618Y-109960698D01*
X128159618Y-109960698D02*
X128207238Y-110008317D01*
X128207238Y-110008317D02*
X128254857Y-110103555D01*
X128254857Y-110103555D02*
X128254857Y-110294031D01*
X128254857Y-110294031D02*
X128207238Y-110389269D01*
X128207238Y-110389269D02*
X128159618Y-110436888D01*
X128159618Y-110436888D02*
X128064380Y-110484507D01*
X128064380Y-110484507D02*
X127826285Y-110484507D01*
X127826285Y-110484507D02*
X127731047Y-110436888D01*
X127731047Y-110436888D02*
X127683428Y-110389269D01*
X127683428Y-110389269D02*
X127635809Y-110294031D01*
X127635809Y-110294031D02*
X127635809Y-110103555D01*
X127635809Y-110103555D02*
X127683428Y-110008317D01*
X127683428Y-110008317D02*
X127731047Y-109960698D01*
X127731047Y-109960698D02*
X127826285Y-109913079D01*
X144783094Y-128199818D02*
X144783094Y-129009341D01*
X144783094Y-129009341D02*
X144735475Y-129104579D01*
X144735475Y-129104579D02*
X144687856Y-129152199D01*
X144687856Y-129152199D02*
X144592618Y-129199818D01*
X144592618Y-129199818D02*
X144402142Y-129199818D01*
X144402142Y-129199818D02*
X144306904Y-129152199D01*
X144306904Y-129152199D02*
X144259285Y-129104579D01*
X144259285Y-129104579D02*
X144211666Y-129009341D01*
X144211666Y-129009341D02*
X144211666Y-128199818D01*
X143783094Y-128295056D02*
X143735475Y-128247437D01*
X143735475Y-128247437D02*
X143640237Y-128199818D01*
X143640237Y-128199818D02*
X143402142Y-128199818D01*
X143402142Y-128199818D02*
X143306904Y-128247437D01*
X143306904Y-128247437D02*
X143259285Y-128295056D01*
X143259285Y-128295056D02*
X143211666Y-128390294D01*
X143211666Y-128390294D02*
X143211666Y-128485532D01*
X143211666Y-128485532D02*
X143259285Y-128628389D01*
X143259285Y-128628389D02*
X143830713Y-129199818D01*
X143830713Y-129199818D02*
X143211666Y-129199818D01*
X142640237Y-128628389D02*
X142735475Y-128580770D01*
X142735475Y-128580770D02*
X142783094Y-128533151D01*
X142783094Y-128533151D02*
X142830713Y-128437913D01*
X142830713Y-128437913D02*
X142830713Y-128390294D01*
X142830713Y-128390294D02*
X142783094Y-128295056D01*
X142783094Y-128295056D02*
X142735475Y-128247437D01*
X142735475Y-128247437D02*
X142640237Y-128199818D01*
X142640237Y-128199818D02*
X142449761Y-128199818D01*
X142449761Y-128199818D02*
X142354523Y-128247437D01*
X142354523Y-128247437D02*
X142306904Y-128295056D01*
X142306904Y-128295056D02*
X142259285Y-128390294D01*
X142259285Y-128390294D02*
X142259285Y-128437913D01*
X142259285Y-128437913D02*
X142306904Y-128533151D01*
X142306904Y-128533151D02*
X142354523Y-128580770D01*
X142354523Y-128580770D02*
X142449761Y-128628389D01*
X142449761Y-128628389D02*
X142640237Y-128628389D01*
X142640237Y-128628389D02*
X142735475Y-128676008D01*
X142735475Y-128676008D02*
X142783094Y-128723627D01*
X142783094Y-128723627D02*
X142830713Y-128818865D01*
X142830713Y-128818865D02*
X142830713Y-129009341D01*
X142830713Y-129009341D02*
X142783094Y-129104579D01*
X142783094Y-129104579D02*
X142735475Y-129152199D01*
X142735475Y-129152199D02*
X142640237Y-129199818D01*
X142640237Y-129199818D02*
X142449761Y-129199818D01*
X142449761Y-129199818D02*
X142354523Y-129152199D01*
X142354523Y-129152199D02*
X142306904Y-129104579D01*
X142306904Y-129104579D02*
X142259285Y-129009341D01*
X142259285Y-129009341D02*
X142259285Y-128818865D01*
X142259285Y-128818865D02*
X142306904Y-128723627D01*
X142306904Y-128723627D02*
X142354523Y-128676008D01*
X142354523Y-128676008D02*
X142449761Y-128628389D01*
X107869178Y-111229809D02*
X107869178Y-110229809D01*
X107869178Y-110229809D02*
X107631083Y-110229809D01*
X107631083Y-110229809D02*
X107488226Y-110277428D01*
X107488226Y-110277428D02*
X107392988Y-110372666D01*
X107392988Y-110372666D02*
X107345369Y-110467904D01*
X107345369Y-110467904D02*
X107297750Y-110658380D01*
X107297750Y-110658380D02*
X107297750Y-110801237D01*
X107297750Y-110801237D02*
X107345369Y-110991713D01*
X107345369Y-110991713D02*
X107392988Y-111086951D01*
X107392988Y-111086951D02*
X107488226Y-111182190D01*
X107488226Y-111182190D02*
X107631083Y-111229809D01*
X107631083Y-111229809D02*
X107869178Y-111229809D01*
X106964416Y-110229809D02*
X106297750Y-110229809D01*
X106297750Y-110229809D02*
X106964416Y-111229809D01*
X106964416Y-111229809D02*
X106297750Y-111229809D01*
X105392988Y-111229809D02*
X105964416Y-111229809D01*
X105678702Y-111229809D02*
X105678702Y-110229809D01*
X105678702Y-110229809D02*
X105773940Y-110372666D01*
X105773940Y-110372666D02*
X105869178Y-110467904D01*
X105869178Y-110467904D02*
X105964416Y-110515523D01*
X103997318Y-132094849D02*
X103997318Y-132809134D01*
X103997318Y-132809134D02*
X104044937Y-132951991D01*
X104044937Y-132951991D02*
X104140175Y-133047230D01*
X104140175Y-133047230D02*
X104283032Y-133094849D01*
X104283032Y-133094849D02*
X104378270Y-133094849D01*
X103378270Y-132523420D02*
X103473508Y-132475801D01*
X103473508Y-132475801D02*
X103521127Y-132428182D01*
X103521127Y-132428182D02*
X103568746Y-132332944D01*
X103568746Y-132332944D02*
X103568746Y-132285325D01*
X103568746Y-132285325D02*
X103521127Y-132190087D01*
X103521127Y-132190087D02*
X103473508Y-132142468D01*
X103473508Y-132142468D02*
X103378270Y-132094849D01*
X103378270Y-132094849D02*
X103187794Y-132094849D01*
X103187794Y-132094849D02*
X103092556Y-132142468D01*
X103092556Y-132142468D02*
X103044937Y-132190087D01*
X103044937Y-132190087D02*
X102997318Y-132285325D01*
X102997318Y-132285325D02*
X102997318Y-132332944D01*
X102997318Y-132332944D02*
X103044937Y-132428182D01*
X103044937Y-132428182D02*
X103092556Y-132475801D01*
X103092556Y-132475801D02*
X103187794Y-132523420D01*
X103187794Y-132523420D02*
X103378270Y-132523420D01*
X103378270Y-132523420D02*
X103473508Y-132571039D01*
X103473508Y-132571039D02*
X103521127Y-132618658D01*
X103521127Y-132618658D02*
X103568746Y-132713896D01*
X103568746Y-132713896D02*
X103568746Y-132904372D01*
X103568746Y-132904372D02*
X103521127Y-132999610D01*
X103521127Y-132999610D02*
X103473508Y-133047230D01*
X103473508Y-133047230D02*
X103378270Y-133094849D01*
X103378270Y-133094849D02*
X103187794Y-133094849D01*
X103187794Y-133094849D02*
X103092556Y-133047230D01*
X103092556Y-133047230D02*
X103044937Y-132999610D01*
X103044937Y-132999610D02*
X102997318Y-132904372D01*
X102997318Y-132904372D02*
X102997318Y-132713896D01*
X102997318Y-132713896D02*
X103044937Y-132618658D01*
X103044937Y-132618658D02*
X103092556Y-132571039D01*
X103092556Y-132571039D02*
X103187794Y-132523420D01*
X132704580Y-130352142D02*
X132752200Y-130304523D01*
X132752200Y-130304523D02*
X132799819Y-130161666D01*
X132799819Y-130161666D02*
X132799819Y-130066428D01*
X132799819Y-130066428D02*
X132752200Y-129923571D01*
X132752200Y-129923571D02*
X132656961Y-129828333D01*
X132656961Y-129828333D02*
X132561723Y-129780714D01*
X132561723Y-129780714D02*
X132371247Y-129733095D01*
X132371247Y-129733095D02*
X132228390Y-129733095D01*
X132228390Y-129733095D02*
X132037914Y-129780714D01*
X132037914Y-129780714D02*
X131942676Y-129828333D01*
X131942676Y-129828333D02*
X131847438Y-129923571D01*
X131847438Y-129923571D02*
X131799819Y-130066428D01*
X131799819Y-130066428D02*
X131799819Y-130161666D01*
X131799819Y-130161666D02*
X131847438Y-130304523D01*
X131847438Y-130304523D02*
X131895057Y-130352142D01*
X131799819Y-131209285D02*
X131799819Y-131018809D01*
X131799819Y-131018809D02*
X131847438Y-130923571D01*
X131847438Y-130923571D02*
X131895057Y-130875952D01*
X131895057Y-130875952D02*
X132037914Y-130780714D01*
X132037914Y-130780714D02*
X132228390Y-130733095D01*
X132228390Y-130733095D02*
X132609342Y-130733095D01*
X132609342Y-130733095D02*
X132704580Y-130780714D01*
X132704580Y-130780714D02*
X132752200Y-130828333D01*
X132752200Y-130828333D02*
X132799819Y-130923571D01*
X132799819Y-130923571D02*
X132799819Y-131114047D01*
X132799819Y-131114047D02*
X132752200Y-131209285D01*
X132752200Y-131209285D02*
X132704580Y-131256904D01*
X132704580Y-131256904D02*
X132609342Y-131304523D01*
X132609342Y-131304523D02*
X132371247Y-131304523D01*
X132371247Y-131304523D02*
X132276009Y-131256904D01*
X132276009Y-131256904D02*
X132228390Y-131209285D01*
X132228390Y-131209285D02*
X132180771Y-131114047D01*
X132180771Y-131114047D02*
X132180771Y-130923571D01*
X132180771Y-130923571D02*
X132228390Y-130828333D01*
X132228390Y-130828333D02*
X132276009Y-130780714D01*
X132276009Y-130780714D02*
X132371247Y-130733095D01*
X132799819Y-131780714D02*
X132799819Y-131971190D01*
X132799819Y-131971190D02*
X132752200Y-132066428D01*
X132752200Y-132066428D02*
X132704580Y-132114047D01*
X132704580Y-132114047D02*
X132561723Y-132209285D01*
X132561723Y-132209285D02*
X132371247Y-132256904D01*
X132371247Y-132256904D02*
X131990295Y-132256904D01*
X131990295Y-132256904D02*
X131895057Y-132209285D01*
X131895057Y-132209285D02*
X131847438Y-132161666D01*
X131847438Y-132161666D02*
X131799819Y-132066428D01*
X131799819Y-132066428D02*
X131799819Y-131875952D01*
X131799819Y-131875952D02*
X131847438Y-131780714D01*
X131847438Y-131780714D02*
X131895057Y-131733095D01*
X131895057Y-131733095D02*
X131990295Y-131685476D01*
X131990295Y-131685476D02*
X132228390Y-131685476D01*
X132228390Y-131685476D02*
X132323628Y-131733095D01*
X132323628Y-131733095D02*
X132371247Y-131780714D01*
X132371247Y-131780714D02*
X132418866Y-131875952D01*
X132418866Y-131875952D02*
X132418866Y-132066428D01*
X132418866Y-132066428D02*
X132371247Y-132161666D01*
X132371247Y-132161666D02*
X132323628Y-132209285D01*
X132323628Y-132209285D02*
X132228390Y-132256904D01*
X110887857Y-135349819D02*
X111221190Y-134873628D01*
X111459285Y-135349819D02*
X111459285Y-134349819D01*
X111459285Y-134349819D02*
X111078333Y-134349819D01*
X111078333Y-134349819D02*
X110983095Y-134397438D01*
X110983095Y-134397438D02*
X110935476Y-134445057D01*
X110935476Y-134445057D02*
X110887857Y-134540295D01*
X110887857Y-134540295D02*
X110887857Y-134683152D01*
X110887857Y-134683152D02*
X110935476Y-134778390D01*
X110935476Y-134778390D02*
X110983095Y-134826009D01*
X110983095Y-134826009D02*
X111078333Y-134873628D01*
X111078333Y-134873628D02*
X111459285Y-134873628D01*
X110506904Y-134445057D02*
X110459285Y-134397438D01*
X110459285Y-134397438D02*
X110364047Y-134349819D01*
X110364047Y-134349819D02*
X110125952Y-134349819D01*
X110125952Y-134349819D02*
X110030714Y-134397438D01*
X110030714Y-134397438D02*
X109983095Y-134445057D01*
X109983095Y-134445057D02*
X109935476Y-134540295D01*
X109935476Y-134540295D02*
X109935476Y-134635533D01*
X109935476Y-134635533D02*
X109983095Y-134778390D01*
X109983095Y-134778390D02*
X110554523Y-135349819D01*
X110554523Y-135349819D02*
X109935476Y-135349819D01*
X109554523Y-134445057D02*
X109506904Y-134397438D01*
X109506904Y-134397438D02*
X109411666Y-134349819D01*
X109411666Y-134349819D02*
X109173571Y-134349819D01*
X109173571Y-134349819D02*
X109078333Y-134397438D01*
X109078333Y-134397438D02*
X109030714Y-134445057D01*
X109030714Y-134445057D02*
X108983095Y-134540295D01*
X108983095Y-134540295D02*
X108983095Y-134635533D01*
X108983095Y-134635533D02*
X109030714Y-134778390D01*
X109030714Y-134778390D02*
X109602142Y-135349819D01*
X109602142Y-135349819D02*
X108983095Y-135349819D01*
X112059580Y-137057142D02*
X112107200Y-137009523D01*
X112107200Y-137009523D02*
X112154819Y-136866666D01*
X112154819Y-136866666D02*
X112154819Y-136771428D01*
X112154819Y-136771428D02*
X112107200Y-136628571D01*
X112107200Y-136628571D02*
X112011961Y-136533333D01*
X112011961Y-136533333D02*
X111916723Y-136485714D01*
X111916723Y-136485714D02*
X111726247Y-136438095D01*
X111726247Y-136438095D02*
X111583390Y-136438095D01*
X111583390Y-136438095D02*
X111392914Y-136485714D01*
X111392914Y-136485714D02*
X111297676Y-136533333D01*
X111297676Y-136533333D02*
X111202438Y-136628571D01*
X111202438Y-136628571D02*
X111154819Y-136771428D01*
X111154819Y-136771428D02*
X111154819Y-136866666D01*
X111154819Y-136866666D02*
X111202438Y-137009523D01*
X111202438Y-137009523D02*
X111250057Y-137057142D01*
X112154819Y-137533333D02*
X112154819Y-137723809D01*
X112154819Y-137723809D02*
X112107200Y-137819047D01*
X112107200Y-137819047D02*
X112059580Y-137866666D01*
X112059580Y-137866666D02*
X111916723Y-137961904D01*
X111916723Y-137961904D02*
X111726247Y-138009523D01*
X111726247Y-138009523D02*
X111345295Y-138009523D01*
X111345295Y-138009523D02*
X111250057Y-137961904D01*
X111250057Y-137961904D02*
X111202438Y-137914285D01*
X111202438Y-137914285D02*
X111154819Y-137819047D01*
X111154819Y-137819047D02*
X111154819Y-137628571D01*
X111154819Y-137628571D02*
X111202438Y-137533333D01*
X111202438Y-137533333D02*
X111250057Y-137485714D01*
X111250057Y-137485714D02*
X111345295Y-137438095D01*
X111345295Y-137438095D02*
X111583390Y-137438095D01*
X111583390Y-137438095D02*
X111678628Y-137485714D01*
X111678628Y-137485714D02*
X111726247Y-137533333D01*
X111726247Y-137533333D02*
X111773866Y-137628571D01*
X111773866Y-137628571D02*
X111773866Y-137819047D01*
X111773866Y-137819047D02*
X111726247Y-137914285D01*
X111726247Y-137914285D02*
X111678628Y-137961904D01*
X111678628Y-137961904D02*
X111583390Y-138009523D01*
X111250057Y-138390476D02*
X111202438Y-138438095D01*
X111202438Y-138438095D02*
X111154819Y-138533333D01*
X111154819Y-138533333D02*
X111154819Y-138771428D01*
X111154819Y-138771428D02*
X111202438Y-138866666D01*
X111202438Y-138866666D02*
X111250057Y-138914285D01*
X111250057Y-138914285D02*
X111345295Y-138961904D01*
X111345295Y-138961904D02*
X111440533Y-138961904D01*
X111440533Y-138961904D02*
X111583390Y-138914285D01*
X111583390Y-138914285D02*
X112154819Y-138342857D01*
X112154819Y-138342857D02*
X112154819Y-138961904D01*
X107913132Y-141029806D02*
X107913132Y-141839329D01*
X107913132Y-141839329D02*
X107865513Y-141934567D01*
X107865513Y-141934567D02*
X107817894Y-141982187D01*
X107817894Y-141982187D02*
X107722656Y-142029806D01*
X107722656Y-142029806D02*
X107532180Y-142029806D01*
X107532180Y-142029806D02*
X107436942Y-141982187D01*
X107436942Y-141982187D02*
X107389323Y-141934567D01*
X107389323Y-141934567D02*
X107341704Y-141839329D01*
X107341704Y-141839329D02*
X107341704Y-141029806D01*
X106913132Y-141125044D02*
X106865513Y-141077425D01*
X106865513Y-141077425D02*
X106770275Y-141029806D01*
X106770275Y-141029806D02*
X106532180Y-141029806D01*
X106532180Y-141029806D02*
X106436942Y-141077425D01*
X106436942Y-141077425D02*
X106389323Y-141125044D01*
X106389323Y-141125044D02*
X106341704Y-141220282D01*
X106341704Y-141220282D02*
X106341704Y-141315520D01*
X106341704Y-141315520D02*
X106389323Y-141458377D01*
X106389323Y-141458377D02*
X106960751Y-142029806D01*
X106960751Y-142029806D02*
X106341704Y-142029806D01*
X106008370Y-141029806D02*
X105389323Y-141029806D01*
X105389323Y-141029806D02*
X105722656Y-141410758D01*
X105722656Y-141410758D02*
X105579799Y-141410758D01*
X105579799Y-141410758D02*
X105484561Y-141458377D01*
X105484561Y-141458377D02*
X105436942Y-141505996D01*
X105436942Y-141505996D02*
X105389323Y-141601234D01*
X105389323Y-141601234D02*
X105389323Y-141839329D01*
X105389323Y-141839329D02*
X105436942Y-141934567D01*
X105436942Y-141934567D02*
X105484561Y-141982187D01*
X105484561Y-141982187D02*
X105579799Y-142029806D01*
X105579799Y-142029806D02*
X105865513Y-142029806D01*
X105865513Y-142029806D02*
X105960751Y-141982187D01*
X105960751Y-141982187D02*
X106008370Y-141934567D01*
X114949819Y-134978333D02*
X114473628Y-134645000D01*
X114949819Y-134406905D02*
X113949819Y-134406905D01*
X113949819Y-134406905D02*
X113949819Y-134787857D01*
X113949819Y-134787857D02*
X113997438Y-134883095D01*
X113997438Y-134883095D02*
X114045057Y-134930714D01*
X114045057Y-134930714D02*
X114140295Y-134978333D01*
X114140295Y-134978333D02*
X114283152Y-134978333D01*
X114283152Y-134978333D02*
X114378390Y-134930714D01*
X114378390Y-134930714D02*
X114426009Y-134883095D01*
X114426009Y-134883095D02*
X114473628Y-134787857D01*
X114473628Y-134787857D02*
X114473628Y-134406905D01*
X113949819Y-135835476D02*
X113949819Y-135645000D01*
X113949819Y-135645000D02*
X113997438Y-135549762D01*
X113997438Y-135549762D02*
X114045057Y-135502143D01*
X114045057Y-135502143D02*
X114187914Y-135406905D01*
X114187914Y-135406905D02*
X114378390Y-135359286D01*
X114378390Y-135359286D02*
X114759342Y-135359286D01*
X114759342Y-135359286D02*
X114854580Y-135406905D01*
X114854580Y-135406905D02*
X114902200Y-135454524D01*
X114902200Y-135454524D02*
X114949819Y-135549762D01*
X114949819Y-135549762D02*
X114949819Y-135740238D01*
X114949819Y-135740238D02*
X114902200Y-135835476D01*
X114902200Y-135835476D02*
X114854580Y-135883095D01*
X114854580Y-135883095D02*
X114759342Y-135930714D01*
X114759342Y-135930714D02*
X114521247Y-135930714D01*
X114521247Y-135930714D02*
X114426009Y-135883095D01*
X114426009Y-135883095D02*
X114378390Y-135835476D01*
X114378390Y-135835476D02*
X114330771Y-135740238D01*
X114330771Y-135740238D02*
X114330771Y-135549762D01*
X114330771Y-135549762D02*
X114378390Y-135454524D01*
X114378390Y-135454524D02*
X114426009Y-135406905D01*
X114426009Y-135406905D02*
X114521247Y-135359286D01*
X125116666Y-139904819D02*
X125592856Y-139904819D01*
X125592856Y-139904819D02*
X125592856Y-138904819D01*
X124307142Y-138904819D02*
X124783332Y-138904819D01*
X124783332Y-138904819D02*
X124830951Y-139381009D01*
X124830951Y-139381009D02*
X124783332Y-139333390D01*
X124783332Y-139333390D02*
X124688094Y-139285771D01*
X124688094Y-139285771D02*
X124449999Y-139285771D01*
X124449999Y-139285771D02*
X124354761Y-139333390D01*
X124354761Y-139333390D02*
X124307142Y-139381009D01*
X124307142Y-139381009D02*
X124259523Y-139476247D01*
X124259523Y-139476247D02*
X124259523Y-139714342D01*
X124259523Y-139714342D02*
X124307142Y-139809580D01*
X124307142Y-139809580D02*
X124354761Y-139857200D01*
X124354761Y-139857200D02*
X124449999Y-139904819D01*
X124449999Y-139904819D02*
X124688094Y-139904819D01*
X124688094Y-139904819D02*
X124783332Y-139857200D01*
X124783332Y-139857200D02*
X124830951Y-139809580D01*
D11*
%TO.C,R18*%
X129802500Y-124712258D02*
X129802500Y-124237742D01*
X130847500Y-124712258D02*
X130847500Y-124237742D01*
%TO.C,C28*%
X135362836Y-128345000D02*
X135147164Y-128345000D01*
X135362836Y-129065000D02*
X135147164Y-129065000D01*
%TO.C,R28*%
X128121359Y-114085000D02*
X128428641Y-114085000D01*
X128121359Y-114845000D02*
X128428641Y-114845000D01*
%TO.C,C3*%
X114362836Y-112845000D02*
X114147164Y-112845000D01*
X114362836Y-113565000D02*
X114147164Y-113565000D01*
%TO.C,R43*%
X128185000Y-132078641D02*
X128185000Y-131771359D01*
X128945000Y-132078641D02*
X128945000Y-131771359D01*
%TO.C,R49*%
X137871359Y-119585000D02*
X138178641Y-119585000D01*
X137871359Y-120345000D02*
X138178641Y-120345000D01*
%TO.C,R9*%
X123928641Y-128085000D02*
X123621359Y-128085000D01*
X123928641Y-128845000D02*
X123621359Y-128845000D01*
%TO.C,C11*%
X126112836Y-118345000D02*
X125897164Y-118345000D01*
X126112836Y-119065000D02*
X125897164Y-119065000D01*
D12*
%TO.C,J14*%
X141469992Y-110900000D02*
X142498847Y-110900000D01*
X141469992Y-112643866D02*
X141469992Y-110900000D01*
X141469992Y-113893802D02*
X141469992Y-113706147D01*
X141469992Y-115143993D02*
X141469992Y-114956083D01*
X141469992Y-116393929D02*
X141469992Y-116206274D01*
X141469992Y-117643866D02*
X141469992Y-117456210D01*
X141469992Y-118893802D02*
X141469992Y-118706147D01*
X141469992Y-121700000D02*
X141469992Y-119956083D01*
X141469992Y-121700000D02*
X142498847Y-121700000D01*
X145570018Y-112008255D02*
X145570018Y-120591720D01*
D11*
X140888812Y-111733882D02*
X140946329Y-111751330D01*
X140999337Y-111779663D01*
X141045798Y-111817793D01*
X141083929Y-111864255D01*
X141112262Y-111917263D01*
X141129709Y-111974779D01*
X141135601Y-112034595D01*
X141129709Y-112094410D01*
X141112262Y-112151927D01*
X141083929Y-112204935D01*
X141045798Y-112251397D01*
X140999337Y-112289527D01*
X140946329Y-112317860D01*
X140888812Y-112335308D01*
X140828997Y-112341199D01*
X140769181Y-112335308D01*
X140711664Y-112317860D01*
X140658657Y-112289527D01*
X140612195Y-112251397D01*
X140574065Y-112204935D01*
X140545732Y-112151927D01*
X140528284Y-112094410D01*
X140522393Y-112034595D01*
X140528284Y-111974779D01*
X140545732Y-111917263D01*
X140574065Y-111864255D01*
X140612195Y-111817793D01*
X140658657Y-111779663D01*
X140711664Y-111751330D01*
X140769181Y-111733882D01*
X140828997Y-111727991D01*
X140888812Y-111733882D01*
G36*
X140888812Y-111733882D02*
G01*
X140946329Y-111751330D01*
X140999337Y-111779663D01*
X141045798Y-111817793D01*
X141083929Y-111864255D01*
X141112262Y-111917263D01*
X141129709Y-111974779D01*
X141135601Y-112034595D01*
X141129709Y-112094410D01*
X141112262Y-112151927D01*
X141083929Y-112204935D01*
X141045798Y-112251397D01*
X140999337Y-112289527D01*
X140946329Y-112317860D01*
X140888812Y-112335308D01*
X140828997Y-112341199D01*
X140769181Y-112335308D01*
X140711664Y-112317860D01*
X140658657Y-112289527D01*
X140612195Y-112251397D01*
X140574065Y-112204935D01*
X140545732Y-112151927D01*
X140528284Y-112094410D01*
X140522393Y-112034595D01*
X140528284Y-111974779D01*
X140545732Y-111917263D01*
X140574065Y-111864255D01*
X140612195Y-111817793D01*
X140658657Y-111779663D01*
X140711664Y-111751330D01*
X140769181Y-111733882D01*
X140828997Y-111727991D01*
X140888812Y-111733882D01*
G37*
%TO.C,C59*%
X116612836Y-119845000D02*
X116397164Y-119845000D01*
X116612836Y-120565000D02*
X116397164Y-120565000D01*
%TO.C,R50*%
X135371359Y-125835000D02*
X135678641Y-125835000D01*
X135371359Y-126595000D02*
X135678641Y-126595000D01*
%TO.C,R26*%
X114685000Y-122078641D02*
X114685000Y-121771359D01*
X115445000Y-122078641D02*
X115445000Y-121771359D01*
%TO.C,C84*%
X131945000Y-114797164D02*
X131945000Y-115012836D01*
X132665000Y-114797164D02*
X132665000Y-115012836D01*
%TO.C,R74*%
X133435000Y-139578640D02*
X133435000Y-139271358D01*
X134195000Y-139578640D02*
X134195000Y-139271358D01*
%TO.C,C33*%
X123612836Y-125095000D02*
X123397164Y-125095000D01*
X123612836Y-125815000D02*
X123397164Y-125815000D01*
D12*
%TO.C,U24*%
X129375089Y-107075000D02*
X129375089Y-108875025D01*
X132475114Y-107075000D02*
X132475114Y-108875025D01*
X132703003Y-109372003D02*
G75*
G02*
X132449003Y-109372003I-127000J0D01*
G01*
X132449003Y-109372003D02*
G75*
G02*
X132703003Y-109372003I127000J0D01*
G01*
D11*
%TO.C,R59*%
X131178641Y-110585000D02*
X130871359Y-110585000D01*
X131178641Y-111345000D02*
X130871359Y-111345000D01*
%TO.C,R71*%
X101121358Y-108584999D02*
X101428640Y-108584999D01*
X101121358Y-109344999D02*
X101428640Y-109344999D01*
%TO.C,C88*%
X110445000Y-103297164D02*
X110445000Y-103512836D01*
X111165000Y-103297164D02*
X111165000Y-103512836D01*
%TO.C,R10*%
X123928641Y-126835000D02*
X123621359Y-126835000D01*
X123928641Y-127595000D02*
X123621359Y-127595000D01*
%TO.C,C5*%
X126612836Y-128095000D02*
X126397164Y-128095000D01*
X126612836Y-128815000D02*
X126397164Y-128815000D01*
%TO.C,U27*%
X101505000Y-111084999D02*
X100505000Y-111084999D01*
X101505000Y-113904999D02*
X100715000Y-113904999D01*
X100385000Y-114184999D02*
X100105000Y-113904999D01*
X100385000Y-113904999D01*
X100385000Y-114184999D01*
G36*
X100385000Y-114184999D02*
G01*
X100105000Y-113904999D01*
X100385000Y-113904999D01*
X100385000Y-114184999D01*
G37*
%TO.C,R19*%
X124928641Y-119835000D02*
X124621359Y-119835000D01*
X124928641Y-120595000D02*
X124621359Y-120595000D01*
%TO.C,C13*%
X129445000Y-117297164D02*
X129445000Y-117512836D01*
X130165000Y-117297164D02*
X130165000Y-117512836D01*
%TO.C,C27*%
X123695000Y-133012836D02*
X123695000Y-132797164D01*
X124415000Y-133012836D02*
X124415000Y-132797164D01*
%TO.C,R41*%
X126685000Y-130828641D02*
X126685000Y-130521359D01*
X127445000Y-130828641D02*
X127445000Y-130521359D01*
%TO.C,C61*%
X134695000Y-118762836D02*
X134695000Y-118547164D01*
X135415000Y-118762836D02*
X135415000Y-118547164D01*
%TO.C,C57*%
X124397164Y-129345000D02*
X124612836Y-129345000D01*
X124397164Y-130065000D02*
X124612836Y-130065000D01*
%TO.C,C6*%
X127806252Y-124990000D02*
X127283748Y-124990000D01*
X127806252Y-126460000D02*
X127283748Y-126460000D01*
%TO.C,C4*%
X115397164Y-126845000D02*
X115612836Y-126845000D01*
X115397164Y-127565000D02*
X115612836Y-127565000D01*
%TO.C,C50*%
X124945000Y-114512836D02*
X124945000Y-114297164D01*
X125665000Y-114512836D02*
X125665000Y-114297164D01*
%TO.C,C10*%
X128112836Y-117095000D02*
X127897164Y-117095000D01*
X128112836Y-117815000D02*
X127897164Y-117815000D01*
%TO.C,U29*%
X129435000Y-112154999D02*
X129435000Y-113154999D01*
X132255000Y-112154999D02*
X132255000Y-112944999D01*
X132255000Y-113554999D02*
X132255000Y-113274999D01*
X132535000Y-113274999D01*
X132255000Y-113554999D01*
G36*
X132255000Y-113554999D02*
G01*
X132255000Y-113274999D01*
X132535000Y-113274999D01*
X132255000Y-113554999D01*
G37*
%TO.C,R5*%
X118121359Y-136085000D02*
X118428641Y-136085000D01*
X118121359Y-136845000D02*
X118428641Y-136845000D01*
D12*
%TO.C,J9*%
X112775997Y-102736210D02*
X112775997Y-103874056D01*
X112775997Y-103874056D02*
X114493828Y-103874056D01*
X115556109Y-103874056D02*
X115743840Y-103874056D01*
X116806121Y-103874056D02*
X116993828Y-103874056D01*
X118056109Y-103874056D02*
X118243840Y-103874056D01*
X119306045Y-103874056D02*
X119493777Y-103874056D01*
X119306172Y-103874056D02*
X119493904Y-103874056D01*
X119306274Y-103874031D02*
X121024130Y-103874031D01*
X119800127Y-99683048D02*
X113918999Y-99683048D01*
X120556058Y-103874056D02*
X120743764Y-103874056D01*
X121024130Y-103874031D02*
X121024130Y-102736236D01*
D11*
X114426975Y-104636058D02*
X114426975Y-104636083D01*
X114045999Y-105017059D01*
X114045999Y-104382057D01*
X114426975Y-104636058D01*
G36*
X114426975Y-104636058D02*
G01*
X114426975Y-104636083D01*
X114045999Y-105017059D01*
X114045999Y-104382057D01*
X114426975Y-104636058D01*
G37*
%TO.C,C32*%
X116695000Y-121797164D02*
X116695000Y-122012836D01*
X117415000Y-121797164D02*
X117415000Y-122012836D01*
%TO.C,R20*%
X121371359Y-126835000D02*
X121678641Y-126835000D01*
X121371359Y-127595000D02*
X121678641Y-127595000D01*
%TO.C,C81*%
X131397164Y-116345000D02*
X131612836Y-116345000D01*
X131397164Y-117065000D02*
X131612836Y-117065000D01*
D13*
%TO.C,U2*%
X118173787Y-119423927D02*
X118419507Y-119423927D01*
X118173787Y-120169622D02*
X118173787Y-119423927D01*
X118173787Y-121830632D02*
X118173787Y-122576327D01*
X118173787Y-122576327D02*
X118419507Y-122576327D01*
X120826213Y-119423927D02*
X120580493Y-119423927D01*
X120826213Y-120169622D02*
X120826213Y-119423927D01*
X120826213Y-121830632D02*
X120826213Y-122576327D01*
X120826213Y-122576327D02*
X120580493Y-122576327D01*
D14*
X120336932Y-122905131D02*
G75*
G02*
X120187072Y-122905131I-74930J0D01*
G01*
X120187072Y-122905131D02*
G75*
G02*
X120336932Y-122905131I74930J0D01*
G01*
D11*
%TO.C,R48*%
X132178641Y-126585000D02*
X131871359Y-126585000D01*
X132178641Y-127345000D02*
X131871359Y-127345000D01*
%TO.C,C29*%
X136112836Y-133595000D02*
X135897164Y-133595000D01*
X136112836Y-134315000D02*
X135897164Y-134315000D01*
%TO.C,R60*%
X115678641Y-116085000D02*
X115371359Y-116085000D01*
X115678641Y-116845000D02*
X115371359Y-116845000D01*
%TO.C,C45*%
X114840000Y-129433748D02*
X114840000Y-129956252D01*
X116310000Y-129433748D02*
X116310000Y-129956252D01*
D13*
%TO.C,U21*%
X114163805Y-107923673D02*
X115205410Y-107923673D01*
X114163805Y-109676073D02*
X114163805Y-107923673D01*
X115244602Y-109676073D02*
X116155398Y-109676073D01*
X117236195Y-107923673D02*
X116194590Y-107923673D01*
X117236195Y-109676073D02*
X117236195Y-107923673D01*
D11*
%TO.C,R1*%
X121178641Y-128085000D02*
X120871359Y-128085000D01*
X121178641Y-128845000D02*
X120871359Y-128845000D01*
%TO.C,SW1*%
X120095000Y-129995000D02*
X120395000Y-129995000D01*
X120095000Y-133295000D02*
X120095000Y-129995000D01*
X120395000Y-133295000D02*
X120095000Y-133295000D01*
X122595000Y-133295000D02*
X122895000Y-133295000D01*
X122895000Y-129995000D02*
X122595000Y-129995000D01*
X122895000Y-133295000D02*
X122895000Y-129995000D01*
D13*
%TO.C,D6*%
X124263805Y-106923927D02*
X124263805Y-108676327D01*
X124263805Y-108676327D02*
X125305410Y-108676327D01*
X126255398Y-106923927D02*
X125344602Y-106923927D01*
X127336195Y-106923927D02*
X127336195Y-108676327D01*
X127336195Y-108676327D02*
X126294590Y-108676327D01*
D11*
%TO.C,R45*%
X124435000Y-112328641D02*
X124435000Y-112021359D01*
X125195000Y-112328641D02*
X125195000Y-112021359D01*
%TO.C,R21*%
X121121359Y-125585000D02*
X121428641Y-125585000D01*
X121121359Y-126345000D02*
X121428641Y-126345000D01*
%TO.C,R14*%
X118871359Y-126085000D02*
X119178641Y-126085000D01*
X118871359Y-126845000D02*
X119178641Y-126845000D01*
%TO.C,U28*%
X142435000Y-127154999D02*
X142435000Y-126364999D01*
X145255000Y-127154999D02*
X145255000Y-126154999D01*
X142435000Y-126034999D02*
X142155000Y-126034999D01*
X142435000Y-125754999D01*
X142435000Y-126034999D01*
G36*
X142435000Y-126034999D02*
G01*
X142155000Y-126034999D01*
X142435000Y-125754999D01*
X142435000Y-126034999D01*
G37*
D13*
%TO.C,D8*%
X119623774Y-137673762D02*
X122376226Y-137673762D01*
X119623774Y-139526238D02*
X122376226Y-139526238D01*
X120283236Y-139476226D02*
X120283236Y-137723774D01*
X122376226Y-137673762D02*
X122376226Y-137866802D01*
X122376226Y-139526238D02*
X122376226Y-139333198D01*
D11*
X119700000Y-137917577D02*
X119395199Y-137917577D01*
X119395199Y-137597587D01*
X119700000Y-137597587D01*
X119700000Y-137917577D01*
G36*
X119700000Y-137917577D02*
G01*
X119395199Y-137917577D01*
X119395199Y-137597587D01*
X119700000Y-137597587D01*
X119700000Y-137917577D01*
G37*
X119700000Y-139602413D02*
X119395199Y-139602413D01*
X119395199Y-139282423D01*
X119700000Y-139282423D01*
X119700000Y-139602413D01*
G36*
X119700000Y-139602413D02*
G01*
X119395199Y-139602413D01*
X119395199Y-139282423D01*
X119700000Y-139282423D01*
X119700000Y-139602413D01*
G37*
%TO.C,R53*%
X138435000Y-118328641D02*
X138435000Y-118021359D01*
X139195000Y-118328641D02*
X139195000Y-118021359D01*
%TO.C,R38*%
X104678641Y-134335000D02*
X104371359Y-134335000D01*
X104678641Y-135095000D02*
X104371359Y-135095000D01*
%TO.C,C90*%
X137945000Y-103297164D02*
X137945000Y-103512836D01*
X138665000Y-103297164D02*
X138665000Y-103512836D01*
%TO.C,C7*%
X116033748Y-123490000D02*
X116556252Y-123490000D01*
X116033748Y-124960000D02*
X116556252Y-124960000D01*
%TO.C,C58*%
X135945000Y-119762836D02*
X135945000Y-119547164D01*
X136665000Y-119762836D02*
X136665000Y-119547164D01*
%TO.C,C23*%
X122606252Y-134735000D02*
X121183748Y-134735000D01*
X122606252Y-136555000D02*
X121183748Y-136555000D01*
%TO.C,C19*%
X117945000Y-133262836D02*
X117945000Y-133047164D01*
X118665000Y-133262836D02*
X118665000Y-133047164D01*
%TO.C,C42*%
X140033748Y-129490000D02*
X140556252Y-129490000D01*
X140033748Y-130960000D02*
X140556252Y-130960000D01*
%TO.C,C68*%
X130695000Y-134512836D02*
X130695000Y-134297164D01*
X131415000Y-134512836D02*
X131415000Y-134297164D01*
%TO.C,C15*%
X131397164Y-117595000D02*
X131612836Y-117595000D01*
X131397164Y-118315000D02*
X131612836Y-118315000D01*
%TO.C,R12*%
X116371359Y-111835000D02*
X116678641Y-111835000D01*
X116371359Y-112595000D02*
X116678641Y-112595000D01*
%TO.C,R39*%
X102185000Y-135578641D02*
X102185000Y-135271359D01*
X102945000Y-135578641D02*
X102945000Y-135271359D01*
%TO.C,C51*%
X126397164Y-111845000D02*
X126612836Y-111845000D01*
X126397164Y-112565000D02*
X126612836Y-112565000D01*
%TO.C,R31*%
X132685000Y-123771359D02*
X132685000Y-124078641D01*
X133445000Y-123771359D02*
X133445000Y-124078641D01*
%TO.C,C16*%
X131445000Y-123797164D02*
X131445000Y-124012836D01*
X132165000Y-123797164D02*
X132165000Y-124012836D01*
%TO.C,R34*%
X127935000Y-127771359D02*
X127935000Y-128078641D01*
X128695000Y-127771359D02*
X128695000Y-128078641D01*
%TO.C,C63*%
X135945000Y-117512836D02*
X135945000Y-117297164D01*
X136665000Y-117512836D02*
X136665000Y-117297164D01*
D13*
%TO.C,DZ1*%
X108168800Y-113431213D02*
X107368800Y-113431213D01*
X109711802Y-111578787D02*
X109711802Y-113431213D01*
X110121200Y-111578787D02*
X107368800Y-111578787D01*
X110121200Y-113431213D02*
X109021201Y-113431213D01*
D11*
X110349801Y-111785005D02*
X110045000Y-111785005D01*
X110045000Y-111502587D01*
X110349801Y-111502587D01*
X110349801Y-111785005D01*
G36*
X110349801Y-111785005D02*
G01*
X110045000Y-111785005D01*
X110045000Y-111502587D01*
X110349801Y-111502587D01*
X110349801Y-111785005D01*
G37*
X110349801Y-113507413D02*
X110045000Y-113507413D01*
X110045000Y-113224995D01*
X110349801Y-113224995D01*
X110349801Y-113507413D01*
G36*
X110349801Y-113507413D02*
G01*
X110045000Y-113507413D01*
X110045000Y-113224995D01*
X110349801Y-113224995D01*
X110349801Y-113507413D01*
G37*
D12*
%TO.C,D_USB*%
X137672023Y-128615013D02*
X137671007Y-128613997D01*
X137677027Y-126914987D02*
X137676011Y-126916003D01*
X137968797Y-126914987D02*
X137677027Y-126914987D01*
X137968797Y-128615013D02*
X137672023Y-128615013D01*
X137968797Y-128615013D02*
X140661203Y-128615013D01*
X139034990Y-127765000D02*
X138704992Y-127765000D01*
X139060999Y-128273001D02*
X139060999Y-127256999D01*
X139137200Y-127765000D02*
X139721401Y-128171401D01*
X139721401Y-127358599D02*
X139137200Y-127765000D01*
X139721401Y-127765254D02*
X140035091Y-127765254D01*
X139721401Y-128171401D02*
X139721401Y-127358599D01*
X140661203Y-126914987D02*
X137968797Y-126914987D01*
X140661203Y-127058853D02*
X140661203Y-126914987D01*
X140661203Y-128615013D02*
X140661203Y-128471147D01*
D11*
X139721401Y-128171401D02*
X139137200Y-127765000D01*
X139721401Y-127358599D01*
X139721401Y-128171401D01*
G36*
X139721401Y-128171401D02*
G01*
X139137200Y-127765000D01*
X139721401Y-127358599D01*
X139721401Y-128171401D01*
G37*
X137813425Y-127158015D02*
X137508599Y-127158015D01*
X137508599Y-126787987D01*
X137813425Y-126787987D01*
X137813425Y-127158015D01*
G36*
X137813425Y-127158015D02*
G01*
X137508599Y-127158015D01*
X137508599Y-126787987D01*
X137813425Y-126787987D01*
X137813425Y-127158015D01*
G37*
X137813425Y-128742013D02*
X137508599Y-128742013D01*
X137508599Y-128371960D01*
X137813425Y-128371960D01*
X137813425Y-128742013D01*
G36*
X137813425Y-128742013D02*
G01*
X137508599Y-128742013D01*
X137508599Y-128371960D01*
X137813425Y-128371960D01*
X137813425Y-128742013D01*
G37*
D13*
%TO.C,U25*%
X140908787Y-107886207D02*
X140908787Y-106183793D01*
X141958597Y-106183793D02*
X142911403Y-106183793D01*
X143961213Y-107886207D02*
X143961213Y-106183793D01*
D15*
X144236117Y-108178002D02*
G75*
G02*
X143935889Y-108178002I-150114J0D01*
G01*
X143935889Y-108178002D02*
G75*
G02*
X144236117Y-108178002I150114J0D01*
G01*
D13*
%TO.C,U3*%
X122123927Y-121773787D02*
X122123927Y-122019507D01*
X122123927Y-124426213D02*
X122123927Y-124180493D01*
X122869622Y-121773787D02*
X122123927Y-121773787D01*
X122869622Y-124426213D02*
X122123927Y-124426213D01*
X124530632Y-121773787D02*
X125276327Y-121773787D01*
X124530632Y-124426213D02*
X125276327Y-124426213D01*
X125276327Y-121773787D02*
X125276327Y-122019507D01*
X125276327Y-124426213D02*
X125276327Y-124180493D01*
D14*
X125680061Y-122337998D02*
G75*
G02*
X125530201Y-122337998I-74930J0D01*
G01*
X125530201Y-122337998D02*
G75*
G02*
X125680061Y-122337998I74930J0D01*
G01*
D13*
%TO.C,Y1*%
X128542799Y-118692913D02*
X130400000Y-118692913D01*
X128542799Y-120350114D02*
X128542799Y-118692913D01*
X128771400Y-118921514D02*
X128771400Y-122278740D01*
X128771400Y-122278740D02*
X132828600Y-122278740D01*
X132828600Y-118921514D02*
X128771400Y-118921514D01*
X132828600Y-122278740D02*
X132828600Y-118921514D01*
D11*
%TO.C,C17*%
X117585000Y-130256252D02*
X117585000Y-128833748D01*
X119405000Y-130256252D02*
X119405000Y-128833748D01*
%TO.C,C76*%
X135397164Y-127095000D02*
X135612836Y-127095000D01*
X135397164Y-127815000D02*
X135612836Y-127815000D01*
%TO.C,C60*%
X130612836Y-114845000D02*
X130397164Y-114845000D01*
X130612836Y-115565000D02*
X130397164Y-115565000D01*
D12*
%TO.C,J11*%
X123975870Y-142125969D02*
X123975870Y-143263764D01*
X124443942Y-142125944D02*
X124256236Y-142125944D01*
X125199873Y-146316952D02*
X131081001Y-146316952D01*
X125693726Y-142125969D02*
X123975870Y-142125969D01*
X125693828Y-142125944D02*
X125506096Y-142125944D01*
X125693955Y-142125944D02*
X125506223Y-142125944D01*
X126943891Y-142125944D02*
X126756160Y-142125944D01*
X128193879Y-142125944D02*
X128006172Y-142125944D01*
X129443891Y-142125944D02*
X129256160Y-142125944D01*
X132224003Y-142125944D02*
X130506172Y-142125944D01*
X132224003Y-143263790D02*
X132224003Y-142125944D01*
D11*
X130954001Y-141617943D02*
X130573025Y-141363942D01*
X130573025Y-141363917D01*
X130954001Y-140982941D01*
X130954001Y-141617943D01*
G36*
X130954001Y-141617943D02*
G01*
X130573025Y-141363942D01*
X130573025Y-141363917D01*
X130954001Y-140982941D01*
X130954001Y-141617943D01*
G37*
%TO.C,R25*%
X115185000Y-118271359D02*
X115185000Y-118578641D01*
X115945000Y-118271359D02*
X115945000Y-118578641D01*
%TO.C,C35*%
X117362836Y-117345000D02*
X117147164Y-117345000D01*
X117362836Y-118065000D02*
X117147164Y-118065000D01*
%TO.C,R11*%
X116935000Y-114828641D02*
X116935000Y-114521359D01*
X117695000Y-114828641D02*
X117695000Y-114521359D01*
%TO.C,C78*%
X115445000Y-133512836D02*
X115445000Y-133297164D01*
X116165000Y-133512836D02*
X116165000Y-133297164D01*
D13*
%TO.C,U12*%
X136984205Y-129760808D02*
X135205795Y-129760808D01*
X136984205Y-132839192D02*
X135205795Y-132839192D01*
D15*
X137546613Y-129631725D02*
G75*
G02*
X137246385Y-129631725I-150114J0D01*
G01*
X137246385Y-129631725D02*
G75*
G02*
X137546613Y-129631725I150114J0D01*
G01*
D11*
%TO.C,C65*%
X133195000Y-134512836D02*
X133195000Y-134297164D01*
X133915000Y-134512836D02*
X133915000Y-134297164D01*
D12*
%TO.C,J8*%
X99442000Y-116133985D02*
X100287999Y-116133985D01*
X100015599Y-130866015D02*
X99400000Y-130866015D01*
X101364023Y-130866015D02*
X100969600Y-130866015D01*
X103780901Y-116133985D02*
X111206492Y-116133985D01*
X111286147Y-130866015D02*
X104698692Y-130866015D01*
%TO.C,J6*%
X123975997Y-102736210D02*
X123975997Y-103874056D01*
X123975997Y-103874056D02*
X125693828Y-103874056D01*
X126756109Y-103874056D02*
X126943840Y-103874056D01*
X128006121Y-103874056D02*
X128193828Y-103874056D01*
X129256109Y-103874056D02*
X129443840Y-103874056D01*
X130506045Y-103874056D02*
X130693777Y-103874056D01*
X130506172Y-103874056D02*
X130693904Y-103874056D01*
X130506274Y-103874031D02*
X132224130Y-103874031D01*
X131000127Y-99683048D02*
X125118999Y-99683048D01*
X131756058Y-103874056D02*
X131943764Y-103874056D01*
X132224130Y-103874031D02*
X132224130Y-102736236D01*
D11*
X125626975Y-104636058D02*
X125626975Y-104636083D01*
X125245999Y-105017059D01*
X125245999Y-104382057D01*
X125626975Y-104636058D01*
G36*
X125626975Y-104636058D02*
G01*
X125626975Y-104636083D01*
X125245999Y-105017059D01*
X125245999Y-104382057D01*
X125626975Y-104636058D01*
G37*
%TO.C,C69*%
X129585000Y-131256252D02*
X129585000Y-129833748D01*
X131405000Y-131256252D02*
X131405000Y-129833748D01*
D16*
%TO.C,U4*%
X118799873Y-114400127D02*
X118799873Y-117800127D01*
X118799873Y-117800127D02*
X119074879Y-117800127D01*
X119074879Y-114400127D02*
X118799873Y-114400127D01*
X123924892Y-114400127D02*
X124199873Y-114400127D01*
X124199873Y-114400127D02*
X124199873Y-117800127D01*
X124199873Y-117800127D02*
X123924892Y-117800127D01*
D12*
X118901448Y-114080823D02*
G75*
G02*
X118898908Y-114080823I-1270J80640D01*
G01*
D11*
%TO.C,C1*%
X128112836Y-123595000D02*
X127897164Y-123595000D01*
X128112836Y-124315000D02*
X127897164Y-124315000D01*
%TO.C,R47*%
X132428641Y-125335000D02*
X132121359Y-125335000D01*
X132428641Y-126095000D02*
X132121359Y-126095000D01*
%TO.C,C44*%
X127445000Y-120047164D02*
X127445000Y-120262836D01*
X128165000Y-120047164D02*
X128165000Y-120262836D01*
%TO.C,R40*%
X126621359Y-132085000D02*
X126928641Y-132085000D01*
X126621359Y-132845000D02*
X126928641Y-132845000D01*
D12*
%TO.C,J5*%
X112775870Y-142125969D02*
X112775870Y-143263764D01*
X113243942Y-142125944D02*
X113056236Y-142125944D01*
X113999873Y-146316952D02*
X119881001Y-146316952D01*
X114493726Y-142125969D02*
X112775870Y-142125969D01*
X114493828Y-142125944D02*
X114306096Y-142125944D01*
X114493955Y-142125944D02*
X114306223Y-142125944D01*
X115743891Y-142125944D02*
X115556160Y-142125944D01*
X116993879Y-142125944D02*
X116806172Y-142125944D01*
X118243891Y-142125944D02*
X118056160Y-142125944D01*
X121024003Y-142125944D02*
X119306172Y-142125944D01*
X121024003Y-143263790D02*
X121024003Y-142125944D01*
D11*
X119754001Y-141617943D02*
X119373025Y-141363942D01*
X119373025Y-141363917D01*
X119754001Y-140982941D01*
X119754001Y-141617943D01*
G36*
X119754001Y-141617943D02*
G01*
X119373025Y-141363942D01*
X119373025Y-141363917D01*
X119754001Y-140982941D01*
X119754001Y-141617943D01*
G37*
D17*
%TO.C,D9*%
X117253059Y-139204469D02*
X117253059Y-140065531D01*
X117253059Y-140065531D02*
X117814401Y-140065531D01*
X117814401Y-139204469D02*
X117253059Y-139204469D01*
X117816941Y-140062991D02*
X117814401Y-139204469D01*
D11*
%TO.C,R22*%
X109871359Y-133085000D02*
X110178641Y-133085000D01*
X109871359Y-133845000D02*
X110178641Y-133845000D01*
D13*
%TO.C,Q3*%
X134618787Y-113618787D02*
X134618787Y-115071213D01*
X134618787Y-115071213D02*
X135650410Y-115071213D01*
X136600398Y-113618787D02*
X135689602Y-113618787D01*
X137671213Y-113618787D02*
X137671213Y-115071213D01*
X137671213Y-115071213D02*
X136639590Y-115071213D01*
D11*
%TO.C,RN1*%
X102415000Y-111244999D02*
X102415000Y-110744999D01*
X104775000Y-111244999D02*
X104775000Y-110744999D01*
%TO.C,C31*%
X120695000Y-124047164D02*
X120695000Y-124262836D01*
X121415000Y-124047164D02*
X121415000Y-124262836D01*
%TO.C,C92*%
X113788748Y-137690000D02*
X115211252Y-137690000D01*
X113788748Y-139510000D02*
X115211252Y-139510000D01*
%TO.C,R57*%
X132935000Y-117328641D02*
X132935000Y-117021359D01*
X133695000Y-117328641D02*
X133695000Y-117021359D01*
%TO.C,R36*%
X133435000Y-119521359D02*
X133435000Y-119828641D01*
X134195000Y-119521359D02*
X134195000Y-119828641D01*
%TO.C,R72*%
X129428640Y-139334999D02*
X129121358Y-139334999D01*
X129428640Y-140094999D02*
X129121358Y-140094999D01*
%TO.C,C8*%
X115695000Y-113797164D02*
X115695000Y-114012836D01*
X116415000Y-113797164D02*
X116415000Y-114012836D01*
%TO.C,C91*%
X136612836Y-103095000D02*
X136397164Y-103095000D01*
X136612836Y-103815000D02*
X136397164Y-103815000D01*
D14*
%TO.C,U11*%
X118373787Y-107978588D02*
X118373787Y-111021412D01*
X118373787Y-107978588D02*
X118832436Y-107978588D01*
X118373787Y-111021412D02*
X118832436Y-111021412D01*
X119157557Y-107978588D02*
X120102438Y-107978588D01*
X119157557Y-111021412D02*
X120102438Y-111021412D01*
X120427559Y-107978588D02*
X121372441Y-107978588D01*
X120427559Y-111021412D02*
X121372441Y-111021412D01*
X121697562Y-107978588D02*
X122642443Y-107978588D01*
X121697562Y-111021412D02*
X122642443Y-111021412D01*
X122967564Y-107978588D02*
X123426213Y-107978588D01*
X122967564Y-111021412D02*
X123426213Y-111021412D01*
X123426213Y-107978588D02*
X118373787Y-107978588D01*
X123426213Y-109051105D02*
X123426213Y-107978588D01*
X123426213Y-109935382D02*
X123426213Y-111021412D01*
X123426213Y-111021412D02*
X118373787Y-111021412D01*
X123426213Y-109051105D02*
G75*
G02*
X123426213Y-109935383I0J-442139D01*
G01*
D15*
X122955118Y-110516002D02*
G75*
G02*
X122654890Y-110516002I-150114J0D01*
G01*
X122654890Y-110516002D02*
G75*
G02*
X122955118Y-110516002I150114J0D01*
G01*
D12*
%TO.C,U23*%
X107875089Y-142575000D02*
X107875089Y-144375025D01*
X110975114Y-142575000D02*
X110975114Y-144375025D01*
X111203003Y-144872003D02*
G75*
G02*
X110949003Y-144872003I-127000J0D01*
G01*
X110949003Y-144872003D02*
G75*
G02*
X111203003Y-144872003I127000J0D01*
G01*
D11*
%TO.C,C70*%
X130835000Y-138756252D02*
X130835000Y-137333748D01*
X132655000Y-138756252D02*
X132655000Y-137333748D01*
%TO.C,R58*%
X136621359Y-111335000D02*
X136928641Y-111335000D01*
X136621359Y-112095000D02*
X136928641Y-112095000D01*
%TO.C,C21*%
X116695000Y-133512836D02*
X116695000Y-133297164D01*
X117415000Y-133512836D02*
X117415000Y-133297164D01*
%TO.C,R6*%
X115871359Y-134835000D02*
X116178641Y-134835000D01*
X115871359Y-135595000D02*
X116178641Y-135595000D01*
%TO.C,C43*%
X126195000Y-120297164D02*
X126195000Y-120512836D01*
X126915000Y-120297164D02*
X126915000Y-120512836D01*
%TO.C,R7*%
X118121359Y-134835000D02*
X118428641Y-134835000D01*
X118121359Y-135595000D02*
X118428641Y-135595000D01*
%TO.C,C34*%
X119445000Y-124047164D02*
X119445000Y-124262836D01*
X120165000Y-124047164D02*
X120165000Y-124262836D01*
%TO.C,R70*%
X100871358Y-109834999D02*
X101178640Y-109834999D01*
X100871358Y-110594999D02*
X101178640Y-110594999D01*
D18*
%TO.C,Y2*%
X134423689Y-121070536D02*
X137823689Y-121070536D01*
X134423689Y-125170536D02*
X134423689Y-121070536D01*
X137541876Y-120813995D02*
X138049877Y-120813995D01*
X137823689Y-121070536D02*
X137823689Y-125170536D01*
X137823689Y-125170536D02*
X134423689Y-125170536D01*
X138049877Y-120813995D02*
X138049877Y-121321996D01*
D11*
%TO.C,L5*%
X124890000Y-133390000D02*
X124890000Y-138610000D01*
X124890000Y-138610000D02*
X125140000Y-138610000D01*
X125140000Y-133390000D02*
X124890000Y-133390000D01*
X129860000Y-138610000D02*
X130110000Y-138610000D01*
X130110000Y-133390000D02*
X129860000Y-133390000D01*
X130110000Y-138610000D02*
X130110000Y-133390000D01*
%TO.C,C12*%
X128112836Y-115845000D02*
X127897164Y-115845000D01*
X128112836Y-116565000D02*
X127897164Y-116565000D01*
%TO.C,C14*%
X127362836Y-121845000D02*
X127147164Y-121845000D01*
X127362836Y-122565000D02*
X127147164Y-122565000D01*
%TO.C,C56*%
X137195000Y-117547164D02*
X137195000Y-117762836D01*
X137915000Y-117547164D02*
X137915000Y-117762836D01*
%TO.C,U26*%
X102435000Y-112654999D02*
X102435000Y-113654999D01*
X105255000Y-112654999D02*
X105255000Y-113444999D01*
X105255000Y-114054999D02*
X105255000Y-113774999D01*
X105535000Y-113774999D01*
X105255000Y-114054999D01*
G36*
X105255000Y-114054999D02*
G01*
X105255000Y-113774999D01*
X105535000Y-113774999D01*
X105255000Y-114054999D01*
G37*
%TO.C,C86*%
X133195000Y-114797164D02*
X133195000Y-115012836D01*
X133915000Y-114797164D02*
X133915000Y-115012836D01*
%TO.C,C9*%
X115397164Y-125595000D02*
X115612836Y-125595000D01*
X115397164Y-126315000D02*
X115612836Y-126315000D01*
%TO.C,C2*%
X126195000Y-113797164D02*
X126195000Y-114012836D01*
X126915000Y-113797164D02*
X126915000Y-114012836D01*
%TD*%
M02*
