%TF.GenerationSoftware,KiCad,Pcbnew,9.0.8+dfsg-1*%
%TF.CreationDate,2026-09-15T15:34:16+01:00*%
%TF.ProjectId,NAVCORE-SoOP,4e415643-4f52-4452-9d53-6f4f502e6b69,rev?*%
%TF.SameCoordinates,Original*%
%TF.FileFunction,Soldermask,Bot*%
%TF.FilePolarity,Negative*%
%FSLAX46Y46*%
G04 Gerber Fmt 4.6, Leading zero omitted, Abs format (unit mm)*
G04 Created by KiCad (PCBNEW 9.0.8+dfsg-1) date 2026-09-15 15:34:16*
%MOMM*%
%LPD*%
G01*
G04 APERTURE LIST*
G04 Aperture macros list*
%AMRoundRect*
0 Rectangle with rounded corners*
0 $1 Rounding radius*
0 $2 $3 $4 $5 $6 $7 $8 $9 X,Y pos of 4 corners*
0 Add a 4 corners polygon primitive as box body*
4,1,4,$2,$3,$4,$5,$6,$7,$8,$9,$2,$3,0*
0 Add four circle primitives for the rounded corners*
1,1,$1+$1,$2,$3*
1,1,$1+$1,$4,$5*
1,1,$1+$1,$6,$7*
1,1,$1+$1,$8,$9*
0 Add four rect primitives between the rounded corners*
20,1,$1+$1,$2,$3,$4,$5,0*
20,1,$1+$1,$4,$5,$6,$7,0*
20,1,$1+$1,$6,$7,$8,$9,0*
20,1,$1+$1,$8,$9,$2,$3,0*%
G04 Aperture macros list end*
%ADD10C,0.700025*%
%ADD11O,1.100000X2.000000*%
%ADD12O,1.200000X1.800000*%
%ADD13RoundRect,0.140000X0.170000X-0.140000X0.170000X0.140000X-0.170000X0.140000X-0.170000X-0.140000X0*%
%ADD14RoundRect,0.135000X-0.135000X-0.185000X0.135000X-0.185000X0.135000X0.185000X-0.135000X0.185000X0*%
%ADD15RoundRect,0.140000X0.140000X0.170000X-0.140000X0.170000X-0.140000X-0.170000X0.140000X-0.170000X0*%
%ADD16RoundRect,0.135000X0.185000X-0.135000X0.185000X0.135000X-0.185000X0.135000X-0.185000X-0.135000X0*%
%ADD17RoundRect,0.135000X0.135000X0.185000X-0.135000X0.185000X-0.135000X-0.185000X0.135000X-0.185000X0*%
%ADD18RoundRect,0.250000X0.375000X1.075000X-0.375000X1.075000X-0.375000X-1.075000X0.375000X-1.075000X0*%
%ADD19RoundRect,0.140000X-0.140000X-0.170000X0.140000X-0.170000X0.140000X0.170000X-0.140000X0.170000X0*%
%ADD20RoundRect,0.250000X0.325000X0.650000X-0.325000X0.650000X-0.325000X-0.650000X0.325000X-0.650000X0*%
%ADD21R,1.500000X1.500000*%
%ADD22R,0.675006X0.280010*%
%ADD23R,0.280010X0.675006*%
%ADD24R,0.900000X1.700000*%
%ADD25R,1.000000X0.650013*%
%ADD26O,0.280010X0.789992*%
%ADD27O,0.789992X0.280010*%
%ADD28R,3.250013X3.250013*%
%ADD29O,0.629997X1.864999*%
%ADD30RoundRect,0.250000X0.250000X0.475000X-0.250000X0.475000X-0.250000X-0.475000X0.250000X-0.475000X0*%
%ADD31R,0.910008X1.219990*%
%ADD32R,1.400000X1.200000*%
%ADD33R,0.532004X1.072009*%
%ADD34C,1.000000*%
%ADD35R,0.600000X1.300000*%
%ADD36R,1.200000X1.400000*%
%ADD37R,1.200000X2.000000*%
%ADD38RoundRect,0.250000X-0.325000X-0.650000X0.325000X-0.650000X0.325000X0.650000X-0.325000X0.650000X0*%
%ADD39R,0.600000X1.500000*%
%ADD40R,1.550013X0.600000*%
%ADD41R,1.800000X1.200000*%
%ADD42R,2.024003X2.940005*%
G04 APERTURE END LIST*
D10*
%TO.C,J1*%
X125389891Y-105129928D03*
X119609855Y-105129928D03*
D11*
X126824994Y-105650121D03*
D12*
X126824994Y-101449968D03*
D11*
X118175006Y-105650121D03*
D12*
X118175006Y-101449968D03*
%TD*%
D13*
%TO.C,C64*%
X133692600Y-115780100D03*
X133692600Y-114820100D03*
%TD*%
D14*
%TO.C,R28*%
X137090100Y-111592600D03*
X138110100Y-111592600D03*
%TD*%
D15*
%TO.C,C3*%
X126119900Y-113767900D03*
X125159900Y-113767900D03*
%TD*%
D16*
%TO.C,R30*%
X136600100Y-121717400D03*
X136600100Y-120697400D03*
%TD*%
D17*
%TO.C,R43*%
X138977200Y-121445100D03*
X137957200Y-121445100D03*
%TD*%
%TO.C,R9*%
X111340100Y-119580000D03*
X110320100Y-119580000D03*
%TD*%
D18*
%TO.C,L5*%
X128898700Y-119003000D03*
X126098700Y-119003000D03*
%TD*%
D15*
%TO.C,C11*%
X125260000Y-125129900D03*
X124300000Y-125129900D03*
%TD*%
D19*
%TO.C,C59*%
X133515000Y-121395000D03*
X134475000Y-121395000D03*
%TD*%
D17*
%TO.C,R26*%
X111894900Y-134055000D03*
X110874900Y-134055000D03*
%TD*%
D15*
%TO.C,C33*%
X124030000Y-113356900D03*
X123070000Y-113356900D03*
%TD*%
D20*
%TO.C,C22*%
X130725000Y-107950000D03*
X127775000Y-107950000D03*
%TD*%
D16*
%TO.C,R37*%
X135100000Y-116917400D03*
X135100000Y-115897400D03*
%TD*%
D17*
%TO.C,R10*%
X111840100Y-120946200D03*
X110820100Y-120946200D03*
%TD*%
D15*
%TO.C,C5*%
X111310100Y-123580000D03*
X110350100Y-123580000D03*
%TD*%
D17*
%TO.C,R19*%
X117948400Y-126540600D03*
X116928400Y-126540600D03*
%TD*%
D15*
%TO.C,C27*%
X137330000Y-126169700D03*
X136370000Y-126169700D03*
%TD*%
%TO.C,C41*%
X114187300Y-106872700D03*
X113227300Y-106872700D03*
%TD*%
D14*
%TO.C,R41*%
X132566600Y-125335800D03*
X133586600Y-125335800D03*
%TD*%
D21*
%TO.C,PV1*%
X111450000Y-139950000D03*
%TD*%
D19*
%TO.C,C61*%
X134120100Y-118007400D03*
X135080100Y-118007400D03*
%TD*%
%TO.C,C57*%
X142827400Y-119500100D03*
X143787400Y-119500100D03*
%TD*%
D15*
%TO.C,C4*%
X111565600Y-109089600D03*
X110605600Y-109089600D03*
%TD*%
D19*
%TO.C,C50*%
X142827400Y-116000000D03*
X143787400Y-116000000D03*
%TD*%
D15*
%TO.C,C10*%
X122860000Y-125129900D03*
X121900000Y-125129900D03*
%TD*%
D17*
%TO.C,R5*%
X137894300Y-122993000D03*
X136874300Y-122993000D03*
%TD*%
D15*
%TO.C,C32*%
X120918700Y-113383700D03*
X119958700Y-113383700D03*
%TD*%
D22*
%TO.C,U2*%
X121912002Y-108649936D03*
X121912002Y-109150064D03*
X121912002Y-109649936D03*
X121912002Y-110150064D03*
D23*
X121150000Y-110412446D03*
X120650127Y-110412446D03*
X120150000Y-110412446D03*
D22*
X119387998Y-110150064D03*
X119387998Y-109649936D03*
X119387998Y-109150064D03*
X119387998Y-108649936D03*
D23*
X120150000Y-108387554D03*
X120650127Y-108387554D03*
X121150000Y-108387554D03*
%TD*%
D24*
%TO.C,SW1*%
X112153800Y-116999700D03*
X108753800Y-116999700D03*
%TD*%
D25*
%TO.C,Q4*%
X103450000Y-103100038D03*
X103450000Y-104999962D03*
X101450000Y-104050000D03*
%TD*%
D26*
%TO.C,U13*%
X137600127Y-114592583D03*
X138100000Y-114592583D03*
X138600127Y-114592583D03*
X139100000Y-114592583D03*
X139600127Y-114592583D03*
X140100000Y-114592583D03*
X140600127Y-114592583D03*
D27*
X141507417Y-115500127D03*
X141507417Y-116000000D03*
X141507417Y-116500127D03*
X141507417Y-117000000D03*
X141507417Y-117500127D03*
X141507417Y-118000000D03*
X141507417Y-118500127D03*
D26*
X140600127Y-119407417D03*
X140100000Y-119407417D03*
X139600127Y-119407417D03*
X139100000Y-119407417D03*
X138600127Y-119407417D03*
X138100000Y-119407417D03*
X137600127Y-119407417D03*
D27*
X136692583Y-118500127D03*
X136692583Y-118000000D03*
X136692583Y-117500127D03*
X136692583Y-117000000D03*
X136692583Y-116500127D03*
X136692583Y-116000000D03*
X136692583Y-115500127D03*
D28*
X139099746Y-117000000D03*
%TD*%
D14*
%TO.C,R45*%
X107740000Y-129250000D03*
X108760000Y-129250000D03*
%TD*%
D19*
%TO.C,C62*%
X133612600Y-119100100D03*
X134572600Y-119100100D03*
%TD*%
D21*
%TO.C,PV2*%
X137220000Y-132850100D03*
%TD*%
D29*
%TO.C,U14*%
X101894996Y-111367501D03*
X103164999Y-111367501D03*
X104435001Y-111367501D03*
X105705004Y-111367501D03*
X105705004Y-116732499D03*
X104435001Y-116732499D03*
X103164999Y-116732499D03*
X101894996Y-116732499D03*
%TD*%
D14*
%TO.C,R46*%
X105540000Y-101150000D03*
X106560000Y-101150000D03*
%TD*%
%TO.C,R38*%
X142870000Y-111720000D03*
X143890000Y-111720000D03*
%TD*%
D30*
%TO.C,C7*%
X111188800Y-112408200D03*
X109288800Y-112408200D03*
%TD*%
D19*
%TO.C,C58*%
X142027400Y-120700100D03*
X142987400Y-120700100D03*
%TD*%
D20*
%TO.C,C23*%
X130846200Y-110428400D03*
X127896200Y-110428400D03*
%TD*%
D15*
%TO.C,C19*%
X124360600Y-118248700D03*
X123400600Y-118248700D03*
%TD*%
%TO.C,C68*%
X128096800Y-124133000D03*
X127136800Y-124133000D03*
%TD*%
D19*
%TO.C,C52*%
X137650000Y-104002800D03*
X138610000Y-104002800D03*
%TD*%
D15*
%TO.C,C15*%
X120177600Y-119601000D03*
X119217600Y-119601000D03*
%TD*%
D17*
%TO.C,R12*%
X124338800Y-112144400D03*
X123318800Y-112144400D03*
%TD*%
D14*
%TO.C,R39*%
X142723700Y-113112300D03*
X143743700Y-113112300D03*
%TD*%
D19*
%TO.C,C51*%
X140020000Y-120807400D03*
X140980000Y-120807400D03*
%TD*%
D14*
%TO.C,R31*%
X129440000Y-112950000D03*
X130460000Y-112950000D03*
%TD*%
D15*
%TO.C,C16*%
X115234900Y-116541500D03*
X114274900Y-116541500D03*
%TD*%
D14*
%TO.C,R34*%
X142797400Y-118300100D03*
X143817400Y-118300100D03*
%TD*%
D19*
%TO.C,C63*%
X133612600Y-120200000D03*
X134572600Y-120200000D03*
%TD*%
D31*
%TO.C,DZ1*%
X105614897Y-103350000D03*
X108885103Y-103350000D03*
%TD*%
D15*
%TO.C,C26*%
X139930000Y-126169700D03*
X138970000Y-126169700D03*
%TD*%
D22*
%TO.C,U3*%
X126012002Y-108649936D03*
X126012002Y-109150064D03*
X126012002Y-109649936D03*
X126012002Y-110150064D03*
D23*
X125250000Y-110412446D03*
X124750127Y-110412446D03*
X124250000Y-110412446D03*
D22*
X123487998Y-110150064D03*
X123487998Y-109649936D03*
X123487998Y-109150064D03*
X123487998Y-108649936D03*
D23*
X124250000Y-108387554D03*
X124750127Y-108387554D03*
X125250000Y-108387554D03*
%TD*%
D32*
%TO.C,Y1*%
X115149924Y-118399987D03*
X117350076Y-118399987D03*
X117350076Y-120100013D03*
X115149924Y-120100013D03*
%TD*%
D20*
%TO.C,C17*%
X125340000Y-115645100D03*
X122390000Y-115645100D03*
%TD*%
D19*
%TO.C,C60*%
X142827400Y-114300100D03*
X143787400Y-114300100D03*
%TD*%
D17*
%TO.C,R25*%
X111894900Y-132665000D03*
X110874900Y-132665000D03*
%TD*%
D15*
%TO.C,C73*%
X131730000Y-126750000D03*
X130770000Y-126750000D03*
%TD*%
%TO.C,C35*%
X118064100Y-113418900D03*
X117104100Y-113418900D03*
%TD*%
D17*
%TO.C,R11*%
X124526700Y-119497300D03*
X123506700Y-119497300D03*
%TD*%
D20*
%TO.C,C18*%
X131463600Y-116025500D03*
X128513600Y-116025500D03*
%TD*%
D14*
%TO.C,R29*%
X133782600Y-113700100D03*
X134802600Y-113700100D03*
%TD*%
D33*
%TO.C,U12*%
X123885962Y-106011998D03*
X122936000Y-106011998D03*
X121986038Y-106011998D03*
X121986038Y-103713802D03*
X122936000Y-103713802D03*
X123885962Y-103713802D03*
%TD*%
D19*
%TO.C,C65*%
X108594900Y-143751100D03*
X109554900Y-143751100D03*
%TD*%
D34*
%TO.C,J8*%
X127149962Y-140051091D03*
X119149962Y-140051091D03*
D35*
X119959995Y-129208901D03*
X121060046Y-129208901D03*
X122160097Y-129208901D03*
X123260147Y-129208901D03*
X124359970Y-129208901D03*
X125460020Y-129208901D03*
X126560071Y-129208901D03*
X127659893Y-129208901D03*
X128759995Y-129209308D03*
D36*
X129959995Y-130059295D03*
D37*
X129959995Y-139761099D03*
X114440030Y-139761099D03*
D36*
X115279985Y-130059295D03*
%TD*%
D38*
%TO.C,C69*%
X127727800Y-121961700D03*
X130677800Y-121961700D03*
%TD*%
D14*
%TO.C,R42*%
X131400600Y-120036600D03*
X132420600Y-120036600D03*
%TD*%
D39*
%TO.C,U4*%
X117375032Y-111429898D03*
X116125095Y-111429898D03*
X114874905Y-111429898D03*
X113624968Y-111429898D03*
X113624968Y-108829949D03*
X114874905Y-108829949D03*
X116125095Y-108829949D03*
X117375032Y-108829949D03*
%TD*%
D15*
%TO.C,C1*%
X117860000Y-125129900D03*
X116900000Y-125129900D03*
%TD*%
D40*
%TO.C,J11*%
X105778024Y-134319873D03*
X105778024Y-133319873D03*
X105777516Y-132319619D03*
X105777516Y-131319619D03*
D41*
X101901976Y-130019898D03*
X101902484Y-135620102D03*
%TD*%
D17*
%TO.C,R18*%
X118090000Y-122012200D03*
X117070000Y-122012200D03*
%TD*%
D19*
%TO.C,C49*%
X135120100Y-112592600D03*
X136080100Y-112592600D03*
%TD*%
D15*
%TO.C,C44*%
X120213800Y-126522200D03*
X119253800Y-126522200D03*
%TD*%
D16*
%TO.C,R35*%
X141000100Y-112702600D03*
X141000100Y-111682600D03*
%TD*%
D17*
%TO.C,R23*%
X111894900Y-129885000D03*
X110874900Y-129885000D03*
%TD*%
D19*
%TO.C,C66*%
X129385000Y-123925100D03*
X130345000Y-123925100D03*
%TD*%
D17*
%TO.C,R22*%
X111894900Y-128495000D03*
X110874900Y-128495000D03*
%TD*%
D25*
%TO.C,Q3*%
X107250000Y-127699962D03*
X107250000Y-125800038D03*
X109250000Y-126750000D03*
%TD*%
D15*
%TO.C,C31*%
X122124400Y-111934100D03*
X121164400Y-111934100D03*
%TD*%
D17*
%TO.C,R27*%
X111894900Y-135445000D03*
X110874900Y-135445000D03*
%TD*%
D14*
%TO.C,R36*%
X103440000Y-101550000D03*
X104460000Y-101550000D03*
%TD*%
D15*
%TO.C,C8*%
X126409900Y-112580000D03*
X125449900Y-112580000D03*
%TD*%
D21*
%TO.C,TP6*%
X113950000Y-122750000D03*
%TD*%
D38*
%TO.C,C70*%
X119811600Y-121768800D03*
X122761600Y-121768800D03*
%TD*%
D15*
%TO.C,C21*%
X128225000Y-114172900D03*
X127265000Y-114172900D03*
%TD*%
D17*
%TO.C,R6*%
X133320000Y-109830000D03*
X132300000Y-109830000D03*
%TD*%
D15*
%TO.C,C43*%
X120260000Y-125129900D03*
X119300000Y-125129900D03*
%TD*%
D17*
%TO.C,R7*%
X134420000Y-108430000D03*
X133400000Y-108430000D03*
%TD*%
D30*
%TO.C,C42*%
X123050100Y-101635000D03*
X121150100Y-101635000D03*
%TD*%
D15*
%TO.C,C34*%
X120073800Y-111723400D03*
X119113800Y-111723400D03*
%TD*%
D42*
%TO.C,D1*%
X107357073Y-120936400D03*
X102712927Y-120936400D03*
%TD*%
D32*
%TO.C,Y2*%
X140727324Y-122625068D03*
X142927476Y-122625068D03*
X142927476Y-124375132D03*
X140727324Y-124375132D03*
%TD*%
D17*
%TO.C,R24*%
X111894900Y-131275000D03*
X110874900Y-131275000D03*
%TD*%
D15*
%TO.C,C12*%
X122506500Y-126522200D03*
X121546500Y-126522200D03*
%TD*%
%TO.C,C14*%
X118021900Y-123643600D03*
X117061900Y-123643600D03*
%TD*%
D19*
%TO.C,C56*%
X142827400Y-117200000D03*
X143787400Y-117200000D03*
%TD*%
D17*
%TO.C,R4*%
X131334900Y-125488300D03*
X130314900Y-125488300D03*
%TD*%
D15*
%TO.C,C9*%
X111708100Y-110487500D03*
X110748100Y-110487500D03*
%TD*%
D40*
%TO.C,J5*%
X139721976Y-129420127D03*
X139721976Y-130420127D03*
X139722484Y-131420381D03*
X139722484Y-132420381D03*
D41*
X143598024Y-133720102D03*
X143597516Y-128119898D03*
%TD*%
D21*
%TO.C,TP5*%
X111450000Y-101950000D03*
%TD*%
D15*
%TO.C,C36*%
X139806600Y-113159200D03*
X138846600Y-113159200D03*
%TD*%
%TO.C,C2*%
X126142300Y-122782900D03*
X125182300Y-122782900D03*
%TD*%
M02*
