M48
; DRILL file {KiCad 9.0.8+dfsg-1} date 2026-09-26T16:33:47+0100
; FORMAT={-:-/ absolute / metric / decimal}
; #@! TF.CreationDate,2026-09-26T16:33:47+01:00
; #@! TF.GenerationSoftware,Kicad,Pcbnew,9.0.8+dfsg-1
; #@! TF.FileFunction,MixedPlating,1,6
FMAT,2
METRIC
; #@! TA.AperFunction,Plated,PTH,ViaDrill
T1C0.200
; #@! TA.AperFunction,Plated,PTH,ViaDrill
T2C0.300
; #@! TA.AperFunction,Plated,PTH,ComponentDrill
T3C0.600
; #@! TA.AperFunction,NonPlated,NPTH,ComponentDrill
T4C0.700
; #@! TA.AperFunction,NonPlated,NPTH,ComponentDrill
T5C1.000
%
G90
G05
T1
X102.614Y-137.212
X103.291Y-108.536
X103.962Y-112.902
X103.972Y-108.541
X104.001Y-139.186
X104.332Y-105.082
X104.517Y-115.319
X106.385Y-127.314
X107.0Y-125.97
X107.473Y-124.689
X108.938Y-119.921
X108.945Y-121.73
X109.257Y-131.321
X109.467Y-123.049
X109.578Y-115.631
X109.643Y-116.235
X109.654Y-114.862
X109.689Y-113.64
X109.692Y-125.644
X109.959Y-108.72
X110.025Y-131.346
X110.27Y-129.67
X110.306Y-130.309
X110.721Y-109.797
X111.31Y-123.58
X111.411Y-134.814
X111.632Y-132.795
X111.726Y-125.498
X111.742Y-109.796
X111.975Y-115.699
X112.162Y-111.772
X112.331Y-110.403
X112.334Y-128.247
X112.71Y-122.514
X112.885Y-108.427
X112.899Y-127.998
X112.945Y-118.095
X112.988Y-117.337
X113.653Y-117.517
X113.811Y-123.869
X114.056Y-126.339
X114.61Y-107.535
X114.806Y-117.28
X114.851Y-128.153
X117.081Y-122.859
X117.32Y-123.731
X117.4Y-124.3
X117.74Y-128.996
X118.66Y-108.648
X118.787Y-129.161
X118.8Y-123.8
X118.83Y-122.417
X119.01Y-115.78
X119.098Y-126.79
X119.163Y-107.082
X119.557Y-127.288
X120.29Y-123.811
X120.355Y-123.0
X120.529Y-127.216
X120.691Y-111.422
X120.781Y-104.698
X120.868Y-107.616
X121.086Y-133.4
X121.087Y-132.737
X121.173Y-123.561
X122.198Y-115.15
X122.597Y-108.906
X122.673Y-123.665
X123.04Y-128.571
X123.3Y-115.921
X123.521Y-128.002
X123.529Y-123.867
X123.914Y-105.086
X123.934Y-130.629
X124.497Y-112.816
X124.671Y-117.517
X124.79Y-131.009
X124.884Y-111.456
X125.189Y-126.883
X125.439Y-107.146
X125.828Y-110.858
X125.969Y-132.244
X126.048Y-123.069
X126.65Y-112.58
X126.8Y-131.8
X127.262Y-121.246
X127.55Y-111.71
X127.6Y-120.8
X127.73Y-123.193
X127.751Y-113.607
X127.974Y-109.188
X128.0Y-127.1
X128.013Y-117.604
X128.347Y-126.091
X128.492Y-121.933
X128.71Y-115.99
X128.778Y-120.713
X128.894Y-112.143
X129.005Y-122.169
X129.574Y-138.4
X129.918Y-111.172
X129.987Y-124.798
X130.505Y-120.758
X130.692Y-119.672
X130.741Y-114.749
X130.931Y-119.173
X130.946Y-124.822
X131.155Y-109.189
X131.167Y-121.409
X131.191Y-112.745
X131.8Y-119.9
X132.369Y-126.602
X132.625Y-115.787
X133.214Y-112.271
X133.99Y-109.754
X134.184Y-104.412
X134.423Y-116.994
X134.44Y-118.704
X134.477Y-119.538
X134.605Y-112.029
X135.728Y-118.103
X135.757Y-116.959
X136.12Y-118.897
X136.137Y-126.818
X136.43Y-111.99
X137.077Y-113.155
X138.191Y-120.337
X138.639Y-113.095
X139.534Y-120.193
X139.83Y-112.808
X139.901Y-116.523
X140.323Y-120.121
X140.742Y-120.66
X140.75Y-114.1
X140.97Y-105.5
X141.0Y-111.7
X142.133Y-104.425
X142.35Y-109.3
X142.79Y-118.3
X142.82Y-116.0
X142.827Y-117.2
X143.439Y-110.548
T2
X101.256Y-107.6
X101.256Y-140.6
X101.852Y-115.001
X102.0Y-102.0
X102.0Y-129.0
X102.023Y-108.52
X102.075Y-137.246
X102.416Y-106.832
X102.528Y-145.054
X102.713Y-123.173
X102.733Y-144.288
X103.013Y-107.347
X103.129Y-125.2
X103.22Y-132.58
X103.23Y-130.787
X103.433Y-114.082
X103.466Y-127.4
X103.472Y-145.054
X103.554Y-122.9
X103.837Y-125.078
X103.894Y-130.543
X103.988Y-118.526
X104.024Y-135.958
X104.313Y-114.486
X104.374Y-126.087
X104.531Y-120.181
X104.572Y-113.557
X104.745Y-125.415
X105.298Y-122.431
X105.406Y-113.369
X105.6Y-141.6
X106.281Y-144.684
X106.304Y-104.827
X106.786Y-103.664
X106.978Y-118.645
X106.978Y-130.672
X106.984Y-111.109
X106.991Y-115.937
X107.297Y-124.028
X107.376Y-117.196
X107.4Y-102.0
X107.43Y-101.15
X107.655Y-116.446
X108.014Y-134.109
X108.06Y-118.724
X108.113Y-123.022
X108.178Y-126.658
X108.409Y-135.575
X108.573Y-131.818
X109.077Y-133.352
X109.238Y-119.007
X109.483Y-120.629
X109.565Y-101.245
X109.66Y-124.536
X109.67Y-134.0
X109.741Y-136.355
X109.824Y-103.2
X109.99Y-128.996
X110.012Y-142.5
X110.119Y-102.475
X110.156Y-138.4
X110.354Y-126.85
X110.627Y-144.683
X110.856Y-125.772
X111.0Y-141.6
X111.0Y-143.4
X111.192Y-103.801
X111.468Y-138.137
X111.739Y-105.401
X112.313Y-112.82
X112.343Y-118.732
X112.565Y-123.499
X112.566Y-120.554
X112.629Y-139.269
X112.771Y-103.939
X112.8Y-141.6
X112.8Y-143.4
X113.152Y-138.78
X113.236Y-106.064
X113.28Y-116.092
X113.325Y-114.719
X113.361Y-104.798
X113.426Y-112.664
X113.53Y-119.506
X113.826Y-134.505
X114.028Y-114.706
X114.231Y-113.515
X114.6Y-141.6
X114.6Y-143.4
X116.043Y-138.4
X116.173Y-123.225
X116.234Y-104.726
X116.4Y-139.8
X116.4Y-141.6
X116.4Y-106.504
X116.738Y-134.418
X116.893Y-126.249
X117.355Y-112.638
X117.58Y-106.315
X117.708Y-122.797
X117.826Y-144.683
X118.105Y-117.125
X118.143Y-103.35
X118.2Y-132.6
X118.2Y-141.6
X118.286Y-111.466
X118.29Y-102.345
X118.591Y-107.481
X118.779Y-143.446
X118.832Y-120.661
X119.091Y-112.779
X119.231Y-113.482
X119.667Y-130.362
X119.841Y-114.156
X119.986Y-107.567
X120.0Y-136.2
X120.0Y-141.6
X120.058Y-143.128
X120.159Y-112.555
X120.575Y-131.09
X121.056Y-103.984
X121.19Y-115.696
X121.712Y-130.417
X121.743Y-112.872
X121.8Y-136.2
X121.8Y-138.0
X122.019Y-114.202
X122.138Y-142.747
X122.205Y-117.186
X122.237Y-107.369
X122.418Y-133.228
X122.5Y-138.4
X122.688Y-118.634
X122.759Y-142.13
X122.91Y-102.614
X122.914Y-101.28
X123.211Y-114.207
X123.216Y-123.282
X123.337Y-126.509
X123.406Y-133.258
X123.43Y-120.489
X123.435Y-139.86
X123.5Y-111.285
X123.6Y-107.4
X123.6Y-136.2
X123.825Y-101.435
X123.908Y-121.309
X124.116Y-114.674
X124.162Y-132.265
X124.271Y-115.724
X124.328Y-122.386
X124.415Y-107.237
X124.53Y-121.683
X124.568Y-120.227
X124.884Y-126.16
X124.895Y-144.001
X125.082Y-109.221
X125.4Y-132.6
X125.4Y-139.8
X125.929Y-131.406
X126.076Y-100.948
X126.155Y-144.504
X126.426Y-107.317
X126.449Y-125.012
X126.489Y-135.777
X126.84Y-103.369
X127.194Y-116.314
X127.367Y-120.102
X127.459Y-115.61
X128.149Y-143.697
X128.185Y-113.02
X128.28Y-111.869
X128.435Y-138.287
X128.603Y-103.2
X128.861Y-101.543
X129.072Y-136.622
X129.249Y-141.872
X129.494Y-122.872
X129.54Y-116.44
X129.797Y-115.675
X130.245Y-130.293
X130.315Y-131.386
X130.379Y-138.198
X130.491Y-142.797
X130.76Y-136.206
X131.352Y-140.28
X131.73Y-111.825
X131.755Y-114.195
X132.6Y-132.6
X132.653Y-130.246
X132.677Y-112.94
X132.805Y-121.347
X132.935Y-117.523
X132.984Y-140.021
X133.063Y-103.985
X133.21Y-102.474
X133.26Y-103.2
X133.261Y-116.478
X133.293Y-126.499
X133.349Y-107.316
X133.447Y-122.502
X133.819Y-133.756
X133.907Y-123.615
X134.079Y-122.139
X134.4Y-111.0
X134.4Y-130.8
X135.189Y-126.416
X135.304Y-105.289
X135.576Y-140.908
X135.753Y-120.345
X135.835Y-115.92
X135.879Y-124.433
X135.981Y-123.24
X136.073Y-105.383
X136.129Y-101.712
X136.2Y-130.8
X136.2Y-134.4
X136.222Y-119.763
X136.279Y-141.272
X136.506Y-142.876
X137.139Y-112.53
X137.414Y-125.22
X137.567Y-102.999
X137.62Y-130.451
X137.692Y-127.152
X138.0Y-102.0
X138.0Y-134.4
X138.0Y-143.4
X138.07Y-112.816
X138.323Y-130.224
X138.401Y-125.502
X138.732Y-132.85
X138.773Y-110.595
X139.538Y-123.312
X140.148Y-111.885
X140.156Y-106.244
X140.424Y-125.417
X140.473Y-108.722
X140.685Y-110.044
X140.77Y-126.395
X140.961Y-129.752
X140.961Y-132.752
X140.968Y-104.509
X141.375Y-119.149
X141.418Y-106.826
X141.596Y-132.12
X141.6Y-109.2
X141.6Y-114.6
X141.6Y-129.0
X141.6Y-130.8
X141.6Y-134.4
X141.6Y-138.0
X141.6Y-139.8
X141.6Y-141.6
X141.6Y-143.4
X141.87Y-127.4
X141.87Y-112.703
X141.962Y-135.45
X141.983Y-101.712
X142.11Y-144.283
X142.184Y-145.103
X143.283Y-103.04
X143.438Y-140.983
X143.524Y-116.215
X143.877Y-141.604
X143.994Y-129.601
X143.995Y-135.201
X144.012Y-115.14
X144.012Y-116.84
X144.012Y-120.34
X144.034Y-108.281
X144.035Y-102.681
X144.117Y-123.312
X144.121Y-110.561
X144.179Y-113.866
T4
X119.61Y-105.13
X125.39Y-105.13
T5
X119.15Y-140.051
X127.15Y-140.051
T3
X118.175Y-101.75G85X118.175Y-101.15
G05
X118.175Y-106.1G85X118.175Y-105.2
G05
X126.825Y-101.75G85X126.825Y-101.15
G05
X126.825Y-106.1G85X126.825Y-105.2
G05
M30
