M48
; DRILL file {KiCad 9.0.8+dfsg-1} date 2026-09-30T16:01:07+0100
; FORMAT={-:-/ absolute / metric / decimal}
; #@! TF.CreationDate,2026-09-30T16:01:07+01:00
; #@! TF.GenerationSoftware,Kicad,Pcbnew,9.0.8+dfsg-1
; #@! TF.FileFunction,MixedPlating,1,6
FMAT,2
METRIC
; #@! TA.AperFunction,Plated,PTH,ViaDrill
T1C0.200
; #@! TA.AperFunction,Plated,PTH,ViaDrill
T2C0.250
; #@! TA.AperFunction,Plated,PTH,ViaDrill
T3C0.300
; #@! TA.AperFunction,Plated,PTH,ComponentDrill
T4C0.600
; #@! TA.AperFunction,NonPlated,NPTH,ComponentDrill
T5C0.700
; #@! TA.AperFunction,NonPlated,NPTH,ComponentDrill
T6C1.000
%
G90
G05
T1
X102.656Y-118.806
X102.713Y-109.457
X103.43Y-118.505
X103.698Y-108.255
X103.719Y-122.244
X103.742Y-127.626
X104.158Y-118.868
X104.553Y-119.544
X104.553Y-120.158
X104.581Y-121.399
X104.594Y-110.744
X105.264Y-113.286
X106.156Y-110.744
X106.632Y-128.902
X106.757Y-132.321
X106.781Y-122.681
X106.844Y-129.883
X106.884Y-115.962
X107.307Y-118.079
X108.091Y-118.208
X108.158Y-103.053
X108.689Y-121.802
X108.793Y-128.586
X109.152Y-129.891
X109.469Y-131.384
X109.573Y-125.952
X109.578Y-117.829
X109.633Y-115.933
X110.246Y-132.695
X110.344Y-126.181
X110.476Y-131.875
X110.647Y-123.09
X110.789Y-133.36
X110.846Y-124.783
X110.876Y-130.583
X111.31Y-123.58
X112.144Y-112.436
X112.189Y-127.825
X112.406Y-105.931
X112.517Y-128.439
X112.958Y-116.291
X113.049Y-126.536
X113.5Y-139.848
X113.969Y-121.994
X114.168Y-112.423
X114.41Y-131.62
X114.741Y-106.105
X115.469Y-128.181
X115.705Y-136.755
X116.138Y-107.687
X116.161Y-123.971
X116.249Y-120.353
X116.281Y-116.306
X116.455Y-134.407
X116.87Y-112.711
X116.906Y-106.431
X116.996Y-122.954
X117.447Y-130.565
X117.781Y-116.306
X117.906Y-133.369
X117.963Y-107.854
X118.038Y-108.459
X118.081Y-121.331
X118.622Y-118.717
X118.822Y-131.708
X119.058Y-129.386
X119.457Y-108.107
X119.573Y-115.45
X119.906Y-127.994
X120.3Y-107.448
X120.344Y-103.619
X120.391Y-123.991
X121.071Y-107.41
X121.201Y-111.286
X121.343Y-116.079
X121.754Y-103.293
X122.197Y-104.101
X122.279Y-111.252
X122.503Y-134.85
X122.986Y-123.979
X123.096Y-113.617
X123.119Y-126.317
X123.168Y-111.221
X123.726Y-126.928
X124.055Y-112.807
X124.637Y-114.043
X124.716Y-126.202
X125.337Y-102.127
X125.906Y-123.077
X126.844Y-109.494
X126.844Y-131.181
X126.892Y-107.607
X126.906Y-103.556
X126.943Y-110.309
X126.95Y-111.2
X126.969Y-124.056
X127.427Y-116.764
X127.578Y-116.115
X127.748Y-128.211
X128.205Y-113.429
X128.344Y-104.994
X128.476Y-112.533
X128.514Y-121.976
X128.531Y-113.931
X128.594Y-127.369
X128.623Y-124.298
X128.706Y-105.53
X128.757Y-106.634
X129.322Y-122.722
X129.413Y-113.807
X129.543Y-114.478
X129.893Y-119.652
X130.541Y-115.049
X130.772Y-119.648
X131.215Y-112.686
X131.326Y-124.287
X131.772Y-119.376
X132.377Y-115.648
X132.439Y-124.175
X132.467Y-140.826
X132.906Y-108.556
X132.989Y-111.799
X133.063Y-112.399
X133.094Y-106.869
X133.095Y-111.229
X133.406Y-102.681
X133.406Y-106.369
X133.406Y-107.931
X133.844Y-107.056
X134.002Y-122.388
X134.368Y-117.098
X134.557Y-116.346
X134.66Y-119.41
X134.719Y-123.931
X135.925Y-116.198
X136.634Y-119.158
X136.998Y-130.132
X137.576Y-115.02
X138.712Y-120.449
X138.754Y-122.481
X138.762Y-121.688
X140.094Y-112.181
X142.199Y-119.658
X142.621Y-129.13
X142.867Y-113.333
X142.906Y-112.181
X143.031Y-112.806
T2
X117.551Y-131.931
X123.896Y-111.207
X126.54Y-127.88
T3
X101.412Y-111.656
X101.763Y-133.952
X102.0Y-103.2
X102.0Y-115.8
X102.0Y-117.6
X102.0Y-130.2
X102.0Y-137.4
X102.0Y-142.8
X102.05Y-135.768
X102.159Y-145.372
X102.265Y-126.568
X102.293Y-124.544
X102.488Y-105.39
X102.552Y-128.252
X102.594Y-122.697
X102.608Y-144.788
X103.129Y-115.458
X103.129Y-130.496
X103.129Y-135.154
X103.269Y-114.423
X103.45Y-106.048
X103.656Y-123.181
X103.8Y-101.4
X103.8Y-128.4
X103.8Y-130.2
X103.8Y-135.6
X103.8Y-142.8
X104.243Y-132.937
X104.647Y-110.109
X104.739Y-125.308
X104.781Y-124.119
X104.899Y-106.136
X104.907Y-109.378
X105.057Y-102.629
X105.6Y-110.4
X105.6Y-133.8
X105.6Y-142.8
X105.759Y-145.372
X105.86Y-113.866
X106.094Y-132.931
X107.319Y-118.911
X107.4Y-101.4
X107.4Y-142.8
X107.43Y-113.306
X107.469Y-110.431
X107.646Y-122.733
X107.901Y-112.67
X108.55Y-113.444
X109.052Y-122.731
X109.2Y-135.6
X109.282Y-104.611
X109.395Y-115.212
X109.402Y-113.695
X109.522Y-121.744
X109.536Y-101.47
X109.587Y-120.369
X109.615Y-109.214
X109.73Y-136.447
X109.758Y-129.607
X109.912Y-111.043
X109.975Y-110.135
X110.107Y-142.745
X110.184Y-128.614
X110.534Y-107.43
X110.633Y-106.379
X110.719Y-136.306
X110.957Y-139.712
X110.964Y-127.609
X111.052Y-137.11
X111.37Y-138.388
X111.55Y-139.093
X111.67Y-136.286
X112.069Y-119.204
X112.104Y-144.788
X112.142Y-120.175
X112.176Y-135.661
X112.352Y-118.278
X112.363Y-136.788
X112.456Y-113.597
X112.498Y-108.65
X112.509Y-111.859
X112.536Y-123.885
X112.554Y-129.404
X112.8Y-137.4
X112.963Y-127.757
X113.08Y-121.225
X113.132Y-138.42
X113.289Y-121.947
X113.3Y-139.123
X113.315Y-115.367
X113.331Y-105.974
X113.344Y-131.494
X113.558Y-123.636
X113.844Y-138.181
X113.892Y-143.467
X113.906Y-128.244
X114.316Y-115.59
X115.193Y-113.042
X115.367Y-121.766
X116.042Y-104.684
X116.376Y-131.487
X116.4Y-142.8
X117.458Y-100.812
X117.764Y-128.998
X117.993Y-104.104
X118.2Y-115.8
X118.2Y-141.0
X118.2Y-142.8
X118.417Y-134.85
X118.594Y-111.422
X118.845Y-113.478
X118.859Y-131.037
X118.888Y-132.368
X118.91Y-107.191
X118.986Y-112.774
X119.304Y-144.788
X119.435Y-145.68
X119.589Y-111.533
X119.711Y-121.338
X119.802Y-117.999
X120.0Y-142.8
X120.256Y-117.142
X120.349Y-121.921
X120.789Y-118.188
X120.8Y-144.702
X120.981Y-103.799
X121.082Y-100.35
X121.156Y-138.181
X121.562Y-140.636
X121.635Y-116.933
X121.715Y-137.2
X121.8Y-135.6
X121.8Y-142.8
X121.882Y-123.538
X121.934Y-113.332
X121.943Y-114.035
X122.088Y-107.651
X122.167Y-128.138
X122.26Y-132.337
X122.278Y-143.751
X122.287Y-120.288
X122.5Y-119.38
X122.543Y-138.377
X122.759Y-143.08
X123.068Y-107.388
X123.137Y-101.3
X123.201Y-139.655
X123.264Y-120.411
X123.279Y-136.808
X123.319Y-123.414
X123.424Y-138.385
X123.6Y-135.6
X123.6Y-141.0
X123.729Y-119.632
X124.09Y-105.089
X124.151Y-132.695
X124.231Y-104.118
X124.354Y-145.455
X124.432Y-119.441
X124.564Y-111.328
X124.666Y-121.608
X124.692Y-140.621
X124.721Y-116.102
X124.878Y-141.851
X124.878Y-143.751
X124.96Y-136.458
X125.156Y-103.883
X125.175Y-109.129
X125.4Y-133.8
X125.4Y-142.8
X125.419Y-127.905
X125.77Y-132.053
X125.807Y-140.725
X126.093Y-130.416
X126.155Y-144.504
X126.354Y-135.705
X126.556Y-138.525
X126.558Y-104.713
X126.805Y-130.54
X126.805Y-132.337
X127.2Y-142.8
X127.29Y-117.848
X127.303Y-121.888
X127.506Y-114.328
X127.715Y-118.736
X128.386Y-111.806
X128.603Y-102.531
X128.758Y-117.391
X128.957Y-137.004
X128.964Y-108.419
X129.0Y-103.2
X129.654Y-116.995
X129.792Y-111.293
X129.854Y-100.717
X129.914Y-143.064
X130.083Y-135.995
X130.493Y-141.6
X130.647Y-131.249
X130.8Y-117.6
X131.01Y-126.138
X131.111Y-130.54
X131.578Y-139.761
X131.593Y-138.346
X131.646Y-132.12
X131.716Y-127.647
X131.724Y-109.19
X131.998Y-125.671
X132.094Y-113.997
X132.465Y-122.86
X132.6Y-101.4
X132.6Y-130.2
X132.6Y-132.0
X132.6Y-133.8
X132.801Y-120.851
X133.058Y-137.2
X133.31Y-109.523
X133.388Y-140.488
X134.035Y-106.455
X134.035Y-107.655
X134.035Y-108.855
X134.205Y-140.66
X134.4Y-101.4
X134.4Y-130.2
X134.536Y-127.303
X134.88Y-111.485
X134.938Y-125.817
X135.415Y-143.468
X135.435Y-104.055
X135.435Y-105.255
X135.435Y-106.455
X135.435Y-110.055
X135.506Y-114.931
X135.563Y-124.895
X135.58Y-113.594
X135.719Y-125.879
X135.82Y-117.936
X136.102Y-131.857
X136.2Y-103.2
X136.2Y-121.2
X136.2Y-135.6
X136.2Y-141.0
X136.406Y-111.119
X136.57Y-120.114
X136.577Y-113.182
X137.037Y-104.269
X137.054Y-100.717
X137.567Y-104.733
X137.997Y-112.65
X138.0Y-133.8
X138.0Y-142.8
X138.062Y-124.845
X138.281Y-123.431
X138.531Y-130.092
X139.029Y-111.699
X139.1Y-112.45
X139.1Y-113.35
X139.134Y-141.976
X139.174Y-125.675
X139.386Y-104.506
X139.531Y-124.994
X139.612Y-111.101
X139.701Y-116.343
X139.8Y-110.4
X139.8Y-128.4
X139.8Y-135.6
X139.822Y-141.365
X139.905Y-100.215
X140.0Y-113.35
X140.473Y-108.331
X140.66Y-134.54
X140.66Y-110.57
X140.858Y-100.962
X141.278Y-133.23
X141.6Y-101.4
X141.6Y-130.2
X141.6Y-132.0
X141.6Y-137.4
X141.6Y-142.8
X142.033Y-145.505
X142.538Y-121.392
X142.835Y-126.231
X143.44Y-109.02
X143.744Y-104.685
X143.812Y-115.398
X143.877Y-143.149
X144.012Y-120.34
X144.044Y-136.759
X144.117Y-123.312
T5
X119.61Y-105.13
X125.39Y-105.13
T6
X119.15Y-140.051
X127.15Y-140.051
T4
X118.175Y-101.75G85X118.175Y-101.15
G05
X118.175Y-106.1G85X118.175Y-105.2
G05
X126.825Y-101.75G85X126.825Y-101.15
G05
X126.825Y-106.1G85X126.825Y-105.2
G05
M30
